<svg width="117" height="128" viewBox="0 0 117 128" fill="none" xmlns="http://www.w3.org/2000/svg">
<path d="M9.36 119L24.4 33.56H0.0800002L2 23.32C24.4 23 27.6 21.08 32.72 3.64H42.96L22.64 119H9.36Z" fill="#E0004D"/>
<path d="M32.5 63.1702C32.5 61.4194 34.1342 60 36.15 60H101.85C103.866 60 105.5 61.4194 105.5 63.1702V108.83C105.5 110.581 103.866 112 101.85 112H36.15C34.1342 112 32.5 110.581 32.5 108.83V63.1702Z" fill="white" stroke="#040000" stroke-width="2" stroke-linejoin="round"/>
<path d="M32.5 69H105.5H32.5Z" fill="white"/>
<path d="M32.5 69H105.5" stroke="#040000" stroke-width="2" stroke-linecap="round" stroke-linejoin="round"/>
<path d="M84.4812 90.6289C84.4812 99.2508 77.4827 106.258 68.8712 106.258C60.2597 106.258 53.2612 99.2508 53.2612 90.6289C53.2612 82.0069 60.2597 75 68.8712 75C77.4827 75 84.4812 82.0069 84.4812 90.6289Z" stroke="black" stroke-width="2" stroke-linecap="round" stroke-linejoin="round"/>
<path d="M61.62 95.06L63.06 93.86C63.86 95.42 65.1 96.3 66.72 96.48V91.34C64.54 90.88 62.3 90.26 62.3 87.58C62.3 85.28 64.24 83.72 66.72 83.52V81.62H68.18V83.54C70.24 83.78 71.8 84.8 72.54 86.28L71.16 87.44C70.54 86.22 69.56 85.38 68.18 85.14V89.9C70.38 90.36 72.64 91.02 72.64 93.84C72.64 96.24 70.7 97.82 68.18 98.1V100.04H66.72V98.12C64.44 97.92 62.52 96.78 61.62 95.06ZM64.06 87.46C64.06 88.78 65.24 89.26 66.72 89.58V85.1C65.18 85.26 64.06 86.14 64.06 87.46ZM70.88 93.96C70.88 92.54 69.68 92.02 68.18 91.66V96.48C69.72 96.28 70.88 95.46 70.88 93.96Z" fill="black"/>
</svg>
