<svg width="116" height="128" viewBox="0 0 116 128" fill="none" xmlns="http://www.w3.org/2000/svg">
<path d="M3.4 119L5.48 107.32L53.8 70.2C72.2 56.12 81.96 45.56 81.96 32.12C81.96 21.08 74.12 14.2 61 14.2C44.68 14.2 33.64 25.88 33 43.64H19.72C21.48 18.84 38.6 2.35999 61.16 2.35999C81.96 2.35999 95.56 14.36 95.56 31.48C95.56 51.32 78.28 66.52 61.32 79.48L25.16 107.16H82.6L80.52 119H3.4Z" fill="#E0004D"/>
<path d="M55.0262 80.4159C53.0953 81.0982 47.4678 85.5928 45.97 87.6571L73.1734 102.639C75.0801 104.081 81.6608 107.297 87.284 105.181C87.284 105.181 97.9055 109.192 103.139 113.244L113.482 96.9831C110.585 95.7533 70.1696 79.5748 67.2339 79.0987C64.2983 78.6226 56.9605 79.735 55.0262 80.4159Z" fill="white"/>
<path d="M45.97 87.6571C47.4678 85.5928 53.0953 81.0982 55.0262 80.4159C56.9605 79.735 64.2983 78.6226 67.2339 79.0987C70.1696 79.5748 110.585 95.7533 113.482 96.9831M103.139 113.244C97.9055 109.192 87.284 105.181 87.284 105.181C81.6608 107.297 75.0801 104.081 73.1734 102.639C71.2667 101.197 66.1134 98.3947 66.1134 98.3947" stroke="black" stroke-width="1.5" stroke-miterlimit="10" stroke-linecap="round"/>
<path d="M46.0686 97.1151C46.0686 97.1151 44.2863 97.6348 43.6483 97.9702C43.0102 98.3056 42.6096 98.9205 42.7416 99.8418C42.8737 100.763 44.6954 101.498 46.3762 100.661C48.057 99.8236 48.4928 100.148 48.4928 100.148L48.0571 97.9765L46.0686 97.1151Z" fill="white" stroke="black" stroke-width="1.5" stroke-miterlimit="10" stroke-linecap="round"/>
<path d="M45.7064 93.9449C45.7064 93.9449 44.2806 95.5466 43.8603 96.2637C43.4387 96.9842 43.4237 97.8295 44.1114 98.6504C44.8026 99.4726 47.0355 99.075 48.1714 97.2286C49.3073 95.3823 49.9316 95.4298 49.9316 95.4298L48.1768 93.5717L45.7064 93.9449Z" fill="white" stroke="black" stroke-width="1.5" stroke-miterlimit="10" stroke-linecap="round"/>
<path d="M89.9698 51.8381C89.3707 50.4904 88.2553 49.9876 87.6031 49.7373L71.7741 43.6601C71.1254 43.411 69.9567 43.0368 68.6096 43.6373C67.1443 44.2905 66.5104 45.3805 65.9522 46.8447C58.2838 66.9406 50.6154 87.0366 42.9436 107.131C42.3675 108.632 42.1052 109.927 41.9723 110.845C41.7429 112.463 41.5843 113.692 42.2183 114.959C42.2798 115.085 42.3487 115.201 42.4167 115.31C42.7806 115.893 43.3348 116.337 43.9767 116.583L59.4609 122.528C60.0413 122.751 60.6774 122.819 61.2827 122.671C61.4641 122.626 61.6509 122.569 61.8441 122.494C63.1652 121.981 63.8701 120.962 64.7803 119.601C65.299 118.832 65.9689 117.689 66.5437 116.192C74.294 96.1275 82.0443 76.063 89.7913 55.9972C90.3529 54.5343 90.6147 53.3014 89.963 51.8355L89.9698 51.8381Z" fill="white" stroke="black" stroke-width="1.5" stroke-miterlimit="10" stroke-linecap="round" stroke-linejoin="round"/>
<path d="M88.7591 51.6183C88.3484 50.6291 87.5744 50.2256 86.9475 49.9849L71.7763 44.1602C71.1494 43.9196 70.3042 43.7014 69.3371 44.1616C68.1867 44.7091 67.6792 45.5625 67.1524 46.9444L44.3188 106.75C43.9891 107.609 43.9292 107.94 43.8331 108.561C43.6768 109.593 43.7681 110.653 44.1776 111.586C44.3081 111.881 44.4719 112.176 44.6776 112.44C45.5332 113.529 47.3305 114.282 47.3305 114.282L58.1825 118.449C58.1825 118.449 60.0202 119.087 61.3866 118.855C61.7163 118.797 62.0389 118.688 62.3296 118.555C63.2587 118.136 64.0344 117.413 64.6099 116.538C64.9574 116.014 65.1303 115.729 65.4612 114.867L88.5169 55.1468C89.047 53.7662 89.243 52.7971 88.7558 51.617L88.7591 51.6183Z" fill="white" stroke="black" stroke-miterlimit="10" stroke-linecap="round"/>
<path d="M59.7678 102.892L56.8144 101.759C56.7993 101.753 56.7607 101.817 56.7281 101.902L56.374 102.824C56.3414 102.909 56.3272 102.982 56.3423 102.988L59.2958 104.122C59.3108 104.128 59.3495 104.064 59.3821 103.979L59.7362 103.057C59.7688 102.972 59.7829 102.898 59.7678 102.892Z" fill="black"/>
<path d="M58.3655 106.542L55.4121 105.408C55.397 105.403 55.3583 105.467 55.3258 105.552L54.9717 106.474C54.9391 106.559 54.9249 106.632 54.94 106.638L57.8934 107.772C57.9085 107.778 57.9471 107.714 57.9797 107.629L58.3338 106.707C58.3664 106.622 58.3806 106.548 58.3655 106.542Z" fill="black"/>
<path d="M56.9641 110.193L54.0107 109.059C53.9956 109.053 53.957 109.117 53.9244 109.202L53.5703 110.124C53.5377 110.209 53.5235 110.283 53.5386 110.288L56.492 111.422C56.5071 111.428 56.5458 111.364 56.5784 111.279L56.9325 110.357C56.965 110.272 56.9792 110.199 56.9641 110.193Z" fill="black"/>
<path d="M70.6568 88.5703C70.8253 88.0703 70.9071 87.6938 70.9383 87.5411C71.0238 87.1347 71.0666 86.9315 71.0686 86.6303C71.0688 86.3441 71.0666 86.0334 70.8982 85.6354C70.7578 85.307 70.5747 85.0799 70.5243 85.0174C70.5243 85.0174 70.3212 84.7708 70.0302 84.5492C68.704 83.5341 65.904 82.5415 65.904 82.5415C65.904 82.5415 65.2408 82.279 64.7725 82.111C64.1001 81.8725 63.6043 81.7252 63.4031 81.6676C62.8671 81.5128 62.5984 81.4371 62.2144 81.376C61.8454 81.3167 61.4533 81.2563 60.9819 81.3106C60.592 81.357 60.3407 81.4605 60.2711 81.4887C60.149 81.5516 59.9709 81.648 59.7766 81.7969C59.1305 82.2861 58.8541 82.8938 58.3333 84.0665C58.0341 84.7438 57.8696 85.2336 57.7536 85.5969C57.7001 85.7567 57.5754 86.1324 57.4721 86.6261C57.3866 87.0325 57.3438 87.2357 57.3418 87.5369C57.3416 87.8231 57.3438 88.1338 57.5122 88.5318C57.6525 88.8602 57.8356 89.0873 57.8861 89.1498C57.8861 89.1498 58.0891 89.3964 58.3802 89.618C59.7064 90.633 62.5064 91.6257 62.5064 91.6257C62.5064 91.6257 63.1696 91.8882 63.6379 92.0562C64.3102 92.2947 64.8061 92.4419 65.0073 92.4996C65.5433 92.6544 65.812 92.7301 66.196 92.7912C66.5649 92.8505 66.957 92.9109 67.4284 92.8566C67.8184 92.8102 68.0697 92.7067 68.1393 92.6785C68.1393 92.6785 68.4108 92.5631 68.6337 92.3702C69.6551 91.4957 70.3421 89.4103 70.3421 89.4103C70.3421 89.4103 70.5413 88.9221 70.6555 88.5737L70.6568 88.5703Z" stroke="#E61051" stroke-miterlimit="10"/>
<path d="M61.2974 94.6007L61.2222 94.5718C61.2165 94.5696 61.2102 94.5725 61.208 94.5781L60.7185 95.853C60.7163 95.8587 60.7192 95.865 60.7248 95.8672L60.8 95.8961C60.8057 95.8982 60.812 95.8954 60.8142 95.8897L61.3037 94.6149C61.3059 94.6092 61.303 94.6029 61.2974 94.6007Z" fill="black"/>
<path d="M61.0135 94.5741L60.94 94.6069C60.9344 94.6093 60.9319 94.6158 60.9344 94.6214L61.098 94.9894C61.1005 94.9949 61.1069 94.9974 61.1125 94.9949L61.186 94.9621C61.1916 94.9597 61.1941 94.9532 61.1916 94.9476L61.028 94.5796C61.0256 94.5741 61.0191 94.5716 61.0135 94.5741Z" fill="black"/>
<path d="M61.0715 94.9081L61.1042 94.9817C61.1066 94.9872 61.1131 94.9897 61.1187 94.9872L61.4865 94.8233C61.4921 94.8208 61.4945 94.8143 61.4921 94.8087L61.4594 94.7351C61.4569 94.7296 61.4504 94.7271 61.4449 94.7296L61.077 94.8936C61.0715 94.896 61.069 94.9025 61.0715 94.9081Z" fill="black"/>
<path d="M60.9632 95.5563L60.9305 95.4827C60.928 95.4771 60.9215 95.4747 60.916 95.4771L60.5482 95.6412C60.5426 95.6436 60.5402 95.6501 60.5426 95.6557L60.5754 95.7293C60.5778 95.7348 60.5843 95.7373 60.5898 95.7348L60.9577 95.5708C60.9632 95.5683 60.9657 95.5618 60.9632 95.5563Z" fill="black"/>
<path d="M61.0097 95.8898L61.0832 95.857C61.0888 95.8545 61.0913 95.848 61.0888 95.8425L60.9253 95.4745C60.9228 95.4689 60.9163 95.4664 60.9108 95.4689L60.8372 95.5017C60.8317 95.5042 60.8292 95.5106 60.8316 95.5162L60.9952 95.8842C60.9976 95.8898 61.0041 95.8923 61.0097 95.8898Z" fill="black"/>
<path d="M60.6055 94.6694L60.543 94.7201C60.5382 94.724 60.5375 94.7309 60.5413 94.7356L61.3993 95.7966C61.4032 95.8013 61.4101 95.8021 61.4148 95.7982L61.4773 95.7476C61.4821 95.7437 61.4828 95.7368 61.479 95.7321L60.621 94.6711C60.6171 94.6664 60.6102 94.6656 60.6055 94.6694Z" fill="black"/>
<path d="M60.4425 94.8987L60.434 94.9788C60.4334 94.9849 60.4378 94.9903 60.4438 94.9909L60.8443 95.033C60.8503 95.0336 60.8557 95.0292 60.8564 95.0232L60.8648 94.9431C60.8655 94.9371 60.8611 94.9317 60.8551 94.931L60.4545 94.8889C60.4485 94.8883 60.4431 94.8927 60.4425 94.8987Z" fill="black"/>
<path d="M60.7676 95.0178L60.8477 95.0262C60.8538 95.0268 60.8592 95.0225 60.8598 95.0164L60.902 94.6159C60.9027 94.6099 60.8983 94.6045 60.8922 94.6038L60.8121 94.5954C60.8061 94.5948 60.8007 94.5992 60.8001 94.6052L60.7578 95.0057C60.7572 95.0118 60.7616 95.0172 60.7676 95.0178Z" fill="black"/>
<path d="M61.2622 95.4412L61.1821 95.4328C61.176 95.4322 61.1706 95.4365 61.17 95.4426L61.1278 95.8431C61.1271 95.8491 61.1315 95.8545 61.1375 95.8551L61.2176 95.8635C61.2237 95.8642 61.2291 95.8598 61.2297 95.8538L61.2719 95.4533C61.2726 95.4472 61.2682 95.4418 61.2622 95.4412Z" fill="black"/>
<path d="M61.5932 95.5715L61.6016 95.4914C61.6023 95.4854 61.5979 95.48 61.5919 95.4793L61.1913 95.4374C61.1853 95.4367 61.1799 95.4411 61.1793 95.4472L61.1708 95.5273C61.1702 95.5333 61.1746 95.5387 61.1806 95.5393L61.5811 95.5813C61.5872 95.5819 61.5926 95.5775 61.5932 95.5715Z" fill="black"/>
<path d="M60.3129 95.2983L60.3254 95.3778C60.3264 95.3838 60.332 95.3879 60.338 95.387L61.6857 95.173C61.6916 95.172 61.6957 95.1664 61.6948 95.1604L61.6822 95.0808C61.6813 95.0749 61.6757 95.0708 61.6697 95.0717L60.322 95.2857C60.316 95.2867 60.3119 95.2923 60.3129 95.2983Z" fill="black"/>
<path d="M60.4282 95.5668L60.4933 95.6141C60.4982 95.6177 60.5051 95.6166 60.5087 95.6117L60.7453 95.2859C60.7489 95.2809 60.7478 95.2741 60.7429 95.2705L60.6777 95.2231C60.6728 95.2196 60.666 95.2207 60.6624 95.2256L60.4257 95.5514C60.4222 95.5563 60.4233 95.5632 60.4282 95.5668Z" fill="black"/>
<path d="M60.703 95.3363L60.7504 95.2711C60.7539 95.2662 60.7529 95.2593 60.748 95.2557L60.4223 95.0189C60.4174 95.0153 60.4105 95.0164 60.4069 95.0213L60.3596 95.0865C60.356 95.0914 60.3571 95.0982 60.362 95.1018L60.6877 95.3387C60.6926 95.3423 60.6995 95.3412 60.703 95.3363Z" fill="black"/>
<path d="M61.3197 95.1154L61.2723 95.1806C61.2688 95.1855 61.2698 95.1923 61.2748 95.1959L61.6005 95.4327C61.6054 95.4363 61.6123 95.4352 61.6158 95.4303L61.6632 95.3651C61.6667 95.3602 61.6656 95.3534 61.6607 95.3498L61.335 95.113C61.3301 95.1094 61.3232 95.1105 61.3197 95.1154Z" fill="black"/>
<path d="M61.5879 94.899L61.5228 94.8517C61.5179 94.8481 61.511 94.8492 61.5075 94.8541L61.2708 95.18C61.2672 95.1849 61.2683 95.1917 61.2732 95.1953L61.3384 95.2427C61.3433 95.2462 61.3502 95.2452 61.3537 95.2402L61.5904 94.9144C61.5939 94.9095 61.5929 94.9026 61.5879 94.899Z" fill="black"/>
<path d="M76.3325 56.5832L75.9873 56.4507L75.6527 57.3223L75.9979 57.4548L76.3325 56.5832Z" fill="black"/>
<path d="M76.9751 56.8293L76.6299 56.6968L76.1325 57.9922L76.4778 58.1247L76.9751 56.8293Z" fill="black"/>
<path d="M75.9321 57.6252L75.5869 57.4927L75.4898 57.7456L75.835 57.8781L75.9321 57.6252Z" fill="black"/>
<path d="M73.8733 57.0274L73.8707 57.0342L74.2736 57.1889L75.0659 56.9519L74.8546 57.5022L75.1892 57.6306L75.6865 56.3352L75.3519 56.2068L75.1315 56.781L74.6827 55.9498L74.3174 55.8096L74.3148 55.8164L74.8003 56.7558L73.8733 57.0274Z" fill="black"/>
<path d="M77.3103 58.2602L77.1874 58.213L77.4406 57.5533C77.522 57.3414 77.7481 57.2831 77.9325 57.3539C78.1168 57.4247 78.2424 57.618 78.1645 57.8313L77.8509 58.6481L78.4381 58.8736L78.3871 58.6697L78.2642 58.6225L78.5122 57.9765C78.6579 57.5971 78.3469 57.3052 78.0041 57.1775C77.6627 57.0464 77.2362 57.0552 77.0918 57.4312L76.7822 58.2378L77.3694 58.4633L77.3184 58.2594L77.3103 58.2602Z" fill="black"/>
<path d="M72.7187 56.4149C72.8012 56.5878 72.9648 56.733 73.1621 56.8008C73.3921 56.8853 73.6143 56.8882 73.8021 56.8073C73.9696 56.7383 74.088 56.6034 74.1523 56.4359C74.2271 56.2411 74.2134 56.0319 74.1009 55.8554C73.994 55.6849 73.8745 55.588 73.6492 55.5015C73.5843 55.4766 73.5283 55.4591 73.4698 55.4483C73.183 55.3892 72.9579 55.4754 72.8314 55.6111L73.125 55.7238C73.2022 55.6554 73.3708 55.6143 73.5825 55.6955C73.8181 55.786 73.9022 56.0261 73.8376 56.2249L72.7314 55.8002C72.6332 56.0252 72.6341 56.2373 72.7166 56.4102L72.7187 56.4149ZM73.7628 56.4197L73.7576 56.4334C73.666 56.5904 73.4693 56.7149 73.2337 56.6244C72.9981 56.534 72.9432 56.2893 72.9859 56.1371L72.9912 56.1235L73.7628 56.4197Z" fill="black"/>
<path d="M80.0028 88.2799C80.0028 88.2799 78.6375 88.5401 75.2428 87.974C71.8459 87.4032 63.8034 85.0449 60.7827 86.6578C57.7619 88.2707 61.0455 90.555 61.508 90.7992C61.9719 91.04 63.7414 91.9821 65.6769 92.2978C67.6146 92.6182 70.0916 92.4319 71.6474 92.8488C73.2033 93.2657 75.5476 93.7618 77.9967 95.7806C83.4122 100.236 86.0517 101.963 88.944 101.195" fill="white"/>
<path d="M80.0028 88.2799C80.0028 88.2799 78.6375 88.5401 75.2428 87.974C71.8459 87.4032 63.8034 85.0449 60.7827 86.6578C57.7619 88.2707 61.0455 90.555 61.508 90.7992C61.9719 91.04 63.7414 91.9821 65.6769 92.2978C67.6146 92.6182 70.0916 92.4319 71.6474 92.8488C73.2033 93.2657 75.5476 93.7618 77.9967 95.7806C83.4122 100.236 86.0517 101.963 88.944 101.195" stroke="black" stroke-width="1.5" stroke-miterlimit="10" stroke-linecap="round"/>
<path d="M45.6412 89.7075C44.5674 92.0248 44.613 95.6816 44.9738 96.3848C45.3311 97.0868 47.1931 98.3389 47.8498 95.9243C48.5066 93.5097 48.242 90.8825 47.4883 89.9068" fill="white"/>
<path d="M45.6412 89.7075C44.5674 92.0248 44.613 95.6816 44.9738 96.3848C45.3311 97.0868 47.1931 98.3389 47.8498 95.9243C48.5066 93.5097 48.242 90.8825 47.4883 89.9068" stroke="black" stroke-width="1.5" stroke-miterlimit="10" stroke-linecap="round"/>
<path d="M45.9632 87.7054C44.8894 90.0226 45.3937 93.6477 45.7511 94.3497C46.1084 95.0516 47.9704 96.3037 48.6271 93.8891C49.2839 91.4745 49.0193 88.8473 48.2656 87.8716" fill="white"/>
<path d="M45.9632 87.7054C44.8894 90.0226 45.3937 93.6477 45.7511 94.3497C46.1084 95.0516 47.9704 96.3037 48.6271 93.8891C49.2839 91.4745 49.0193 88.8473 48.2656 87.8716" stroke="black" stroke-width="1.5" stroke-miterlimit="10" stroke-linecap="round"/>
</svg>
