<svg width="200" height="200" viewBox="0 0 200 200" fill="none" xmlns="http://www.w3.org/2000/svg">
<mask id="mask0_96_2501" style="mask-type:alpha" maskUnits="userSpaceOnUse" x="0" y="0" width="200" height="200">
<path d="M100 200C80.2219 200 60.8879 194.135 44.443 183.147C27.9981 172.159 15.1809 156.541 7.61209 138.268C0.0433281 119.996 -1.937 99.8891 1.92152 80.491C5.78004 61.0929 15.3041 43.2746 29.2894 29.2894C43.2746 15.3041 61.0929 5.78004 80.491 1.92152C99.8891 -1.937 119.996 0.0433281 138.268 7.61209C156.541 15.1809 172.159 27.9981 183.147 44.443C194.135 60.8879 200 80.2219 200 100C199.971 126.513 189.426 151.931 170.679 170.679C151.931 189.426 126.513 199.971 100 200ZM100 2.44709C80.7029 2.44709 61.8392 8.16949 45.7945 18.8906C29.7497 29.6117 17.2446 44.8501 9.86045 62.6785C2.47634 80.5069 0.544931 100.125 4.31049 119.051C8.07605 137.977 17.3694 155.361 31.0154 169.005C44.6613 182.65 62.0469 191.941 80.9735 195.704C99.9001 199.467 119.518 197.533 137.345 190.147C155.173 182.761 170.409 170.254 181.128 154.208C191.847 138.161 197.568 119.297 197.565 100C197.533 74.1352 187.243 49.3391 168.953 31.051C150.662 12.7629 125.865 2.47608 100 2.44709Z" fill="white"/>
<path d="M171.243 139.202C171.034 139.201 170.827 139.146 170.645 139.042C170.462 138.939 170.31 138.79 170.202 138.609C170.094 138.429 170.035 138.224 170.03 138.015C170.024 137.805 170.073 137.597 170.172 137.412C175.107 128.117 178.157 117.937 179.145 107.46C180.133 96.9817 179.041 86.4118 175.931 76.3576C175.847 76.0526 175.885 75.7268 176.037 75.4494C176.189 75.1719 176.443 74.9645 176.745 74.8711C177.047 74.7777 177.374 74.8057 177.656 74.9491C177.938 75.0925 178.153 75.3401 178.256 75.6393C181.462 86.0004 182.588 96.8933 181.568 107.691C180.549 118.489 177.404 128.979 172.315 138.556C172.211 138.751 172.057 138.913 171.868 139.027C171.68 139.141 171.464 139.201 171.243 139.202Z" fill="white"/>
<path d="M31.2146 143.474C31.0077 143.475 30.8041 143.422 30.6231 143.322C30.442 143.222 30.2895 143.078 30.1798 142.902C24.4526 133.561 20.6523 123.168 19.0026 112.335C17.353 101.503 17.8873 90.4498 20.5743 79.8269C20.6534 79.5138 20.8536 79.2448 21.131 79.0793C21.2684 78.9973 21.4206 78.9432 21.5788 78.9201C21.7371 78.8969 21.8984 78.9051 22.0534 78.9443C22.2085 78.9835 22.3544 79.0528 22.4826 79.1483C22.6109 79.2439 22.7191 79.3638 22.8011 79.5011C22.8831 79.6385 22.9372 79.7906 22.9603 79.9489C22.9835 80.1071 22.9752 80.2684 22.9361 80.4235C20.3284 90.7302 19.809 101.454 21.4085 111.965C23.008 122.475 26.6939 132.559 32.2494 141.624C32.4173 141.897 32.4705 142.226 32.3976 142.538C32.3246 142.85 32.1314 143.121 31.8599 143.292C31.6661 143.412 31.4426 143.475 31.2146 143.474Z" fill="white"/>
<path d="M71.6091 93.3651C72.8265 97.4679 75.6632 100.451 80.6181 100.451C87.2288 100.451 92.2933 93.9617 92.2933 83.9422V83.3456C91.1727 85.426 89.5003 87.1573 87.46 88.3492C85.4196 89.5412 83.0903 90.1478 80.7277 90.1024C78.8674 90.1163 77.0234 89.755 75.3059 89.0402C73.5884 88.3254 72.0326 87.2718 70.7314 85.9422C69.4302 84.6126 68.4104 83.0344 67.7329 81.3019C67.0554 79.5693 66.734 77.718 66.7881 75.8584C66.7583 73.91 67.121 71.9755 67.8544 70.1701C68.5879 68.3648 69.6771 66.7255 71.0573 65.3498C72.4375 63.9742 74.0804 62.8904 75.8881 62.1629C77.6959 61.4354 79.6316 61.0791 81.5799 61.1153C92.5368 61.1153 97.4917 70.8548 97.4917 82.7491C97.4917 96.3356 90.2724 105.223 80.4477 105.223C73.0579 105.223 68.7603 101.23 66.922 95.3252L71.6091 93.3651ZM81.5799 85.3787C82.8659 85.3758 84.1384 85.1163 85.3229 84.6155C86.5073 84.1146 87.58 83.3824 88.4779 82.4618C89.3758 81.5412 90.0811 80.4506 90.5522 79.254C91.0234 78.0574 91.2511 76.7789 91.222 75.4932C91.1646 73.6114 90.5548 71.7881 89.4685 70.2504C88.3823 68.7127 86.8676 67.5286 85.1131 66.8456C83.3587 66.1627 81.4421 66.011 79.6021 66.4096C77.7621 66.8082 76.08 67.7393 74.7654 69.0871C73.4509 70.4348 72.562 72.1396 72.2094 73.989C71.8568 75.8383 72.0562 77.7506 72.7827 79.4874C73.5092 81.2243 74.7307 82.709 76.295 83.7566C77.8593 84.8042 79.6972 85.3683 81.5799 85.3787Z" fill="white"/>
<path d="M118.394 61.1152C128.523 61.1152 134.659 70.1121 134.659 83.163C134.659 96.2138 128.572 105.223 118.394 105.223C108.217 105.223 102.069 96.1895 102.069 83.163C102.069 70.1364 108.204 61.1152 118.394 61.1152ZM118.394 100.207C125.309 100.207 128.998 93.1824 128.998 83.163C128.998 73.1435 125.346 66.1189 118.394 66.1189C111.443 66.1189 107.778 73.1557 107.778 83.163C107.778 93.1703 111.418 100.207 118.394 100.207Z" fill="white"/>
<path d="M67.0686 115.364H73.6671C79.7543 115.364 83.4066 119.102 83.4066 124.958C83.4066 130.813 79.7543 134.551 73.6671 134.551H67.0686V115.364ZM73.6671 131.191C77.3194 131.191 79.5108 128.756 79.5108 124.97C79.5108 121.184 77.3803 118.749 73.6306 118.749H70.9157V131.191H73.6671Z" fill="white"/>
<path d="M94.8508 115.364L102.034 134.551H98.0526L96.5308 130.436H88.6297L87.0957 134.551H83.2L90.3585 115.364H94.8508ZM89.8471 127.088H95.2769L92.5498 119.784L89.8471 127.088Z" fill="white"/>
<path d="M113.367 115.364H117.531L110.616 126.747V134.551H106.684V126.747L99.7444 115.364H104.018L108.693 123.144L113.367 115.364Z" fill="white"/>
<path d="M118.918 128.427C119.529 129.361 120.355 130.133 121.328 130.678C122.301 131.223 123.392 131.524 124.506 131.556C126.503 131.556 127.976 130.68 127.976 129.048C127.976 127.417 126.162 127.04 123.277 126.394C120.392 125.749 117.324 124.824 117.324 121.025C117.324 117.227 120.465 115.072 124.446 115.072C125.847 115.006 127.244 115.28 128.516 115.872C129.788 116.463 130.898 117.355 131.75 118.469L129.06 121.001C128.556 120.196 127.856 119.531 127.026 119.069C126.196 118.607 125.262 118.363 124.312 118.359C122.437 118.359 121.159 119.272 121.159 120.66C121.159 122.048 122.546 122.45 125.054 123.01C128.098 123.679 131.835 124.446 131.835 128.647C131.835 132.518 128.427 134.843 124.336 134.843C121.098 134.843 117.738 133.37 116.191 131.045L118.918 128.427Z" fill="white"/>
<path d="M37.4732 154.297C36.8694 154.259 36.2839 154.075 35.7666 153.761C35.2494 153.447 34.8157 153.013 34.5026 152.496C32.64 149.902 33.2852 146.481 36.3166 144.339C39.348 142.196 42.8908 142.573 44.8387 145.288C45.5337 146.174 45.9115 147.267 45.9115 148.393C45.9115 149.519 45.5337 150.612 44.8387 151.497L42.7812 150.012C43.2343 149.57 43.5085 148.977 43.5512 148.346C43.5938 147.714 43.402 147.09 43.0125 146.591C41.8925 145.033 39.7863 144.911 37.7654 146.36C35.7444 147.808 35.1722 149.866 36.3166 151.449C36.5124 151.741 36.7643 151.991 37.0577 152.185C37.351 152.379 37.68 152.513 38.0255 152.578C38.371 152.644 38.7261 152.64 39.0702 152.568C39.4142 152.495 39.7404 152.355 40.0298 152.155L38.301 149.72L40.0298 148.502L43.1951 152.897L37.7654 156.793L36.5358 154.979L37.4732 154.297Z" fill="white"/>
<path d="M46.2019 158.802L51.0716 153.312L52.9586 154.992L48.0889 160.421C46.7132 161.955 46.8714 163.294 48.0158 164.293C49.1602 165.291 50.4507 165.328 51.8751 163.781L56.7448 158.352L58.6197 160.02L53.7499 165.51C53.3496 166.065 52.8309 166.523 52.2314 166.853C51.632 167.182 50.9667 167.375 50.2839 167.415C49.6011 167.456 48.9178 167.345 48.2833 167.089C47.6489 166.833 47.0793 166.439 46.6158 165.936C46.0601 165.536 45.6006 165.017 45.2709 164.417C44.9412 163.817 44.7495 163.151 44.7099 162.468C44.6702 161.784 44.7836 161.101 45.0417 160.466C45.2998 159.832 45.6961 159.264 46.2019 158.802Z" fill="white"/>
<path d="M67.8717 165.79L65.8508 178.695L63.6351 177.477L64.0855 174.714L59.6906 172.279L57.5479 174.093L55.3809 172.876L65.376 164.366L67.8717 165.79ZM61.4193 170.733L64.4264 172.437L65.2299 167.482L61.4193 170.733Z" fill="white"/>
<path d="M74.7134 182.019L72.2786 181.301L75.8213 169.589L80.618 171.038C83.3085 171.853 84.6112 173.631 83.8807 176.053C83.6796 176.853 83.2033 177.556 82.5353 178.039C81.8674 178.522 81.0506 178.755 80.2284 178.695L81.7502 184.162L79.011 183.334L77.6231 178.16L75.9917 177.673L74.7134 182.019ZM78.9136 176.346C80.3136 176.772 81.2145 176.346 81.5311 175.347C81.8476 174.349 81.3119 173.46 79.9119 173.034L77.6474 172.352L76.637 175.664L78.9136 176.346Z" fill="white"/>
<path d="M96.1056 173.728L99.7579 186.28L97.2256 186.085L96.4586 183.394L91.4306 183.005L90.2132 185.549L87.7783 185.354L93.2811 173.509L96.1056 173.728ZM92.3437 180.947L95.789 181.203L94.4255 176.333L92.3437 180.947Z" fill="white"/>
<path d="M116.886 184.441L114.731 184.77L107.828 177.246L109.046 185.598L106.611 185.951L104.821 173.837L107.341 173.472L113.818 180.631L112.6 172.681L115.035 172.34L116.886 184.441Z" fill="white"/>
<path d="M126.102 170.988L129.681 180.411L127.331 181.3L123.752 171.877L120.1 173.241L119.333 171.22L128.865 167.567L129.632 169.588L126.102 170.988Z" fill="white"/>
<path d="M140.017 160.981L141.174 162.808L136.109 166.009L137.57 168.31L141.807 165.644L142.951 167.458L138.715 170.137L140.334 172.693L145.398 169.503L146.555 171.33L139.409 175.846L132.871 165.498L140.017 160.981Z" fill="white"/>
<path d="M150.013 152.191L151.498 153.762L147.152 157.877L149.027 159.849L152.679 156.404L154.152 157.962L150.5 161.407L152.594 163.611L156.94 159.496L158.425 161.066L152.338 166.886L143.926 157.999L150.013 152.191Z" fill="white"/>
<path d="M153.19 148.539L155.625 145.07C156.082 144.409 156.665 143.846 157.34 143.41C158.015 142.975 158.77 142.678 159.56 142.534C160.35 142.39 161.161 142.404 161.946 142.574C162.731 142.743 163.475 143.066 164.135 143.523C164.795 143.981 165.359 144.564 165.794 145.239C166.229 145.914 166.527 146.668 166.67 147.458C166.814 148.248 166.801 149.059 166.631 149.844C166.461 150.629 166.138 151.373 165.681 152.033L163.246 155.491L153.19 148.539ZM163.879 150.816C164.385 149.949 164.544 148.923 164.325 147.943C164.106 146.964 163.525 146.103 162.698 145.533C161.872 144.964 160.861 144.728 159.867 144.872C158.874 145.016 157.972 145.53 157.342 146.311L156.356 147.736L162.881 152.252L163.879 150.816Z" fill="white"/>
<path d="M22.5335 61.7603L24.5423 62.5881L22.2414 68.1153L24.7614 69.1622L26.685 64.536L28.6694 65.3639L26.7946 69.9901L29.5947 71.2075L31.8834 65.6926L33.88 66.5204L30.5929 74.2755L19.2952 69.5762L22.5335 61.7603Z" fill="white"/>
<path d="M28.4878 51.4854L41.2587 54.2124L39.8951 56.3551L37.1559 55.7585L34.441 60.0074L36.1333 62.2475L34.7941 64.3414L26.9417 53.8959L28.4878 51.4854ZM33.0653 58.2056L34.9402 55.2837L30.0705 54.2246L33.0653 58.2056Z" fill="white"/>
<path d="M40.504 49.1478C41.2015 49.2679 41.9176 49.2201 42.5929 49.0084C43.2683 48.7967 43.8835 48.4272 44.3876 47.9304C45.2398 46.9808 45.459 45.9095 44.692 45.2155C43.925 44.5216 42.9754 45.2155 41.4293 46.2869C39.8831 47.3582 38.1178 48.4174 36.3282 46.786C34.5386 45.1546 34.8917 42.732 36.5961 40.8571C37.1686 40.1796 37.8952 39.6492 38.715 39.3103C39.5347 38.9714 40.4237 38.8339 41.3075 38.9092L41.4049 41.1615C40.8091 41.0577 40.1969 41.1035 39.6232 41.2947C39.0495 41.486 38.5322 41.8167 38.1178 42.2572C37.3022 43.1459 37.1804 44.132 37.8378 44.692C38.4953 45.252 39.2744 44.8016 40.6258 43.8642C42.2449 42.7198 44.2172 41.2832 46.2016 43.0972C48.186 44.9112 47.6382 47.3704 45.8851 49.2939C45.2332 50.0462 44.4156 50.6368 43.4966 51.0192C42.5776 51.4015 41.5823 51.5653 40.5892 51.4975L40.504 49.1478Z" fill="white"/>
<path d="M49.1597 29.6689L51.2415 28.0132L52.2885 36.45L55.3807 40.3458L53.4207 41.9041L50.3284 38.0083L42.342 35.0743L44.4847 33.3821L49.9266 35.4152L49.1597 29.6689Z" fill="white"/>
<path d="M70.4298 31.4587L64.2088 24.361L67.715 32.6152L65.5479 33.5405L60.7634 22.2549L63.9653 20.8914L69.9794 27.8064L69.1637 18.6878L72.3169 17.3486L77.1014 28.6221L74.91 29.5473L71.4038 21.2931L72.1951 30.7039L70.4298 31.4587Z" fill="white"/>
<path d="M83.2354 14.4876C86.5225 13.8302 89.4078 15.9242 90.1261 19.5522C90.8444 23.1801 88.9087 26.2115 85.6825 26.8568C82.4563 27.502 79.4857 25.4202 78.7674 21.7922C78.0492 18.1643 79.924 15.1451 83.2354 14.4876ZM83.6615 16.6425C81.7623 17.0199 80.764 18.8461 81.2266 21.3053C81.6893 23.7645 83.345 25.0793 85.2442 24.7019C87.1434 24.3245 88.1173 22.4984 87.679 20.0391C87.2408 17.5799 85.5242 16.2773 83.6615 16.6425Z" fill="white"/>
<path d="M104.712 25.1885H102.533L96.6771 16.8369L96.7989 25.2737H94.364L94.1814 13.0994H96.7137L102.204 21.037L102.083 13.0142H104.517L104.712 25.1885Z" fill="white"/>
<path d="M118.747 14.9624L118.382 17.0564L112.49 16.0581L112.015 18.7973L116.958 19.6252L116.605 21.7435L111.662 20.9157L111.15 23.8984L117.055 24.9088L116.69 27.0394L108.363 25.5784L110.408 13.5137L118.747 14.9624Z" fill="white"/>
<path d="M131.07 18.7848L133.59 19.6613L127.028 25.0668L125.409 29.7539L122.974 28.9382L124.617 24.2389L122.816 15.9238L125.397 16.8247L126.614 22.4858L131.07 18.7848Z" fill="white"/>
<path d="M143.28 24.6167L147.505 27.3803C149.721 28.8412 150.268 30.5821 149.124 32.3352C148.827 32.8077 148.393 33.1778 147.879 33.3955C147.365 33.6132 146.797 33.6681 146.251 33.5527C146.666 34.0527 146.905 34.676 146.929 35.3256C146.953 35.9752 146.762 36.6145 146.385 37.1441C145.167 38.9337 143.207 39.1529 141.052 37.7285L136.572 34.7944L143.28 24.6167ZM139.738 34.417L142.051 35.9388C143.086 36.6084 143.986 36.4502 144.486 35.6588C144.985 34.8675 144.79 33.9909 143.755 33.3092L141.442 31.7874L139.738 34.417ZM144.607 31.41C145.654 32.0917 146.494 32.0796 147.042 31.2639C147.59 30.4482 147.249 29.669 146.214 28.9873L144.206 27.6725L142.611 30.1073L144.607 31.41Z" fill="white"/>
<path d="M159.837 37.3633L154.772 49.4159L152.922 47.6628L154.017 45.094L150.365 41.6243L147.857 42.8418L146.043 41.1374L157.767 35.3789L159.837 37.3633ZM152.386 40.6139L154.906 42.9879L156.866 38.386L152.386 40.6139Z" fill="white"/>
<path d="M160.714 53.8836C161.085 54.3906 161.624 54.7488 162.236 54.8938C162.847 55.0389 163.49 54.9613 164.049 54.6749L164.829 57.0246C163.787 57.4326 162.637 57.474 161.568 57.1422C160.5 56.8103 159.576 56.1249 158.948 55.1984C156.964 52.5566 157.609 49.1113 160.568 46.8468C163.526 44.5824 167.056 44.9963 169.09 47.6382C169.801 48.5023 170.198 49.5822 170.215 50.7012C170.233 51.8203 169.871 52.9122 169.187 53.7984L167.117 52.3618C167.551 51.904 167.806 51.3063 167.837 50.6767C167.869 50.0471 167.674 49.4271 167.288 48.9286C166.168 47.4312 164.086 47.3582 162.101 48.8434C160.117 50.3287 159.594 52.3618 160.714 53.8836Z" fill="white"/>
<path d="M170.659 60.7988L177.757 62.5154L179.084 65.1329L172.351 63.3919L168.285 70.8913L166.97 68.2738L169.916 62.771L167.847 62.2232L164.718 63.8059L163.586 61.5658L174.543 56.063L175.675 58.2909L170.659 60.7988Z" fill="white"/>
<path d="M99.9989 164.67C87.2084 164.67 74.7051 160.877 64.0702 153.771C53.4352 146.665 45.1463 136.565 40.2516 124.748C35.3569 112.931 34.0762 99.9284 36.5715 87.3837C39.0668 74.8389 45.226 63.3158 54.2703 54.2715C63.3146 45.2273 74.8377 39.068 87.3824 36.5727C99.9272 34.0774 112.93 35.3581 124.747 40.2528C136.564 45.1475 146.664 53.4365 153.77 64.0714C160.876 74.7063 164.669 87.2096 164.669 100C164.65 117.146 157.83 133.584 145.706 145.707C133.582 157.831 117.145 164.651 99.9989 164.67ZM99.9989 37.7528C87.6895 37.7528 75.6564 41.4031 65.4217 48.2422C55.1869 55.0812 47.21 64.8017 42.5 76.1744C37.7899 87.5471 36.5581 100.061 38.9605 112.134C41.3628 124.207 47.2914 135.296 55.9963 143.999C64.7013 152.702 75.7917 158.629 87.8649 161.029C99.9382 163.429 112.452 162.195 123.824 157.482C135.196 152.77 144.914 144.791 151.752 134.555C158.589 124.319 162.237 112.285 162.234 99.9758C162.215 83.4771 155.651 67.6598 143.984 55.9946C132.316 44.3293 116.498 37.7689 99.9989 37.7528Z" fill="white"/>
</mask>
<g mask="url(#mask0_96_2501)">
<rect x="-13" y="-10" width="224" height="210" fill="url(#paint0_linear_96_2501)"/>
</g>
<defs>
<linearGradient id="paint0_linear_96_2501" x1="14" y1="-10" x2="211" y2="200" gradientUnits="userSpaceOnUse">
<stop stop-color="#E7BF8D"/>
<stop offset="1" stop-color="#A67750"/>
</linearGradient>
</defs>
</svg>
