<svg id="illustration" xmlns="http://www.w3.org/2000/svg" width="484.37" height="483.26" viewBox="0 0 484.37 483.26">
  <defs>
    <style>
      .cls-1 {
        fill: #e7004c;
      }
    </style>
  </defs>
  <polygon class="cls-1" points="484.37 241.63 462.28 256.7 482.14 274.61 458.21 286.54 475.44 306.99 450.11 315.53 464.37 338.15 438.1 343.14 449.13 367.49 422.43 368.85 430.05 394.48 403.41 392.2 407.48 418.63 381.4 412.77 381.86 439.5 356.81 430.15 353.63 456.7 330.09 444.03 323.31 469.89 301.73 454.11 291.46 478.79 272.25 460.2 258.7 483.26 242.18 462.23 225.66 483.26 212.12 460.2 192.9 478.79 182.64 454.1 161.05 469.89 154.27 444.02 130.73 456.7 127.55 430.15 102.5 439.49 102.96 412.76 76.87 418.62 80.95 392.2 54.31 394.47 61.93 368.84 35.23 367.48 46.26 343.13 20 338.14 34.26 315.53 8.92 306.98 26.15 286.54 2.23 274.6 22.09 256.7 0 241.63 22.09 226.56 2.23 208.65 26.15 196.72 8.92 176.27 34.26 167.73 20 145.11 46.27 140.12 35.23 115.77 61.94 114.41 54.32 88.78 80.96 91.05 76.88 64.63 102.97 70.49 102.51 43.76 127.56 53.1 130.74 26.55 154.28 39.23 161.06 13.37 182.64 29.15 192.91 4.46 212.12 23.06 225.66 0 242.18 21.03 258.71 0 272.25 23.06 291.46 4.46 301.73 29.15 323.31 13.37 330.09 39.23 353.64 26.56 356.82 53.11 381.87 43.76 381.41 70.5 407.49 64.64 403.42 91.06 430.06 88.79 422.44 114.42 449.14 115.78 438.1 140.13 464.37 145.12 450.11 167.73 475.44 176.28 458.21 196.72 482.14 208.65 462.28 226.56 484.37 241.63"/>
</svg>
