<?xml version="1.0" encoding="UTF-8"?>
<svg id="_图层_2" data-name="图层 2" xmlns="http://www.w3.org/2000/svg" viewBox="0 0 32.57 32.47">
  <defs>
    <style>
      .cls-1 {
        fill: #b2a56d;
      }

      .cls-2 {
        fill: #f7f1d0;
      }

      .cls-3 {
        fill: #fff;
      }

      .cls-4 {
        fill: #e0004d;
      }
    </style>
  </defs>
  <g id="Objects">
    <g>
      <g>
        <g>
          <g>
            <path class="cls-2" d="M4.22,10.74c3.95,1.77,12.52-.6,12.52-.6,0,0-3.43-7.77-7.37-9.54-3.95-1.77-6.04.71-7.47,3.51-1.42,2.8-1.63,4.86,2.32,6.63Z"/>
            <path class="cls-1" d="M7.56,6.48c3.23.44,6.42,3.22,6.42,3.22,0,0-6.27,1.74-9.16.44-1.24-.56-2.07-1.31-2.54-2.14.39-1.21,2.24-1.94,5.27-1.52Z"/>
          </g>
          <g>
            <path class="cls-2" d="M28.11,10.74c-3.95,1.77-12.52-.6-12.52-.6,0,0,3.43-7.77,7.37-9.54,3.95-1.77,6.04.71,7.47,3.51,1.42,2.8,1.63,4.86-2.32,6.63Z"/>
            <path class="cls-1" d="M24.77,6.48c-3.23.44-6.42,3.22-6.42,3.22,0,0,6.27,1.74,9.16.44,1.24-.56,2.07-1.31,2.54-2.14-.39-1.21-2.24-1.94-5.27-1.52Z"/>
          </g>
          <path class="cls-2" d="M18.45,9.14c0,1.69-.19,2.26-2.28,2.26s-2.28-.57-2.28-2.26.19-3.06,2.28-3.06,2.28,1.37,2.28,3.06Z"/>
        </g>
        <path class="cls-4" d="M31.38,9.67H1.19c-.66,0-1.19.53-1.19,1.19v4.13c0,.66.53,1.19,1.19,1.19h-.1v15.21c0,.59.48,1.07,1.07,1.07h28.25c.59,0,1.07-.48,1.07-1.07v-15.21h-.1c.66,0,1.19-.53,1.19-1.19v-4.13c0-.66-.53-1.19-1.19-1.19Z"/>
      </g>
      <path class="cls-3" d="M18.66,17.5h1.25v6.63c-.03,2.13-1.77,3.42-3.63,3.42s-3.6-1.29-3.63-3.42v-8.23h-5.92l1.13,1.61h1.25v6.51c0,3.8,3.73,5.32,7.17,5.31,3.44.01,7.17-1.51,7.17-5.31v-8.12h-5.92l1.13,1.61Z"/>
    </g>
  </g>
</svg>