<?xml version="1.0" encoding="UTF-8"?>
<svg id="_图层_2" data-name="图层 2" xmlns="http://www.w3.org/2000/svg" viewBox="0 0 30.63 34.37">
  <defs>
    <style>
      .cls-1 {
        fill: #ffb76a;
      }

      .cls-2 {
        fill: #fff;
      }

      .cls-3 {
        fill: #a80745;
      }

      .cls-4 {
        fill: #ffbfa4;
      }

      .cls-5 {
        fill: #fcfad9;
      }

      .cls-6 {
        fill: #eae7ce;
      }

      .cls-7 {
        fill: #8e232a;
      }

      .cls-8 {
        fill: #721017;
      }

      .cls-9 {
        fill: #ff7474;
      }

      .cls-10 {
        fill: #e0004d;
      }

      .cls-11 {
        fill: #f7f7f7;
      }
    </style>
  </defs>
  <g id="Objects">
    <g>
      <g>
        <path class="cls-6" d="M28.39,33.31H3.67c-1.51,0-2.74-1.27-2.74-2.82s1.23-2.82,2.74-2.82h.46c.38,0,.7.31.7.7s-.31.7-.7.7h-.46c-.74,0-1.34.64-1.34,1.43s.6,1.43,1.34,1.43h24.72c.38,0,.7.31.7.7s-.31.7-.7.7Z"/>
        <g>
          <path class="cls-5" d="M28.39,34.37H3.67c-1.51,0-2.74-1.27-2.74-2.82s1.23-2.82,2.74-2.82h.46c.38,0,.7.31.7.7s-.31.7-.7.7h-.46c-.74,0-1.34.64-1.34,1.43s.6,1.43,1.34,1.43h24.72c.38,0,.7.31.7.7s-.31.7-.7.7Z"/>
          <polygon class="cls-5" points="14.52 33.49 12.73 33.49 12.13 31.54 13.92 31.54 14.52 33.49"/>
          <polygon class="cls-5" points="21.48 33.49 23.26 33.49 23.86 31.54 22.07 31.54 21.48 33.49"/>
        </g>
        <g>
          <path class="cls-2" d="M6.15,23.93s-1.91,1.73-.46,2.91c.77.63,2.14.3,2.36-.39,0,0-.49,1.73,1.05,2,1.58.28,2.04-1.06,2.04-1.06,0,0,.08,1.57,1.88,1.62,1.6.04,2.09-1.34,2.09-1.34,0,0,.51,1.43,1.87,1.43,1.71,0,1.81-1.54,1.81-1.54,0,0,.89,1.28,2.09.9,1.27-.4,1.08-1.34,1.08-1.34,0,0,1.03.96,1.97.14,1.31-1.14-.37-2.93-.37-2.93l-17.4-.39Z"/>
          <path d="M5.88,7.57s.28-.66,0-1.04c-.27-.38-.39.24-.39.24,0,0-.27-1.55-1.09-1.33s-.85,1.79-.23,2.76l1.71-.64Z"/>
          <path class="cls-11" d="M6.35,7.4s-.02-.01-.03-.02c-1.14-.51-3.01.39-3.02,1.59-.01,1.2,1.02.87,1.07.94l1.96-.84c.73-.31.75-1.34.03-1.67Z"/>
          <path class="cls-10" d="M6.68,8.78c-.12-.42-.52-.69-.95-.63-.37.05-.82.25-1.27.75-1.07,1.19.22,6.92,3.27,9.43,0,0,.97-3.54,1.7-4.94,0,0-2.09-2.29-2.75-4.61Z"/>
          <path d="M25.99,22.7s-.14.7.21,1.02c.34.32.33-.32.33-.32,0,0,.59,1.46,1.35,1.07.76-.4.45-1.93-.35-2.75l-1.54.98Z"/>
          <path class="cls-2" d="M25.56,22.97s.02,0,.04,0c1.22.26,2.86-1.01,2.62-2.18s-1.18-.64-1.24-.7l-1.74,1.23c-.65.46-.45,1.47.32,1.64Z"/>
          <path class="cls-10" d="M24.95,21.69c.2.38.65.56,1.06.41.35-.13.75-.41,1.09-1,.8-1.38-1.66-6.72-5.17-8.54,0,0-.21,3.66-.63,5.19,0,0,2.52,1.8,3.65,3.94Z"/>
          <path class="cls-10" d="M9.55,12.78s-2.77,2.18-3.4,11.14c0,0,9.07,3.65,17.4.39,0,0,.72-9.6-2.57-11.57,0,0-6.76-3.2-11.43.04Z"/>
          <path d="M6.4,21.44c-.1.76-.18,1.59-.25,2.49,0,0,9.07,3.65,17.4.39,0,0,.09-1.13.06-2.7"/>
          <path class="cls-1" d="M17.37,23.18c-.04-.55-.48-.98-1.02-1.01-.89-.05-2.26-.1-3.38.02-.5.05-.91.44-.97.95-.06.48-.11,1.14-.04,1.88.04.48.4.88.87.97.88.18,2.38.38,3.71.1.48-.1.83-.52.86-1.01.02-.46.03-1.11-.02-1.89ZM16.75,25.04c-.01.2-.15.37-.35.41-.45.1-.96.14-1.52.13h0c-.76-.02-1.46-.13-1.92-.22-.19-.04-.34-.2-.35-.39-.06-.71-.01-1.34.04-1.74.03-.2.19-.36.39-.38.58-.06,1.29-.08,2.11-.06.37,0,.76.02,1.16.05.22.01.4.19.42.41.06.78.04,1.42.02,1.81Z"/>
          <path class="cls-1" d="M16.86,23.92c-.4-.03-.88-.03-1.18-.02-.17,0-.31.14-.31.31v.02c0,.17.13.31.29.33.47.04.92.02,1.2,0,.16-.01.29-.15.29-.31,0-.17-.13-.31-.3-.33Z"/>
          <g>
            <path class="cls-10" d="M8.96,7.61s-.26-4.9,4.38-5.99c4.33-1.02,4.99,1.53,7.73-.04,0,0,.74-.08.48.64-.26.73-.94,1.74-1.84,2.22,0,0,.67.92.55,1.58-.12.66-11.29,1.59-11.29,1.59Z"/>
            <path class="cls-4" d="M9.53,10.53s-.23-.72-.83-.52c-.6.21-.43,1.76.98,1.57l-.15-1.05Z"/>
            <path class="cls-11" d="M9.38,10.63s-.99.08-1.04-1.61c-.04-1.69,2.78-4.56,5.91-4.99,3.23-.44,6.14.8,6.75,3.01,0,0,.46.97-.35,1.47-.82.5-11.26,2.12-11.26,2.12Z"/>
            <path class="cls-4" d="M20.44,8.99s.02-.76.66-.73.9,1.57-.51,1.78l-.15-1.05Z"/>
            <ellipse class="cls-4" cx="15.13" cy="10.2" rx="5.75" ry="3.89" transform="translate(-1.28 2.22) rotate(-8.04)"/>
            <path class="cls-11" d="M9.5,10.73c.51.45,2.7,2.1,5.68.18.03-.02.06-.03.1-.02.45.07,3.82.48,5.3-2.25.04-.07.13-.1.21-.06.7.44,3.83,2.72.94,7.24-2.38,3.72-5.73,4.23-6.74,4.3-.12,0-.2-.12-.14-.22.22-.37.44-1.05-.82-1.1-1.74-.06-5.02-.82-5.87-3.3-.74-2.14.73-4.23,1.13-4.76.05-.07.15-.08.21-.02Z"/>
            <g>
              <path class="cls-7" d="M13.79,12.33s1.56-.05,3.01-.8c0,0,.95,2.09-1.16,2.38-2.23.31-1.85-1.59-1.85-1.59Z"/>
              <path class="cls-8" d="M14.94,13.94c.2.02.43.02.71-.02,1.32-.19,1.45-1.07,1.35-1.7-1.72.09-2,1.2-2.06,1.73Z"/>
            </g>
            <path class="cls-11" d="M23.18,1.05c.1.73-.28,1.39-1.01,1.5-.73.1-1.41-.41-1.52-1.14-.1-.73.34-1.27,1.2-1.39.55-.08,1.23.3,1.33,1.04Z"/>
            <path class="cls-11" d="M13.19,5.91s-1.38.55-.9,1.63c.48,1.08,2.01.52,2.01.52,0,0-.51-.23-.54-.71,0,0,.55.74,1.5.25,0,0-.44-.07-.57-.58,0,0,.1.04.46.14.21.05.46.28.46.28,0,0,.29-2.52-2.41-1.52Z"/>
            <g>
              <path class="cls-9" d="M16.27,10.5c.11.6-.41,1.21-1.17,1.35-.76.14-1.47-.23-1.58-.83-.11-.6.41-1.21,1.17-1.35s1.47.23,1.58.83Z"/>
              <path class="cls-9" d="M12.43,11.3c.06.3-.31.62-.81.71-.51.1-.96-.07-1.02-.37s.31-.62.81-.71c.51-.1.96.07,1.02.37Z"/>
              <path class="cls-9" d="M19.27,10c.06.3-.31.62-.81.71-.51.1-.96-.07-1.02-.37-.06-.3.31-.62.81-.71s.96.07,1.02.37Z"/>
            </g>
            <path class="cls-11" d="M12.98,8.71c-.25-.32-.68-.26-1.03-.15-.25.08-.49.21-.67.41-.15.17-.32.4-.23.63.02.04.04.09.09.11.09.04.18-.03.25-.1.25-.22.55-.38.88-.43.17-.03.34-.02.51-.04.07,0,.13-.02.19-.06.11-.08.1-.27.01-.38Z"/>
            <path d="M12.83,9.95c.08.07.13.16.14.26,0,.06-.01.14-.07.17-.05.02-.11,0-.16-.01-.17-.05-.35-.08-.53-.08-.18,0-.36.07-.54.07-.01,0-.02,0-.03,0-.02-.01-.02-.04-.01-.06.05-.26.33-.49.61-.52.2-.02.45.04.6.18Z"/>
            <path class="cls-11" d="M15.72,8.13c.1-.4.52-.52.88-.55.26-.02.53,0,.77.1.21.09.45.24.46.49,0,.05,0,.1-.04.13-.06.07-.18.04-.27.01-.31-.1-.66-.12-.97-.04-.16.04-.32.12-.48.17-.06.02-.13.04-.19.02-.14-.03-.2-.21-.17-.34Z"/>
            <path d="M16.47,9.18c-.04.1-.05.2-.02.3.02.06.07.12.14.12.05,0,.1-.04.14-.07.13-.12.29-.22.45-.29.17-.07.36-.08.52-.15.01,0,.02-.01.03-.02.01-.02,0-.04-.01-.06-.15-.22-.5-.31-.77-.23-.19.06-.39.22-.48.41Z"/>
          </g>
          <path class="cls-2" d="M15.62,21.23c-.03.4-.33.69-.73.72-.45.03-.73-.4-.73-.72,0-.4.33-.72.73-.72s.77.34.73.72Z"/>
        </g>
        <path class="cls-3" d="M4.47,23.09s-1.28-.17-1.32,1.06c-.04,1.23,1.51,1.23,1.51,1.23,0,0,1.08,4.99,6.64,6.38,5.56,1.39,14.84,0,14.84,0,0,0,3.29-.96,3.38-8.82l-25.05.14Z"/>
        <path class="cls-5" d="M28.89,20.56c-10.04,2.94-20.03.98-23.89.1-.85-.2-1.66.45-1.66,1.32v.05c0,.63.43,1.17,1.04,1.32,3.38.8,14.4,3.27,25.29-.19.56-.18.95-.7.95-1.29,0-.9-.87-1.56-1.73-1.3Z"/>
      </g>
      <path class="cls-10" d="M5.12,1.98l.53-.06.33,2.8c.09.9-.58,1.53-1.36,1.62s-1.58-.36-1.7-1.26l-.41-3.48-2.5.3.56.62.53-.06.33,2.75c.19,1.61,1.84,2.06,3.29,1.88,1.45-.17,2.95-.99,2.76-2.6l-.41-3.43-2.5.3.56.62Z"/>
    </g>
  </g>
</svg>