<?xml version="1.0" encoding="UTF-8"?>
<svg id="_图层_2" data-name="图层 2" xmlns="http://www.w3.org/2000/svg" viewBox="0 0 33.04 34.88">
  <defs>
    <style>
      .cls-1 {
        fill: #ede3d3;
      }

      .cls-2 {
        fill: #c4ae95;
      }

      .cls-3 {
        fill: #513336;
      }

      .cls-4 {
        fill: #917353;
      }

      .cls-5 {
        fill: #baa285;
      }

      .cls-6 {
        fill: #8e7f72;
      }

      .cls-7 {
        fill: #e0004d;
      }
    </style>
  </defs>
  <g id="Objects">
    <g>
      <path class="cls-5" d="M4.76.9c-.45-.03-.85.3-.88.76-.1,1.34.14,3.21.49,5.05-.76.05-1.36-.11-1.78-.49-.94-.84-.97-2.68-.9-3.31.05-.45-.27-.86-.72-.91-.45-.05-.86.27-.91.72-.01.13-.33,3.13,1.43,4.71.81.73,1.89,1.03,3.21.89.33,1.5.67,2.87.9,3.76.08.33.17.67.2.79.03.33.26.62.6.72.19.05.38.04.54-.03.22-.09.4-.28.47-.53.07-.24.06-.26-.21-1.34-.51-2-1.87-7.31-1.67-9.9.03-.45-.3-.85-.76-.88Z"/>
      <path class="cls-5" d="M13.33.03c.44-.11.89.15,1,.59.33,1.3.42,3.18.39,5.06.76-.08,1.32-.35,1.66-.79.78-.99.49-2.8.31-3.42-.13-.43.12-.89.56-1.02.44-.13.89.12,1.02.56.04.12.87,3.02-.59,4.89-.67.86-1.68,1.34-3,1.43-.06,1.54-.17,2.94-.24,3.86-.03.34-.05.69-.06.81.03.33-.15.66-.46.81-.17.08-.36.1-.54.06-.23-.05-.44-.21-.56-.44-.11-.23-.11-.25-.02-1.36.16-2.06.58-7.52-.07-10.04-.11-.44.15-.89.59-1Z"/>
      <path class="cls-5" d="M13.41,22.69s-1.93.7-2.51,1.85c-.58,1.14-7.85,1.81-7.85,1.81,0,0-.91.78-.18,2.38.73,1.6,2.38,2.62,3.17,2.7.79.08,4.49-1.3,5.18-2.1.69-.8-.2-2.83,1.91-3.63,0,0,1.88-.57,1.51-1.96-.37-1.38-1.24-1.05-1.24-1.05Z"/>
      <path class="cls-4" d="M2.88,28.73c.22.48.52.91.86,1.27,1.67-.88,1.65-3.05,1.57-3.92-1.27.17-2.25.26-2.25.26,0,0-.91.78-.18,2.38Z"/>
      <path class="cls-5" d="M25.79,25.41c-1.22-.47-1.07-2.09-1.81-2.57-.2-.13-.43-.2-.67-.23-.91-.12-1.74.6-1.73,1.52,0,.36.07.77.27,1.23.68,1.61,1.99,2.01,1.99,2.01,0,0,.07,5.82.69,6.69s4.06-1.45,4.51-2.32c.45-.87-2.03-5.85-3.24-6.32Z"/>
      <path class="cls-4" d="M23.99,30.86c.1,1.41.27,2.81.54,3.2.39.56,1.96-.2,3.14-1.04-.62-1.62-2.69-2.04-3.69-2.15Z"/>
      <path class="cls-1" d="M30.05,18.55s-.92-1.91.49-2.89c1.42-.98,1.42-1.64,1.42-1.64,0,0,3.15,3.57-1.33,5.55l-.58-1.02Z"/>
      <path class="cls-1" d="M10.31,23.54s.98,1.23.83,1.59c-.15.35-1.28,7.74,10.83,4.02,12.11-3.72,8.92-9.64,8.92-9.64,0,0-1.09-3.66-6.29-2.95-5.2.7-8.68,2.5-8.68,2.5l-5.61,4.5Z"/>
      <path class="cls-2" d="M26.78,25.27c-1.58-.55-4.41,1.62-9.61,2.41-2.5.38-3.47,1.22-3.82,2,1.59.7,4.24.81,8.62-.53,2.45-.75,4.27-1.59,5.62-2.46-.06-.68-.3-1.24-.81-1.42Z"/>
      <path class="cls-1" d="M5.54,14.01c-.25.23-.5.46-.75.69-.11.11-.23.22-.34.34-.38.41-1.04.45-1.57.33-.62-.14-1.11-.61-1.53-1.09-.5-.58-.94-1.24-1.2-1.96-.04-.11-.08-.23-.11-.34-.03-.13-.06-.28-.05-.42,0-.17.05-.33.16-.46.13-.13.31-.18.49-.22,1.07-.22,2.39-.1,3.32.52.88.59,1.34,1.61,1.56,2.61Z"/>
      <path class="cls-5" d="M4.79,14.71c-.11.11-.23.22-.34.34-.38.41-1.04.45-1.57.33-.62-.14-1.11-.61-1.53-1.09-.5-.58-.94-1.24-1.2-1.96,1.06-.21,2.37-.09,3.29.52.66.44,1.08,1.12,1.35,1.86Z"/>
      <path class="cls-1" d="M15.35,11.94c.24.24.48.48.71.73.11.12.21.23.32.36.36.43,1.01.51,1.55.42.63-.11,1.14-.55,1.58-1.01.53-.56,1.01-1.18,1.3-1.89.05-.11.09-.22.12-.34.04-.13.07-.28.08-.42,0-.17-.03-.34-.14-.46-.12-.14-.3-.2-.48-.25-1.06-.28-2.38-.23-3.34.34-.91.54-1.42,1.53-1.7,2.52Z"/>
      <path class="cls-5" d="M16.06,12.67c.11.12.21.23.32.36.36.43,1.01.51,1.55.42.63-.11,1.14-.55,1.58-1.01.53-.56,1.01-1.18,1.3-1.89-1.05-.27-2.36-.22-3.31.35-.68.41-1.14,1.06-1.44,1.78Z"/>
      <path class="cls-1" d="M18.97,16.2c.87,3.69-2.45,6.34-6.87,7.38-4.42,1.04-8.27.06-9.14-3.63-.87-3.69,1.58-8.7,6-9.73,4.42-1.04,9.13,2.29,10,5.98Z"/>
      <path class="cls-5" d="M14.28,17.96c.19,1.52-.09,3.5-3.29,3.89-3.3.41-3.96-1.45-4.15-2.97s1.41-2.3,3.46-2.55c2.05-.26,3.79.1,3.98,1.63Z"/>
      <path class="cls-3" d="M9.44,19.2s.96-.15.99-.9c0,0,.15.78,1.24.57,0,0,.02,1.12-1.07,1.23-.95.1-1.15-.91-1.15-.91Z"/>
      <path class="cls-7" d="M8.85,17.47s.02-.08.05-.11c.05-.07.12-.12.19-.16.56-.33,1.23-.48,1.88-.41.19.02.37.05.53.15.87.5-.52,1.5-1.04,1.61-.54.11-1.4-.29-1.6-.81-.03-.08-.04-.18-.02-.26Z"/>
      <path class="cls-1" d="M13.81,24.32s-1.63,1.25-1.84,2.51c-.21,1.27-6.95,4.07-6.95,4.07,0,0-.63,1.02.54,2.33,1.17,1.31,3.05,1.79,3.83,1.63.78-.16,3.9-2.58,4.32-3.55.42-.97-1.04-2.65.74-4.03,0,0,1.63-1.11.86-2.32-.76-1.21-1.49-.63-1.49-.63Z"/>
      <path class="cls-4" d="M5.55,33.22c.35.39.77.71,1.2.96,1.34-1.34.67-3.4.33-4.2-1.16.54-2.07.92-2.07.92,0,0-.63,1.02.54,2.33Z"/>
      <path class="cls-1" d="M27.85,24.15c-1.3-.04-1.69-1.62-2.55-1.84-.23-.06-.47-.05-.71,0-.9.19-1.44,1.13-1.14,2,.12.34.32.7.66,1.08,1.17,1.3,2.54,1.24,2.54,1.24,0,0,1.98,5.47,2.85,6.09.87.62,3.36-2.7,3.49-3.67.14-.97-3.84-4.86-5.14-4.91Z"/>
      <path class="cls-4" d="M27.93,29.88c.56,1.3,1.17,2.56,1.56,2.84.56.4,1.78-.83,2.63-2.02-1.11-1.33-3.21-1.05-4.19-.82Z"/>
      <path class="cls-7" d="M22.8,30.34s-.02,0-.02,0c-.41.15-.87-.06-1.03-.46l-.02-.03c-.88-1.91-3.46-8.56.05-13.87.25-.38.76-.48,1.14-.23.38.25.48.76.23,1.14-3.13,4.72-.49,11.06.07,12.28.03.07.05.12.05.13.15.42-.06.88-.48,1.04Z"/>
      <g>
        <path class="cls-6" d="M6.1,16.92c-.22.07-.45.17-.68.11-.03,0-.06-.02-.08-.05-.02-.02-.02-.06-.02-.09,0-.34.44-.68.71-.82.67-.34,1.53.04,1.7.78.02.08.01.19-.06.21-.03.01-.07,0-.1-.01-.19-.06-.38-.16-.58-.19-.24-.03-.57-.03-.8.03-.03,0-.05.01-.08.02Z"/>
        <path class="cls-6" d="M14.47,15.85c.23.02.47.08.69-.02.03-.01.06-.03.07-.06.01-.03.01-.06,0-.09-.06-.33-.56-.59-.85-.67-.72-.21-1.49.33-1.53,1.09,0,.08.02.19.1.2.03,0,.07-.01.1-.03.18-.1.34-.23.53-.29.23-.08.55-.14.79-.13.03,0,.05,0,.08,0Z"/>
      </g>
    </g>
  </g>
</svg>