<svg width="85" height="85" viewBox="0 0 85 85" fill="none" xmlns="http://www.w3.org/2000/svg">
<path d="M29.7141 25.677H32.3704V18.4698C32.3704 17.7614 33.2381 15.7604 33.61 15.0698C37.4173 8.18122 47.2808 8.05726 51.2652 14.8573C51.6902 15.5833 52.6287 17.7083 52.6287 18.4698V25.677H55.285C55.1433 23.3927 55.4798 20.8958 55.285 18.6291C55.161 17.2302 53.4079 13.8656 55.8693 13.8833C57.2506 13.8833 57.5516 16.0968 57.7287 17.177C58.1891 19.9573 57.835 22.8437 57.9412 25.6593H60.3495C63.5193 25.6593 67.7162 28.8468 69.2568 31.5208C70.8683 34.3187 72.4266 43.7041 72.6923 47.1395C72.7454 47.8479 72.8871 48.6802 72.285 49.1583C71.5412 49.7604 70.6027 49.4593 70.2131 48.6093C69.6641 45.4218 69.2923 42.2166 68.6725 39.0468C68.1943 36.6208 67.8933 33.9468 66.3173 31.9635C66.087 32.1052 66.1048 32.3177 66.0339 32.5125C63.4131 40.2687 64.3516 49.8843 55.1433 53.4614C54.1516 53.851 51.5662 54.825 50.8933 53.7802C49.5298 51.6906 52.6995 51.5489 53.9391 51.0885C62.262 47.9895 61.3235 37.3645 63.8735 30.3343C63.9089 30.1927 63.9266 30.051 63.8735 29.927C63.661 29.1656 60.3318 28.3333 59.4995 28.3156C48.4141 28.8645 36.6204 27.6073 25.6235 28.3156C24.7558 28.3687 21.3204 29.077 21.0902 29.927C22.2766 34.425 23.0204 39.3656 24.4016 43.7927C25.5173 47.352 27.8193 50.0083 31.3964 51.2302C32.4589 51.602 34.8141 51.5843 34.2829 53.3375C33.8048 54.9135 31.6266 54.1166 30.5464 53.7448C20.8777 50.4687 21.3027 40.4989 18.8766 32.2468C18.735 31.9812 18.735 31.8927 18.5048 32.1406C16.9287 33.8229 16.0433 40.4104 15.636 42.8718C14.5027 49.7427 13.4579 56.8968 13.2631 63.8562C13.086 70.3906 14.5204 76.2521 21.7277 77.7927C34.2829 78.3416 46.9266 77.8812 59.5173 78.0229C61.3235 78.2354 61.0579 80.4843 59.3579 80.6791C47.6704 80.1833 35.4516 81.3343 23.8173 80.6791C7.27767 79.7583 10.3412 62.2979 11.811 50.7875C12.4308 45.9 13.3162 37.4885 14.9808 33.0791C16.2735 29.6614 20.8954 25.6593 24.6495 25.6593H27.0579C27.111 21.4979 26.5975 17.6375 28.3152 13.7416C32.335 4.5333 43.9162 1.66455 51.9558 7.70309C52.8766 8.39372 56.1881 11.1385 53.9214 12.1302C52.6818 12.6791 51.7964 11.0323 50.9818 10.3416C44.7662 5.15309 35.5225 6.4458 31.4141 13.5291C30.8298 14.5385 29.7141 17.1771 29.7141 18.3104V25.677ZM49.9725 25.677V18.8062C49.9725 15.477 45.5985 12.3781 42.411 12.4135C39.2235 12.4489 35.0266 15.5125 35.0266 18.8062V25.677H49.9725Z" fill="#1A1A1A"/>
<path d="M40.9594 44.7844C44.4479 44.2355 47.8834 45.6875 48.2906 49.4948C48.4854 51.2834 48.5031 56.6667 47.9365 58.225C46.2365 62.8469 38.7459 62.8469 37.0459 58.225C36.4615 56.6313 36.5323 51.6552 36.674 49.8136C36.8511 47.4938 38.5333 45.174 40.9594 44.8021V44.7844ZM41.2959 47.423C40.4459 47.6 39.525 48.6448 39.3834 49.4948C39.1709 50.7521 39.1886 55.2677 39.3656 56.5605C39.8084 59.8011 44.9615 59.8365 45.5813 56.8261C45.8292 55.6573 45.8115 50.8761 45.6344 49.6188C45.3511 47.5115 43.0844 47.0334 41.2959 47.4052V47.423Z" fill="#1A1A1A"/>
<path d="M72.3387 57.1979C73.3127 56.9854 73.8971 57.4813 74.021 58.4198C74.4992 61.6604 74.6231 67.0792 73.9502 70.249C73.1179 74.1448 70.6742 77.6865 67.0085 79.3865C66.07 79.8115 63.5554 80.8917 63.1127 79.3865C62.546 77.4917 65.0075 77.4031 66.2471 76.7833C71.1523 74.2688 71.8606 68.7969 71.719 63.8385C71.6835 62.2802 71.17 59.6417 71.3825 58.225C71.4533 57.7292 71.8252 57.2865 72.321 57.1625L72.3387 57.1979Z" fill="#1A1A1A"/>
<path d="M71.6655 51.726C73.8082 51.2479 74.0207 54.1875 72.7103 54.5948C70.4968 55.2854 70.3197 52.027 71.6655 51.726Z" fill="#1A1A1A"/>
</svg>
