<svg width="85" height="85" viewBox="0 0 85 85" fill="none" xmlns="http://www.w3.org/2000/svg">
<path d="M43.4658 31.6562V31.6572L42.7734 35.5557C42.6762 36.11 42.5638 36.7171 42.4824 37.3252H42.4814C42.4001 37.9353 42.5412 38.5936 43.0176 39.0986C43.4815 39.5904 44.1099 39.7744 44.6914 39.7764H44.6924C46.8066 39.7813 48.9535 39.8011 51.0977 39.7754C49.9287 41.7008 48.7969 43.6496 47.667 45.5654L44.167 51.5166C43.7818 52.1727 43.3963 52.8279 43.0117 53.4834C43.2497 52.1369 43.4855 50.8021 43.7246 49.4531C43.8769 48.5929 44.0505 47.6564 44.2041 46.7822C44.2529 46.5042 44.3061 46.1789 44.332 45.8398V45.8379C44.3748 45.2636 44.2148 44.6569 43.7666 44.1924C43.3244 43.7341 42.734 43.551 42.1748 43.5479H42.1758C41.6229 43.5444 41.0688 43.5467 40.5156 43.5469L40.5205 43.5391H35.7119L38.6514 38.5537C39.968 36.3226 41.2993 34.0772 42.6172 31.8408L42.6182 31.8418C43.0109 31.1757 43.4007 30.5058 43.792 29.8379C43.6841 30.4412 43.5759 31.044 43.4658 31.6562Z" fill="#1A1A1A" stroke="#1A1A1A" stroke-width="2.50534"/>
<path d="M12.2109 43C12.2109 60.1208 26.1405 74 43.3235 74C56.4151 74 67.6181 65.9434 72.2109 54.5349" stroke="#1A1A1A" stroke-width="3" stroke-linecap="round"/>
<path d="M74.2109 42C74.2109 24.8792 60.3696 11 43.2955 11C30.8421 11 20.1084 18.3836 15.2109 29.0233" stroke="#1A1A1A" stroke-width="3" stroke-linecap="round"/>
<path d="M19.1224 49.0719L12.7253 41.319C12.5653 41.1251 12.2682 41.1251 12.1082 41.319L5.71108 49.0719" stroke="#1A1A1A" stroke-width="3" stroke-linecap="round"/>
<path d="M66.82 34.4757L73.9687 42.9861C74.1304 43.1787 74.4277 43.176 74.5859 42.9804L80.9141 35.1585" stroke="#1A1A1A" stroke-width="3" stroke-linecap="round"/>
</svg>
