<svg width="85" height="85" viewBox="0 0 85 85" fill="none" xmlns="http://www.w3.org/2000/svg">
<circle cx="43.7427" cy="43.7507" r="18.5464" stroke="#1A1A1A" stroke-width="3" stroke-linecap="round"/>
<path d="M42.9941 8V17.1304" stroke="#1A1A1A" stroke-width="3" stroke-linecap="round"/>
<path d="M42.9941 68.8696V78.0001" stroke="#1A1A1A" stroke-width="3" stroke-linecap="round"/>
<path d="M24.7031 61.2869L18.2469 67.7431" stroke="#1A1A1A" stroke-width="3" stroke-linecap="round"/>
<path d="M78 42.9924L68.8696 42.9924" stroke="#1A1A1A" stroke-width="3" stroke-linecap="round"/>
<path d="M17.1309 42.9927L8.00043 42.9927" stroke="#1A1A1A" stroke-width="3" stroke-linecap="round"/>
<path d="M67.7559 67.7429L61.2997 61.2867" stroke="#1A1A1A" stroke-width="3" stroke-linecap="round"/>
<path d="M24.7129 24.7019L18.2567 18.2457" stroke="#1A1A1A" stroke-width="3" stroke-linecap="round"/>
<path d="M64.9244 24.6616C62.3027 24.6616 60.2577 23.1235 60.2577 20.5367H62.6523C62.6523 21.7951 63.5786 22.5991 64.907 22.5991C66.2178 22.5991 67.1617 21.8825 67.1617 20.8163C67.1617 19.6103 66.1829 19.0161 64.8021 19.0161H63.8233V17.1284H64.5574C65.8508 17.1284 66.6897 16.2545 66.6897 15.3631C66.6897 14.4892 65.9207 13.825 64.8371 13.825C63.6835 13.825 62.7921 14.6116 62.8096 15.7127H60.4675C60.45 13.5279 62.3027 11.7801 64.8545 11.7801C67.2665 11.7801 69.0668 13.1958 69.0668 15.1709C69.0668 16.4817 68.1579 17.7227 66.917 18.0023C68.4551 18.1422 69.5387 19.3656 69.5387 20.9911C69.5387 23.1235 67.5986 24.6616 64.9244 24.6616Z" fill="#1A1A1A"/>
</svg>
