<svg width="85" height="85" viewBox="0 0 85 85" fill="none" xmlns="http://www.w3.org/2000/svg">
<path d="M69.4245 20.9679L42.9012 10.5L16.5733 20.9679C16.671 28.9235 15.9056 36.9393 17.7922 44.73C21.0206 58.0591 30.4192 68.5999 42.602 74.427L43.2383 74.5C55.5345 68.7078 65.0716 57.9607 68.2465 44.5333C70.0764 36.7966 69.3363 28.8632 69.4245 20.9711V20.9679Z" stroke="#1A1A1A" stroke-width="3"/>
<path d="M62.4444 26.3509L42.9273 18.5L23.554 26.3509C23.6258 32.3176 23.0626 38.3295 24.4509 44.1725C26.8265 54.1693 33.7424 62.0749 42.7072 66.4453L43.1753 66.5C52.2235 62.1558 59.2414 54.0956 61.5776 44.025C62.9242 38.2224 62.3795 32.2724 62.4444 26.3533V26.3509Z" stroke="#1A1A1A" stroke-width="3"/>
<path d="M53.0212 34.9888C53.6407 35.5847 53.6559 36.7822 53.085 37.4423L41.4818 48.3837C40.8653 48.5881 40.179 48.5326 39.6567 48.1412C38.6637 46.7801 34.0145 43.4154 33.5955 42.1477C33.143 40.7749 34.3668 39.4839 35.8365 39.7702C36.9875 39.9951 40.2458 44.1952 40.8684 44.0901L50.5888 34.8253C51.1719 34.2732 52.505 34.4894 53.0212 34.9859V34.9888Z" fill="#1A1A1A"/>
</svg>
