<svg width="141" height="76" viewBox="0 0 141 76" fill="none" xmlns="http://www.w3.org/2000/svg">
<path d="M54.3929 40.215C53.5031 38.8112 52.3761 37.526 51.1107 36.399C49.3707 34.8568 47.4133 33.6111 45.4361 32.4248C43.6764 31.3769 41.6992 30.2301 40.2756 28.7076C39.8802 28.2924 39.0102 27.3434 38.5356 25.8209C37.6261 22.8946 38.3379 18.5843 41.6399 17.7143C42.9448 17.3584 44.408 17.4968 45.5943 18.1691C47.1168 19.0391 48.0065 20.7988 47.8285 22.5585V25.5441H56.7458C56.8842 25.5441 56.5678 20.6011 56.5085 20.1265C56.2712 18.3273 55.8165 16.5478 54.8279 15.0253C52.6134 11.6443 48.2635 10.0032 44.408 9.88455C40.9676 9.76592 37.2702 10.715 34.3242 12.534C32.347 13.7599 30.9827 15.6976 30.1918 17.8923C29.0648 21.0558 28.6496 24.7532 29.3218 28.0551C30.3302 33.0377 33.6717 36.5374 37.7448 39.2462C39.6429 40.5116 41.6201 41.6584 43.4589 43.0029C45.1197 44.209 46.6027 45.4546 47.2552 47.5109C48.1647 50.4372 47.4529 54.7475 44.1509 55.6175C42.846 55.9734 41.3828 55.835 40.1965 55.1628C38.674 54.2928 37.7843 52.5331 37.9622 50.7733V47.7878H29.045C28.9066 47.7878 29.223 52.7308 29.2823 53.2053C29.5196 55.0046 29.9743 56.7841 30.9629 58.3065C33.1774 61.6875 37.5273 63.3286 41.3828 63.4473C44.8232 63.5659 48.5206 62.6168 51.4666 60.7978C53.4438 59.5719 54.8081 57.6343 55.599 55.4396C56.726 52.276 57.1412 48.5786 56.469 45.2767C56.0933 43.4379 55.3815 41.7375 54.4127 40.215H54.3929Z" fill="#190A0A"/>
<path d="M119.524 40.215C118.634 38.8112 117.507 37.526 116.242 36.399C114.502 34.8568 112.544 33.6111 110.567 32.4248C108.807 31.3769 106.83 30.2301 105.406 28.7076C105.011 28.2924 104.141 27.3434 103.666 25.8209C102.757 22.8946 103.469 18.5843 106.771 17.7143C108.076 17.3584 109.539 17.4968 110.725 18.1691C112.248 19.0391 113.137 20.7988 112.959 22.5585V25.5441H121.877C122.015 25.5441 121.699 20.6011 121.639 20.1265C121.402 18.3273 120.947 16.5478 119.959 15.0253C117.744 11.6443 113.394 10.0032 109.539 9.88455C106.098 9.76592 102.401 10.715 99.455 12.534C97.4778 13.7599 96.1135 15.6976 95.3227 17.8923C94.1956 21.0558 93.7804 24.7532 94.4527 28.0551C95.4611 33.0377 98.8026 36.5374 102.876 39.2462C104.774 40.5116 106.751 41.6584 108.59 43.0029C110.251 44.209 111.734 45.4546 112.386 47.5109C113.296 50.4372 112.584 54.7475 109.282 55.6175C107.977 55.9734 106.514 55.835 105.327 55.1627C103.805 54.2928 102.915 52.5331 103.093 50.7733V47.7878H94.1758C94.0374 47.7878 94.3538 52.7308 94.4132 53.2053C94.6504 55.0046 95.1051 56.7841 96.0937 58.3065C98.3082 61.6875 102.658 63.3286 106.514 63.4473C109.954 63.5659 113.651 62.6168 116.597 60.7978C118.575 59.5719 119.939 57.6343 120.73 55.4396C121.857 52.276 122.272 48.5786 121.6 45.2767C121.224 43.4379 120.512 41.7375 119.544 40.215H119.524Z" fill="#190A0A"/>
<path d="M76.3399 43.6953H81.1643V56.2704H74.8965V63.8827H81.1643H90.5165V56.2704V43.6953V39.899V36.083H76.3399V43.6953Z" fill="#190A0A"/>
<path d="M75.4944 10.4392H75.4152C67.1307 10.4392 60.4082 17.1617 60.4082 25.4463V48.8762C60.4082 56.9828 66.8539 63.5867 74.8814 63.8635V56.2315C71.9947 55.9546 69.7407 53.5227 69.7407 50.5569V23.7261C69.7407 20.5823 72.2913 18.0317 75.435 18.0317C78.5788 18.0317 81.1294 20.5823 81.1294 23.7261V27.1071H90.4816V25.4265C90.4816 17.142 83.7591 10.4194 75.4746 10.4194L75.4944 10.4392Z" fill="#190A0A"/>
<path d="M122.112 -0.00012207H121.697V75.134H122.112V-0.00012207Z" fill="#190A0A"/>
<path d="M140.343 63.1721H0V63.7257H140.343V63.1721Z" fill="#190A0A"/>
</svg>
