<svg width="107" height="25" viewBox="0 0 107 25" fill="none" xmlns="http://www.w3.org/2000/svg">
<path d="M52.5059 0.776489H46.3181V5.31801H52.5059V0.776489Z" fill="#E0004D"/>
<path d="M52.4843 8.33337H46.3625V23.8463H52.4843V8.33337Z" fill="#E0004D"/>
<path d="M41.08 0.776489H34.9583V23.8461H41.08V0.776489Z" fill="#E0004D"/>
<path d="M81.8783 2.28079V2.15754H74.7265L63.8288 10.5572V0.776489H57.8413V23.8461H63.8288V13.5845L75.7444 23.8461H82.2909V23.7086L69.0889 12.0329L81.8783 2.28079Z" fill="#E0004D"/>
<path d="M21.1274 3.61783H23.3349V15.3496C23.282 19.1142 20.1975 21.3977 16.9083 21.3977C13.6191 21.3977 10.5345 19.1142 10.4817 15.3496V0.776489H0L2.0028 3.61783H4.21469V15.145C4.21469 21.8775 10.8118 24.5658 16.9083 24.546C23.0036 24.5658 29.6019 21.8786 29.6019 15.145V0.776489H19.1246L21.1274 3.61783Z" fill="#E0004D"/>
<path d="M103.543 4.87825C101.255 2.67516 97.8228 1.43496 94.3256 1.50979C90.221 1.58903 86.7612 2.86444 84.3215 5.19957C82.1371 7.28821 81.0818 10.0723 81.0818 13.0369C81.0818 16.4967 82.5388 19.6957 85.3361 21.7502C88.041 23.7365 90.4741 24.5464 94.4621 24.5464C95.623 24.5387 96.5848 24.4837 97.5719 24.3197C102.403 23.5142 105.387 20.8787 106.531 17.99L101.322 17.9658C100.523 19.4943 98.1496 21.1648 94.3971 21.1648C90.1736 21.1648 87.4842 17.9394 87.2487 14.4653H106.98C107.183 10.4025 105.855 7.10554 103.544 4.87935L103.543 4.87825ZM87.2938 11.0132L87.3191 10.7766C87.7846 7.80652 90.1186 4.69667 94.3003 4.69667C98.482 4.69667 100.797 8.17847 101.051 10.7788L101.066 11.0132H87.2927H87.2938Z" fill="#E0004D"/>
</svg>
