<?xml version="1.0" encoding="utf-8"?>
<!-- Generator: Adobe Illustrator 28.0.0, SVG Export Plug-In . SVG Version: 6.00 Build 0)  -->
<svg version="1.1" id="图层_1" xmlns="http://www.w3.org/2000/svg" xmlns:xlink="http://www.w3.org/1999/xlink" x="0px" y="0px"
	 viewBox="0 0 128 128" style="enable-background:new 0 0 128 128;" xml:space="preserve">
<style type="text/css">
	.st0{fill:#040000;}
</style>
<g>
	<path class="st0" d="M77.7,85.3c0.6-1.1,0.9-2.3,0.8-3.6c-0.1-2.5,0-5.1,0-7.6c0-0.6,0-1.2,0-1.8c0-1.5-1-2.7-2.3-3
		c-0.7-0.2-1.3-0.1-1.9,0.1c-1.2-1.5-2.3-1.8-4.1-1.2c-0.5-0.3-1-0.6-1.5-0.8c-0.5-0.2-1-0.2-1.6-0.2c0-1.3,0-2.7,0-4.1
		c0-0.3,0-0.5-0.1-0.8c-0.4-2.2-2.6-3.3-4.6-2.3c-1.1,0.6-1.6,1.6-1.7,2.8c0,3.2,0,6.5,0,9.7c0,0.2,0,0.3,0,0.5
		c-0.2,0-0.4-0.1-0.6-0.1C58.3,73,57,74.2,57,76c-0.1,2.3,0,4.7,0,7c0,1.2,0.5,2.2,1.5,2.9c1,0.7,2,1.4,3.1,2.1
		c0.4,0.2,0.9,0.4,1.1,0.8c0.2,0.4,0.1,0.9,0.1,1.3c0,0,0,0.1,0,0.1c0,0.1-0.1,0.2-0.2,0.3c-0.8,0.6-1.1,1.3-1.1,2.3
		c0,1.1,0,2.3,0,3.4c0,1.6,1.1,2.7,2.7,2.7c3.7,0,7.4,0,11.1,0c1.6,0,2.7-1.1,2.7-2.7c0-1.1,0-2.3,0-3.4c0-0.8-0.2-1.5-0.9-2
		c-0.3-0.3-0.4-0.5-0.4-0.9c0-0.7-0.1-1.4,0.1-2C76.9,86.9,77.2,86.1,77.7,85.3z M75.3,96.3c-3.8,0-7.5,0-11.3,0c0-1.2,0-2.5,0-3.8
		c3.8,0,7.6,0,11.3,0C75.3,93.8,75.3,95,75.3,96.3z M75.9,82.8c0,0.2-0.1,0.4-0.2,0.6c-0.5,1.1-1,2.2-1.5,3.4
		c-0.2,0.5-0.2,1.1-0.3,1.6c0,0.5,0,1,0,1.6c-3,0-5.9,0-8.9,0c0-0.6,0-1.1,0-1.7c0-0.6-0.2-1-0.7-1.3c-1.4-1-2.9-1.9-4.3-2.9
		c-0.5-0.3-0.7-0.7-0.7-1.3c0-2.2,0-4.4,0-6.6c0-0.5,0.2-0.8,0.6-0.8c0.4,0,0.6,0.3,0.6,0.8c0,1.6,0,3.2,0,4.8
		c0,0.5,0.2,0.9,0.6,1.2c0.5,0.3,0.9,0.2,1.3-0.1c0.4-0.3,0.6-0.7,0.6-1.2c0-6,0-12,0-18c0-0.5,0.2-0.8,0.6-0.8
		c0.3,0,0.6,0.2,0.6,0.6c0,0.1,0,0.2,0,0.3c0,4.7,0,9.4,0,14.1c0,0.5,0.1,0.9,0.5,1.2c0.4,0.3,0.9,0.3,1.3,0.1
		c0.5-0.3,0.7-0.7,0.7-1.2c0-2.3,0-4.5,0-6.8c0-0.5,0.3-0.8,0.7-0.7c0.4,0,0.5,0.3,0.5,0.7c0,2.3,0,4.5,0,6.8c0,0.5,0.1,0.9,0.5,1.1
		c0.4,0.3,0.9,0.3,1.3,0.1c0.5-0.3,0.7-0.7,0.7-1.2c0-2.1,0-4.1,0-6.2c0-0.4,0.2-0.6,0.5-0.7c0.3-0.1,0.6,0.1,0.7,0.4
		c0,0.1,0,0.3,0,0.4c0,2,0,4,0,6.1c0,0.5,0.1,0.9,0.5,1.1c0.4,0.3,0.9,0.3,1.3,0.1c0.5-0.3,0.7-0.7,0.7-1.2c0-1.6,0-3.2,0-4.9
		c0-0.5,0.2-0.8,0.6-0.8c0.4,0,0.6,0.3,0.6,0.8C75.9,75.9,75.9,79.3,75.9,82.8z"/>
	<path class="st0" d="M75.2,31.9c-4-3.1-8.6-4.3-13.6-3.7c-8.3,1-15.6,7.9-16,17.6c-0.3,9.2,6,16,12.6,17.9c0.1-0.8,0.1-1.7,0.2-2.5
		c-8.3-3.2-11.6-11.7-9.8-18.8c0.9-3.6,2.9-6.5,5.8-8.7c3.3-2.5,7.1-3.5,11.2-3.1c6.1,0.6,12.9,5.4,14,13.8
		c0.8,6-2.1,13.6-10.1,16.8c0.1,0.8,0.1,1.7,0.2,2.5c7.5-2.3,14.1-10.6,12.3-20.7C81.1,38.4,78.8,34.7,75.2,31.9z"/>
	<path class="st0" d="M104.4,55.1c-0.4-2.1-1.4-3.7-3.2-4.8c-0.5,0.7-1,1.4-1.4,2.1c0.1,0.1,0.2,0.1,0.3,0.2
		c1.3,0.7,1.9,1.8,1.9,3.3c0,1.2,0,2.5,0,3.7c0,0.8-0.5,1.3-1.3,1.3c-4.2,0-8.4,0-12.7,0c-0.7,0-1.3-0.5-1.3-1.3c0-1.3,0-2.6,0-3.9
		c0-0.7,0.2-1.3,0.6-1.9c0.4-0.7,1-1.1,1.6-1.5c-0.5-0.7-1-1.4-1.4-2.1c-2,1.2-3.2,3-3.3,5.4c-0.1,1.3,0,2.6,0,4
		c0,0.7,0.2,1.3,0.6,1.9c0.8,1.2,1.9,1.8,3.4,1.8c4,0,8,0,12,0c0.4,0,0.7,0,1.1-0.1c0.9-0.1,1.7-0.6,2.3-1.2c0.6-0.7,1-1.5,1-2.4
		C104.5,58.2,104.6,56.7,104.4,55.1z"/>
	<path class="st0" d="M57.8,46.5c0.2-0.2,0.5-0.3,0.7-0.4c-0.5-0.7-0.9-1.4-1.4-2.1c-2.1,1.2-3.2,3-3.3,5.4c-0.1,1.3,0,2.6,0,3.9
		c0,0.7,0.2,1.3,0.5,1.9c0.8,1.3,1.9,1.9,3.4,1.9c4,0,8,0,11.9,0c0.4,0,0.8,0,1.1-0.1c1.4-0.2,2.3-1,2.9-2.3
		c0.4-0.8,0.3-1.7,0.3-2.6c0-1.3,0-2.6-0.2-3.9c-0.3-1.9-1.5-3.3-3.1-4.3c-0.5,0.7-1,1.4-1.4,2.1c0.1,0,0.2,0.1,0.3,0.2
		c1.3,0.8,2,1.9,2,3.4c0,1.2,0,2.4,0,3.6c0,0.8-0.5,1.3-1.3,1.3c-4.2,0-8.4,0-12.6,0c-0.8,0-1.3-0.5-1.3-1.3c0-1.3,0-2.5,0-3.8
		C56.3,48.3,56.8,47.3,57.8,46.5z"/>
	<path class="st0" d="M40.4,50.3c-0.5,0.7-0.9,1.4-1.4,2.1c0.1,0,0.2,0.1,0.3,0.2c1.3,0.8,1.9,1.9,1.9,3.4c0,1.2,0,2.4,0,3.6
		c0,0.8-0.5,1.3-1.3,1.3c-4.2,0-8.4,0-12.6,0c-0.8,0-1.3-0.5-1.3-1.3c0-1.2,0-2.5,0-3.7c0-1.3,0.5-2.3,1.6-3.1
		c0.2-0.2,0.4-0.3,0.6-0.4c-0.5-0.7-0.9-1.4-1.4-2.1c-0.7,0.4-1.3,0.9-1.9,1.6c-0.8,1.1-1.4,2.2-1.4,3.6c0,1.5,0,3.1,0,4.6
		c0,0.1,0,0.3,0,0.4c0.5,1.8,1.9,2.9,3.8,3c4.2,0,8.4,0,12.5,0c0.3,0,0.6,0,0.9-0.1c1.8-0.5,2.9-1.9,2.9-3.8c0-1.1,0-2.3,0-3.4
		c0-1-0.2-2-0.6-2.9C42.4,51.9,41.5,51,40.4,50.3z"/>
	<path class="st0" d="M34.2,52c2.1-0.3,3.4-1.5,4-3.5c0.3-1.1,0.3-2.3,0.2-3.4c-0.1-1.1-0.5-2.1-1.3-2.9c-1.2-1.2-2.6-1.7-4.3-1.4
		c-1.5,0.2-2.6,0.9-3.4,2.1c-0.7,1-0.9,2.2-0.8,3.4c0,0.6,0,1.1,0.1,1.7C29.2,50.7,31.7,52.4,34.2,52z M31.2,45
		c0.1-1,1.2-1.9,2.5-1.8c1,0.1,2,0.8,2.2,1.8c0.1,0.4,0.1,0.9,0.1,1.5c-0.1,0.4-0.1,1-0.2,1.5c-0.3,0.9-1.2,1.7-2.6,1.5
		c-1-0.1-1.9-0.7-2-1.8C31.1,46.8,31.1,45.9,31.2,45z"/>
	<path class="st0" d="M90.7,50.5c1.2,1.2,2.6,1.7,4.3,1.5c1.5-0.2,2.7-0.9,3.5-2.2c0.7-1,0.8-2.2,0.8-3.4c0-0.4-0.1-0.9-0.1-1.3
		c-0.1-1.1-0.5-2.1-1.3-2.9c-1.2-1.2-2.6-1.7-4.3-1.4c-2,0.3-3.3,1.4-4,3.3c-0.4,1.1-0.3,2.3-0.2,3.5C89.4,48.7,89.9,49.7,90.7,50.5
		z M92,44.7c0.3-0.9,1.2-1.6,2.6-1.5c0.9,0.1,1.9,0.8,2.1,1.8c0.1,0.9,0.1,1.9,0,2.8c-0.1,1-1.2,1.8-2.5,1.8c-1-0.1-2-0.8-2.2-1.8
		c-0.1-0.5-0.1-0.9-0.1-1.5C91.8,45.8,91.9,45.2,92,44.7z"/>
	<path class="st0" d="M64.6,45.6c2.1-0.3,3.4-1.5,4-3.5c0.3-1.1,0.3-2.3,0.2-3.4c-0.1-1.1-0.5-2.1-1.3-2.9c-1.2-1.2-2.6-1.7-4.3-1.4
		c-1.5,0.2-2.6,0.9-3.4,2.1c-0.7,1.1-0.9,2.2-0.8,3.5c0,0.5,0,1.1,0.1,1.6C59.6,44.4,62.1,46,64.6,45.6z M61.6,38.4
		c0.3-0.9,1.2-1.7,2.6-1.6c0.9,0.1,1.9,0.8,2,1.8c0.1,0.9,0.1,1.8,0,2.7c-0.1,1-1.2,1.8-2.2,1.8c-1.4,0.1-2.3-0.8-2.6-1.8
		c-0.1-0.4-0.1-0.9-0.1-1.5C61.5,39.5,61.5,38.9,61.6,38.4z"/>
</g>
</svg>
