<?xml version="1.0" encoding="utf-8"?>
<!-- Generator: Adobe Illustrator 28.0.0, SVG Export Plug-In . SVG Version: 6.00 Build 0)  -->
<svg version="1.1" id="图层_1" xmlns="http://www.w3.org/2000/svg" xmlns:xlink="http://www.w3.org/1999/xlink" x="0px" y="0px"
	 viewBox="0 0 128 128" style="enable-background:new 0 0 128 128;" xml:space="preserve">
<style type="text/css">
	.st0{fill:#040000;}
</style>
<g>
	<path class="st0" d="M99.2,80.2c-0.4-2.7-1.6-5.1-3.4-7.2c-1.7-2-3.9-3.5-6.4-4.4c-1.6-0.6-3.3-0.8-5-0.9c0-0.2,0-0.3,0-0.5
		c0-11.8,0-23.6,0-35.4c0-0.3,0-0.6-0.1-0.8c-0.2-1.7-1.7-3-3.5-3c-10.9,0-21.8,0-32.7,0c-0.3,0-0.6,0-0.9,0.1
		c-1.7,0.4-2.7,1.8-2.7,3.5c0,6.8,0,13.6,0,20.5c0,0.1,0,0.3,0,0.5c-0.6,0.1-0.9,0.4-1.2,0.9c-1.8,3.1-3.7,6.2-5.6,9.3
		c-0.7,1.2-1.3,2.5-1.2,3.9c0.1,1.1,0.3,2.3,0.5,3.4c0.2,1.2,0.4,2.5,0.6,3.7c0.2,1.1,0.4,2.2,0.6,3.3c0.2,1.1,0.1,2.1-0.5,3.1
		c-0.3,0.4-0.7,0.9-1,1.3c-0.9,1.1-1.9,2.3-2.8,3.4c-0.9,1.2-1.9,2.3-2.8,3.5c-0.9,1.1-1.8,2.2-2.7,3.3c0.6,0.5,1.2,1,1.8,1.5
		c1-1.2,1.9-2.3,2.8-3.5c1-1.3,2.1-2.5,3.1-3.8c1.1-1.3,2.1-2.6,3.2-3.9c0.9-1,1.4-2.2,1.3-3.6c-0.1-1.4-0.4-2.9-0.6-4.3
		c-0.2-1.1-0.4-2.2-0.5-3.3c-0.2-1.1-0.4-2.2-0.6-3.3c-0.2-1-0.1-1.9,0.4-2.8c1.5-2.5,3-5.1,4.6-7.6c0.3-0.5,0.7-1.1,1-1.6
		c0.3,0.2,0.5,0.3,0.7,0.4c1.7,1,2.3,3,1.3,4.7c-0.8,1.5-1.8,2.9-2.7,4.4c-0.5,0.7-0.8,1.5-0.7,2.3c0.1,0.8,0.3,1.5,0.5,2.3
		c0.3,1.2,0.5,2.4,0.5,3.6c0,4.8,0,9.7,0,14.5c0,1,0.3,1.9,1.1,2.5c0.4,0.4,1,0.7,1.4,1c-0.3,0.2-0.8,0.5-1.1,0.8
		c-0.7,0.7-1.3,1.4-1.9,2.2c-0.9,1.1-1.8,2.2-2.7,3.4c0.6,0.5,1.2,1,1.8,1.4c1.2-1.5,2.4-3,3.6-4.6c0.5-0.7,1.2-1.1,2-1.4
		c1.4-0.5,2.9-0.9,4.3-1.4c0.4-0.1,0.8-0.3,1.2-0.3c5.7,0,11.4,0,17,0c0.1,0,0.3,0.1,0.4,0.2c0.8,1.2,1.8,2.3,2.9,3.2
		c1.2,1,2.5,1.8,3.9,2.4c2.2,0.9,4.5,1.3,6.8,1.1c0.9-0.1,1.8-0.2,2.7-0.4c3.5-0.9,6.3-2.8,8.5-5.7c1.9-2.6,2.9-5.5,3-8.7
		C99.5,82.2,99.4,81.2,99.2,80.2z M55.1,30.4c6.2,0,12.5,0,18.7,0c0,0.5,0,0.9,0,1.3c0,0.5-0.6,1-1.1,1c-1.5,0-3,0-4.5,0
		c-3.9,0-7.9,0-11.8,0c-0.6,0-1.3-0.6-1.3-1.3C55.1,31.1,55.1,30.7,55.1,30.4z M70.3,88.8c-0.1,0-0.2,0-0.3,0c-7.3,0-14.6,0-21.9,0
		c-0.7,0-1.2-0.5-1.2-1.2c0-4.9,0-9.8,0-14.8c0-1.2-0.2-2.4-0.5-3.6c-0.2-0.7-0.4-1.4-0.5-2.1c0-0.3,0-0.6,0.2-0.9
		c0.9-1.5,1.8-3,2.7-4.4c1.4-2.2,1.1-5.3-0.8-7.2c-0.3-0.3-0.6-0.5-0.9-0.8c-0.2-0.1-0.3-0.3-0.3-0.5c0-2.8,0-5.6,0-8.4
		c0-4.5,0-8.9,0-13.4c0-0.6,0.6-1.3,1.3-1.3c1.5,0.1,3,0,4.6,0c0,0.4,0,0.7,0,1.1c0,1.5,0.9,2.9,2.4,3.4c0.4,0.1,0.8,0.2,1.2,0.2
		c5.4,0,10.9,0,16.3,0c1.8,0,3.3-1.3,3.5-3c0.1-0.5,0.1-1.1,0.1-1.7c0.1,0,0.2,0,0.4,0c1.4,0,2.8,0,4.2,0c0.6,0,1.2,0.6,1.2,1.3
		c0,12,0,24,0,35.9c0,0.1,0,0.3,0,0.4C73.1,69.3,66.4,78.8,70.3,88.8z M97.2,83.5c-0.2,6.4-5.7,12.6-13.5,12.3
		c-6.5-0.3-12.3-5.7-12.2-12.9c-0.1-6.9,5.8-13.2,13.4-12.9C91.3,70.3,97.5,75.8,97.2,83.5z"/>
	<path class="st0" d="M54.1,65.4c6.9,0,13.8,0,20.7,0c0.8,0,1.3-0.5,1.3-1.3c0-8.5,0-16.9,0-25.4c0-0.8-0.5-1.3-1.3-1.3
		c-6.9,0-13.8,0-20.7,0c-0.9,0-1.3,0.5-1.3,1.4c0,4.2,0,8.4,0,12.6c0,4.2,0,8.5,0,12.7C52.8,64.9,53.2,65.4,54.1,65.4z M57.6,63
		c0.1-0.7,0.2-1.4,0.2-2c0.1-0.7,0.2-1.4,0.3-2.1c0.1-0.9,0.1-1.8,0.5-2.6c0.4-0.7,0.9-1.2,1.6-1.6c0.8-0.4,1.6-0.8,2.3-1.2
		c0.6-0.3,0.8-0.8,0.6-1.4c-0.3-1.1-0.7-2.1-1-3.2c-0.1-0.5-0.1-1-0.1-1.5c0-0.5,0-1,0.1-1.4c0.3-1.1,1.4-1.9,2.6-1.7
		c1.2,0.2,1.9,1.2,2,2.3c0.1,1.5-0.1,2.9-0.7,4.3c-0.2,0.4-0.3,0.8-0.4,1.3c-0.1,0.5,0.1,1,0.5,1.3c0.7,0.4,1.5,0.8,2.2,1.1
		c1.4,0.7,2.1,1.7,2.3,3.3c0.1,1.3,0.3,2.5,0.5,3.8c0.1,0.5,0.1,0.9,0.1,1.4C66.7,63,62.2,63,57.6,63z M55.1,39.7
		c6.2,0,12.4,0,18.7,0c0,7.8,0,15.6,0,23.3c0,0,0,0-0.1,0c0-0.2-0.1-0.3-0.1-0.5c-0.1-0.9-0.2-1.8-0.4-2.8c-0.1-0.8-0.2-1.7-0.3-2.5
		c-0.1-1.2-0.6-2.3-1.5-3.3c-0.8-0.9-1.8-1.4-2.8-1.9c-0.4-0.2-0.4-0.2-0.3-0.7c0.2-0.8,0.6-1.7,0.7-2.5c0.1-0.9,0.1-1.7,0.1-2.6
		c-0.1-1-0.5-1.9-1.1-2.7c-0.8-0.9-1.7-1.4-2.9-1.6c-1.4-0.2-2.7,0.2-3.7,1.1c-0.9,0.7-1.4,1.7-1.5,2.9c-0.1,0.9-0.2,1.8-0.1,2.6
		c0.1,0.9,0.4,1.7,0.7,2.6c0.2,0.7,0.2,0.7-0.5,1.1c-0.9,0.4-1.8,0.9-2.5,1.7c-0.9,1-1.4,2.1-1.5,3.3c-0.1,1.1-0.3,2.1-0.4,3.2
		c-0.1,0.7-0.2,1.4-0.2,2c0,0.2-0.1,0.3-0.1,0.5c0,0-0.1,0-0.1,0C55.1,55.3,55.1,47.5,55.1,39.7z"/>
	<path class="st0" d="M58.6,70.1c3.9,0,7.8,0,11.7,0c0-0.8,0-1.5,0-2.3c-3.9,0-7.8,0-11.7,0C58.6,68.5,58.6,69.3,58.6,70.1z"/>
	<path class="st0" d="M59.8,74.7c3.1,0,6.2,0,9.3,0c0-0.8,0-1.5,0-2.3c-3.1,0-6.2,0-9.3,0C59.8,73.2,59.8,74,59.8,74.7z"/>
	<path class="st0" d="M59.8,80.6c2.3,0,4.6,0,7,0c0-0.8,0-1.5,0-2.3c-2.3,0-4.7,0-7,0C59.8,79.1,59.8,79.8,59.8,80.6z"/>
	<path class="st0" d="M59.8,86.4c2.3,0,4.6,0,7,0c0-0.8,0-1.5,0-2.3c-2.3,0-4.7,0-7,0C59.8,84.9,59.8,85.7,59.8,86.4z"/>
	<path class="st0" d="M52.8,74.7c1.6,0,3.1,0,4.6,0c0-0.8,0-1.5,0-2.3c-1.6,0-3.1,0-4.6,0C52.8,73.2,52.8,74,52.8,74.7z"/>
	<path class="st0" d="M52.8,80.6c1.6,0,3.1,0,4.6,0c0-0.8,0-1.5,0-2.3c-1.6,0-3.1,0-4.6,0C52.8,79.1,52.8,79.8,52.8,80.6z"/>
	<path class="st0" d="M52.8,86.4c1.6,0,3.1,0,4.6,0c0-0.8,0-1.5,0-2.3c-1.6,0-3.1,0-4.6,0C52.8,84.9,52.8,85.7,52.8,86.4z"/>
	<path class="st0" d="M89.9,75.2c-0.6-0.6-1.3-0.6-1.9,0c-2.3,2.3-4.6,4.6-6.9,6.9c-0.1,0.1-0.2,0.2-0.3,0.3c0,0-0.1,0-0.1,0
		c-0.5-0.5-0.9-0.9-1.4-1.4c-0.6-0.6-1.2-0.6-1.8,0c-1.1,1.1-2.2,2.2-3.3,3.3c-0.6,0.6-0.6,1.3,0,1.9c1.9,1.9,3.8,3.8,5.6,5.6
		c0.6,0.6,1.3,0.6,1.8,0c3.8-3.8,7.7-7.7,11.5-11.5c0.6-0.6,0.6-1.2,0-1.8C92.1,77.4,91,76.3,89.9,75.2z M80.8,89.4
		c-1.3-1.3-2.7-2.7-4.1-4.1c0.6-0.6,1.2-1.2,1.8-1.8c0.4,0.4,0.9,0.9,1.4,1.4c0.6,0.6,1.3,0.6,1.9,0c2.3-2.3,4.6-4.6,6.9-6.9
		c0.1-0.1,0.2-0.2,0.2-0.3c0.7,0.7,1.3,1.3,1.8,1.8C87.5,82.7,84.1,86.1,80.8,89.4z"/>
</g>
</svg>
