<?xml version="1.0" encoding="utf-8"?>
<!-- Generator: Adobe Illustrator 28.0.0, SVG Export Plug-In . SVG Version: 6.00 Build 0)  -->
<svg version="1.1" id="图层_1" xmlns="http://www.w3.org/2000/svg" xmlns:xlink="http://www.w3.org/1999/xlink" x="0px" y="0px"
	 viewBox="0 0 128 128" style="enable-background:new 0 0 128 128;" xml:space="preserve">
<style type="text/css">
	.st0{fill:#040000;}
</style>
<g>
	<path class="st0" d="M97.6,69.3c0-4.1,0-8.2-0.1-12.3c0-1.4-0.7-2.6-1.9-3.4c-2-1.4-4-2.8-6.1-4.1c-7.4-5-14.8-10-22.2-15.1
		c-0.9-0.6-1.8-1-2.9-1.1c-0.1,0-0.2-0.1-0.3-0.2c-0.7-1.2-1.4-2.3-2-3.6c-0.8-1.5-2.4-2-3.7-1.2c-1.7,1-3.4,1.9-5.1,2.9
		c-3.5,2-7.1,4.1-10.6,6.1c-3.4,2-6.8,3.9-10.2,5.9c-1.1,0.6-1.6,1.8-1.2,2.9c0.2,0.6,0.6,1.2,0.9,1.7c0.8,1.4,1.6,2.7,2.4,4.1
		c0.1,0.2,0.1,0.3-0.1,0.4c-0.3,0.2-0.6,0.4-1,0.6c-0.7,0.4-1.3,0.9-1.8,1.5c-0.8,1-1,2.1-1,3.3c0,12.3,0,24.7,0,37
		c0,0.3,0,0.6,0.1,0.9c0.4,1.5,1.6,2.4,3.1,2.4c10.1,0,20.1,0,30.2,0c10.1,0,20.1,0,30.2,0c0.6,0,1.1-0.1,1.6-0.4
		c1.1-0.7,1.6-1.7,1.6-3C97.6,86.3,97.7,77.8,97.6,69.3z M33.8,46c-0.4-0.7-0.4-0.7,0.3-1.1c2.3-1.4,4.7-2.7,7-4.1
		c2.8-1.6,5.5-3.2,8.3-4.8c2.5-1.4,5-2.9,7.5-4.3c0.8-0.5,1.7-1,2.5-1.4c0.5-0.3,0.6-0.2,0.9,0.2c1.8,3.2,3.7,6.3,5.5,9.5
		c0.9,1.6,1.9,3.2,2.8,4.9c0,0.1,0.1,0.2,0.1,0.2c-2.1,2-2.1,4.7-1.1,6.6c1,1.9,3.5,3.3,6.3,2.5c0.5,0.8,1,1.7,1.4,2.5
		c1.5,2.6,3,5.2,4.5,7.8c0.7,1.2,1.3,2.3,2,3.5c0.1,0.2,0,0.3-0.2,0.4c-1.3,0.9-2.5,1.7-3.8,2.6c-1.9,1.3-3.8,2.6-5.7,3.9
		c-0.2,0.1-0.3,0.1-0.5,0c-0.2-0.2-0.5-0.4-0.7-0.5c-0.7-0.3-0.9-1-1.3-1.6c-2.1-3.6-4.1-7.1-6.2-10.7c-0.2-0.3-0.4-0.7-0.6-1
		c-0.4-0.6-1-0.7-1.5-0.4c-0.5,0.3-0.7,0.9-0.4,1.5c1,1.7,2,3.4,3,5.1c0.7,1.3,1.5,2.6,2.2,3.8c0,0,0,0.1,0,0
		c-0.7-0.1-1.4-0.2-2.1-0.3c-0.1,0-0.2-0.1-0.2-0.2c-1.3-2.2-2.6-4.5-3.9-6.7c-0.2-0.4-0.4-0.8-0.7-1.1c-0.4-0.5-1-0.5-1.4-0.2
		c-0.5,0.3-0.6,0.9-0.3,1.5c0.5,0.9,1.1,1.9,1.6,2.8c0.9,1.5,1.7,3,2.6,4.5c-0.5,0.3-1,0.6-1.5,1c-0.3-0.5-0.6-1-0.8-1.4
		c-1.2-2-2.3-4-3.5-6c-0.3-0.5-0.7-0.7-1.2-0.5c-0.7,0.2-1,0.9-0.7,1.6c0.4,0.7,0.8,1.5,1.3,2.2c1,1.8,2.1,3.6,3.1,5.4
		c-0.5,0.4-1,0.7-1.5,1.1c-0.5,0.4-0.5,0.4-1.1,0c-2.7-1.9-5.5-3.7-8.1-5.5c0.3-0.7,0.8-1.4,1-2.1c0.7-2.1,0.1-3.9-1.4-5.5
		c-1.2-1.2-2.7-1.5-4.3-1.4c-0.3,0-0.5,0.1-0.8,0.2c-0.1,0-0.3-0.1-0.4-0.1c-1.5-2.6-3.1-5.3-4.6-7.9C36.2,50.2,35,48.1,33.8,46z
		 M95.4,61.7c0,9.8,0,19.5,0,29.2c-7.2-4.9-14.3-9.7-21.6-14.6C81.1,71.5,88.2,66.6,95.4,61.7z M54.6,76.4
		C47.4,81.2,40.2,86.1,33,91c0-9.8,0-19.5,0-29.2C40.2,66.6,47.4,71.5,54.6,76.4z M34.3,55.2c0.5-0.4,1.1-0.7,1.6-1.1
		c0.5,0.8,0.9,1.5,1.3,2.3c1.1,2,2.3,4,3.4,6c0.4,0.6,0.9,0.8,1.6,0.5c1.1-0.6,2.2-0.5,3.2,0.1c1.8,1.1,2,3.6,0.4,5
		c-1.1-0.7-2.1-1.4-3.2-2.2c-2.8-1.9-5.6-3.8-8.4-5.7C32.6,58.8,32.6,56.4,34.3,55.2z M94.5,96c-10.1,0-20.2,0-30.3,0
		c-10,0-20.1,0-30.1,0c-0.8,0-1.2-0.6-1-1.3c0.2-1.1,0.9-1.7,1.7-2.3c5.4-3.7,10.9-7.4,16.3-11c3.8-2.6,7.6-5.2,11.4-7.7
		c1.2-0.8,2.3-0.8,3.5,0c4.4,3,8.8,6,13.3,9c4.9,3.3,9.9,6.7,14.8,10c0.9,0.6,1.4,1.4,1.4,2.4C95.5,95.7,95.1,96,94.5,96z
		 M94.5,59.7c-0.9,0.7-1.8,1.3-2.8,2c-2.6,1.8-5.3,3.6-7.9,5.4c0,0,0,0-0.1,0c-0.2-0.4-0.4-0.7-0.7-1.1c-1.6-2.8-3.2-5.6-4.8-8.4
		c-1-1.7-1.9-3.4-2.9-5.1c-0.4-0.7-0.9-0.8-1.6-0.5c-1.2,0.6-2.3,0.5-3.4-0.2c-1.5-1-1.7-3.4-0.4-4.6c0.2-0.2,0.5-0.4,0.7-0.6
		c0.6-0.4,0.7-1,0.4-1.6c-0.5-0.9-1.1-1.8-1.6-2.8c-1.1-1.9-2.2-3.9-3.4-5.8c0,0,0-0.1-0.1-0.2c0.6,0.4,1.2,0.8,1.7,1.2
		c8.4,5.7,16.8,11.4,25.2,17.1c0.6,0.4,1.3,0.9,1.8,1.4C95.8,56.8,95.7,58.7,94.5,59.7z"/>
	<path class="st0" d="M44.1,47.2c0.3,0,0.6,0,0.9,0.1c0.8,0.1,1.6,0.2,2.3,0.3c0.7,0.1,1.4,0.1,2.1,0.2c0.7,0.1,1.5,0.2,2.2,0.3
		c0.7,0.1,1.4,0.1,2.2,0.2c0.8,0.1,1.6,0.2,2.3,0.3c0.5,0.1,1,0.1,1.5,0.2c0.8,0.1,1.6,0.2,2.3,0.3c0.9,0.1,1.4-0.8,1.1-1.5
		c-0.2-0.5-0.7-0.6-1.2-0.7c-0.7-0.1-1.4-0.1-2.2-0.2c-0.8-0.1-1.5-0.2-2.3-0.3c-0.7-0.1-1.5-0.1-2.2-0.2c-0.8-0.1-1.6-0.2-2.4-0.3
		c-0.7-0.1-1.4-0.1-2.1-0.2c-0.8-0.1-1.5-0.2-2.3-0.3c-0.7-0.1-1.4-0.1-2.2-0.2c-0.8-0.1-1.3,0.4-1.4,1
		C42.9,46.7,43.4,47.2,44.1,47.2z"/>
	<path class="st0" d="M53.6,44.8c2,0,3.5-1.6,3.5-3.4c0.1-2-1.6-3.6-3.5-3.6c-2-0.1-3.5,1.6-3.5,3.4C50.1,43.3,51.6,44.8,53.6,44.8z
		 M53.6,40c0.8,0,1.3,0.5,1.3,1.3c0,0.7-0.5,1.4-1.3,1.3c-0.8,0-1.3-0.6-1.3-1.3C52.3,40.5,52.9,40,53.6,40z"/>
	<path class="st0" d="M54.1,52.7c0-2-1.6-3.5-3.5-3.4c-1.9,0-3.5,1.5-3.5,3.4c0,2,1.4,3.5,3.5,3.5C52.5,56.2,54,54.8,54.1,52.7z
		 M49.2,52.7c0-0.8,0.6-1.3,1.3-1.3c0.7,0,1.3,0.5,1.3,1.3c0,0.7-0.6,1.3-1.4,1.3C49.8,54,49.2,53.4,49.2,52.7z"/>
	<path class="st0" d="M66.4,57.9c-0.7,0.1-1.2,0.9-0.7,1.7c0.4,0.6,0.7,1.2,1,1.8c0.9,1.6,1.9,3.3,2.8,4.9c0.3,0.5,0.8,0.7,1.2,0.6
		c0.5-0.1,0.8-0.5,0.9-1.1c-0.1-0.3-0.2-0.5-0.4-0.8c-0.6-1-1.1-1.9-1.7-2.9c-0.7-1.2-1.4-2.4-2.1-3.6C67.3,58,66.8,57.8,66.4,57.9z
		"/>
	<path class="st0" d="M60.5,54.6c-0.6,0.3-1.1,0.6-1.6,0.9c-0.4,0.2-0.5,0.5-0.5,0.9c0,0.7,0.8,1.4,1.6,0.9c0.5-0.3,1.1-0.6,1.6-0.9
		c0.6-0.3,0.8-1,0.5-1.5C61.7,54.5,61.1,54.3,60.5,54.6z"/>
	<path class="st0" d="M52.1,59.6c-0.2,0.1-0.4,0.1-0.5,0.2c-0.6,0.3-1.1,0.6-1.6,0.9c-0.5,0.3-0.7,0.9-0.4,1.4
		c0.3,0.5,0.9,0.7,1.4,0.4c0.6-0.3,1.2-0.6,1.7-1c0.4-0.3,0.6-0.8,0.5-1.2C53,59.9,52.6,59.7,52.1,59.6z"/>
	<path class="st0" d="M64.5,54.8c0.5-0.3,1.1-0.6,1.6-0.9c0.5-0.3,0.6-0.8,0.5-1.3c-0.1-0.5-0.5-0.7-1.1-0.8
		c-0.2,0.1-0.4,0.1-0.6,0.2c-0.5,0.3-1,0.6-1.6,0.9c-0.6,0.3-0.7,1-0.4,1.5C63.3,55,63.9,55.2,64.5,54.8z"/>
	<path class="st0" d="M56.1,57.2c-0.6,0.3-1.1,0.6-1.6,1c-0.5,0.3-0.6,0.7-0.5,1.2c0.2,0.5,0.5,0.8,1,0.8c0.2-0.1,0.4-0.1,0.5-0.2
		c0.5-0.3,1.1-0.6,1.6-0.9c0.6-0.3,0.7-1,0.4-1.5C57.2,57.1,56.6,56.9,56.1,57.2z"/>
</g>
</svg>
