<?xml version="1.0" encoding="utf-8"?>
<!-- Generator: Adobe Illustrator 28.0.0, SVG Export Plug-In . SVG Version: 6.00 Build 0)  -->
<svg version="1.1" id="图层_1" xmlns="http://www.w3.org/2000/svg" xmlns:xlink="http://www.w3.org/1999/xlink" x="0px" y="0px"
	 viewBox="0 0 128 128" style="enable-background:new 0 0 128 128;" xml:space="preserve">
<style type="text/css">
	.st0{fill:#040000;}
</style>
<g>
	<path class="st0" d="M97.1,77c-0.5-1.5-1.5-2.5-3-3c0.6-0.6,1.2-1.2,1.8-1.8c1.1-1.1,1.6-2.4,1.3-3.9c-0.2-1.5-1-2.6-2.3-3.2
		c-0.4-0.2-0.9-0.4-1.4-0.6c0.6-2.3-0.1-4.1-2.2-5.3c0.1-0.1,0.2-0.2,0.3-0.3c1-1,2-2,3-3c1.2-1.2,1.6-2.5,1.4-4.2
		c-0.3-2-2.3-3.7-4.3-3.6c-0.4,0-0.8,0.1-1.3,0.1c0-0.1,0-0.3,0-0.4c0-4.6,0-9.2,0-13.8c0-0.4,0-0.7-0.1-1.1
		C89.8,30,87.5,28,84.5,28c-7.7,0-15.5,0-23.2,0c-0.4,0-0.7,0-1.1,0.1c-2.9,0.5-4.9,2.9-4.9,5.8c0,7.3,0,14.7,0,22
		c0,0.1,0,0.3,0,0.4c-0.3-0.1-0.5-0.1-0.8-0.1c-0.3,0-0.5,0-0.8,0c-1.4,0.2-2.7,1.3-3,2.7c-0.2,1.1-0.4,2.2-0.6,3.3
		c-0.3,1.6-0.6,3.1-0.9,4.7c-0.3,1.4-0.5,2.8-0.8,4.2c-0.2,1.1-0.2,2.1,0,3.2c0.2,0.9,0.3,1.9,0.4,2.8c0.1,0.8,0.2,1.5,0.3,2.3
		c0.1,0.5,0.2,1,0.1,1.4c-0.6,2.6-1.3,5.2-1.9,7.8c-0.1,0.6-0.4,1.1-0.9,1.5c-2,2-4.1,4-6.1,6.1c-0.3,0.3-0.5,0.7-0.4,1.1
		c0.2,0.7,0.6,1,1.3,1c8.9,0,17.7,0,26.6,0c0.5,0,0.8-0.2,1.1-0.5c1.3-1.3,2.6-2.6,3.9-3.9c0.2-0.2,0.4-0.3,0.7-0.3
		c3.5,0,7,0,10.5,0c0.5,0,1-0.1,1.5-0.1c2.7-0.5,4.6-2.8,4.7-5.6c0-0.6,0-1.2,0.7-1.5c0.1,0,0.1-0.1,0.1-0.1
		c1.6-1.6,3.2-3.1,4.7-4.7C97.2,80.2,97.6,78.7,97.1,77z M92.8,66.8c0.9,0,1.6,0.5,2,1.4c0.3,0.8,0.1,1.7-0.5,2.3
		c-1.5,1.5-3.1,3.1-4.6,4.6c-0.7,0.7-1.6,0.8-2.4,0.5c-0.8-0.4-1.3-1.2-1.3-2.1c0-0.5,0.2-0.9,0.6-1.3c1.6-1.6,3.2-3.2,4.8-4.8
		C91.7,67,92.2,66.8,92.8,66.8z M90.5,51.4c0-0.7,0.2-0.9,0.9-1c0.9-0.1,1.8,0.3,2.2,1.2c0.4,0.8,0.3,1.8-0.4,2.5
		c-0.8,0.8-1.7,1.7-2.5,2.5c-0.1,0.1-0.1,0.1-0.2,0.2c0-0.2,0-0.3,0-0.4C90.5,54.7,90.5,53,90.5,51.4z M89.9,61.1
		c0.8,0.2,1.3,0.8,1.5,1.6c0,0.1,0,0.3,0,0.5c0,0.6-0.2,1.1-0.6,1.5c-1.6,1.6-3.1,3.1-4.7,4.7c-0.6,0.6-1.6,0.8-2.4,0.4
		c-0.8-0.4-1.3-1.2-1.2-2.1c0-0.6,0.3-1,0.7-1.4c1.5-1.5,3-3.1,4.6-4.6C88.3,61.1,89,60.8,89.9,61.1z M83.4,40.1
		c0,7.4,0,14.8,0,22.2c0,0.3-0.1,0.4-0.2,0.6c-0.7,0.7-1.4,1.4-2.1,2.2c-1.4,1.6-1.3,4.3,0.2,5.8c0.5,0.6,1.2,1,1.9,1.2
		c0.1,0,0.2,0.2,0.2,0.3c0,1.6,0,3.2,0,4.8c-7,0-14,0-21.1,0c0-12.5,0-24.9,0-37.4c7,0,14,0,21.1,0C83.4,39.8,83.4,40,83.4,40.1z
		 M69.8,93.8c-0.6,0.6-1.2,1.2-1.8,1.8c-0.2,0.2-0.3,0.2-0.6,0.2c-4.7,0-9.5,0-14.2,0c-2.9,0-5.7,0-8.6,0c-0.1,0-0.3,0-0.5,0
		c1.6-1.5,3-3,4.5-4.5c0.5-0.5,0.8-1.1,1-1.8c0.7-2.9,1.4-5.8,2.1-8.7c0.1-0.3,0-0.7,0-1c-0.1-1-0.3-1.9-0.4-2.9
		c-0.1-0.9-0.3-1.9-0.4-2.8c-0.1-0.5-0.2-1.1-0.2-1.6c0-0.5,0.2-1,0.2-1.5c0.3-1.4,0.5-2.8,0.8-4.2c0.3-1.5,0.6-3.1,0.8-4.6
		c0.2-0.9,0.3-1.7,0.5-2.6c0.1-0.4,0.3-0.8,0.7-1.1c0.7-0.4,1.6,0.1,1.7,0.9c0,0.2,0,0.3,0,0.5c0,9.2,0,18.4,0,27.6
		c0,2.8,1.8,5.1,4.5,5.8c0.5,0.1,0.9,0.2,1.4,0.2c2.8,0,5.6,0,8.4,0c0.1,0,0.3,0,0.5,0C70,93.7,69.9,93.7,69.8,93.8z M87,90.3
		c-0.7,0.7-1.6,1-2.6,1c-7.8,0-15.6,0-23.3,0c-1.6,0-3.1-1.2-3.3-2.8c0-0.3-0.1-0.5-0.1-0.8c0-18,0-35.9,0-53.9c0-1.6,1.2-3,2.7-3.4
		c0.3-0.1,0.5-0.1,0.8-0.1c7.8,0,15.6,0,23.5,0c1.6,0,3.1,1.2,3.4,2.8c0,0.2,0.1,0.5,0.1,0.8c0,8.2,0,16.3,0,24.5c0,0.1,0,0.3,0,0.4
		c-0.9,0.2-1.6,0.7-2.3,1.4c0-0.2,0-0.4,0-0.5c0-7,0-14,0-21c0-0.9-0.5-1.4-1.4-1.4c-7.6,0-15.3,0-22.9,0c-0.9,0-1.4,0.5-1.4,1.4
		c0,13.1,0,26.2,0,39.4c0,0.9,0.5,1.4,1.4,1.4c7.7,0,15.3,0,23,0c0.9,0,1.4-0.5,1.4-1.4c0-0.2,0-0.4,0-0.7c0.4,0.2,0.7,0.3,1.1,0.5
		c-0.1,0.1-0.2,0.2-0.3,0.3c-0.7,0.7-1.4,1.4-2,2.1c-1.9,2.4-0.6,6.2,2.4,7c0.4,0.1,0.8,0.1,1.2,0.2C88.2,88.6,87.8,89.5,87,90.3z
		 M94.3,79.9c-1.5,1.5-3.1,3.1-4.6,4.6c-0.7,0.7-1.6,0.8-2.4,0.4c-0.8-0.4-1.3-1.2-1.3-2.1c0-0.5,0.2-0.9,0.6-1.3
		c1.6-1.6,3.2-3.2,4.8-4.8c0.4-0.4,0.9-0.6,1.4-0.6c0.8-0.1,1.7,0.5,2,1.3C95.1,78.3,94.9,79.2,94.3,79.9z"/>
	<path class="st0" d="M44.4,53c0.2-0.1,0.4-0.1,0.6,0c2.2,0.6,4.4,1.2,6.6,1.9c0.8,0.2,1.6-0.6,1.4-1.4c-0.6-1.8-1.2-3.5-1.7-5.3
		c-0.1-0.4-0.1-0.6,0.1-1c0.9-1.5,1.4-3.3,1.6-5c0.1-1.2,0.1-2.5-0.2-3.7c-0.6-3.1-2.1-5.8-4.7-7.7c-3.1-2.4-6.6-3.3-10.5-2.5
		c-3.1,0.6-5.6,2.2-7.6,4.6c-1.9,2.3-2.7,5-2.8,8.3c0.1,0.5,0.1,1.4,0.3,2.2c0.6,3.2,2.3,5.8,4.9,7.7c2.6,1.9,5.5,2.8,8.7,2.5
		C42.2,53.6,43.3,53.3,44.4,53z M39.2,51.4c-2.1-0.2-3.9-0.9-5.6-2.2c-2.1-1.6-3.4-3.7-3.9-6.2c-0.6-3.1,0-5.9,1.9-8.5
		c1.6-2.1,3.7-3.5,6.3-4c3.2-0.7,6.1,0,8.7,2c2.1,1.6,3.4,3.8,3.9,6.4c0.5,2.8,0,5.4-1.5,7.8c-0.3,0.5-0.4,1-0.2,1.5
		c0.4,1.2,0.8,2.5,1.3,3.9c-0.6-0.2-1.1-0.3-1.6-0.5c-1.2-0.3-2.4-0.7-3.5-1c-0.3-0.1-0.6,0-0.9,0.1C42.5,51.3,40.9,51.5,39.2,51.4z
		"/>
	<path class="st0" d="M72.9,49.1c0.4,0,0.8,0,1.1,0c0.3,0,0.6-0.1,0.9-0.1c1.6-0.3,2.9-2.1,2.6-3.9c-0.2-1.3-0.9-2.2-2.1-2.7
		c-0.4-0.2-1-0.3-1.4-0.3c-1.1,0-2.2,0-3.4,0c0,3.5,0,7,0,10.5c0.8,0,1.5,0,2.3,0C72.9,51.4,72.9,50.2,72.9,49.1z M72.9,44.4
		c0.5,0,0.9,0,1.4,0c0.5,0.1,1,0.5,0.9,1.3c-0.1,0.5-0.6,1-1.1,1c-0.4,0-0.8,0-1.2,0C72.9,45.9,72.9,45.2,72.9,44.4z"/>
	<path class="st0" d="M70.9,62.2c0.1-0.2,0.2-0.3,0.4-0.3c1.1,0,2.1,0,3.2,0c0.2,0,0.3,0.1,0.4,0.3c0.1,0.4,0.3,0.8,0.4,1.2
		c0.8-0.3,1.5-0.5,2.2-0.7c-0.8-2.5-1.7-5-2.5-7.5c-0.1-0.2-0.2-0.3-0.4-0.3c-1.1,0-2.3,0-3.4,0c-0.2,0-0.3,0.1-0.4,0.3
		c-0.8,2.5-1.7,5-2.5,7.5c0.7,0.2,1.5,0.5,2.2,0.7C70.6,63,70.8,62.6,70.9,62.2z M72.6,57.3c0.2,0,0.4,0,0.7,0
		c0.3,0.8,0.5,1.5,0.8,2.3c-0.8,0-1.5,0-2.2,0C72.1,58.8,72.3,58,72.6,57.3z"/>
	<path class="st0" d="M72.9,68.2c-0.9-1.2-1.7-2.3-2.6-3.4c-0.6,0.5-1.2,0.9-1.8,1.4c0.9,1.2,1.8,2.4,2.7,3.6c0.4,0.5,0.6,1,0.6,1.6
		c-0.1,0.6,0,1.2,0,1.9c0,0.5,0,1,0,1.5c0.8,0,1.5,0,2.3,0c0-0.2,0-0.3,0-0.4c0-1.2,0-2.4,0-3.6c0-0.1,0-0.3,0.1-0.4
		c0.4-0.6,0.9-1.2,1.3-1.8c0.6-0.8,1.2-1.6,1.8-2.4c-0.6-0.5-1.2-0.9-1.8-1.4C74.6,65.9,73.8,67.1,72.9,68.2z"/>
	<path class="st0" d="M72.9,81.9c-2,0-3.5,1.5-3.5,3.5c0,2,1.5,3.5,3.5,3.5c2,0,3.4-1.5,3.5-3.5C76.4,83.4,74.9,81.9,72.9,81.9z
		 M72.9,86.5c-0.7,0-1.2-0.5-1.2-1.2c0-0.6,0.5-1.1,1.2-1.1c0.7,0,1.1,0.5,1.1,1.2C74.1,86,73.6,86.5,72.9,86.5z"/>
	<path class="st0" d="M79.9,32.7c-3.1,0-6.2,0-9.3,0c0,0.8,0,1.5,0,2.3c3.1,0,6.2,0,9.3,0C79.9,34.2,79.9,33.5,79.9,32.7z"/>
	<path class="st0" d="M68.2,32.7c-0.8,0-1.5,0-2.3,0c0,0.8,0,1.5,0,2.3c0.8,0,1.5,0,2.3,0C68.2,34.2,68.2,33.5,68.2,32.7z"/>
	<path class="st0" d="M45.9,42.4c-0.4-1.7-1.8-2.7-3.5-2.7c-1.5,0-3,0-4.5,0c-0.7,0-1.2-0.5-1.2-1.2c0-0.7,0.5-1.2,1.2-1.2
		c2.2,0,4.4,0,6.6,0c0.1,0,0.3,0,0.4,0c0-0.8,0-1.6,0-2.4c-1.2,0-2.3,0-3.5,0c0-0.8,0-1.5,0-2.3c-0.8,0-1.5,0-2.3,0
		c0,0.8,0,1.5,0,2.3c-0.6,0-1.2,0-1.7,0.1c-2,0.3-3.4,2.3-2.9,4.3c0.4,1.7,1.8,2.7,3.5,2.7c1.5,0,3,0,4.5,0c0.7,0,1.2,0.5,1.3,1.2
		c0,0.6-0.6,1.2-1.2,1.2c-2.2,0-4.4,0-6.5,0c-0.1,0-0.3,0-0.4,0c0,0.8,0,1.6,0,2.3c0.6,0,1.2,0,1.7,0c0.6,0,1.1,0,1.7,0
		c0,0.8,0,1.6,0,2.3c0.8,0,1.5,0,2.3,0c0-0.8,0-1.5,0-2.3c0.6,0,1.2,0,1.7-0.1C45,46.4,46.4,44.4,45.9,42.4z"/>
</g>
</svg>
