<svg id="图层_1" data-name="图层 1" xmlns="http://www.w3.org/2000/svg" width="51.41mm" height="44.97mm" viewBox="0 0 145.73 127.47">
  <defs>
    <style>
      .cls-1 {
        fill: #040000;
      }
    </style>
  </defs>
  <g>
    <path class="cls-1" d="M108.54,126.2a12.71,12.71,0,0,0,1.49-6.49c-.12-4.58,0-9.16,0-13.73,0-1.09,0-2.18-.06-3.27a5.65,5.65,0,0,0-4.18-5.45,5.77,5.77,0,0,0-3.47.18c-2.08-2.66-4.16-3.21-7.31-2.07A16,16,0,0,0,92.36,94a15.79,15.79,0,0,0-2.85-.4c0-2.37,0-4.88,0-7.39a9.34,9.34,0,0,0-.13-1.4,5.59,5.59,0,0,0-8.25-4.08,5.41,5.41,0,0,0-3,5c0,5.81,0,11.61,0,17.42V104a7.48,7.48,0,0,0-1.1-.13,5.61,5.61,0,0,0-5.71,5.6c-.1,4.19-.07,8.39,0,12.59A6.3,6.3,0,0,0,74,127.32c1.81,1.28,3.68,2.48,5.52,3.72.66.45,1.57.76,1.89,1.38s.09,1.58.1,2.38c0,0,0,.1,0,.14s-.14.4-.28.51a4.73,4.73,0,0,0-2,4.06c0,2.06,0,4.12,0,6.19a4.63,4.63,0,0,0,4.81,4.84H104a4.66,4.66,0,0,0,4.86-4.88c0-2.06,0-4.13,0-6.19a4.38,4.38,0,0,0-1.61-3.67,1.67,1.67,0,0,1-.68-1.61,19.25,19.25,0,0,1,.17-3.66A19.72,19.72,0,0,1,108.54,126.2Zm-4.27,19.73H83.87v-6.75h20.4Zm1.16-24.28a3.08,3.08,0,0,1-.31,1.12c-.88,2-1.84,4-2.62,6a10,10,0,0,0-.45,2.9c-.08.92,0,1.85,0,2.85H86.09c0-1,0-2,0-3a2.59,2.59,0,0,0-1.23-2.37c-2.61-1.71-5.18-3.46-7.79-5.18a2.52,2.52,0,0,1-1.24-2.29c0-4,0-7.92,0-11.88,0-.91.37-1.38,1.11-1.39s1.17.45,1.17,1.41c0,2.9,0,5.79,0,8.68a2.27,2.27,0,0,0,1.17,2.11,2.13,2.13,0,0,0,2.38-.12,2.34,2.34,0,0,0,1-2.13V85.93c0-1,.38-1.43,1.16-1.41a1.07,1.07,0,0,1,1.11,1,5.42,5.42,0,0,1,0,.57v25.39a2.37,2.37,0,0,0,1,2.14,2.11,2.11,0,0,0,2.38.14,2.26,2.26,0,0,0,1.18-2.1c0-4.08,0-8.16,0-12.24,0-.88.5-1.37,1.29-1.28.63.07,1,.53,1,1.3,0,4.06,0,8.11,0,12.17a2.28,2.28,0,0,0,1,2,2.15,2.15,0,0,0,2.39.14,2.23,2.23,0,0,0,1.19-2.09c0-3.72,0-7.44,0-11.17a1.09,1.09,0,0,1,.93-1.21,1.07,1.07,0,0,1,1.29.72,2,2,0,0,1,.06.7c0,3.63,0,7.25,0,10.88a2.3,2.3,0,0,0,.95,2,2.15,2.15,0,0,0,2.38.16,2.23,2.23,0,0,0,1.21-2.08c0-2.92,0-5.83,0-8.75,0-.91.37-1.38,1.12-1.39s1.15.46,1.15,1.42Q105.46,112.32,105.43,121.65Z" transform="translate(-11.11 -23.07)"/>
    <path class="cls-1" d="M104.06,30a32.08,32.08,0,0,0-24.47-6.68A32.8,32.8,0,0,0,50.86,55c-.57,16.49,10.86,28.86,22.62,32.25.11-1.48.21-3,.32-4.49A28.57,28.57,0,0,1,56.23,48.94,28.53,28.53,0,0,1,86.89,27.75a28.5,28.5,0,0,1,6.94,55c.11,1.52.21,3,.32,4.55a32.81,32.81,0,0,0,22.08-37.26A31.78,31.78,0,0,0,104.06,30Z" transform="translate(-11.11 -23.07)"/>
    <path class="cls-1" d="M156.55,71.88a11.79,11.79,0,0,0-5.81-8.65c-.88,1.27-1.73,2.49-2.58,3.73.14.09.31.21.49.31a6.59,6.59,0,0,1,3.46,6c0,2.23,0,4.46,0,6.69a2.21,2.21,0,0,1-2.29,2.32q-11.38,0-22.76,0A2.23,2.23,0,0,1,124.79,80c0-2.33,0-4.65,0-7a6.43,6.43,0,0,1,1-3.38,7,7,0,0,1,3-2.64l-2.59-3.75a11.42,11.42,0,0,0-5.9,9.74c-.13,2.37-.06,4.75,0,7.12a6.44,6.44,0,0,0,1,3.39,6.79,6.79,0,0,0,6.08,3.31q10.77,0,21.55,0a18.45,18.45,0,0,0,2-.14A6.44,6.44,0,0,0,155,84.42a6.58,6.58,0,0,0,1.76-4.29A43.8,43.8,0,0,0,156.55,71.88Z" transform="translate(-11.11 -23.07)"/>
    <path class="cls-1" d="M72.89,56.37c.41-.3.85-.56,1.21-.8l-2.57-3.72a11.48,11.48,0,0,0-5.9,9.76c-.13,2.34,0,4.69,0,7a6.51,6.51,0,0,0,1,3.4,6.81,6.81,0,0,0,6.13,3.36q10.74,0,21.48,0a15.43,15.43,0,0,0,2-.15,6.49,6.49,0,0,0,5.23-4.08,10.42,10.42,0,0,0,.55-4.66,49.16,49.16,0,0,0-.33-7,10.69,10.69,0,0,0-5.6-7.67c-.87,1.27-1.72,2.49-2.57,3.72l.45.28A6.66,6.66,0,0,1,97.48,62c0,2.18,0,4.36,0,6.54a2.22,2.22,0,0,1-2.31,2.31H72.48a2.21,2.21,0,0,1-2.32-2.29c0-2.25,0-4.51,0-6.76A6.55,6.55,0,0,1,72.89,56.37Z" transform="translate(-11.11 -23.07)"/>
    <path class="cls-1" d="M41.45,63.25,38.89,67l.46.31a6.62,6.62,0,0,1,3.49,6.09v6.54a2.21,2.21,0,0,1-2.33,2.35q-11.34,0-22.68,0a2.21,2.21,0,0,1-2.31-2.3c0-2.21,0-4.41,0-6.62a6.62,6.62,0,0,1,2.81-5.62c.38-.28.8-.52,1.15-.75l-2.56-3.7a10.31,10.31,0,0,0-3.35,2.82,10.47,10.47,0,0,0-2.45,6.44v8.25a2.8,2.8,0,0,0,.05.71,6.8,6.8,0,0,0,6.74,5.31c7.52,0,15,0,22.55,0a7.28,7.28,0,0,0,1.67-.21,6.84,6.84,0,0,0,5.27-6.86V73.6a11.89,11.89,0,0,0-1.16-5.24A11.09,11.09,0,0,0,41.45,63.25Z" transform="translate(-11.11 -23.07)"/>
    <path class="cls-1" d="M30.44,66.17a8.39,8.39,0,0,0,7.27-6.25,16.46,16.46,0,0,0,.3-6.18,8.14,8.14,0,0,0-2.37-5.2A8.67,8.67,0,0,0,27.88,46a8.54,8.54,0,0,0-6.17,3.86A10.55,10.55,0,0,0,20.18,56a25.59,25.59,0,0,0,.22,3A8.78,8.78,0,0,0,30.44,66.17ZM25,53.61a4.17,4.17,0,0,1,4.54-3.26,4.28,4.28,0,0,1,3.95,3.32c.15.78.15,1.59.24,2.64a15.08,15.08,0,0,1-.4,2.66,4.16,4.16,0,0,1-4.7,2.77A3.92,3.92,0,0,1,25,58.52,18.34,18.34,0,0,1,25,53.61Z" transform="translate(-11.11 -23.07)"/>
    <path class="cls-1" d="M132,63.54a9.08,9.08,0,0,0,14-1.3,10.65,10.65,0,0,0,1.47-6.15c-.06-.77-.12-1.55-.17-2.32a8,8,0,0,0-2.35-5.21,8.59,8.59,0,0,0-7.75-2.6A8.4,8.4,0,0,0,130,51.88a15.92,15.92,0,0,0-.41,6.3A8.2,8.2,0,0,0,132,63.54Zm2.4-10.39A4.24,4.24,0,0,1,139,50.36a4.17,4.17,0,0,1,3.69,3.17,19,19,0,0,1,0,5,4.14,4.14,0,0,1-4.54,3.19,4.3,4.3,0,0,1-3.93-3.25,24.89,24.89,0,0,1-.24-2.78A15.25,15.25,0,0,1,134.35,53.15Z" transform="translate(-11.11 -23.07)"/>
    <path class="cls-1" d="M85.08,54.79a8.39,8.39,0,0,0,7.27-6.26,16.4,16.4,0,0,0,.3-6.17,8.19,8.19,0,0,0-2.37-5.2,8.68,8.68,0,0,0-7.76-2.59,8.52,8.52,0,0,0-6.17,3.86,10.53,10.53,0,0,0-1.53,6.27,24.12,24.12,0,0,0,.21,3A8.8,8.8,0,0,0,85.08,54.79Zm-5.37-13A4.25,4.25,0,0,1,84.39,39a4.1,4.1,0,0,1,3.66,3.29,20.09,20.09,0,0,1,0,4.84,4.16,4.16,0,0,1-3.89,3.28,4.29,4.29,0,0,1-4.59-3.22,21.49,21.49,0,0,1-.25-2.71A17.21,17.21,0,0,1,79.71,41.79Z" transform="translate(-11.11 -23.07)"/>
  </g>
</svg>
