<svg id="图层_1" data-name="图层 1" xmlns="http://www.w3.org/2000/svg" width="45.02mm" height="44.92mm" viewBox="0 0 127.62 127.35">
  <defs>
    <style>
      .cls-1 {
        fill: #040000;
      }
    </style>
  </defs>
  <g>
    <path class="cls-1" d="M149.09,116.84a25.71,25.71,0,0,0-6.2-12.94,27.07,27.07,0,0,0-11.52-7.83,30.56,30.56,0,0,0-9.06-1.58v-.91q0-31.8,0-63.61a14.72,14.72,0,0,0-.12-1.49,6.2,6.2,0,0,0-6.24-5.4H57.24a5.79,5.79,0,0,0-1.54.22,6.26,6.26,0,0,0-4.83,6.27V67.16a2.88,2.88,0,0,0-2.12,1.62c-3.32,5.58-6.65,11.15-10,16.68a11.6,11.6,0,0,0-2.12,7c.17,2,.6,4.06.94,6.08.36,2.24.75,4.47,1.13,6.71.34,2,.66,4,1,6a6.78,6.78,0,0,1-1,5.52c-.58.79-1.22,1.54-1.84,2.29l-5,6.11-5.07,6.22c-1.59,1.94-3.19,3.89-4.8,5.87l3.21,2.64,5.09-6.25q2.82-3.42,5.65-6.85t5.69-7A9.4,9.4,0,0,0,44,113.41c-.14-2.6-.67-5.18-1.07-7.76-.3-2-.65-3.92-1-5.88s-.66-4-1-6a6.94,6.94,0,0,1,.7-5q4.1-6.84,8.2-13.68l1.78-2.92,1.28.79a6.19,6.19,0,0,1,2.34,8.48c-1.52,2.69-3.22,5.28-4.87,7.9a6.08,6.08,0,0,0-1.17,4.16,29.72,29.72,0,0,0,.84,4,23.56,23.56,0,0,1,.88,6.54c-.07,8.68,0,17.37,0,26.06a5.8,5.8,0,0,0,1.9,4.54,24.54,24.54,0,0,0,2.55,1.74,13.75,13.75,0,0,0-2,1.51c-1.2,1.23-2.3,2.55-3.39,3.88-1.63,2-3.21,4-4.83,6l3.25,2.6c2.18-2.74,4.35-5.46,6.51-8.19a7.3,7.3,0,0,1,3.54-2.52c2.57-.83,5.14-1.7,7.71-2.54a7.72,7.72,0,0,1,2.17-.62q15.3-.06,30.6,0a1,1,0,0,1,.73.38,28.62,28.62,0,0,0,5.23,5.81,25.78,25.78,0,0,0,7.08,4.29,25.39,25.39,0,0,0,12.26,2,32.48,32.48,0,0,0,4.81-.73,27.28,27.28,0,0,0,20.64-25.92A30.91,30.91,0,0,0,149.09,116.84ZM69.78,27.31H103.4c0,.82,0,1.58,0,2.34a2.08,2.08,0,0,1-2,1.82H93.28c-7.09,0-14.18,0-21.27,0a2.28,2.28,0,0,1-2.25-2.25A15.57,15.57,0,0,0,69.78,27.31Zm27.3,105c-.2,0-.38,0-.56,0H57.19a2,2,0,0,1-2.12-2.14c0-8.84,0-17.68,0-26.52a23,23,0,0,0-.87-6.41,35.69,35.69,0,0,1-.92-3.77,2.48,2.48,0,0,1,.35-1.58q2.42-4,4.93-7.94A10.42,10.42,0,0,0,57.2,71.11a12.07,12.07,0,0,0-1.65-1.38,1,1,0,0,1-.49-1q0-7.59,0-15.17c0-8,0-16.06,0-24.09a2.39,2.39,0,0,1,2.3-2.28c2.71.09,5.43,0,8.24,0,0,.67,0,1.32,0,2a6.24,6.24,0,0,0,4.27,6.05,7.14,7.14,0,0,0,2.09.38q14.64,0,29.28,0a6.19,6.19,0,0,0,6.24-5.4c.11-1,.14-1.94.21-3h.67c2.52,0,5,.06,7.55,0a2.38,2.38,0,0,1,2.24,2.27q0,32.31,0,64.6v.75A27.34,27.34,0,0,0,97.08,132.29Zm48.34-9.43A23.13,23.13,0,1,1,123.35,98.7,23.17,23.17,0,0,1,145.42,122.86Z" transform="translate(-21.97 -23.07)"/>
    <path class="cls-1" d="M68,90.3H105.2a2.17,2.17,0,0,0,2.4-2.36V42.25a2.17,2.17,0,0,0-2.4-2.37H68a2.18,2.18,0,0,0-2.4,2.43V87.87A2.18,2.18,0,0,0,68,90.3Zm6.27-4.23c.14-1.25.28-2.46.43-3.66s.3-2.49.49-3.73c.23-1.57.19-3.2,1-4.67a6.64,6.64,0,0,1,2.94-2.85c1.4-.71,2.81-1.39,4.2-2.12a2,2,0,0,0,1.06-2.49c-.59-1.92-1.3-3.81-1.81-5.75a10.77,10.77,0,0,1-.14-2.73,11.83,11.83,0,0,1,.15-2.53,4.14,4.14,0,0,1,4.68-3,4.32,4.32,0,0,1,3.6,4.15,17.62,17.62,0,0,1-1.29,7.77,19.65,19.65,0,0,0-.72,2.29A1.9,1.9,0,0,0,89.75,69c1.3.69,2.62,1.36,4,2a6.72,6.72,0,0,1,4.08,5.87c.19,2.26.58,4.5.88,6.75.1.82.17,1.64.26,2.5ZM69.83,44.13h33.52V86.06l-.13,0a5,5,0,0,1-.21-.85c-.22-1.65-.43-3.31-.64-5s-.38-3-.55-4.52a10.55,10.55,0,0,0-2.61-5.88,15.18,15.18,0,0,0-5.09-3.35c-.79-.4-.77-.39-.51-1.26a33.32,33.32,0,0,0,1.24-4.55A23.06,23.06,0,0,0,95,56a8,8,0,0,0-2-4.82,8.39,8.39,0,0,0-11.82-.84,7.5,7.5,0,0,0-2.76,5.13,22.42,22.42,0,0,0-.1,4.7,28.16,28.16,0,0,0,1.17,4.64c.4,1.34.44,1.34-.84,2a13.68,13.68,0,0,0-4.53,3,10.65,10.65,0,0,0-2.69,6c-.23,1.93-.52,3.86-.76,5.79-.16,1.22-.27,2.45-.42,3.68a7.65,7.65,0,0,1-.18.83l-.16,0Z" transform="translate(-21.97 -23.07)"/>
    <path class="cls-1" d="M76.12,98.67H97.06V94.56H76.12Z" transform="translate(-21.97 -23.07)"/>
    <path class="cls-1" d="M78.23,107.06H95V103H78.23Z" transform="translate(-21.97 -23.07)"/>
    <path class="cls-1" d="M78.22,117.58H90.76v-4.11H78.22Z" transform="translate(-21.97 -23.07)"/>
    <path class="cls-1" d="M78.22,128.09H90.75V124H78.22Z" transform="translate(-21.97 -23.07)"/>
    <path class="cls-1" d="M65.63,107.08h8.31v-4.14H65.63Z" transform="translate(-21.97 -23.07)"/>
    <path class="cls-1" d="M65.63,117.58H74v-4.12H65.63Z" transform="translate(-21.97 -23.07)"/>
    <path class="cls-1" d="M65.63,128.09H74V124H65.63Z" transform="translate(-21.97 -23.07)"/>
    <path class="cls-1" d="M132.38,107.94a2.12,2.12,0,0,0-3.35,0l-12.48,12.49-.5.48-.16-.06-2.46-2.46a2.11,2.11,0,0,0-3.26,0l-5.94,5.94a2.13,2.13,0,0,0,0,3.36l10.12,10.11a2.11,2.11,0,0,0,3.3,0l20.7-20.7a2.11,2.11,0,0,0,0-3.26ZM116,133.36,108.65,126l3.25-3.24,2.43,2.45a2.12,2.12,0,0,0,3.35,0l12.47-12.48a5.19,5.19,0,0,0,.44-.58c1.21,1.22,2.29,2.3,3.32,3.32Z" transform="translate(-21.97 -23.07)"/>
  </g>
</svg>
