<svg id="图层_1" data-name="图层 1" xmlns="http://www.w3.org/2000/svg" width="42.36mm" height="44.54mm" viewBox="0 0 120.08 126.26">
  <defs>
    <style>
      .cls-1 {
        fill: #040000;
      }
    </style>
  </defs>
  <g>
    <path class="cls-1" d="M145.07,97.12c0-7.35,0-14.71-.13-22.06a7.6,7.6,0,0,0-3.38-6.17c-3.58-2.55-7.25-5-10.89-7.43q-19.95-13.55-39.9-27.08a10.26,10.26,0,0,0-5.23-2,.79.79,0,0,1-.5-.35c-1.24-2.12-2.56-4.21-3.68-6.39a4.67,4.67,0,0,0-6.56-2.24c-3,1.72-6.07,3.48-9.09,5.22q-9.54,5.51-19.06,11L28.32,50.19a4.39,4.39,0,0,0-2.2,5.25,17.15,17.15,0,0,0,1.58,3.07C29.11,61,30.55,63.44,32,65.9c.17.29.18.49-.15.69-.59.35-1.15.76-1.72,1.14a12.93,12.93,0,0,0-3.26,2.77,9.32,9.32,0,0,0-1.85,6V143a6.92,6.92,0,0,0,.16,1.64,5.58,5.58,0,0,0,5.64,4.4H139.32a5.59,5.59,0,0,0,2.91-.75,5.73,5.73,0,0,0,2.85-5.34Q145.08,120.06,145.07,97.12ZM30.29,55.23c-.71-1.22-.73-1.23.48-1.94L43.39,46l15-8.61,13.48-7.76L76.32,27c.82-.48,1.08-.41,1.56.41l9.85,17.06,5.07,8.76c.08.14.15.28.22.42A9.6,9.6,0,0,0,102.43,70L105,74.49l8,14.1c1.2,2.1,2.39,4.21,3.6,6.3.25.43,0,.53-.29.69l-6.76,4.6c-3.41,2.31-6.84,4.62-10.25,6.95a.62.62,0,0,1-.89,0,7.72,7.72,0,0,0-1.32-.87c-1.23-.6-1.7-1.81-2.32-2.89Q89.22,93.74,83.67,84.1c-.35-.6-.68-1.21-1-1.79a1.91,1.91,0,0,0-2.69-.76,1.94,1.94,0,0,0-.67,2.72c1.76,3.06,3.54,6.12,5.31,9.18,1.33,2.31,2.66,4.61,4,6.92,0,.06.06.13,0,.08-1.22-.19-2.47-.37-3.72-.58a.81.81,0,0,1-.44-.36q-3.48-6-7-12a14.49,14.49,0,0,0-1.22-2,1.86,1.86,0,0,0-2.57-.36,2,2,0,0,0-.55,2.61c1,1.68,1.93,3.34,2.9,5l4.72,8.16-2.62,1.74-1.49-2.58c-2.09-3.59-4.16-7.17-6.26-10.75a1.8,1.8,0,0,0-2.15-.95A1.92,1.92,0,0,0,67,91.25c.73,1.31,1.5,2.61,2.26,3.91l5.62,9.72c-.94.65-1.85,1.28-2.77,1.9s-1,.64-1.9,0L55.6,96.86a26,26,0,0,0,1.82-3.72,9.08,9.08,0,0,0-2.57-9.81,9.44,9.44,0,0,0-7.69-2.55c-.48,0-.95.24-1.43.29a.79.79,0,0,1-.63-.25c-2.76-4.74-5.49-9.5-8.24-14.25C34.67,62.79,32.49,59,30.29,55.23ZM141.11,83.51V136l-38.73-26.26ZM67.7,109.77,29,136V83.51Zm-36.5-38,3-2c.81,1.4,1.6,2.72,2.37,4.06q3.09,5.36,6.19,10.7a2,2,0,0,0,2.9.83,5.54,5.54,0,0,1,5.74.21,5.64,5.64,0,0,1,.75,9c-1.93-1.3-3.84-2.57-5.74-3.87q-7.59-5.14-15.18-10.32A5.13,5.13,0,0,1,31.2,71.73Zm108.15,73.41H85q-27.06,0-54.13,0a1.86,1.86,0,0,1-1.88-2.4,6.13,6.13,0,0,1,3.11-4.15q14.68-9.9,29.33-19.85l20.46-13.88a5.17,5.17,0,0,1,6.37,0L112.06,121q13.29,9,26.59,18a5.17,5.17,0,0,1,2.49,4.29A1.6,1.6,0,0,1,139.35,145.14Zm.09-65.34c-1.58,1.28-3.3,2.37-5,3.51q-7.12,4.84-14.25,9.66h-.16c-.38-.65-.8-1.33-1.19-2L110.24,75.8l-5.19-9.12a1.94,1.94,0,0,0-2.91-.87A5.65,5.65,0,0,1,95.27,57a8.08,8.08,0,0,1,1.28-1,2,2,0,0,0,.66-2.9c-.94-1.66-1.91-3.31-2.87-5l-6-10.4c0-.06,0-.13-.12-.38l3.08,2.1q22.65,15.36,45.29,30.72a21.36,21.36,0,0,1,3.3,2.5A4.91,4.91,0,0,1,139.44,79.8Z" transform="translate(-25 -22.82)"/>
    <path class="cls-1" d="M48.81,57.46c.53,0,1.06.09,1.58.14l4.19.47,3.83.4c1.33.15,2.66.32,4,.46s2.59.26,3.89.39l4.18.48c.9.09,1.79.17,2.68.27l4.18.49a2,2,0,0,0,2-2.75c-.41-1-1.29-1.14-2.22-1.22-1.3-.11-2.6-.25-3.89-.39l-4.06-.47-4-.39L61,54.87l-3.77-.41L53.14,54c-1.3-.14-2.61-.2-3.89-.42a2,2,0,1,0-.44,3.87Z" transform="translate(-25 -22.82)"/>
    <path class="cls-1" d="M65.91,53.12a6.28,6.28,0,1,0,0-12.56,6.28,6.28,0,1,0,0,12.56Zm0-8.7a2.39,2.39,0,1,1-2.41,2.39A2.34,2.34,0,0,1,65.94,44.42Z" transform="translate(-25 -22.82)"/>
    <path class="cls-1" d="M66.73,67.23a6.31,6.31,0,1,0-6.34,6.34A6.17,6.17,0,0,0,66.73,67.23Zm-8.7,0a2.4,2.4,0,0,1,4.8,0,2.4,2.4,0,0,1-2.45,2.41A2.37,2.37,0,0,1,58,67.23Z" transform="translate(-25 -22.82)"/>
    <path class="cls-1" d="M88.9,76.52a2,2,0,0,0-1.29,3c.64,1,1.22,2.1,1.83,3.16l5.11,8.87a1.92,1.92,0,0,0,2.21,1,2.14,2.14,0,0,0,1.59-1.91c-.21-.47-.38-1-.63-1.4-1-1.75-2-3.49-3-5.23L91,77.54A2,2,0,0,0,88.9,76.52Z" transform="translate(-25 -22.82)"/>
    <path class="cls-1" d="M78.35,70.74c-1,.55-2,1.15-2.95,1.7a1.95,1.95,0,0,0,2,3.35c1-.54,1.9-1.1,2.85-1.64a2,2,0,1,0-1.89-3.41Z" transform="translate(-25 -22.82)"/>
    <path class="cls-1" d="M63.22,79.69a5.92,5.92,0,0,0-.95.33c-1,.55-2,1.11-3,1.71a1.92,1.92,0,0,0,1.89,3.35c1.06-.56,2.09-1.17,3.12-1.79a1.9,1.9,0,0,0,.81-2.17A2,2,0,0,0,63.22,79.69Z" transform="translate(-25 -22.82)"/>
    <path class="cls-1" d="M85.51,71.11c1-.54,1.94-1.11,2.9-1.68a2,2,0,0,0,.9-2.26,2,2,0,0,0-1.93-1.4,5.45,5.45,0,0,0-1,.34c-1,.52-1.87,1.07-2.79,1.63a1.91,1.91,0,0,0-.77,2.67A1.94,1.94,0,0,0,85.51,71.11Z" transform="translate(-25 -22.82)"/>
    <path class="cls-1" d="M70.36,75.35c-1,.54-2,1.11-3,1.71a1.84,1.84,0,0,0-.9,2.13,2,2,0,0,0,1.89,1.52,5.13,5.13,0,0,0,1-.31c1-.53,2-1.07,2.92-1.65A1.93,1.93,0,0,0,73,76,1.86,1.86,0,0,0,70.36,75.35Z" transform="translate(-25 -22.82)"/>
  </g>
</svg>
