<svg id="图层_1" data-name="图层 1" xmlns="http://www.w3.org/2000/svg" width="44.32mm" height="44.46mm" viewBox="0 0 125.64 126.02">
  <defs>
    <style>
      .cls-1 {
        fill: #040000;
      }
    </style>
  </defs>
  <g>
    <path class="cls-1" d="M143.72,111a7.73,7.73,0,0,0-5.4-5.31c1.11-1.11,2.21-2.18,3.27-3.28a7.9,7.9,0,0,0,2.4-7,7.59,7.59,0,0,0-4.06-5.83,26,26,0,0,0-2.5-1c1-4.1-.25-7.3-3.89-9.56.16-.17.3-.33.45-.48,1.81-1.81,3.61-3.63,5.44-5.42a8.11,8.11,0,0,0-5.21-14.07c-.75,0-1.5.13-2.32.21V58.5q0-12.37,0-24.75a9.8,9.8,0,0,0-.15-1.88,10.53,10.53,0,0,0-10.49-8.79q-20.83,0-41.67,0a10.86,10.86,0,0,0-1.89.14,10.51,10.51,0,0,0-8.79,10.42c0,13.15,0,26.29,0,39.44v.76a12.19,12.19,0,0,0-1.41-.26,7.4,7.4,0,0,0-1.41,0,6.33,6.33,0,0,0-5.31,4.78c-.43,2-.74,4-1.1,6q-.77,4.2-1.54,8.4c-.46,2.53-.85,5.07-1.42,7.57a14.82,14.82,0,0,0,0,5.71c.28,1.68.5,3.37.75,5.06.2,1.39.42,2.78.59,4.18a7.6,7.6,0,0,1,.17,2.54c-1.07,4.66-2.28,9.28-3.38,13.93a5.3,5.3,0,0,1-1.54,2.68c-3.67,3.61-7.29,7.26-10.92,10.9a2,2,0,0,0-.72,2A2.09,2.09,0,0,0,44,149.08H91.67a2.73,2.73,0,0,0,2-.85c2.35-2.36,4.71-4.7,7-7.06a1.5,1.5,0,0,1,1.18-.51q9.46,0,18.91,0a13.92,13.92,0,0,0,2.65-.26,10.39,10.39,0,0,0,8.39-10c0-1.15.05-2.15,1.26-2.68.1,0,.16-.15.24-.22,2.82-2.82,5.69-5.58,8.43-8.47A7.68,7.68,0,0,0,143.72,111ZM136.1,92.77a3.66,3.66,0,0,1,3.57,2.42,3.84,3.84,0,0,1-.87,4.14q-4.12,4.14-8.26,8.26a3.74,3.74,0,0,1-4.34.82,3.8,3.8,0,0,1-2.29-3.8,3.52,3.52,0,0,1,1-2.27q4.26-4.29,8.55-8.54A3.36,3.36,0,0,1,136.1,92.77ZM131.9,65c0-1.19.38-1.63,1.55-1.8a3.93,3.93,0,0,1,3.36,6.58l-4.49,4.49c-.1.11-.21.2-.42.4V65Zm-1.07,17.37a3.76,3.76,0,0,1,2.72,2.86,5.55,5.55,0,0,1,.09.83,3.59,3.59,0,0,1-1.14,2.74l-8.44,8.43a3.77,3.77,0,0,1-4.3.73,3.9,3.9,0,0,1-1-6.32q4.09-4.11,8.2-8.2A3.77,3.77,0,0,1,130.83,82.41ZM119.31,44.83q0,19.89,0,39.77a1.39,1.39,0,0,1-.44,1.08c-1.27,1.27-2.55,2.52-3.74,3.86a8,8,0,0,0,.32,10.36,8.1,8.1,0,0,0,3.45,2.21.66.66,0,0,1,.38.48c0,2.87,0,5.73,0,8.64H81.54V44.1h37.77ZM94.87,141.17c-1.1,1.1-2.21,2.19-3.29,3.3a1.29,1.29,0,0,1-1,.43q-12.77,0-25.53,0H48.73c2.79-2.78,5.4-5.46,8.1-8a6.33,6.33,0,0,0,1.82-3.2c1.25-5.19,2.57-10.37,3.81-15.56a5.14,5.14,0,0,0,0-1.79c-.23-1.73-.49-3.46-.74-5.19s-.51-3.38-.76-5.07a19.88,19.88,0,0,1-.39-3A15.42,15.42,0,0,1,61,100.4c.46-2.53.92-5.05,1.37-7.58l1.5-8.28c.29-1.55.56-3.1.87-4.64A2.83,2.83,0,0,1,65.89,78a2,2,0,0,1,3,1.52c0,.31,0,.62,0,.92q0,24.78,0,49.55a10.62,10.62,0,0,0,10.53,10.71c5,0,10,0,15,0h.83C95.11,140.9,95,141,94.87,141.17Zm30.84-6.38a6.44,6.44,0,0,1-4.63,1.71q-20.94,0-41.88,0a6.32,6.32,0,0,1-6-5,8.33,8.33,0,0,1-.13-1.42V33.43a6.29,6.29,0,0,1,4.92-6,7.58,7.58,0,0,1,1.42-.13h42.07a6.23,6.23,0,0,1,6.06,5,7.74,7.74,0,0,1,.13,1.36q0,22,0,44v.8A9.07,9.07,0,0,0,123.5,81V42.38a2.21,2.21,0,0,0-2.52-2.5H79.83a2.21,2.21,0,0,0-2.53,2.49V113a2.2,2.2,0,0,0,2.47,2.49h41.28A2.19,2.19,0,0,0,123.5,113v-1.19l1.92.84-.47.51c-1.23,1.27-2.57,2.46-3.67,3.83a8,8,0,0,0,4.32,12.5c.67.16,1.36.23,2.1.36A6,6,0,0,1,125.71,134.79Zm13.07-18.63-8.25,8.25a3.77,3.77,0,0,1-4.34.8,3.81,3.81,0,0,1-2.28-3.81,3.48,3.48,0,0,1,1-2.27l8.57-8.57a3.3,3.3,0,0,1,2.59-1,3.73,3.73,0,0,1,3.6,2.39A4,4,0,0,1,138.78,116.16Z" transform="translate(-18.48 -23.07)"/>
    <path class="cls-1" d="M49.21,68a2,2,0,0,1,1.07,0c4,1.1,7.91,2.23,11.87,3.33a2,2,0,0,0,2.43-2.46q-1.52-4.75-3.13-9.48a1.89,1.89,0,0,1,.16-1.74,22.26,22.26,0,0,0,2.94-9A20.92,20.92,0,0,0,64.28,42,23.05,23.05,0,0,0,37.14,23.6a22.29,22.29,0,0,0-13.63,8.3c-3.34,4.19-4.88,9-5,14.91.12.91.26,2.43.54,3.92a22.1,22.1,0,0,0,8.71,13.88,22.35,22.35,0,0,0,15.6,4.55A26.68,26.68,0,0,0,49.21,68ZM40,65.06a19,19,0,0,1-17-15,18.38,18.38,0,0,1,3.34-15.24,18.24,18.24,0,0,1,11.27-7.26,18.44,18.44,0,0,1,15.55,3.58,18.23,18.23,0,0,1,7,11.43,18.42,18.42,0,0,1-2.77,13.91,2.88,2.88,0,0,0-.36,2.75c.8,2.24,1.51,4.51,2.31,6.94l-2.83-.81c-2.12-.6-4.22-1.22-6.35-1.76a2.78,2.78,0,0,0-1.56.14A19.24,19.24,0,0,1,40,65.06Z" transform="translate(-18.48 -23.07)"/>
    <path class="cls-1" d="M100.42,60.87c.69,0,1.34,0,2,0a12.33,12.33,0,0,0,1.6-.23,6.21,6.21,0,0,0,4.67-7,6,6,0,0,0-3.82-4.84,7.89,7.89,0,0,0-2.59-.5c-2-.07-4,0-6,0V67.13h4.18Zm0-8.39a22.9,22.9,0,0,1,2.49,0,2.11,2.11,0,0,1,1.69,2.35,2.17,2.17,0,0,1-2,1.83h-2.2Z" transform="translate(-18.48 -23.07)"/>
    <path class="cls-1" d="M96.83,84.47a.56.56,0,0,1,.67-.5c1.93,0,3.85,0,5.78,0a.61.61,0,0,1,.71.54c.21.74.5,1.46.75,2.2l3.93-1.31c-1.52-4.56-3-9-4.47-13.45-.13-.4-.28-.59-.76-.59-2,0-4.07,0-6.1,0a.64.64,0,0,0-.72.54c-1.48,4.47-3,9-4.48,13.49l3.94,1.3C96.35,85.9,96.62,85.2,96.83,84.47Zm3-8.87H101c.45,1.36.91,2.72,1.38,4.14h-4C98.87,78.33,99.33,77,99.78,75.6Z" transform="translate(-18.48 -23.07)"/>
    <path class="cls-1" d="M100.4,95.21l-4.62-6.15-3.32,2.49c1.64,2.19,3.21,4.34,4.85,6.44a3.94,3.94,0,0,1,1,3c-.11,1.1,0,2.22,0,3.34v2.77h4.2v-.76c0-2.16,0-4.33,0-6.49a1.23,1.23,0,0,1,.15-.67c.79-1.09,1.61-2.15,2.42-3.23l3.27-4.35L105,89.06Z" transform="translate(-18.48 -23.07)"/>
    <path class="cls-1" d="M100.41,119.71a6.28,6.28,0,0,0,0,12.55,6.28,6.28,0,1,0,0-12.55Zm0,8.38A2.11,2.11,0,1,1,102.5,126,2.06,2.06,0,0,1,100.39,128.09Z" transform="translate(-18.48 -23.07)"/>
    <path class="cls-1" d="M113,31.52H96.26v4.12H113Z" transform="translate(-18.48 -23.07)"/>
    <path class="cls-1" d="M92,31.51H87.85v4.14H92Z" transform="translate(-18.48 -23.07)"/>
    <path class="cls-1" d="M51.91,49a6.31,6.31,0,0,0-6.32-4.88H37.45a2.11,2.11,0,1,1,0-4.21h12.5V35.65H43.67V31.51H39.51v4.1c-1.09.07-2.1.08-3.08.2a6.2,6.2,0,0,0-5.12,7.64,6.29,6.29,0,0,0,6.28,4.82h8.07a2.12,2.12,0,0,1,2.25,2.09,2.29,2.29,0,0,1-2.23,2.14c-3.91-.06-7.83,0-11.74,0h-.69v4.19h6.26v4.17H43.7v-4.1c1.07-.07,2.07-.08,3.06-.2A6.22,6.22,0,0,0,51.91,49Z" transform="translate(-18.48 -23.07)"/>
  </g>
</svg>
