<svg id="图层_1" data-name="图层 1" xmlns="http://www.w3.org/2000/svg" xmlns:xlink="http://www.w3.org/1999/xlink" width="34.53mm" height="7.21mm" viewBox="0 0 97.87 20.42">
  <defs>
    <style>
      .cls-1 {
        fill: none;
      }

      .cls-2 {
        clip-path: url(#clip-path);
      }

      .cls-3 {
        fill: #b2fce4;
      }
    </style>
    <clipPath id="clip-path" transform="translate(0 0)">
      <rect class="cls-1" width="97.87" height="20.42"/>
    </clipPath>
  </defs>
  <g class="cls-2">
    <path class="cls-3" d="M88,20.41H10.66A10.21,10.21,0,0,1,9.76,0H88a10.21,10.21,0,0,1,0,20.41h0Z" transform="translate(0 0)"/>
    <path d="M83.28,6.15,81.15,4.91,79,3.67a2.15,2.15,0,0,0-3.23,1.86v.28a.4.4,0,0,0,.22.37l1,.57a.41.41,0,0,0,.61-.36V5.73a.43.43,0,0,1,.64-.37l2,1.14,2,1.12a.42.42,0,0,1,0,.74l-2,1.13-2,1.13a.42.42,0,0,1-.58-.14.46.46,0,0,1-.06-.23V9.93a2.16,2.16,0,0,0-2.17-2.14,2.13,2.13,0,0,0-1,.28L72.23,9.3l-2.14,1.23a2.15,2.15,0,0,0,0,3.72l2.13,1.22,2.16,1.25a2.16,2.16,0,0,0,3.23-1.86v-.3a.43.43,0,0,0-.22-.36l-1-.57a.44.44,0,0,0-.58.16.49.49,0,0,0,0,.2v.66a.43.43,0,0,1-.64.37l-2-1.13-2-1.13a.42.42,0,0,1-.16-.57A.52.52,0,0,1,71.2,12l2-1.12,2-1.14a.43.43,0,0,1,.64.37v.33a2.16,2.16,0,0,0,2.16,2.15A2.1,2.1,0,0,0,79,12.32l2.16-1.24,2.13-1.22a2.17,2.17,0,0,0,0-3.73Z" transform="translate(0 0)"/>
    <polyline points="69.28 6.56 64.28 16.88 62.21 16.88 64.08 13.03 61.14 6.56 63.27 6.56 65.16 10.89 67.22 6.56 69.28 6.56"/>
    <path d="M19.33,10.2a2,2,0,1,0-4,0,2,2,0,1,0,4,0m0,3.67v-1A2.94,2.94,0,0,1,17,14a3.57,3.57,0,0,1-3.53-3.78,3.64,3.64,0,0,1,3.58-3.79,2.89,2.89,0,0,1,2.26,1.06V6.56h1.8v7.33Z" transform="translate(0 0)"/>
    <path d="M29.92,12.26c-.64,0-.83-.24-.83-.85V8.14h1.18V6.56H29.09V4.77H27.25V6.56H24.87V5.83c0-.62.23-.85.88-.85h.41V3.56h-.88c-1.53,0-2.25.49-2.25,2v1H22V8.14h1v5.74h1.84V8.14h2.38v3.59c0,1.5.59,2.15,2.07,2.15h.95V12.26h-.35Z" transform="translate(0 0)"/>
    <path d="M36.53,9.56A1.76,1.76,0,0,0,34.71,8a1.79,1.79,0,0,0-1.84,1.52Zm-3.67,1.13a1.83,1.83,0,0,0,1.89,1.71,1.93,1.93,0,0,0,1.72-1h1.9A3.6,3.6,0,0,1,34.71,14a3.6,3.6,0,0,1-3.77-3.43,1.93,1.93,0,0,1,0-.34A3.7,3.7,0,0,1,34.52,6.4h.24a3.67,3.67,0,0,1,3.72,4.29H32.86" transform="translate(0 0)"/>
    <path d="M50.25,10.2a2,2,0,1,0-4,0,2,2,0,1,0,4,0m-5.8,6.66V6.56h1.8v1a2.9,2.9,0,0,1,2.32-1.08,3.59,3.59,0,0,1,3.52,3.77A3.62,3.62,0,0,1,48.52,14a2.86,2.86,0,0,1-2.22-1v3.86H44.45Z" transform="translate(0 0)"/>
    <path d="M58.59,10.2a2,2,0,0,0-2-2.08,2,2,0,0,0-2,2.1,2,2,0,0,0,2,2.1,2,2,0,0,0,2-2.1m0,3.67v-1A2.94,2.94,0,0,1,56.3,14a3.57,3.57,0,0,1-3.53-3.78,3.64,3.64,0,0,1,3.57-3.79,2.91,2.91,0,0,1,2.27,1.06V6.56h1.8v7.33Z" transform="translate(0 0)"/>
    <path d="M41.2,7.26a1.82,1.82,0,0,1,1.58-.84,1.72,1.72,0,0,1,.79.17V8.45a2.38,2.38,0,0,0-1.3-.33,1.3,1.3,0,0,0-1,1.42v4.34H39.39V6.56H41.2v.71Z" transform="translate(0 0)"/>
  </g>
</svg>
