<?xml version="1.0" encoding="utf-8"?>
<!-- Generator: Adobe Illustrator 28.0.0, SVG Export Plug-In . SVG Version: 6.00 Build 0)  -->
<svg version="1.1" id="图层_1" xmlns="http://www.w3.org/2000/svg" xmlns:xlink="http://www.w3.org/1999/xlink" x="0px" y="0px"
	 viewBox="0 0 55 55" style="enable-background:new 0 0 55 55;" xml:space="preserve">
<style type="text/css">
	.st0{fill:none;stroke:#000000;stroke-miterlimit:10;}
	.st1{fill:#040000;}
</style>
<g>
	<circle class="st0" cx="27.5" cy="27.5" r="26.5"/>
	<g>
		<rect x="11.6" y="27.4" class="st1" width="8.7" height="1"/>
		<rect x="11.6" y="20.7" class="st1" width="8.7" height="1"/>
		<rect x="11.6" y="24.1" class="st1" width="8.7" height="1"/>
		<path class="st1" d="M43.4,26.7c0-1-0.7-1.8-1.6-1.8h-2.3l-2.7-5h-6.7v-2.9l-18.5,0l0,1.2l17.3,0v14.1l-3.9,0
			c-0.6-1.5-2.1-2.6-3.8-2.6c-1.7,0-3.2,1.1-3.8,2.6h-5.8v1.2h5.6c0,0.1,0,0.2,0,0.3c0,2.2,1.8,4.1,4.1,4.1c2.2,0,4.1-1.8,4.1-4.1
			c0-0.1,0-0.2,0-0.3l4.5,0v0l3.3,0c0,0,0,0.1,0,0.1c0,2.2,1.8,4.1,4.1,4.1c2.2,0,4.1-1.8,4.1-4.1c0-0.1,0-0.1,0-0.2l2.3,0V26.7z
			 M21.2,36.7c-1.6,0-2.9-1.3-2.9-2.9c0-1.6,1.3-2.9,2.9-2.9c1.6,0,2.9,1.3,2.9,2.9C24,35.5,22.8,36.7,21.2,36.7z M34.7,21.1
			L34.7,21.1l1.4,0l2,3.8l-0.4,0h-0.5v0l-2.5,0.1V21.1z M37.1,36.6c-1.6,0-2.9-1.3-2.9-2.9c0-1.6,1.3-2.9,2.9-2.9
			c1.6,0,2.9,1.3,2.9,2.9C39.9,35.3,38.6,36.6,37.1,36.6z M42.3,32.4l-1.4,0c-0.5-1.6-2-2.8-3.8-2.8c-1.8,0-3.3,1.2-3.8,2.7l-3.2,0
			V21.1h3.4v5.1l5.9-0.2h2.4c0.3,0,0.5,0.3,0.5,0.6V32.4z"/>
	</g>
</g>
</svg>
