<?xml version="1.0" encoding="utf-8"?>
<!-- Generator: Adobe Illustrator 28.0.0, SVG Export Plug-In . SVG Version: 6.00 Build 0)  -->
<svg version="1.1" id="图层_1" xmlns="http://www.w3.org/2000/svg" xmlns:xlink="http://www.w3.org/1999/xlink" x="0px" y="0px"
	 viewBox="0 0 55 55" style="enable-background:new 0 0 55 55;" xml:space="preserve">
<style type="text/css">
	.st0{fill:none;stroke:#000000;stroke-miterlimit:10;}
	.st1{fill:#040000;}
</style>
<g>
	<circle class="st0" cx="27.5" cy="27.5" r="26.5"/>
	<g>
		<path class="st1" d="M36.7,21.5h-0.6c-1.9,0-3.5-1.6-3.5-3.5l0-0.4l-0.4-0.1c-0.1,0-2-0.4-4.9-0.4c-3,0-4.9,0.3-4.9,0.4l-0.4,0.1
			l0,0.4c0,1.9-1.6,3.5-3.6,3.5h0l-0.6,0l0.1,0.6c0.2,1.5,0.4,3.8,0.7,6.8c0.6,5.7,8.2,8.8,8.6,8.9l0.4,0l0.1,0
			c0.3-0.1,8-3.2,8.6-8.9c0.3-3,0.5-5.4,0.7-6.8L36.7,21.5z M35,28.8c-0.5,4.7-6.8,7.6-7.8,8c-1-0.4-7.3-3.3-7.8-8
			c-0.3-2.7-0.5-4.8-0.6-6.3c2.1-0.2,3.8-1.9,4.1-4c0.7-0.1,2.3-0.3,4.4-0.3c2.1,0,3.7,0.2,4.4,0.3c0.2,2.1,1.9,3.8,4.1,4
			C35.5,23.9,35.3,26.1,35,28.8z"/>
		<path class="st1" d="M30.3,22.3l0-0.4l-0.4-0.1c0,0-1.1-0.2-2.7-0.2v0c0,0,0,0,0,0c0,0,0,0,0,0v0c-1.6,0-2.6,0.2-2.7,0.2l-0.4,0.1
			l0,0.4c0,0.9-0.8,1.7-1.7,1.7h-0.6l0,0.6c0.1,0.8,0.2,2.1,0.4,3.7c0.3,3,4,4.7,4.7,5c0,0,0.1,0,0.1,0l0,0l0.1,0.1l0,0l0.2-0.1l0,0
			c0.2-0.1,4.4-1.8,4.8-5c0.2-1.7,0.3-2.9,0.4-3.7l0-0.6h-0.6C31,24,30.3,23.3,30.3,22.3z M31.1,28.2c-0.2,2.3-3.2,3.8-3.9,4.1
			c-0.8-0.3-3.7-1.8-3.9-4.1c-0.1-1.3-0.2-2.4-0.3-3.2c1.1-0.2,2-1.1,2.1-2.2c0.4-0.1,1.2-0.1,2.1-0.1c1,0,1.7,0.1,2.1,0.1
			c0.2,1.1,1,2,2.1,2.2C31.4,25.8,31.2,26.8,31.1,28.2z"/>
	</g>
</g>
</svg>
