<?xml version="1.0" encoding="utf-8"?>
<!-- Generator: Adobe Illustrator 28.0.0, SVG Export Plug-In . SVG Version: 6.00 Build 0)  -->
<svg version="1.1" id="图层_1" xmlns="http://www.w3.org/2000/svg" xmlns:xlink="http://www.w3.org/1999/xlink" x="0px" y="0px"
	 viewBox="0 0 55 55" style="enable-background:new 0 0 55 55;" xml:space="preserve">
<style type="text/css">
	.st0{fill:none;stroke:#000000;stroke-miterlimit:10;}
	.st1{fill:none;}
	.st2{fill:none;stroke:#040000;}
	.st3{fill:#080103;}
</style>
<g>
	<g>
		<circle class="st0" cx="27.5" cy="27.5" r="26.5"/>
	</g>
	<g>
		<path class="st1" d="M34,31.5c2.2,0,3.9-1.8,3.9-3.9s-1.8-3.9-3.9-3.9"/>
		<path class="st2" d="M34,31.5L34,31.5c2.2,0,3.9-1.8,3.9-3.9s-1.8-3.9-3.9-3.9"/>
		<path class="st1" d="M22.1,23.6c-2.2,0-3.9,1.8-3.9,3.9s1.8,3.9,3.9,3.9"/>
		<path class="st2" d="M22.1,23.6c-2.2,0-3.9,1.8-3.9,3.9s1.8,3.9,3.9,3.9l0,0"/>
		<path class="st2" d="M22.1,31.5v-0.2V30v-2.5v-3.9c0-3.3,2.7-5.9,5.9-5.9s5.9,2.7,5.9,5.9v7.9c0,3.3-2.7,5.9-5.9,5.9"/>
		<path class="st3" d="M22.7,32c-0.2,0-0.3,0-0.5,0c-0.2,0-0.3,0-0.4,0c0-0.3,0-0.6,0-0.8c0.3,0,0.6,0,0.9,0
			C22.6,31.4,22.7,31.7,22.7,32z"/>
	</g>
</g>
</svg>
