<svg width="93" height="80" viewBox="0 0 93 80" fill="none" xmlns="http://www.w3.org/2000/svg">
<path d="M66.95 26.525C68.0157 26.525 68.875 25.6656 68.875 24.6C68.875 23.5344 68.0157 22.675 66.95 22.675H59.25C58.1844 22.675 57.325 23.5344 57.325 24.6C57.325 25.6656 58.1844 26.525 59.25 26.525H66.95ZM16.9 11.125H32.3C33.3657 11.125 34.225 10.2657 34.225 9.20003C34.225 8.1344 33.3657 7.27502 32.3 7.27502H16.9C15.8344 7.27502 14.975 8.1344 14.975 9.20003C14.975 10.2657 15.8344 11.125 16.9 11.125ZM28.45 59.25C36.9579 59.25 43.85 52.3578 43.85 43.85C43.85 35.3422 36.9579 28.45 28.45 28.45C19.9422 28.45 13.05 35.3422 13.05 43.85C13.05 52.3578 19.9422 59.25 28.45 59.25ZM28.45 32.3C34.818 32.3 40 37.4821 40 43.85C40 50.218 34.818 55.4 28.45 55.4C22.0821 55.4 16.9 50.218 16.9 43.85C16.9 37.4821 22.0821 32.3 28.45 32.3Z" fill="#3F3636"/>
<path d="M66.95 14.975H34.225C33.1594 14.975 32.3 15.8344 32.3 16.9C32.3 17.9656 33.1594 18.825 34.225 18.825H66.95C71.2039 18.825 74.65 22.2711 74.65 26.525V61.175C74.65 65.4289 71.2039 68.875 66.95 68.875H13.05C8.79609 68.875 5.35 65.4289 5.35 61.175V26.525C5.35 22.2711 8.79609 18.825 13.05 18.825H14.975C16.0406 18.825 16.9 17.9656 16.9 16.9C16.9 15.8344 16.0406 14.975 14.975 14.975H13.05C6.69922 14.975 1.5 20.1742 1.5 26.525V61.175C1.5 67.5258 6.69922 72.725 13.05 72.725H66.95C73.3008 72.725 78.5 67.5258 78.5 61.175V26.525C78.5 20.1742 73.3008 14.975 66.95 14.975Z" fill="#3F3636"/>
</svg>
