<svg xmlns="http://www.w3.org/2000/svg" width="11.02mm" height="11.02mm" viewBox="0 0 31.23 31.23">
  <path
    d="M15.61,7.6a8,8,0,1,0,8,8A8,8,0,0,0,15.61,7.6Zm0,13.22a5.21,5.21,0,1,1,5.21-5.21A5.22,5.22,0,0,1,15.61,20.82ZM24,5.41a1.87,1.87,0,1,0,1.87,1.87A1.87,1.87,0,0,0,24,5.41Z"
    fill="#3f3636" />
  <path
    d="M31.23,15.61c0-2.15,0-4.29-.1-6.44a9.33,9.33,0,0,0-2.52-6.55A9.3,9.3,0,0,0,22.06.1C19.9,0,17.77,0,15.61,0S11.32,0,9.17.1A9.28,9.28,0,0,0,2.62,2.62,9.28,9.28,0,0,0,.1,9.17C0,11.33,0,13.46,0,15.61s0,4.3.1,6.45a9.28,9.28,0,0,0,2.52,6.55,9.28,9.28,0,0,0,6.55,2.52c2.16.12,4.29.1,6.44.1s4.3,0,6.45-.1a9.33,9.33,0,0,0,6.55-2.52,9.3,9.3,0,0,0,2.52-6.55C31.25,19.91,31.23,17.77,31.23,15.61Zm-3.44,9.22a5.35,5.35,0,0,1-3,3c-2.05.82-6.93.64-9.21.64s-7.16.18-9.21-.63a4.91,4.91,0,0,1-1.79-1.18,5,5,0,0,1-1.18-1.79c-.82-2.06-.63-6.94-.63-9.22s-.19-7.16.63-9.21A5,5,0,0,1,4.61,4.61,5,5,0,0,1,6.4,3.43c2-.81,6.93-.63,9.21-.63s7.16-.18,9.22.63a5,5,0,0,1,1.78,1.18A4.82,4.82,0,0,1,27.79,6.4c.82,2,.63,6.94.63,9.21S28.61,22.77,27.79,24.83Z"
    fill="#3f3636" />
</svg>