<svg id="隔离模式" xmlns="http://www.w3.org/2000/svg" width="89.42" height="19.71" viewBox="0 0 89.42 19.71">
  <g>
    <rect x="38.74" y="6.26" width="5.12" height="12.86"/>
    <rect x="29.21" width="5.12" height="19.13"/>
    <rect x="38.74" width="5.12" height="3.73"/>
    <polygon points="68.42 1.25 68.42 1.14 62.45 1.14 53.34 8.11 53.34 0 48.34 0 48.34 19.13 53.34 19.13 53.34 10.62 63.3 19.13 68.77 19.13 68.77 19.01 57.73 9.33 68.42 1.25"/>
    <path d="M17.66,2.36H19.5v9.72a5.13,5.13,0,0,1-5.37,5,5.13,5.13,0,0,1-5.37-5V0H0L1.67,2.36H3.52v9.55c0,5.58,5.52,7.81,10.61,7.79s10.61-2.21,10.61-7.79V0H16Z"/>
    <path d="M86.53,3.4A10.93,10.93,0,0,0,78.83.61a12.15,12.15,0,0,0-8.36,3.06,8.75,8.75,0,0,0-2.71,6.49,8.8,8.8,0,0,0,3.55,7.23,11.59,11.59,0,0,0,7.63,2.31h0a16.25,16.25,0,0,0,2.6-.18c4-.67,6.53-2.86,7.48-5.25l-4.35,0C84,15.52,82,16.9,78.88,16.9a5.87,5.87,0,0,1-6-5.55H89.4A10,10,0,0,0,86.53,3.4ZM73,8.49l0-.2a5.79,5.79,0,0,1,11.48,0v.2Z"/>
  </g>
</svg>
