<?xml version="1.0" encoding="utf-8"?>
<!-- Generator: Adobe Illustrator 28.0.0, SVG Export Plug-In . SVG Version: 6.00 Build 0)  -->
<svg version="1.1" id="图层_1" xmlns="http://www.w3.org/2000/svg" xmlns:xlink="http://www.w3.org/1999/xlink" x="0px" y="0px"
	 viewBox="0 0 100.9 100.1" style="enable-background:new 0 0 100.9 100.1;" xml:space="preserve">
<g>
	<path d="M97.6,52.6c-1.5-1.5-3-3-4.5-4.5c-0.6-0.6-1.4-0.6-2,0c-1.5,1.5-3,3-4.5,4.5c-0.4,0.4-0.5,0.8-0.4,1.3
		c0.3,1.2,1.6,1.6,2.5,0.7c0.6-0.6,1.2-1.2,1.7-1.8c0,0,0.1,0.1,0.1,0.1c-0.7,10.1-4.6,18.8-11.8,26c0-0.2,0-0.4,0-0.5
		c0-11.2,0-22.4,0-33.6c0-0.3-0.1-0.7-0.3-1c-1.4-2.4-2.8-4.7-4.2-7c-0.4-0.6-0.8-0.9-1.6-0.9c-14.7,0-29.3,0-44,0
		c-0.8,0-1.3,0.3-1.7,1c-1.4,2.3-2.8,4.6-4.2,7c-0.2,0.3-0.3,0.7-0.3,1.1c0,11.2,0,22.4,0,33.7c0,0.2,0,0.3,0,0.5
		c-0.8-0.7-1.4-1.4-2-2.1c-3.2-3.7-5.7-7.8-7.4-12.4c-0.5-1.3-0.8-2.6-1.3-3.9c-0.2-0.8-1-1.2-1.7-1c-0.8,0.2-1.3,0.9-1.1,1.8
		c0.7,2.7,1.6,5.4,2.9,7.9c3.2,6.6,7.7,12,13.7,16.3c7.3,5.2,15.4,7.9,24.3,8.1c3.3,0.1,6.7-0.3,9.9-1c9.5-2.1,17.4-7,23.8-14.4
		c3.6-4.3,6.2-9.1,8-14.4c0.9-2.8,1.5-5.6,1.8-8.6c0.1-0.8,0.2-1.6,0.2-2.5c0.1,0.1,0.3,0.2,0.4,0.3c0.5,0.5,1.1,1.1,1.6,1.6
		c0.6,0.6,1.5,0.6,2.1,0C98.2,54.1,98.2,53.2,97.6,52.6z M57.4,38.8c4.7,0,9.4,0,14.2,0c0.4,0,0.6,0.1,0.8,0.4
		c0.7,1.2,1.4,2.3,2.1,3.5c0.1,0.2,0.2,0.3,0.3,0.5c-5.7,0-11.3,0-16.9,0c-0.3-1.5-0.6-2.9-0.9-4.4C57.1,38.8,57.3,38.8,57.4,38.8z
		 M47,40.9c0.1-0.6,0.2-1.2,0.3-1.8c0-0.3,0.1-0.4,0.5-0.4c1.9,0,3.9,0,5.8,0c0.1,0,0.4,0.1,0.4,0.2c0.3,1.3,0.5,2.6,0.8,4
		c0,0.1,0,0.1,0,0.2c-2.7,0-5.4,0-8.2,0C46.7,42.4,46.8,41.7,47,40.9z M46.2,46.2c2.9,0,5.9,0,8.8,0c0,1.8,0,3.6,0,5.5
		c-1-0.2-2-0.5-2.9-0.7c-0.5-0.1-1-0.3-1.4-0.3c-0.5,0-1,0.2-1.6,0.3c-1,0.2-1.9,0.5-2.9,0.7C46.2,49.8,46.2,48.1,46.2,46.2z
		 M26.8,42.8c0.7-1.2,1.5-2.5,2.2-3.7c0.1-0.1,0.3-0.3,0.5-0.3c4.9,0,9.7,0,14.6,0c0,0,0.1,0,0.2,0c-0.3,1.5-0.6,2.9-0.9,4.4
		c-5.7,0-11.2,0-16.9,0C26.7,43,26.8,42.9,26.8,42.8z M75.5,82c-4.9,3.8-10.3,6.4-16.4,7.8c-3.3,0.7-6.7,1.1-10.1,0.9
		c-8.3-0.4-15.9-3.1-22.6-8.1c-0.8-0.6-1-1.1-1-2.1c0-11.2,0-22.4,0-33.6c0-0.2,0-0.4,0-0.6c5.9,0,11.8,0,17.8,0c0,2.5,0,4.9,0,7.3
		c0,0.8,0.4,1.3,1.2,1.5c0.2,0,0.4,0.1,0.6,0c1.7-0.4,3.4-0.8,5.1-1.3c0.7-0.2,1.4,0.1,2.1,0.3c1.4,0.3,2.7,0.7,4,1
		c0.9,0.2,1.8-0.5,1.8-1.5c0-2.3,0-4.6,0-6.9c0-0.2,0-0.3,0-0.5c5.9,0,11.8,0,17.8,0c0,0.2,0,0.3,0,0.5c0,11.5,0,23.1,0,34.6
		C75.8,81.6,75.8,81.8,75.5,82z"/>
	<path d="M10.1,50.3c1.5-1.5,3-3,4.5-4.5c0.4-0.4,0.5-0.8,0.4-1.3c-0.3-1.2-1.6-1.6-2.5-0.7c-0.6,0.5-1.1,1.1-1.6,1.7
		c0,0-0.1,0-0.1-0.1c0.1-0.5,0.1-1,0.2-1.5c0.3-2.5,0.9-5,1.7-7.5c2.7-8,7.5-14.4,14.3-19.4c5.8-4.3,12.3-6.8,19.5-7.6
		c2.2-0.2,4.4-0.3,6.6-0.1c2.2,0.1,4.4,0.4,6.6,0.9c8.4,2,15.5,6.2,21.2,12.7c3.2,3.7,5.7,7.8,7.4,12.4c0.5,1.3,0.8,2.6,1.3,3.9
		c0.2,0.8,1,1.2,1.7,1c0.8-0.2,1.3-0.9,1-1.8c-0.9-3.5-2.2-6.8-4-10c-2.7-4.8-6.1-9-10.4-12.5c-3.5-2.8-7.3-5.1-11.5-6.7
		C62.3,7.6,58,6.6,53.6,6.3c-1.7-0.1-3.5-0.1-5.2,0c-2.1,0.1-4.2,0.4-6.3,0.8c-4.4,0.8-8.5,2.4-12.4,4.6c-5.3,3-9.8,6.9-13.5,11.8
		c-4.9,6.6-7.7,14-8.4,22.3c-0.2-0.1-0.3-0.2-0.4-0.3c-0.6-0.6-1.1-1.1-1.7-1.7c-0.6-0.6-1.5-0.6-2.1,0c-0.6,0.6-0.6,1.5,0,2.1
		c1.5,1.5,3,3,4.5,4.5C8.7,50.8,9.6,50.8,10.1,50.3z"/>
	<path d="M37.5,66.9c8.8,0,17.5,0,26.3,0c0.1,0,0.2,0,0.3,0c1.1-0.1,1.7-1.2,1.2-2.1C65,64.2,64.5,64,63.8,64c-4.4,0-8.8,0-13.2,0
		c-4.2,0-8.4,0-12.6,0c-0.3,0-0.5,0-0.8,0c-1.1,0.1-1.8,1.1-1.3,2.1C36.3,66.7,36.8,66.9,37.5,66.9z"/>
	<path d="M63.9,69.9c-4.4,0-8.9,0-13.3,0c-1.5,0-3.1,0-4.6,0c-2.9,0-5.8,0-8.7,0c-1.1,0-1.8,1-1.4,2c0.3,0.7,0.9,0.9,1.6,0.9
		c6.2,0,12.5,0,18.7,0c2.5,0,5,0,7.5,0c0.5,0,1-0.1,1.3-0.6c0.4-0.5,0.5-1,0.2-1.6C65,70.2,64.6,69.9,63.9,69.9z"/>
	<path d="M56.5,75.8c-0.2,0-0.5,0-0.7,0c-3.7,0-7.3,0-11,0c-1.1,0-1.8,1-1.5,2c0.2,0.6,0.8,1,1.5,1c1.9,0,3.9,0,5.8,0
		c1.9,0,3.9,0,5.8,0c0.9,0,1.6-0.7,1.6-1.5C58,76.5,57.4,75.8,56.5,75.8z"/>
</g>
</svg>
