<?xml version="1.0" encoding="utf-8"?>
<!-- Generator: Adobe Illustrator 28.0.0, SVG Export Plug-In . SVG Version: 6.00 Build 0)  -->
<svg version="1.1" id="图层_1" xmlns="http://www.w3.org/2000/svg" xmlns:xlink="http://www.w3.org/1999/xlink" x="0px" y="0px"
	 viewBox="0 0 100.9 100.1" style="enable-background:new 0 0 100.9 100.1;" xml:space="preserve">
<g>
	<path d="M92.3,14.7c-0.4-2.7-1.7-4.9-3.8-6.5c-1.7-1.3-3.6-2-5.7-2c-19.3,0-38.7,0-58,0c-0.6,0-1.1,0.1-1.7,0.2
		c-4.4,0.9-7.8,5.1-7.8,9.6c0,25.3,0,50.6,0,75.9c0,0.8,0.8,1.6,1.6,1.6c9.4,0,18.8,0,28.2,0c11.9,0,23.9,0,35.8,0
		c0.2,0,0.4,0,0.5,0c0.7-0.3,1.1-0.9,1.1-1.7c0-24,0-48,0-72c0-0.2,0-0.4,0-0.6c0.2,0,0.4,0,0.5,0c2.6,0,5.3,0,7.9,0
		c0.8,0,1.4-0.5,1.4-1.2C92.4,16.9,92.5,15.8,92.3,14.7z M79.9,90.8c-20.6,0-41.3,0-61.9,0c0-0.2,0-0.3,0-0.5c0-24.7,0-49.3,0-74
		c0-3.6,2.4-6.8,6.1-7.5c3.9-0.7,7.6,1.7,8.5,5.5c0.2,1,0.2,2.1,0.3,3.2c0,1.2,0.5,1.6,1.7,1.6c15,0,29.9,0,44.9,0
		c0.2,0,0.4,0,0.6,0C79.9,43.1,79.9,67,79.9,90.8z M89.8,16.5c-18.1,0-36.2,0-54.4,0c0-1.5-0.2-2.9-0.8-4.2C34,11,33.2,9.9,32.1,8.8
		c0.2,0,0.4,0,0.5,0c16.6,0,33.2,0,49.9,0c3.3,0,6.4,2.5,7.1,5.7c0.1,0.3,0.1,0.7,0.2,1C89.8,15.8,89.8,16.2,89.8,16.5z"/>
	<path d="M63.1,59.1c-7.5,0.1-13.9,6.4-13.5,14.4c0.4,7,6.2,12.9,13.7,12.9c7.6,0,14-6.3,13.6-14.3C76.6,65.1,70.7,59.1,63.1,59.1z
		 M63.2,83.8c-6.2,0-11-4.9-11-11.1c0-6.3,5.2-11.2,11.4-11c5.8,0.2,10.7,5,10.7,11C74.3,78.7,69.5,83.8,63.2,83.8z"/>
	<path d="M71.5,50.1c0.7-0.1,1.3-0.8,1.1-1.5c-0.2-0.7-0.7-1.1-1.5-1.1c-15.5,0-30.9,0-46.4,0c-0.1,0-0.2,0-0.3,0
		c-0.3,0.2-0.7,0.3-1,0.5c-0.4,0.4-0.4,0.9-0.2,1.4c0.2,0.5,0.7,0.7,1.2,0.7c7.8,0,15.6,0,23.4,0c7.7,0,15.4,0,23.2,0
		C71.3,50.1,71.4,50.1,71.5,50.1z"/>
	<path d="M30.7,40.2c-2.1,0-4.1,0-6.2,0c-0.7,0-1.3,0.6-1.3,1.3c0,0.8,0.6,1.3,1.6,1.3c4.6,0,9.1,0,13.7,0c7.9,0,15.9,0,23.8,0
		c0.9,0,1.7,0,2.6,0c0.6,0,1-0.5,1.1-1c0.1-0.6-0.1-1.2-0.7-1.4c-0.3-0.1-0.6-0.2-0.9-0.2c-6.6,0-13.1,0-19.7,0
		C39.9,40.2,35.3,40.2,30.7,40.2z"/>
	<path d="M24.1,35.4c0.2,0.1,0.5,0.1,0.7,0.1c10.9,0,21.8,0,32.7,0c0.1,0,0.3,0,0.4,0c0.4-0.1,0.8-0.2,1-0.6c0.3-0.4,0.3-0.9,0-1.4
		c-0.3-0.5-0.7-0.7-1.2-0.7c-5.5,0-11,0-16.5,0c-5.4,0-10.9,0-16.3,0c-0.1,0-0.3,0-0.4,0c-0.6,0-1.1,0.5-1.2,1.1
		C23.1,34.7,23.4,35.2,24.1,35.4z"/>
	<path d="M24.6,28.2c4.4,0,8.8,0,13.2,0c1,0,2.1,0,3.1,0c3.4,0,6.8,0,10.2,0c0.6,0,1-0.3,1.2-0.9c0.2-0.5,0-1.1-0.4-1.4
		c-0.3-0.2-0.8-0.3-1.2-0.3c-8.6,0-17.2,0-25.8,0c-0.2,0-0.5,0-0.7,0.1c-0.5,0.1-0.9,0.6-1,1.1C23.2,27.6,23.7,28.2,24.6,28.2z"/>
	<path d="M68.6,67.5c-1,1-2.1,2-3.1,3.1c-1.6,1.6-3.3,3.3-4.9,4.9c-0.1-0.1-0.2-0.2-0.2-0.3c-0.8-0.8-1.6-1.6-2.4-2.4
		c-0.6-0.6-1.3-0.6-1.9,0c-0.5,0.5-0.6,1.3-0.1,1.8c1.2,1.3,2.5,2.5,3.7,3.7c0.5,0.5,1.3,0.5,1.9,0c0.2-0.2,0.4-0.4,0.6-0.6
		c2.7-2.7,5.5-5.5,8.2-8.2c0.4-0.4,0.6-0.9,0.4-1.5C70.5,66.9,69.3,66.7,68.6,67.5z"/>
</g>
</svg>
