<?xml version="1.0" encoding="utf-8"?>
<!-- Generator: Adobe Illustrator 28.0.0, SVG Export Plug-In . SVG Version: 6.00 Build 0)  -->
<svg version="1.1" id="图层_1" xmlns="http://www.w3.org/2000/svg" xmlns:xlink="http://www.w3.org/1999/xlink" x="0px" y="0px"
	 viewBox="0 0 100.9 100.1" style="enable-background:new 0 0 100.9 100.1;" xml:space="preserve">
<g>
	<path d="M93.4,49.8c0,6.9,0,13.8,0,20.7c0,0.9-0.4,1.4-1.1,1.8c-10.5,5.3-20.9,10.7-31.4,16c-2.9,1.5-5.9,3-8.8,4.5
		c-0.2,0.1-0.4,0.3-0.7,0.4c-0.3,0.1-0.7,0.2-0.9,0.1c-1.7-0.9-3.4-1.8-5.2-2.7C33.5,84.6,21.6,78.5,9.7,72.4
		c-0.3-0.2-0.6-0.3-0.9-0.5c-0.4-0.3-0.5-0.8-0.5-1.2c0-8.6,0-17.2,0-25.8c0-5.3,0-10.7,0-16c0-0.7,0.2-1.2,0.9-1.5
		c11.8-6,23.5-12.1,35.3-18.1c1.8-0.9,3.7-1.9,5.5-2.8c0.6-0.3,1.2-0.3,1.8,0c9.8,5.1,19.6,10.1,29.4,15.1c3.8,2,7.6,4,11.4,5.9
		c0.6,0.3,0.7,0.8,0.7,1.4C93.4,35.8,93.4,42.8,93.4,49.8z M49.6,90.1c0-0.2,0-0.3,0-0.4c0-12.9,0-25.9,0-38.8
		c0-0.3-0.1-0.5-0.4-0.6C36.9,44,24.5,37.6,12,31.3c-0.4-0.2-0.7-0.4-1.1-0.6c0,0.3,0,0.5,0,0.7c0,3.8,0,7.7,0,11.5
		c0,8.9,0,17.8,0,26.7c0,0.4,0.1,0.6,0.5,0.8c0.9,0.4,1.8,0.9,2.7,1.4c10,5.2,20,10.3,30.1,15.5C46,88.2,47.8,89.2,49.6,90.1z
		 M52.1,90c0.3-0.2,0.6-0.3,0.8-0.4C65.3,83.3,77.7,77,90.1,70.7c0.6-0.3,0.8-0.6,0.8-1.3c0-12.6,0-25.3,0-37.9c0-0.2,0-0.4,0-0.7
		c-0.2,0.1-0.2,0.1-0.3,0.1c-4.2,2.1-8.4,4.3-12.6,6.4c-0.3,0.2-0.3,0.3-0.3,0.6c0,2.7,0,5.3,0,8c0,1.3-0.8,1.8-2,1.3
		c-0.9-0.4-1.8-0.7-2.6-1.1c-0.5-0.2-0.7-0.1-1,0.3c-1.5,1.9-3,3.7-4.5,5.6c-0.5,0.6-1.1,0.8-1.6,0.5c-0.6-0.3-0.8-0.8-0.8-1.4
		c0-2.2,0-4.4,0-6.6c0-0.2,0-0.3,0-0.6c-0.2,0.1-0.4,0.2-0.5,0.2c-4,2-8,4.1-12,6.1c-0.4,0.2-0.5,0.4-0.5,0.9c0,12.7,0,25.4,0,38.2
		C52.1,89.5,52.1,89.7,52.1,90z M89.4,28.6c-0.5-0.3-0.9-0.5-1.3-0.7C75.9,21.6,63.7,15.4,51.5,9.1c-0.4-0.2-0.8-0.2-1.2,0
		c-3.1,1.6-6.3,3.2-9.4,4.9c-0.8,0.4-1.7,0.9-2.6,1.3c0.2,0.1,0.3,0.2,0.4,0.2C51.2,22,63.8,28.4,76.3,34.9c0.3,0.2,0.5,0.1,0.8,0
		c2.6-1.4,5.3-2.7,8-4.1C86.5,30.1,87.9,29.4,89.4,28.6z M12.4,28.6c0.2,0.1,0.4,0.2,0.5,0.3c12.5,6.4,25,12.9,37.6,19.3
		c0.3,0.2,0.5,0.1,0.8,0c3.7-1.9,7.4-3.8,11.2-5.7c0.3-0.2,0.7-0.4,1-0.6c-0.2-0.1-0.3-0.2-0.4-0.2c-4.1-2.1-8.2-4.2-12.4-6.3
		c-8.4-4.3-16.9-8.7-25.3-13c-0.3-0.2-0.6-0.2-0.9,0c-2,1-3.9,2-5.9,3C16.7,26.4,14.6,27.5,12.4,28.6z M73.9,36.5
		c-0.2-0.1-0.3-0.2-0.4-0.2C60.9,29.9,48.4,23.4,35.8,17c-0.3-0.1-0.5-0.2-0.8,0c-1.4,0.7-2.8,1.4-4.2,2.1c-1,0.5-1.9,1-2.9,1.5
		c0.1,0.1,0.2,0.1,0.3,0.2c12.6,6.5,25.2,13,37.9,19.5c0.2,0.1,0.5,0.1,0.6,0c1.4-0.7,2.8-1.4,4.1-2.1
		C71.8,37.6,72.8,37.1,73.9,36.5z M75,38.7c-2.4,1.3-4.8,2.5-7.1,3.7c-0.1,0-0.2,0.2-0.2,0.3c0,1.6,0,3.2,0,5
		c0.2-0.2,0.3-0.3,0.3-0.4c0.9-1.2,1.9-2.3,2.8-3.5c0.7-0.9,1.1-1,2.1-0.5c0.7,0.3,1.3,0.6,2,0.9C75,42.4,75,40.6,75,38.7z"/>
</g>
</svg>
