<?xml version="1.0" encoding="utf-8"?>
<!-- Generator: Adobe Illustrator 28.0.0, SVG Export Plug-In . SVG Version: 6.00 Build 0)  -->
<svg version="1.1" id="图层_1" xmlns="http://www.w3.org/2000/svg" xmlns:xlink="http://www.w3.org/1999/xlink" x="0px" y="0px"
	 viewBox="0 0 100.9 100.1" style="enable-background:new 0 0 100.9 100.1;" xml:space="preserve">
<style type="text/css">
	.st0{fill:none;stroke:#000000;stroke-width:2.8;stroke-linejoin:round;}
</style>
<g>
	<g>
		<path d="M51.7,46.3c0.1-2.4,0.2-4.8,0.9-7.1c0.6-2,1.7-3.8,3.5-5.1c3.6-2.5,8.5-1.6,11,2.1c1.2,1.7,1.8,3.6,2.1,5.6
			c0.5,3.3,0.5,6.5-0.1,9.7c-0.4,1.9-1.1,3.7-2.3,5.3c-3.5,4.4-10,4-12.9-0.8c-1-1.7-1.6-3.5-1.8-5.4C51.9,49.2,51.8,47.7,51.7,46.3
			z M54.2,46.8c0.1,0.9,0.1,2.2,0.3,3.6c0.2,1.6,0.6,3.2,1.6,4.6c2.1,3.1,6.2,3.4,8.6,0.6c1-1.1,1.4-2.5,1.8-3.9
			c0.8-3.1,0.8-6.3,0.3-9.4c-0.2-1.7-0.8-3.3-1.8-4.8c-1.9-2.7-5.4-3.1-7.9-1c-1.2,1-1.8,2.3-2.2,3.7C54.3,42.2,54.3,44.3,54.2,46.8
			z"/>
		<path d="M42.8,48c-0.4,0.1-0.8,0.2-1.1,0.3c-5,1-8.7-3-8.8-7c-0.1-2.5,0.5-4.7,2.4-6.4c2.4-2.1,5.2-2.8,8.2-1.8
			c3,1,4.7,3.2,5.2,6.3c0.3,2-0.1,4-1.1,5.7c-0.9,1.6-1.9,3.2-2.9,4.7c-2,3.1-4.1,6.1-6.2,9.2c-0.3,0.4-0.6,0.8-1.1,0.8
			c-0.5,0.1-1-0.1-1.3-0.6c-0.3-0.5-0.3-1,0.1-1.4c2.1-3.2,4.2-6.3,6.3-9.5C42.6,48.3,42.7,48.2,42.8,48z M46.3,40.7
			c0-3-2.4-5.4-5.4-5.4c-3.1,0-5.5,2.4-5.5,5.4c0,3,2.4,5.4,5.5,5.4C43.9,46.1,46.3,43.7,46.3,40.7z"/>
	</g>
	<path class="st0" d="M13.5,18.4L50.7,7.5l37.2,10.9v22.3c0,23.4-15,44.2-37.2,51.6c-22.2-7.4-37.2-28.2-37.2-51.6V18.4z"/>
</g>
</svg>
