<?xml version="1.0" encoding="utf-8"?>
<!-- Generator: Adobe Illustrator 28.0.0, SVG Export Plug-In . SVG Version: 6.00 Build 0)  -->
<svg version="1.1" id="图层_1" xmlns="http://www.w3.org/2000/svg" xmlns:xlink="http://www.w3.org/1999/xlink" x="0px" y="0px"
	 viewBox="0 0 100.9 100.1" style="enable-background:new 0 0 100.9 100.1;" xml:space="preserve">
<g>
	<path d="M75.3,6.3c-21,0-42.1,0-63.1,0c-0.9,0-1.6,0.6-1.6,1.6c0,14,0,28.1,0,42.1c0,5.6,0,11.2,0,16.8c0,8.5,0,16.9,0,25.4
		c0,0.4,0.1,0.8,0.3,1.1c0.3,0.5,0.8,0.5,1.4,0.5c20.9,0,41.8,0,62.7,0c1.6,0,2-0.4,2-2c0-9.2,0-18.4,0-27.6c0-18.7,0-37.4,0-56.2
		C77,6.9,76.3,6.3,75.3,6.3z M74.2,91c-20.3,0-40.5,0-60.9,0c0-27.3,0-54.5,0-81.8c20.3,0,40.5,0,60.9,0
		C74.2,36.4,74.2,63.7,74.2,91z"/>
	<path d="M93,52.4C93,52.4,93,52.4,93,52.4c0-0.7,0-1.5,0-2.2c0-9.2,0-18.3,0-27.5c0-0.4,0-0.8-0.2-1.1c-1.3-2.7-2.5-5.3-3.8-7.9
		c-0.1-0.2-0.3-0.5-0.5-0.6c-0.8-0.6-1.7-0.3-2.1,0.6c-1.3,2.6-2.5,5.2-3.7,7.8c-0.2,0.3-0.3,0.7-0.3,1.1c0,19.7,0,39.4,0,59.1
		c0,0.3,0,0.7,0.1,1c0.4,2,1.5,3.4,3.5,4.1c2,0.7,3.8,0.3,5.3-1.1c1.3-1.2,1.8-2.7,1.8-4.4C93,71.8,93,62.1,93,52.4z M88,84.4
		c-1.3,0.3-2.9-0.9-2.9-2.2c0-0.7,0-1.5,0-2.2c0-18.9,0-37.8,0-56.7c0-0.3,0.1-0.6,0.2-0.9c0.7-1.5,1.4-3,2.1-4.4
		c0.1-0.1,0.1-0.2,0.2-0.4c0.8,1.8,1.7,3.5,2.5,5.2c0.1,0.1,0.1,0.3,0.1,0.5c0,19.5,0,39,0,58.5C90.2,83.2,89.5,84.1,88,84.4z"/>
	<path d="M28.5,41.5c-4.8-0.1-8.5,3.7-8.4,8.1C20,54,23.6,57.7,28,57.8c4.6,0.1,8.3-3.4,8.4-8.1C36.4,45.1,32.8,41.7,28.5,41.5z
		 M28.2,55.1c-2.7,0-5.4-2.2-5.4-5.4c0-3.2,2.7-5.4,5.4-5.4c2.9-0.1,5.4,2.3,5.4,5.4C33.6,52.7,31.1,55.1,28.2,55.1z"/>
	<path d="M28.2,80.9c4.3,0,8.1-3.4,8.2-8.1c0-4.6-3.5-8.2-8.2-8.2c-4.7,0-8.1,3.9-8.1,8.1C20,77.1,23.7,80.9,28.2,80.9z M28.2,67.4
		c2.9,0,5.4,2.5,5.4,5.4c0,2.9-2.2,5.4-5.4,5.4c-3,0-5.4-2.3-5.4-5.4C22.8,69.8,25.3,67.3,28.2,67.4z"/>
	<path d="M29.3,34.7c2.1-0.3,3.8-1.3,5.1-2.9c1.2-1.5,1.8-3.2,1.9-5.1c0-0.8-0.6-1.5-1.4-1.5c-0.8,0-1.4,0.6-1.4,1.5
		c0,0.4-0.1,0.7-0.1,1.1c-0.5,2.5-3,4.5-6,4.1c-2.9-0.4-5.1-3.1-4.6-6.3c0.5-3,3.4-4.9,6.4-4.3c0.8,0.1,1.5-0.3,1.6-1
		c0.2-0.8-0.3-1.6-1.1-1.7c-0.5-0.1-1-0.1-1.6-0.2c-0.5,0.1-1.1,0.1-1.7,0.2c-4.5,1-7.3,5.4-6.2,9.9C21.3,32.7,25.2,35.3,29.3,34.7z
		"/>
	<path d="M45.4,72.1c5.3,0,10.7,0,16,0c1,0,2,0,3.1,0c0.5,0,1-0.1,1.3-0.6c0.3-0.4,0.3-0.9,0.1-1.4c-0.2-0.5-0.7-0.8-1.2-0.8
		c-3.3,0-6.5,0-9.8,0c-3.3,0-6.6,0-9.9,0c-0.6,0-1,0.3-1.2,0.8c-0.2,0.5-0.1,1,0.3,1.5C44.4,72,44.9,72.1,45.4,72.1z"/>
	<path d="M65.2,47.7c0.7-0.2,1-0.8,0.8-1.6c-0.1-0.6-0.6-1.1-1.3-1.1c-3.3,0-6.5,0-9.8,0c-3.3,0-6.5,0-9.8,0c-1.1,0-1.7,1.1-1.2,2
		c0.3,0.6,0.9,0.8,1.6,0.8c6.3,0,12.6,0,18.9,0C64.6,47.8,64.9,47.8,65.2,47.7z"/>
	<path d="M45.4,23.6c6.3,0,12.7,0,19,0c0.2,0,0.4,0,0.5,0c0.3-0.2,0.7-0.3,0.9-0.6c0.4-0.4,0.3-0.9,0.1-1.4
		c-0.2-0.5-0.7-0.7-1.2-0.7c-3.3,0-6.5,0-9.8,0c-3.3,0-6.6,0-9.9,0c-0.6,0-1.1,0.3-1.3,0.9c-0.2,0.5,0,1.1,0.4,1.5
		C44.5,23.6,44.9,23.6,45.4,23.6z"/>
	<path d="M28.2,26c-0.3-0.3-0.5-0.5-0.7-0.7c-0.7-0.6-1.5-0.7-2.1-0.1c-0.6,0.6-0.6,1.4,0.1,2c0.5,0.5,0.9,0.9,1.4,1.4
		c0.8,0.8,1.5,0.8,2.4,0c2.1-2.1,4.2-4.2,6.4-6.4c0.4-0.4,0.7-0.7,1-1.1c0.7-0.8,0.4-2-0.7-2.3c-0.6-0.2-1.1,0.1-1.5,0.5
		c-2,2-4.1,4.1-6.1,6.1C28.4,25.7,28.3,25.8,28.2,26z"/>
	<path d="M45.1,30.1c1.2,0,2.4,0,3.7,0c1.3,0,2.5,0,3.8,0c0.6,0,1.1-0.5,1.3-1c0.1-0.6-0.1-1.3-0.6-1.5c-0.3-0.2-0.7-0.2-1-0.2
		c-2.3,0-4.6,0-6.9,0c-0.2,0-0.3,0-0.5,0c-0.8,0.1-1.3,0.8-1.2,1.5C43.7,29.6,44.3,30.1,45.1,30.1z"/>
	<path d="M52.1,51.6c-1.3,0-2.5,0-3.8,0c-1.1,0-2.3,0-3.4,0c-0.8,0-1.3,0.7-1.3,1.4c0,0.7,0.6,1.3,1.4,1.3c1.2,0,2.5,0,3.7,0
		c0,0,0,0,0,0c1.3,0,2.5,0,3.8,0c0.6,0,1.1-0.4,1.3-1c0.2-0.6-0.1-1.3-0.6-1.6C52.9,51.6,52.5,51.6,52.1,51.6z"/>
</g>
</svg>
