<?xml version="1.0" encoding="utf-8"?>
<!-- Generator: Adobe Illustrator 28.0.0, SVG Export Plug-In . SVG Version: 6.00 Build 0)  -->
<svg version="1.1" xmlns="http://www.w3.org/2000/svg" xmlns:xlink="http://www.w3.org/1999/xlink" x="0px" y="0px"
	 viewBox="0 0 500 500" style="enable-background:new 0 0 500 500;" xml:space="preserve">
<style type="text/css">
	.st0{fill:none;stroke:#FFFFFF;stroke-width:2;stroke-linejoin:round;stroke-miterlimit:10;}
	.st1{fill:#FFFFFF;}
</style>
<g id="OBJECTS">
	<g>
		<circle class="st0" cx="249.1" cy="250" r="155.5"/>
		<path class="st1" d="M425.9,278l24.3-28l-24.3-28l14.5-34.2l-31.8-19.1l3.2-37l-36.2-8.3l-8.3-36.2l-37,3.2l-19.1-31.8l-34.2,14.5
			l-28-24.3l-28,24.3l-34.2-14.5l-19.1,31.8l-37-3.2l-8.3,36.2l-36.2,8.3l3.2,37l-31.8,19.1L72.3,222l-24.3,28l24.3,28l-14.5,34.2
			l31.8,19.1l-3.2,37l36.2,8.3l8.3,36.2l37-3.2l19.1,31.8l34.2-14.5l28,24.3l28-24.3l34.2,14.5l19.1-31.8l37,3.2l8.3-36.2l36.2-8.3
			l-3.2-37l31.8-19.1L425.9,278z M249.1,342.7c-51.2,0-92.7-41.5-92.7-92.7c0-51.2,41.5-92.7,92.7-92.7s92.7,41.5,92.7,92.7
			C341.8,301.2,300.3,342.7,249.1,342.7z"/>
	</g>
	<path d="M134,250.8c-3.1,0.5-6.3,0-9.4-1.4l-0.6-0.3l-0.4,0.5c-2.4,2.5-5.1,4.1-8.2,4.8l-1,0.2l1.6,8.2c1.2,6,6.3,10.3,12.4,10.5
		l0.3,0l0.2-0.1c5.6-2.5,8.8-8.4,7.6-14.4l-1.6-8.2L134,250.8z"/>
	<path d="M365.8,250.8c3.1,0.5,6.3,0,9.4-1.4l0.6-0.3l0.4,0.5c2.4,2.5,5.1,4.1,8.2,4.8l1,0.2l-1.6,8.2c-1.2,6-6.3,10.3-12.4,10.5
		l-0.3,0l-0.2-0.1c-5.6-2.5-8.8-8.4-7.6-14.4l1.6-8.2L365.8,250.8z"/>
</g>
<g id="TEXTS">
	<g>
		<path d="M117.4,209l4.5,1.1l-2.9,12.4l5.7,1.3l2.5-10.4l4.5,1.1l-2.5,10.4l6.3,1.5l2.9-12.4l4.5,1.1l-4.2,17.6l-25.5-6L117.4,209z
			"/>
		<path d="M126,188.5l27.8,2.3l-2.3,4.9l-6-0.5l-4.6,9.8l4.2,4.3l-2.3,4.8l-19.5-20L126,188.5z M137.5,201.5l3.2-6.7l-10.7-0.9
			L137.5,201.5z"/>
		<path d="M149.1,183.7c3.3,0.1,6.3-1.2,8-3.5c1.7-2.2,1.9-4.5,0.1-5.8c-1.9-1.5-3.7,0.3-6.7,2.9c-3.1,2.6-6.6,5.2-10.7,2.1
			c-4-3-3.9-8.3-0.6-12.7c2.7-3.6,6.5-5.2,9.7-5.1l0.6,4.9c-2.6-0.1-5,0.7-6.8,3c-1.5,2-1.6,4.2-0.1,5.3c1.6,1.2,3.1,0,5.8-2.3
			c3.2-2.8,7.2-6.2,11.7-2.7c4.2,3.2,3.9,8.8,0.6,13.3c-2.7,3.5-7,6-10.8,5.7L149.1,183.7z"/>
		<path d="M161.7,143.5l4.2-3.8l3.4,17.9l7.1,7.9l-4,3.6l-7.1-7.9l-17.4-5.2l4.3-3.9l11.8,3.6L161.7,143.5z"/>
		<path d="M200.4,149.8L186.6,135l8.1,17.4l-4.6,2.1l-11-23.7l6.7-3.1l13.3,14.3l-2.4-19.4l6.6-3.1l11,23.7l-4.6,2.1l-8.1-17.4
			l2.4,20L200.4,149.8z"/>
		<path d="M224.3,114.3c7.1-1.3,13.2,3.3,14.6,11.1c1.4,7.8-2.7,14.2-9.7,15.5c-7.1,1.3-13.2-3.3-14.6-11.1
			C213.1,122,217.2,115.5,224.3,114.3z M225.1,118.9c-4.1,0.7-6.3,4.6-5.3,9.9c1,5.3,4.4,8.1,8.5,7.4c4-0.7,6.2-4.6,5.3-9.9
			C232.6,121,229.2,118.1,225.1,118.9z"/>
		<path d="M265.7,139.3l-4.7-0.2l-11.3-18.6l-0.9,18l-5.1-0.3L245,112l5.4,0.3l10.6,17.7l0.9-17.1l5.1,0.3L265.7,139.3z"/>
		<path d="M293.7,119.5l-1.2,4.5l-12.4-3.3l-1.5,5.6L289,129l-1.2,4.4l-10.4-2.8l-1.7,6.3l12.4,3.3l-1.2,4.5l-17.5-4.6l6.7-25.3
			L293.7,119.5z"/>
		<path d="M315.8,129.5l5.1,2.5l-15.3,9.7l-4.7,9.5l-4.8-2.4l4.7-9.5l-1.6-18.1l5.2,2.6l1,12.3L315.8,129.5z"/>
		<path d="M333.1,140.6l8.1,7.1c4.3,3.8,4.9,7.6,1.9,11c-2.1,2.3-4.6,2.4-6.4,1.8c1.4,2.4,1.3,5.3-0.8,7.6c-3,3.4-7.3,3.3-11.5-0.4
			l-8.6-7.6L333.1,140.6z M322.6,160.3l4.5,3.9c2,1.7,3.9,1.7,5.3,0.2c1.3-1.5,1.2-3.5-0.8-5.2l-4.5-3.9L322.6,160.3z M333.7,155.4
			c2,1.8,3.8,2,5.2,0.4c1.4-1.5,0.9-3.3-1.1-5.1l-3.9-3.4l-4.1,4.6L333.7,155.4z"/>
		<path d="M361.6,170.7l-15.2,23.4l-3.2-4.4l3.3-5l-6.4-8.7l-5.7,1.7l-3.2-4.3l26.8-7.7L361.6,170.7z M344.7,174.7l4.4,5.9l5.9-9
			L344.7,174.7z"/>
		<path d="M354.7,202.6c1.2,2.6,3.7,3.7,6.6,3.2l0.6,5.3c-4.9,0.6-9.2-1.5-11.5-6.5c-3-6.4,0-13.4,7.2-16.7s14.4-1,17.3,5.5
			c2.3,4.9,1.1,9.6-2.6,12.9l-3.6-3.9c2.3-1.9,3.1-4.5,1.9-7.1c-1.7-3.6-6-4.7-10.8-2.5C355,195,353,199,354.7,202.6z"/>
		<path d="M370.8,218.3l13.8,7.3l1.4,6.1l-13-7.2L360.6,238l-1.4-6.1l9-9.9l-4-2.2l-7.3,1.6l-1.2-5.2l25.6-5.6l1.2,5.2L370.8,218.3z
			"/>
	</g>
	<g>
		<path d="M129.8,308.7c-1.8-0.3-3.9-2-5.1-4.9c-2.8-6.3,0.2-13.1,7.4-16.3c7.2-3.2,14.6-0.7,17.5,6c2.3,5.2,1,9.9-2.7,13.3l-4-4.6
			c2.3-1.7,3-4,1.9-6.6c-1.5-3.5-5.6-4.6-10.1-2.6c-4.6,2-6.5,5.7-5,9.3c1.2,2.7,3.8,3.8,6.4,3l-2.3-5.3l4.6-2l4.7,10.8l-13.2,5.8
			l-2.2-4.9L129.8,308.7z"/>
		<path d="M145.5,320.1l12.1-9.9l3.8,4.7l-12,9.8c-3.1,2.6-3.2,5.2-1.4,7.5s4.5,2.7,7.6,0.2l12-9.8l3.8,4.7l-12.1,9.9
			c-5.6,4.6-11.2,3.6-15.5-1.6C139.7,330.4,139.9,324.7,145.5,320.1z"/>
		<path d="M187.7,340.2l-7.6,26.8l-5-3.6l1.6-5.4l-8.3-6.1l-4.6,3.1l-4.9-3.5l23.2-15.5L187.7,340.2z M172.8,348.9l5.3,3.9l2.7-9.3
			L172.8,348.9z"/>
		<path d="M197.3,374.9l-5.7-2.2l9.3-24.5l10.3,3.9c5.8,2.2,8.3,6.3,6.3,11.4c-1.4,3.6-4.3,5.4-8,5.3l2.4,11.5l-6.5-2.5l-2-10.7
			l-2.9-1.1L197.3,374.9z M206.7,363.3c2.7,1,4.5,0.4,5.3-1.6c0.8-2-0.2-3.7-2.8-4.7l-4.3-1.6l-2.4,6.3L206.7,363.3z"/>
		<path d="M241.7,358.8l7,27l-6.1-0.6l-1.4-5.4l-10.2-1l-2.4,5l-6-0.6l12.2-25.1L241.7,358.8z M233.3,373.9l6.6,0.6l-2.4-9.4
			L233.3,373.9z"/>
		<path d="M284.1,381.1l-5.2,0.9l-14.3-14.6l3,16.6l-5.7,1l-4.6-25.8l6-1.1l13.4,13.9l-2.8-15.7l5.7-1L284.1,381.1z"/>
		<path d="M300.4,352.1l8.9,19l-5.5,2.6l-8.9-19l-7.3,3.4l-2.2-4.7l20-9.4l2.2,4.7L300.4,352.1z"/>
		<path d="M324.9,328.9l3.3,4.1l-9.7,7.8l3.2,3.9l8.1-6.5l3.2,4l-8.1,6.5l3.5,4.3l9.7-7.8l3.3,4.1L327,360.9l-16.4-20.4L324.9,328.9
			z"/>
		<path d="M341.1,309.3l4.1,3.2l-7.7,9.9l4,3.1l6.4-8.2l4.1,3.2l-6.4,8.2l4.4,3.4l7.7-9.9l4.1,3.2l-11.3,14.6l-20.7-16.1
			L341.1,309.3z"/>
		<path d="M344.7,303.4l3.7-8.5c3.3-7.6,10-10.2,17.3-7c7.3,3.2,10,9.9,6.6,17.5l-3.7,8.5L344.7,303.4z M367.7,303.3
			c1.9-4.3,0.1-8-4.3-9.9s-8.3-0.7-10.2,3.6l-1.3,3l14.6,6.4L367.7,303.3z"/>
	</g>
	<g>
		<g>
			<g>
				<path class="st1" d="M194.2,270h11.6c10.7,0,17.2,6.6,17.2,16.9s-6.5,16.9-17.2,16.9h-11.6V270z M205.9,297.9
					c6.6,0,10.3-4.3,10.3-11c0-6.7-3.8-11-10.4-11H201v22H205.9z"/>
				<path class="st1" d="M243.2,270l12.7,33.8h-7l-2.7-7.3h-14l-2.7,7.3h-6.9l12.6-33.8H243.2z M234.4,290.7h9.6l-4.8-13
					L234.4,290.7z"/>
				<path class="st1" d="M275.9,270h7.4L271,290.1v13.8h-6.9v-13.8L251.8,270h7.5l8.2,13.7L275.9,270z"/>
				<path class="st1" d="M285.7,293.1c2.5,3.5,6.1,5.5,9.9,5.5c3.5,0,6.1-1.6,6.1-4.4c0-3.1-3.2-3.5-8.3-4.7
					c-5-1.2-10.5-2.8-10.5-9.5c0-6.5,5.6-10.5,12.6-10.5c5.8,0,10.4,2.6,12.8,6l-4.6,4.5c-2-2.8-4.6-4.7-8.4-4.7
					c-3.3,0-5.6,1.6-5.6,4.1c0,2.6,2.5,3.2,6.9,4.1c5.4,1.2,12,2.5,12,9.9c0,6.8-6,10.9-13.2,10.9c-5.7,0-11.6-2.6-14.4-6.7
					L285.7,293.1z"/>
			</g>
		</g>
		<g>
			<g>
				<path class="st1" d="M203.8,238.6c1.7,5.3,5.7,9.3,12.4,9.3c9.5,0,15.7-9.3,15.7-20.6c-3.1,4.1-8.8,7.5-16.4,7.5
					c-13.4,0-23-10.1-23-23.1c0-14.1,10.6-24.6,25.6-24.6c18.1,0,27.2,15.7,27.2,35.2c0,21.7-11.5,37.3-29.6,37.3
					c-12.7,0-20.1-6.5-23.4-16.1L203.8,238.6z M218,223.5c7.1,0,12.6-5.4,12.6-12.4c0-7.2-5.5-12.4-12.5-12.4
					c-7.1,0-12.5,5.3-12.5,12.4C205.6,218.2,211,223.5,218,223.5z"/>
				<path class="st1" d="M279.7,187.2c17.9,0,28.2,14.8,28.2,36.3c0,21.5-10.3,36.2-28.2,36.2c-18,0-28.3-14.8-28.3-36.2
					C251.4,202,261.7,187.2,279.7,187.2z M279.7,247.4c9.6,0,13.7-9.9,13.7-23.9c0-14-4.1-23.9-13.7-23.9c-9.7,0-13.8,9.9-13.8,23.9
					C265.9,237.5,270,247.4,279.7,247.4z"/>
			</g>
		</g>
	</g>
</g>
</svg>
