<?xml version="1.0" encoding="UTF-8"?>
<svg id="_图层_2" data-name="图层 2" xmlns="http://www.w3.org/2000/svg" viewBox="0 0 100 100">
  <defs>
    <style>
      .cls-1 {
        fill: #e0004d;
      }

      .cls-1, .cls-2 {
        stroke-width: 0px;
      }

      .cls-2 {
        fill: #fff;
      }
    </style>
  </defs>
  <g id="_图层_1-2" data-name="图层 1">
    <g>
      <path class="cls-2" d="M0,0h100v50c0,27.6-22.4,50-50,50h0C22.4,100,0,77.6,0,50V0H0Z"/>
      <g>
        <path class="cls-1" d="M80.67,51.72c0-2.59-1.85-4.76-4.34-5.24l-4.09-11.61c-.45-1.25-1.64-2.09-2.96-2.09h-6.71v-2.1c0-3.8-3.09-6.88-6.91-6.88H21.69c-1.3,0-2.36,1.05-2.36,2.35h37.02c1.81,0,3.84,2.03,3.84,4.53v18.11h-31.36v-10.99h4.72v-2.35h-7.57c-1.3,0-3.07,1.05-3.07,2.35h3.56v23.81h7.34c.55,2.79,3.03,4.91,5.99,4.91s5.44-2.11,5.99-4.91h18.66c.55,2.79,3.03,4.91,5.99,4.91s5.44-2.11,5.99-4.91h4.25v-9.89ZM73.79,46.38h-6.21v-6.5h3.92l2.29,6.5ZM39.8,64.16c-2.06,0-3.74-1.67-3.74-3.73s1.68-3.73,3.74-3.73,3.74,1.67,3.74,3.73-1.68,3.73-3.74,3.73ZM39.8,54.35c-2.96,0-5.44,2.11-5.99,4.9h-4.98v-8.12h31.36v8.12h-14.41c-.55-2.79-3.03-4.9-5.99-4.9h0ZM70.43,64.16c-2.06,0-3.74-1.67-3.74-3.73s1.68-3.73,3.74-3.73,3.74,1.67,3.74,3.73-1.68,3.73-3.74,3.73ZM78.31,59.25h-1.89c-.55-2.79-3.03-4.9-5.99-4.9s-5.44,2.11-5.99,4.9h-1.89v-24.13h6.71c.34,0,.63.21.74.53l.66,1.88h-5.45v11.2h10.21c1.61.08,2.87,1.39,2.87,2.99v7.54h0Z"/>
        <path class="cls-1" d="M31.64,29.5h-8.04c-1.3,0-2.36,1.05-2.36,2.35h10.4v-2.35Z"/>
      </g>
    </g>
  </g>
</svg>