<?xml version="1.0" encoding="UTF-8"?>
<svg id="_图层_2" data-name="图层 2" xmlns="http://www.w3.org/2000/svg" viewBox="0 0 100 100">
  <defs>
    <style>
      .cls-1 {
        fill: #000;
      }

      .cls-1, .cls-2, .cls-3, .cls-4 {
        stroke-width: 0px;
      }

      .cls-2 {
        fill: #b2fce4;
      }

      .cls-3 {
        fill: #ffb3c7;
      }

      .cls-4 {
        fill: #fff;
      }
    </style>
  </defs>
  <g id="_图层_1-2" data-name="图层 1">
    <path class="cls-4" d="M0,0h100v50c0,27.6-22.4,50-50,50h0C22.4,100,0,77.6,0,50V0H0Z"/>
    <g>
      <g>
        <path class="cls-2" d="M31.51,21.06h36.98c3.68,0,6.67,2.99,6.67,6.67h0c0,3.68-2.99,6.67-6.67,6.67H31.51c-3.68,0-6.67-2.99-6.67-6.67h0c0-3.68,2.99-6.67,6.67-6.67Z"/>
        <path class="cls-1" d="M32.21,27.71c0-.73-.55-1.25-1.22-1.25s-1.22.52-1.22,1.25.55,1.25,1.22,1.25,1.22-.51,1.22-1.25ZM32.22,29.9v-.57c-.33.39-.82.64-1.41.64-1.23,0-2.16-.96-2.16-2.25s.97-2.26,2.18-2.26c.57,0,1.06.24,1.39.63v-.55h1.1v4.37h-1.1ZM38.67,28.93c-.39,0-.49-.14-.49-.51v-1.94h.71v-.95h-.71v-1.07h-1.13v1.07h-1.45v-.27c0-.37.14-.51.54-.51h.25v-.85h-.54c-.93,0-1.37.3-1.37,1.21v.41h-.63v.95h.63v3.41h1.13v-3.41h1.45v2.14c0,.89.35,1.28,1.26,1.28h.58v-.97h-.22ZM42.71,27.32c-.08-.57-.56-.91-1.11-.91s-1.01.33-1.13.91h2.24ZM40.47,28c.08.65.55,1.01,1.15,1.01.47,0,.84-.22,1.06-.57h1.15c-.27.93-1.12,1.52-2.24,1.52-1.35,0-2.3-.93-2.3-2.24s1-2.27,2.33-2.27,2.3.96,2.3,2.27c0,.1,0,.19-.03.28h-3.43ZM51.09,27.71c0-.71-.55-1.25-1.22-1.25s-1.22.52-1.22,1.25.55,1.25,1.22,1.25,1.22-.54,1.22-1.25ZM47.55,25.53h1.1v.57c.33-.4.82-.65,1.41-.65,1.21,0,2.16.97,2.16,2.25s-.97,2.26-2.18,2.26c-.56,0-1.03-.22-1.35-.59v2.31h-1.14v-6.16ZM56.18,27.71c0-.73-.55-1.25-1.22-1.25s-1.22.52-1.22,1.25.55,1.25,1.22,1.25,1.22-.51,1.22-1.25ZM56.19,29.9v-.57c-.33.39-.82.64-1.41.64-1.23,0-2.16-.96-2.16-2.25s.97-2.26,2.18-2.26c.57,0,1.06.24,1.39.63v-.55h1.1v4.37h-1.1ZM45.56,25.96s.28-.51.97-.51c.29,0,.48.1.48.1v1.11s-.41-.25-.79-.2c-.38.05-.62.39-.62.85v2.59h-1.14v-4.37h1.1v.43ZM62.43,25.53l-2.78,6.15h-1.17l1.09-2.38-1.84-3.77h1.33l1.08,2.52,1.11-2.52h1.19ZM71.3,25.43l-2.75-1.55c-.81-.46-1.82.11-1.82,1.03v.16c0,.14.08.28.21.35l.52.29c.15.09.34-.02.34-.19v-.4c0-.2.22-.32.4-.22l2.39,1.34c.18.1.18.35,0,.44l-2.39,1.34c-.18.1-.39-.02-.39-.22v-.21c0-.91-1.01-1.48-1.82-1.03l-2.75,1.55c-.18.1-.34.25-.44.43-.11.18-.16.39-.16.6s.06.42.16.6c.11.18.26.33.44.43l2.75,1.55c.81.46,1.82-.11,1.82-1.03v-.16c0-.07-.02-.14-.06-.2-.04-.06-.09-.11-.15-.15l-.52-.29c-.15-.09-.34.02-.34.19v.4c0,.2-.22.32-.39.22l-2.39-1.34s-.07-.05-.1-.09c-.02-.04-.04-.08-.04-.13s.01-.09.04-.13c.02-.04.06-.07.1-.09l2.39-1.34c.18-.1.39.02.39.22v.21c0,.91,1.01,1.48,1.82,1.03l2.75-1.55c.18-.1.34-.25.44-.43.11-.18.16-.39.16-.6s-.06-.41-.16-.59-.26-.33-.44-.43Z"/>
      </g>
      <g>
        <path class="cls-3" d="M31.51,38.14h36.98c3.68,0,6.67,2.99,6.67,6.67h0c0,3.68-2.99,6.67-6.67,6.67H31.51c-3.68,0-6.67-2.99-6.67-6.67h0c0-3.68,2.99-6.67,6.67-6.67Z"/>
        <path class="cls-1" d="M67.22,46.8c-.13,0-.26.03-.39.08-.12.05-.23.13-.33.22-.09.09-.17.21-.22.33-.05.12-.08.25-.07.39,0,.13.02.26.07.39.05.12.12.23.22.33.09.09.2.17.33.22.12.05.25.08.39.08.55,0,1.01-.45,1.01-1.02,0-.13-.02-.26-.07-.39-.05-.12-.12-.23-.22-.33-.09-.09-.2-.17-.33-.22-.12-.05-.25-.08-.39-.08ZM63.91,46.01c0-.77-.65-1.39-1.45-1.39s-1.45.62-1.45,1.39.65,1.39,1.45,1.39,1.45-.62,1.45-1.39ZM63.91,43.31h1.6v5.4h-1.6v-.35c-.47.32-1.02.49-1.59.49-1.56,0-2.82-1.28-2.82-2.85s1.26-2.85,2.82-2.85c.59,0,1.14.18,1.59.49v-.35ZM51.09,44.02v-.7h-1.64v5.4h1.64v-2.52c0-.85.91-1.31,1.55-1.31h.02v-1.57c-.65,0-1.25.28-1.57.7ZM47,46.01c0-.77-.65-1.39-1.45-1.39s-1.45.62-1.45,1.39.65,1.39,1.45,1.39,1.45-.62,1.45-1.39ZM47.01,43.31h1.6v5.4h-1.6v-.35c-.45.31-1,.49-1.59.49-1.56,0-2.82-1.28-2.82-2.85s1.26-2.85,2.82-2.85c.59,0,1.14.18,1.59.49v-.35ZM56.65,43.17c-.64,0-1.25.2-1.65.75v-.61h-1.6v5.4h1.62v-2.84c0-.82.55-1.22,1.2-1.22.7,0,1.11.42,1.11,1.21v2.85h1.6v-3.43c0-1.26-.99-2.11-2.28-2.11ZM40.26,48.72h1.68v-7.81h-1.68v7.81ZM32.89,48.72h1.78v-7.81h-1.78v7.81ZM39.1,40.9c0,1.69-.65,3.26-1.82,4.43l2.46,3.38h-2.19l-2.67-3.67.69-.52c.56-.42,1.02-.97,1.33-1.6.31-.63.47-1.32.47-2.02h1.74Z"/>
      </g>
      <g>
        <path class="cls-1" d="M31.51,55.22h36.98c3.68,0,6.67,2.99,6.67,6.67h0c0,3.68-2.99,6.67-6.67,6.67H31.51c-3.68,0-6.67-2.99-6.67-6.67h0c0-3.68,2.99-6.67,6.67-6.67Z"/>
        <path class="cls-4" d="M42.36,58.22c-.28.33-.73.6-1.18.56-.06-.45.16-.93.42-1.23.28-.34.78-.59,1.18-.61.05.47-.14.93-.41,1.27M42.77,58.87c-.65-.04-1.21.37-1.52.37s-.79-.35-1.31-.34c-.67,0-1.3.39-1.64,1-.71,1.21-.18,3.01.5,4,.33.49.73,1.03,1.26,1.01.5-.02.7-.32,1.3-.32s.78.32,1.31.32c.55,0,.89-.49,1.22-.98.38-.55.54-1.1.55-1.12,0,0-1.05-.41-1.06-1.61,0-1.01.82-1.49.86-1.51-.47-.7-1.2-.77-1.46-.79M46.55,57.5v7.33h1.14v-2.51h1.58c1.44,0,2.45-.99,2.45-2.42s-.99-2.41-2.41-2.41h-2.75ZM47.69,58.46h1.31c.99,0,1.55.53,1.55,1.45s-.56,1.46-1.56,1.46h-1.31v-2.91ZM53.79,64.89c.71,0,1.38-.36,1.68-.94h.02v.88h1.05v-3.65c0-1.06-.85-1.74-2.15-1.74-1.21,0-2.1.69-2.13,1.64h1.03c.08-.45.5-.75,1.08-.75.7,0,1.09.32,1.09.92v.4l-1.42.08c-1.32.08-2.04.62-2.04,1.56s.74,1.58,1.8,1.58ZM54.09,64.02c-.61,0-.99-.29-.99-.74s.37-.73,1.08-.77l1.26-.08v.41c0,.69-.58,1.18-1.35,1.18ZM57.95,66.83c1.11,0,1.63-.42,2.09-1.71l2-5.6h-1.16l-1.34,4.33h-.02l-1.34-4.33h-1.19l1.93,5.34-.1.32c-.17.55-.46.76-.96.76-.09,0-.26,0-.33-.02v.88c.07.02.35.03.43.03h0Z"/>
      </g>
    </g>
  </g>
</svg>