<?xml version="1.0" encoding="UTF-8"?>
<svg id="_图层_2" data-name="图层 2" xmlns="http://www.w3.org/2000/svg" viewBox="0 0 100 100">
  <defs>
    <style>
      .cls-1 {
        fill: #e0004d;
      }

      .cls-1, .cls-2 {
        stroke-width: 0px;
      }

      .cls-2 {
        fill: #fff;
      }
    </style>
  </defs>
  <g id="_图层_1-2" data-name="图层 1">
    <g>
      <path class="cls-2" d="M0,0h100v50c0,27.6-22.4,50-50,50h0C22.4,100,0,77.6,0,50V0H0Z"/>
      <g>
        <path class="cls-1" d="M56.17,47.83h-14.92l2.39-2.39-1.58-1.58-4.31,4.31c-.21.21-.33.49-.33.79s.12.58.33.79l4.31,4.31,1.58-1.58-2.41-2.41h14.97c2.19,0,4.05,1.79,4.01,3.97-.04,2.12-1.78,3.84-3.91,3.84h-8.45c-1.23,0-2.24,1-2.24,2.24h10.68c3.45,0,6.25-2.86,6.14-6.33-.1-3.34-2.93-5.96-6.27-5.96h0Z"/>
        <path class="cls-1" d="M63.03,23.52h-26.05l-11.58,14.15v28.32h49.21v-28.32l-11.58-14.15ZM38.03,25.76h10.79v12.19h-20.75l9.97-12.19ZM72.37,63.76H27.63v-23.58h42.5c0-1.23-1-2.24-2.24-2.24h-16.84v-12.18h10.91l10.4,12.72v25.29Z"/>
      </g>
    </g>
  </g>
</svg>