<?xml version="1.0" encoding="UTF-8"?>
<svg id="_图层_2" data-name="图层 2" xmlns="http://www.w3.org/2000/svg" viewBox="0 0 100 100">
  <defs>
    <style>
      .cls-1 {
        fill: #e0004d;
      }

      .cls-1, .cls-2 {
        stroke-width: 0px;
      }

      .cls-2 {
        fill: #fff;
      }
    </style>
  </defs>
  <g id="_图层_1-2" data-name="图层 1">
    <g>
      <path class="cls-2" d="M0,0h100v50c0,27.6-22.4,50-50,50h0C22.4,100,0,77.6,0,50V0H0Z"/>
      <g>
        <path class="cls-1" d="M50,72l-.37-.12c-12.68-4.22-21.24-16.09-21.24-29.46v-13.11l21.61-6.31,18.5,5.57c-.36,1.24-1.66,1.95-2.9,1.59l-15.6-4.72-19.28,5.63v11.36c0,12.25,7.73,23.1,19.27,27.12,11.54-4.02,19.26-14.86,19.26-27.11v-10.21c0-1.29,1.05-2.34,2.34-2.34v12.54c0,13.39-8.53,25.22-21.23,29.45l-.37.12h0Z"/>
        <path class="cls-1" d="M54.17,61.13h-8v-11.33c-.98-.42-1.87-1.02-2.63-1.78-3.27-3.27-3.27-8.59,0-11.86.97-.97,2.13-1.67,3.45-2.08l1.52-.47v6.89h3.33v-6.88l1.51.46c1.29.4,2.49,1.12,3.45,2.08,3.26,3.26,3.26,8.58,0,11.86-.77.77-1.65,1.36-2.63,1.78v11.33h0ZM48.5,58.79h3.33v-10.67l.82-.25c.95-.3,1.79-.8,2.49-1.5,2.35-2.36,2.35-6.2,0-8.56-.3-.3-.63-.56-.98-.79v5.81h-8v-5.81c-.35.23-.68.49-.98.79-2.36,2.36-2.36,6.2,0,8.56.7.7,1.56,1.21,2.49,1.5l.82.25v10.67h0Z"/>
      </g>
    </g>
  </g>
</svg>