<svg id="图层_1" data-name="图层 1" xmlns="http://www.w3.org/2000/svg" xmlns:xlink="http://www.w3.org/1999/xlink" width="226.89mm" height="44.41mm" viewBox="0 0 643.14 125.89">
  <defs>
    <clipPath id="clip-path" transform="translate(0)">
      <rect width="643.14" height="125.89" fill="none"/>
    </clipPath>
  </defs>
  <g clip-path="url(#clip-path)">
    <path d="M580.2,125.89H62.94A62.95,62.95,0,0,1,62.94,0H580.2a62.95,62.95,0,0,1,0,125.89" transform="translate(0)" fill="#08833d"/>
    <rect x="143.31" y="38.97" width="1.53" height="49.81" fill="#fff"/>
    <path d="M84.68,89.06a26.12,26.12,0,1,1,0-52.23,25,25,0,0,1,13.68,4,2.73,2.73,0,1,1-2.74,4.72,20.65,20.65,0,1,0,9.95,17.66,16.79,16.79,0,0,0-.75-4.72,2.69,2.69,0,0,1,5.23-1.25,27.7,27.7,0,0,1,.74,6A26.06,26.06,0,0,1,84.68,89.06" transform="translate(0)" fill="#fff"/>
    <path d="M84.68,70.91,112.54,44a2.59,2.59,0,0,0,0-4,3,3,0,0,0-4,0L82.93,64.94l-7-6.47a3,3,0,0,0-4,0,2.59,2.59,0,0,0,0,4l8.71,8.46a2.83,2.83,0,0,0,2,.74,2.87,2.87,0,0,0,2-.74" transform="translate(0)" fill="#fff" fill-rule="evenodd"/>
    <polygon points="185.19 77.5 171.04 39.16 179.48 39.16 189.41 67.51 199.4 39.16 207.46 39.16 193.42 77.5 185.19 77.5" fill="#fff"/>
    <path d="M206.08,63.45c0-8.27,5.71-14.57,13.67-14.57,8.33,0,12.81,6.19,12.81,14v2.19H213.23c.54,4.27,3.15,6.83,6.84,6.83,2.88,0,5.18-1.39,6-4.11l6.3,2.24c-2,5.13-6.78,8-12.39,8-8.27,0-13.93-5.92-13.93-14.63M213.5,60h11.64a5,5,0,0,0-5.45-5.18c-3,0-5.28,1.76-6.19,5.18" transform="translate(0)" fill="#fff"/>
    <path d="M253.75,56.67a18.6,18.6,0,0,0-2.4-.16c-3.9,0-6.89,2.41-6.89,6.73V77.5H237V49.41h7.47v4a8.1,8.1,0,0,1,7.48-4.11,15,15,0,0,1,1.81.11Z" transform="translate(0)" fill="#fff"/>
    <path d="M257.07,39.16h7.64V46.1h-7.64Zm7.58,38.33h-7.47V49.41h7.47Z" transform="translate(0)" fill="#fff"/>
    <path d="M284.66,44.87c-.69,0-1.12,0-1.92,0-2.35,0-3.57.69-3.57,3.47v1.12h5.44v6.25h-5.44V77.5h-7.48V55.66H267.9V49.41h3.79V47.86c0-5.92,3.2-9.24,10.09-9.24a26.1,26.1,0,0,1,2.88.11Z" transform="translate(0)" fill="#fff"/>
    <path d="M292.32,87.27a22.64,22.64,0,0,1-2.94-.16v-6c.8.06,1.28.11,2.14.11,2,0,3-.53,3.84-2.56l.91-2.25-10.1-27h7.75l6.35,18.47,6.2-18.47H314L302.89,79.1c-1.82,5-4.38,8.17-10.57,8.17" transform="translate(0)" fill="#fff"/>
    <polygon points="347.61 49.41 352.26 66.98 356.95 49.41 364.27 49.41 355.78 77.5 349.32 77.5 344.57 60.52 339.82 77.5 333.35 77.5 324.86 49.41 332.45 49.41 337.2 66.98 341.79 49.41 347.61 49.41" fill="#fff"/>
    <path d="M367.18,39.16h7.64V46.1h-7.64Zm7.59,38.33h-7.48V49.41h7.48Z" transform="translate(0)" fill="#fff"/>
    <path d="M381.58,55.66h-3.73V49.41h3.73v-8H389v8h5.71v6.25H389v13c0,2.4,1.34,2.72,3.52,2.72a19.06,19.06,0,0,0,2.57-.16v6.2a25.37,25.37,0,0,1-4.81.42c-5.66,0-8.65-1.86-8.65-7.63Z" transform="translate(0)" fill="#fff"/>
    <path d="M399.29,39.16h7.48V52.29a9.9,9.9,0,0,1,7.69-3.41c5.87,0,9.45,4,9.45,10.09V77.5h-7.48V61.1c0-3.15-1.28-5.39-4.48-5.39a5.15,5.15,0,0,0-5.18,5.55V77.5h-7.48Z" transform="translate(0)" fill="#fff"/>
    <path d="M457,36.48h-2.33c-2.61,0-3.77.92-3.77,2.76v46.5c0,1.83,1.16,2.75,3.77,2.75h2c2.62,0,3.78-.92,3.78-2.75V39.24c.29-1.84-1.16-2.76-3.49-2.76" transform="translate(0)" fill="#fff"/>
    <path d="M497.67,83a12.41,12.41,0,0,1,8.43-11.93,38.67,38.67,0,0,0,.87-8.56c0-16.83-8.43-26-23.55-26h-16c-2.32,0-3.48.92-3.48,3.37V85.12c0,2.15,1.16,3.37,3.19,3.37h16c5.82,0,10.47-1.22,14.25-4a2.38,2.38,0,0,0,.29-1.53m-14.25-4.89h-7.26V46.88h7.26c9.3,0,11.34,8.57,11.34,15.61s-2,15.6-11.34,15.6" transform="translate(0)" fill="#fff"/>
    <path d="M508.42,78.09a5.21,5.21,0,1,1-4.94,5.2,5.08,5.08,0,0,1,4.94-5.2" transform="translate(0)" fill="#fff"/>
    <path d="M585.16,74.42h-.58a2,2,0,0,0-1.74.92,6.47,6.47,0,0,0-.87,1.53,14.85,14.85,0,0,1-3.49,4.89,8.32,8.32,0,0,1-7.27,2.14c-1.45-.3-2.32-1.53-3.2-2.14a9.21,9.21,0,0,1-1.45-6.42C570.05,75,580.8,73.19,582,64.63A6.41,6.41,0,0,0,580.8,60,7.44,7.44,0,0,0,575,57.59c-7.27,0-14.24,8-15.12,17.13a14.21,14.21,0,0,0,.88,7A6.12,6.12,0,0,1,559,83a3,3,0,0,1-1.45.31c-.58-.31-.58-.92-.87-1.22a12.41,12.41,0,0,1,.58-5.51c.29-1.22.58-2.45.87-3.37.87-3.36,1.74-6.73,1.45-10.09a5.33,5.33,0,0,0-5.52-5.2c-4.36,0-7.27,3.36-9,6.12a6.54,6.54,0,0,0-1.45-4.59,4.91,4.91,0,0,0-3.78-1.53c-4.36,0-7,3.06-9,5.81v-.92c0-1.22.29-2.75-.88-4a2.76,2.76,0,0,0-2.32-.92,4.83,4.83,0,0,0-2,.3,4,4,0,0,0-1.16.62c-.58.61-.29,1.53-.29,2.14v1.83c-.29,3.37-.87,6.73-1.16,9.49-.29,1.53-.58,3.06-.88,4.59a64.71,64.71,0,0,0-1.74,10.4,1.15,1.15,0,0,0,.29.91,1,1,0,0,0,.87.31h.29c2.33,0,4.65,0,5.24-1.53a27,27,0,0,0,1.16-5.2l.29-.92a36.2,36.2,0,0,1,2.62-10.09,16.69,16.69,0,0,1,2.61-4.59c1.16-1.53,2.33-3.06,3.78-3.06a1.47,1.47,0,0,1,1.16.61c1.17,1.84-.29,7.95-1.16,10.71A2.89,2.89,0,0,0,537.2,76l-.58,2.14a47.21,47.21,0,0,0-1.75,9.18v1.22l.3.31c.58.61,4.94-.31,4.94-.31a3.45,3.45,0,0,0,2-2.75c.29-1.53.58-2.76.87-4a75.26,75.26,0,0,1,1.75-7.65c1.45-4.89,3.49-8.26,5.52-10.09.87-.62,2-.92,2.33-.31.87.92.29,4,0,5.2a41.68,41.68,0,0,1-1.17,5.2c-.29.92-.58,2.14-.87,3.37-.58,3.36-1.16,7.34.58,9.79a4.8,4.8,0,0,0,4.07,1.83A9.16,9.16,0,0,0,561,87a7.7,7.7,0,0,0,1.74-1.53,9.91,9.91,0,0,0,8.43,4c8.14,0,11.92-5.81,14.24-10.1l.88-1.83c-.29-1.84-.59-2.76-1.17-3.06M575,63.4v.92c0,.61-.29,1.53-.29,2.14-1.16,4-4.36,4.9-7.27,4.9a13.8,13.8,0,0,1,1.75-4.9c1.45-3.06,3.19-4.89,4.65-4.89h.58l.29.3V63.1c.29,0,.29,0,.29.3" transform="translate(0)" fill="#fff"/>
  </g>
</svg>
