<svg id="图层_1" data-name="图层 1" xmlns="http://www.w3.org/2000/svg" xmlns:xlink="http://www.w3.org/1999/xlink" width="254.78mm" height="44.41mm" viewBox="0 0 722.21 125.89">
  <defs>
    <clipPath id="clip-path">
      <rect x="49.17" y="36.01" width="84.86" height="51.68" fill="none"/>
    </clipPath>
    <clipPath id="clip-path-2" transform="translate(0)">
      <rect width="722.21" height="125.89" fill="none"/>
    </clipPath>
    <mask id="mask" x="49.17" y="36.01" width="84.86" height="51.8" maskUnits="userSpaceOnUse">
      <g transform="translate(0)">
        <g>
          <rect x="49.17" y="36.01" width="84.86" height="51.68"/>
          <g style="isolation: isolate">
            <g clip-path="url(#clip-path)">
              <rect x="49.17" y="36.01" width="84.86" height="51.8" fill="#fff"/>
            </g>
          </g>
        </g>
      </g>
    </mask>
    <clipPath id="clip-path-4" transform="translate(0)">
      <rect x="49.17" y="36.01" width="84.86" height="51.68" fill="none"/>
    </clipPath>
  </defs>
  <g clip-path="url(#clip-path-2)">
    <g clip-path="url(#clip-path-2)">
      <path d="M659.26,125.89H62.94A62.95,62.95,0,0,1,62.94,0H659.26a62.95,62.95,0,1,1,0,125.89" transform="translate(0)" fill="#5c34dc"/>
      <g mask="url(#mask)">
        <g clip-path="url(#clip-path-4)">
          <path d="M118.37,36.94H94.08V86.75h19.58c6.67,0,15.78-3.22,15.78-13.68,0-5.56-2.75-8.71-6.18-10.47C129,61.27,134,57.78,134,50.17c0-10.58-8.93-13.23-15.66-13.23M111.73,77h-6.65V65.57l6.65.07c3.49,0,6.64,1.63,6.64,5.7s-3.15,5.7-6.64,5.7m4.68-19H105.08V46.65h11.33c4.41,0,6.41,2.45,6.41,5.69s-2,5.68-6.41,5.68M49.17,51.67c0-6.07,3.6-15.66,21-15.66,18.36,0,20.43,15.22,20.43,15.22L80.41,54.15c-.81-4.94-4.75-7.49-10.28-7.49-6.49,0-9.64,1.92-9.64,5.23,0,10.21,29.69,1.9,29.69,21.29,0,8.37-6.55,14.51-19,14.51A18.32,18.32,0,0,1,53.15,75l10.39-3c1.29,2.78,3.43,5,8.23,5,4.43,0,7.08-1.8,7.08-4.18,0-8.66-29.68-.78-29.68-21.19" transform="translate(0)" fill="#fff"/>
        </g>
      </g>
      <rect x="153.25" y="36.94" width="1.53" height="49.81" fill="#fff"/>
      <polygon points="188.58 80 174.28 41.24 182.81 41.24 192.85 69.9 202.94 41.24 211.1 41.24 196.9 80 188.58 80" fill="#fff"/>
      <path d="M208.63,65.8c0-8.37,5.78-14.74,13.82-14.74,8.42,0,13,6.27,13,14.2v2.22H215.86c.54,4.32,3.19,6.91,6.91,6.91,2.92,0,5.24-1.41,6.11-4.16l6.37,2.27c-2.06,5.18-6.86,8.09-12.53,8.09-8.37,0-14.09-6-14.09-14.79m7.5-3.45H227.9a5.08,5.08,0,0,0-5.5-5.24c-3,0-5.35,1.78-6.27,5.24" transform="translate(0)" fill="#fff"/>
      <path d="M256.07,59a17.38,17.38,0,0,0-2.43-.17c-3.94,0-7,2.43-7,6.81V80h-7.56V51.6h7.56v4c1.24-2.49,4-4.16,7.55-4.16a17.84,17.84,0,0,1,1.84.11Z" transform="translate(0)" fill="#fff"/>
      <path d="M258.59,41.24h7.72v7h-7.72ZM266.26,80H258.7V51.6h7.56Z" transform="translate(0)" fill="#fff"/>
      <path d="M285.71,47c-.7,0-1.13,0-1.94,0-2.38,0-3.62.7-3.62,3.51V51.6h5.51v6.32h-5.51V80h-7.56V57.92h-3.83V51.6h3.83V50c0-6,3.24-9.34,10.21-9.34a26.81,26.81,0,0,1,2.91.11Z" transform="translate(0)" fill="#fff"/>
      <path d="M292.8,89.88a21.36,21.36,0,0,1-3-.16v-6.1c.81,0,1.3.11,2.16.11,2,0,3.08-.54,3.89-2.6l.91-2.26L286.59,51.6h7.83l6.42,18.68,6.27-18.68h7.61l-11.23,30c-1.84,5-4.43,8.26-10.69,8.26" transform="translate(0)" fill="#fff"/>
      <path d="M330.65,67.64A14,14,0,0,0,341.93,74c4.05,0,7-1.78,7-5.07,0-3.56-3.67-4-9.5-5.35s-12-3.18-12-10.85c0-7.39,6.37-12,14.41-12,6.7,0,11.93,3,14.63,6.86l-5.24,5.13c-2.26-3.19-5.29-5.35-9.6-5.35-3.78,0-6.38,1.84-6.38,4.65,0,3,2.81,3.61,7.89,4.75,6.15,1.35,13.71,2.91,13.71,11.39,0,7.83-6.91,12.52-15.17,12.52-6.53,0-13.34-3-16.47-7.66Z" transform="translate(0)" fill="#fff"/>
      <path d="M360.56,57.92h-3.78V51.6h3.78V43.51H368V51.6h5.77v6.32H368V71c0,2.43,1.35,2.75,3.56,2.75a19.26,19.26,0,0,0,2.59-.16v6.26a25,25,0,0,1-4.86.43c-5.72,0-8.74-1.89-8.74-7.72Z" transform="translate(0)" fill="#fff"/>
      <path d="M402,80h-7.56V77.09a9.77,9.77,0,0,1-7.66,3.5c-5.89,0-9.67-4-9.67-10.2V51.6h7.56V68.72c0,3.13,1.41,5.18,4.54,5.18a5.23,5.23,0,0,0,5.23-5.61V51.6H402Z" transform="translate(0)" fill="#fff"/>
      <path d="M405.65,65.8c0-8,4.54-14.74,12.37-14.74A9.91,9.91,0,0,1,426,54.52V41.24h7.56V80H426V77.09a9.78,9.78,0,0,1-7.93,3.5c-7.83,0-12.37-6.69-12.37-14.79m14.15-8.26c-4.27,0-6.53,3.4-6.53,8.26s2.26,8.32,6.53,8.32c3.61,0,6.31-2.7,6.31-7.51V65.05c0-4.86-2.7-7.51-6.31-7.51" transform="translate(0)" fill="#fff"/>
      <path d="M437.08,65.8c0-8.37,5.78-14.74,13.82-14.74,8.42,0,13,6.27,13,14.2v2.22H444.31c.54,4.32,3.19,6.91,6.91,6.91,2.92,0,5.24-1.41,6.11-4.16l6.37,2.27c-2.06,5.18-6.86,8.09-12.53,8.09-8.37,0-14.09-6-14.09-14.79m7.5-3.45h11.77a5.08,5.08,0,0,0-5.5-5.24c-3,0-5.35,1.78-6.27,5.24" transform="translate(0)" fill="#fff"/>
      <path d="M467.57,51.6h7.56v2.92a10,10,0,0,1,7.77-3.46c5.94,0,9.56,4,9.56,10.21V80H484.9V63.43c0-3.19-1.3-5.46-4.54-5.46-2.64,0-5.23,1.89-5.23,5.62V80h-7.56Z" transform="translate(0)" fill="#fff"/>
      <path d="M498.24,57.92h-3.78V51.6h3.78V43.51h7.45V51.6h5.78v6.32h-5.78V71c0,2.43,1.35,2.75,3.56,2.75a19.26,19.26,0,0,0,2.59-.16v6.26a24.94,24.94,0,0,1-4.85.43c-5.73,0-8.75-1.89-8.75-7.72Z" transform="translate(0)" fill="#fff"/>
      <path d="M529.12,67.64A14,14,0,0,0,540.4,74c4.05,0,7-1.78,7-5.07,0-3.56-3.67-4-9.5-5.35s-12-3.18-12-10.85c0-7.39,6.37-12,14.42-12,6.69,0,11.93,3,14.63,6.86l-5.24,5.13c-2.27-3.19-5.29-5.35-9.61-5.35-3.78,0-6.37,1.84-6.37,4.65,0,3,2.81,3.61,7.88,4.75,6.16,1.35,13.72,2.91,13.72,11.39,0,7.83-6.92,12.52-15.17,12.52-6.54,0-13.34-3-16.47-7.66Z" transform="translate(0)" fill="#fff"/>
      <path d="M559,57.92h-3.78V51.6H559V43.51h7.45V51.6h5.78v6.32h-5.78V71c0,2.43,1.35,2.75,3.56,2.75a19.52,19.52,0,0,0,2.6-.16v6.26a25,25,0,0,1-4.86.43c-5.73,0-8.75-1.89-8.75-7.72Z" transform="translate(0)" fill="#fff"/>
      <path d="M574.54,72.12c0-5.67,4.53-8.05,10.25-9.07l7.08-1.35v-.43c0-2.43-1.25-3.94-4.38-3.94-2.8,0-4.26,1.24-4.91,3.78l-7.18-1.35c1.3-4.81,5.62-8.7,12.36-8.7,7.18,0,11.5,3.3,11.5,9.88V72.55c0,1.51.65,2,2.32,1.78V80c-4.8.7-7.72-.27-9-2.65-1.83,2-4.69,3.14-8.42,3.14-5.56,0-9.66-3.35-9.66-8.37M591.87,67l-5.56,1.13c-2.49.49-4.32,1.3-4.32,3.57,0,1.94,1.45,3.07,3.72,3.07,3.19,0,6.16-1.67,6.16-4.86Z" transform="translate(0)" fill="#fff"/>
      <path d="M605.43,57.92h-3.78V51.6h3.78V43.51h7.45V51.6h5.78v6.32h-5.78V71c0,2.43,1.35,2.75,3.56,2.75a19.26,19.26,0,0,0,2.59-.16v6.26a24.94,24.94,0,0,1-4.85.43c-5.73,0-8.75-1.89-8.75-7.72Z" transform="translate(0)" fill="#fff"/>
      <path d="M646.89,80h-7.56V77.09a9.81,9.81,0,0,1-7.67,3.5c-5.88,0-9.66-4-9.66-10.2V51.6h7.56V68.72c0,3.13,1.4,5.18,4.53,5.18a5.23,5.23,0,0,0,5.24-5.61V51.6h7.56Z" transform="translate(0)" fill="#fff"/>
      <path d="M654.06,70.39a11.09,11.09,0,0,0,8.59,4.32c2.53,0,4.75-.86,4.75-2.92s-2.11-2.43-6.64-3.29-9.67-2.1-9.67-8.2c0-5.46,4.81-9.24,11.61-9.24,5,0,9.5,2,11.72,4.92l-4.32,4.75A9.57,9.57,0,0,0,662.49,57c-2.38,0-4,1-4,2.59,0,1.83,1.89,2.16,5.4,2.86,5,1,10.85,2.16,10.85,8.58,0,5.94-5.5,9.61-12.3,9.61-5.13,0-10.53-1.89-13.12-5.39Z" transform="translate(0)" fill="#fff"/>
    </g>
  </g>
</svg>
