<svg width="205" height="112" viewBox="0 0 205 112" fill="none" xmlns="http://www.w3.org/2000/svg">
<g clip-path="url(#clip0_4704_1418)">
<path d="M43.9605 16.2257H64.4253V0H33.0618C28.7627 0 25.7709 3.06973 25.7709 7.30028V64H43.9605V41.106H62.942V26.1443H43.9605V16.2257Z" fill="black"/>
<path d="M20.1896 0H2V64H20.1896V0Z" fill="black"/>
<path d="M76.4679 0L63.9979 64H81.6595L84.1234 48.6771H96.7693L99.2332 64H117.071L104.588 0H76.4679ZM86.4866 33.896L88.0705 24.3386L89.7424 13.0657H91.2383L92.9102 24.3386L94.4061 33.896H86.4992H86.4866Z" fill="black"/>
<path d="M195.147 0.0516357V9.63487L195.184 12.5885H194.769L194.116 8.96417L192.067 0.0516357H188.421C187.504 0.0516357 186.837 0.722333 186.837 1.65099V16.0452H189.716V6.47485L189.678 3.5212H190.068L190.747 7.17135L192.783 16.0452H197.987V0.0516357H195.134H195.147Z" fill="black"/>
<path d="M154.795 12.9884H149.239V9.49299H154.204V6.56514H149.239V3.12137H154.732V0.0516357H147.378C146.461 0.0516357 145.795 0.722333 145.795 1.65099V16.0452H154.795V12.9755V12.9884Z" fill="black"/>
<path d="M184.16 0.0516357H180.728V16.0581H184.16V0.0516357Z" fill="black"/>
<path d="M141.407 7.68727C142.752 7.05526 143.23 5.61068 143.23 4.30798C143.23 1.68968 141.709 0.0516357 139.006 0.0516357H134.745C133.827 0.0516357 133.161 0.722333 133.161 1.65099V16.0452H139.157C142.099 16.0452 143.57 13.9557 143.57 11.4277C143.57 9.86703 142.928 8.28057 141.395 7.68727H141.407ZM136.53 2.69573H138.315C139.409 2.69573 139.849 3.27614 139.849 4.54015C139.849 5.80415 139.409 6.56514 138.328 6.56514H136.53V2.68283V2.69573ZM138.529 13.3108H136.53V9.23503H138.554C139.698 9.23503 140.113 9.99601 140.113 11.2471C140.113 12.6014 139.648 13.3237 138.529 13.3237V13.3108Z" fill="black"/>
<path d="M178.817 12.9497H173.55V0.0516357H170.131V16.0581H178.817V12.9497Z" fill="black"/>
<path d="M160.565 10.2668H162.237L164.537 16.058H168.183L166.146 11.3502L165.405 9.75087C166.938 8.98989 167.755 7.42923 167.755 5.22366C167.755 1.90887 166.134 0.0644531 162.878 0.0644531H158.704C157.787 0.0644531 157.121 0.73515 157.121 1.66381V16.0709H160.565V10.2797V10.2668ZM160.565 2.91492H162.627C163.745 2.91492 164.236 3.58561 164.236 5.18497C164.236 6.78432 163.796 7.50661 162.765 7.50661H160.565V2.91492Z" fill="black"/>
<path d="M140.314 28.6207C140.314 27.318 139.761 26.6086 138.504 26.6086C137.247 26.6086 136.605 27.6146 136.593 29.2656H133.111C133.136 25.6799 134.758 23.7839 138.529 23.7839C142.3 23.7839 143.859 25.6799 143.859 28.5433C143.859 31.4067 142.476 33.4575 137.837 37.0431V37.1979L140.527 37.1076H143.758V40.2676H133.425V37.1979C138.969 32.3224 140.314 30.6328 140.314 28.6207Z" fill="black"/>
<path d="M145.191 32.1161C145.191 26.7376 146.461 23.7452 150.722 23.7452C154.984 23.7452 156.228 26.7634 156.228 32.1161C156.228 37.4687 154.984 40.5256 150.722 40.5256C146.461 40.5256 145.191 37.4558 145.191 32.1161ZM150.697 37.5848C152.407 37.5848 152.658 35.7275 152.658 32.1161C152.658 28.5046 152.432 26.6989 150.697 26.6989C148.962 26.6989 148.761 28.5691 148.761 32.1161C148.761 35.663 149.013 37.5848 150.697 37.5848Z" fill="black"/>
<path d="M164.6 28.6207C164.6 27.318 164.047 26.6086 162.79 26.6086C161.533 26.6086 160.892 27.6146 160.879 29.2656H157.397C157.422 25.6799 159.044 23.7839 162.815 23.7839C166.586 23.7839 168.145 25.6799 168.145 28.5433C168.145 31.4067 166.762 33.4575 162.124 37.0431V37.1979L164.814 37.1076H168.044V40.2676H157.711V37.1979C163.255 32.3224 164.6 30.6328 164.6 28.6207Z" fill="black"/>
<path d="M169.327 35.4051H172.733C172.846 36.94 173.399 37.7397 174.644 37.7397C175.888 37.7397 176.542 36.8497 176.542 35.1343C176.542 33.4188 176.027 32.5031 174.719 32.5031C173.412 32.5031 173.135 33.0577 172.897 34.0379H170.382C169.842 34.0379 169.578 33.5994 169.603 33.148L170.118 25.6542C170.181 24.6997 170.785 24.0291 171.74 24.0291H179.471V27.1891H173.01L172.721 30.8521C173.412 30.2588 174.367 29.9621 175.549 29.9621C178.541 29.9621 180.1 31.6776 180.1 35.0569C180.1 38.4361 178.277 40.5256 174.707 40.5256C171.137 40.5256 169.452 38.6683 169.339 35.4309L169.327 35.4051Z" fill="black"/>
</g>
<path d="M1.848 87.696H3.816V105H1.848V87.696ZM7.18669 92.544H9.03469V95.016C9.35469 94.184 9.83469 93.536 10.4747 93.072C11.1147 92.592 11.8987 92.352 12.8267 92.352C13.8827 92.352 14.7787 92.592 15.5147 93.072C16.2667 93.536 16.7467 94.184 16.9547 95.016C17.3067 94.216 17.8347 93.576 18.5387 93.096C19.2587 92.6 20.0587 92.352 20.9387 92.352C22.2827 92.352 23.3387 92.736 24.1067 93.504C24.8907 94.272 25.2827 95.328 25.2827 96.672V105H23.4347V97.008C23.4347 96.096 23.1787 95.368 22.6667 94.824C22.1707 94.28 21.4747 94.008 20.5787 94.008C19.5067 94.008 18.6667 94.448 18.0587 95.328C17.4507 96.208 17.1467 97.36 17.1467 98.784V105H15.2987V97.008C15.2987 96.096 15.0507 95.368 14.5547 94.824C14.0587 94.28 13.3707 94.008 12.4907 94.008C11.4027 94.008 10.5547 94.448 9.94669 95.328C9.33869 96.208 9.03469 97.36 9.03469 98.784V105H7.18669V92.544ZM31.7576 105.192C30.5096 105.192 29.4936 104.872 28.7096 104.232C27.9416 103.592 27.5576 102.736 27.5576 101.664C27.5576 100.608 27.9176 99.76 28.6376 99.12C29.3736 98.464 30.4056 98.048 31.7336 97.872L34.7096 97.488C35.5256 97.36 35.9336 96.976 35.9336 96.336C35.9336 95.632 35.6536 95.064 35.0936 94.632C34.5336 94.184 33.7736 93.96 32.8136 93.96C31.9016 93.96 31.1576 94.176 30.5816 94.608C30.0056 95.04 29.6856 95.656 29.6216 96.456H27.7256C27.8536 95.208 28.3736 94.216 29.2856 93.48C30.1976 92.728 31.3736 92.352 32.8136 92.352C33.7896 92.352 34.6536 92.536 35.4056 92.904C36.1576 93.256 36.7416 93.744 37.1576 94.368C37.5736 94.992 37.7816 95.704 37.7816 96.504V102.528C37.7816 102.912 37.8536 103.168 37.9976 103.296C38.1576 103.424 38.3816 103.488 38.6696 103.488C38.7976 103.488 38.9256 103.472 39.0536 103.44V105C38.7656 105.08 38.4936 105.12 38.2376 105.12C37.5656 105.12 37.0296 104.936 36.6296 104.568C36.2456 104.2 36.0456 103.632 36.0296 102.864C35.6936 103.568 35.1336 104.136 34.3496 104.568C33.5656 104.984 32.7016 105.192 31.7576 105.192ZM31.9736 103.608C33.2216 103.608 34.1976 103.232 34.9016 102.48C35.6056 101.728 35.9576 100.688 35.9576 99.36V98.736L31.9736 99.36C30.2936 99.632 29.4536 100.392 29.4536 101.64C29.4536 102.248 29.6856 102.728 30.1496 103.08C30.6136 103.432 31.2216 103.608 31.9736 103.608ZM46.4053 109.68C44.6933 109.68 43.3493 109.32 42.3733 108.6C41.3973 107.896 40.8373 106.864 40.6933 105.504H42.5653C42.6613 106.32 43.0373 106.952 43.6933 107.4C44.3493 107.848 45.2533 108.072 46.4053 108.072C47.6373 108.072 48.5813 107.76 49.2373 107.136C49.8933 106.512 50.2213 105.616 50.2213 104.448V102.648C49.9333 103.192 49.4133 103.632 48.6613 103.968C47.9253 104.288 47.0933 104.448 46.1653 104.448C44.9493 104.448 43.8933 104.192 42.9973 103.68C42.1173 103.152 41.4453 102.432 40.9813 101.52C40.5173 100.608 40.2853 99.576 40.2853 98.424C40.2853 97.272 40.5173 96.24 40.9813 95.328C41.4453 94.4 42.1093 93.672 42.9733 93.144C43.8533 92.616 44.9013 92.352 46.1173 92.352C46.9493 92.352 47.7413 92.536 48.4933 92.904C49.2613 93.272 49.8373 93.744 50.2213 94.32V92.544H52.0693V104.304C52.0693 106.032 51.5733 107.36 50.5813 108.288C49.6053 109.216 48.2133 109.68 46.4053 109.68ZM46.2853 102.792C47.5173 102.792 48.5013 102.4 49.2373 101.616C49.9893 100.816 50.3653 99.752 50.3653 98.424C50.3653 97.096 49.9893 96.032 49.2373 95.232C48.5013 94.416 47.5173 94.008 46.2853 94.008C45.0533 94.008 44.0613 94.416 43.3093 95.232C42.5733 96.032 42.2053 97.096 42.2053 98.424C42.2053 99.752 42.5733 100.816 43.3093 101.616C44.0613 102.4 45.0533 102.792 46.2853 102.792ZM55.3039 92.544H57.1519V105H55.3039V92.544ZM57.3439 87.504V90.024H55.1599V87.504H57.3439ZM60.4133 92.544H62.2613V95.016C62.7413 94.184 63.3573 93.536 64.1093 93.072C64.8773 92.592 65.7173 92.352 66.6293 92.352C67.4773 92.352 68.2373 92.536 68.9093 92.904C69.5813 93.256 70.1013 93.768 70.4693 94.44C70.8533 95.096 71.0453 95.856 71.0453 96.72V105H69.1973V97.008C69.1973 96.128 68.9333 95.416 68.4053 94.872C67.8773 94.312 67.1653 94.032 66.2693 94.032C65.0533 94.032 64.0773 94.528 63.3413 95.52C62.6213 96.512 62.2613 97.848 62.2613 99.528V105H60.4133V92.544ZM73.3791 98.76C73.3791 97.56 73.6191 96.472 74.0991 95.496C74.5951 94.52 75.2911 93.752 76.1871 93.192C77.0831 92.632 78.1311 92.352 79.3311 92.352C80.4351 92.352 81.4111 92.608 82.2591 93.12C83.1071 93.616 83.7551 94.304 84.2031 95.184C84.6671 96.048 84.8991 97.024 84.8991 98.112C84.8991 98.352 84.8831 98.648 84.8511 99H75.2511C75.2991 100.408 75.6911 101.52 76.4271 102.336C77.1791 103.152 78.1631 103.56 79.3791 103.56C80.3231 103.56 81.1311 103.344 81.8031 102.912C82.4751 102.464 82.8831 101.848 83.0271 101.064H84.8031C84.5791 102.376 83.9711 103.392 82.9791 104.112C81.9871 104.832 80.7871 105.192 79.3791 105.192C78.1791 105.192 77.1231 104.912 76.2111 104.352C75.3151 103.792 74.6191 103.024 74.1231 102.048C73.6271 101.072 73.3791 99.976 73.3791 98.76ZM82.9311 97.44C82.8511 96.4 82.4911 95.56 81.8511 94.92C81.2271 94.264 80.3871 93.936 79.3311 93.936C78.2751 93.936 77.3951 94.248 76.6911 94.872C76.0031 95.496 75.5631 96.352 75.3711 97.44H82.9311ZM98.1465 94.152H94.9065V101.52C94.9065 102.192 95.0665 102.696 95.3865 103.032C95.7065 103.352 96.1705 103.512 96.7785 103.512C97.0665 103.512 97.3385 103.488 97.5945 103.44C97.8665 103.392 98.0505 103.352 98.1465 103.32V105C98.0345 105.032 97.8345 105.072 97.5465 105.12C97.2585 105.168 96.9705 105.192 96.6825 105.192C95.5465 105.192 94.6585 104.896 94.0185 104.304C93.3945 103.696 93.0825 102.792 93.0825 101.592V94.152H90.7065V92.544H93.0825V88.728H94.9065V92.544H98.1465V94.152ZM100.304 87.504H102.152V95.016C102.632 94.184 103.248 93.536 104 93.072C104.768 92.592 105.608 92.352 106.52 92.352C107.368 92.352 108.128 92.536 108.8 92.904C109.472 93.256 109.992 93.768 110.36 94.44C110.744 95.096 110.936 95.856 110.936 96.72V105H109.088V97.008C109.088 96.128 108.824 95.416 108.296 94.872C107.768 94.312 107.056 94.032 106.16 94.032C104.944 94.032 103.968 94.528 103.232 95.52C102.512 96.512 102.152 97.848 102.152 99.528V105H100.304V87.504ZM113.27 98.76C113.27 97.56 113.51 96.472 113.99 95.496C114.486 94.52 115.182 93.752 116.078 93.192C116.974 92.632 118.022 92.352 119.222 92.352C120.326 92.352 121.302 92.608 122.15 93.12C122.998 93.616 123.646 94.304 124.094 95.184C124.558 96.048 124.79 97.024 124.79 98.112C124.79 98.352 124.774 98.648 124.742 99H115.142C115.19 100.408 115.582 101.52 116.318 102.336C117.07 103.152 118.054 103.56 119.27 103.56C120.214 103.56 121.022 103.344 121.694 102.912C122.366 102.464 122.774 101.848 122.918 101.064H124.694C124.47 102.376 123.862 103.392 122.87 104.112C121.878 104.832 120.678 105.192 119.27 105.192C118.07 105.192 117.014 104.912 116.102 104.352C115.206 103.792 114.51 103.024 114.014 102.048C113.518 101.072 113.27 99.976 113.27 98.76ZM122.822 97.44C122.742 96.4 122.382 95.56 121.742 94.92C121.118 94.264 120.278 93.936 119.222 93.936C118.166 93.936 117.286 94.248 116.582 94.872C115.894 95.496 115.454 96.352 115.262 97.44H122.822ZM132.746 87.696H143.666V89.472H134.714V95.112H142.034V96.888H134.714V105H132.746V87.696ZM156.073 105H154.225V102.528C153.745 103.36 153.121 104.016 152.353 104.496C151.601 104.96 150.769 105.192 149.857 105.192C149.009 105.192 148.249 105.016 147.577 104.664C146.905 104.296 146.377 103.784 145.993 103.128C145.625 102.456 145.441 101.688 145.441 100.824V92.544H147.289V100.536C147.289 101.416 147.553 102.136 148.081 102.696C148.609 103.24 149.321 103.512 150.217 103.512C151.433 103.512 152.401 103.016 153.121 102.024C153.857 101.032 154.225 99.696 154.225 98.016V92.544H156.073V105ZM165.295 94.152H162.055V101.52C162.055 102.192 162.215 102.696 162.535 103.032C162.855 103.352 163.319 103.512 163.927 103.512C164.215 103.512 164.487 103.488 164.743 103.44C165.015 103.392 165.199 103.352 165.295 103.32V105C165.183 105.032 164.983 105.072 164.695 105.12C164.407 105.168 164.119 105.192 163.831 105.192C162.695 105.192 161.807 104.896 161.167 104.304C160.543 103.696 160.231 102.792 160.231 101.592V94.152H157.855V92.544H160.231V88.728H162.055V92.544H165.295V94.152ZM177.94 105H176.092V102.528C175.612 103.36 174.988 104.016 174.22 104.496C173.468 104.96 172.636 105.192 171.724 105.192C170.876 105.192 170.116 105.016 169.444 104.664C168.772 104.296 168.244 103.784 167.86 103.128C167.492 102.456 167.308 101.688 167.308 100.824V92.544H169.156V100.536C169.156 101.416 169.42 102.136 169.948 102.696C170.476 103.24 171.188 103.512 172.084 103.512C173.3 103.512 174.268 103.016 174.988 102.024C175.724 101.032 176.092 99.696 176.092 98.016V92.544H177.94V105ZM188.074 94.2C187.994 94.168 187.834 94.136 187.594 94.104C187.354 94.056 187.082 94.032 186.778 94.032C186.09 94.032 185.458 94.264 184.882 94.728C184.322 95.192 183.874 95.896 183.538 96.84C183.218 97.768 183.058 98.896 183.058 100.224V105H181.21V92.544H183.058V95.112C183.362 94.328 183.882 93.672 184.618 93.144C185.37 92.616 186.162 92.352 186.994 92.352C187.41 92.352 187.69 92.368 187.834 92.4C187.994 92.432 188.074 92.448 188.074 92.448V94.2ZM188.434 98.76C188.434 97.56 188.674 96.472 189.154 95.496C189.65 94.52 190.346 93.752 191.242 93.192C192.138 92.632 193.186 92.352 194.386 92.352C195.49 92.352 196.466 92.608 197.314 93.12C198.162 93.616 198.81 94.304 199.258 95.184C199.722 96.048 199.954 97.024 199.954 98.112C199.954 98.352 199.938 98.648 199.906 99H190.306C190.354 100.408 190.746 101.52 191.482 102.336C192.234 103.152 193.218 103.56 194.434 103.56C195.378 103.56 196.186 103.344 196.858 102.912C197.53 102.464 197.938 101.848 198.082 101.064H199.858C199.634 102.376 199.026 103.392 198.034 104.112C197.042 104.832 195.842 105.192 194.434 105.192C193.234 105.192 192.178 104.912 191.266 104.352C190.37 103.792 189.674 103.024 189.178 102.048C188.682 101.072 188.434 99.976 188.434 98.76ZM197.986 97.44C197.906 96.4 197.546 95.56 196.906 94.92C196.282 94.264 195.442 93.936 194.386 93.936C193.33 93.936 192.45 94.248 191.746 94.872C191.058 95.496 190.618 96.352 190.426 97.44H197.986Z" fill="#190A0A"/>
<defs>
<clipPath id="clip0_4704_1418">
<rect width="196" height="64" fill="white" transform="translate(2)"/>
</clipPath>
</defs>
</svg>
