<svg width="208" height="66" viewBox="0 0 208 66" fill="none" xmlns="http://www.w3.org/2000/svg">
<g clip-path="url(#clip0_4710_300)">
<path d="M44.5295 16.7328H66.2474V0H32.9636C28.4013 0 25.2263 3.16566 25.2263 7.52842V66H44.5295V42.3906H64.6732V26.9613H44.5295V16.7328Z" fill="black"/>
<path d="M19.3032 0H0V66H19.3032V0Z" fill="black"/>
<path d="M79.0272 0L65.7937 66H84.5366L87.1513 50.1983H100.572L103.186 66H122.116L108.869 0H79.0272ZM89.6593 34.9553L91.3401 25.0992L93.1144 13.474H94.7019L96.4761 25.0992L98.0636 34.9553H89.6726H89.6593Z" fill="black"/>
<path d="M204.972 0.0532227V9.93593L205.012 12.9819H204.572L203.878 9.24427L201.703 0.0532227H197.835C196.861 0.0532227 196.154 0.744879 196.154 1.70256V16.5466H199.209V6.67716L199.169 3.63122H199.582L200.303 7.39542L202.464 16.5466H207.987V0.0532227H204.958H204.972Z" fill="black"/>
<path d="M162.15 13.3942H156.253V9.78962H161.523V6.77027H156.253V3.21888H162.083V0.0532227H154.279C153.305 0.0532227 152.598 0.744879 152.598 1.70256V16.5466H162.15V13.3809V13.3942Z" fill="black"/>
<path d="M193.313 0.0532227H189.671V16.5599H193.313V0.0532227Z" fill="black"/>
<path d="M147.943 7.92747C149.37 7.27571 149.877 5.78599 149.877 4.44258C149.877 1.74246 148.263 0.0532227 145.395 0.0532227H140.872C139.898 0.0532227 139.191 0.744879 139.191 1.70256V16.5466H145.555C148.676 16.5466 150.237 14.3918 150.237 11.7848C150.237 10.1754 149.557 8.53932 147.929 7.92747H147.943ZM142.767 2.77995H144.661C145.821 2.77995 146.288 3.37849 146.288 4.682C146.288 5.98551 145.821 6.77027 144.674 6.77027H142.767V2.76664V2.77995ZM144.888 13.7267H142.767V9.5236H144.914C146.128 9.5236 146.569 10.3084 146.569 11.5986C146.569 12.9952 146.075 13.74 144.888 13.74V13.7267Z" fill="black"/>
<path d="M187.643 13.3543H182.053V0.0532227H178.425V16.5599H187.643V13.3543Z" fill="black"/>
<path d="M168.273 10.5876H170.047L172.489 16.5598H176.357L174.196 11.7049L173.409 10.0555C175.036 9.27076 175.904 7.66133 175.904 5.38684C175.904 1.96846 174.183 0.0664062 170.728 0.0664062H166.299C165.325 0.0664062 164.618 0.758063 164.618 1.71574V16.5731H168.273V10.6009V10.5876ZM168.273 3.00595H170.461C171.648 3.00595 172.168 3.6976 172.168 5.34694C172.168 6.99627 171.701 7.74114 170.608 7.74114H168.273V3.00595Z" fill="black"/>
<path d="M146.782 29.515C146.782 28.1716 146.195 27.44 144.861 27.44C143.527 27.44 142.847 28.4775 142.833 30.1801H139.138C139.165 26.4824 140.886 24.5271 144.888 24.5271C148.89 24.5271 150.544 26.4824 150.544 29.4352C150.544 32.388 149.076 34.5029 144.154 38.2006V38.3602L147.009 38.2671H150.437V41.5259H139.472V38.3602C145.355 33.3324 146.782 31.59 146.782 29.515Z" fill="black"/>
<path d="M151.958 33.1197C151.958 27.5732 153.305 24.4873 157.828 24.4873C162.35 24.4873 163.671 27.5998 163.671 33.1197C163.671 38.6397 162.35 41.792 157.828 41.792C153.305 41.792 151.958 38.6264 151.958 33.1197ZM157.801 38.7594C159.615 38.7594 159.882 36.844 159.882 33.1197C159.882 29.3954 159.642 27.5333 157.801 27.5333C155.96 27.5333 155.747 29.4619 155.747 33.1197C155.747 36.7775 156.013 38.7594 157.801 38.7594Z" fill="black"/>
<path d="M172.555 29.515C172.555 28.1716 171.968 27.44 170.634 27.44C169.3 27.44 168.62 28.4775 168.606 30.1801H164.911C164.938 26.4824 166.659 24.5271 170.661 24.5271C174.663 24.5271 176.317 26.4824 176.317 29.4352C176.317 32.388 174.85 34.5029 169.927 38.2006V38.3602L172.782 38.2671H176.21V41.5259H165.245V38.3602C171.128 33.3324 172.555 31.59 172.555 29.515Z" fill="black"/>
<path d="M177.571 36.5116H181.186C181.306 38.0944 181.893 38.9191 183.214 38.9191C184.535 38.9191 185.228 38.0013 185.228 36.2323C185.228 34.4632 184.681 33.5188 183.294 33.5188C181.907 33.5188 181.613 34.0908 181.36 35.1017H178.692C178.118 35.1017 177.838 34.6494 177.865 34.1839L178.411 26.456C178.478 25.4717 179.119 24.78 180.132 24.78H188.337V28.0388H181.48L181.173 31.8163C181.907 31.2045 182.92 30.8985 184.174 30.8985C187.349 30.8985 189.004 32.6676 189.004 36.1525C189.004 39.6373 187.069 41.7921 183.281 41.7921C179.492 41.7921 177.704 39.8768 177.584 36.5382L177.571 36.5116Z" fill="black"/>
</g>
<defs>
<clipPath id="clip0_4710_300">
<rect width="208" height="66" fill="white"/>
</clipPath>
</defs>
</svg>
