<svg width="121" height="83" viewBox="0 0 121 83" fill="none" xmlns="http://www.w3.org/2000/svg">
<path d="M46.8859 34.6646C46.119 33.4545 45.1475 32.3467 44.0568 31.3752C42.557 30.0458 40.8697 28.9721 39.1654 27.9495C37.6485 27.0462 35.9442 26.0577 34.7171 24.7454C34.3763 24.3875 33.6264 23.5694 33.2173 22.2571C32.4333 19.7347 33.0469 16.0193 35.8931 15.2694C37.018 14.9626 38.2792 15.0819 39.3018 15.6614C40.6141 16.4113 41.381 17.9281 41.2276 19.445V22.0185H48.9141C49.0334 22.0185 48.7607 17.7577 48.7096 17.3487C48.5051 15.7977 48.1131 14.2638 47.2609 12.9515C45.3521 10.0371 41.6026 8.62253 38.2792 8.52027C35.3136 8.41801 32.1265 9.2361 29.5871 10.8041C27.8828 11.8608 26.7068 13.531 26.0251 15.4228C25.0536 18.1497 24.6957 21.3368 25.2752 24.183C26.1444 28.4779 29.0247 31.4945 32.5356 33.8294C34.1717 34.9202 35.876 35.9087 37.4611 37.0676C38.8927 38.1073 40.171 39.181 40.7334 40.9535C41.5174 43.4759 40.9038 47.1913 38.0576 47.9412C36.9327 48.248 35.6715 48.1287 34.6489 47.5492C33.3366 46.7993 32.5697 45.2825 32.723 43.7656V41.1921H25.0365C24.9172 41.1921 25.19 45.4529 25.2411 45.8619C25.4456 47.4129 25.8376 48.9468 26.6897 50.2591C28.5986 53.1735 32.3481 54.5881 35.6715 54.6903C38.6371 54.7926 41.8242 53.9745 44.3636 52.4065C46.0679 51.3498 47.2439 49.6796 47.9256 47.7878C48.8971 45.0609 49.255 41.8738 48.6755 39.0276C48.3517 37.4426 47.7381 35.9769 46.903 34.6646H46.8859Z" fill="#190A0A"/>
<path d="M103.027 34.6646C102.26 33.4545 101.288 32.3467 100.197 31.3752C98.6976 30.0458 97.0103 28.9721 95.306 27.9495C93.7892 27.0462 92.0849 26.0577 90.8578 24.7454C90.5169 24.3875 89.767 23.5694 89.3579 22.2571C88.574 19.7347 89.1875 16.0193 92.0337 15.2694C93.1586 14.9626 94.4198 15.0819 95.4424 15.6614C96.7547 16.4113 97.5216 17.9281 97.3682 19.445V22.0185H105.055C105.174 22.0185 104.901 17.7577 104.85 17.3487C104.646 15.7977 104.254 14.2638 103.402 12.9515C101.493 10.0371 97.7432 8.62253 94.4198 8.52027C91.4543 8.41801 88.2672 9.2361 85.7277 10.8041C84.0234 11.8608 82.8474 13.531 82.1657 15.4228C81.1942 18.1497 80.8363 21.3368 81.4158 24.183C82.285 28.4779 85.1653 31.4945 88.6762 33.8294C90.3124 34.9202 92.0167 35.9087 93.6017 37.0676C95.0333 38.1073 96.3116 39.181 96.874 40.9535C97.658 43.4759 97.0444 47.1913 94.1982 47.9412C93.0734 48.248 91.8122 48.1287 90.7896 47.5492C89.4772 46.7993 88.7103 45.2825 88.8637 43.7656V41.1921H81.1772C81.0579 41.1921 81.3306 45.4529 81.3817 45.8619C81.5863 47.4129 81.9782 48.9468 82.8304 50.2591C84.7392 53.1735 88.4887 54.5881 91.8122 54.6903C94.7777 54.7926 97.9647 53.9745 100.504 52.4065C102.208 51.3498 103.385 49.6796 104.066 47.7878C105.038 45.0609 105.396 41.8738 104.816 39.0276C104.492 37.4426 103.879 35.9769 103.044 34.6646H103.027Z" fill="#190A0A"/>
<path d="M65.8047 37.6646H69.9633V48.504H64.5605V55.0657H69.9633H78.0247V48.504V37.6646V34.3923V31.1029H65.8047V37.6646Z" fill="#190A0A"/>
<path d="M65.0743 8.99848H65.0061C57.865 8.99848 52.0703 14.7932 52.0703 21.9343V42.1305C52.0703 49.1182 57.6264 54.8106 64.546 55.0492V48.4705C62.0576 48.2319 60.1147 46.1356 60.1147 43.5792V20.4515C60.1147 17.7416 62.3133 15.5431 65.0232 15.5431C67.733 15.5431 69.9316 17.7416 69.9316 20.4515V23.3659H77.993V21.9172C77.993 14.7761 72.1983 8.98145 65.0572 8.98145L65.0743 8.99848Z" fill="#190A0A"/>
<path d="M105.258 0H104.9V64.7642H105.258V0Z" fill="#190A0A"/>
<path d="M120.973 54.4531H0V54.9303H120.973V54.4531Z" fill="#190A0A"/>
<path d="M0.770624 72.6074H1.59129V79.0726H5.22423V79.8232H0.770624V72.6074ZM7.3594 79.9033C7.01912 79.9033 6.71554 79.8433 6.44866 79.7232C6.18178 79.5964 5.97494 79.4229 5.82816 79.2027C5.68137 78.9826 5.60798 78.7257 5.60798 78.4321C5.60798 77.9984 5.7581 77.6448 6.05834 77.3713C6.35858 77.0977 6.78893 76.9242 7.34939 76.8508L8.59039 76.6907C8.76387 76.664 8.89063 76.614 8.9707 76.5406C9.05744 76.4605 9.10081 76.3504 9.10081 76.2103C9.10081 75.9167 8.98404 75.6799 8.75052 75.4997C8.517 75.3129 8.20008 75.2195 7.79975 75.2195C7.41277 75.2195 7.09918 75.3096 6.85899 75.4897C6.62547 75.6699 6.49536 75.9268 6.46867 76.2604H5.67803C5.71807 75.9134 5.82816 75.6132 6.0083 75.3596C6.19512 75.0994 6.44199 74.8993 6.7489 74.7591C7.05582 74.619 7.4061 74.549 7.79975 74.549C8.20675 74.549 8.56704 74.6224 8.88063 74.7692C9.19421 74.9159 9.43774 75.1228 9.61122 75.3897C9.78469 75.6499 9.87143 75.9468 9.87143 76.2804V78.7924C9.87143 78.9459 9.90145 79.0526 9.9615 79.1127C10.0282 79.166 10.1216 79.1927 10.2417 79.1927C10.2951 79.1927 10.3485 79.1861 10.4019 79.1727V79.8232C10.2751 79.8566 10.1617 79.8733 10.0616 79.8733C9.78136 79.8733 9.55784 79.7966 9.39104 79.6431C9.23091 79.4896 9.14751 79.2528 9.14084 78.9325C9.00072 79.2261 8.7672 79.463 8.44027 79.6431C8.12001 79.8166 7.75972 79.9033 7.3594 79.9033ZM7.44947 79.2428C7.96989 79.2428 8.37689 79.086 8.67046 78.7724C8.96403 78.4588 9.11081 78.0251 9.11081 77.4713V77.2111L7.44947 77.4713C7.10252 77.5247 6.83897 77.6315 6.65883 77.7916C6.48535 77.9451 6.39862 78.1552 6.39862 78.4221C6.39862 78.6756 6.49536 78.8758 6.68885 79.0226C6.88234 79.1694 7.13588 79.2428 7.44947 79.2428ZM13.7278 79.9033C13.3408 79.9033 12.9872 79.8199 12.6669 79.6531C12.3466 79.4796 12.1298 79.2728 12.0164 79.0326V79.8232H11.2457V72.5273H12.0164V75.4197C12.1765 75.1661 12.4167 74.9593 12.737 74.7992C13.0572 74.6324 13.3875 74.549 13.7278 74.549C14.2415 74.549 14.6819 74.6657 15.0488 74.8993C15.4225 75.1328 15.706 75.453 15.8995 75.86C16.0997 76.2604 16.1998 76.7141 16.1998 77.2211C16.1998 77.7282 16.103 78.1852 15.9095 78.5922C15.716 78.9992 15.4325 79.3195 15.0588 79.553C14.6852 79.7865 14.2415 79.9033 13.7278 79.9033ZM13.6677 79.2127C14.008 79.2127 14.3082 79.1327 14.5684 78.9726C14.8353 78.8058 15.0388 78.5722 15.1789 78.272C15.3257 77.9651 15.3991 77.6148 15.3991 77.2211C15.3991 76.6273 15.2423 76.1503 14.9287 75.79C14.6151 75.423 14.1948 75.2395 13.6677 75.2395C13.3274 75.2395 13.0239 75.3229 12.757 75.4897C12.4968 75.6499 12.2966 75.8801 12.1565 76.1803C12.0164 76.4805 11.9463 76.8275 11.9463 77.2211C11.9463 77.6215 12.0164 77.9717 12.1565 78.272C12.2966 78.5722 12.4968 78.8058 12.757 78.9726C13.0239 79.1327 13.3274 79.2127 13.6677 79.2127ZM16.9769 76.5106H19.9393V77.1911H16.9769V76.5106ZM21.5087 77.2111C21.5087 77.8316 21.6655 78.322 21.9791 78.6823C22.2927 79.0426 22.7097 79.2228 23.2301 79.2228C23.6238 79.2228 23.9607 79.1293 24.241 78.9425C24.5212 78.7557 24.6913 78.5022 24.7514 78.1819H25.492C25.4252 78.5489 25.2851 78.8625 25.0716 79.1227C24.8648 79.3762 24.6012 79.5697 24.281 79.7031C23.9607 79.8366 23.6104 79.9033 23.2301 79.9033C22.7297 79.9033 22.2894 79.7865 21.9091 79.553C21.5354 79.3195 21.2452 78.9992 21.0384 78.5922C20.8315 78.1852 20.7281 77.7282 20.7281 77.2211C20.7281 76.7141 20.8282 76.2604 21.0283 75.86C21.2352 75.453 21.5254 75.1328 21.8991 74.8993C22.2727 74.6657 22.7097 74.549 23.2101 74.549C23.6772 74.549 24.0875 74.6557 24.4411 74.8692C24.7947 75.0761 25.065 75.3663 25.2518 75.7399C25.4453 76.1069 25.5387 76.5172 25.532 76.9709C25.532 77.071 25.5253 77.1878 25.512 77.3212H21.1685V76.6707H24.7113C24.6913 76.3905 24.6179 76.1403 24.4912 75.9201C24.3711 75.6999 24.2009 75.5264 23.9807 75.3997C23.7606 75.2729 23.5037 75.2095 23.2101 75.2095C22.8565 75.2095 22.5529 75.2929 22.2994 75.4597C22.0458 75.6265 21.849 75.86 21.7089 76.1603C21.5755 76.4605 21.5087 76.8108 21.5087 77.2111ZM26.873 75.2996H25.8922V74.629H26.873V74.0185C26.873 73.5248 27.0064 73.1512 27.2733 72.8976C27.5402 72.6441 27.8938 72.5173 28.3342 72.5173C28.5744 72.5173 28.7912 72.5407 28.9847 72.5874V73.2779C28.8112 73.2312 28.6077 73.2079 28.3742 73.2079C28.1607 73.2079 27.9839 73.2779 27.8438 73.4181C27.7037 73.5582 27.6336 73.765 27.6336 74.0386V74.629H28.9847V75.2996H27.6336V79.8232H26.873V75.2996ZM30.1765 75.2996H29.1957V74.629H30.1765V74.0185C30.1765 73.5248 30.3099 73.1512 30.5768 72.8976C30.8437 72.6441 31.1973 72.5173 31.6376 72.5173C31.8778 72.5173 32.0947 72.5407 32.2882 72.5874V73.2779C32.1147 73.2312 31.9112 73.2079 31.6777 73.2079C31.4642 73.2079 31.2874 73.2779 31.1472 73.4181C31.0071 73.5582 30.9371 73.765 30.9371 74.0386V74.629H32.2882V75.2996H30.9371V79.8232H30.1765V75.2996ZM33.2858 77.2111C33.2858 77.8316 33.4426 78.322 33.7562 78.6823C34.0698 79.0426 34.4868 79.2228 35.0072 79.2228C35.4009 79.2228 35.7378 79.1293 36.0181 78.9425C36.2983 78.7557 36.4684 78.5022 36.5285 78.1819H37.2691C37.2024 78.5489 37.0622 78.8625 36.8487 79.1227C36.6419 79.3762 36.3784 79.5697 36.0581 79.7031C35.7378 79.8366 35.3876 79.9033 35.0072 79.9033C34.5068 79.9033 34.0665 79.7865 33.6862 79.553C33.3125 79.3195 33.0223 78.9992 32.8155 78.5922C32.6086 78.1852 32.5052 77.7282 32.5052 77.2211C32.5052 76.7141 32.6053 76.2604 32.8055 75.86C33.0123 75.453 33.3025 75.1328 33.6762 74.8993C34.0498 74.6657 34.4868 74.549 34.9872 74.549C35.4543 74.549 35.8646 74.6557 36.2182 74.8692C36.5718 75.0761 36.8421 75.3663 37.0289 75.7399C37.2224 76.1069 37.3158 76.5172 37.3091 76.9709C37.3091 77.071 37.3024 77.1878 37.2891 77.3212H32.9456V76.6707H36.4884C36.4684 76.3905 36.395 76.1403 36.2683 75.9201C36.1482 75.6999 35.978 75.5264 35.7579 75.3997C35.5377 75.2729 35.2808 75.2095 34.9872 75.2095C34.6336 75.2095 34.33 75.2929 34.0765 75.4597C33.823 75.6265 33.6261 75.86 33.486 76.1603C33.3526 76.4605 33.2858 76.8108 33.2858 77.2111ZM40.5198 79.9033C40.026 79.9033 39.589 79.7932 39.2087 79.573C38.8284 79.3529 38.5315 79.0393 38.318 78.6323C38.1111 78.2253 38.0077 77.7549 38.0077 77.2211C38.0077 76.6874 38.1111 76.2203 38.318 75.82C38.5315 75.413 38.8284 75.0994 39.2087 74.8792C39.589 74.6591 40.026 74.549 40.5198 74.549C40.9067 74.549 41.2537 74.6224 41.5606 74.7692C41.8675 74.9093 42.121 75.1194 42.3212 75.3997C42.528 75.6799 42.6615 76.0202 42.7215 76.4205H41.9709C41.9042 76.0669 41.7407 75.7833 41.4805 75.5698C41.2203 75.3496 40.9034 75.2395 40.5298 75.2395C40.1828 75.2395 39.8792 75.3229 39.619 75.4897C39.3588 75.6499 39.1587 75.8801 39.0185 76.1803C38.8784 76.4805 38.8084 76.8275 38.8084 77.2211C38.8084 77.8216 38.9652 78.3053 39.2787 78.6723C39.5923 79.0326 40.0093 79.2127 40.5298 79.2127C40.9101 79.2127 41.2303 79.1093 41.4905 78.9025C41.7508 78.689 41.9142 78.3821 41.9809 77.9818H42.7416C42.6281 78.6156 42.3746 79.096 41.9809 79.4229C41.594 79.7432 41.1069 79.9033 40.5198 79.9033ZM45.5654 79.9033C45.0917 79.9033 44.7214 79.7799 44.4545 79.533C44.1943 79.2795 44.0642 78.9025 44.0642 78.4021V75.2996H43.0734V74.629H44.0642V73.0377H44.8248V74.629H46.1759V75.2996H44.8248V78.3721C44.8248 78.6523 44.8915 78.8625 45.025 79.0026C45.1651 79.136 45.3586 79.2027 45.6054 79.2027C45.7856 79.2027 45.9757 79.1761 46.1759 79.1227V79.8232C45.9624 79.8766 45.7589 79.9033 45.5654 79.9033ZM47.0755 74.629H47.8462V79.8232H47.0755V74.629ZM47.0055 72.6074H47.9162V73.6583H47.0055V72.6074ZM48.6257 74.629H49.4163L50.9376 78.9625L52.4788 74.629H53.2494L51.3479 79.8232H50.5272L48.6257 74.629ZM54.3478 77.2111C54.3478 77.8316 54.5046 78.322 54.8182 78.6823C55.1318 79.0426 55.5488 79.2228 56.0692 79.2228C56.4629 79.2228 56.7998 79.1293 57.08 78.9425C57.3603 78.7557 57.5304 78.5022 57.5904 78.1819H58.331C58.2643 78.5489 58.1242 78.8625 57.9107 79.1227C57.7039 79.3762 57.4403 79.5697 57.1201 79.7031C56.7998 79.8366 56.4495 79.9033 56.0692 79.9033C55.5688 79.9033 55.1285 79.7865 54.7481 79.553C54.3745 79.3195 54.0843 78.9992 53.8774 78.5922C53.6706 78.1852 53.5672 77.7282 53.5672 77.2211C53.5672 76.7141 53.6673 76.2604 53.8674 75.86C54.0743 75.453 54.3645 75.1328 54.7381 74.8993C55.1118 74.6657 55.5488 74.549 56.0492 74.549C56.5162 74.549 56.9266 74.6557 57.2802 74.8692C57.6338 75.0761 57.904 75.3663 58.0909 75.7399C58.2843 76.1069 58.3778 76.5172 58.3711 76.9709C58.3711 77.071 58.3644 77.1878 58.3511 77.3212H54.0075V76.6707H57.5504C57.5304 76.3905 57.457 76.1403 57.3302 75.9201C57.2101 75.6999 57.04 75.5264 56.8198 75.3997C56.5996 75.2729 56.3428 75.2095 56.0492 75.2095C55.6956 75.2095 55.392 75.2929 55.1385 75.4597C54.8849 75.6265 54.6881 75.86 54.548 76.1603C54.4145 76.4605 54.3478 76.8108 54.3478 77.2111ZM59.4 74.629H60.1706V75.6599C60.3707 75.3129 60.6276 75.0427 60.9412 74.8492C61.2615 74.6491 61.6117 74.549 61.9921 74.549C62.3457 74.549 62.6626 74.6257 62.9428 74.7792C63.2231 74.9259 63.4399 75.1395 63.5934 75.4197C63.7535 75.6932 63.8335 76.0102 63.8335 76.3704V79.8232H63.0629V76.4905C63.0629 76.1236 62.9528 75.8267 62.7327 75.5998C62.5125 75.3663 62.2156 75.2495 61.8419 75.2495C61.5083 75.2495 61.2148 75.3429 60.9612 75.5298C60.7144 75.7166 60.5209 75.9835 60.3808 76.3304C60.2406 76.6707 60.1706 77.0744 60.1706 77.5414V79.8232H59.4V74.629ZM65.5874 77.2111C65.5874 77.8316 65.7442 78.322 66.0578 78.6823C66.3714 79.0426 66.7884 79.2228 67.3088 79.2228C67.7024 79.2228 68.0394 79.1293 68.3196 78.9425C68.5998 78.7557 68.77 78.5022 68.83 78.1819H69.5706C69.5039 78.5489 69.3638 78.8625 69.1503 79.1227C68.9434 79.3762 68.6799 79.5697 68.3596 79.7031C68.0394 79.8366 67.6891 79.9033 67.3088 79.9033C66.8084 79.9033 66.368 79.7865 65.9877 79.553C65.6141 79.3195 65.3238 78.9992 65.117 78.5922C64.9102 78.1852 64.8068 77.7282 64.8068 77.2211C64.8068 76.7141 64.9068 76.2604 65.107 75.86C65.3138 75.453 65.6041 75.1328 65.9777 74.8993C66.3513 74.6657 66.7884 74.549 67.2888 74.549C67.7558 74.549 68.1661 74.6557 68.5198 74.8692C68.8734 75.0761 69.1436 75.3663 69.3304 75.7399C69.5239 76.1069 69.6173 76.5172 69.6106 76.9709C69.6106 77.071 69.604 77.1878 69.5906 77.3212H65.2471V76.6707H68.79C68.77 76.3905 68.6966 76.1403 68.5698 75.9201C68.4497 75.6999 68.2796 75.5264 68.0594 75.3997C67.8392 75.2729 67.5823 75.2095 67.2888 75.2095C66.9351 75.2095 66.6316 75.2929 66.378 75.4597C66.1245 75.6265 65.9277 75.86 65.7876 76.1603C65.6541 76.4605 65.5874 76.8108 65.5874 77.2111ZM72.3209 79.9033C71.9139 79.9033 71.5536 79.8266 71.24 79.6731C70.9264 79.5197 70.6796 79.3062 70.4994 79.0326C70.3193 78.759 70.2225 78.4588 70.2092 78.1319H70.9798C70.9998 78.4321 71.1299 78.689 71.3701 78.9025C71.617 79.1093 71.9339 79.2127 72.3209 79.2127C72.6612 79.2127 72.9381 79.1327 73.1516 78.9726C73.3651 78.8124 73.4718 78.6189 73.4718 78.3921C73.4718 78.1719 73.4018 77.9984 73.2617 77.8717C73.1282 77.7449 72.9314 77.6481 72.6712 77.5814L71.7304 77.3312C71.3368 77.2245 71.0232 77.0677 70.7896 76.8608C70.5561 76.654 70.4394 76.3504 70.4394 75.9501C70.4394 75.6832 70.5128 75.443 70.6595 75.2295C70.813 75.016 71.0232 74.8492 71.2901 74.7291C71.5636 74.609 71.8705 74.549 72.2108 74.549C72.5644 74.549 72.878 74.6124 73.1516 74.7391C73.4318 74.8659 73.662 75.046 73.8421 75.2796C74.0223 75.5064 74.1324 75.7733 74.1724 76.0802H73.3918C73.3584 75.82 73.235 75.6132 73.0215 75.4597C72.8079 75.2996 72.5377 75.2195 72.2108 75.2195C71.9106 75.2195 71.6704 75.2862 71.4902 75.4197C71.3167 75.5531 71.23 75.7299 71.23 75.9501C71.23 76.1169 71.2901 76.2604 71.4102 76.3805C71.5369 76.5006 71.7104 76.5873 71.9306 76.6407L72.8713 76.8809C73.3184 76.9943 73.662 77.1578 73.9022 77.3713C74.149 77.5848 74.2725 77.925 74.2725 78.3921C74.2725 78.6923 74.1891 78.9559 74.0223 79.1827C73.8621 79.4096 73.6353 79.5864 73.3417 79.7132C73.0481 79.8399 72.7079 79.9033 72.3209 79.9033ZM76.9535 79.9033C76.5465 79.9033 76.1863 79.8266 75.8727 79.6731C75.5591 79.5197 75.3122 79.3062 75.1321 79.0326C74.9519 78.759 74.8552 78.4588 74.8418 78.1319H75.6125C75.6325 78.4321 75.7626 78.689 76.0028 78.9025C76.2496 79.1093 76.5666 79.2127 76.9535 79.2127C77.2938 79.2127 77.5707 79.1327 77.7842 78.9726C77.9977 78.8124 78.1045 78.6189 78.1045 78.3921C78.1045 78.1719 78.0344 77.9984 77.8943 77.8717C77.7609 77.7449 77.564 77.6481 77.3038 77.5814L76.3631 77.3312C75.9694 77.2245 75.6558 77.0677 75.4223 76.8608C75.1888 76.654 75.072 76.3504 75.072 75.9501C75.072 75.6832 75.1454 75.443 75.2922 75.2295C75.4457 75.016 75.6558 74.8492 75.9227 74.7291C76.1963 74.609 76.5032 74.549 76.8435 74.549C77.1971 74.549 77.5107 74.6124 77.7842 74.7391C78.0644 74.8659 78.2946 75.046 78.4748 75.2796C78.6549 75.5064 78.765 75.7733 78.805 76.0802H78.0244C77.991 75.82 77.8676 75.6132 77.6541 75.4597C77.4406 75.2996 77.1704 75.2195 76.8435 75.2195C76.5432 75.2195 76.303 75.2862 76.1229 75.4197C75.9494 75.5531 75.8627 75.7299 75.8627 75.9501C75.8627 76.1169 75.9227 76.2604 76.0428 76.3805C76.1696 76.5006 76.343 76.5873 76.5632 76.6407L77.504 76.8809C77.951 76.9943 78.2946 77.1578 78.5348 77.3713C78.7817 77.5848 78.9051 77.925 78.9051 78.3921C78.9051 78.6923 78.8217 78.9559 78.6549 79.1827C78.4948 79.4096 78.2679 79.5864 77.9744 79.7132C77.6808 79.8399 77.3405 79.9033 76.9535 79.9033ZM85.2965 79.9033C84.6693 79.9033 84.0922 79.7665 83.5651 79.493C83.038 79.2194 82.6143 78.8058 82.294 78.252C81.9738 77.6915 81.8136 77.011 81.8136 76.2103C81.8136 75.4163 81.9738 74.7425 82.294 74.1887C82.621 73.6282 83.048 73.2112 83.5751 72.9377C84.1088 72.6641 84.6826 72.5273 85.2965 72.5273C85.8102 72.5273 86.2806 72.6241 86.7076 72.8176C87.1413 73.0044 87.4983 73.2779 87.7785 73.6382C88.0587 73.9985 88.2388 74.4322 88.3189 74.9393H87.4682C87.3948 74.4189 87.158 74.0119 86.7577 73.7183C86.364 73.4181 85.8769 73.2679 85.2965 73.2679C84.7827 73.2679 84.3257 73.3847 83.9254 73.6182C83.5317 73.8451 83.2215 74.182 82.9946 74.629C82.7744 75.0694 82.6643 75.5965 82.6643 76.2103C82.6643 76.8241 82.7744 77.3546 82.9946 77.8016C83.2215 78.2486 83.5317 78.5889 83.9254 78.8224C84.3257 79.0493 84.7827 79.1627 85.2965 79.1627C85.8769 79.1627 86.3607 79.0193 86.7476 78.7324C87.1346 78.4388 87.3748 78.0318 87.4682 77.5114H88.3189C88.2322 78.0118 88.0454 78.4421 87.7585 78.8024C87.4782 79.156 87.1246 79.4296 86.6976 79.6231C86.2773 79.8099 85.8102 79.9033 85.2965 79.9033ZM89.7476 77.2111C89.7476 77.8316 89.9044 78.322 90.2179 78.6823C90.5315 79.0426 90.9485 79.2228 91.469 79.2228C91.8626 79.2228 92.1996 79.1293 92.4798 78.9425C92.76 78.7557 92.9301 78.5022 92.9902 78.1819H93.7308C93.6641 78.5489 93.524 78.8625 93.3105 79.1227C93.1036 79.3762 92.8401 79.5697 92.5198 79.7031C92.1996 79.8366 91.8493 79.9033 91.469 79.9033C90.9686 79.9033 90.5282 79.7865 90.1479 79.553C89.7743 79.3195 89.484 78.9992 89.2772 78.5922C89.0704 78.1852 88.9669 77.7282 88.9669 77.2211C88.9669 76.7141 89.067 76.2604 89.2672 75.86C89.474 75.453 89.7642 75.1328 90.1379 74.8993C90.5115 74.6657 90.9485 74.549 91.4489 74.549C91.916 74.549 92.3263 74.6557 92.6799 74.8692C93.0336 75.0761 93.3038 75.3663 93.4906 75.7399C93.6841 76.1069 93.7775 76.5172 93.7708 76.9709C93.7708 77.071 93.7642 77.1878 93.7508 77.3212H89.4073V76.6707H92.9502C92.9301 76.3905 92.8568 76.1403 92.73 75.9201C92.6099 75.6999 92.4397 75.5264 92.2196 75.3997C91.9994 75.2729 91.7425 75.2095 91.4489 75.2095C91.0953 75.2095 90.7917 75.2929 90.5382 75.4597C90.2847 75.6265 90.0878 75.86 89.9477 76.1603C89.8143 76.4605 89.7476 76.8108 89.7476 77.2111ZM97.662 75.3196C97.5019 75.2729 97.3217 75.2495 97.1216 75.2495C96.8347 75.2495 96.5711 75.3496 96.3309 75.5498C96.0974 75.7433 95.9106 76.0335 95.7705 76.4205C95.6371 76.8075 95.5703 77.2778 95.5703 77.8316V79.8232H94.7997V74.629H95.5703V75.6999C95.6971 75.3663 95.9139 75.0927 96.2209 74.8792C96.5344 74.6591 96.8647 74.549 97.2117 74.549C97.4185 74.549 97.5686 74.5623 97.662 74.589V75.3196ZM100.356 79.9033C99.8821 79.9033 99.5118 79.7799 99.2449 79.533C98.9847 79.2795 98.8546 78.9025 98.8546 78.4021V75.2996H97.8638V74.629H98.8546V73.0377H99.6152V74.629H100.966V75.2996H99.6152V78.3721C99.6152 78.6523 99.682 78.8625 99.8154 79.0026C99.9555 79.136 100.149 79.2027 100.396 79.2027C100.576 79.2027 100.766 79.1761 100.966 79.1227V79.8232C100.753 79.8766 100.549 79.9033 100.356 79.9033ZM101.866 74.629H102.637V79.8232H101.866V74.629ZM101.796 72.6074H102.707V73.6583H101.796V72.6074ZM104.387 75.2996H103.406V74.629H104.387V74.0185C104.387 73.5248 104.52 73.1512 104.787 72.8976C105.054 72.6441 105.408 72.5173 105.848 72.5173C106.088 72.5173 106.305 72.5407 106.499 72.5874V73.2779C106.325 73.2312 106.122 73.2079 105.888 73.2079C105.675 73.2079 105.498 73.2779 105.358 73.4181C105.218 73.5582 105.148 73.765 105.148 74.0386V74.629H106.499V75.2996H105.148V79.8232H104.387V75.2996ZM107.209 74.629H107.98V79.8232H107.209V74.629ZM107.139 72.6074H108.05V73.6583H107.139V72.6074ZM109.793 77.2111C109.793 77.8316 109.95 78.322 110.263 78.6823C110.577 79.0426 110.994 79.2228 111.514 79.2228C111.908 79.2228 112.245 79.1293 112.525 78.9425C112.806 78.7557 112.976 78.5022 113.036 78.1819H113.776C113.71 78.5489 113.569 78.8625 113.356 79.1227C113.149 79.3762 112.886 79.5697 112.565 79.7031C112.245 79.8366 111.895 79.9033 111.514 79.9033C111.014 79.9033 110.574 79.7865 110.193 79.553C109.82 79.3195 109.53 78.9992 109.323 78.5922C109.116 78.1852 109.012 77.7282 109.012 77.2211C109.012 76.7141 109.113 76.2604 109.313 75.86C109.52 75.453 109.81 75.1328 110.183 74.8993C110.557 74.6657 110.994 74.549 111.494 74.549C111.962 74.549 112.372 74.6557 112.725 74.8692C113.079 75.0761 113.349 75.3663 113.536 75.7399C113.73 76.1069 113.823 76.5172 113.816 76.9709C113.816 77.071 113.81 77.1878 113.796 77.3212H109.453V76.6707H112.996C112.976 76.3905 112.902 76.1403 112.776 75.9201C112.655 75.6999 112.485 75.5264 112.265 75.3997C112.045 75.2729 111.788 75.2095 111.494 75.2095C111.141 75.2095 110.837 75.2929 110.584 75.4597C110.33 75.6265 110.133 75.86 109.993 76.1603C109.86 76.4605 109.793 76.8108 109.793 77.2111ZM116.987 79.9033C116.473 79.9033 116.03 79.7865 115.656 79.553C115.282 79.3195 114.999 78.9992 114.805 78.5922C114.612 78.1852 114.515 77.7282 114.515 77.2211C114.515 76.7141 114.612 76.2604 114.805 75.86C115.005 75.453 115.289 75.1328 115.656 74.8993C116.03 74.6657 116.473 74.549 116.987 74.549C117.327 74.549 117.658 74.6324 117.978 74.7992C118.298 74.9593 118.538 75.1661 118.698 75.4197V72.5273H119.469V79.8232H118.698V79.0326C118.585 79.2728 118.368 79.4796 118.048 79.6531C117.728 79.8199 117.374 79.9033 116.987 79.9033ZM117.047 79.2127C117.387 79.2127 117.688 79.1327 117.948 78.9726C118.215 78.8058 118.418 78.5722 118.558 78.272C118.705 77.9717 118.778 77.6215 118.778 77.2211C118.778 76.8275 118.705 76.4805 118.558 76.1803C118.418 75.8801 118.215 75.6499 117.948 75.4897C117.688 75.3229 117.387 75.2395 117.047 75.2395C116.707 75.2395 116.403 75.3229 116.136 75.4897C115.876 75.6499 115.673 75.8801 115.526 76.1803C115.386 76.4805 115.316 76.8275 115.316 77.2211C115.316 77.6148 115.386 77.9651 115.526 78.272C115.673 78.5722 115.876 78.8058 116.136 78.9726C116.403 79.1327 116.707 79.2127 117.047 79.2127Z" fill="#190A0A"/>
</svg>
