<svg width="240" height="67" viewBox="0 0 240 67" fill="none" xmlns="http://www.w3.org/2000/svg">
<path d="M35.1273 66.4664C15.7268 66.4664 0 56.0569 0 37.1778V0H70.2546V37.1778C70.2546 56.0569 54.5278 66.4664 35.1273 66.4664Z" fill="#E6F4FF"/>
<path opacity="0.4" d="M40.9221 29.8785L37.2058 34.0457H33.7356L29.8934 29.8812C29.8705 29.8554 29.8559 29.8234 29.8512 29.7893C29.8466 29.7551 29.8521 29.7204 29.8672 29.6894C29.8823 29.6584 29.9062 29.6326 29.9359 29.6152C29.9657 29.5978 29.9999 29.5896 30.0343 29.5917H40.7782C40.8124 29.5894 40.8465 29.5973 40.8762 29.6144C40.9059 29.6314 40.9299 29.6568 40.9453 29.6874C40.9606 29.718 40.9666 29.7525 40.9625 29.7865C40.9584 29.8205 40.9443 29.8525 40.9221 29.8785Z" fill="#3F3636"/>
<path d="M23.9181 11.6675C23.9181 11.6675 20.2934 17.0382 18.6014 27.3481C16.8397 38.0813 20.1416 51.1856 20.1416 51.1856" stroke="#3F3636" stroke-width="1.45843" stroke-miterlimit="10" stroke-linecap="round"/>
<path d="M46.4922 11.6675C46.4922 11.6675 50.117 17.0375 51.8089 27.3481C53.5706 38.0813 50.2687 51.1856 50.2687 51.1856" stroke="#3F3636" stroke-width="1.45843" stroke-miterlimit="10" stroke-linecap="round"/>
<path d="M30.0215 29.7679L33.337 33.7177C33.4628 33.8673 33.6198 33.9876 33.7971 34.0701C33.9743 34.1526 34.1674 34.1954 34.3629 34.1954H36.5828C36.7783 34.1957 36.9715 34.1531 37.1488 34.0706C37.326 33.988 37.4829 33.8675 37.6085 33.7177L40.9242 29.7679" stroke="#3F3636" stroke-width="1.45843" stroke-miterlimit="10" stroke-linecap="round"/>
<path d="M31.7129 51.3368C31.7129 51.3368 34.0998 41.9782 33.9179 34.212" stroke="#3F3636" stroke-width="1.45843" stroke-miterlimit="10" stroke-linecap="round"/>
<path d="M39.3087 51.3368C39.3087 51.3368 36.9219 41.9782 37.1036 34.212" stroke="#3F3636" stroke-width="1.45843" stroke-miterlimit="10" stroke-linecap="round"/>
<path d="M120 66.4664C100.6 66.4664 84.873 56.0569 84.873 37.1778V0H155.128V37.1778C155.128 56.0569 139.401 66.4664 120 66.4664Z" fill="#E6F4FF"/>
<path opacity="0.5" d="M119.266 31.9386C117.524 32.9651 116.266 35.9156 116.266 39.3975C116.266 42.8794 117.524 45.8304 119.266 46.8564V31.9386Z" fill="#3F3636"/>
<path opacity="0.5" d="M121.975 31.9386V46.8564C123.717 45.8301 124.975 42.8797 124.975 39.3975C124.975 35.9153 123.717 32.9649 121.975 31.9386Z" fill="#3F3636"/>
<path d="M103.27 11.0841C103.27 11.0841 94.6582 48.4922 112.627 50.8663C117.966 51.4012 120.377 48.1066 120.377 48.1066H120.521C120.521 48.1066 122.932 51.4011 128.272 50.8663C146.242 48.4924 137.63 11.0841 137.63 11.0841" stroke="#3F3636" stroke-width="1.45843" stroke-miterlimit="10" stroke-linecap="round"/>
<path d="M115.555 11.9144C115.555 11.9144 119.61 22.9919 119.177 31.8553" stroke="#3F3636" stroke-width="1.45843" stroke-miterlimit="10" stroke-linecap="round"/>
<path d="M125.743 11.9144C125.743 11.9144 121.687 22.9919 122.12 31.8553" stroke="#3F3636" stroke-width="1.45843" stroke-miterlimit="10" stroke-linecap="round"/>
<path d="M116.318 39.3979C116.318 35.0636 118.269 31.5488 120.675 31.5488C123.08 31.5488 125.031 35.0625 125.031 39.3979" stroke="#3F3636" stroke-width="1.45843" stroke-miterlimit="10" stroke-linecap="round"/>
<path d="M204.873 66.4664C185.473 66.4664 169.746 56.0569 169.746 37.1778V0H240.001V37.1778C240.001 56.0569 224.274 66.4664 204.873 66.4664Z" fill="#E6F4FF"/>
<path opacity="0.2" d="M205.071 37.3373C206.039 37.3401 206.985 37.0559 207.79 36.5207C208.595 35.9855 209.224 35.2234 209.596 34.3308C209.968 33.4382 210.067 32.4553 209.88 31.5065C209.693 30.5577 209.229 29.6857 208.546 29.0009C207.863 28.3161 206.993 27.8492 206.045 27.6595C205.096 27.4697 204.113 27.5656 203.219 27.9349C202.326 28.3042 201.562 28.9304 201.024 29.7342C200.486 30.538 200.199 31.4833 200.199 32.4503C200.198 33.0911 200.323 33.7258 200.568 34.3182C200.812 34.9106 201.171 35.4491 201.623 35.9029C202.076 36.3567 202.613 36.717 203.205 36.9631C203.796 37.2092 204.431 37.3363 205.071 37.3373Z" fill="#3F3636"/>
<path d="M193.989 11.0841C193.989 11.0841 184.365 21.4752 190.403 51.3368" stroke="#3F3636" stroke-width="1.45843" stroke-miterlimit="10" stroke-linecap="round"/>
<path d="M216.148 11.0841C216.148 11.0841 225.773 21.4756 219.735 51.3368" stroke="#3F3636" stroke-width="1.45843" stroke-miterlimit="10" stroke-linecap="round"/>
<path d="M192.07 34.4293C192.07 34.4293 205.071 40.0954 205.071 26.6638" stroke="#3F3636" stroke-width="1.45843" stroke-miterlimit="10" stroke-linecap="round"/>
<path d="M218.07 34.4293C218.07 34.4293 205.07 40.0954 205.07 26.6638" stroke="#3F3636" stroke-width="1.45843" stroke-miterlimit="10" stroke-linecap="round"/>
<path d="M204.083 32.0753C204.083 32.0753 203.813 44.6617 201.383 50.6183" stroke="#3F3636" stroke-width="1.45843" stroke-miterlimit="10" stroke-linecap="round"/>
<path d="M206.059 32.0753C206.059 32.0753 206.328 44.6617 208.758 50.6183" stroke="#3F3636" stroke-width="1.45843" stroke-miterlimit="10" stroke-linecap="round"/>
</svg>
