<svg width="96" height="96" viewBox="0 0 96 96" fill="none" xmlns="http://www.w3.org/2000/svg">
<path d="M-0.00585938 0H96.0001V48C96.0001 60.7312 90.9427 72.9409 81.9404 81.9432C72.9381 90.9455 60.7283 96.003 47.9971 96.003C35.2659 96.003 23.0561 90.9455 14.0538 81.9432C5.05152 72.9409 -0.00585938 60.7312 -0.00585938 48V0Z" fill="#E0004D"/>
<mask id="mask0_675_7" style="mask-type:luminance" maskUnits="userSpaceOnUse" x="-1" y="0" width="97" height="97">
<path d="M-0.00585938 0H96.0001V48C96.0001 60.7312 90.9427 72.9409 81.9404 81.9432C72.9381 90.9455 60.7283 96.003 47.9971 96.003C35.2659 96.003 23.0561 90.9455 14.0538 81.9432C5.05152 72.9409 -0.00585938 60.7312 -0.00585938 48V0Z" fill="white"/>
</mask>
<g mask="url(#mask0_675_7)">
<path d="M-0.00585938 -0.344971H96.3441V47.829C96.3441 60.6058 91.2686 72.8593 82.234 81.8939C73.1994 90.9284 60.9459 96.004 48.1691 96.004C35.3923 96.004 23.1388 90.9284 14.1042 81.8939C5.06968 72.8593 -0.00585938 60.6058 -0.00585938 47.829V-0.344971Z" fill="url(#paint0_linear_675_7)"/>
</g>
<path d="M66.27 52.1279H30.729C29.8174 52.1279 28.9432 51.7658 28.2987 51.1212C27.6541 50.4767 27.292 49.6025 27.292 48.6909C27.292 47.7794 27.6541 46.9051 28.2987 46.2606C28.9432 45.616 29.8174 45.2539 30.729 45.2539H66.27C67.1815 45.2539 68.0558 45.616 68.7003 46.2606C69.3449 46.9051 69.707 47.7794 69.707 48.6909C69.707 49.6025 69.3449 50.4767 68.7003 51.1212C68.0558 51.7658 67.1815 52.1279 66.27 52.1279ZM30.729 47.5459C30.431 47.5547 30.1482 47.6793 29.9406 47.8931C29.733 48.107 29.6168 48.3933 29.6168 48.6914C29.6168 48.9895 29.733 49.2758 29.9406 49.4897C30.1482 49.7036 30.431 49.8281 30.729 49.8369H66.27C66.5679 49.8281 66.8507 49.7036 67.0584 49.4897C67.266 49.2758 67.3821 48.9895 67.3821 48.6914C67.3821 48.3933 67.266 48.107 67.0584 47.8931C66.8507 47.6793 66.5679 47.5547 66.27 47.5459H30.729Z" fill="white"/>
<path d="M66.27 42.74H30.729C29.8174 42.74 28.9432 42.3779 28.2987 41.7333C27.6541 41.0887 27.292 40.2145 27.292 39.303C27.292 38.3914 27.6541 37.5172 28.2987 36.8727C28.9432 36.2281 29.8174 35.866 30.729 35.866H66.27C67.1815 35.866 68.0558 36.2281 68.7003 36.8727C69.3449 37.5172 69.707 38.3914 69.707 39.303C69.707 40.2145 69.3449 41.0887 68.7003 41.7333C68.0558 42.3779 67.1815 42.74 66.27 42.74ZM30.729 38.158C30.431 38.1668 30.1482 38.2913 29.9406 38.5052C29.733 38.7191 29.6168 39.0054 29.6168 39.3035C29.6168 39.6015 29.733 39.8879 29.9406 40.1018C30.1482 40.3156 30.431 40.4402 30.729 40.449H66.27C66.5679 40.4402 66.8507 40.3156 67.0584 40.1018C67.266 39.8879 67.3821 39.6015 67.3821 39.3035C67.3821 39.0054 67.266 38.7191 67.0584 38.5052C66.8507 38.2913 66.5679 38.1668 66.27 38.158H30.729Z" fill="white"/>
<path d="M76.8581 30.155H20.1411V57.844H76.8581V30.155Z" stroke="white" stroke-width="2.297" stroke-miterlimit="10"/>
<defs>
<linearGradient id="paint0_linear_675_7" x1="48.1691" y1="-21.06" x2="48.1691" y2="116.719" gradientUnits="userSpaceOnUse">
<stop stop-color="#E0004D"/>
<stop offset="0.024" stop-color="#E0004D"/>
<stop offset="1" stop-color="#FF7595"/>
</linearGradient>
</defs>
</svg>
