<svg width="96" height="96" viewBox="0 0 96 96" fill="none" xmlns="http://www.w3.org/2000/svg">
<path d="M-0.00598145 0H96V48C96 54.3038 94.7584 60.5459 92.346 66.3699C89.9336 72.1939 86.3978 77.4857 81.9403 81.9432C77.4828 86.4007 72.191 89.9366 66.367 92.349C60.543 94.7614 54.3009 96.003 47.997 96.003C41.6932 96.003 35.4511 94.7614 29.6271 92.349C23.8031 89.9366 18.5113 86.4007 14.0538 81.9432C9.59628 77.4857 6.0604 72.1939 3.64803 66.3699C1.23565 60.5459 -0.00598154 54.3038 -0.00598145 48V0Z" fill="#E0004D"/>
<mask id="mask0_675_8" style="mask-type:luminance" maskUnits="userSpaceOnUse" x="-1" y="0" width="97" height="97">
<path d="M-0.00598145 0H96V48C96 54.3038 94.7584 60.5459 92.346 66.3699C89.9336 72.1939 86.3978 77.4857 81.9403 81.9432C77.4828 86.4007 72.191 89.9366 66.367 92.349C60.543 94.7614 54.3009 96.003 47.997 96.003C41.6932 96.003 35.4511 94.7614 29.6271 92.349C23.8031 89.9366 18.5113 86.4007 14.0538 81.9432C9.59628 77.4857 6.0604 72.1939 3.64803 66.3699C1.23565 60.5459 -0.00598154 54.3038 -0.00598145 48V0Z" fill="white"/>
</mask>
<g mask="url(#mask0_675_8)">
<path d="M-0.00596968 -0.344971H96.343V47.829C96.3719 54.1738 95.1472 60.4619 92.7392 66.3321C90.3311 72.2023 86.7872 77.5389 82.3109 82.0356C77.8346 86.5324 72.5141 90.1006 66.655 92.5353C60.7958 94.9701 54.5134 96.2235 48.1685 96.2235C41.8236 96.2235 35.5412 94.9701 29.6821 92.5353C23.8229 90.1006 18.5024 86.5324 14.0261 82.0356C9.54985 77.5389 6.00594 72.2023 3.5979 66.3321C1.18985 60.4619 -0.0348773 54.1738 -0.00596968 47.829V-0.344971Z" fill="url(#paint0_linear_675_8)"/>
</g>
<mask id="mask1_675_8" style="mask-type:luminance" maskUnits="userSpaceOnUse" x="23" y="16" width="51" height="56">
<path d="M74 16H23V72H74V16Z" fill="white"/>
</mask>
<g mask="url(#mask1_675_8)">
<path d="M24.108 58.9259L23 57.0609L29.393 53.4769L24.642 51.4999C24.2466 51.3402 23.9075 51.0666 23.6677 50.714C23.4279 50.3613 23.2982 49.9454 23.295 49.5189C23.2935 49.2287 23.3546 48.9415 23.474 48.6769L31.8 52.1309L42.2 46.2989C42.218 46.2899 42.235 46.2899 42.244 46.2729C42.5651 46.1117 42.9197 46.0284 43.279 46.0299C43.6602 46.0276 44.0356 46.1241 44.3685 46.3098C44.7015 46.4956 44.9807 46.7643 45.179 47.0899C45.1838 47.0945 45.1869 47.1004 45.188 47.1069H45.179L32.9 53.9999L31.822 62.7299H31.813C31.528 62.701 31.2516 62.6157 30.9999 62.4789C30.7482 62.3422 30.5262 62.1567 30.3468 61.9334C30.1674 61.7101 30.0342 61.4533 29.9549 61.178C29.8756 60.9028 29.8519 60.6145 29.885 60.3299L30.501 55.3399L24.108 58.9289V58.9259Z" fill="white"/>
<path d="M29.393 34.522L23 30.928L24.108 29.063L30.5 32.655L29.884 27.665C29.851 27.3805 29.8748 27.0922 29.9542 26.817C30.0335 26.5418 30.1667 26.2851 30.3461 26.0618C30.5255 25.8385 30.7474 25.6531 30.9991 25.5163C31.2507 25.3795 31.5271 25.2941 31.812 25.265H31.821L32.9 34L47.384 42.133V25.868L40.154 20.592C40.3634 20.3232 40.6317 20.106 40.9382 19.9571C41.2447 19.8082 41.5812 19.7315 41.922 19.733C42.3997 19.7344 42.865 19.8859 43.252 20.166L47.387 23.177V16H49.6V23.179L53.744 20.168C54.2157 19.8254 54.8015 19.6782 55.3792 19.7572C55.9568 19.8362 56.4816 20.1353 56.844 20.592L49.6 25.868V42.134L64.094 34L65.176 25.27C65.7071 25.3275 66.1989 25.577 66.5589 25.9716C66.919 26.3663 67.1224 26.8789 67.131 27.413C67.131 27.491 67.122 27.579 67.113 27.665L66.497 32.655L72.89 29.063L74 30.928L67.6 34.52L72.351 36.491C72.6161 36.5969 72.8573 36.7548 73.0603 36.9554C73.2634 37.156 73.4242 37.3953 73.5332 37.6591C73.6423 37.9229 73.6974 38.2058 73.6953 38.4913C73.6932 38.7767 73.6339 39.0588 73.521 39.321L65.2 35.866L50.718 44L65.2 52.131L73.523 48.676C73.6417 48.9408 73.703 49.2278 73.703 49.518C73.6996 49.9443 73.5701 50.36 73.3307 50.7127C73.0914 51.0655 72.7529 51.3394 72.358 51.5L67.607 53.479L74 57.061L72.892 58.926L66.5 55.343L67.116 60.333C67.1475 60.618 67.1222 60.9063 67.0417 61.1815C66.9613 61.4566 66.8271 61.7131 66.6471 61.9362C66.467 62.1593 66.2446 62.3446 65.9927 62.4813C65.7407 62.6181 65.4642 62.7036 65.179 62.733L64.1 54L49.6 45.864V62.121L56.846 67.4C56.6359 67.6709 56.3664 67.89 56.0584 68.0405C55.7503 68.191 55.4118 68.2688 55.069 68.268C54.5943 68.2652 54.1323 68.1137 53.748 67.835L49.6 64.821V72H47.39V64.821L43.255 67.832C42.7828 68.1754 42.1958 68.3221 41.6176 68.2413C41.0394 68.1606 40.515 67.8586 40.155 67.399L47.388 62.122V44.622L31.8 35.868L23.472 39.321C23.3536 39.0561 23.2926 38.7691 23.293 38.479C23.2957 38.0516 23.4252 37.6345 23.6649 37.2807C23.9047 36.9268 24.244 36.652 24.64 36.491L29.391 34.52L29.393 34.522Z" fill="white"/>
</g>
<defs>
<linearGradient id="paint0_linear_675_8" x1="48.1685" y1="-21.1072" x2="48.1685" y2="116.986" gradientUnits="userSpaceOnUse">
<stop stop-color="#E0004D"/>
<stop offset="0.024" stop-color="#E0004D"/>
<stop offset="1" stop-color="#FF7595"/>
</linearGradient>
</defs>
</svg>
