<svg width="96" height="96" viewBox="0 0 96 96" fill="none" xmlns="http://www.w3.org/2000/svg">
<path d="M-0.00585938 0H96.0002V48C96.0002 60.7312 90.9427 72.9409 81.9404 81.9432C72.9381 90.9455 60.7285 96.003 47.9973 96.003C35.2661 96.003 23.0563 90.9455 14.054 81.9432C5.05165 72.9409 -0.00585938 60.7312 -0.00585938 48V0Z" fill="#E0004D"/>
<mask id="mask0_675_5" style="mask-type:luminance" maskUnits="userSpaceOnUse" x="-1" y="0" width="97" height="97">
<path d="M-0.00585938 0H96.0002V48C96.0002 60.7312 90.9427 72.9409 81.9404 81.9432C72.9381 90.9455 60.7285 96.003 47.9973 96.003C35.2661 96.003 23.0563 90.9455 14.054 81.9432C5.05165 72.9409 -0.00585938 60.7312 -0.00585938 48V0Z" fill="white"/>
</mask>
<g mask="url(#mask0_675_5)">
<path d="M-0.00584767 -0.344971H96.3433V47.829C96.3722 54.1738 95.1473 60.4619 92.7393 66.3321C90.3312 72.2023 86.7873 77.5389 82.3111 82.0356C77.8348 86.5324 72.5144 90.1006 66.6553 92.5353C60.7961 94.9701 54.5136 96.2235 48.1687 96.2235C41.8238 96.2235 35.5415 94.9701 29.6824 92.5353C23.8232 90.1006 18.5027 86.5324 14.0264 82.0356C9.55009 77.5389 6.0062 72.2023 3.59816 66.3321C1.19011 60.4619 -0.0347553 54.1738 -0.00584767 47.829V-0.344971Z" fill="url(#paint0_linear_675_5)"/>
</g>
<mask id="mask1_675_5" style="mask-type:luminance" maskUnits="userSpaceOnUse" x="17" y="32" width="61" height="23">
<path d="M78 32.001H17V55H78V32.001Z" fill="white"/>
</mask>
<g mask="url(#mask1_675_5)">
<path d="M17.3618 51.9139C17.2069 51.7239 17.0991 51.5 17.0471 51.2605C16.9951 51.0209 17.0005 50.7725 17.0626 50.5353C17.1248 50.2982 17.2421 50.0791 17.405 49.8959C17.5678 49.7127 17.7716 49.5705 17.9998 49.4809L18.4308 49.2649C19.9641 51.6649 21.7485 52.8649 23.7838 52.8649C24.9978 52.9 26.1883 52.5248 27.1628 51.7999C27.5942 51.5043 27.947 51.1081 28.191 50.6455C28.4349 50.1829 28.5625 49.6679 28.5628 49.1449C28.5036 48.1809 28.0796 47.2755 27.3768 46.6129C26.1299 45.4052 24.7435 44.3504 23.2468 43.4709C22.02 42.7193 20.8501 41.8784 19.7468 40.9549C19.1582 40.4365 18.6817 39.8032 18.3468 39.0939C18.0549 38.4674 17.9017 37.7852 17.8978 37.0939C17.8958 36.3957 18.0548 35.7064 18.3625 35.0797C18.6702 34.4529 19.1182 33.9055 19.6718 33.4799C20.9375 32.4656 22.5259 31.9402 24.1468 31.9999C25.4378 31.9696 26.714 32.28 27.8468 32.8999C29.0157 33.6002 30.0496 34.5041 30.8998 35.5689L30.5588 35.7919C30.0823 36.0882 29.5244 36.2264 28.9647 36.1869C28.4049 36.1474 27.872 35.9322 27.4418 35.5719C27.2071 35.3719 26.9705 35.1876 26.7318 35.0189C25.9482 34.4921 25.0185 34.2255 24.0748 34.2569C23.1631 34.2184 22.2666 34.4992 21.5398 35.0509C21.2308 35.28 20.9802 35.5789 20.8085 35.9231C20.6369 36.2674 20.5489 36.6473 20.5518 37.0319C20.5467 37.4314 20.6221 37.8277 20.7737 38.1973C20.9252 38.5669 21.1497 38.9021 21.4338 39.1829C22.6957 40.2742 24.0608 41.2401 25.5098 42.0669C27.1495 43.0418 28.6432 44.2433 29.9468 45.6359C30.8335 46.5798 31.34 47.8182 31.3688 49.1129C31.3543 49.9238 31.1499 50.72 30.772 51.4376C30.3941 52.1552 29.8532 52.7742 29.1928 53.2449C27.7703 54.4066 25.9831 55.0282 24.1468 54.9999C22.8562 55.0317 21.5751 54.7706 20.3999 54.2361C19.2248 53.7016 18.186 52.9076 17.3618 51.9139Z" fill="white"/>
<path d="M36.7559 32.5489H37.1919C37.7273 32.5087 38.2571 32.6811 38.6664 33.0287C39.0758 33.3762 39.3317 33.871 39.3789 34.4059V41.7299H52.4929V34.3889C52.5392 33.8592 52.7925 33.369 53.1977 33.0246C53.6029 32.6802 54.1275 32.5093 54.6579 32.5489H55.0779V54.4489H54.6539C54.1245 54.4886 53.6008 54.3182 53.1962 53.9745C52.7915 53.6309 52.5385 53.1418 52.4919 52.6129V43.8659H39.3789V52.6109C39.3317 53.1411 39.0777 53.6313 38.6717 53.9755C38.2658 54.3197 37.7406 54.4902 37.2099 54.4499H36.7559V32.5489Z" fill="white"/>
<path d="M61.4727 32.5489H66.6107C68.5792 32.491 70.5491 32.5984 72.4997 32.8699C73.4616 33.0469 74.3816 33.4035 75.2117 33.9209C75.9551 34.3938 76.5695 35.0439 76.9997 35.8129C77.4329 36.5966 77.6552 37.4795 77.6447 38.3749C77.6694 39.2486 77.4673 40.1139 77.0581 40.8862C76.6489 41.6586 76.0465 42.3117 75.3097 42.7819C73.3159 43.9569 71.003 44.4746 68.6987 44.2619L77.9997 54.4499H77.0897C76.4032 54.4611 75.7218 54.3306 75.0881 54.0665C74.4544 53.8024 73.882 53.4103 73.4067 52.9149L65.5337 44.2619H64.0597V52.5409C64.0107 53.0905 63.7475 53.5988 63.3268 53.9558C62.9062 54.3128 62.3619 54.49 61.8117 54.4489H61.4727V32.5489ZM64.0597 34.6849V42.1279H68.5167C70.1868 42.2544 71.8617 41.955 73.3847 41.2579C73.8904 40.974 74.3054 40.5528 74.582 40.043C74.8586 39.5333 74.9853 38.9557 74.9477 38.3769C74.9817 37.8104 74.8543 37.2458 74.5803 36.7488C74.3063 36.2517 73.8969 35.8426 73.3997 35.5689C71.904 34.8846 70.2622 34.5809 68.6207 34.6849H64.0597Z" fill="white"/>
</g>
<defs>
<linearGradient id="paint0_linear_675_5" x1="48.1687" y1="-21.1072" x2="48.1687" y2="116.986" gradientUnits="userSpaceOnUse">
<stop stop-color="#E0004D"/>
<stop offset="0.024" stop-color="#E0004D"/>
<stop offset="1" stop-color="#FF7595"/>
</linearGradient>
</defs>
</svg>
