<svg width="96" height="96" viewBox="0 0 96 96" fill="none" xmlns="http://www.w3.org/2000/svg">
<path d="M-0.00585938 0H96V48C96 60.7312 90.9427 72.9409 81.9404 81.9432C72.9381 90.9455 60.7283 96.003 47.9971 96.003C35.2659 96.003 23.056 90.9455 14.0537 81.9432C5.0514 72.9409 -0.00585938 60.7312 -0.00585938 48V0Z" fill="#E0004D"/>
<mask id="mask0_675_6" style="mask-type:luminance" maskUnits="userSpaceOnUse" x="-1" y="0" width="97" height="97">
<path d="M-0.00585938 0H96V48C96 60.7312 90.9427 72.9409 81.9404 81.9432C72.9381 90.9455 60.7283 96.003 47.9971 96.003C35.2659 96.003 23.056 90.9455 14.0537 81.9432C5.0514 72.9409 -0.00585938 60.7312 -0.00585938 48V0Z" fill="white"/>
</mask>
<g mask="url(#mask0_675_6)">
<path d="M-0.00585938 -0.344971H96.3442V47.829C96.3442 60.6058 91.2684 72.8593 82.2339 81.8939C73.1993 90.9284 60.9457 96.004 48.1689 96.004C35.3921 96.004 23.1386 90.9284 14.104 81.8939C5.06944 72.8593 -0.00585938 60.6058 -0.00585938 47.829V-0.344971Z" fill="url(#paint0_linear_675_6)"/>
</g>
<path d="M75.0002 17.0131V17.5371C75.0002 20.7491 75.0002 23.9614 75.0002 27.1741C75.0002 33.7191 69.8002 39.0991 62.1772 40.3951C61.1645 40.5596 60.1401 40.6406 59.1142 40.6371C51.9735 40.6571 44.8328 40.6591 37.6922 40.6431C29.1922 40.6161 22.1532 34.7791 22.0302 27.6321C21.9702 24.1761 22.0182 20.7181 22.0182 17.2621C22.0182 17.1821 22.0272 17.1031 22.0312 17.0281C22.3029 16.9675 22.5847 16.9674 22.8565 17.0277C23.1283 17.0881 23.3835 17.2074 23.6041 17.3774C23.8247 17.5473 24.0052 17.7636 24.1329 18.011C24.2606 18.2584 24.3324 18.5308 24.3432 18.8091C24.3512 21.6297 24.3512 24.4507 24.3432 27.2721C24.3422 28.6058 24.611 29.9259 25.1332 31.1531C26.9872 35.5681 32.0452 38.6531 37.6102 38.6801C44.8862 38.7114 52.1625 38.7114 59.4392 38.6801C66.1212 38.6431 71.8502 34.2331 72.5642 28.6571C72.6297 28.1393 72.663 27.618 72.6642 27.0961C72.6742 24.3401 72.6642 21.5851 72.6712 18.8291C72.6806 18.5476 72.7518 18.2715 72.8797 18.0205C73.0075 17.7695 73.1889 17.5497 73.411 17.3764C73.6332 17.2032 73.8906 17.0809 74.1652 17.0181C74.4398 16.9553 74.7248 16.9536 75.0002 17.0131Z" fill="white"/>
<path d="M25.4844 59.2071C26.0974 59.0138 26.7531 59.0005 27.3734 59.1687C27.9938 59.337 28.5529 59.6796 28.9844 60.1561C32.3967 63.5437 36.6848 65.9142 41.3684 67.0021C50.5684 69.1841 58.8684 67.1811 66.2324 61.2021C66.6871 60.8129 67.1211 60.4 67.5324 59.9651C67.9527 59.544 68.4824 59.2488 69.0617 59.1131C69.641 58.9774 70.2468 59.0065 70.8104 59.1971C70.7194 59.3471 70.6534 59.4641 70.5794 59.5761C69.4284 61.2274 67.9975 62.6647 66.3514 63.8231C60.949 67.9638 54.297 70.1401 47.492 69.9932C40.6869 69.8463 34.135 67.385 28.9164 63.0151C27.7047 62.0136 26.629 60.8581 25.7164 59.5781C25.6544 59.4771 25.5924 59.3681 25.4844 59.2071Z" fill="white"/>
<path d="M65.027 51.696C60.25 57.879 54.114 60.766 46.499 60.296C42.6767 60.0345 39.0116 58.6735 35.945 56.377C34.125 55.059 31.845 52.677 31.438 51.66C31.9585 51.4832 32.5167 51.4481 33.0552 51.5581C33.5938 51.6681 34.0935 51.9193 34.503 52.286C35.14 52.86 35.723 53.499 36.388 54.036C39.7559 56.7838 43.9787 58.2673 48.3252 58.2297C52.6717 58.1921 56.8681 56.6357 60.188 53.83C60.758 53.354 61.258 52.793 61.809 52.293C62.242 51.9131 62.7695 51.6571 63.3359 51.552C63.9023 51.4469 64.4865 51.4967 65.027 51.696Z" fill="white"/>
<path d="M58.9461 44.526C56.4561 48.28 53.1361 50.541 48.6711 50.709C43.7781 50.893 40.1121 48.624 37.3711 44.534C37.8629 44.3598 38.3904 44.3109 38.9059 44.3919C39.4213 44.4729 39.9085 44.6813 40.3231 44.998C40.5986 45.2236 40.8613 45.4643 41.1101 45.719C42.8652 47.426 45.1788 48.4402 47.6234 48.5744C50.0681 48.7086 52.4787 47.9537 54.4101 46.449C54.8441 46.0847 55.2584 45.6975 55.6511 45.289C56.0742 44.8668 56.6072 44.5715 57.1896 44.4366C57.7719 44.3018 58.3804 44.3327 58.9461 44.526Z" fill="white"/>
<path d="M55.1323 34.833V34.881H41.2153C41.205 34.881 41.1951 34.8769 41.1877 34.8696C41.1804 34.8623 41.1763 34.8524 41.1763 34.842V34.79C41.1763 34.2712 41.3824 33.7735 41.7492 33.4066C42.116 33.0396 42.6135 32.8333 43.1323 32.833H53.1323C53.6628 32.833 54.1715 33.0437 54.5465 33.4188C54.9216 33.7939 55.1323 34.3026 55.1323 34.833Z" fill="white"/>
<defs>
<linearGradient id="paint0_linear_675_6" x1="48.1692" y1="-21.06" x2="48.1692" y2="116.719" gradientUnits="userSpaceOnUse">
<stop stop-color="#E0004D"/>
<stop offset="0.024" stop-color="#E0004D"/>
<stop offset="1" stop-color="#FF7595"/>
</linearGradient>
</defs>
</svg>
