<svg width="66" height="66" viewBox="0 0 66 66" fill="none" xmlns="http://www.w3.org/2000/svg">
<g clip-path="url(#clip0_2493_162)">
<g clip-path="url(#clip1_2493_162)">
<path d="M62.9476 20.1773C61.3084 16.3075 58.9691 12.8333 55.982 9.84615C52.9992 6.86334 49.5207 4.51971 45.6508 2.88047C41.6419 1.18905 37.3894 0.328125 33.0022 0.328125C28.6149 0.328125 24.3581 1.18905 20.3492 2.88482C16.4793 4.52406 13.0052 6.86334 10.018 9.8505C7.03522 12.8333 4.69158 16.3118 3.05234 20.1816C1.36093 24.1862 0.5 28.443 0.5 32.8303C0.5 34.4521 0.621747 36.0827 0.856546 37.6741C1.01308 38.709 1.97401 39.422 3.01321 39.2699C4.04806 39.1133 4.76115 38.1524 4.60897 37.1175C4.39591 35.7001 4.29156 34.2695 4.29156 32.8346C4.29156 16.9988 17.1707 4.11968 33.0022 4.11968C48.8337 4.11968 61.7128 16.9988 61.7128 32.8303C61.7128 48.6618 48.8337 61.5409 33.0022 61.5409C25.1582 61.5409 17.8316 58.4364 12.3747 52.7968C11.6486 52.0446 10.4485 52.0272 9.69627 52.7534C8.94404 53.4795 8.92665 54.6796 9.65279 55.4318C12.6486 58.5277 16.1663 60.9626 20.1057 62.6671C24.1842 64.4324 28.5236 65.3281 33.0022 65.3281C37.4807 65.3281 41.6462 64.4672 45.6552 62.7714C49.525 61.1322 52.9992 58.7929 55.9863 55.8057C58.9735 52.8186 61.3128 49.3444 62.952 45.4746C64.6478 41.4657 65.5087 37.2089 65.5087 32.8216C65.5087 28.4344 64.6478 24.1775 62.952 20.1686L62.9476 20.1773ZM5.72209 43.8267C4.16546 43.8267 2.90016 45.092 2.90016 46.6486C2.90016 48.2052 4.16546 49.4705 5.72209 49.4705C7.27871 49.4705 8.54402 48.2052 8.54402 46.6486C8.54402 45.092 7.27871 43.8267 5.72209 43.8267Z" fill="#333333"/>
<path d="M13.9317 29.9914H9.58789V27.226C10.6749 27.226 11.575 27.1173 12.2881 26.8955C12.9968 26.6738 13.5577 26.3172 13.9621 25.8302C14.3665 25.3432 14.6361 24.691 14.7665 23.8779H17.6189V43.8314H13.936V29.9957L13.9317 29.9914Z" fill="black"/>
<path d="M24.2539 42.7918C23.0538 41.9526 22.1363 40.7612 21.5015 39.222C20.8667 37.6827 20.5449 35.887 20.5449 33.839C20.5449 31.791 20.8623 30.0257 21.5015 28.4821C22.1363 26.9429 23.0581 25.7515 24.2669 24.9123C25.4757 24.0731 26.9019 23.6514 28.5411 23.6514C30.1803 23.6514 31.637 24.0731 32.8457 24.9123C34.0545 25.7515 34.9807 26.9385 35.6285 28.4691C36.2764 29.9996 36.5982 31.791 36.5982 33.839C36.5982 35.887 36.2764 37.6827 35.6285 39.222C34.985 40.7612 34.0545 41.9526 32.8457 42.7918C31.637 43.631 30.2021 44.0527 28.5411 44.0527C26.8801 44.0527 25.4496 43.6353 24.2495 42.7918H24.2539ZM30.8804 39.9568C31.5152 39.4046 31.9979 38.6045 32.3196 37.5653C32.6414 36.5218 32.8023 35.2826 32.8023 33.8434C32.8023 31.6867 32.437 29.9909 31.7109 28.7648C30.9804 27.5386 29.9282 26.9255 28.5411 26.9255C27.6367 26.9255 26.8671 27.1994 26.2323 27.7429C25.5974 28.2865 25.1148 29.0822 24.793 30.1214C24.4713 31.1649 24.3104 32.4041 24.3104 33.8434C24.3104 36.0392 24.6756 37.7436 25.4018 38.9611C26.1323 40.1786 27.1758 40.7873 28.5411 40.7873C29.4629 40.7873 30.2412 40.509 30.8804 39.9568Z" fill="black"/>
<path d="M42.4375 42.7918C41.2374 41.9526 40.3199 40.7612 39.6851 39.222C39.0503 37.6827 38.7285 35.887 38.7285 33.839C38.7285 31.791 39.0459 30.0257 39.6851 28.4821C40.3199 26.9429 41.2461 25.7515 42.4549 24.9123C43.6636 24.0731 45.0898 23.6514 46.7291 23.6514C48.3683 23.6514 49.8249 24.0731 51.0337 24.9123C52.2425 25.7515 53.1686 26.9385 53.8165 28.4691C54.46 29.9996 54.7861 31.791 54.7861 33.839C54.7861 35.887 54.4644 37.6827 53.8165 39.222C53.1686 40.7612 52.2425 41.9526 51.0337 42.7918C49.8249 43.631 48.39 44.0527 46.7291 44.0527C45.0681 44.0527 43.6375 43.6353 42.4375 42.7918ZM49.064 39.9568C49.6988 39.4046 50.1815 38.6045 50.5032 37.5653C50.825 36.5218 50.9859 35.2826 50.9859 33.8434C50.9859 31.6867 50.6206 29.9909 49.8945 28.7648C49.164 27.5386 48.1074 26.9255 46.7247 26.9255C45.8203 26.9255 45.0507 27.1994 44.4115 27.7429C43.7767 28.2865 43.294 29.0822 42.9723 30.1214C42.6505 31.1649 42.4896 32.4041 42.4896 33.8434C42.4896 36.0392 42.8549 37.7436 43.581 38.9611C44.3115 40.1786 45.355 40.7873 46.7204 40.7873C47.6422 40.7873 48.4205 40.509 49.0596 39.9568H49.064Z" fill="black"/>
</g>
</g>
<defs>
<clipPath id="clip0_2493_162">
<rect width="65" height="65" fill="white" transform="translate(0.5 0.328125)"/>
</clipPath>
<clipPath id="clip1_2493_162">
<rect width="65" height="65" fill="white" transform="translate(0.5 0.328125)"/>
</clipPath>
</defs>
</svg>
