<svg width="72" height="73" viewBox="0 0 72 73" fill="none" xmlns="http://www.w3.org/2000/svg">
<g clip-path="url(#clip0_2510_467)">
<path d="M53.2285 38.1211C53.2285 38.1211 62.6926 41.9926 64.3148 43.5975C67.8367 47.0882 68.7823 55.8106 68.7823 60.6251C68.7823 64.6326 70.6994 69.3021 70.6994 69.3021" stroke="#190A0A" stroke-width="3" stroke-linecap="round" stroke-linejoin="round"/>
<path d="M59.266 49.2651C56.8457 46.409 54.6337 46.4997 52.8294 44.6682C49.3248 41.0867 49.6544 41.3497 46.4361 38.0947C44.5277 36.1634 43.2265 35.0301 41.318 36.3629C39.7132 37.4872 39.878 38.9288 40.6935 40.7603C41.6824 42.9999 46.9479 50.1536 48.0583 51.831C48.2925 52.1937 48.44 52.6017 48.466 53.0459C48.6308 55.4124 49.238 62.1219 57.9301 64.6243" stroke="#190A0A" stroke-width="3" stroke-linecap="round" stroke-linejoin="round"/>
<path d="M49.4102 67.2168C51.8477 68.3774 52.6718 71.17 52.6718 71.17" stroke="#190A0A" stroke-width="3" stroke-linecap="round" stroke-linejoin="round"/>
<path d="M46.2878 62.4301C46.2878 62.4301 13.9138 62.4301 4.09403 62.4301C2.54994 62.4301 1.30078 61.1154 1.30078 59.5015V5.1819C1.30078 3.36852 2.71476 1.89062 4.4497 1.89062H45.6632C47.3981 1.89062 48.8121 3.36852 48.8121 5.1819V33.7425" stroke="#190A0A" stroke-width="3" stroke-linecap="round" stroke-linejoin="round"/>
<path d="M11.3633 13.7227H38.7493" stroke="#190A0A" stroke-width="3" stroke-linecap="round" stroke-linejoin="round"/>
<path d="M11.3633 18.4463H38.7493" stroke="#190A0A" stroke-width="3" stroke-linecap="round" stroke-linejoin="round"/>
<path d="M11.3633 23.1699H23.9156" stroke="#190A0A" stroke-width="3" stroke-linecap="round" stroke-linejoin="round"/>
<path d="M10.8438 38.3389V53.7525" stroke="#190A0A" stroke-width="3" stroke-linecap="round" stroke-linejoin="round"/>
<path d="M15.4668 38.3389V53.7525" stroke="#190A0A" stroke-width="3" stroke-linecap="round" stroke-linejoin="round"/>
<path d="M18.9375 38.3389V53.7525" stroke="#190A0A" stroke-width="3" stroke-linecap="round" stroke-linejoin="round"/>
<path d="M22.4062 38.3389V53.7525" stroke="#190A0A" stroke-width="3" stroke-linecap="round" stroke-linejoin="round"/>
<path d="M27.0391 38.3389V53.7525" stroke="#190A0A" stroke-width="3" stroke-linecap="round" stroke-linejoin="round"/>
<path d="M31.6621 38.3389V53.7525" stroke="#190A0A" stroke-width="3" stroke-linecap="round" stroke-linejoin="round"/>
<path d="M35.1328 38.3389V53.7525" stroke="#190A0A" stroke-width="3" stroke-linecap="round" stroke-linejoin="round"/>
</g>
<defs>
<clipPath id="clip0_2510_467">
<rect width="72" height="72" fill="white" transform="translate(0 0.530273)"/>
</clipPath>
</defs>
</svg>
