<svg width="22" height="22" viewBox="0 0 22 22" fill="none" xmlns="http://www.w3.org/2000/svg">
<path d="M18.8088 19.1005H3.2295C2.14376 19.1005 1.26172 18.2185 1.26172 17.1327V6.4668C1.26172 5.38106 2.14376 4.49902 3.2295 4.49902H18.8088C19.8945 4.49902 20.7765 5.38106 20.7765 6.4668V7.61569C20.7765 7.95384 20.5036 8.2268 20.1654 8.2268C19.8273 8.2268 19.5543 7.95384 19.5543 7.61569V6.4668C19.5543 6.05532 19.2202 5.72125 18.8088 5.72125H3.2295C2.81801 5.72125 2.48394 6.05532 2.48394 6.4668V17.1327C2.48394 17.5442 2.81801 17.8783 3.2295 17.8783H18.8088C19.2202 17.8783 19.5543 17.5442 19.5543 17.1327V11.9587C19.5543 11.6205 19.8273 11.3475 20.1654 11.3475C20.5036 11.3475 20.7765 11.6205 20.7765 11.9587V17.1327C20.7765 18.2185 19.8945 19.1005 18.8088 19.1005Z" fill="black"/>
<path d="M10.9639 13.3191C10.8499 13.3191 10.7358 13.2865 10.636 13.2233L5.23578 9.77667C4.9506 9.59537 4.86708 9.21648 5.05041 8.93333C5.23171 8.64815 5.6106 8.56463 5.89375 8.74796L10.9884 11.9991L19.8699 7.07352C20.1652 6.91056 20.536 7.01648 20.701 7.31185C20.8639 7.60722 20.758 7.98 20.4626 8.14296L11.2613 13.2437C11.1697 13.2946 11.0658 13.3191 10.9639 13.3191Z" fill="black"/>
</svg>
