<svg width="70" height="35" viewBox="0 0 70 35" fill="none" xmlns="http://www.w3.org/2000/svg">
<g clip-path="url(#clip0_1175_11550)">
<path d="M58.7422 34.9995H0.0230168C0.0230168 33.5134 1.22917 32.3072 2.71532 32.3072H58.7396C63.4673 32.3072 67.3011 28.4734 67.3011 23.7457V2.69182H2.6884V26.9226C2.6884 28.4087 1.48225 29.6149 -0.00390625 29.6149V-0.000488281H69.9961V23.7457C69.9961 29.9622 64.9561 34.9995 58.7422 34.9995Z" fill="#6C6AB4"/>
<path d="M56.271 16.1702H13.9426C11.7699 16.1702 9.89874 14.5036 9.79105 12.3363C9.67797 10.0183 11.5303 8.09326 13.8241 8.09326H48.4822C48.4822 9.57942 47.2761 10.7856 45.7899 10.7856H13.886C13.1834 10.7856 12.556 11.2971 12.486 11.9971C12.408 12.7994 13.038 13.4779 13.8268 13.4779H56.2145C56.9172 13.4779 57.5445 12.9663 57.6145 12.2663C57.6926 11.464 57.0626 10.7856 56.2737 10.7856H51.1772C51.1772 9.29942 52.3834 8.09326 53.8695 8.09326H56.158C58.3307 8.09326 60.2018 9.7598 60.3095 11.9271C60.4226 14.2452 58.5703 16.1702 56.2764 16.1702H56.271Z" fill="#6C6AB4"/>
<path d="M56.2715 26.9234H13.8246C11.5981 26.9234 9.78613 25.1114 9.78613 22.8849C9.78613 20.6584 11.5981 18.8464 13.8246 18.8464H56.2715C58.4981 18.8464 60.31 20.6584 60.31 22.8849C60.31 25.1114 58.4981 26.9234 56.2715 26.9234ZM13.8246 21.5387C13.0815 21.5387 12.4784 22.1418 12.4784 22.8849C12.4784 23.628 13.0815 24.2311 13.8246 24.2311H56.2715C57.0146 24.2311 57.6177 23.628 57.6177 22.8849C57.6177 22.1418 57.0146 21.5387 56.2715 21.5387H13.8246Z" fill="#6C6AB4"/>
</g>
<defs>
<clipPath id="clip0_1175_11550">
<rect width="70" height="35" fill="white" transform="translate(-0.00195312 -0.000488281)"/>
</clipPath>
</defs>
</svg>
