<svg width="110" height="18" viewBox="0 0 110 18" fill="none" xmlns="http://www.w3.org/2000/svg">
<g clip-path="url(#clip0_1286_2627)">
<g clip-path="url(#clip1_1286_2627)">
<path fill-rule="evenodd" clip-rule="evenodd" d="M100.651 0.601728L102.641 6.38658L108.857 6.45726C109.392 6.46337 109.614 7.13278 109.185 7.44609L104.197 11.0915L106.05 16.9199C106.209 17.4214 105.63 17.8347 105.193 17.5309L100.122 13.9988L95.0503 17.5301C94.6143 17.834 94.0344 17.42 94.1936 16.9192L96.046 11.0908L91.0587 7.4454C90.6297 7.1321 90.8511 6.46269 91.3861 6.45658L97.6024 6.38589L99.5919 0.601049C99.7636 0.103574 100.48 0.103574 100.651 0.601728Z" fill="#E0004D"/>
<path fill-rule="evenodd" clip-rule="evenodd" d="M77.9478 0.601728L79.9373 6.38658L86.1536 6.45726C86.6886 6.46337 86.91 7.13278 86.481 7.44609L81.4937 11.0915L83.3461 16.9199C83.5053 17.4214 82.9261 17.8347 82.4894 17.5309L77.4184 13.9988L72.3466 17.5301C71.9106 17.834 71.3307 17.42 71.4899 16.9192L73.3424 11.0908L68.3551 7.4454C67.9261 7.1321 68.1475 6.46269 68.6824 6.45658L74.8987 6.38589L76.8883 0.601049C77.0599 0.103574 77.7769 0.103574 77.9478 0.601728Z" fill="#E0004D"/>
<path fill-rule="evenodd" clip-rule="evenodd" d="M55.2358 0.601728L57.2254 6.38658L63.4418 6.45726C63.9767 6.46337 64.1982 7.13278 63.7691 7.44609L58.7817 11.0915L60.6343 16.9199C60.7934 17.4214 60.2142 17.8347 59.7776 17.5309L54.7065 13.9988L49.6347 17.5301C49.1988 17.834 48.6189 17.42 48.778 16.9192L50.6306 11.0908L45.6432 7.4454C45.2141 7.1321 45.4356 6.46269 45.9705 6.45658L52.1869 6.38589L54.1764 0.601049C54.3481 0.103574 55.0649 0.103574 55.2358 0.601728Z" fill="#E0004D"/>
<path fill-rule="evenodd" clip-rule="evenodd" d="M32.5235 0.601728L34.5129 6.38658L40.7293 6.45726C41.2643 6.46337 41.4857 7.13278 41.0566 7.44609L36.0693 11.0915L37.9218 16.9199C38.081 17.4214 37.5018 17.8347 37.0651 17.5309L31.9941 13.9988L26.9223 17.5301C26.4863 17.834 25.9064 17.42 26.0656 16.9192L27.9181 11.0908L22.9308 7.4454C22.5018 7.1321 22.7232 6.46269 23.258 6.45658L29.4744 6.38589L31.464 0.601049C31.6356 0.103574 32.3525 0.103574 32.5235 0.601728Z" fill="#E0004D"/>
<path fill-rule="evenodd" clip-rule="evenodd" d="M9.81987 0.601728L11.8094 6.38658L18.0258 6.45726C18.5606 6.46337 18.7821 7.13278 18.3531 7.44609L13.3657 11.0915L15.2183 16.9199C15.3774 17.4214 14.7982 17.8347 14.3615 17.5309L9.29049 13.9988L4.21872 17.5301C3.78275 17.834 3.20285 17.42 3.36201 16.9192L5.21452 11.0908L0.227187 7.4454C-0.20186 7.1321 0.0195837 6.46269 0.55451 6.45658L6.77086 6.38589L8.7604 0.601049C8.93203 0.103574 9.64895 0.103574 9.81987 0.601728Z" fill="#E0004D"/>
</g>
</g>
<defs>
<clipPath id="clip0_1286_2627">
<rect width="109.41" height="17.8628" fill="white" transform="translate(0.000976562)"/>
</clipPath>
<clipPath id="clip1_1286_2627">
<rect width="109.41" height="17.8628" fill="white" transform="translate(0.000976562)"/>
</clipPath>
</defs>
</svg>
