<svg width="58" height="54" viewBox="0 0 58 54" fill="none" xmlns="http://www.w3.org/2000/svg">
<g clip-path="url(#clip0_6_1626)">
<path d="M56.6515 1.3392V32.67C56.6515 39.213 53.7624 44.3412 48.0639 47.9106C43.1719 50.9742 36.4566 52.6608 29.1541 52.6608H28.9964H28.8477C21.5452 52.6608 14.8299 50.9742 9.93794 47.9088C4.23944 44.3394 1.35031 39.213 1.35031 32.67V1.3392H56.6533M58.0018 0H0V32.67C0 47.8872 14.9622 54 28.8459 54C28.8985 54 28.9474 54 29 54C29.0507 54 29.1015 54 29.1541 54C43.036 54 58 47.8926 58 32.67V0H58.0018Z" fill="#1A1A1A"/>
<path d="M40.5254 34.0081C40.5927 34.2754 40.6947 34.5127 40.8281 34.7122L40.8379 34.7307C40.9798 35.0488 41.2013 35.2915 41.3789 35.468C41.628 35.68 41.8633 35.8812 42.1328 36.0149L42.1465 36.0227C42.3466 36.1553 42.5856 36.2567 42.8545 36.3235L43.3564 36.4485L42.8545 36.5725C42.5856 36.6393 42.3471 36.7408 42.1465 36.8733L42.127 36.884C41.8069 37.025 41.5624 37.2446 41.3848 37.4211C41.1715 37.6686 40.97 37.9024 40.835 38.1702L40.8271 38.1838C40.6937 38.3828 40.5917 38.62 40.5244 38.8879L40.3994 39.387L40.2734 38.8879C40.2062 38.6206 40.1042 38.3828 39.9707 38.1838L39.96 38.1643C39.8175 37.8465 39.5975 37.6034 39.4199 37.427C39.1709 37.2151 38.9355 37.0148 38.666 36.8811L38.6523 36.8733C38.4521 36.7406 38.2139 36.6394 37.9443 36.5725L37.4424 36.4475L37.9443 36.3225C38.2134 36.2557 38.4516 36.1544 38.6523 36.0217L38.6719 36.012C38.9919 35.871 39.2365 35.6514 39.4141 35.4749C39.6274 35.2274 39.8279 34.9927 39.9629 34.7249L39.9707 34.7122C40.1042 34.5132 40.2062 34.2754 40.2734 34.0081L40.3994 33.509L40.5254 34.0081Z" fill="#1A1A1A"/>
<path d="M44.335 32.8528C44.3728 33.003 44.4299 33.1362 44.5049 33.2483L44.5107 33.26C44.5905 33.4386 44.7147 33.5749 44.8145 33.6741C44.9545 33.7933 45.0867 33.9065 45.2383 33.9817L45.2461 33.9856C45.3587 34.0602 45.4932 34.117 45.6445 34.1545L45.9268 34.2249L45.6445 34.2952C45.4933 34.3327 45.3589 34.3896 45.2461 34.4641L45.2354 34.47C45.0554 34.5493 44.9182 34.6734 44.8184 34.7727C44.6984 34.9119 44.5847 35.043 44.5088 35.1936L44.5049 35.2014C44.4298 35.3133 44.3718 35.4463 44.334 35.5969L44.2637 35.8772L44.1934 35.5969C44.1555 35.4466 44.0975 35.3133 44.0225 35.2014L44.0166 35.1907C43.9365 35.0118 43.8128 34.8749 43.7129 34.7756C43.5729 34.6565 43.4405 34.5441 43.2891 34.469L43.2812 34.4641C43.1688 34.3896 43.0351 34.3327 42.8838 34.2952L42.6006 34.2249L42.8838 34.1545C43.0348 34.117 43.1685 34.0601 43.2812 33.9856L43.292 33.9797C43.4719 33.9004 43.6101 33.7772 43.71 33.678C43.8299 33.5388 43.9426 33.4067 44.0186 33.2561L44.0234 33.2483C44.0983 33.1365 44.1556 33.0029 44.1934 32.8528L44.2637 32.5725L44.335 32.8528Z" fill="#1A1A1A"/>
<path d="M40.5097 31.1271C40.607 31.3855 40.7019 31.6439 40.7944 31.9035C40.9511 32.3428 41.4255 32.5839 41.8765 32.4579C42.0969 32.3965 42.3179 32.335 42.5383 32.2735C41.1823 28.2464 39.4877 24.9252 38.1984 22.7004C37.8339 22.0713 37.7973 19.4258 38.8896 14.0391C39.815 12.9494 40.3572 11.6125 40.4575 10.1701C40.4617 10.1122 40.4575 10.0555 40.4491 10H38.9412C38.9376 10.0215 38.9346 10.0436 38.9328 10.0662C38.7509 12.6939 36.6551 14.7517 34.1612 14.7517C33.0839 14.7517 32.0666 14.3811 31.2187 13.6804C31.1785 13.647 31.1352 13.6184 31.0902 13.5945C30.5791 13.2752 29.9018 13.4041 29.5493 13.8983C29.4982 13.9693 29.4472 14.0868 29.4094 14.1692C29.6502 14.3781 29.9036 14.5643 30.1522 14.7582C30.1792 14.7899 30.2092 14.8203 30.2423 14.8478C31.367 15.7782 32.7224 16.2699 34.1618 16.2699C35.1634 16.2699 36.1549 16.0145 37.052 15.5281C36.3098 19.7128 36.2503 22.3793 36.8755 23.4577C37.2844 24.1637 37.6898 24.9055 38.0807 25.6646C37.6958 26.015 36.517 26.9 33.5577 27.9802C31.1184 28.87 28.8131 29.0437 28.5056 29.0634C28.1963 29.0437 25.8814 28.8718 23.4355 27.9802C20.4516 26.891 19.2638 25.9815 18.9119 25.6652C19.3016 24.9085 19.707 24.1661 20.1177 23.4577C20.7428 22.3793 20.6834 19.7128 19.9412 15.5281C20.8383 16.0145 21.8298 16.2699 22.8314 16.2699C24.2012 16.2699 25.494 15.8241 26.5846 14.979C26.593 14.9731 26.6008 14.9659 26.6092 14.9594C26.6566 14.9224 26.7041 14.8859 26.7503 14.8478C26.7695 14.8322 26.7875 14.8155 26.8044 14.7982C27.0944 14.5655 27.3941 14.3518 27.6775 14.1065C27.6391 14.0242 27.588 13.9066 27.5376 13.8356C27.1761 13.3295 26.4723 13.2048 25.957 13.5557C25.9324 13.5724 25.9084 13.5891 25.8838 13.6052C25.8465 13.6261 25.8111 13.65 25.7775 13.6774C25.7655 13.6858 25.7535 13.6936 25.7415 13.7019L25.7433 13.7043C24.9013 14.3894 23.8955 14.7517 22.8308 14.7517C20.3375 14.7517 18.2417 12.6933 18.0598 10.0656C18.058 10.0436 18.055 10.0215 18.052 10H16.5441C16.5351 10.0549 16.5321 10.1122 16.5357 10.1701C16.636 11.6125 17.1776 12.9494 18.1036 14.0391C19.1959 19.4258 19.1593 22.0713 18.7948 22.7004C17.2239 25.411 15.0518 29.7461 13.6232 35.0051C12.845 37.8685 12.7957 40.9431 13.4749 44.1443H13.4737C13.4755 44.1509 13.4767 44.1569 13.4785 44.1623C13.4833 44.1843 13.4875 44.2064 13.4923 44.2279C13.5019 44.2715 13.5145 44.3132 13.5313 44.3532C13.5716 44.5114 13.6058 44.6695 13.655 44.8277H15.3701C15.1725 44.4147 14.9924 43.9271 14.8771 43.3691C14.8549 43.2599 14.8356 43.1531 14.8194 43.0486L14.8176 43.0504C14.3522 40.3684 14.4453 37.7992 15.0975 35.4007C15.4854 33.9726 15.955 32.526 16.4936 31.099C22.883 34.1325 25.5745 37.6471 26.1216 38.4366C26.1324 39.0979 26.1168 41.0738 25.6502 43.3017C25.6448 43.3226 25.64 43.3428 25.6364 43.3614C25.5211 43.9199 25.3247 44.4159 25.1271 44.8289H26.8422C26.8908 44.6719 26.9251 44.5156 26.9647 44.3586C26.9797 44.3228 26.9917 44.2858 27.0013 44.2476C27.4577 42.3659 27.603 40.6054 27.6403 39.3975C27.9663 39.4536 28.257 39.4631 28.4167 39.4631C28.4449 39.4631 28.4684 39.4631 28.4912 39.4619C28.5338 39.4643 28.5987 39.4673 28.6875 39.4673C28.8239 39.4673 29.0689 39.4589 29.3511 39.4088C29.3877 40.5898 29.5289 42.3026 29.9654 44.1437L29.9636 44.1449C29.9678 44.1581 29.9708 44.1712 29.9744 44.1843C29.9792 44.2052 29.984 44.2255 29.9888 44.2464C29.9961 44.2756 30.0051 44.3037 30.0153 44.3311C30.0579 44.4971 30.0927 44.6624 30.1444 44.8283H31.8594C31.6877 44.469 31.5171 44.0471 31.3994 43.5762C30.8812 41.2672 30.859 39.1552 30.868 38.4587C31.4259 37.7449 34.1083 34.6016 40.5073 31.1277L40.5097 31.1271ZM29.4886 37.7604L29.4766 37.7706L29.4676 37.7891C29.3877 37.8637 28.983 37.9711 28.5566 37.9443C28.5518 37.9443 28.547 37.9443 28.5428 37.9443C28.5362 37.9443 28.5302 37.9443 28.5248 37.9449C28.5134 37.9431 28.499 37.9425 28.4834 37.9431C28.081 37.9556 27.6667 37.8732 27.5448 37.8249C27.5418 37.8189 27.5388 37.8124 27.5346 37.8058C27.4223 37.622 24.7176 33.2917 17.0545 29.6817C17.4172 28.8008 17.8081 27.9223 18.2177 27.0647C18.9575 27.6376 20.3483 28.4696 22.9089 29.4047C25.7186 30.4294 28.3567 30.5762 28.4654 30.5816C28.4906 30.5834 28.5206 30.5834 28.5452 30.5816C28.6551 30.5756 31.2757 30.4288 34.0837 29.4047C36.6449 28.4702 38.0351 27.6376 38.7749 27.0647C39.1874 27.9277 39.5808 28.8133 39.9465 29.7019C32.3236 33.8037 29.6814 37.4811 29.488 37.7604H29.4886Z" fill="#1A1A1A"/>
<path d="M42.4643 39.8312C42.4601 40.9562 42.3497 42.1074 42.1323 43.2795C42.1239 43.3141 42.1155 43.3481 42.1082 43.3821C41.993 43.9407 41.8128 44.4277 41.6152 44.8407H43.3303C43.3795 44.6826 43.4138 44.5244 43.454 44.3663C43.4732 44.3221 43.4888 44.2761 43.499 44.2278C43.917 42.2936 44.0689 40.4053 43.9554 38.5815C43.8119 38.5994 43.6684 38.6174 43.5248 38.6353C42.9183 38.711 42.4668 39.2237 42.4643 39.8312Z" fill="#1A1A1A"/>
</g>
<defs>
<clipPath id="clip0_6_1626">
<rect width="58" height="54" fill="white"/>
</clipPath>
</defs>
</svg>
