<svg width="58" height="54" viewBox="0 0 58 54" fill="none" xmlns="http://www.w3.org/2000/svg">
<g clip-path="url(#clip0_6_1642)">
<path d="M56.3003 1.3392V32.67C56.3003 39.213 53.4291 44.3412 47.7659 47.9106C42.9043 50.9742 36.2306 52.6608 28.9733 52.6608H28.8166H28.6689C21.4116 52.6608 14.7379 50.9742 9.87633 47.9088C4.21316 44.3394 1.34194 39.213 1.34194 32.67V1.3392H56.3021M57.6423 0H0V32.67C0 47.8872 14.8694 54 28.6671 54C28.7194 54 28.768 54 28.8202 54C28.8707 54 28.9211 54 28.9733 54C42.7692 54 57.6405 47.8926 57.6405 32.67V0H57.6423Z" fill="#1A1A1A"/>
<path d="M19.0068 21.1487C19.3464 21.0541 19.7331 21.0691 20.1826 21.2375C20.7886 21.4647 21.1896 21.9137 21.5039 22.4221C21.661 22.6763 21.7972 22.9474 21.9268 23.2141C22.0568 23.4818 22.1793 23.7442 22.3105 23.9875C23.0288 25.3187 24.6657 26.3627 26.4824 27.2053C28.2969 28.0468 30.2684 28.6781 31.6445 29.1965C32.9183 29.6765 34.0846 30.3652 34.8926 31.3137C35.7025 32.2645 36.1495 33.4734 35.9863 34.9836C35.9727 35.1102 35.9237 35.237 35.8867 35.3479C35.848 35.4639 35.8203 35.5678 35.8311 35.6702C35.8505 35.8518 35.9849 36.0142 36.1748 36.1409C36.3632 36.2664 36.5922 36.3476 36.7715 36.3713C37.5058 36.4686 38.0866 36.1556 38.7451 35.8586C39.4002 35.5633 40.1187 35.2936 41.0967 35.5286C41.7541 35.6866 42.3848 36.1002 42.9893 36.4758C43.601 36.856 44.1851 37.1969 44.7695 37.2415C45.621 37.3061 46.6329 37.0251 47.4014 36.6458C47.4664 36.6136 47.6101 36.5461 47.7314 36.467C47.7924 36.4273 47.8429 36.387 47.875 36.3508C47.8907 36.3331 47.8993 36.319 47.9033 36.3088C47.9045 36.3058 47.9039 36.3029 47.9043 36.301C47.8998 36.2996 47.8922 36.2974 47.8809 36.2961C47.8452 36.2923 47.7944 36.2963 47.7344 36.3059C47.6753 36.3153 47.6132 36.3287 47.5566 36.3411C47.5033 36.3527 47.4484 36.3648 47.4121 36.3674C46.6181 36.4239 45.7281 36.0959 44.8906 35.6545C44.0514 35.2122 43.2525 34.6491 42.6387 34.2239C40.9827 33.0766 39.3915 31.8321 37.8975 30.4846L37.8896 30.4778V30.4768C37.6727 30.2237 37.6914 29.9131 37.8457 29.7053C38.0013 29.496 38.292 29.3946 38.5967 29.55L38.7568 29.6487C38.9269 29.7684 39.1227 29.9448 39.3125 30.1233C39.5707 30.3661 39.8214 30.6163 40.0029 30.7668C41.0544 31.6386 42.2461 32.5184 43.3711 33.2971C43.8383 33.6205 44.5234 34.1017 45.2324 34.4993C45.5866 34.6979 45.9451 34.8752 46.2842 35.0012C46.6243 35.1276 46.9404 35.201 47.21 35.1965C47.4179 35.1931 47.6014 35.1499 47.8125 35.1243C48.0187 35.0993 48.2359 35.094 48.4766 35.179C48.7218 35.2655 48.8919 35.4176 48.9961 35.6057C49.0996 35.7927 49.1353 36.0114 49.1201 36.2307C49.09 36.6669 48.8573 37.1232 48.5166 37.3752C48.1381 37.6552 47.498 37.9267 46.8438 38.1262C46.1892 38.3258 45.5076 38.4582 45.042 38.4543C44.233 38.4477 43.6342 38.1973 43.0771 37.8782C42.8007 37.7198 42.531 37.5427 42.2549 37.3713C41.9772 37.199 41.6885 37.0301 41.3682 36.885C40.9301 36.6867 40.5728 36.6187 40.2598 36.6272C39.9464 36.6357 39.6714 36.7209 39.3984 36.8391C38.8579 37.0733 38.3073 37.4471 37.5049 37.5364C36.8311 37.6113 36.0782 37.477 35.5137 37.1213C34.9454 36.7632 34.5674 36.1789 34.6621 35.3694C34.6737 35.2714 34.7087 35.1649 34.7402 35.0696C34.7733 34.9699 34.802 34.8823 34.8105 34.8098C35.0659 32.675 33.4932 31.2123 31.6484 30.4573C31.0802 30.2248 30.4869 30.0238 29.8887 29.8235C29.2912 29.6234 28.6883 29.4238 28.1055 29.1926C27.3113 28.8779 26.5332 28.5152 25.7549 28.1741L25.7344 28.2161C26.5162 32.2816 27.2593 36.5367 28.7949 40.3811C29.3364 41.7365 29.7696 42.5589 30.9502 43.4446C31.1139 43.5674 31.3148 43.6779 31.5215 43.7952C31.7256 43.911 31.9354 44.0332 32.1055 44.176C32.2758 44.3191 32.413 44.4885 32.4648 44.7014C32.517 44.9158 32.4799 45.1613 32.3262 45.4495C32.1319 45.8134 31.7986 46.0103 31.4033 46.092C31.0098 46.1734 30.5496 46.1427 30.0879 46.052C29.1646 45.8707 28.2102 45.4437 27.71 45.1438C26.8042 44.6008 26.1142 43.8945 25.5205 43.0334C25.3202 42.7432 25.0782 42.2786 24.835 41.8489C24.7124 41.6324 24.5894 41.4233 24.4688 41.2454C24.3474 41.0663 24.2313 40.9234 24.126 40.8352C23.8631 40.6154 23.4612 40.4149 22.9932 40.2131C22.7602 40.1127 22.5129 40.013 22.2607 39.9104C22.0088 39.8079 21.7523 39.7021 21.502 39.592C21.0021 39.3723 20.5222 39.131 20.1504 38.845C19.7788 38.559 19.506 38.2215 19.4365 37.8098C19.3667 37.3965 19.4834 37.0792 19.6572 36.7366C19.9596 36.1414 20.3334 35.5779 20.6611 35.0081C20.991 34.4345 21.2802 33.845 21.4297 33.179C21.5467 32.6573 21.5404 32.2765 21.4502 31.9163C21.359 31.5525 21.1815 31.2056 20.9473 30.7493C20.1483 29.1929 19.1969 27.7282 18.3428 26.1926L18.3369 26.1829L18.335 26.1721C18.2708 25.8814 18.3854 25.6256 18.585 25.4944C18.7864 25.362 19.0634 25.3635 19.3037 25.5637C19.3625 25.6127 19.422 25.7 19.4717 25.7805C19.4974 25.8222 19.5221 25.8655 19.5449 25.9045C19.568 25.944 19.5886 25.9789 19.6064 26.0071C20.4724 27.3747 21.4843 29.1089 22.1885 30.5618C22.6191 31.4496 22.7497 32.2206 22.6631 32.9817C22.5766 33.7405 22.2742 34.4845 21.8516 35.3186C21.6562 35.7042 21.427 36.075 21.2051 36.4426C20.9861 36.8054 20.7744 37.1667 20.6035 37.5442C20.6089 37.618 20.6584 37.7064 20.7598 37.8059C20.8648 37.909 21.0119 38.0119 21.1729 38.1086C21.4942 38.3019 21.8594 38.4628 22.0381 38.5442C22.2624 38.6463 22.5062 38.7442 22.7578 38.844C23.0086 38.9435 23.2679 39.0448 23.5225 39.1536C24.0315 39.3711 24.5295 39.6207 24.916 39.9504C25.2114 40.2026 25.4458 40.5573 25.6553 40.9231C25.8679 41.2944 26.0511 41.6702 26.2549 41.9905C26.9824 43.1343 27.7749 43.9628 29.0381 44.4993C29.1896 44.5635 29.4922 44.6761 29.7939 44.7727C29.9447 44.821 30.0948 44.865 30.2246 44.8967C30.3559 44.9289 30.4607 44.9474 30.5254 44.9475H31.0986L31.0977 44.9202C30.5248 44.6383 30.0101 44.2291 29.5488 43.802C28.8457 43.151 28.3116 42.2442 27.8848 41.2825C27.4578 40.3204 27.1359 39.2967 26.8584 38.4084C25.8387 35.1428 25.1433 31.707 24.5605 28.3391C24.5431 28.2381 24.5273 28.0267 24.5049 27.8411C24.4933 27.7455 24.48 27.6543 24.4639 27.5803C24.4558 27.5433 24.4473 27.5113 24.4385 27.4866C24.432 27.4685 24.4253 27.4569 24.4209 27.4495C23.2895 26.7525 22.083 25.9224 21.3799 24.7424C21.2191 24.4726 21.0948 24.1853 20.9697 23.9065C20.8439 23.6259 20.7166 23.3525 20.5469 23.1018C20.3227 22.7707 20.0417 22.4676 19.7451 22.345C19.5994 22.2848 19.4517 22.2687 19.3037 22.3118C19.1547 22.3552 18.9971 22.4617 18.8369 22.6594C18.6711 22.8641 18.5105 23.1054 18.3496 23.3538C18.1895 23.6008 18.0285 23.8557 17.8623 24.0813C16.9275 25.3497 15.7634 26.6933 14.4482 27.595C14.282 27.7089 13.9463 27.9513 13.6162 28.0891C13.4515 28.1578 13.279 28.205 13.124 28.1907C12.9625 28.1757 12.8239 28.0942 12.7402 27.9202C12.6594 27.7524 12.6383 27.6073 12.6689 27.4797C12.6995 27.3527 12.7784 27.2549 12.873 27.176C12.9671 27.0977 13.0823 27.0336 13.1924 26.9758C13.3053 26.9166 13.4124 26.8642 13.502 26.8059C14.8026 25.9589 15.9284 24.7089 16.8555 23.4622C17.0581 23.1897 17.2507 22.8784 17.458 22.5667C17.6638 22.2572 17.8829 21.9501 18.1328 21.6975C18.3832 21.4445 18.6683 21.243 19.0068 21.1487Z" fill="#1A1A1A" stroke="#1A1A1A" stroke-width="0.151685"/>
<path d="M17.4648 8.65454C19.1021 8.40661 20.7262 8.56867 22.0752 9.6106H22.0781L22.0986 9.6272C23.6862 10.868 24.3109 13.2139 24.5098 15.1096C24.5169 15.178 24.5178 15.2657 24.5186 15.3586C24.5193 15.4533 24.5195 15.5554 24.5225 15.6555C24.5254 15.7555 24.5313 15.8516 24.5439 15.9338C24.5564 16.0146 24.5754 16.074 24.5977 16.1116C27.9001 19.3105 31.1799 22.531 34.5156 25.6956L35.9502 27.0491L35.959 27.0579L35.8984 27.1047L35.959 27.0588C36.1928 27.3657 36.1563 27.7083 35.9639 27.9124C35.7693 28.1182 35.4342 28.1637 35.1152 27.9192L35.1094 27.9153L35.1611 27.8596L35.1094 27.9143C32.9904 25.9306 30.9159 23.9016 28.8438 21.8713C26.7714 19.8408 24.7012 17.8087 22.5889 15.8196C21.9025 15.1731 21.1546 14.4265 20.4424 13.8372C20.3225 13.7379 20.2064 13.6234 20.0752 13.5325C19.946 13.443 19.8231 13.3926 19.7031 13.4114C19.2896 13.4762 18.7306 13.7044 18.1729 13.9749C17.6174 14.2442 17.0709 14.5515 16.6826 14.7698C14.8714 15.7883 13.1584 16.9765 11.4365 18.1438L11.4336 18.1458C11.0307 18.3881 10.5527 18.0843 10.5508 17.634C10.5499 17.3699 10.7039 17.2393 10.8604 17.1067C11.3263 16.7113 12.1201 16.2279 12.6416 15.8821C13.4807 15.3258 14.6279 14.5624 15.8027 13.8782C16.976 13.1949 18.1842 12.5867 19.1445 12.344C19.7461 12.192 20.1351 12.2211 20.4805 12.3909C20.6505 12.4745 20.8063 12.5909 20.9697 12.7288C21.1313 12.8651 21.3084 13.0306 21.5107 13.2073H21.5117C22.1052 13.7256 22.6634 14.2911 23.2275 14.8333L23.2432 14.8381C23.095 13.2555 22.5472 11.4049 21.2305 10.4641C20.1607 9.69967 18.9036 9.63203 17.6133 9.83325C17.4708 9.85553 17.262 9.91529 17.0479 9.96997C16.9426 9.99685 16.8371 10.0228 16.7412 10.0403C16.6464 10.0576 16.5557 10.0677 16.4824 10.0627C16.1903 10.0427 15.9998 9.83075 15.9473 9.59595C15.8947 9.36077 15.9784 9.09108 16.2402 8.95825C16.3682 8.89342 16.6067 8.82805 16.8408 8.77466C17.0781 8.72056 17.3214 8.67629 17.4648 8.65454Z" fill="#1A1A1A" stroke="#1A1A1A" stroke-width="0.151685"/>
<path d="M13.4463 10.071C13.7023 10.0568 13.9094 10.201 14.0049 10.4011C14.1145 10.6311 14.0754 10.9307 13.8135 11.1443C13.6546 11.2738 13.3982 11.4105 13.1416 11.5398C12.8808 11.6712 12.6174 11.7964 12.4316 11.907C11.9421 12.1983 11.4741 12.5172 10.9873 12.823L10.9785 12.8289L10.9688 12.8318C10.6793 12.9181 10.4234 12.8261 10.2793 12.6384C10.1357 12.4511 10.112 12.1796 10.2617 11.9255L10.2832 11.8875H10.3047C10.7645 11.5598 11.2384 11.2417 11.7236 10.9509C11.8869 10.8531 12.2067 10.6568 12.5244 10.4763C12.6834 10.386 12.8425 10.2983 12.9824 10.2292C13.1203 10.1612 13.2457 10.1079 13.334 10.0876L13.4463 10.071Z" fill="#1A1A1A" stroke="#1A1A1A" stroke-width="0.151685"/>
<path d="M14.9351 10.5053C15.225 10.5053 15.46 10.271 15.46 9.98192C15.46 9.69284 15.225 9.4585 14.9351 9.4585C14.6452 9.4585 14.4102 9.69284 14.4102 9.98192C14.4102 10.271 14.6452 10.5053 14.9351 10.5053Z" fill="#1A1A1A"/>
<path d="M36.9966 29.3618C37.2865 29.3618 37.5215 29.1274 37.5215 28.8384C37.5215 28.5493 37.2865 28.3149 36.9966 28.3149C36.7067 28.3149 36.4717 28.5493 36.4717 28.8384C36.4717 29.1274 36.7067 29.3618 36.9966 29.3618Z" fill="#1A1A1A"/>
<path d="M29.8024 13.3773C29.847 13.5552 29.9145 13.7126 30.0029 13.8453L30.01 13.8582C30.1039 14.0696 30.2503 14.2313 30.3679 14.3486C30.5329 14.4895 30.6892 14.6229 30.8676 14.7119L30.8767 14.717C31.0093 14.8051 31.1675 14.8724 31.3459 14.9169L31.679 14.9999L31.3459 15.083C31.1675 15.1274 31.0097 15.1947 30.8767 15.2829L30.8636 15.29C30.6517 15.3836 30.4895 15.5296 30.3719 15.6469C30.2306 15.8114 30.0972 15.9673 30.0076 16.1452L30.0025 16.1542C29.9141 16.2864 29.8466 16.4439 29.802 16.6221L29.7187 16.9543L29.6354 16.6221C29.5908 16.4443 29.5233 16.2868 29.4349 16.1542L29.4278 16.1412C29.3335 15.9299 29.1875 15.7681 29.0699 15.6509C28.9049 15.51 28.7486 15.3766 28.5702 15.2876L28.5611 15.2825C28.4285 15.1943 28.2707 15.127 28.0919 15.0826L27.7588 14.9995L28.0919 14.9165C28.2703 14.872 28.4281 14.8047 28.5611 14.7166L28.5742 14.7095C28.7861 14.6158 28.9483 14.4698 29.0659 14.3525C29.2072 14.188 29.3406 14.0322 29.4302 13.8543L29.4353 13.8453C29.5237 13.713 29.5912 13.5552 29.6358 13.3773L29.7191 13.0452L29.8024 13.3773Z" fill="#1A1A1A"/>
<path d="M34.3537 14.2313C34.3896 14.3741 34.4437 14.5005 34.5147 14.6067L34.5203 14.617C34.5956 14.7866 34.7132 14.9164 34.8076 15.0105C34.9402 15.1238 35.0653 15.2309 35.2089 15.3021L35.2161 15.3065C35.3226 15.3773 35.4497 15.4312 35.5926 15.467L35.8598 15.5335L35.5926 15.6C35.4493 15.6359 35.3226 15.6898 35.2161 15.7606L35.2058 15.7661C35.0357 15.8413 34.9055 15.9586 34.8111 16.0526C34.6975 16.1849 34.5905 16.3096 34.5187 16.4529L34.5143 16.46C34.4433 16.5662 34.3892 16.6925 34.3533 16.8354L34.2866 17.1018L34.2199 16.8354C34.184 16.6925 34.1299 16.5662 34.0589 16.46L34.0534 16.4497C33.9776 16.2801 33.8604 16.1502 33.766 16.0562C33.6334 15.9428 33.5083 15.8358 33.3647 15.7645L33.3576 15.7602C33.251 15.6894 33.1243 15.6355 32.9811 15.5997L32.7139 15.5331L32.9811 15.4666C33.1243 15.4308 33.251 15.3769 33.3576 15.3061L33.3678 15.3006C33.5379 15.2254 33.6682 15.1081 33.7625 15.014C33.8762 14.8818 33.9831 14.7571 34.0549 14.6138L34.0593 14.6067C34.1303 14.5005 34.1844 14.3737 34.2203 14.2313L34.287 13.9648L34.3537 14.2313Z" fill="#1A1A1A"/>
<path d="M34.1136 18.7261C34.1456 18.8536 34.1941 18.9662 34.2573 19.0614L34.2624 19.0705C34.3299 19.222 34.4345 19.3377 34.519 19.4219C34.6374 19.5231 34.749 19.6187 34.8773 19.6825L34.8836 19.6864C34.9787 19.7498 35.092 19.7978 35.2199 19.8296L35.4587 19.8891L35.2199 19.9485C35.092 19.9804 34.9791 20.0288 34.8836 20.0918L34.8745 20.0969C34.7226 20.1642 34.6066 20.2685 34.5221 20.3527C34.4207 20.4707 34.3252 20.5821 34.2608 20.71L34.2573 20.7163C34.1937 20.8112 34.1456 20.9241 34.1136 21.0516L34.054 21.2897L33.9944 21.0516C33.9625 20.9241 33.9139 20.8112 33.8508 20.7163L33.8456 20.7073C33.7782 20.5557 33.6736 20.44 33.5891 20.3558C33.4707 20.2547 33.359 20.159 33.2308 20.0953L33.2244 20.0914C33.1293 20.028 33.0161 19.98 32.8882 19.9481L32.6494 19.8887L32.8882 19.8293C33.0161 19.7974 33.1289 19.749 33.2244 19.686L33.2335 19.6809C33.3855 19.6136 33.5015 19.5093 33.586 19.4251C33.6874 19.307 33.7829 19.1956 33.8472 19.0677L33.8508 19.0614C33.9143 18.9666 33.9625 18.8536 33.9944 18.7261L34.054 18.488L34.1136 18.7261Z" fill="#1A1A1A"/>
</g>
<defs>
<clipPath id="clip0_6_1642">
<rect width="57.6404" height="54" fill="white"/>
</clipPath>
</defs>
</svg>
