<svg width="58" height="54" viewBox="0 0 58 54" fill="none" xmlns="http://www.w3.org/2000/svg">
<g clip-path="url(#clip0_6_1661)">
<path d="M56.3003 1.3392V32.67C56.3003 39.213 53.4291 44.3412 47.7659 47.9106C42.9043 50.9742 36.2306 52.6608 28.9733 52.6608H28.8166H28.6689C21.4116 52.6608 14.7379 50.9742 9.87633 47.9088C4.21316 44.3394 1.34194 39.213 1.34194 32.67V1.3392H56.3021M57.6423 0H0V32.67C0 47.8872 14.8694 54 28.6671 54C28.7194 54 28.768 54 28.8202 54C28.8707 54 28.9211 54 28.9733 54C42.7692 54 57.6405 47.8926 57.6405 32.67V0H57.6423Z" fill="#1A1A1A"/>
<g clip-path="url(#clip1_6_1661)">
<path d="M10.9449 13.2059C10.326 13.0717 10.3104 12.0423 11.027 12.0423L34.9063 12.0445L35.0993 11.9059L36.0743 9.05948C36.528 8.57806 37.1836 8.78216 37.1037 9.50319C37.0605 9.89587 36.1697 12.4782 35.9623 12.8499C35.6706 13.3734 35.1226 13.1738 34.6134 13.2059C34.6345 15.8737 36.7721 18.2076 39.3533 18.7312C39.8059 18.8233 40.2297 18.7955 40.6412 18.8577C41.3489 18.9653 41.2346 19.9913 40.4781 20.0213C40.3029 20.0279 39.7848 19.9514 39.5741 19.9226C36.2429 19.4589 33.5574 16.5825 33.4487 13.207H27.7914V19.4755C27.7914 20.2465 26.9584 21.9803 26.9051 22.8921C26.8774 23.3602 26.9783 24.2021 27.0671 24.6824C27.2423 25.6275 27.7149 26.7379 28.5357 27.2859C29.3488 27.5011 31.7681 27.0696 32.3627 27.4523C32.8519 27.7673 32.4747 28.485 32.2429 28.485H29.29C29.3355 29.3269 29.7626 30.2732 29.7936 31.0984C29.8203 31.8062 29.5529 32.6004 29.4575 33.3004L37.4132 31.4013C38.3783 31.3636 39.6085 31.1816 40.558 31.3125C40.9374 31.3647 41.1193 31.5399 41.1082 31.9282C41.0838 32.7834 39.8181 32.373 39.3201 32.3841C38.7022 32.3974 37.8813 32.4873 37.2601 32.5771C34.995 32.9043 32.6545 33.8339 30.3804 34.2222C30.4847 36.0569 30.2873 37.6653 29.9157 39.4468C29.716 40.403 29.3455 42.4574 28.9994 43.266C28.6855 44.0004 27.8402 43.6687 27.879 43.0708C28.4781 40.2621 29.5075 37.4612 29.2068 34.5472C27.6173 34.7956 28.5457 32.4817 28.6134 31.5899C28.6921 30.5549 28.2429 29.4889 28.1053 28.465C26.6045 27.3425 25.9134 25.6386 25.7969 23.795C25.7204 22.5793 26.0842 21.6785 26.2939 20.516C25.7637 20.902 25.2434 22.3896 24.5257 22.2454C23.5396 22.0468 24.5812 20.8244 24.8807 20.4339C24.7919 20.3618 23.3821 21.0629 23.0826 21.0939C22.4514 21.1572 22.1696 20.6225 22.5557 20.1466L23.8823 19.521L22.61 19.3679C22.3649 19.4434 22.2717 20.0435 21.7825 20.0024C21.3321 19.9647 21.168 19.4911 21.3033 19.105L11.0359 17.5986C10.2394 17.5166 10.2749 16.4073 11.1058 16.4417L26.6267 18.77V13.207H10.9449V13.2059Z" fill="#1A1A1A"/>
</g>
</g>
<defs>
<clipPath id="clip0_6_1661">
<rect width="57.6404" height="54" fill="white"/>
</clipPath>
<clipPath id="clip1_6_1661">
<rect width="30.6524" height="34.8876" fill="white" transform="translate(10.46 8.79785)"/>
</clipPath>
</defs>
</svg>
