<svg width="58" height="54" viewBox="0 0 58 54" fill="none" xmlns="http://www.w3.org/2000/svg">
<g clip-path="url(#clip0_6_1669)">
<path d="M56.3003 1.3392V32.67C56.3003 39.213 53.4291 44.3412 47.7659 47.9106C42.9043 50.9742 36.2306 52.6608 28.9733 52.6608H28.8166H28.6689C21.4116 52.6608 14.7379 50.9742 9.87633 47.9088C4.21316 44.3394 1.34194 39.213 1.34194 32.67V1.3392H56.3021M57.6423 0H0V32.67C0 47.8872 14.8694 54 28.6671 54C28.7194 54 28.768 54 28.8202 54C28.8707 54 28.9211 54 28.9733 54C42.7692 54 57.6405 47.8926 57.6405 32.67V0H57.6423Z" fill="#1A1A1A"/>
<g clip-path="url(#clip1_6_1669)">
<path d="M24.0047 9.06639C24.1191 8.53867 24.979 8.46644 25.1174 9.08245C25.0031 10.7027 25.3251 12.6722 25.1345 14.2503C25.0462 14.9807 24.2927 15.3238 23.6285 15.2997C25.6823 18.9326 30.8786 18.8965 32.9585 15.2997C32.3114 15.2777 31.5438 15.086 31.4525 14.3255L31.4706 9.0082C31.609 8.40424 32.5833 8.64502 32.5833 9.14264V14.1369H40.5979C40.8548 14.1369 41.7447 14.469 42.0166 14.5984C46.2718 16.613 44.3434 22.5353 44.7688 26.2605C44.6634 26.9467 43.92 27.038 43.647 26.414C43.5136 23.961 43.8176 21.3354 43.6481 18.9025C43.5397 17.3424 42.1611 15.2636 40.4464 15.2636H39.0538V25.9274H40.1454C40.2969 25.9274 40.7966 26.0879 40.9631 26.1621C42.0487 26.6437 42.3497 28.1185 41.5752 29.0074C41.3464 29.2703 40.8809 29.4569 40.7795 29.5853C40.4424 30.0147 39.7521 32.4256 39.4651 33.1359C39.3979 33.3024 39.0528 33.8091 39.0528 33.8512V40.1217H43.643V28.6693C43.643 28.6452 43.93 28.3663 43.9982 28.3453C44.4668 28.2048 44.7979 28.5951 44.7748 29.0415L44.7718 40.3093C44.7256 40.7196 44.543 41.0336 44.1497 41.1902L18.3931 41.2514C18.0911 41.3326 17.5312 40.7698 17.5312 40.534V33.1369H14.1078C13.2079 33.1369 12.0079 32.0463 11.9075 31.1273C12.0339 29.2191 11.6707 26.9256 11.8865 25.0626C11.9758 24.29 12.964 24.4365 13.0102 25.1458L13.0493 31.0391C13.242 31.6019 13.6784 31.93 14.2674 32.0022L30.6629 32.0112C31.8719 32.1758 32.6515 33.2121 33.6909 33.7208C34.7826 33.6516 36.1441 33.8763 37.2036 33.7318C37.5648 33.6827 38.0073 33.3877 38.213 33.0877C38.8832 32.1085 39.3076 29.3696 40.0712 28.7095C40.4755 28.3593 40.939 28.4145 40.8638 27.6921C40.8277 27.348 40.5628 27.1704 40.2467 27.1032C39.12 26.8624 37.5438 27.1995 36.3799 27.0581C35.1478 26.9076 35.1267 25.6986 34.8187 24.8619C34.5277 24.0733 33.72 23.8516 33.106 24.4626C32.492 25.0736 31.9552 26.3327 31.3341 27.05C31.1906 27.2156 31.0452 27.3982 30.8094 27.4273L15.9881 27.4333C15.048 27.329 15.4152 26.3046 15.7643 26.3046H17.5322V15.2646H16.1396C14.7058 15.2646 13.1406 17.0845 13.0182 18.457C12.9129 19.6258 13.2289 21.518 12.9841 22.5534C12.8446 23.1443 12.1112 23.2316 11.8895 22.6587C12.0179 19.8395 11.1891 17.216 13.6583 15.1904C14.1359 14.7981 15.3841 14.1369 15.9891 14.1369H24.0037V9.06639H24.0047ZM34.1635 15.2626C31.9542 20.4616 24.5987 20.3733 22.3121 15.2626H18.662V26.3026H30.4391C31.2749 25.4619 31.9602 23.5015 33.113 23.1132C34.1946 22.748 35.3444 23.2015 35.803 24.2539C35.9294 24.5449 36.1602 25.9264 36.4592 25.9264H37.926V15.2626H34.1635ZM37.926 34.713C37.6692 34.7301 37.4836 34.8445 37.2147 34.8665C36.3849 34.9348 34.3261 34.9669 33.5425 34.8455C32.6505 34.707 31.2117 33.1359 30.6649 33.1359H18.663V40.1197H37.927V34.713H37.926Z" fill="#1A1A1A"/>
<path d="M40.4624 33.753C41.2871 33.5062 41.553 34.7613 40.7875 34.9098C40.0159 35.0593 39.8754 33.9286 40.4624 33.753Z" fill="#1A1A1A"/>
<path d="M41.6671 24.214C42.6363 23.923 42.6794 25.5584 41.7443 25.3898C41.1634 25.2845 41.1694 24.3635 41.6671 24.214Z" fill="#1A1A1A"/>
<path d="M41.7429 31.2699C42.5024 31.1334 42.7231 32.3564 41.9445 32.4578C41.1659 32.5591 41.0706 31.3913 41.7429 31.2699Z" fill="#1A1A1A"/>
<path d="M41.7849 36.9454C41.2641 36.4257 42.0207 35.5429 42.5895 36.0305C43.1414 36.503 42.3829 37.5424 41.7849 36.9454Z" fill="#1A1A1A"/>
<path d="M41.3653 21.818C41.888 22.436 40.979 23.2597 40.5074 22.6758C40.0358 22.0919 40.8927 21.2592 41.3653 21.818Z" fill="#1A1A1A"/>
</g>
</g>
<defs>
<clipPath id="clip0_6_1669">
<rect width="57.6404" height="54" fill="white"/>
</clipPath>
<clipPath id="clip1_6_1669">
<rect width="38.5281" height="32.6124" fill="white" transform="translate(9.55664 8.646)"/>
</clipPath>
</defs>
</svg>
