<svg width="58" height="54" viewBox="0 0 58 54" fill="none" xmlns="http://www.w3.org/2000/svg">
<g clip-path="url(#clip0_6_1684)">
<path d="M56.3003 1.3392V32.67C56.3003 39.213 53.4291 44.3412 47.7659 47.9106C42.9043 50.9742 36.2306 52.6608 28.9733 52.6608H28.8166H28.6689C21.4116 52.6608 14.7379 50.9742 9.87633 47.9088C4.21316 44.3394 1.34194 39.213 1.34194 32.67V1.3392H56.3021M57.6423 0H0V32.67C0 47.8872 14.8694 54 28.6671 54C28.7194 54 28.768 54 28.8202 54C28.8707 54 28.9211 54 28.9733 54C42.7692 54 57.6405 47.8926 57.6405 32.67V0H57.6423Z" fill="#1A1A1A"/>
<g clip-path="url(#clip1_6_1684)">
<path d="M41.8933 36.9141C41.3312 36.3341 40.6788 36.1077 39.9548 35.8084C37.9715 34.9882 35.7515 34.3294 33.7756 33.4825C33.7577 33.5101 33.739 33.5376 33.7186 33.5644C33.4738 33.8938 33.098 34.082 32.6871 34.082C32.4862 34.082 32.2926 34.0366 32.1193 33.9514C30.6136 36.2472 26.8577 36.1783 25.5529 33.7104C25.6432 33.5774 25.8458 33.2359 25.8458 33.0923V31.7269C27.6468 32.5942 29.757 32.6152 31.6142 31.9208L31.9867 30.6926C29.0908 32.2721 24.8672 31.5371 23.3761 27.9635C22.7082 26.3637 22.8278 22.9353 22.9181 21.1376C22.9815 19.872 23.2849 17.9615 24.2261 17.0383C25.182 16.1021 26.172 16.7333 27.2466 16.9523C29.1054 17.3303 31.2343 17.3044 32.8425 16.2011C34.197 17.0172 34.6639 18.8044 34.8144 20.2882C34.9795 21.9221 35.0007 24.5927 34.8746 26.2339C34.7566 27.772 34.0953 28.9962 33.1378 29.8732L33.4185 30.794C35.1097 29.4002 35.9687 27.2017 35.7987 24.9992C38.3124 24.7509 39.2666 21.5132 37.1889 20.0359C37.2646 19.5605 37.8487 18.432 37.2695 18.1473C36.5007 17.7684 36.5691 19.2392 36.3559 19.6367L35.7914 21.2284C35.7068 19.1338 35.2854 16.9572 33.6007 15.5456C33.8081 15.157 34.1229 14.8219 34.2067 14.3725C34.9413 14.5575 35.6669 15.1838 36.0606 15.8319C36.3088 16.2424 36.3624 16.9134 36.9205 16.8639C37.8389 16.7836 36.7049 15.1156 36.4316 14.7952C35.8963 14.1648 35.1715 13.7251 34.4166 13.4014C34.341 11.8738 33.4421 10.6075 32.0494 9.99089C31.6378 9.80917 30.987 9.61772 30.5436 9.57715C30.2329 9.54795 29.6968 9.55038 29.3844 9.57715C28.3041 9.66883 26.4364 10.188 25.3862 10.5458C21.8158 11.7602 20.4475 13.8233 20.2336 17.5575C20.1848 18.402 20.2743 19.1808 20.5386 19.9823C20.5248 20.1203 20.1148 20.4456 19.9993 20.6013C18.7075 22.3455 19.8594 24.785 21.994 24.9992C21.8394 27.4621 22.8945 29.805 24.9209 31.2207L24.8745 33.0825C22.5634 34.0682 20.1612 34.8503 17.8379 35.8084C17.1147 36.1061 16.4607 36.3357 15.8994 36.9141C15.0176 37.8219 14.0837 40.2881 15.9311 40.6475L27.7542 40.6345C28.2407 40.4569 28.1699 39.7876 27.6468 39.7365L15.9417 39.7275C15.5805 39.6067 15.949 38.4977 16.0726 38.2397C16.3216 37.7205 16.8129 37.2532 17.3238 36.9952L22.7944 34.8819C23.6535 36.6805 25.5196 38.049 27.4817 38.4441C30.2345 38.9974 32.8254 37.9412 34.4988 35.7524C34.624 35.5885 34.8762 35.0863 34.9665 35.0036C35.0226 34.9517 35.0649 34.9273 35.1447 34.9427L40.4266 36.9774C41.114 37.3384 41.6989 37.9655 41.9014 38.7264C41.9771 39.0136 42.1691 39.7097 41.7428 39.7405L29.5691 39.7689C29.1404 40.0399 29.2762 40.624 29.7773 40.6516L41.8616 40.6475C43.709 40.2881 42.7743 37.8211 41.8933 36.9141ZM35.7906 23.0489C36.6244 22.8615 36.5552 21.6479 36.8286 20.9859C36.9848 20.8439 37.3321 21.6511 37.3606 21.7606C37.629 22.7998 36.9075 23.9778 35.7906 24.02V23.0489ZM22.0021 24.0808C20.5224 23.8464 19.8065 22.0567 20.9031 20.9859C21.2325 21.6422 21.1618 22.8518 22.0021 23.0489V24.0808ZM21.9419 21.3493C21.562 20.0424 21.0698 19.0242 21.1487 17.6183C21.274 15.3793 21.8809 13.3665 23.9138 12.1756C25.2674 11.383 28.7865 10.3819 30.3297 10.4882C33.0085 10.6715 34.6989 13.5036 32.3748 15.4028C32.5269 14.164 32.1673 13.0339 31.0504 12.38C30.6494 12.1456 29.1615 11.469 29.0794 12.2827C29.0208 12.8636 30.0775 12.8717 30.5396 13.1305C31.6125 13.7316 31.6613 14.9509 31.2627 15.9974L30.1776 16.1913C30.2532 15.7281 30.3215 15.2138 30.1052 14.7765C29.8741 14.3084 28.7881 13.4371 28.3464 13.975C27.8103 14.6272 29.0924 14.7189 29.277 15.1756C29.3633 15.3882 29.3437 16.1013 29.1412 16.223C29.0151 16.2984 28.3383 16.2092 28.1414 16.184C26.3566 15.9561 24.8891 14.8333 23.407 16.588C22.4015 17.7782 22.1908 19.4607 22.0558 20.9477C22.0485 21.0281 22.0224 21.3193 21.9419 21.3493ZM23.6486 34.5501L24.7451 34.155C26.4412 37.3116 31.3522 37.3116 33.0475 34.155L34.1441 34.5501C32.0128 38.694 25.7758 38.6916 23.6486 34.5501Z" fill="#1A1A1A"/>
<path d="M30.7698 29.8705C32.79 28.139 33.4123 25.8302 33.5111 25.41C33.5142 25.3975 33.4963 25.3913 33.49 25.4027L30.7509 29.856C30.7436 29.8674 30.7593 29.8789 30.7688 29.8705H30.7698Z" fill="#1A1A1A"/>
<path d="M31.8469 32.5482C31.7656 32.8159 31.8152 33.0983 31.982 33.323C32.0088 33.3595 32.0389 33.3936 32.0706 33.4244C32.2333 33.5858 32.4513 33.6767 32.6864 33.6767C32.9671 33.6767 33.2241 33.5477 33.3909 33.323C33.3925 33.3205 33.3942 33.3189 33.395 33.3165C33.5593 33.0926 33.6065 32.8135 33.5259 32.5482L33.0728 31.0579L32.7995 30.1591L32.6864 29.7883L32.5083 30.3732L31.9462 32.2221L31.8469 32.5482Z" fill="#1A1A1A"/>
</g>
</g>
<defs>
<clipPath id="clip0_6_1684">
<rect width="57.6404" height="54" fill="white"/>
</clipPath>
<clipPath id="clip1_6_1684">
<rect width="28.0618" height="31.0955" fill="white" transform="translate(14.8652 9.55615)"/>
</clipPath>
</defs>
</svg>
