<svg width="58" height="54" viewBox="0 0 58 54" fill="none" xmlns="http://www.w3.org/2000/svg">
<g clip-path="url(#clip0_6_1694)">
<path d="M56.3003 1.3392V32.67C56.3003 39.213 53.4291 44.3412 47.7659 47.9106C42.9043 50.9742 36.2306 52.6608 28.9733 52.6608H28.8166H28.6689C21.4116 52.6608 14.7379 50.9742 9.87633 47.9088C4.21316 44.3394 1.34194 39.213 1.34194 32.67V1.3392H56.3021M57.6423 0H0V32.67C0 47.8872 14.8694 54 28.6671 54C28.7194 54 28.768 54 28.8202 54C28.8707 54 28.9211 54 28.9733 54C42.7692 54 57.6405 47.8926 57.6405 32.67V0H57.6423Z" fill="#1A1A1A"/>
<g clip-path="url(#clip1_6_1694)">
<path d="M21.6662 25.8505C18.9943 25.8505 17.054 24.9907 16.4178 24.5608C15.4636 23.9876 14.0322 23.357 15.9407 25.4206C17.8492 27.4841 24.3698 28 27.3916 28C27.7097 27.8567 28.2504 27.3981 27.8687 26.7103C27.3916 25.8505 25.006 25.8505 21.6662 25.8505Z" fill="#1A1A1A"/>
<path d="M31.9145 9.10107C31.9595 9.19555 32.1016 9.19148 32.1544 9.24685C32.3428 9.44361 32.324 10.4834 32.375 10.8576C32.6515 12.8837 33.8224 14.9687 35.4926 16.1574C36.9051 17.1625 37.7923 17.1753 39.2219 16.1834C40.9137 15.0097 42.0452 12.9616 42.3158 10.9242C42.374 10.4862 42.3205 9.6288 42.5025 9.3116C42.5535 9.22245 42.6342 9.16552 42.7096 9.10107H43.095C43.5155 9.33757 43.4388 9.86905 43.4191 10.2923C43.3419 11.9334 42.6833 13.7677 41.7339 15.0969C41.2052 15.8371 40.7635 15.9625 40.7188 16.9726C40.6415 18.7078 42.1747 19.1918 43.4782 19.8665C43.9084 20.2591 43.6081 20.8995 43.0146 20.7818C42.862 20.7515 42.7456 20.5951 42.582 20.6029C42.4375 22.2577 42.2745 24.206 41.667 25.7598C40.2583 29.3613 35.1945 29.7564 33.3019 26.3801C33.0892 26.0006 32.5057 24.7947 33.0729 24.5557C33.8231 24.2395 33.8872 25.2474 34.109 25.7013C34.7641 27.0408 36.4921 27.9439 37.9574 27.6405C39.5281 27.3154 40.4572 26.2816 40.8927 24.7928C41.3354 23.2791 41.4758 21.6362 41.6191 20.0695C40.5276 19.4039 39.5985 18.5305 39.6896 17.1331L38.3747 17.7775C37.1694 18.2455 35.9969 17.7578 34.9999 17.0686C34.9289 17.3439 34.968 17.6449 34.9186 17.9198C34.7306 18.9672 33.8662 19.4811 33.0823 20.067C33.0657 20.4046 33.1061 20.749 33.1361 21.084C33.1865 21.643 33.3986 22.4382 33.3979 22.9484C33.3976 23.4161 32.9287 23.6623 32.5586 23.3961C32.3227 23.2265 32.2899 22.594 32.2448 22.2962C32.1635 21.7578 32.1451 21.2054 32.0769 20.6652C31.9983 20.5613 31.9999 20.6358 31.9373 20.6558C31.7152 20.7268 31.5094 20.8579 31.2707 20.8901L31.2147 20.9642C31.2923 22.3578 31.3633 23.7871 31.1127 25.1657C30.8906 26.387 30.4195 27.6051 29.934 28.7419C29.6283 29.4573 29.3171 29.6826 29.3418 30.5325C29.4022 32.6128 29.7716 34.2391 32.1404 34.4165C32.5364 34.4462 33.1818 34.342 33.5243 34.4462C34.0161 34.5954 34.0042 35.3765 33.4273 35.4485C32.5602 35.5564 31.5382 35.3844 30.6938 35.1892L31.0107 37.0883L43.1929 37.1149C43.6243 37.1287 43.8349 37.6479 43.5477 37.9686C43.5139 38.0064 43.2727 38.1444 43.2558 38.1444H31.0792C31.109 38.2204 31.1393 38.2808 31.1456 38.3671C31.1834 38.8986 31.2504 39.4479 31.2713 39.9763C31.2873 40.3795 31.3373 41.2948 31.2707 41.6449C31.1759 42.1419 30.3363 42.2186 30.2437 41.3896C30.1445 40.5006 30.2005 39.4376 30.1151 38.4982C30.0231 37.4862 29.862 35.5051 29.5855 34.5942C29.5142 34.3596 29.0968 33.9826 28.947 33.6904C28.2941 32.4172 28.5115 31.033 28.2206 29.7264C27.9281 28.4128 27.3284 28.192 26.089 28.0027C24.7326 27.7959 23.2939 27.8269 21.9237 27.6702C18.7866 27.3114 16.0728 26.2052 13.5173 24.3818C12.4831 23.6442 11.249 22.7085 10.7744 21.5023V20.7956C11.7007 18.2017 14.8221 17.4278 17.2002 16.7155C18.0461 16.4621 18.9045 16.2268 19.7564 15.9947C21.3521 15.5599 23.2554 15.2402 24.7795 14.7209C25.8969 14.3402 26.8016 13.4315 27.8074 12.8653C28.8851 12.2587 30.2837 12.0394 31.4628 11.669C31.3821 10.9983 31.1906 10.2604 31.2707 9.58188C31.3007 9.32599 31.4008 9.24873 31.5932 9.10107H31.9145ZM31.7853 12.6347C30.7893 12.9663 29.6111 13.1612 28.6579 13.5876C27.4886 14.1109 26.4653 15.2546 25.2006 15.6563C21.7344 16.7496 17.5569 17.2879 14.2647 18.7926C13.4407 19.1692 11.487 20.3292 11.8515 21.4212C12.1343 22.2684 14.1157 23.4615 14.8231 24.0436C14.9138 24.0768 15.0918 23.7499 15.3674 23.7486C15.4938 23.748 16.0346 23.9313 16.141 24.0067C16.5896 24.3242 16.2139 24.7528 16.2624 24.8438C16.3181 24.9489 17.5284 25.5324 17.5853 25.4854C16.512 24.1828 19.1604 24.2864 18.8426 25.2962C18.7043 25.736 18.313 25.6012 17.9842 25.5686C17.9135 25.5618 17.7652 25.4932 17.7787 25.6137C19.1191 26.132 20.5 26.4652 21.9309 26.6344C23.7462 26.8493 25.606 26.7574 27.3835 27.2219C27.3735 26.9325 27.1817 26.8046 27.3597 26.4893C27.8596 25.6049 29.0437 27.2435 28.2528 27.703L28.8619 28.506C29.4353 27.3483 29.9743 25.9522 30.1608 24.6646C30.2893 23.7752 30.3122 22.4348 30.2462 21.5323C30.2374 21.4128 30.1805 20.9398 30.117 20.8904C27.5277 19.9516 24.8671 20.9092 22.2443 20.7953C21.9828 20.784 21.5198 20.6458 21.2858 20.6677C21.0227 20.6924 20.052 21.2126 19.7044 21.3409C18.8523 21.6555 17.4077 22.0832 16.5164 22.137C15.6408 22.1898 15.6305 21.3283 16.1688 21.1466C16.6153 20.9958 17.3426 20.9486 17.8428 20.8284C20.428 20.2081 23.1772 18.6196 25.6832 17.617C26.1619 17.4256 26.7325 17.1569 27.2239 17.037C28.2009 16.799 28.8876 17.3927 29.8436 17.5007C31.2566 17.6602 32.5574 16.9923 33.8431 16.5212L33.8972 16.4539C33.8503 16.1649 33.8131 15.8117 33.4417 15.8586C33.0056 15.914 31.9893 16.6113 31.7055 15.96C31.3539 15.1532 32.8661 15.0866 32.8764 14.9164C32.4344 14.2113 31.9783 13.4521 31.785 12.6347H31.7853ZM23.5613 19.7023C25.0535 19.6773 26.5269 19.3501 28.0295 19.4433C28.795 19.4908 30.36 20.0223 30.9025 19.945C31.4543 19.8665 32.7197 19.1098 33.1655 18.7372C33.5043 18.4541 33.9316 18.0615 33.9057 17.5826C32.6315 18.1216 31.2469 18.669 29.8342 18.5383C29.2132 18.4807 28.0335 17.9452 27.6078 17.994C27.1917 18.0415 26.6205 18.4078 26.1972 18.5164L23.561 19.7023H23.5613Z" fill="#1A1A1A"/>
<path d="M42.7607 34.3721C43.0732 34.359 43.4236 34.2461 43.6003 34.5864C44.1287 35.6031 41.7762 35.5064 41.2626 35.447C40.6613 35.3772 40.6397 34.6693 41.1643 34.4463C41.6955 34.4253 42.2304 34.3944 42.761 34.3721H42.7607Z" fill="#1A1A1A"/>
<path d="M36.9751 12.5234C37.6258 12.4352 38.3738 12.6717 38.9616 12.9454C39.8681 13.3677 39.7918 13.6758 39.1117 14.3387C37.8729 15.5468 36.8622 15.5678 35.6074 14.3719C35.3312 14.1085 34.8685 13.6771 35.1607 13.2792C35.3374 13.0383 36.6473 12.5678 36.9751 12.5237V12.5234ZM38.147 13.7284C37.5876 13.4997 37.1381 13.4622 36.5784 13.7237L36.5412 13.8551C37.17 14.3168 37.628 14.3891 38.147 13.7287V13.7284Z" fill="#1A1A1A"/>
<path d="M36.1789 11.6482C35.8707 11.3341 35.8416 10.7564 36.3312 10.6544C36.6844 10.5809 36.7423 10.8142 36.9694 10.9541C37.6689 11.3842 37.708 10.7385 38.1807 10.7038C38.7563 10.6616 38.9008 11.2331 38.5679 11.61C37.9767 12.2795 36.7998 12.2814 36.1789 11.6485V11.6482Z" fill="#1A1A1A"/>
<path d="M22.9666 24.9225C23.3285 24.8624 23.9823 24.9268 24.0149 25.3911C24.0631 26.0793 23.3126 26.0324 22.8361 25.9222C22.3209 25.8034 22.3807 25.0197 22.9666 24.9225Z" fill="#1A1A1A"/>
<path d="M20.2013 24.921C20.5291 24.8253 21.3334 24.8387 21.4285 25.2757C21.6512 26.2993 19.4771 26.095 19.9719 25.1409C20.0098 25.068 20.1221 24.9442 20.2013 24.921Z" fill="#1A1A1A"/>
<path d="M25.4061 25.1144C25.9297 24.9914 26.9327 25.2736 26.521 25.9721C26.2954 26.355 25.2112 26.177 25.1167 25.761C25.056 25.4944 25.1114 25.1835 25.4057 25.1144H25.4061Z" fill="#1A1A1A"/>
</g>
</g>
<defs>
<clipPath id="clip0_6_1694">
<rect width="57.6404" height="54" fill="white"/>
</clipPath>
<clipPath id="clip1_6_1694">
<rect width="35.9494" height="32.9157" fill="white" transform="translate(9.25293 9.10107)"/>
</clipPath>
</defs>
</svg>
