<svg width="85" height="80" viewBox="0 0 85 80" fill="none" xmlns="http://www.w3.org/2000/svg">
<path d="M42.2798 80C18.929 80 0 67.471 0 44.7478V0H84.5596V44.7478C84.5596 67.471 65.6306 80 42.2798 80Z" fill="#CAC9E2"/>
<g clip-path="url(#clip0_6_2404)">
<path fill-rule="evenodd" clip-rule="evenodd" d="M61.2952 28.3575C60.9887 28.051 60.7587 27.7444 60.4521 27.4378C58.766 25.675 56.9265 23.8355 55.0103 22.6092C53.0942 21.3828 50.9482 20.6164 48.6488 21.1529C46.656 21.6128 44.6633 23.1457 42.7472 25.8282C40.4478 22.6092 38.0718 21.0763 35.6192 20.9996C32.9366 20.8463 30.5606 22.3792 28.4145 24.2187C26.9583 25.445 25.5787 26.9779 24.1991 28.3575C23.5859 29.0473 22.9727 29.6605 22.3596 30.2737C21.4398 31.1934 20.5201 32.0365 19.677 32.573C18.8339 33.1862 18.1441 33.4927 17.4543 33.5694L15.998 33.7993L16.9178 35.0256C19.9836 39.2411 27.1882 46.599 36.4623 49.2816C41.1376 50.5846 46.3495 50.7379 51.8679 48.6684C57.3863 46.599 63.0581 42.3836 68.8064 35.0256C68.1166 34.4891 66.8137 34.7957 66.2772 35.4855C60.9887 41.847 56.0834 45.2194 51.2547 47.0589C46.1195 48.975 41.2909 48.8984 36.9221 47.5954C28.7978 45.2961 22.3596 39.0878 18.9872 34.949C19.5237 34.7191 20.0602 34.4125 20.5967 34.0293C21.5165 33.3395 22.5129 32.4964 23.5093 31.5C24.1991 30.8102 24.8122 30.1204 25.502 29.4306C26.805 28.051 28.108 26.6713 29.4876 25.445C31.557 23.6822 33.5497 22.5325 35.5425 22.6092C37.4586 22.7624 39.6813 24.0654 42.0573 27.821L42.7472 28.894L43.437 27.821C45.5064 24.6786 47.3458 23.299 49.032 22.8391C50.7182 22.4559 52.3278 22.9157 54.0906 24.0654C55.8534 25.2151 57.5396 26.9013 59.2258 28.6641C59.5324 28.9707 59.7623 29.2006 60.0689 29.5072C60.9887 30.5036 62.9814 32.2664 64.2844 33.4161C65.0508 34.0293 66.1239 33.9526 66.737 33.2628C66.3538 33.0329 62.6748 29.8138 61.2952 28.3575ZM42.8238 35.1789C43.7435 35.1789 44.28 35.0256 44.8166 34.8724C44.8932 34.8724 45.0465 34.7957 45.1231 34.7957C45.7363 34.6424 46.5794 34.4891 48.3422 34.4891C51.7146 34.4891 54.5505 34.7957 56.5433 35.1023C56.6199 35.1023 56.7732 35.1023 56.8498 35.1789C56.2367 35.4089 55.4702 35.6388 54.6271 35.9454C51.638 36.8651 47.4225 37.7849 42.9004 37.7849C38.3784 37.7849 34.1629 36.8651 31.1738 35.9454C30.4073 35.7154 29.7175 35.4855 29.1043 35.2556C29.181 35.2556 29.2576 35.2556 29.3343 35.2556C31.327 35.0256 34.0096 34.7191 36.9988 34.7191C38.455 34.7191 39.3748 34.8724 40.1412 35.0256C40.2179 35.0256 40.2945 35.0256 40.4478 35.1023C41.061 35.0256 41.8274 35.1789 42.8238 35.1789ZM60.1456 35.5622C60.1456 35.5622 60.1456 35.5622 59.7623 34.7957L60.1456 35.5622L62.215 34.5658L59.9156 34.0293L59.839 34.7957C60.0689 33.9526 60.0689 33.9526 60.0689 33.9526H59.9923C59.9156 33.9526 59.9156 33.9526 59.839 33.9526C59.6857 33.9526 59.4558 33.876 59.2258 33.7993C58.6893 33.7227 57.8462 33.5694 56.8498 33.4161C54.7804 33.1095 51.9445 32.8029 48.4189 32.8029C46.5028 32.8029 45.583 32.9562 44.8166 33.1862C44.6633 33.1862 44.5866 33.2628 44.51 33.2628C43.9735 33.4161 43.6669 33.4927 42.9771 33.4927C42.134 33.4927 41.5208 33.4161 40.831 33.2628C40.7544 33.2628 40.6777 33.2628 40.5244 33.1862C39.6813 33.0329 38.6083 32.8796 36.9988 32.8796C33.933 32.9562 31.0971 33.1862 29.1043 33.4927C28.108 33.646 27.2649 33.7227 26.7283 33.876C26.4218 33.9526 26.1918 33.9526 26.0385 33.9526C25.9619 33.9526 25.8853 33.9526 25.8853 33.9526H25.8086C25.8086 33.9526 25.8086 33.9526 25.9619 34.7957L25.732 34.0293L23.2793 34.4891L25.502 35.5622L25.8853 34.7957C25.502 35.5622 25.502 35.5622 25.502 35.5622H25.5787C25.6553 35.5622 25.732 35.6388 25.8853 35.7154C26.1152 35.7921 26.4984 35.9454 26.8816 36.1753C27.7247 36.5585 29.0277 37.0184 30.5606 37.4783C33.703 38.398 37.9952 39.3944 42.8238 39.3944C47.6524 39.3944 51.9445 38.4747 55.087 37.4783C56.6199 37.0184 57.9229 36.5585 58.766 36.1753C59.2258 36.022 59.5324 35.8687 59.7623 35.7154C59.9156 35.6388 59.9923 35.6388 60.0689 35.5622C60.0689 35.6388 60.1456 35.5622 60.1456 35.5622Z" fill="white"/>
</g>
<defs>
<clipPath id="clip0_6_2404">
<rect width="52.8084" height="29.2017" fill="white" transform="translate(16 21)"/>
</clipPath>
</defs>
</svg>
