<svg width="85" height="80" viewBox="0 0 85 80" fill="none" xmlns="http://www.w3.org/2000/svg">
<path d="M42.2798 80C18.929 80 0 67.471 0 44.7478V0H84.5596V44.7478C84.5596 67.471 65.6306 80 42.2798 80Z" fill="#CAC9E2"/>
<path d="M67.9196 44.326C66.2833 44.876 64.5062 44.9087 62.8957 44.2607C62.3869 44.0562 61.2337 43.1177 60.8882 43.8155C60.6424 44.3105 61.2062 44.5443 61.5172 44.7334C63.4938 45.9382 66.6494 46.1788 68.7188 45.0616C70.6335 44.0287 67.2407 42.8891 66.7594 41.8837C67.8663 41.906 68.9337 41.619 69.8927 41.0844C70.3912 40.8077 71.4929 40.1271 71.4052 39.5084L71.2144 39.1715L54.4721 28.4809L53.0971 27.924L48.1987 26.7037L51.9988 26.4476C57.4352 27.8518 62.6774 29.9573 68.0502 31.5935C67.6927 32.073 67.251 32.5629 66.6391 32.6935C65.9035 32.8482 63.9029 32.2449 64.324 33.4429C64.5715 34.1476 67.141 33.6869 67.7804 33.3191C68.2822 33.0287 69.8635 31.5127 69.3066 30.9816L53.0971 25.6071C50.5499 24.8852 47.6555 26.0849 45.1685 26.0574C43.5615 26.0402 41.0435 24.9437 39.2216 24.789C34.9729 24.4246 27.0065 29.0343 22.7612 30.7135C20.1315 31.7534 17.7613 32.403 14.8773 32.2329C14.2173 32.1934 12.0173 31.4474 12.3851 32.6591C12.5191 33.1043 14.2637 33.2332 14.7483 33.2624C20.9702 33.6526 27.3812 29.6496 33.029 27.3224C36.2069 26.0127 37.288 25.4559 40.8527 26.1227C45.1066 26.9185 49.5118 28.156 53.7004 29.2526L69.8497 39.5066C70.2949 39.9088 68.8494 40.4949 68.5074 40.6032C67.1015 41.0501 65.6079 40.9109 64.3755 40.0824C60.6424 37.5713 57.0915 33.5151 53.3412 31.0246C52.5969 30.5313 52.1054 30.7324 52.4422 31.664L67.9196 44.326Z" fill="white" stroke="white" stroke-width="0.3"/>
<path d="M59.0255 41.882C56.6072 42.5008 54.9125 41.3475 53.0545 40.0584C50.7669 38.4703 47.6663 35.2975 44.9077 35.0672C40.3719 34.6873 39.6225 36.5127 36.1661 38.4325C33.2374 40.0584 30.4633 40.5036 27.122 40.3386C26.6425 40.3145 25.5339 39.8952 25.24 40.2647C24.5611 41.1172 26.34 41.3028 26.8642 41.3681C31.1336 41.8889 35.4717 40.4434 38.8731 37.922C40.4028 38.4909 41.9497 39.23 43.6152 39.3159C45.523 39.4139 47.185 38.6353 49.0052 38.3019L52.3224 40.8542C49.1444 41.8666 45.9991 43.5819 42.852 44.5908C40.6658 45.292 39.0175 45.1494 36.79 45.2302C28.8597 45.5189 20.8744 45.0308 12.9475 44.7231C11.7667 45.1752 12.492 45.7733 13.4597 45.8695C15.3469 46.0586 17.595 45.9228 19.5217 45.995C26.0049 46.2339 33.0328 46.7066 39.4953 46.2562C44.1961 45.9297 48.7267 43.0439 53.1749 41.6259C53.5891 41.5881 54.9383 42.5162 55.5484 42.7173C57.1692 43.2536 59.1441 43.2656 60.5122 42.1416C60.6806 41.8081 60.5191 41.5778 60.2544 41.3647C56.6605 38.5167 53.4464 35.16 49.8749 32.2966C48.2472 30.992 47.087 30.3527 45.0005 29.9556C42.9139 29.5586 40.0144 29.0739 37.9313 28.9055C37.6734 28.8848 37.053 28.8023 36.9069 29.0069L36.9138 29.66L37.2025 29.8852C39.8786 30.4197 42.8813 30.4747 45.5127 31.1123C48.1681 31.7552 50.5228 34.2577 52.5784 36.0262C54.6341 37.7948 56.9561 39.682 58.8261 41.4987C58.9516 41.6208 59.0702 41.6672 59.022 41.882H59.0255ZM39.9491 37.1245C42.1078 35.7031 45.9527 35.4831 47.8106 37.5078C45.8358 38.1644 43.8334 38.6061 41.783 37.9289L39.9474 37.1262L39.9491 37.1245Z" fill="white" stroke="white" stroke-width="0.3"/>
</svg>
