<svg width="85" height="80" viewBox="0 0 85 80" fill="none" xmlns="http://www.w3.org/2000/svg">
<path d="M42.2798 80C18.929 80 0 67.471 0 44.7478V0H84.5596V44.7478C84.5596 67.471 65.6306 80 42.2798 80Z" fill="#CAC9E2"/>
<path d="M63.5791 14.1211L63.5908 14.1318C63.5998 14.1407 63.6118 14.1526 63.626 14.167C63.6544 14.1958 63.6926 14.236 63.7393 14.2871C63.833 14.3898 63.9608 14.5376 64.1084 14.7305C64.4034 15.1159 64.7808 15.6829 65.1309 16.4307C65.8338 17.9325 66.4192 20.1468 66.0283 23.043C65.7846 24.8485 65.4509 26.262 65.126 27.6387C64.4269 30.6005 63.7676 33.3938 64.1289 39.5615C64.1386 39.7151 64.1513 39.885 64.165 40.0684C64.2625 41.3721 64.411 43.366 63.916 45.1465C63.6264 46.188 63.1064 47.2093 62.1943 48.0049C61.2788 48.8035 60.0346 49.3166 58.4014 49.4541C57.7333 49.5165 56.8882 49.6661 56.0693 49.8916C55.2389 50.1203 54.493 50.4118 53.9912 50.7324L53.9814 50.7383C50.844 52.679 45.3283 57.1198 44.9443 65.8857C44.0383 65.8461 43.3283 65.0766 43.4336 64.1758C44.4234 55.7065 49.9616 51.2946 53.1123 49.3447C53.8132 48.8982 54.7368 48.5556 55.6338 48.3086C56.543 48.0583 57.4845 47.8908 58.2529 47.8193L58.2607 47.8184C59.6167 47.7047 60.5108 47.2948 61.1152 46.7676C61.7238 46.2367 62.1055 45.5278 62.334 44.7061C62.7452 43.2265 62.6245 41.5509 62.5283 40.2207C62.5143 40.0274 62.5005 39.8411 62.4893 39.6641V39.6602C62.1137 33.253 62.8449 30.1318 63.5615 27.0742C63.8753 25.7355 64.1865 24.4082 64.4004 22.8232C64.7447 20.2716 64.2273 18.3741 63.6436 17.127C63.3502 16.5003 63.0381 16.0334 62.8047 15.7285C62.6882 15.5763 62.5916 15.4649 62.5273 15.3945C62.4954 15.3596 62.4713 15.3347 62.457 15.3203C62.4508 15.3139 62.4457 15.3099 62.4434 15.3076C62.4434 15.3076 62.4446 15.3081 63.0078 14.7109C63.5692 14.1158 63.5723 14.1143 63.5723 14.1143L63.5791 14.1211ZM21.6934 32.0303L21.7012 32.0781C21.708 32.12 21.7179 32.1816 21.7305 32.2617C21.7343 32.2863 21.7378 32.3127 21.7422 32.3408C21.7515 32.3966 21.7612 32.4598 21.7734 32.5293C21.8302 32.8526 21.9197 33.3187 22.0459 33.8818C22.2989 35.0108 22.7005 36.519 23.2949 38.0518C23.8917 39.5907 24.6681 41.1165 25.6553 42.3066C26.6396 43.4934 27.7916 44.299 29.1465 44.5166C33.6417 45.2386 41.1044 45.934 46.0645 46.3965C48.2327 46.5987 49.923 46.7569 50.6777 46.8525C50.5636 47.7522 49.7405 48.3973 48.8379 48.3096C48.0972 48.2376 47.1798 48.1517 46.1406 48.0547C41.1754 47.591 33.4292 46.8675 28.8857 46.1377C27.0153 45.8373 25.5375 44.7361 24.3916 43.3545C23.7095 42.5321 23.1318 41.5929 22.6416 40.624C22.7139 41.6758 22.7748 42.787 22.8145 43.9355C22.9277 47.2152 22.8751 50.8159 22.4541 54.2129C22.0344 57.5987 21.2424 60.843 19.8408 63.373L18.4043 62.5771C19.6597 60.311 20.416 57.3039 20.8242 54.0107C21.231 50.7285 21.2853 47.2212 21.1738 43.9932C21.0624 40.7675 20.7856 37.8359 20.5371 35.7109C20.4129 34.6493 20.2959 33.79 20.21 33.1973C20.167 32.9009 20.1317 32.6705 20.1074 32.5156L20.0898 32.4102C20.0825 32.3634 20.077 32.327 20.0732 32.3018L20.0684 32.2725L20.0674 32.2637V32.2607C20.0719 32.26 20.1304 32.2514 20.8799 32.1475C20.8913 32.1459 20.9029 32.1441 20.9141 32.1426C21.6896 32.0127 21.6904 32.0127 21.6904 32.0127L21.6934 32.0303ZM56.1396 34.1572C57.0211 34.0307 58.0102 33.8904 59.04 34.3506L58.3701 35.8496C57.8291 35.6079 57.2965 35.6507 56.373 35.7832C56.3335 35.7889 56.2935 35.7949 56.2529 35.8008C55.3733 35.9279 54.2563 36.0893 52.8359 35.8789L53.0762 34.2539C54.2555 34.4286 55.1685 34.2974 56.0469 34.1709C56.0779 34.1664 56.1087 34.1617 56.1396 34.1572ZM54.4932 26.4688C55.5825 26.4688 56.3645 26.877 56.8887 27.2061C57.0293 27.2943 57.126 27.3583 57.2021 27.4092C57.2413 27.4354 57.2757 27.458 57.3076 27.4785C57.5411 27.3626 57.8424 27.2256 58.1562 27.1133C58.3814 27.0327 58.6339 26.9572 58.8857 26.916C59.1232 26.8772 59.4406 26.8548 59.752 26.9521L59.2617 28.5195C59.2751 28.5237 59.2823 28.5251 59.2822 28.5254C59.2797 28.5257 59.2402 28.5224 59.1504 28.5371C59.0316 28.5565 58.8814 28.5979 58.71 28.6592C58.3671 28.7819 58.0222 28.9534 57.8232 29.0605C57.3023 29.3408 56.809 29.0841 56.6436 28.9941C56.5191 28.9264 56.3471 28.8124 56.2002 28.7158C56.1307 28.6701 56.0661 28.6284 56.0156 28.5967C55.6123 28.3435 55.1414 28.1114 54.4932 28.1113C54.4932 28.1113 54.4895 28.1107 54.4824 28.1113C54.4752 28.1119 54.4646 28.1131 54.4512 28.1152C54.4237 28.1195 54.3867 28.1273 54.3398 28.1396C54.2445 28.1648 54.1238 28.206 53.9766 28.2656C53.6806 28.3854 53.3175 28.5645 52.9033 28.793C52.0764 29.249 51.1021 29.8694 50.1426 30.5146C49.8507 30.7109 49.5627 30.9072 49.2832 31.1006C49.6827 31.017 50.0943 30.9328 50.5078 30.8516C51.7276 30.6118 53.0058 30.3864 54.1289 30.2441C55.2203 30.1059 56.2649 30.0324 56.9639 30.1455C58.3191 30.3648 59.3413 31.087 60.0059 31.7188C60.3408 32.0373 60.5961 32.3425 60.7686 32.5703C60.855 32.6846 60.9213 32.7809 60.9678 32.8506C60.9909 32.8853 61.0092 32.9136 61.0225 32.9346L61.0391 32.9609L61.0439 32.9688L61.0459 32.9727L61.0469 32.9736V32.9746C61.0437 32.9768 60.9966 33.0047 60.3418 33.3955C59.6941 33.782 59.6418 33.8137 59.6377 33.8164V33.8184L59.6328 33.8096C59.6268 33.8001 59.6165 33.7831 59.6016 33.7607C59.5715 33.7157 59.5237 33.647 59.459 33.5615C59.3286 33.3894 59.1321 33.1536 58.874 32.9082C58.352 32.412 57.6187 31.915 56.7012 31.7666C56.2637 31.6959 55.4367 31.7345 54.335 31.874C53.2647 32.0096 52.0276 32.2264 50.8242 32.4629C49.0197 32.8176 47.3772 33.1964 46.4541 33.4092C46.128 33.4844 45.8915 33.539 45.7695 33.5645L45.6865 33.582H45.6025V32.7607C45.6025 33.5709 45.602 33.5819 45.6016 33.582H45.5986L45.5957 33.5811H45.5732C45.5628 33.5807 45.551 33.5801 45.5381 33.5791C45.5129 33.5772 45.4776 33.5736 45.4365 33.5654C45.3857 33.5553 45.1854 33.5135 45.0088 33.3369C44.9062 33.2343 44.8178 33.0908 44.7822 32.9131C44.748 32.7415 44.7744 32.5919 44.8096 32.4863C44.8718 32.3001 44.9834 32.1845 45.0215 32.1465L45.0723 32.0957L45.1309 32.0547C45.1947 32.01 45.3356 31.9073 45.5361 31.7607C46.2478 31.2406 47.7178 30.1653 49.2256 29.1514C50.2004 28.4959 51.2212 27.8448 52.1104 27.3545C52.5542 27.1097 52.9802 26.897 53.3604 26.7432C53.7168 26.5989 54.122 26.4688 54.4932 26.4688Z" fill="white"/>
</svg>
