<svg width="85" height="80" viewBox="0 0 85 80" fill="none" xmlns="http://www.w3.org/2000/svg">
<path d="M42.2798 80C18.929 80 0 67.471 0 44.7478V0H84.5596V44.7478C84.5596 67.471 65.6306 80 42.2798 80Z" fill="#CAC9E2"/>
<path d="M45.1765 47.9535C40.4834 45.8309 33.9352 43.1091 28.592 41.8815C28.592 41.8815 29.3583 39.9147 32.3021 40.7648C37.0798 42.2088 42.1455 44.3419 46.0195 46.0923C46.9417 46.5094 47.9644 46.6229 48.9025 46.4117C48.9632 46.3985 54.1796 45.2739 59.3695 44.5637C61.3487 44.2918 63.2434 45.4534 63.9067 47.3252C65.0641 47.1034 65.7988 46.8843 66.7659 46.6335C67.556 46.4276 68.3726 46.549 69.0649 46.9793C71.2582 48.3151 70.7693 51.7023 68.2695 52.3491C61.1532 54.2261 54.3646 54.6195 49.933 54.6195C41.6144 54.4796 34.4822 53.5556 25.4501 51.6257C23.4021 51.1162 21.4466 49.6563 20.2205 47.7185C18.4209 44.8752 15.8656 40.6565 14.0898 36.5117H16.3254C17.9347 40.1074 20.3156 44.0568 21.9514 46.6256C22.8868 48.1066 24.4168 49.2603 25.9416 49.6404C38.2954 52.056 50.8606 54.4585 67.7463 50.3717C68.8879 50.0338 68.4651 48.3442 67.2812 48.6108L66.507 48.8115C64.9954 49.2524 62.3212 49.7144 60.075 50.0602C57.0124 50.5697 55.9554 48.5818 55.9554 48.5818C56.0029 48.5765 58.9916 48.1884 61.8455 47.7C61.4254 46.9186 60.5533 46.4619 59.6443 46.5859C54.5337 47.2855 49.3913 48.3943 49.3411 48.4049C47.9802 48.7111 46.4978 48.5501 45.1739 47.9508L45.1765 47.9535Z" fill="white"/>
<path d="M14.0898 19.2512V17.1523L15.5089 17.4665C20.6486 18.607 24.7339 22.4587 26.1688 27.5144C27.2866 31.4532 27.8468 33.6444 28.3806 36.0204C29.0597 39.0459 27.2364 40.5111 27.2364 40.5111C26.9457 38.3384 25.8966 34.0378 24.2028 28.074C22.8551 23.3511 18.9045 20.0141 14.0925 19.2538L14.0898 19.2512Z" fill="white"/>
</svg>
