<svg width="85" height="80" viewBox="0 0 85 80" fill="none" xmlns="http://www.w3.org/2000/svg">
<path d="M42.2798 80C18.929 80 0 67.471 0 44.7478V0H84.5596V44.7478C84.5596 67.471 65.6306 80 42.2798 80Z" fill="#CAC9E2"/>
<path d="M18.0744 37.4073L16.6924 38.1914V36.1348L19.3798 34.4848C25.0454 30.9842 29.173 27.4255 31.6966 25.0627C33.8371 23.1962 35.3803 24.2231 35.2112 24.1624C34.8254 24.5875 28.4569 31.5069 18.0744 37.4047V37.4073Z" fill="white"/>
<path d="M16.6947 18.2171L30.9512 12.388C35.0893 10.7354 39.9384 12.6731 41.7908 16.7097L52.5696 40.9819C53.0876 42.0827 53.7905 43.0595 54.6599 43.8911C56.5572 45.7048 60.0163 49.2979 61.8396 52.986C63.3141 56.278 66.6332 52.6744 67.7747 55.2564C68.0839 56.0484 67.5818 57.0225 66.4297 57.8673C63.1741 60.0876 59.1284 59.6256 55.5398 56.7374C54.6282 56.0008 53.4285 55.7368 52.2499 56.014C48.8093 56.8219 47.0996 55.7131 46.7508 55.4491C44.3355 53.704 45.6224 51.1379 46.1219 49.3005C46.6689 47.2096 46.3491 46.2355 44.8323 44.9577C44.0475 44.4746 36.4608 39.9444 33.9081 32.2963C32.6027 29.1679 33.7734 27.8716 34.3944 27.6367C34.9704 29.8622 35.639 31.6442 35.6443 31.6627L35.6575 31.697C38.0648 38.9332 45.7599 43.3605 45.8418 43.408C48.0086 45.095 48.664 46.9404 47.9135 49.7572C47.3084 51.7848 46.6742 53.3344 47.8844 53.9891C48.0219 54.0842 49.1951 54.8339 51.8271 54.2162C53.5659 53.807 55.3443 54.203 56.7025 55.3013C58.5814 56.9354 62.635 58.6303 65.6184 56.154C64.6988 56.3044 63.5969 56.5236 62.3655 56.014C61.0865 55.4702 60.5659 54.5911 60.1801 53.807C58.481 50.3724 55.1884 46.9588 53.3782 45.2296C52.3371 44.2344 51.4941 43.0595 50.8784 41.7422L40.0996 17.47C39.978 17.2139 39.8406 16.9605 39.6873 16.7229C37.9776 14.0486 34.5926 12.9477 31.6356 14.1066L22.1542 17.9822C22.1542 17.9822 20.2331 18.7689 20.2225 18.7715C17.5351 19.8698 16.6895 18.2171 16.6895 18.2171H16.6947Z" fill="white"/>
</svg>
