<svg width="85" height="80" viewBox="0 0 85 80" fill="none" xmlns="http://www.w3.org/2000/svg">
<path d="M42.2798 80C18.929 80 0 67.471 0 44.7478V0H84.5596V44.7478C84.5596 67.471 65.6306 80 42.2798 80Z" fill="#CAC9E2"/>
<g clip-path="url(#clip0_6_2501)">
<path d="M30.9539 45.4238C29.969 45.4238 29.2303 46.2405 29.3124 47.2206C29.3124 47.3022 29.3124 47.3839 29.3124 47.4656C29.5586 49.4256 29.8049 53.9175 27.7529 57.0209L29.2303 58.001C31.9389 53.9175 31.2002 48.2006 30.9539 46.0772C30.9539 45.7505 30.9539 45.5872 30.9539 45.4238Z" fill="white"/>
<path d="M29.8874 41.2578C26.9326 37.991 27.1788 32.0291 27.8354 26.7206L26.0297 26.4756C25.3731 32.1925 25.1269 38.6444 28.5741 42.4012C30.2977 44.3612 32.678 45.3413 35.5507 45.3413C35.5507 44.3612 34.8941 43.5446 33.9091 43.3812C32.2676 43.1362 30.9544 42.4012 29.8874 41.2578Z" fill="white"/>
<path d="M55.9853 42.4832C59.3505 38.6447 59.1863 32.2745 58.5297 26.5576L56.724 26.8026C57.3806 32.1928 57.6269 38.073 54.6721 41.3398C53.6051 42.4832 52.2919 43.2182 50.6503 43.5449C49.7475 43.7083 49.0088 44.5249 49.0088 45.505C50.6503 45.505 52.1277 45.1783 53.4409 44.5249C53.1947 47.7917 53.1947 53.5086 55.2466 58.0005L56.8882 57.2654C54.59 52.2836 55.0825 45.505 55.4108 43.2182C55.575 42.8916 55.7391 42.6465 55.9853 42.4832Z" fill="white"/>
<path d="M66.0833 26.3938C65.5087 22.0653 63.1285 19.2886 59.1888 18.3085C56.9727 17.7368 53.7717 16.7568 51.3915 15.6951C50.2424 15.2051 49.5037 14.1434 49.3396 13C48.2726 13.1633 47.698 14.3067 48.1905 15.2051C48.765 16.1851 49.5858 16.9201 50.6528 17.4102C53.1972 18.5535 56.3982 19.4519 58.6964 20.1053C61.9794 21.0036 63.7031 23.0454 64.2776 26.7205C64.9342 31.6207 64.8521 53.1815 64.8521 53.4265H66.6578C66.6578 53.1815 66.7399 31.539 66.0833 26.3938Z" fill="white"/>
<path d="M18.2326 26.3938C18.8071 22.0653 21.1874 19.2886 25.1271 18.3085C27.3432 17.7368 30.5442 16.7568 32.9244 15.6951C34.0735 15.2051 34.8122 14.1434 34.9763 13C36.0433 13.1633 36.6179 14.3067 36.1254 15.2051C35.5509 16.1851 34.7301 16.9201 33.6631 17.4102C31.1187 18.5535 27.9177 19.4519 25.6195 20.1053C22.3365 21.0036 20.6128 23.0454 20.0383 26.7205C19.3817 31.6207 19.4638 53.1815 19.4638 53.4265H17.6581C17.6581 53.1815 17.576 31.539 18.2326 26.3938Z" fill="white"/>
<path d="M43.1783 33.5H41.3726V39.9519H43.1783V33.5Z" fill="white"/>
</g>
<defs>
<clipPath id="clip0_6_2501">
<rect width="49" height="45" fill="white" transform="translate(17.3203 13)"/>
</clipPath>
</defs>
</svg>
