<svg width="85" height="80" viewBox="0 0 85 80" fill="none" xmlns="http://www.w3.org/2000/svg">
<path d="M42.2798 80C18.929 80 0 67.471 0 44.7478V0H84.5596V44.7478C84.5596 67.471 65.6306 80 42.2798 80Z" fill="#CAC9E2"/>
<g clip-path="url(#clip0_6_2570)">
<path d="M21.0449 58.2212C18.8109 42.1025 22.1824 34.9769 25.1538 28.689C26.9499 24.8813 28.5134 21.5687 28.6776 16.7121V14C28.8846 14.0173 30.1675 14.1835 30.3454 16.6706C30.3454 16.6844 30.3471 16.6983 30.3488 16.7121H30.3471C30.3352 21.6137 28.5732 25.4698 26.8609 29.1183L37.0321 35.3144C40.2823 37.2944 44.3193 37.2944 47.5694 35.3179L57.7578 29.12C56.0489 25.4733 54.2869 21.6137 54.2733 16.7138H54.2716C54.2716 16.6983 54.275 16.6844 54.275 16.6706C54.4546 14.1852 55.7358 14.019 55.9428 14.0017C55.4638 30.8888 67.58 30.946 63.4643 59.0017H61.7469L61.9829 57.1758C61.9932 57.0875 62.0103 56.9542 62.0223 56.8642C62.8434 50.3323 62.6843 45.384 62.012 41.386C58.7071 42.5144 47.1469 46.651 43.1629 50.5608V59.0017H41.4523V50.585C37.9114 47.1892 29.8083 43.9908 24.2642 41.9744C24.5072 41.1212 25.3778 40.5569 26.2349 40.7681C26.2605 40.775 26.6266 40.9135 26.6403 40.9117V40.9048C31.7994 42.8519 38.7889 45.7873 42.2974 48.939C46.9177 44.7385 58.5686 40.6296 61.6613 39.586C60.8813 36.0552 59.7044 33.2912 58.5224 30.7538L48.4145 36.9033C46.5294 38.0508 44.4151 38.6237 42.3008 38.6237C40.1865 38.6237 38.0688 38.049 36.182 36.8998L26.0912 30.7538C23.0702 36.7423 20.7148 45.3667 22.8701 59.0017H21.1527L21.0449 58.2229V58.2212Z" fill="white"/>
<path d="M43.1662 24.3135H41.4624V26.1152H43.1662V24.3135Z" fill="white"/>
</g>
<defs>
<clipPath id="clip0_6_2570">
<rect width="44" height="45" fill="white" transform="translate(20.3203 14)"/>
</clipPath>
</defs>
</svg>
