<svg width="85" height="80" viewBox="0 0 85 80" fill="none" xmlns="http://www.w3.org/2000/svg">
<path d="M42.2798 80C18.929 80 0 67.471 0 44.7478V0H84.5596V44.7478C84.5596 67.471 65.6306 80 42.2798 80Z" fill="#CAC9E2"/>
<g clip-path="url(#clip0_6_2577)">
<path d="M30.3025 45.4308L31.7948 44.1788C24.8159 35.8558 20.6428 27.2192 19.064 21.9115C18.7928 20.9981 19.0102 20.0346 19.6467 19.3327C20.2832 18.6288 21.2236 18.3173 22.1582 18.4981C30.0121 20.0096 40.7794 24.4654 42.7178 25.2827C42.8294 26.5231 43.114 28.4596 43.8236 30.4058C38.9525 29.6038 30.2948 28.0019 30.1967 27.9827L29.8428 29.8981C29.8736 29.9038 30.8025 30.075 32.2063 30.3327C33.0159 31.1462 37.8332 36.0865 41.2005 41.9346L41.5255 42.4981L47.8044 41.6942L48.7948 36.2904C49.889 36.7846 51.1044 37.0423 52.4294 37.0423H52.4813C53.7948 37.0365 54.9909 36.7788 56.0698 36.2923L57.0582 41.6885L65.0582 42.7192V42.725L67.0005 42.9769C67.0005 42.9769 67.0005 40.9846 63.8832 40.6077L58.7121 39.9423L57.8428 35.1962C58.0775 35.0038 58.3044 34.8 58.5236 34.5788C62.2602 30.7808 62.2255 23.9538 62.2236 23.6769V21.7923C62.2236 16.3923 57.8313 12 52.4313 12C47.0313 12 42.639 16.3923 42.639 21.7923V23.1365C39.3621 21.7788 29.8717 17.9981 22.5294 16.5846C20.9198 16.275 19.3025 16.8135 18.2044 18.025C17.1063 19.2365 16.7294 20.8981 17.1967 22.4673C18.8313 27.9615 23.1313 36.8788 30.3005 45.4288L30.3025 45.4308ZM44.5832 21.7942C44.5832 17.4692 48.1025 13.95 52.4294 13.95C56.7563 13.95 60.2736 17.4692 60.2736 21.7942V23.6885C60.2736 23.7519 60.2967 30.0038 57.1294 33.2173C55.8948 34.4692 54.3717 35.0827 52.4698 35.0923H52.4275C49.6794 35.0923 47.6755 33.8288 46.3025 31.2288C45.1063 28.9635 44.7428 26.2673 44.6352 24.8615C44.5794 24.1442 44.5832 23.6904 44.5832 23.6769V21.7923V21.7942ZM46.1428 39.9423L42.5582 40.4019C40.2025 36.4481 37.3275 33.0058 35.4409 30.9212C38.6736 31.5038 42.5371 32.1846 44.8198 32.5404C45.4371 33.6019 46.1678 34.4923 47.0121 35.1827L46.139 39.9423H46.1428Z" fill="white"/>
<path d="M39.0665 49.7422C39.0223 50.1076 38.9761 50.6556 38.93 51.2903C38.8223 52.7903 38.3213 58.595 38.2636 59.8373L38.1386 62.0027H36.2271L36.2636 60.9931C36.2886 60.3066 36.7819 54.2018 36.8473 53.0768C36.9704 50.6076 39.0646 49.746 39.0646 49.746L39.0665 49.7422Z" fill="white"/>
</g>
<defs>
<clipPath id="clip0_6_2577">
<rect width="50" height="50" fill="white" transform="translate(17 12)"/>
</clipPath>
</defs>
</svg>
