<svg width="872" height="186" viewBox="0 0 872 186" fill="none" xmlns="http://www.w3.org/2000/svg">
<path d="M28.8491 16.0381V0.176086H39.2771V2.42009H31.4011V6.68809H37.8031V8.93209H31.4011V16.0381H28.8491ZM44.1751 16.2141C41.8651 16.2141 40.2371 14.8721 40.2371 12.9361C40.2371 10.9561 41.6671 9.72409 44.1531 9.39409L46.5951 9.06409C47.2551 8.97609 47.5851 8.66809 47.5851 8.11809C47.5851 7.12809 46.6831 6.35809 45.1871 6.35809C43.8011 6.35809 42.7891 7.06209 42.6791 8.33809H40.3251C40.5891 5.96209 42.4151 4.44409 45.1871 4.44409C48.1131 4.44409 49.9831 6.11609 49.9831 8.66809V13.2001C49.9831 13.8601 50.2691 14.1021 50.7311 14.1021C50.8851 14.1021 51.1051 14.0581 51.1051 14.0581V16.0381C51.1051 16.0381 50.5331 16.1701 49.9831 16.1701C48.7951 16.1701 47.9591 15.5981 47.8711 14.3661C47.3211 15.5101 45.8911 16.2141 44.1751 16.2141ZM44.5491 14.3441C46.5071 14.3441 47.6511 12.9801 47.6511 11.0221V10.6041L44.5491 11.1101C43.2731 11.3081 42.6351 11.8801 42.6351 12.8481C42.6351 13.7281 43.4051 14.3441 44.5491 14.3441ZM57.7076 16.2141C54.3856 16.2141 52.0756 13.8381 52.0756 10.3181C52.0756 6.82009 54.3856 4.44409 57.7076 4.44409C60.4136 4.44409 62.4596 5.91809 62.8556 8.73409H60.5016C60.2596 7.43609 59.1596 6.53409 57.7516 6.53409C55.7936 6.53409 54.5176 8.03009 54.5176 10.3181C54.5176 12.6281 55.8156 14.1241 57.7516 14.1241C59.1816 14.1241 60.2376 13.2881 60.5016 11.8361H62.8556C62.3936 14.8061 60.3916 16.2141 57.7076 16.2141ZM64.0633 10.3181C64.0633 7.23809 65.9773 4.44409 69.5853 4.44409C73.1273 4.44409 74.9973 7.08409 74.9753 9.92209C74.9753 10.3621 74.9313 10.8901 74.9313 10.8901H66.4393C66.6593 12.9801 67.9133 14.1681 69.7613 14.1681C71.1693 14.1681 72.2913 13.5081 72.5553 12.3421H74.9093C74.5133 14.8281 72.4233 16.2141 69.6953 16.2141C66.0873 16.2141 64.0633 13.4201 64.0633 10.3181ZM66.5493 8.99809H72.4013C72.2913 7.45809 71.3013 6.33609 69.5853 6.33609C67.9793 6.33609 66.9013 7.32609 66.5493 8.99809Z" fill="#1A1A1A"/>
<path d="M170.235 16.0381L176.373 0.176086H179.079L185.239 16.0381H182.489L181.059 12.2541H174.305L172.897 16.0381H170.235ZM175.141 10.0321H180.223L177.671 3.30008L175.141 10.0321ZM193.324 6.79809C193.148 6.75409 192.73 6.66609 192.18 6.66609C190.508 6.66609 188.968 8.20609 188.968 11.7701V16.0381H186.57V4.62008H188.968V6.79809C189.496 5.43409 191.036 4.44409 192.488 4.44409C192.972 4.44409 193.214 4.51008 193.324 4.51008V6.79809ZM194.863 16.0381V4.62008H197.261V6.57809C197.855 5.30209 198.999 4.44409 200.627 4.44409C202.475 4.44409 203.795 5.23609 204.279 6.71009C204.895 5.43409 206.259 4.44409 208.019 4.44409C210.461 4.44409 212.045 6.00609 212.045 8.33809V16.0381H209.647V8.93209C209.647 7.48009 208.811 6.51209 207.359 6.51209C205.621 6.51209 204.653 8.05209 204.653 10.2741V16.0381H202.255V8.93209C202.255 7.48009 201.441 6.51209 199.989 6.51209C198.251 6.51209 197.261 8.07409 197.261 10.2741V16.0381H194.863ZM214.522 20.1521V4.62008H216.92V6.09409C217.536 5.14809 218.922 4.44409 220.462 4.44409C223.806 4.44409 225.83 6.90809 225.83 10.3181C225.83 13.7501 223.696 16.2141 220.308 16.2141C218.944 16.2141 217.624 15.5981 216.92 14.6961V20.1521H214.522ZM220.066 14.1241C222.046 14.1241 223.366 12.6061 223.366 10.3181C223.366 8.03009 222.046 6.53409 220.066 6.53409C218.086 6.53409 216.766 8.03009 216.766 10.3181C216.766 12.6061 218.086 14.1241 220.066 14.1241ZM227.777 16.0381V4.62008H230.175V16.0381H227.777ZM227.667 8.52346e-05H230.329V2.70609H227.667V8.52346e-05ZM238.833 4.62008V6.64409H236.061V12.3861C236.061 13.5301 236.721 14.1241 237.689 14.1241C238.173 14.1241 238.657 13.9921 238.833 13.9481V16.0381C238.635 16.1041 238.063 16.2141 237.447 16.2141C235.203 16.2141 233.663 15.0481 233.663 12.5841V6.64409H231.639V4.62008H233.663V1.21009H236.061V4.62008H238.833ZM244.631 16.2141C241.771 16.2141 239.857 14.5201 239.747 12.1661H242.101C242.167 13.1561 243.135 14.1461 244.631 14.1461C245.885 14.1461 246.743 13.5521 246.743 12.7601C246.743 11.9901 246.193 11.6161 245.335 11.4181L243.443 10.9781C241.771 10.6041 240.253 9.79009 240.253 7.65609C240.253 5.87409 241.881 4.44409 244.411 4.44409C246.831 4.44409 248.679 5.78609 248.965 7.98609H246.611C246.479 6.97409 245.489 6.40209 244.411 6.40209C243.377 6.40209 242.651 6.88609 242.651 7.65609C242.651 8.27209 243.179 8.66809 243.993 8.86609L245.885 9.28409C247.711 9.68009 249.185 10.4061 249.185 12.6941C249.185 14.6741 247.381 16.2141 244.631 16.2141Z" fill="#1A1A1A"/>
<path d="M344.254 16.0381L350.392 0.176086H353.098L359.258 16.0381H356.508L355.078 12.2541H348.324L346.916 16.0381H344.254ZM349.16 10.0321H354.242L351.69 3.30008L349.16 10.0321ZM367.344 6.79809C367.168 6.75409 366.75 6.66609 366.2 6.66609C364.528 6.66609 362.988 8.20609 362.988 11.7701V16.0381H360.59V4.62008H362.988V6.79809C363.516 5.43409 365.056 4.44409 366.508 4.44409C366.992 4.44409 367.234 4.51008 367.344 4.51008V6.79809ZM368.883 16.0381V4.62008H371.281V6.57809C371.875 5.30209 373.019 4.44409 374.647 4.44409C376.495 4.44409 377.815 5.23609 378.299 6.71009C378.915 5.43409 380.279 4.44409 382.039 4.44409C384.481 4.44409 386.065 6.00609 386.065 8.33809V16.0381H383.667V8.93209C383.667 7.48009 382.831 6.51209 381.379 6.51209C379.641 6.51209 378.673 8.05209 378.673 10.2741V16.0381H376.275V8.93209C376.275 7.48009 375.461 6.51209 374.009 6.51209C372.271 6.51209 371.281 8.07409 371.281 10.2741V16.0381H368.883ZM392.611 16.2141C389.751 16.2141 387.837 14.5201 387.727 12.1661H390.081C390.147 13.1561 391.115 14.1461 392.611 14.1461C393.865 14.1461 394.723 13.5521 394.723 12.7601C394.723 11.9901 394.173 11.6161 393.315 11.4181L391.423 10.9781C389.751 10.6041 388.233 9.79009 388.233 7.65609C388.233 5.87409 389.861 4.44409 392.391 4.44409C394.811 4.44409 396.659 5.78609 396.945 7.98609H394.591C394.459 6.97409 393.469 6.40209 392.391 6.40209C391.357 6.40209 390.631 6.88609 390.631 7.65609C390.631 8.27209 391.159 8.66809 391.973 8.86609L393.865 9.28409C395.691 9.68009 397.165 10.4061 397.165 12.6941C397.165 14.6741 395.361 16.2141 392.611 16.2141Z" fill="#1A1A1A"/>
<path d="M505.634 16.2141C501.52 16.2141 497.846 13.5301 497.846 8.09609C497.846 2.68408 501.586 8.52346e-05 505.634 8.52346e-05C509.242 8.52346e-05 512.102 2.00209 512.564 5.56609H509.88C509.55 3.54209 507.834 2.24409 505.612 2.24409C502.664 2.24409 500.442 4.33409 500.442 8.09609C500.442 11.8801 502.664 13.9481 505.612 13.9481C507.856 13.9481 509.506 12.7381 509.88 10.6481H512.586C511.992 14.3221 509.132 16.2141 505.634 16.2141ZM514.444 16.0381V8.52346e-05H516.842V6.55609C517.656 5.25809 518.998 4.44409 520.626 4.44409C523.068 4.44409 524.74 6.05009 524.74 8.51409V16.0381H522.364V9.04209C522.364 7.61209 521.44 6.60009 519.988 6.60009C518.03 6.60009 516.842 8.27209 516.842 11.0221V16.0381H514.444ZM526.611 10.3181C526.611 7.23809 528.525 4.44409 532.133 4.44409C535.675 4.44409 537.545 7.08409 537.523 9.92209C537.523 10.3621 537.479 10.8901 537.479 10.8901H528.987C529.207 12.9801 530.461 14.1681 532.309 14.1681C533.717 14.1681 534.839 13.5081 535.103 12.3421H537.457C537.061 14.8281 534.971 16.2141 532.243 16.2141C528.635 16.2141 526.611 13.4201 526.611 10.3181ZM529.097 8.99809H534.949C534.839 7.45809 533.849 6.33609 532.133 6.33609C530.527 6.33609 529.449 7.32609 529.097 8.99809ZM543.587 16.2141C540.727 16.2141 538.813 14.5201 538.703 12.1661H541.057C541.123 13.1561 542.091 14.1461 543.587 14.1461C544.841 14.1461 545.699 13.5521 545.699 12.7601C545.699 11.9901 545.149 11.6161 544.291 11.4181L542.399 10.9781C540.727 10.6041 539.209 9.79009 539.209 7.65609C539.209 5.87409 540.837 4.44409 543.367 4.44409C545.787 4.44409 547.635 5.78609 547.921 7.98609H545.567C545.435 6.97409 544.445 6.40209 543.367 6.40209C542.333 6.40209 541.607 6.88609 541.607 7.65609C541.607 8.27209 542.135 8.66809 542.949 8.86609L544.841 9.28409C546.667 9.68009 548.141 10.4061 548.141 12.6941C548.141 14.6741 546.337 16.2141 543.587 16.2141ZM556.03 4.62008V6.64409H553.258V12.3861C553.258 13.5301 553.918 14.1241 554.886 14.1241C555.37 14.1241 555.854 13.9921 556.03 13.9481V16.0381C555.832 16.1041 555.26 16.2141 554.644 16.2141C552.4 16.2141 550.86 15.0481 550.86 12.5841V6.64409H548.836V4.62008H550.86V1.21009H553.258V4.62008H556.03Z" fill="#1A1A1A"/>
<path d="M652.889 16.0381V0.176086H658.829C661.799 0.176086 663.735 1.60609 663.735 4.24609C663.735 5.67609 662.943 6.82009 661.733 7.34809C663.383 7.96409 664.461 9.32809 664.461 11.3741C664.461 14.4101 662.415 16.0381 659.093 16.0381H652.889ZM658.653 13.7721C660.787 13.7721 661.865 12.9141 661.865 11.2641C661.865 9.63609 660.787 8.73409 658.653 8.73409H655.441V13.7721H658.653ZM658.543 6.51209C660.281 6.51209 661.161 5.76409 661.161 4.42209C661.161 3.08008 660.259 2.31009 658.521 2.31009H655.441V6.51209H658.543ZM666.462 16.0381V4.62008H668.86V16.0381H666.462ZM666.352 8.52346e-05H669.014V2.70609H666.352V8.52346e-05ZM671.468 16.0381V8.52346e-05H673.866V8.97609L678.442 4.62008H681.786L677.056 9.06409L682.138 16.0381H679.146L675.384 10.6701L673.866 12.0781V16.0381H671.468ZM683.134 16.0381V4.62008H685.532V16.0381H683.134ZM683.024 8.52346e-05H685.686V2.70609H683.024V8.52346e-05ZM688.14 16.0381V4.62008H690.538V6.55609C691.33 5.25809 692.694 4.44409 694.322 4.44409C696.742 4.44409 698.436 6.05009 698.436 8.51409V16.0381H696.038V9.04209C696.038 7.61209 695.136 6.60009 693.684 6.60009C691.726 6.60009 690.538 8.27209 690.538 11.0221V16.0381H688.14ZM700.923 16.0381V4.62008H703.321V16.0381H700.923ZM700.813 8.52346e-05H703.475V2.70609H700.813V8.52346e-05Z" fill="#1A1A1A"/>
<path d="M800.843 16.0381V0.176086H803.395V13.7501H811.029V16.0381H800.843ZM811.415 10.3181C811.415 7.23809 813.329 4.44409 816.937 4.44409C820.479 4.44409 822.349 7.08409 822.327 9.92209C822.327 10.3621 822.283 10.8901 822.283 10.8901H813.791C814.011 12.9801 815.265 14.1681 817.113 14.1681C818.521 14.1681 819.643 13.5081 819.907 12.3421H822.261C821.865 14.8281 819.775 16.2141 817.047 16.2141C813.439 16.2141 811.415 13.4201 811.415 10.3181ZM813.901 8.99809H819.753C819.643 7.45809 818.653 6.33609 816.937 6.33609C815.331 6.33609 814.253 7.32609 813.901 8.99809ZM829.424 20.3281C826.3 20.3281 824.298 18.9421 823.968 16.3461H826.388C826.564 17.6001 827.642 18.3481 829.424 18.3481C831.316 18.3481 832.438 17.3361 832.438 15.5541V14.0581C831.888 14.8941 830.59 15.4881 829.072 15.4881C825.728 15.4881 823.704 13.2001 823.704 9.98809C823.704 6.73209 825.728 4.44409 829.006 4.44409C830.458 4.44409 831.778 5.08209 832.438 6.00609V4.62008H834.836V15.3121C834.836 18.4581 832.79 20.3281 829.424 20.3281ZM829.38 13.4201C831.338 13.4201 832.592 12.0561 832.592 9.98809C832.592 7.92009 831.338 6.53409 829.38 6.53409C827.422 6.53409 826.168 7.89809 826.168 9.98809C826.168 12.0561 827.422 13.4201 829.38 13.4201ZM841.474 16.2141C838.614 16.2141 836.7 14.5201 836.59 12.1661H838.944C839.01 13.1561 839.978 14.1461 841.474 14.1461C842.728 14.1461 843.586 13.5521 843.586 12.7601C843.586 11.9901 843.036 11.6161 842.178 11.4181L840.286 10.9781C838.614 10.6041 837.096 9.79009 837.096 7.65609C837.096 5.87409 838.724 4.44409 841.254 4.44409C843.674 4.44409 845.522 5.78609 845.808 7.98609H843.454C843.322 6.97409 842.332 6.40209 841.254 6.40209C840.22 6.40209 839.494 6.88609 839.494 7.65609C839.494 8.27209 840.022 8.66809 840.836 8.86609L842.728 9.28409C844.554 9.68009 846.028 10.4061 846.028 12.6941C846.028 14.6741 844.224 16.2141 841.474 16.2141Z" fill="#1A1A1A"/>
<path d="M51.7661 185.986C23.1766 185.986 0.000976562 170.646 0.000976562 142.825V88.0381H103.531V142.825C103.531 170.646 80.3555 185.986 51.7661 185.986Z" fill="#CAC9E2"/>
<path d="M77.8438 105.327L77.8584 105.341C77.8695 105.352 77.884 105.366 77.9014 105.384C77.9363 105.419 77.9837 105.469 78.041 105.531C78.1558 105.657 78.3116 105.838 78.4922 106.074C78.8534 106.546 79.3156 107.241 79.7441 108.156C80.6047 109.995 81.3212 112.705 80.8428 116.251C80.5444 118.462 80.1352 120.192 79.7373 121.878C78.8814 125.504 78.0743 128.924 78.5166 136.476C78.5285 136.664 78.5447 136.872 78.5615 137.097C78.6809 138.693 78.8629 141.134 78.2568 143.313C77.9023 144.589 77.2652 145.839 76.1484 146.813C75.0275 147.791 73.5044 148.42 71.5049 148.588C70.6869 148.664 69.6521 148.847 68.6494 149.123C67.6327 149.403 66.7198 149.76 66.1055 150.152L66.0996 150.156L66.0928 150.16C62.2515 152.536 55.4985 157.973 55.0283 168.705C53.919 168.656 53.0509 167.715 53.1797 166.612C54.3915 156.243 61.1718 150.841 65.0293 148.454C65.8874 147.907 67.0179 147.487 68.1162 147.185C69.2294 146.878 70.3823 146.672 71.3232 146.585H71.332C72.9925 146.446 74.087 145.943 74.8271 145.298C75.5722 144.648 76.0406 143.781 76.3203 142.774C76.8239 140.963 76.6753 138.911 76.5576 137.282C76.5405 137.045 76.5245 136.817 76.5107 136.601L76.5098 136.596C76.0501 128.751 76.9459 124.93 77.8232 121.187C78.2074 119.547 78.5877 117.923 78.8496 115.982C79.2713 112.858 78.6376 110.535 77.9229 109.008C77.5637 108.241 77.1813 107.669 76.8955 107.296C76.7527 107.109 76.6343 106.973 76.5557 106.887C76.5165 106.844 76.4871 106.814 76.4697 106.796L76.4541 106.78H76.4551L77.8359 105.319L77.8438 105.327ZM26.5615 127.254L26.5703 127.312C26.5786 127.364 26.591 127.44 26.6064 127.538C26.6095 127.558 26.6119 127.578 26.6152 127.6C26.6279 127.676 26.6426 127.765 26.6602 127.865C26.7297 128.261 26.8377 128.832 26.9922 129.521C27.3019 130.904 27.7937 132.75 28.5215 134.627C29.2521 136.511 30.2036 138.379 31.4121 139.836C32.6172 141.289 34.0276 142.276 35.6865 142.542C41.1902 143.426 50.3275 144.278 56.4004 144.845C59.0547 145.092 61.1236 145.285 62.0479 145.402C61.908 146.504 60.901 147.293 59.7959 147.186C58.889 147.097 57.7656 146.993 56.4932 146.874C50.4139 146.306 40.9299 145.421 35.3672 144.527C33.0771 144.159 31.2672 142.812 29.8643 141.12C29.0301 140.114 28.3224 138.966 27.7227 137.781C27.811 139.068 27.8861 140.426 27.9346 141.831C28.0733 145.846 28.0077 150.254 27.4922 154.413C26.9784 158.559 26.0091 162.531 24.293 165.629L22.5342 164.655C24.0714 161.881 24.9973 158.198 25.4971 154.166C25.9952 150.147 26.0613 145.853 25.9248 141.9C25.7884 137.951 25.4508 134.363 25.1465 131.762C24.9944 130.461 24.8503 129.408 24.7451 128.683C24.6972 128.352 24.6571 128.089 24.6279 127.901C24.6164 127.831 24.6056 127.77 24.5977 127.72C24.5887 127.662 24.5817 127.618 24.5771 127.587L24.5723 127.551L24.5713 127.541L24.5703 127.537C24.5703 127.537 24.5706 127.536 25.5664 127.397C25.5779 127.396 25.5893 127.394 25.6006 127.393C26.5133 127.24 26.5557 127.234 26.5576 127.233L26.5615 127.254ZM68.7363 129.859C69.8155 129.704 71.0262 129.531 72.2871 130.095L71.4668 131.931C70.8044 131.635 70.1521 131.687 69.0215 131.85C68.9731 131.857 68.9237 131.864 68.874 131.871C67.797 132.027 66.4294 132.224 64.6904 131.967L64.9854 129.978C66.4292 130.191 67.5467 130.031 68.6221 129.876C68.6602 129.87 68.6983 129.865 68.7363 129.859ZM66.7197 120.445C68.0537 120.445 69.0116 120.945 69.6533 121.348C69.8257 121.456 69.9438 121.535 70.0371 121.598C70.0849 121.63 70.1261 121.658 70.165 121.683C70.451 121.541 70.8206 121.372 71.2051 121.234C71.4805 121.136 71.7895 121.044 72.0977 120.993C72.3883 120.946 72.777 120.918 73.1582 121.037L72.5586 122.956C72.5725 122.96 72.581 122.962 72.583 122.963C72.5781 122.963 72.5295 122.96 72.4219 122.978C72.2764 123.001 72.0919 123.052 71.8818 123.127C71.4623 123.277 71.0414 123.487 70.7979 123.618C70.1597 123.962 69.5549 123.647 69.3525 123.537C69.2002 123.454 68.9894 123.315 68.8096 123.197C68.7244 123.141 68.6458 123.09 68.584 123.051C68.0902 122.741 67.5135 122.456 66.7197 122.456C66.7197 122.456 66.7156 122.456 66.707 122.457C66.6982 122.458 66.6855 122.459 66.6689 122.462C66.6353 122.467 66.5899 122.476 66.5322 122.491C66.4155 122.522 66.2674 122.572 66.0869 122.646C65.7245 122.792 65.2806 123.011 64.7734 123.291C63.761 123.849 62.5674 124.608 61.3926 125.398C61.0353 125.639 60.683 125.879 60.3408 126.116C60.8299 126.014 61.3336 125.911 61.8398 125.812C63.3333 125.518 64.8983 125.243 66.2734 125.068C67.6098 124.899 68.8893 124.808 69.7451 124.946C71.4043 125.215 72.6552 126.1 73.4688 126.873C73.879 127.263 74.1911 127.637 74.4023 127.916C74.5083 128.056 74.5905 128.173 74.6475 128.259C74.6759 128.301 74.6977 128.337 74.7139 128.362L74.7334 128.394L74.7402 128.404L74.7422 128.408L74.7441 128.41C74.7443 128.41 74.7441 128.411 73.8809 128.926C73.09 129.398 73.024 129.438 73.0186 129.441L73.0127 129.434C73.0054 129.422 72.9929 129.401 72.9746 129.374C72.9379 129.319 72.8791 129.235 72.7998 129.13C72.6403 128.919 72.3999 128.63 72.084 128.33C71.4449 127.723 70.5472 127.113 69.4238 126.932C68.8883 126.845 67.8755 126.892 66.5264 127.062C65.216 127.228 63.7009 127.495 62.2275 127.784C60.0183 128.218 58.0081 128.683 56.8779 128.943C56.4784 129.035 56.1885 129.102 56.0391 129.133L55.9375 129.154H55.834V128.148C55.834 129.154 55.8335 129.154 55.833 129.154H55.8174L55.7988 129.153C55.7861 129.153 55.7717 129.153 55.7559 129.151C55.725 129.149 55.6812 129.144 55.6309 129.134C55.568 129.121 55.3241 129.07 55.1084 128.854C54.9827 128.729 54.8736 128.554 54.8301 128.336C54.788 128.126 54.8202 127.943 54.8633 127.813C54.9395 127.585 55.0765 127.443 55.123 127.396L55.1855 127.335L55.2578 127.284C55.336 127.229 55.5083 127.103 55.7539 126.924C56.6253 126.287 58.4249 124.972 60.2705 123.73C61.464 122.928 62.7141 122.131 63.8027 121.53C64.3461 121.231 64.8675 120.97 65.333 120.781C65.7694 120.605 66.2654 120.445 66.7197 120.445Z" fill="white"/>
<path d="M205.296 185.986C176.707 185.986 153.531 170.646 153.531 142.825V88.0381H257.061V142.825C257.061 170.646 233.886 185.986 205.296 185.986Z" fill="#CAC9E2"/>
<path d="M190.725 144.617L192.585 143.059C183.895 132.703 178.696 121.956 176.729 115.352C176.392 114.218 176.661 113.019 177.453 112.143C178.246 111.267 179.417 110.879 180.582 111.102C190.363 112.983 203.776 118.526 206.19 119.544C206.329 121.086 206.682 123.498 207.568 125.919C201.502 124.92 190.718 122.925 190.596 122.903L190.152 125.285C190.191 125.291 191.346 125.505 193.096 125.825C194.106 126.836 200.104 132.984 204.301 140.263L204.705 140.965L212.525 139.963L213.757 133.24C215.12 133.854 216.634 134.174 218.287 134.174H218.352C219.989 134.164 221.477 133.847 222.82 133.243L224.052 139.96L234.017 141.243V141.252L236.437 141.566C236.437 141.566 236.437 139.087 232.555 138.618L226.113 137.787L225.029 131.879C225.321 131.64 225.605 131.388 225.877 131.11C230.533 126.384 230.488 117.89 230.484 117.544V115.2C230.484 108.48 225.013 103.015 218.287 103.015C211.561 103.015 206.09 108.48 206.09 115.2V116.871C202.007 115.181 190.188 110.478 181.042 108.72C179.036 108.335 177.023 109.004 175.655 110.514C174.289 112.02 173.82 114.085 174.403 116.041C176.438 122.877 181.795 133.973 190.725 144.614V144.617ZM208.513 115.204C208.513 109.822 212.897 105.442 218.284 105.442C223.671 105.442 228.055 109.822 228.055 115.204V117.56C228.055 117.637 228.084 125.418 224.137 129.419C222.6 130.977 220.701 131.74 218.332 131.753H218.281C214.858 131.753 212.363 130.182 210.652 126.946C209.16 124.128 208.71 120.773 208.574 119.024C208.506 118.132 208.51 117.566 208.51 117.55V115.207L208.513 115.204ZM210.457 137.787L205.993 138.36C203.058 133.44 199.477 129.157 197.128 126.562C201.156 127.286 205.967 128.136 208.811 128.579C209.577 129.901 210.49 131.006 211.541 131.866L210.454 137.787H210.457Z" fill="white"/>
<path d="M201.147 154.734C201.092 155.19 201.033 155.869 200.978 156.661C200.843 158.526 200.713 160.998 200.642 162.543L200.487 165.236H198.105L198.151 163.978C198.183 163.125 198.306 160.278 198.387 158.878C198.539 155.804 201.147 154.731 201.147 154.731V154.734Z" fill="white"/>
<path d="M358.827 185.986C330.237 185.986 307.062 170.646 307.062 142.825V88.0381H410.592V142.825C410.592 170.646 387.416 185.986 358.827 185.986Z" fill="#CAC9E2"/>
<path d="M362.372 146.749C356.626 144.15 348.609 140.818 342.067 139.315C342.067 139.315 343.005 136.907 346.61 137.947C352.459 139.715 358.661 142.327 363.404 144.47C364.534 144.981 365.786 145.12 366.934 144.861C367.009 144.845 373.395 143.468 379.749 142.599C382.173 142.266 384.492 143.688 385.305 145.98C386.722 145.708 387.621 145.44 388.805 145.133C389.773 144.881 390.772 145.029 391.62 145.556C394.305 147.192 393.707 151.339 390.646 152.131C381.933 154.429 373.622 154.91 368.196 154.91C358.011 154.739 349.279 153.608 338.22 151.245C335.713 150.621 333.319 148.834 331.818 146.461C329.614 142.98 326.486 137.815 324.312 132.74H327.049C329.019 137.143 331.934 141.978 333.937 145.123C335.082 146.936 336.955 148.349 338.822 148.814C353.947 151.772 369.332 154.713 390.006 149.71C391.403 149.296 390.886 147.227 389.436 147.554L388.488 147.799C386.638 148.339 383.363 148.905 380.613 149.328C376.864 149.952 375.569 147.518 375.569 147.518C375.628 147.512 379.287 147.037 382.781 146.439C382.267 145.482 381.199 144.923 380.086 145.075C373.829 145.931 367.533 147.289 367.471 147.302C365.805 147.677 363.99 147.479 362.369 146.746L362.372 146.749Z" fill="white"/>
<path d="M324.312 111.608V109.038L326.049 109.423C332.342 110.819 337.344 115.535 339.1 121.725C340.469 126.547 341.155 129.23 341.808 132.139C342.64 135.843 340.407 137.637 340.407 137.637C340.052 134.977 338.767 129.712 336.693 122.41C335.043 116.627 330.206 112.542 324.315 111.611L324.312 111.608Z" fill="white"/>
<path d="M512.357 185.986C483.767 185.986 460.592 170.646 460.592 142.825V88.0381H564.122V142.825C564.122 170.646 540.946 185.986 512.357 185.986Z" fill="#CAC9E2"/>
<path d="M497.869 149.902C496.596 149.902 495.641 150.963 495.747 152.236C495.747 152.342 495.747 152.448 495.747 152.554C496.065 155.1 496.384 160.935 493.731 164.967L495.641 166.24C499.142 160.935 498.187 153.509 497.869 150.751C497.869 150.326 497.869 150.114 497.869 149.902Z" fill="white"/>
<path d="M496.489 144.491C492.669 140.248 492.988 132.503 493.836 125.607L491.502 125.289C490.654 132.715 490.335 141.096 494.791 145.977C497.019 148.523 500.096 149.796 503.809 149.796C503.809 148.523 502.96 147.462 501.687 147.25C499.565 146.931 497.868 145.976 496.489 144.491Z" fill="white"/>
<path d="M530.226 146.082C534.576 141.096 534.363 132.821 533.515 125.395L531.181 125.713C532.029 132.715 532.348 140.353 528.528 144.597C527.149 146.082 525.452 147.037 523.33 147.462C522.163 147.674 521.208 148.735 521.208 150.008C523.33 150.008 525.239 149.583 526.937 148.735C526.619 152.978 526.619 160.405 529.271 166.24L531.393 165.285C528.422 158.813 529.059 150.008 529.483 147.037C529.695 146.613 529.908 146.295 530.226 146.082Z" fill="white"/>
<path d="M543.275 125.183C542.533 119.56 539.456 115.953 534.364 114.68C531.499 113.937 527.362 112.664 524.285 111.285C522.8 110.648 521.845 109.269 521.633 107.784C520.254 107.996 519.511 109.481 520.147 110.648C520.89 111.921 521.951 112.876 523.33 113.513C526.619 114.998 530.757 116.165 533.727 117.014C537.971 118.181 540.199 120.833 540.941 125.607C541.79 131.973 541.684 159.981 541.684 160.299H544.018C544.018 159.981 544.124 131.867 543.275 125.183Z" fill="white"/>
<path d="M482.057 125.182C482.8 119.559 485.877 115.952 490.969 114.679C493.834 113.937 497.971 112.663 501.048 111.284C502.533 110.648 503.488 109.268 503.7 107.783C505.079 107.995 505.822 109.481 505.185 110.648C504.443 111.921 503.382 112.876 502.003 113.512C498.714 114.997 494.576 116.164 491.606 117.013C487.362 118.18 485.134 120.833 484.391 125.607C483.543 131.972 483.649 159.98 483.649 160.299H481.315C481.315 159.98 481.209 131.866 482.057 125.182Z" fill="white"/>
<path d="M513.678 134.413H511.344V142.794H513.678V134.413Z" fill="white"/>
<path d="M665.887 185.986C637.298 185.986 614.122 170.646 614.122 142.825V88.0381H717.652V142.825C717.652 170.646 694.477 185.986 665.887 185.986Z" fill="#CAC9E2"/>
<g clip-path="url(#clip0_58_1652)">
<path fill-rule="evenodd" clip-rule="evenodd" d="M646.276 108.731C645.953 110.023 645.522 111.424 644.984 113.039C653.493 115.193 670.511 117.886 686.129 112.931C685.698 111.424 685.267 110.023 684.944 108.839C684.621 107.546 685.483 106.254 686.775 106.038C686.99 107.546 687.744 110.131 688.822 113.147C689.791 116.163 691.083 119.502 692.376 122.625C693.668 125.749 694.207 129.95 694.207 134.581C694.207 139.213 693.776 144.275 693.022 149.014C692.376 153.861 691.407 158.385 690.545 162.047C690.114 163.878 689.683 165.494 689.252 166.678C688.822 167.863 688.498 168.94 688.068 169.587C686.99 168.94 686.452 167.54 686.883 166.355C686.883 166.248 686.99 166.14 686.99 166.032C687.421 164.847 687.852 163.339 688.283 161.508C689.145 157.954 690.114 153.43 690.76 148.691C691.407 143.952 691.945 138.997 691.945 134.581C691.945 130.704 691.622 127.257 690.76 124.672C677.189 124.995 666.31 135.874 665.987 149.445V150.953V165.494C665.987 166.14 665.449 166.678 664.802 166.678C664.156 166.678 663.618 166.14 663.618 165.494V151.491V150.845V148.368C663.618 135.55 653.601 125.21 640.891 124.564C640.029 127.149 639.706 130.596 639.706 134.366C639.706 138.782 640.137 143.736 640.891 148.476C641.537 153.215 642.507 157.739 643.368 161.293C643.799 163.016 644.23 164.632 644.661 165.817C644.661 165.924 644.768 166.032 644.768 166.14C645.199 167.325 644.661 168.725 643.584 169.371C643.261 168.725 642.83 167.755 642.399 166.463C641.968 165.17 641.537 163.663 641.106 161.831C640.245 158.169 639.275 153.646 638.629 148.799C637.552 144.275 637.121 139.213 637.121 134.581C637.121 129.95 637.66 125.749 638.952 122.625C640.137 119.609 641.429 116.163 642.507 113.147C643.584 110.131 644.23 107.546 644.445 106.038C645.738 106.254 646.6 107.546 646.276 108.731ZM686.883 115.086C687.744 117.455 688.714 119.933 689.576 122.41C678.051 122.948 668.249 130.811 664.802 141.474C661.894 131.027 652.631 123.272 641.537 122.41C642.507 120.04 643.476 117.563 644.23 115.301C652.954 117.455 670.511 120.363 686.883 115.086ZM665.449 111.962C665.772 111.962 666.095 111.1 666.095 110.023C666.095 108.946 665.772 108.085 665.449 108.085C665.126 108.085 664.802 108.946 664.802 110.023C664.802 111.1 665.126 111.962 665.449 111.962Z" fill="white"/>
</g>
<path d="M819.416 185.986C790.827 185.986 767.651 170.646 767.651 142.825V88.0381H871.182V142.825C871.182 170.646 848.006 185.986 819.416 185.986Z" fill="#CAC9E2"/>
<path d="M789.783 133.839L788.091 134.799V132.281L791.381 130.261C798.318 125.975 803.371 121.618 806.461 118.725C809.082 116.44 810.971 117.697 810.764 117.623C810.292 118.143 802.495 126.615 789.783 133.836V133.839Z" fill="white"/>
<path d="M788.092 110.343L805.547 103.206C810.614 101.183 816.551 103.556 818.819 108.498L832.016 138.215C832.65 139.563 833.51 140.759 834.575 141.777C836.898 143.998 841.133 148.397 843.365 152.912C845.171 156.943 849.234 152.531 850.632 155.692C851.01 156.662 850.396 157.855 848.985 158.889C844.999 161.607 840.046 161.042 835.652 157.505C834.536 156.604 833.067 156.28 831.624 156.62C827.412 157.609 825.318 156.251 824.891 155.928C821.934 153.792 823.51 150.65 824.121 148.4C824.791 145.84 824.4 144.647 822.543 143.083C821.582 142.492 812.293 136.945 809.168 127.581C807.569 123.751 809.003 122.164 809.763 121.876C810.468 124.601 811.287 126.783 811.293 126.805L811.309 126.847C814.257 135.707 823.678 141.127 823.778 141.186C826.431 143.251 827.234 145.51 826.315 148.959C825.574 151.442 824.798 153.339 826.279 154.141C826.448 154.257 827.884 155.175 831.107 154.419C833.235 153.918 835.413 154.402 837.076 155.747C839.376 157.748 844.339 159.823 847.992 156.791C846.866 156.975 845.517 157.244 844.009 156.62C842.443 155.954 841.806 154.878 841.334 153.918C839.253 149.712 835.222 145.533 833.006 143.416C831.731 142.197 830.699 140.759 829.945 139.146L816.748 109.429C816.599 109.115 816.431 108.805 816.243 108.514C814.15 105.24 810.006 103.892 806.385 105.311L794.777 110.056C794.777 110.056 792.425 111.019 792.412 111.022C789.121 112.367 788.086 110.343 788.086 110.343H788.092Z" fill="white"/>
<path d="M0.000976562 50.0381L872.001 49.0382" stroke="#D4D4D4"/>
<circle cx="51.001" cy="50.0381" r="5" fill="#1A1A1A"/>
<circle cx="205.001" cy="50.0381" r="5" fill="#1A1A1A"/>
<circle cx="359.001" cy="50.0381" r="5" fill="#1A1A1A"/>
<circle cx="513.001" cy="50.0381" r="5" fill="#1A1A1A"/>
<circle cx="667.001" cy="50.0381" r="5" fill="#1A1A1A"/>
<circle cx="821.001" cy="50.0381" r="5" fill="#1A1A1A"/>
<defs>
<clipPath id="clip0_58_1652">
<rect width="56.9782" height="63.5485" fill="white" transform="translate(637.122 106.038)"/>
</clipPath>
</defs>
</svg>
