<svg width="80" height="75" viewBox="0 0 80 75" fill="none" xmlns="http://www.w3.org/2000/svg">
<g clip-path="url(#clip0_280_45357)">
<path d="M77.6848 2.58207V45.5349C77.6848 54.5051 73.7485 61.5355 65.9846 66.429C59.3196 70.629 50.1703 72.9413 40.2209 72.9413H40.0061H39.8036C29.8542 72.9413 20.7049 70.629 14.0399 66.4265C6.27602 61.5331 2.33973 54.5051 2.33973 45.5349V2.58207H77.6872M79.5245 0.746094H0.5V45.5349C0.5 66.3969 20.8852 74.7773 39.8011 74.7773C39.8727 74.7773 39.9394 74.7773 40.011 74.7773C40.0802 74.7773 40.1493 74.7773 40.2209 74.7773C59.1343 74.7773 79.522 66.4043 79.522 45.5349V0.746094H79.5245Z" fill="#E7004C"/>
<mask id="mask0_280_45357" style="mask-type:luminance" maskUnits="userSpaceOnUse" x="23" y="15" width="35" height="40">
<path d="M57.287 15.9214H23.3081V54.9549H57.287V15.9214Z" fill="white"/>
</mask>
<g mask="url(#mask0_280_45357)">
<path d="M56.7408 15.9312V16.317C56.7408 18.6828 56.7408 21.0486 56.7408 23.4144C56.7699 25.7164 55.9862 27.955 54.5274 29.7361C53.0686 31.5171 51.0283 32.7266 48.7656 33.1514C48.1379 33.2724 47.5 33.3321 46.8608 33.3298C42.4198 33.3446 37.9786 33.3461 33.5374 33.3343C30.9861 33.3186 28.5414 32.309 26.7225 30.5198C24.9036 28.7307 23.8539 26.3029 23.7962 23.7522C23.7577 21.2066 23.7886 18.6604 23.7886 16.1146C23.7886 16.0559 23.7939 15.9972 23.7967 15.9421C24.5844 15.8132 25.2325 16.4038 25.2348 17.2538C25.2398 19.3319 25.2398 21.4095 25.2348 23.4866C25.2264 25.6915 26.0883 27.8107 27.6333 29.3839C29.1783 30.957 31.2816 31.8571 33.4863 31.8886C38.0118 31.9115 42.5373 31.9115 47.063 31.8886C49.087 31.8559 51.0303 31.0895 52.5317 29.7317C54.0331 28.374 54.9904 26.5173 55.2258 24.5068C55.2667 24.125 55.2876 23.7413 55.2884 23.3574C55.2946 21.3279 55.2884 19.2985 55.2926 17.2687C55.2798 17.08 55.3094 16.8909 55.3793 16.7152C55.4492 16.5394 55.5576 16.3816 55.6965 16.2533C55.8354 16.125 56.0014 16.0294 56.1821 15.9737C56.3628 15.918 56.5537 15.9034 56.7408 15.9312Z" fill="#1A1311"/>
<path d="M23.3081 47.0061C23.7671 46.863 24.2573 46.8527 24.7219 46.9764C25.1866 47.1002 25.6067 47.3529 25.9337 47.7053C28.5053 50.2079 31.7173 51.9527 35.2164 52.7477C42.1122 54.3545 48.3323 52.8797 53.8531 48.4754C54.1947 48.1892 54.5209 47.8852 54.8304 47.5647C55.5173 46.8862 56.3322 46.7699 57.2872 46.9991C57.2193 47.1092 57.1693 47.1957 57.114 47.2785C56.248 48.4977 55.1757 49.5561 53.9452 50.406C49.7521 53.5813 44.5775 55.1839 39.3237 54.9344C34.2819 54.728 29.8135 52.9636 25.8857 49.8109C24.9796 49.0752 24.1734 48.2243 23.4878 47.2796C23.4317 47.2052 23.3856 47.1246 23.3081 47.0061Z" fill="#1A1311"/>
<path d="M52.9446 41.4746C49.3636 46.028 44.7644 48.1544 39.0565 47.807C36.1987 47.617 33.4543 46.6157 31.1456 44.9208C29.7811 43.9497 28.0712 42.1937 27.7671 41.4465C28.6146 41.2277 29.3925 41.3123 30.0642 41.9076C30.5416 42.3305 30.9791 42.8009 31.4772 43.1968C34.0164 45.2221 37.1749 46.3124 40.4227 46.2847C43.6706 46.2571 46.8101 45.1133 49.3145 43.0452C49.7413 42.6944 50.1162 42.2814 50.5293 41.9132C51.1993 41.3156 51.9788 41.2269 52.9443 41.4749" fill="#1A1311"/>
<path d="M48.3868 36.1933C46.5199 38.958 44.0324 40.6232 40.6848 40.7471C37.0173 40.8827 34.269 39.2116 32.2134 36.1995C33.0342 35.9763 33.766 36.0366 34.4262 36.5415C34.6325 36.7076 34.8293 36.885 35.0159 37.0728C36.3431 38.3325 38.0755 39.0784 39.9026 39.177C41.7297 39.2755 43.5322 38.7202 44.9872 37.6106C45.3121 37.3425 45.6225 37.0573 45.917 36.7561C46.6069 36.0914 47.4177 35.9479 48.3862 36.1945" fill="#1A1311"/>
<path d="M35.0674 29.0589V29.0327C35.0678 28.8418 35.1059 28.6527 35.1794 28.4765C35.2529 28.3002 35.3604 28.1402 35.4958 28.0054C35.6311 27.8707 35.7917 27.764 35.9683 27.6913C36.1449 27.6187 36.3341 27.5816 36.5251 27.582H44.0415C44.4348 27.5811 44.8124 27.7365 45.0912 28.014C45.37 28.2915 45.5271 28.6683 45.5281 29.0617V29.0878H35.0966C35.0929 29.0878 35.0892 29.0871 35.0858 29.0856C35.0824 29.0842 35.0793 29.0822 35.0767 29.0796C35.0741 29.0769 35.0721 29.0738 35.0706 29.0704C35.0692 29.067 35.0685 29.0634 35.0685 29.0597" fill="#1A1311"/>
</g>
<path d="M39.3229 54.9345C34.2811 54.7281 29.8125 52.9637 25.885 49.811C24.9789 49.0753 24.1729 48.2243 23.4873 47.2797C23.4312 47.205 23.3851 47.125 23.3076 47.0064C23.7666 46.8633 24.2567 46.8529 24.7213 46.9766C25.1859 47.1003 25.606 47.353 25.933 47.7054C28.5045 50.208 31.7166 51.9527 35.2157 52.7477C42.1114 54.3546 48.3315 52.8797 53.8524 48.4754C54.1938 48.1892 54.52 47.8851 54.8293 47.5644C55.5162 46.886 56.3311 46.7697 57.2862 46.9989C57.2182 47.1089 57.1685 47.1954 57.1129 47.278C56.2474 48.4975 55.1751 49.5561 53.9447 50.406C50.0282 53.3722 45.2462 54.9704 40.3333 54.9552C39.9985 54.9552 39.6617 54.9483 39.3229 54.9345ZM39.0567 47.8068C36.1988 47.6168 33.4543 46.6155 31.1455 44.9205C29.7813 43.9498 28.0711 42.1935 27.7673 41.4465C28.6148 41.2278 29.3926 41.312 30.0644 41.9077C30.5417 42.3306 30.979 42.8012 31.4771 43.1969C34.0163 45.2221 37.1748 46.3124 40.4226 46.2848C43.6705 46.2572 46.81 45.1134 49.3144 43.0452C49.7412 42.6942 50.1161 42.2814 50.5292 41.913C51.1992 41.3154 51.9785 41.227 52.9442 41.4746C49.6151 45.7079 45.4054 47.8433 40.2434 47.8436C39.8533 47.8434 39.4577 47.8311 39.0567 47.8068ZM32.2129 36.2C33.0334 35.9768 33.7655 36.0372 34.4254 36.5421C34.6318 36.708 34.8286 36.8854 35.0152 37.0734C36.3424 38.333 38.0748 39.0789 39.902 39.1774C41.7292 39.2759 43.5317 38.7205 44.9867 37.6109C45.3116 37.3429 45.622 37.0577 45.9165 36.7566C46.6064 36.0917 47.4172 35.9484 48.3857 36.1936C46.5194 38.9582 44.0319 40.6235 40.6846 40.7473C40.5464 40.7524 40.4094 40.7549 40.2735 40.7549C36.8104 40.7552 34.191 39.0984 32.2129 36.2ZM33.5364 33.3343C30.9851 33.3185 28.5405 32.3088 26.7217 30.5197C24.9029 28.7306 23.8532 26.3029 23.7954 23.7523C23.7569 21.2067 23.7878 18.6602 23.7875 16.1146C23.7875 16.0559 23.7931 15.9972 23.7957 15.9419C23.9805 15.912 24.1696 15.9243 24.349 15.9777C24.5284 16.0312 24.6933 16.1245 24.8316 16.2506C24.9699 16.3767 25.0779 16.5325 25.1476 16.7062C25.2173 16.8799 25.2468 17.0671 25.234 17.2539C25.2391 19.3319 25.2391 21.4095 25.234 23.4866C25.2256 25.6916 26.0875 27.8108 27.6325 29.384C29.1775 30.9572 31.2808 31.8572 33.4855 31.8887C38.011 31.9117 42.5366 31.9117 47.0622 31.8887C49.0862 31.8559 51.0294 31.0895 52.5308 29.7317C54.0322 28.374 54.9896 26.5173 55.225 24.5068C55.2658 24.1251 55.2867 23.7416 55.2876 23.3577C55.2938 21.3283 55.2876 19.2985 55.2918 17.269C55.2789 17.0803 55.3084 16.8911 55.3783 16.7153C55.4482 16.5395 55.5566 16.3817 55.6955 16.2533C55.8344 16.125 56.0004 16.0294 56.1812 15.9736C56.3619 15.9179 56.5529 15.9034 56.74 15.9312V16.3171C56.74 18.6829 56.74 21.0487 56.74 23.4144C56.7692 25.7165 55.9854 27.9551 54.5266 29.7361C53.0678 31.5172 51.0275 32.7266 48.7648 33.1515C48.1372 33.2723 47.4994 33.332 46.8603 33.3295C44.2721 33.3381 41.6835 33.3429 39.0946 33.3439C37.2414 33.344 35.3887 33.3408 33.5367 33.334L33.5364 33.3343ZM35.0955 29.0881C35.088 29.0881 35.0809 29.0851 35.0756 29.0799C35.0703 29.0746 35.0674 29.0674 35.0674 29.06V29.0336C35.0679 28.8426 35.106 28.6537 35.1795 28.4774C35.253 28.3012 35.3605 28.1412 35.4959 28.0065C35.6312 27.8718 35.7918 27.7651 35.9684 27.6925C36.145 27.6198 36.3342 27.5827 36.5251 27.5832H44.0409C44.2357 27.5827 44.4286 27.6206 44.6088 27.6947C44.7889 27.7688 44.9526 27.8777 45.0907 28.0151C45.2288 28.1525 45.3384 28.3157 45.4133 28.4955C45.4883 28.6752 45.5271 28.868 45.5275 29.0628V29.0892L35.0955 29.0881Z" fill="#E0004D"/>
</g>
<defs>
<clipPath id="clip0_280_45357">
<rect width="79.022" height="74.0312" fill="white" transform="translate(0.5 0.746094)"/>
</clipPath>
</defs>
</svg>
