<svg width="80" height="76" viewBox="0 0 80 76" fill="none" xmlns="http://www.w3.org/2000/svg">
<g clip-path="url(#clip0_280_45394)">
<path d="M78.14 2.14678V45.6312C78.14 54.7124 74.155 61.8299 66.295 66.7839C59.5475 71.0359 50.285 73.3768 40.2125 73.3768H39.995H39.79C29.7175 73.3768 20.455 71.0359 13.7075 66.7814C5.8475 61.8274 1.8625 54.7124 1.8625 45.6312V2.14678H78.1425M80.0025 0.288086H0V45.6312C0 66.7514 20.6375 75.2355 39.7875 75.2355C39.86 75.2355 39.9275 75.2355 40 75.2355C40.07 75.2355 40.14 75.2355 40.2125 75.2355C59.36 75.2355 80 66.7589 80 45.6312V0.288086H80.0025Z" fill="#E7004C"/>
<g clip-path="url(#clip1_280_45394)">
<g clip-path="url(#clip2_280_45394)">
<path d="M38.61 33.3519C38.3126 33.6493 38.127 34.06 38.127 34.5102V50.9373H39.7749V32.8672C39.3182 32.8672 38.9074 33.0528 38.61 33.3502V33.3519Z" fill="#E0004D"/>
<path d="M49.6197 49.8908C49.5655 46.0215 47.2932 42.3148 43.8789 40.4959V23.0091C43.8789 20.2028 41.7676 18.0898 38.9663 18.0767C36.155 18.0717 34.0191 20.1896 34.0207 23.0091V38.4027C34.0585 38.7789 34.231 39.1108 34.4906 39.3754V39.3819C34.7995 39.6793 35.2086 39.8634 35.6621 39.8519V23.0551C35.6473 20.86 37.7636 19.258 39.8338 19.8446C41.2304 20.2356 42.2376 21.5468 42.2376 23.0551V41.5146C47.17 43.6062 49.4143 49.3864 47.0254 54.2136C47.0254 54.2202 47.0188 54.2268 47.0188 54.2399C43.6818 60.7677 34.2179 60.7661 30.8842 54.2399C30.8842 54.2268 30.8776 54.2202 30.8776 54.2136C28.6496 49.807 30.4504 44.2207 34.8242 41.9385C34.3345 41.1186 33.0858 40.9395 32.3941 41.5869C32.3875 41.5869 32.3875 41.5935 32.381 41.5935C29.7751 43.6391 28.2438 46.9235 28.2734 50.2293C28.2553 56.1393 33.2666 60.9485 39.1388 60.7957C44.9962 60.7464 49.8317 55.7778 49.6197 49.8908Z" fill="#E0004D"/>
<path d="M47.6724 19.7188C47.6724 20.1755 47.858 20.5863 48.1554 20.8771C48.4528 21.1745 48.8636 21.3601 49.3203 21.3601H53.727V19.7188H47.6724Z" fill="#E0004D"/>
<path d="M47.6724 23.0054C47.6724 23.4621 47.858 23.8729 48.1554 24.1637C48.4528 24.4611 48.8636 24.6468 49.3203 24.6468H53.727V23.0054H47.6724Z" fill="#E0004D"/>
</g>
</g>
</g>
<defs>
<clipPath id="clip0_280_45394">
<rect width="80" height="74.9474" fill="white" transform="translate(0 0.288086)"/>
</clipPath>
<clipPath id="clip1_280_45394">
<rect width="46.3158" height="46.3158" fill="white" transform="translate(16.8438 14.604)"/>
</clipPath>
<clipPath id="clip2_280_45394">
<rect width="25.4556" height="42.7223" fill="white" transform="translate(28.2729 18.0767)"/>
</clipPath>
</defs>
</svg>
