<svg width="81" height="76" viewBox="0 0 81 76" fill="none" xmlns="http://www.w3.org/2000/svg">
<g clip-path="url(#clip0_280_45415)">
<path d="M78.64 2.14678V45.6312C78.64 54.7124 74.655 61.8299 66.795 66.7839C60.0475 71.0359 50.785 73.3768 40.7125 73.3768H40.495H40.29C30.2175 73.3768 20.955 71.0359 14.2075 66.7814C6.3475 61.8274 2.3625 54.7124 2.3625 45.6312V2.14678H78.6425M80.5025 0.288086H0.5V45.6312C0.5 66.7514 21.1375 75.2355 40.2875 75.2355C40.36 75.2355 40.4275 75.2355 40.5 75.2355C40.57 75.2355 40.64 75.2355 40.7125 75.2355C59.86 75.2355 80.5 66.7589 80.5 45.6312V0.288086H80.5025Z" fill="#E7004C"/>
<g clip-path="url(#clip1_280_45415)">
<path d="M20.4556 28.2495V48.2905H60.9819V28.2495H20.4556ZM59.2003 46.5088H22.2332V30.0311H59.2003V46.5088Z" fill="#E0004D"/>
<path d="M52.8366 43.9159H28.5971C27.9855 43.9159 27.3989 43.673 26.9665 43.2405C26.534 42.808 26.291 42.2214 26.291 41.6098C26.291 40.9982 26.534 40.4116 26.9665 39.9792C27.3989 39.5467 27.9855 39.3037 28.5971 39.3037H52.8366C53.4482 39.3037 54.0348 39.5467 54.4672 39.9792C54.8997 40.4116 55.1427 40.9982 55.1427 41.6098C55.1427 42.2214 54.8997 42.808 54.4672 43.2405C54.0348 43.673 53.4482 43.9159 52.8366 43.9159ZM28.5971 40.8411C28.3932 40.8411 28.1977 40.9221 28.0536 41.0663C27.9094 41.2104 27.8284 41.4059 27.8284 41.6098C27.8284 41.8137 27.9094 42.0092 28.0536 42.1534C28.1977 42.2975 28.3932 42.3785 28.5971 42.3785H52.8366C53.0404 42.3785 53.236 42.2975 53.3801 42.1534C53.5243 42.0092 53.6053 41.8137 53.6053 41.6098C53.6053 41.4059 53.5243 41.2104 53.3801 41.0663C53.236 40.9221 53.0404 40.8411 52.8366 40.8411H28.5971Z" fill="#E0004D"/>
<path d="M52.8359 37.2351H28.5964C28.289 37.2425 27.9832 37.1883 27.697 37.0758C27.4109 36.9632 27.1501 36.7946 26.93 36.5798C26.71 36.365 26.5351 36.1083 26.4158 35.8249C26.2964 35.5416 26.2349 35.2372 26.2349 34.9296C26.2349 34.6221 26.2964 34.3177 26.4158 34.0343C26.5351 33.7509 26.71 33.4943 26.93 33.2795C27.1501 33.0647 27.4109 32.896 27.697 32.7835C27.9832 32.671 28.289 32.6168 28.5964 32.6242H52.8359C53.1433 32.6168 53.4491 32.671 53.7353 32.7835C54.0215 32.896 54.2823 33.0647 54.5023 33.2795C54.7223 33.4943 54.8972 33.7509 55.0166 34.0343C55.136 34.3177 55.1975 34.6221 55.1975 34.9296C55.1975 35.2372 55.136 35.5416 55.0166 35.8249C54.8972 36.1083 54.7223 36.365 54.5023 36.5798C54.2823 36.7946 54.0215 36.9632 53.7353 37.0758C53.4491 37.1883 53.1433 37.2425 52.8359 37.2351ZM28.5964 34.1616C28.4929 34.1573 28.3895 34.174 28.2926 34.2106C28.1956 34.2473 28.1071 34.3031 28.0323 34.3749C27.9575 34.4466 27.898 34.5328 27.8573 34.6281C27.8167 34.7234 27.7957 34.826 27.7957 34.9296C27.7957 35.0333 27.8167 35.1359 27.8573 35.2312C27.898 35.3265 27.9575 35.4127 28.0323 35.4844C28.1071 35.5561 28.1956 35.612 28.2926 35.6487C28.3895 35.6853 28.4929 35.702 28.5964 35.6977H52.8359C52.9394 35.702 53.0428 35.6853 53.1397 35.6487C53.2367 35.612 53.3252 35.5561 53.4 35.4844C53.4748 35.4127 53.5343 35.3265 53.575 35.2312C53.6157 35.1359 53.6366 35.0333 53.6366 34.9296C53.6366 34.826 53.6157 34.7234 53.575 34.6281C53.5343 34.5328 53.4748 34.4466 53.4 34.3749C53.3252 34.3031 53.2367 34.2473 53.1397 34.2106C53.0428 34.174 52.9394 34.1573 52.8359 34.1616H28.5964Z" fill="#E0004D"/>
</g>
</g>
<defs>
<clipPath id="clip0_280_45415">
<rect width="80" height="74.9474" fill="white" transform="translate(0.5 0.288086)"/>
</clipPath>
<clipPath id="clip1_280_45415">
<rect width="40.5263" height="20.041" fill="white" transform="translate(20.4561 28.2495)"/>
</clipPath>
</defs>
</svg>
