<svg width="26" height="24" viewBox="0 0 26 24" fill="none" xmlns="http://www.w3.org/2000/svg">
<path d="M12.8438 23.826C5.94009 23.826 0.34375 20.1218 0.34375 13.4038V0.174316H25.3438V13.4038C25.3438 20.1218 19.7474 23.826 12.8438 23.826Z" fill="#6C6AB4"/>
<g clip-path="url(#clip0_255_23077)">
<path d="M8.49771 12.2989C10.4822 9.82261 12.4666 7.35068 14.4511 4.87443C14.5891 4.70619 14.8609 4.83129 14.8177 5.047C14.4424 6.9581 14.0671 8.86922 13.6961 10.7803C13.6702 10.9141 13.7781 11.0349 13.9118 11.0305C14.7358 10.9831 15.5598 10.9313 16.3837 10.8839C16.5692 10.8709 16.6728 11.0866 16.5563 11.229C14.7401 13.3644 12.9196 15.4955 11.1034 17.631C10.961 17.7992 10.6892 17.6569 10.741 17.4455C11.1379 15.8881 11.5305 14.3264 11.9274 12.7691C11.9619 12.6354 11.854 12.5016 11.716 12.5102C10.7022 12.5534 9.68406 12.5965 8.67027 12.644C8.48908 12.6526 8.38554 12.4455 8.49771 12.3032V12.2989Z" fill="white"/>
</g>
<defs>
<clipPath id="clip0_255_23077">
<rect width="8.15781" height="12.9032" fill="white" transform="translate(8.4502 4.79688)"/>
</clipPath>
</defs>
</svg>
