<svg width="26" height="24" viewBox="0 0 26 24" fill="none" xmlns="http://www.w3.org/2000/svg">
<path d="M12.8438 23.7606C5.94009 23.7606 0.34375 20.0826 0.34375 13.412V0.275879H25.3438V13.412C25.3438 20.0826 19.7474 23.7606 12.8438 23.7606Z" fill="#6C6AB4"/>
<g clip-path="url(#clip0_255_23098)">
<path d="M18.8339 7.7088C18.7688 7.50943 18.6537 7.3484 18.6537 7.3484C18.5541 7.21038 18.255 6.8193 17.2696 6.73495C16.7866 6.69278 16.0619 6.71195 15.2223 6.89982C14.5053 7.06085 13.7615 7.38674 13.3014 7.61295C12.5231 7.99253 11.3499 8.69032 10.1268 10.2124C9.82773 10.5844 9.47116 11.1019 9.14527 11.7537C8.90756 12.2713 8.62384 12.8196 8.5855 13.805C8.57783 13.9775 8.5855 14.104 8.597 14.2037C8.60467 14.2842 8.62 14.4146 8.65068 14.5564C8.97274 14.104 9.39065 13.5634 9.95809 12.9653C10.4757 12.4209 11.2847 11.5774 12.5576 10.7952C13.2209 10.3888 14.2062 9.87505 15.4945 9.51081C15.4561 9.52998 15.4216 9.54915 15.3833 9.56832C14.1756 10.2048 12.9525 11.0291 11.7639 12.1065C11.3077 12.5359 10.8323 13.0305 10.3492 13.5941C9.68204 14.3762 9.14144 15.1392 8.70819 15.8332C8.33628 16.4121 8.22893 16.623 8.22893 16.623C8.13691 16.8109 8.02956 17.0716 7.95288 17.409C7.95288 17.4397 7.94904 17.478 7.95288 17.5278C7.95288 17.5508 7.95671 17.5777 7.96821 17.6122C7.96821 17.6122 7.98738 17.6774 8.03339 17.731C8.12157 17.8346 8.38612 17.8729 8.52799 17.754C8.61233 17.6812 8.61617 17.5815 8.64301 17.4397C8.68902 17.1904 8.76953 17.0294 8.93056 16.7073C9.01875 16.531 9.17211 16.2933 9.44816 16.0479C9.88141 16.1092 10.1996 16.1207 10.4105 16.1207C10.4642 16.1207 10.5102 16.1207 10.5179 16.1207C10.6712 16.1207 10.9434 16.1054 11.2923 16.0517C11.6796 15.9904 12.2585 15.86 12.9218 15.5495C13.2247 15.4076 13.3857 15.2197 13.3474 15.1162C13.3091 15.005 13.0598 14.9974 13.0215 14.9974C12.9027 15.005 12.7723 15.0127 12.6343 15.0089C12.4157 15.005 12.2202 14.982 12.0477 14.9513C12.8451 14.8708 13.4509 14.6561 13.8343 14.4913C14.2446 14.3149 14.6817 14.0657 15.0306 13.6478C15.0957 13.5711 15.3795 13.2299 15.2951 13.1225C15.2568 13.0727 15.1571 13.088 15.0727 13.1072C14.8273 13.2414 14.4554 13.4101 13.9724 13.4982C13.4969 13.5864 13.0944 13.5634 12.8183 13.5289C14.5091 12.996 15.7284 12.2598 16.499 11.7116C17.3578 11.1019 17.9713 10.5038 18.4199 9.72169C18.4199 9.72169 19.0985 8.52929 18.8301 7.71647L18.8339 7.7088Z" fill="white"/>
</g>
<defs>
<clipPath id="clip0_255_23098">
<rect width="10.9539" height="11.1111" fill="white" transform="translate(7.94629 6.71533)"/>
</clipPath>
</defs>
</svg>
