<svg width="26" height="24" viewBox="0 0 26 24" fill="none" xmlns="http://www.w3.org/2000/svg">
<path d="M12.8438 23.826C5.94009 23.826 0.34375 20.1218 0.34375 13.4038V0.174316H25.3438V13.4038C25.3438 20.1218 19.7474 23.826 12.8438 23.826Z" fill="#6C6AB4"/>
<g clip-path="url(#clip0_255_23114)">
<path d="M9.87645 8.82129H7.23188C7.07901 8.82129 6.95508 8.94522 6.95508 9.09809V14.9025C6.95508 15.0554 7.07901 15.1793 7.23188 15.1793H9.87645C10.0293 15.1793 10.1533 15.0554 10.1533 14.9025V9.09809C10.1533 8.94522 10.0293 8.82129 9.87645 8.82129Z" fill="white"/>
<path d="M14.3305 8.82129H11.686C11.5331 8.82129 11.4092 8.94522 11.4092 9.09809V14.9025C11.4092 15.0554 11.5331 15.1793 11.686 15.1793H14.3305C14.4834 15.1793 14.6074 15.0554 14.6074 14.9025V9.09809C14.6074 8.94522 14.4834 8.82129 14.3305 8.82129Z" fill="white"/>
<path d="M18.6255 8.82129H15.9809C15.828 8.82129 15.7041 8.94522 15.7041 9.09809V14.9025C15.7041 15.0554 15.828 15.1793 15.9809 15.1793H18.6255C18.7783 15.1793 18.9023 15.0554 18.9023 14.9025V9.09809C18.9023 8.94522 18.7783 8.82129 18.6255 8.82129Z" fill="white"/>
</g>
<defs>
<clipPath id="clip0_255_23114">
<rect width="11.9452" height="6.35802" fill="white" transform="translate(6.95605 8.82129)"/>
</clipPath>
</defs>
</svg>
