<svg width="26" height="24" viewBox="0 0 26 24" fill="none" xmlns="http://www.w3.org/2000/svg">
<path d="M12.8438 23.826C5.94009 23.826 0.34375 20.1218 0.34375 13.4038V0.174316H25.3438V13.4038C25.3438 20.1218 19.7474 23.826 12.8438 23.826Z" fill="#6C6AB4"/>
<g clip-path="url(#clip0_255_23132)">
<path d="M11.5879 11.8597H14.6524V16.0896H15.3045V6.979H14.6524V11.2089H12.2399C11.88 11.2089 11.5879 11.5005 11.5879 11.8597Z" fill="white"/>
<path d="M10.9352 16.0896H10.2832V11.8597V11.2089V6.979H10.9352V16.0896Z" fill="white"/>
<path d="M17.4544 11.8729H17.9409C19.4712 11.8729 20.7166 13.0299 20.7166 14.4512V15.4384C20.7166 15.7976 21.0087 16.0891 21.3686 16.0891V14.4512C21.3686 13.3006 20.7263 12.2894 19.762 11.7173C20.6989 11.3679 21.3686 10.4653 21.3679 9.40909C21.3686 8.05486 20.2106 6.94727 18.8537 6.94727H16.1504V16.0898H16.8024V7.59803H18.8622C19.85 7.59803 20.6866 8.36983 20.7159 9.35508C20.7465 10.3794 19.9204 11.2221 18.9013 11.2221H18.1071C17.7472 11.2221 17.4551 11.5137 17.4551 11.8729H17.4544Z" fill="white"/>
<path d="M7.27647 11.2634C7.21909 11.2452 7.16497 11.2237 7.10173 11.1996C7.04305 11.1768 6.9798 11.1528 6.90416 11.1261C5.51338 10.6387 5.06674 10.1838 5.06674 9.2558C5.06674 8.81523 5.22845 8.42998 5.5336 8.1417C5.86613 7.82803 6.34472 7.66469 6.84809 7.69332H6.86635C7.5099 7.69332 7.817 7.84235 8.83678 8.33367C8.99457 8.00699 8.85243 7.61523 8.5225 7.46361C7.88677 7.17076 7.49034 7.04452 6.87482 7.04321C6.19671 7.00742 5.54533 7.23519 5.085 7.66925C4.65271 8.07792 4.41406 8.64148 4.41406 9.25645C4.41406 10.6614 5.28387 11.2484 6.68769 11.7404C6.75615 11.7645 6.81353 11.7866 6.867 11.8068C6.93611 11.8335 7.00132 11.8582 7.07565 11.8823C8.47099 12.3332 8.99848 12.8408 8.97827 13.7031C8.9548 14.6786 8.14041 15.451 7.16302 15.451H6.96611C6.30625 15.451 5.31778 15.235 4.59663 14.7521C4.38994 15.0593 4.50991 15.4777 4.84766 15.6293C5.57076 15.9534 6.38124 16.1018 6.96611 16.1018H7.13889C8.51402 16.1018 9.65116 14.9896 9.63095 13.6178C9.61074 12.2076 8.43122 11.6363 7.27712 11.2634H7.27647Z" fill="white"/>
</g>
<defs>
<clipPath id="clip0_255_23132">
<rect width="16.9547" height="9.15555" fill="white" transform="translate(4.41406 6.94727)"/>
</clipPath>
</defs>
</svg>
