<svg width="20" height="20" viewBox="0 0 20 20" fill="none" xmlns="http://www.w3.org/2000/svg">
<mask id="mask0_617_14113" style="mask-type:alpha" maskUnits="userSpaceOnUse" x="0" y="0" width="20" height="20">
<rect x="0.28125" y="0.360352" width="18.7435" height="18.7435" fill="#1C1C1C"/>
</mask>
<g mask="url(#mask0_617_14113)">
</g>
<g clip-path="url(#clip0_617_14113)">
<path d="M18.4002 11.3156C18.4002 10.5755 17.8725 9.95806 17.1623 9.81997L15.9945 6.50968C15.8666 6.15237 15.5266 5.91305 15.149 5.91305H13.2346V5.31441C13.2346 4.23042 12.3522 3.35157 11.2637 3.35157H1.57938C1.20781 3.35023 0.90625 3.65055 0.90625 4.0206H1.10819H11.465C11.9799 4.0206 12.5608 4.59913 12.5608 5.31307V10.4776H3.61627V7.34362H4.96253V6.67325H2.8038C2.43224 6.67325 1.92873 6.97358 1.92873 7.34362H2.94314V11.6997V14.1351H5.03725C5.19409 14.9315 5.9002 15.5342 6.74498 15.5342C7.58976 15.5342 8.29587 14.9315 8.45271 14.1351H13.7738C13.9306 14.9315 14.6368 15.5342 15.4815 15.5342C16.3263 15.5342 17.0324 14.9315 17.1893 14.1351H18.4002V11.3156ZM16.4394 9.79248H14.6684V7.93824H15.7851L16.4394 9.79248ZM6.74498 14.8638C6.15599 14.8638 5.6774 14.3872 5.6774 13.8006C5.6774 13.2141 6.15666 12.7374 6.74498 12.7374C7.3333 12.7374 7.81256 13.2141 7.81256 13.8006C7.81256 14.3872 7.3333 14.8638 6.74498 14.8638ZM6.74498 12.067C5.9002 12.067 5.19476 12.669 5.03725 13.4648H3.61627V11.7017V11.1486H12.5615V13.4648H8.45204C8.29453 12.669 7.58909 12.067 6.74431 12.067H6.74498ZM15.4815 14.8638C14.8925 14.8638 14.414 14.3872 14.414 13.8006C14.414 13.2141 14.8925 12.7374 15.4815 12.7374C16.0705 12.7374 16.5491 13.2141 16.5491 13.8006C16.5491 14.3872 16.0699 14.8638 15.4815 14.8638ZM17.7278 13.4648H17.1893C17.0318 12.669 16.3263 12.067 15.4815 12.067C14.6368 12.067 13.9313 12.669 13.7738 13.4648H13.2346V6.58208H15.149C15.2446 6.58208 15.3274 6.64174 15.3597 6.73224L15.5482 7.2672H13.9946V10.4622H16.9079C17.3676 10.4863 17.7264 10.859 17.7264 11.3149V13.4641L17.7278 13.4648Z" fill="#3F3636"/>
<path d="M4.41766 4.97803H2.1243C1.75273 4.97803 1.45117 5.27835 1.45117 5.6484H4.41766V4.97803Z" fill="#3F3636"/>
</g>
<defs>
<clipPath id="clip0_617_14113">
<rect width="17.494" height="12.1833" fill="white" transform="translate(0.90625 3.3501)"/>
</clipPath>
</defs>
</svg>
