<svg width="20" height="20" viewBox="0 0 20 20" fill="none" xmlns="http://www.w3.org/2000/svg">
<g clip-path="url(#clip0_617_14120)">
<path d="M11.5353 10.5799H6.98914L7.71707 9.852L7.23519 9.37012L5.92178 10.6835C5.85771 10.7476 5.82227 10.8342 5.82227 10.9248C5.82227 11.0155 5.85839 11.102 5.92178 11.1661L7.23519 12.4795L7.71707 11.9976L6.98232 11.2629H11.5442C12.2107 11.2629 12.7778 11.8081 12.7669 12.474C12.756 13.1216 12.2257 13.645 11.5762 13.645H9.00253C8.6263 13.645 8.32095 13.9504 8.32095 14.3266H11.5762C12.6279 14.3266 13.4799 13.4555 13.4478 12.397C13.4178 11.3787 12.5549 10.5806 11.536 10.5806L11.5353 10.5799Z" fill="#3F3636"/>
<path d="M13.6232 3.17188H5.68413L2.15625 7.48494V16.1158H17.1511V7.48494L13.6232 3.17188ZM6.0072 3.85346H9.29379V7.56673H2.97006L6.0072 3.85346ZM16.4695 15.4342H2.83783V8.24763H15.7879C15.7879 7.87139 15.4826 7.56604 15.1063 7.56604H9.97606V3.85346H13.3001L16.4695 7.72826V15.4342Z" fill="#3F3636"/>
</g>
<defs>
<clipPath id="clip0_617_14120">
<rect width="14.9948" height="12.944" fill="white" transform="translate(2.15625 3.17188)"/>
</clipPath>
</defs>
</svg>
