<svg width="20" height="20" viewBox="0 0 20 20" fill="none" xmlns="http://www.w3.org/2000/svg">
<g clip-path="url(#clip0_617_14127)">
<path d="M9.65466 17.4975L9.53112 17.4569C5.28629 16.0725 2.42383 12.1813 2.42383 7.79747V3.50021L9.657 1.43164L15.8471 3.25811C15.726 3.66416 15.292 3.89707 14.8776 3.77832L9.65622 2.22996L3.20571 4.07481V7.79824C3.20571 11.8159 5.79139 15.3723 9.65466 16.69C13.5164 15.373 16.1013 11.8166 16.1013 7.80054V4.45405C16.1013 4.03114 16.4515 3.68791 16.8831 3.68791V7.80054C16.8831 12.1897 14.0277 16.071 9.77819 17.4585L9.65466 17.4991V17.4975Z" fill="#3F3636"/>
<path d="M11.0485 13.9348H8.37051V10.2191C8.04369 10.0819 7.74344 9.8835 7.4909 9.63527C6.39626 8.56268 6.39626 6.81818 7.4909 5.74559C7.81616 5.42688 8.20397 5.1978 8.64495 5.06296L9.15239 4.9082V7.16678H10.2666V4.90974L10.7724 5.0622C11.2056 5.19244 11.6051 5.42918 11.9281 5.74482C13.0204 6.81512 13.0204 8.55961 11.9281 9.63374C11.6716 9.88503 11.3768 10.0804 11.0477 10.2175V13.9333L11.0485 13.9348ZM9.15239 13.1687H10.2666V9.67051L10.541 9.587C10.86 9.4897 11.1407 9.32422 11.3745 9.09438C12.1618 8.31905 12.1618 7.06028 11.3745 6.28802C11.2752 6.19072 11.165 6.10338 11.0477 6.0283V7.93444H8.36973V6.0283C8.25245 6.10261 8.14377 6.18995 8.0429 6.28802C7.2532 7.06181 7.2532 8.32058 8.0429 9.09438C8.2759 9.32269 8.56364 9.49277 8.87561 9.587L9.15161 9.67051V13.1702L9.15239 13.1687Z" fill="#3F3636"/>
</g>
<defs>
<clipPath id="clip0_617_14127">
<rect width="14.4593" height="16.0659" fill="white" transform="translate(2.42383 1.43164)"/>
</clipPath>
</defs>
</svg>
