<svg width="77" height="13" viewBox="0 0 77 13" fill="none" xmlns="http://www.w3.org/2000/svg">
<path fill-rule="evenodd" clip-rule="evenodd" d="M6.34483 1.74035C6.56903 1.20138 7.33253 1.20137 7.55668 1.74035L8.59768 4.24321L11.2997 4.45983C11.8816 4.50647 12.1175 5.23261 11.6742 5.61236L9.61558 7.37586L10.2445 10.0126C10.3799 10.5804 9.76228 11.0292 9.26408 10.7249L6.95078 9.31191L4.63745 10.7249C4.13929 11.0292 3.52159 10.5804 3.65703 10.0126L4.28599 7.37586L2.22732 5.61236C1.784 5.23261 2.01994 4.50647 2.6018 4.45983L5.30385 4.24321L6.34483 1.74035Z" fill="#E0004D"/>
<path fill-rule="evenodd" clip-rule="evenodd" d="M22.3448 1.74035C22.569 1.20138 23.3325 1.20137 23.5567 1.74035L24.5977 4.24321L27.2997 4.45983C27.8816 4.50647 28.1175 5.23261 27.6742 5.61236L25.6156 7.37586L26.2445 10.0126C26.3799 10.5804 25.7623 11.0292 25.2641 10.7249L22.9508 9.31191L20.6374 10.7249C20.1393 11.0292 19.5216 10.5804 19.657 10.0126L20.286 7.37586L18.2273 5.61236C17.784 5.23261 18.0199 4.50647 18.6018 4.45983L21.3038 4.24321L22.3448 1.74035Z" fill="#E0004D"/>
<path fill-rule="evenodd" clip-rule="evenodd" d="M38.3448 1.74035C38.569 1.20138 39.3325 1.20137 39.5567 1.74035L40.5977 4.24321L43.2997 4.45983C43.8816 4.50647 44.1175 5.23261 43.6742 5.61236L41.6156 7.37586L42.2445 10.0126C42.3799 10.5804 41.7623 11.0292 41.2641 10.7249L38.9508 9.31191L36.6374 10.7249C36.1393 11.0292 35.5216 10.5804 35.657 10.0126L36.286 7.37586L34.2273 5.61236C33.784 5.23261 34.0199 4.50647 34.6018 4.45983L37.3038 4.24321L38.3448 1.74035Z" fill="#E0004D"/>
<path fill-rule="evenodd" clip-rule="evenodd" d="M54.3448 1.74035C54.569 1.20138 55.3325 1.20137 55.5567 1.74035L56.5977 4.24321L59.2997 4.45983C59.8816 4.50647 60.1175 5.23261 59.6742 5.61236L57.6156 7.37586L58.2445 10.0126C58.3799 10.5804 57.7623 11.0292 57.2641 10.7249L54.9508 9.31191L52.6374 10.7249C52.1393 11.0292 51.5216 10.5804 51.657 10.0126L52.286 7.37586L50.2273 5.61236C49.784 5.23261 50.0199 4.50647 50.6018 4.45983L53.3038 4.24321L54.3448 1.74035Z" fill="#E0004D"/>
<path fill-rule="evenodd" clip-rule="evenodd" d="M70.4656 1.84989C70.5691 1.58998 70.7971 1.46002 71.0252 1.46002C71.0252 9.15248 71.0252 1.46002 71.0252 9.15248L68.8887 10.5153C68.4286 10.8087 67.8582 10.3759 67.9833 9.82828L68.5641 7.28518L66.6628 5.58438C66.2534 5.21813 66.4713 4.51776 67.0087 4.47277L69.5042 4.26384L70.4656 1.84989Z" fill="#E0004D"/>
<path d="M70.7687 1.80825C70.8167 1.69275 70.9225 1.635 71.0284 1.63501C71.1342 1.63501 71.24 1.69276 71.288 1.80825L72.351 4.36398C72.3915 4.46136 72.4831 4.52789 72.5882 4.53632L75.3474 4.75752C75.5967 4.77751 75.6978 5.08871 75.5078 5.25146L73.4057 7.05221C73.3256 7.12081 73.2906 7.22846 73.3151 7.33106L73.9573 10.0235C74.0154 10.2668 73.7506 10.4592 73.5371 10.3288L71.175 8.88596C71.0849 8.83096 70.9718 8.83096 70.8817 8.88596L68.5196 10.3288C68.3061 10.4592 68.0414 10.2668 68.0994 10.0235L68.7416 7.33106C68.7661 7.22846 68.7311 7.12081 68.651 7.05221L66.5489 5.25146C66.3589 5.08871 66.46 4.77751 66.7094 4.75752L69.4685 4.53632C69.5736 4.52789 69.6652 4.46136 69.7057 4.36398L70.7687 1.80825Z" stroke="#E0004D" stroke-width="0.75" stroke-linecap="round" stroke-linejoin="round"/>
</svg>
