<?xml version="1.0" encoding="utf-8"?>
<!-- Generator: Adobe Illustrator 26.0.0, SVG Export Plug-In . SVG Version: 6.00 Build 0)  -->
<svg version="1.1" id="图层_1" xmlns="http://www.w3.org/2000/svg" xmlns:xlink="http://www.w3.org/1999/xlink" x="0px" y="0px"
	 viewBox="0 0 2148.7 2081.4" style="enable-background:new 0 0 2148.7 2081.4;" xml:space="preserve">
<style type="text/css">
	.st0{fill:none;stroke:#000000;stroke-width:30;stroke-linecap:round;stroke-linejoin:round;}
</style>
<g>
	<g id="layer1">
		<g id="g16882">
			<path id="path1927-6" class="st0" d="M523.3,995.8l76.2-61.8l65.2,73.3"/>
			<path id="path15024" class="st0" d="M1377.7,1214.5c-239,338-807.1,132.6-778.7-278.2"/>
			<path id="path15020" class="st0" d="M686.3,692c239-337.9,807-132.5,778.7,278.2"/>
			<path id="path15417" class="st0" d="M1539.8,912.3l-76.2,61.8l-65.2-73.3"/>
		</g>
	</g>
	<path d="M904.6,877.9l51.9,138.6h-28.8l-11-29.7h-57.1l-11,29.7h-28.2l51.7-138.6L904.6,877.9z M868.5,962.6h39.2L888,909.4
		L868.5,962.6z"/>
	<path d="M1053.4,1016.5h-27v-10.4c-6.8,8.1-16.9,12.7-27.4,12.5c-50,1.6-31.2-73.6-34.5-103.6h27v61.2c0,11.2,5,18.5,16.2,18.5
		c9.5,0,18.7-7,18.7-20.1V915h27L1053.4,1016.5z"/>
	<path d="M1078.5,937.5h-13.5V915h13.5v-29h26.6v29h20.6v22.6h-20.6v46.9c-0.6,12.6,13.3,9.9,22,9.3v22.4
		C1061.2,1028.4,1081.6,979.7,1078.5,937.5z"/>
	<path d="M1186.3,1018.6c-65.7,2.4-65.9-107.9,0-105.6C1252.2,910.7,1252,1021,1186.3,1018.6z M1186.3,996.2
		c30.2,2.5,30.4-63.2,0-60.8C1155.7,933.1,1155.9,998.6,1186.3,996.2z"/>
</g>
</svg>
