<svg id="图层_1" data-name="图层 1" xmlns="http://www.w3.org/2000/svg" xmlns:xlink="http://www.w3.org/1999/xlink" width="303.42mm" height="209.67mm" viewBox="0 0 860.1 594.34">
  <defs>
    <style>
      .cls-1, .cls-3 {
        fill: none;
      }

      .cls-2 {
        clip-path: url(#clip-path);
      }

      .cls-3 {
        stroke: #000;
        stroke-linecap: round;
        stroke-linejoin: round;
        stroke-width: 20px;
      }
    </style>
    <clipPath id="clip-path" transform="translate(0 0)">
      <rect class="cls-1" width="860.1" height="594.34"/>
    </clipPath>
  </defs>
  <g class="cls-2">
    <path class="cls-3" d="M850.1,349.67c-54.45,0-93.33.05-147.78,0-19.85,0-37.35,14.21-37.79,38a33.16,33.16,0,0,0,9.31,24c9.95,10.4,18.21,21.88,23.54,35.43,7.18,18.23,9.13,36.83,4.92,56-8.73,39.67-33,65.73-71.5,77.13-30.32,9-59.57,3.39-85.21-15.33-24.77-18.08-38.66-43.17-40.91-73.79-2-26.72,6-50.73,23.33-71.41,5-6,10.9-11.39,13.42-19,8-24.11-5.16-50.15-32.92-50.64-55.6-1-111.22-.54-166.83-.14-15.86.12-27.67,8.18-33.39,23.36-5.49,14.59-3.32,28.37,7.5,39.85,9.77,10.37,17.82,21.73,22.85,35.06,12.35,32.71,7.76,63.61-12.11,91.78-17.33,24.56-41.95,38.45-71.79,41.36a96.84,96.84,0,0,1-65.46-16.7C170.69,551.89,157.6,535.1,150.45,514c-11.24-33.2-4.93-63.65,15.94-91.35,3.69-4.89,8.56-9,11.83-14.1,8-12.56,9.32-25.81,2.12-39.39-6.91-13.06-17.75-19.48-32.48-19.47q-68.93,0-137.86,0" transform="translate(0 0)"/>
    <path class="cls-3" d="M305.21,10c-26.38,31.75-44.66,67.88-57.39,106.91a480.6,480.6,0,0,0-18.14,79.39q-4.1,27.9-5.71,56c-1.23,21.1-2.07,42.29-1.05,63.43.8,16.65.74,33.35,2.09,49.94,1,12.34.26,24.15-3.16,36-4.18,14.46-11.36,27.35-20.08,39.42-7.91,10.94-14.4,22.54-16.35,36-2.94,20.24,4.19,37.26,18.44,51.38a54.27,54.27,0,0,0,30.44,15.38c22.51,3.35,42.18-2.5,57.44-20.31A57.39,57.39,0,0,0,305.17,496c2.87-16-2.44-30-11.46-42.94-6.17-8.82-12.95-17.21-18.48-26.48-9.64-16.19-14.05-34.08-16.37-52.47a427.43,427.43,0,0,1-3.07-59.43c.15-10.32.38-1.79-.13-12.14" transform="translate(0 0)"/>
    <path class="cls-3" d="M665.79,13.87c-26.38,31.75-44.66,67.88-57.39,106.92a479.7,479.7,0,0,0-18.14,79.38q-4.1,27.9-5.71,56c-1.23,21.09-2.07,42.28-1,63.42.8,16.65.74,33.35,2.09,49.94,1,12.34.25,24.15-3.17,36-4.17,14.46-11.35,27.34-20.07,39.41-7.91,10.94-14.4,22.54-16.35,36-2.94,20.24,4.18,37.26,18.44,51.38a54.21,54.21,0,0,0,30.44,15.38c22.51,3.35,42.18-2.5,57.43-20.31a57.4,57.4,0,0,0,13.44-27.49c2.87-16-2.44-30-11.46-42.94-6.17-8.82-13-17.21-18.48-26.48-9.64-16.19-14-34.08-16.37-52.47a427.29,427.29,0,0,1-3.07-59.42c.15-10.33.38-1.8-.13-12.15" transform="translate(0 0)"/>
  </g>
</svg>
