<svg id="图层_1" data-name="图层 1" xmlns="http://www.w3.org/2000/svg" xmlns:xlink="http://www.w3.org/1999/xlink" width="243.17mm" height="272.69mm" viewBox="0 0 689.31 772.97">
  <defs>
    <style>
      .cls-1 {
        fill: none;
      }

      .cls-2 {
        clip-path: url(#clip-path);
      }

      .cls-3 {
        clip-path: url(#clip-path-2);
      }

      .cls-4 {
        fill: #bad4ff;
      }

      .cls-5 {
        fill: #4e8cee;
      }
    </style>
    <clipPath id="clip-path" transform="translate(0)">
      <rect class="cls-1" x="0.12" y="0.17" width="689.88" height="773.76"/>
    </clipPath>
    <clipPath id="clip-path-2" transform="translate(0)">
      <rect class="cls-1" width="690" height="773.93"/>
    </clipPath>
  </defs>
  <g class="cls-2">
    <path d="M620.13,221.47l.09-.06L657.59,184a17.07,17.07,0,1,0-24.13-24.14l-35.28,35.28C538.7,130.55,455,88.63,361.52,84.11a16.89,16.89,0,0,0,.67-4.47V34.13h79.64a17.07,17.07,0,1,0,0-34.13h-182a17.07,17.07,0,1,0,0,34.13h68.27V79.64a16.8,16.8,0,0,0,.66,4.45,343.89,343.89,0,0,0-238.47,112l-36.19-36.2A17.07,17.07,0,1,0,29.92,184l37.39,37.39c.38.38.87.5,1.25.83A342.91,342.91,0,0,0,0,428.33C0,618.36,154.61,773,344.66,773S689.31,618.36,689.31,428.33a343,343,0,0,0-69.18-206.86M344.65,738.85c-171.23,0-310.53-139.3-310.53-310.51s139.3-310.52,310.53-310.52S655.17,257.11,655.17,428.33,515.87,738.85,344.65,738.85" transform="translate(0)"/>
  </g>
  <g class="cls-3">
    <path class="cls-4" d="M345.76,432.84" transform="translate(0)"/>
    <path class="cls-5" d="M345.06,653.4" transform="translate(0)"/>
    <path d="M355.47,190.31a14.05,14.05,0,0,1-24.27-9.57l-.38-79a14.05,14.05,0,1,1,28.1-.15l.38,79a14,14,0,0,1-3.83,9.72" transform="translate(0)"/>
    <path d="M7.07,442.93a14,14,0,0,1,9.72-24.2l79,.13a14.05,14.05,0,0,1,0,28.1l-79-.13a14,14,0,0,1-9.68-3.9" transform="translate(0)"/>
    <path d="M586.23,442.93a14,14,0,0,1,9.73-24.2l79,.13a14.05,14.05,0,1,1,0,28.1l-79-.13a14,14,0,0,1-9.69-3.9" transform="translate(0)"/>
    <path d="M356.17,764.49a14,14,0,0,1-24.27-9.57l-.38-79a14.05,14.05,0,1,1,28.1-.14l.38,79a14,14,0,0,1-3.83,9.71" transform="translate(0)"/>
    <path d="M298.23,256.62V432.84H267V311.46H224.86V288.3l17.07-1.46c21.93-1.95,30.95-9.5,32.66-30.22Z" transform="translate(0)"/>
    <path d="M366.72,371.42c23.89-19.5,45.34-36.8,45.34-58.74,0-18-11.21-31-29.74-31-18.28,0-30.22,14.38-30.22,31.69A48.42,48.42,0,0,0,355,330H326a49.78,49.78,0,0,1-3.17-18.28c0-32.9,27.06-56.55,60.21-56.55,36.56,0,60,22.67,60,55.58,0,30.95-23.4,52.16-48,71.66l-29.25,23.16h79.46v27.29H322.85V407.49Z" transform="translate(0)"/>
    <path d="M238.25,576.27H211.58V488.41h26.67v8.83a30.89,30.89,0,0,1,24-10.67c10.5,0,19.17,4.51,24.17,12a35.71,35.71,0,0,1,27.18-12c17.84,0,29.67,12.51,29.67,31.68v58H316.61V525.92c0-8.84-3.5-15.34-12-15.34-7,0-13.83,5.17-13.83,15.51v50.18H264.09V525.92c0-8.84-3.33-15.34-12-15.34-7,0-13.84,5.17-13.84,15.51Z" transform="translate(0)"/>
    <path d="M360.12,456.57H387.3V479.4H360.12ZM387,576.27H360.29V488.41H387Z" transform="translate(0)"/>
    <path d="M404.47,488.41h26.67v8.83a31.29,31.29,0,0,1,24.18-10.67c18,0,29.34,12.51,29.34,31.68v58H458V525.92c0-8.84-3.66-15.34-12.33-15.34-7.34,0-14.51,5.17-14.51,15.51v50.18H404.47Z" transform="translate(0)"/>
  </g>
</svg>
