<svg id="图层_1" data-name="图层 1" xmlns="http://www.w3.org/2000/svg" xmlns:xlink="http://www.w3.org/1999/xlink" width="108.87mm" height="255.36mm" viewBox="0 0 308.61 723.85">
  <defs>
    <style>
      .cls-1 {
        fill: none;
      }

      .cls-2 {
        clip-path: url(#clip-path);
      }
    </style>
    <clipPath id="clip-path" transform="translate(0 0)">
      <rect class="cls-1" width="308.61" height="723.85"/>
    </clipPath>
  </defs>
  <g class="cls-2">
    <path d="M202.76,291q0,107.39-.07,214.76a10.6,10.6,0,0,0,3.38,8.26c34.31,34.72,46,76.17,32.13,122.79-13.64,45.89-45.63,74.31-92.43,84.4C76.37,736.18,7.87,685.68.71,614.73c-4-39.38,8.78-73.05,37-100.76,2.63-2.59,3-5.19,3-8.42q0-211.26,0-422.53c0-33.94,15.38-59.24,45.52-74.5C138.56-18,202.12,20.57,202.58,79.24c.55,70.58.13,141.18.13,211.76Zm-26,7.69V275.22c0-65.25.32-130.51-.22-195.76-.3-37-38.17-62.52-73.07-50.13-23,8.15-36.84,28.56-36.84,54.37q0,217.23,0,434.47c0,3.6-.85,6-3.86,8.38-20.94,16.56-33.2,38.06-36.33,64.74-7.71,65.5,54.06,120.27,117.88,103.78,37.51-9.69,62.08-33.94,70.6-71.8s-3.13-70.33-32.91-95.63c-4-3.37-5.43-6.58-5.42-11.71q.26-108.61.12-217.24" transform="translate(0 0)"/>
    <path d="M134.73,499.31c0,14.64.16,29.28-.11,43.92-.07,3.85,1.16,5.35,4.73,6.55,24.59,8.25,39.65,31.79,37.26,57.79-2.27,24.73-22.43,45.66-47.23,49a55.11,55.11,0,0,1-26-106.53c4.62-1.61,5.52-3.67,5.49-8-.17-28.94,0-57.89-.17-86.83,0-3.88.93-5.26,4.93-5,5.64.33,11.32.23,17,0,3.19-.12,4.29.79,4.25,4.17-.19,15-.08,29.95-.08,44.92M92.49,602A29.25,29.25,0,1,0,122,572.72,29.32,29.32,0,0,0,92.49,602" transform="translate(0 0)"/>
    <path d="M121.77,555.15h0a13,13,0,0,1-13-13V81.19a13,13,0,0,1,26.09,0V542.1a13,13,0,0,1-13,13" transform="translate(0 0)"/>
    <path d="M295.56,94.24H250.31a13,13,0,0,1,0-26.09h45.25a13,13,0,1,1,0,26.09" transform="translate(0 0)"/>
    <path d="M295.56,146.16H250.31a13,13,0,0,1,0-26.09h45.25a13,13,0,1,1,0,26.09" transform="translate(0 0)"/>
    <path d="M295.56,198.08H250.31a13,13,0,0,1,0-26.09h45.25a13,13,0,1,1,0,26.09" transform="translate(0 0)"/>
  </g>
</svg>
