<svg width="116" height="128" viewBox="0 0 116 128" fill="none" xmlns="http://www.w3.org/2000/svg">
<path d="M39.93 54.32C40.4633 51.9733 40.9433 49.84 41.37 47.92C41.7967 45.8933 42.2767 43.8667 42.81 41.84C43.45 39.7067 44.09 37.36 44.73 34.8C43.77 35.76 42.7033 36.8267 41.53 38C40.3567 39.0667 39.13 40.08 37.85 41.04L24.89 51.44L16.57 39.44L50.97 11.76H66.97L42.65 126H24.57L39.93 54.32Z" fill="#E7004C"/>
<g clip-path="url(#clip0_1525_4860)">
<path d="M83.1116 50.0161H50.7041V112.679H94.8154C94.2908 112.679 94.8154 81.9877 94.8154 81.9877V61.7641L83.1116 50.0161Z" fill="white"/>
<path d="M58.8046 64.44V62.92H59.9726C59.6366 62.36 59.3646 61.752 59.3646 61.032C59.3646 58.936 60.9486 57.336 63.2686 57.336C65.4606 57.336 66.9806 58.84 66.9806 61C66.9806 61.448 66.9166 61.8 66.7886 62.248H64.9166C65.0766 61.88 65.1406 61.464 65.1406 61.112C65.1406 59.944 64.4846 59.032 63.2686 59.032C62.0366 59.032 61.2686 59.928 61.2686 61.144C61.2686 61.832 61.5726 62.344 61.9086 62.92H64.2766V64.44H62.5966C62.6766 64.744 62.7246 65.08 62.7246 65.464C62.7246 65.816 62.6766 66.184 62.5806 66.568C63.1406 67.016 63.7166 67.4 64.4526 67.4C65.3646 67.4 65.7166 66.856 65.7806 65.736H67.4446C67.4446 67.8 66.4206 69.176 64.7406 69.176C63.5086 69.176 62.6286 68.6 61.9406 67.992C61.4766 68.68 60.7726 69.176 59.8766 69.176C58.7086 69.176 57.8126 68.408 57.8286 67.224C57.8446 66.088 58.7246 65.256 59.9886 65.256C60.4046 65.256 60.7726 65.352 61.1086 65.512C61.0926 65.128 60.9966 64.776 60.8526 64.44H58.8046ZM59.3646 67.192C59.3646 67.512 59.6046 67.736 59.9246 67.736C60.3566 67.736 60.6606 67.416 60.8526 66.968C60.5646 66.744 60.2926 66.584 60.0206 66.584C59.6366 66.584 59.3646 66.792 59.3646 67.192Z" fill="#3F3636"/>
<path d="M94.8152 61.7641H83.1113V50.0161L94.8152 61.7641Z" fill="#E7004C"/>
<path d="M94.8152 61.7641H83.1113V50.0161L94.8152 61.7641Z" stroke="#3F3636" stroke-width="2" stroke-linecap="round" stroke-linejoin="round"/>
<path d="M86.2394 112.679H50.7041V50.0161H83.1116" stroke="#3F3636" stroke-width="2" stroke-linecap="round" stroke-linejoin="round"/>
<path d="M94.7949 61.7642V102.455" stroke="#3F3636" stroke-width="2" stroke-linecap="round" stroke-linejoin="round"/>
<path d="M58.4727 74.1709H69.1272" stroke="#3F3636" stroke-width="2" stroke-linecap="round" stroke-linejoin="round"/>
<path d="M58.4727 78.8252H79.1562" stroke="#3F3636" stroke-width="2" stroke-linecap="round" stroke-linejoin="round"/>
<path d="M99.5979 112.984H45.9015V77.1709L72.7598 92.9839L99.5979 77.1709V112.984Z" fill="white" stroke="#3F3636" stroke-width="2" stroke-linecap="round" stroke-linejoin="round"/>
<path d="M45.9015 112.984L70.4392 95.0771" stroke="#3F3636" stroke-width="2" stroke-linecap="round" stroke-linejoin="round"/>
<path d="M99.5982 112.984L75.0605 95.0771" stroke="#3F3636" stroke-width="2" stroke-linecap="round" stroke-linejoin="round"/>
</g>
<defs>
<clipPath id="clip0_1525_4860">
<rect width="55.7143" height="65" fill="white" transform="translate(44.8926 49)"/>
</clipPath>
</defs>
</svg>
