<svg width="116" height="128" viewBox="0 0 116 128" fill="none" xmlns="http://www.w3.org/2000/svg">
<path d="M9.09 126L11.81 112.88L42.21 79.92C45.8367 76.08 49.1433 72.4 52.13 68.88C55.1167 65.2533 57.73 61.7333 59.97 58.32C62.21 54.9067 63.9167 51.4933 65.09 48.08C66.37 44.6667 67.01 41.2533 67.01 37.84C67.01 34 66.1033 31.0667 64.29 29.04C62.5833 27.0133 60.0233 26 56.61 26C54.37 26 52.13 26.48 49.89 27.44C47.7567 28.4 45.6233 29.68 43.49 31.28C41.3567 32.7733 39.17 34.48 36.93 36.4L29.89 23.76C34.1567 19.4933 38.7967 16.1867 43.81 13.84C48.8233 11.3867 54.3167 10.16 60.29 10.16C65.6233 10.16 70.1567 11.2267 73.89 13.36C77.6233 15.3867 80.5033 18.2133 82.53 21.84C84.5567 25.36 85.57 29.5733 85.57 34.48C85.57 40.6667 84.3433 46.5867 81.89 52.24C79.4367 57.8933 76.0233 63.4933 71.65 69.04C67.2767 74.5867 62.1567 80.2933 56.29 86.16L34.05 109.52V110.16H72.29L68.93 126H9.09Z" fill="#E7004C"/>
<g clip-path="url(#clip0_1525_4870)">
<path d="M96.3847 74.8945C96.3847 80.8013 91.5714 85.6016 85.6488 85.6016C79.7261 85.6016 74.9128 80.8013 74.9128 74.8945C74.9128 68.9878 79.7261 64.1875 85.6488 64.1875C91.5714 64.1875 96.3847 68.9878 96.3847 74.8945Z" fill="#F8F8F8"/>
<rect x="70.3076" y="52" width="31.3846" height="57" rx="2" fill="white" stroke="#3F3636" stroke-width="2"/>
<path d="M101.615 99.2729H70.3845" stroke="#3F3636" stroke-width="2" stroke-linecap="round" stroke-linejoin="round"/>
<path d="M84.3845 104.636H88.6922" stroke="#3F3636" stroke-width="2" stroke-linecap="round" stroke-linejoin="round"/>
<path d="M96.3847 74.8945C96.3847 80.8013 91.5714 85.6016 85.6488 85.6016C79.7261 85.6016 74.9128 80.8013 74.9128 74.8945C74.9128 68.9878 79.7261 64.1875 85.6488 64.1875C91.5714 64.1875 96.3847 68.9878 96.3847 74.8945Z" stroke="#3F3636" stroke-width="1.5" stroke-linecap="round" stroke-linejoin="round"/>
<path d="M87.4548 72.4077H88.3382V76.6433C88.3171 78.0025 87.0827 78.8269 85.7664 78.8269C84.4501 78.8269 83.2157 78.0025 83.1946 76.6433V71.3818H79L79.8015 72.4077H80.6866V76.5694C80.6866 79.0002 83.3267 79.9708 85.7664 79.9636C88.2057 79.9708 90.8462 79.0005 90.8462 76.5694V71.3818H86.6533L87.4548 72.4077Z" fill="#190A0A"/>
</g>
<defs>
<clipPath id="clip0_1525_4870">
<rect width="42" height="59" fill="white" transform="translate(65 51)"/>
</clipPath>
</defs>
</svg>
