<svg width="117" height="128" viewBox="0 0 117 128" fill="none" xmlns="http://www.w3.org/2000/svg">
<path d="M25.63 127.6C20.7233 127.6 16.4033 127.173 12.67 126.32C8.93667 125.467 5.36333 124.133 1.95 122.32V105.2C5.36333 107.547 9.15 109.307 13.31 110.48C17.5767 111.653 21.5767 112.24 25.31 112.24C28.83 112.24 31.9233 111.707 34.59 110.64C37.3633 109.573 39.71 108.08 41.63 106.16C43.6567 104.24 45.15 101.947 46.11 99.28C47.07 96.5067 47.55 93.4667 47.55 90.16C47.55 86.8533 46.91 84.0267 45.63 81.68C44.4567 79.3333 42.59 77.5733 40.03 76.4C37.47 75.2267 34.1633 74.64 30.11 74.64H23.07L26.11 59.76H32.19C35.8167 59.76 39.1233 59.28 42.11 58.32C45.2033 57.2533 47.87 55.76 50.11 53.84C52.35 51.8133 54.0567 49.4133 55.23 46.64C56.51 43.76 57.15 40.6133 57.15 37.2C57.15 33.5733 56.19 30.7467 54.27 28.72C52.4567 26.6933 49.6833 25.68 45.95 25.68C42.5367 25.68 39.1767 26.3733 35.87 27.76C32.67 29.1467 29.4167 30.96 26.11 33.2L20.67 19.92C24.9367 16.72 29.3633 14.32 33.95 12.72C38.5367 11.0133 43.7633 10.16 49.63 10.16C54.9633 10.16 59.55 11.0667 63.39 12.88C67.3367 14.6933 70.3767 17.3067 72.51 20.72C74.6433 24.1333 75.71 28.3467 75.71 33.36C75.71 38.5867 74.6433 43.4933 72.51 48.08C70.4833 52.56 67.4967 56.4 63.55 59.6C59.71 62.6933 55.1233 64.9867 49.79 66.48L49.63 66.96C54.5367 68.24 58.4833 70.8 61.47 74.64C64.5633 78.3733 66.11 83.3867 66.11 89.68C66.11 94.8 65.2567 99.6533 63.55 104.24C61.8433 108.72 59.23 112.72 55.71 116.24C52.2967 119.76 48.0833 122.533 43.07 124.56C38.0567 126.587 32.2433 127.6 25.63 127.6Z" fill="#E7004C"/>
<path d="M56 63.1702C56 61.4194 57.1641 60 58.6 60H105.4C106.836 60 108 61.4194 108 63.1702V108.83C108 110.581 106.836 112 105.4 112H58.6C57.1641 112 56 110.581 56 108.83V63.1702Z" fill="white" stroke="#3F3636" stroke-width="2" stroke-linejoin="round"/>
<path d="M56 69H108H56Z" fill="white"/>
<path d="M56 69H108" stroke="#3F3636" stroke-width="2" stroke-linecap="round" stroke-linejoin="round"/>
<path d="M97.2199 90.6289C97.2199 99.2508 90.2215 106.258 81.61 106.258C72.9985 106.258 66 99.2508 66 90.6289C66 82.0069 72.9985 75 81.61 75C90.2215 75 97.2199 82.0069 97.2199 90.6289Z" stroke="#3F3636" stroke-width="2" stroke-linecap="round" stroke-linejoin="round"/>
<path d="M77.4 92.1V90.66H78.98C78.54 89.84 78.14 89 78.14 88C78.14 85.4 80.04 83.42 82.84 83.42C85.54 83.42 87.3 85.32 87.3 87.9C87.3 88.48 87.22 88.98 87.02 89.58H85.26C85.48 89.06 85.58 88.48 85.58 88C85.58 86.32 84.62 85.02 82.84 85.02C81.08 85.02 79.94 86.3 79.94 88.08C79.94 89.06 80.36 89.84 80.8 90.66H83.96V92.1H81.46C81.64 92.62 81.76 93.18 81.76 93.86C81.76 94.26 81.7 94.7 81.6 95.12C82.5 95.84 83.36 96.54 84.48 96.54C85.74 96.54 86.28 95.76 86.32 94.2H87.92C87.92 96.62 86.7 98.22 84.72 98.22C83.12 98.22 82 97.36 81.06 96.52C80.52 97.5 79.64 98.22 78.46 98.22C77.1 98.22 76.08 97.34 76.1 95.96C76.1 94.66 77.14 93.7 78.6 93.7C79.2 93.7 79.72 93.88 80.22 94.14V93.96C80.22 93.28 80.02 92.68 79.74 92.1H77.4ZM77.56 95.94C77.56 96.5 77.96 96.86 78.5 96.86C79.22 96.86 79.7 96.3 79.96 95.56C79.52 95.22 79.08 94.98 78.62 94.98C78 94.98 77.56 95.32 77.56 95.94Z" fill="#3F3636"/>
</svg>
