<?xml version="1.0" encoding="utf-8"?>
<!-- Generator: Adobe Illustrator 28.0.0, SVG Export Plug-In . SVG Version: 6.00 Build 0)  -->
<svg version="1.1" id="图层_1" xmlns="http://www.w3.org/2000/svg" xmlns:xlink="http://www.w3.org/1999/xlink" x="0px" y="0px"
	 viewBox="0 0 748 175" style="enable-background:new 0 0 748 175;" xml:space="preserve">
<style type="text/css">
	.st0{fill:#08833D;}
	.st1{fill:#FFFFFF;}
	.st2{fill-rule:evenodd;clip-rule:evenodd;fill:#FFFFFF;}
</style>
<g>
	<path class="st0" d="M721.6,150.4H29.3c-4.2,0-7.7-3.4-7.7-7.7V32.2c0-4.2,3.4-7.7,7.7-7.7h692.2c4.2,0,7.7,3.4,7.7,7.7v110.5
		C729.2,147,725.8,150.4,721.6,150.4z"/>
	<g>
		<g>
			<g>
				<rect x="196.3" y="63.5" class="st1" width="1.5" height="49.8"/>
				<g id="Group-15" transform="translate(11.000000, 11.000000)">
					<path id="Shape_3_" class="st1" d="M126.7,102.6c-14.4,0-26.1-11.7-26.1-26.1s11.7-26.1,26.1-26.1c4.7,0,9.5,1.2,13.7,4
						c1.2,0.7,1.7,2.5,1,3.7c-0.7,1.2-2.5,1.7-3.7,1c-3.2-2-7-3-10.7-3c-11.4,0-20.6,9.2-20.6,20.6s9.2,20.6,20.6,20.6
						s20.6-9.2,20.6-20.6c0-1.5-0.2-3-0.7-4.7c-0.2-1.5,0.5-3,2-3.2c1.5-0.2,3,0.5,3.2,2c0.5,2.2,0.7,4.2,0.7,6
						C152.8,90.9,141.1,102.6,126.7,102.6z"/>
					<path id="Path" class="st2" d="M126.7,84.5l27.9-26.9c1.2-1,1.2-2.7,0-4c-1.2-1-3-1-4,0l-25.6,24.9l-7-6.5c-1.2-1-3-1-4,0
						c-1.2,1-1.2,2.7,0,4l8.7,8.5c0.5,0.5,1.2,0.7,2,0.7S126.2,85,126.7,84.5z"/>
				</g>
			</g>
		</g>
		<g>
			<path class="st1" d="M238.2,102L224,63.7h8.4l9.9,28.4l10-28.4h8.1l-14,38.3H238.2z"/>
			<path class="st1" d="M259.1,88c0-8.3,5.7-14.6,13.7-14.6c8.3,0,12.8,6.2,12.8,14v2.2h-19.3c0.5,4.3,3.2,6.8,6.8,6.8
				c2.9,0,5.2-1.4,6-4.1l6.3,2.2c-2,5.1-6.8,8-12.4,8C264.7,102.6,259.1,96.7,259.1,88z M266.5,84.6h11.6c-0.1-2.8-1.8-5.2-5.4-5.2
				C269.7,79.4,267.4,81.2,266.5,84.6z"/>
			<path class="st1" d="M306.7,81.2c-0.9-0.1-1.5-0.2-2.4-0.2c-3.9,0-6.9,2.4-6.9,6.7V102H290V74h7.5v4c1.2-2.5,4-4.1,7.5-4.1
				c0.7,0,1.3,0.1,1.8,0.1V81.2z"/>
			<path class="st1" d="M310.1,63.7h7.6v6.9h-7.6V63.7z M317.6,102h-7.5V74h7.5V102z"/>
			<path class="st1" d="M337.7,69.4c-0.7-0.1-1.1-0.1-1.9-0.1c-2.3,0-3.6,0.7-3.6,3.5V74h5.4v6.2h-5.4V102h-7.5V80.2h-3.8V74h3.8
				v-1.5c0-5.9,3.2-9.2,10.1-9.2c1.1,0,1.7,0,2.9,0.1V69.4z"/>
			<path class="st1" d="M345.3,111.8c-1.4,0-2-0.1-2.9-0.2v-6c0.8,0.1,1.3,0.1,2.1,0.1c2,0,3-0.5,3.8-2.6l0.9-2.2l-10.1-27h7.7
				l6.4,18.5l6.2-18.5h7.5l-11.1,29.7C354.1,108.6,351.5,111.8,345.3,111.8z"/>
			<path class="st1" d="M400.6,74l4.6,17.6l4.7-17.6h7.3l-8.5,28.1h-6.5l-4.8-17l-4.7,17h-6.5L377.9,74h7.6l4.8,17.6l4.6-17.6H400.6
				z"/>
			<path class="st1" d="M420.2,63.7h7.6v6.9h-7.6V63.7z M427.8,102h-7.5V74h7.5V102z"/>
			<path class="st1" d="M434.6,80.2h-3.7V74h3.7v-8h7.4v8h5.7v6.2h-5.7v13c0,2.4,1.3,2.7,3.5,2.7c1.1,0,1.6-0.1,2.6-0.2v6.2
				c-1.3,0.3-2.9,0.4-4.8,0.4c-5.7,0-8.6-1.9-8.6-7.6V80.2z"/>
			<path class="st1" d="M452.3,63.7h7.5v13.1c1.5-1.8,4.1-3.4,7.7-3.4c5.9,0,9.4,4,9.4,10.1V102h-7.5V85.7c0-3.2-1.3-5.4-4.5-5.4
				c-2.6,0-5.2,1.9-5.2,5.6V102h-7.5V63.7z"/>
		</g>
		<g id="idme-wallet-copy-2" transform="translate(147.000000, 12.000000)">
			<path id="Shape" class="st1" d="M363,49h-2.3c-2.6,0-3.8,0.9-3.8,2.8v46.5c0,1.8,1.2,2.8,3.8,2.8h2c2.6,0,3.8-0.9,3.8-2.8V51.8
				C366.7,50,365.3,49,363,49z"/>
			<path id="Shape_1_" class="st1" d="M403.7,95.5c0-5.5,3.5-10.4,8.4-11.9c0.6-2.4,0.9-5.5,0.9-8.6c0-16.8-8.4-26-23.5-26h-16
				c-2.3,0-3.5,0.9-3.5,3.4v45.3c0,2.1,1.2,3.4,3.2,3.4h16c5.8,0,10.5-1.2,14.2-4C403.7,96.8,403.7,96.2,403.7,95.5z M389.4,90.6
				h-7.3V59.4h7.3c9.3,0,11.3,8.6,11.3,15.6C400.7,82.1,398.7,90.6,389.4,90.6z"/>
			<ellipse id="Oval" class="st1" cx="414.4" cy="95.8" rx="4.9" ry="5.2"/>
			<path id="Shape_2_" class="st1" d="M491.2,87c-0.3,0-0.3,0-0.6,0c-0.9,0-1.2,0.3-1.7,0.9c-0.3,0.3-0.6,0.9-0.9,1.5
				c-0.9,1.8-2,3.7-3.5,4.9c-2,1.8-4.9,2.8-7.3,2.1c-1.5-0.3-2.3-1.5-3.2-2.1c-1.2-1.5-1.7-4-1.5-6.4c3.5-0.3,14.2-2.1,15.4-10.7
				c0.3-1.5-0.3-3.4-1.2-4.6c-1.2-1.5-3.5-2.4-5.8-2.4c-7.3,0-14.2,8-15.1,17.1c-0.3,2.4,0,4.9,0.9,7c-0.6,0.6-1.2,0.9-1.7,1.2
				c-0.6,0.3-1.2,0.3-1.5,0.3c-0.6-0.3-0.6-0.9-0.9-1.2c-0.3-1.5,0-3.7,0.6-5.5c0.3-1.2,0.6-2.4,0.9-3.4c0.9-3.4,1.7-6.7,1.5-10.1
				c-0.3-3.1-2.3-5.2-5.5-5.2c-4.4,0-7.3,3.4-9,6.1c0-2.1-0.6-3.7-1.5-4.6s-2-1.5-3.8-1.5c-4.4,0-7,3.1-9,5.8c0-0.3,0-0.6,0-0.9
				c0-1.2,0.3-2.8-0.9-4c-0.6-0.6-1.2-0.9-2.3-0.9c-0.9,0-1.2,0-2,0.3c0,0-0.9,0.3-1.2,0.6c-0.6,0.6-0.3,1.5-0.3,2.1c0,0,0,0,0,0.3
				s0,0.9,0,1.5c-0.3,3.4-0.9,6.7-1.2,9.5c-0.3,1.5-0.6,3.1-0.9,4.6c-0.9,3.4-1.5,7-1.7,10.4c0,0.3,0,0.6,0.3,0.9
				c0.3,0.3,0.6,0.3,0.9,0.3h0.3c2.3,0,4.7,0,5.2-1.5s0.9-3.4,1.2-5.2l0.3-0.9c0.6-4,1.2-6.7,2.6-10.1c0.6-1.8,1.7-3.4,2.6-4.6
				c1.2-1.5,2.3-3.1,3.8-3.1c0.6,0,0.9,0.3,1.2,0.6c1.2,1.8-0.3,8-1.2,10.7c-0.3,0.6-0.3,0.9-0.3,1.5l-0.6,2.1
				c-0.9,3.1-1.5,5.8-1.7,9.2c0,0.3,0,0.6,0,0.9v0.3l0.3,0.3c0.6,0.6,4.9-0.3,4.9-0.3c1.5-0.6,2-2.1,2-2.8c0.3-1.5,0.6-2.8,0.9-4
				l0,0c0.6-2.4,0.9-5.2,1.7-7.6c1.5-4.9,3.5-8.3,5.5-10.1c0.9-0.6,2-0.9,2.3-0.3c0.9,0.9,0.3,4,0,5.2c-0.3,1.5-0.6,3.4-1.2,5.2l0,0
				c-0.3,0.9-0.6,2.1-0.9,3.4c-0.6,3.4-1.2,7.3,0.6,9.8c0.9,1.2,2.3,1.8,4.1,1.8c2,0,3.8-0.6,5.8-2.1c0.6-0.3,1.2-0.9,1.7-1.5
				c2.3,2.8,4.7,4,8.4,4c8.1,0,11.9-5.8,14.2-10.1c0.3-0.6,0.6-1.2,0.9-1.8C492,88.2,491.7,87.3,491.2,87z M481,76
				c0,0.3,0,0.3,0,0.3s0,0.3,0,0.6c0,0.6-0.3,1.5-0.3,2.1c-1.2,4-4.4,4.9-7.3,4.9c0.3-1.8,0.9-3.4,1.7-4.9c1.5-3.1,3.2-4.9,4.7-4.9
				c0.3,0,0.3,0,0.3,0s0,0,0.3,0l0,0l0,0c0,0,0,0,0.3,0.3l0,0l0,0c0,0,0,0,0,0.3l0,0c0,0,0,0,0,0.3c0,0,0,0,0,0.3v0.3l0,0
				C481,75.7,481,75.7,481,76L481,76z"/>
		</g>
	</g>
</g>
</svg>
