<svg width="172" height="93" viewBox="0 0 172 93" fill="none" xmlns="http://www.w3.org/2000/svg">
<path d="M66.6213 49.2556C65.5315 47.5362 64.1512 45.962 62.6013 44.5817C60.4702 42.6927 58.0727 41.1671 55.651 39.7141C53.4957 38.4306 51.074 37.026 49.3304 35.1612C48.846 34.6527 47.7805 33.4903 47.1993 31.6256C46.0853 28.0415 46.9571 22.7621 51.0014 21.6966C52.5997 21.2607 54.3917 21.4302 55.8448 22.2536C57.7095 23.3191 58.7992 25.4744 58.5812 27.6298V31.2865H69.5031C69.6726 31.2865 69.2852 25.2323 69.2125 24.6511C68.9219 22.4473 68.3649 20.2678 67.1541 18.4031C64.4418 14.262 59.1141 12.2519 54.3917 12.1066C50.178 11.9613 45.6494 13.1238 42.041 15.3517C39.6193 16.8532 37.9484 19.2264 36.9797 21.9145C35.5993 25.7893 35.0908 30.3178 35.9141 34.3621C37.1492 40.4648 41.2419 44.7512 46.2306 48.0689C48.5554 49.6188 50.9771 51.0234 53.2293 52.6701C55.2635 54.1474 57.0798 55.673 57.879 58.1916C58.993 61.7757 58.1211 67.0551 54.0769 68.1206C52.4786 68.5565 50.6865 68.387 49.2335 67.5636C47.3688 66.4981 46.279 64.3428 46.497 62.1875V58.5307H35.5751C35.4055 58.5307 35.7931 64.5849 35.8657 65.1661C36.1563 67.3699 36.7133 69.5494 37.9241 71.4141C40.6364 75.5552 45.9642 77.5653 50.6865 77.7106C54.9003 77.8559 59.4289 76.6934 63.0372 74.4655C65.4589 72.964 67.1299 70.5908 68.0986 67.9027C69.4789 64.0279 69.9875 59.4994 69.1641 55.4551C68.704 53.2029 67.8322 51.1203 66.6455 49.2556H66.6213Z" fill="#190A0A"/>
<path d="M146.395 49.2556C145.305 47.5362 143.925 45.962 142.375 44.5817C140.244 42.6927 137.846 41.1671 135.424 39.7141C133.269 38.4306 130.847 37.026 129.104 35.1612C128.619 34.6527 127.554 33.4903 126.973 31.6256C125.859 28.0415 126.731 22.7621 130.775 21.6966C132.373 21.2607 134.165 21.4302 135.618 22.2536C137.483 23.3191 138.573 25.4744 138.355 27.6298V31.2865H149.277C149.446 31.2865 149.059 25.2323 148.986 24.6511C148.695 22.4473 148.138 20.2678 146.928 18.4031C144.215 14.262 138.887 12.2519 134.165 12.1066C129.951 11.9613 125.423 13.1238 121.814 15.3517C119.393 16.8532 117.722 19.2264 116.753 21.9145C115.373 25.7893 114.864 30.3178 115.688 34.3621C116.923 40.4648 121.015 44.7512 126.004 48.0689C128.329 49.6188 130.751 51.0234 133.003 52.6701C135.037 54.1474 136.853 55.673 137.652 58.1916C138.766 61.7757 137.895 67.0551 133.85 68.1206C132.252 68.5565 130.46 68.387 129.007 67.5636C127.142 66.4981 126.052 64.3428 126.27 62.1875V58.5307H115.348C115.179 58.5307 115.567 64.5849 115.639 65.1661C115.93 67.3699 116.487 69.5494 117.698 71.4141C120.41 75.5552 125.738 77.5653 130.46 77.7106C134.674 77.8559 139.202 76.6934 142.811 74.4655C145.232 72.964 146.903 70.5908 147.872 67.9027C149.252 64.0279 149.761 59.4994 148.938 55.4551C148.477 53.2029 147.606 51.1203 146.419 49.2556H146.395Z" fill="#190A0A"/>
<path d="M93.5022 53.5184H99.4112V68.9204H91.7344V78.244H99.4112H110.866V68.9204V53.5184V48.8687V44.1948H93.5022V53.5184Z" fill="#190A0A"/>
<path d="M92.4659 12.7862H92.369C82.2221 12.7862 73.9883 21.02 73.9883 31.1669V59.8641C73.9883 69.793 81.8831 77.8815 91.7152 78.2206V68.8728C88.1795 68.5338 85.4187 65.5551 85.4187 61.9225V29.06C85.4187 25.2095 88.5427 22.0855 92.3932 22.0855C96.2437 22.0855 99.3678 25.2095 99.3678 29.06V33.2011H110.822V31.1427C110.822 20.9957 102.589 12.762 92.4416 12.762L92.4659 12.7862Z" fill="#190A0A"/>
<path d="M149.565 0H149.057V92.0247H149.565V0Z" fill="#190A0A"/>
<path d="M171.892 77.3735H0V78.0516H171.892V77.3735Z" fill="#190A0A"/>
</svg>
