<svg id="图层_1" data-name="图层 1" xmlns="http://www.w3.org/2000/svg" xmlns:xlink="http://www.w3.org/1999/xlink" width="19.28mm" height="19.75mm" viewBox="0 0 54.66 55.99">
  <defs>
    <clipPath id="clip-path" transform="translate(0 0)">
      <rect width="54.66" height="55.99" fill="none"/>
    </clipPath>
  </defs>
  <g clip-path="url(#clip-path)">
    <path d="M54.66,28A14.55,14.55,0,0,0,41.23,13.51V0l-23,13.49H6.57A6.6,6.6,0,0,0,0,20.07V35.92A6.59,6.59,0,0,0,6.57,42.5H18.23L41.23,56V42.48A14.55,14.55,0,0,0,54.66,28M15.74,39.59H6.57a3.66,3.66,0,0,1-3.66-3.67V20.07A3.66,3.66,0,0,1,6.57,16.4h9.17ZM38.32,50.91,18.65,39.37V16.62L38.32,5.08Zm2.91-11.34V16.42a11.63,11.63,0,0,1,0,23.15" transform="translate(0 0)" fill="#e0004d"/>
  </g>
</svg>
