<?xml version="1.0" encoding="utf-8"?>
<!-- Generator: Adobe Illustrator 28.1.0, SVG Export Plug-In . SVG Version: 6.00 Build 0)  -->
<svg version="1.1" id="隔离模式" xmlns="http://www.w3.org/2000/svg" xmlns:xlink="http://www.w3.org/1999/xlink" x="0px"
	 y="0px" viewBox="0 0 84.1 61.9" style="enable-background:new 0 0 84.1 61.9;" xml:space="preserve">
<style type="text/css">
	.st0{fill:none;}
	.st1{fill:#FFFFFF;}
</style>
<g>
	<g>
		<rect y="0" class="st0" width="84.1" height="61.9"/>
	</g>
	<path class="st1" d="M42,9c-12.1,0-22,9.8-22,22s9.8,22,22,22s22-9.8,22-22S54.2,9,42,9z M40.1,23.8c-4,0-7.2,3.2-7.2,7.2
		c0,4,3.2,7.2,7.2,7.2v2.6c-1.3,0-2.6-0.3-3.8-0.8c-1.2-0.5-2.2-1.2-3.1-2.1c-0.9-0.9-1.6-1.9-2.1-3.1c-0.5-1.2-0.8-2.5-0.8-3.8
		c0-1.3,0.3-2.6,0.8-3.8c0.5-1.2,1.2-2.2,2.1-3.1c0.9-0.9,1.9-1.6,3.1-2.1c1.2-0.5,2.5-0.8,3.8-0.8V23.8z M52.4,23.8
		c-3.5,0-6.5,2.6-7.1,5.9h7.1v2.6h-7.1c0.6,3.4,3.6,5.9,7.1,5.9v2.6c-1.3,0-2.6-0.3-3.8-0.8c-1.2-0.5-2.2-1.2-3.1-2.1
		c-0.9-0.9-1.6-1.9-2.1-3.1c-0.5-1.2-0.8-2.5-0.8-3.8c0-1.3,0.3-2.6,0.8-3.8c0.5-1.2,1.2-2.2,2.1-3.1c0.9-0.9,1.9-1.6,3.1-2.1
		c1.2-0.5,2.5-0.8,3.8-0.8V23.8z"/>
</g>
</svg>
