<?xml version="1.0" encoding="utf-8"?>
<!-- Generator: Adobe Illustrator 28.1.0, SVG Export Plug-In . SVG Version: 6.00 Build 0)  -->
<svg version="1.1" id="隔离模式" xmlns="http://www.w3.org/2000/svg" xmlns:xlink="http://www.w3.org/1999/xlink" x="0px"
	 y="0px" viewBox="0 0 84.1 61.9" style="enable-background:new 0 0 84.1 61.9;" xml:space="preserve">
<style type="text/css">
	.st0{fill:none;}
	.st1{fill:#FFFFFF;}
</style>
<g>
	<g>
		<rect y="0" class="st0" width="84.1" height="61.9"/>
	</g>
</g>
<g>
	<rect x="0" class="st0" width="84.1" height="61.9"/>
	<g>
		<path class="st1" d="M42.3,52.8c-12.3,0-22.3-10-22.3-22.4C19.9,18.1,30,8.1,42.4,8.1c12.3,0.1,22.3,10.1,22.2,22.5
			C64.6,42.9,54.6,52.8,42.3,52.8z M61.7,30.5c0-10.7-8.7-19.4-19.4-19.4c-10.8,0-19.5,8.7-19.5,19.4c0,10.7,8.7,19.5,19.4,19.5
			C53,49.9,61.7,41.2,61.7,30.5z"/>
		<path class="st1" d="M38.7,27.5c-0.1,0.1-0.1,0.2-0.1,0.2c0,3,0,6,0,9c0,0.2-0.1,0.2-0.2,0.2c-0.8,0-1.6,0-2.4,0
			c-0.1,0-0.2,0-0.2-0.2c0-4.2,0-8.4,0-12.6c0-0.1,0-0.2,0.2-0.2c1.3,0,2.7,0,4,0c0.1,0,0.2,0,0.2,0.2c0.2,0.7,0.3,1.4,0.5,2
			c0.2,0.8,0.4,1.6,0.6,2.4c0.1,0.5,0.2,0.9,0.3,1.4c0.2,0.8,0.4,1.6,0.6,2.3c0,0.1,0,0.1,0.1,0.2c0.1-0.3,0.1-0.5,0.2-0.8
			c0.3-1.2,0.6-2.3,0.8-3.5c0.2-0.9,0.4-1.8,0.6-2.6c0.1-0.5,0.3-1,0.4-1.5c0-0.1,0.1-0.1,0.2-0.1c0.8,0,1.6,0,2.4,0
			c0.5,0,1.1,0,1.6,0c0.1,0,0.2,0,0.2,0.2c0,4.2,0,8.4,0,12.6c0,0.1,0,0.2-0.2,0.2c-0.8,0-1.6,0-2.5,0c-0.2,0-0.2,0-0.2-0.2
			c0-3.1,0-6.1,0-9.2c0-0.1,0-0.1,0-0.3c-0.1,0.2-0.1,0.4-0.2,0.6c-0.1,0.5-0.2,1-0.4,1.5c-0.3,1.4-0.7,2.9-1.1,4.3
			c-0.2,0.9-0.4,1.7-0.6,2.6c0,0.2-0.1,0.3-0.1,0.5c0,0.1-0.1,0.1-0.1,0.1c-0.8,0-1.5,0-2.3,0c-0.1,0-0.1,0-0.1-0.1
			c-0.1-0.6-0.3-1.2-0.4-1.8c-0.3-1.3-0.6-2.7-1-4c-0.2-0.9-0.4-1.8-0.7-2.7C38.9,28.1,38.8,27.8,38.7,27.5z"/>
		<path class="st1" d="M26,30.5c0-2.1,0-4.2,0-6.3c0-0.2,0-0.2,0.2-0.2c2.9,0,5.7,0,8.6,0c0.1,0,0.2,0,0.2,0.2c0,0.8,0,1.6,0,2.4
			c0,0.1,0,0.2-0.2,0.2c-1.9,0-3.7,0-5.6,0c-0.2,0-0.2,0-0.2,0.2c0,0.6,0,1.3,0,1.9c0,0.2,0.1,0.2,0.2,0.2c1.7,0,3.5,0,5.2,0
			c0.1,0,0.2,0,0.2,0.2c0,0.8,0,1.5,0,2.3c0,0.2,0,0.2-0.2,0.2c-1.7,0-3.4,0-5.1,0c-0.3,0-0.3,0-0.3,0.3c0,0.6,0,1.2,0,1.9
			c0,0.2,0,0.2,0.2,0.2c1.6,0,3.3,0,4.9,0c0.3,0,0.5,0,0.8,0c0.1,0,0.1,0,0.1,0.1c0,0.9,0,1.7,0,2.6c0,0.1,0,0.1-0.1,0.1
			c0,0-0.1,0-0.1,0c-2.9,0-5.7,0-8.6,0c-0.2,0-0.2,0-0.2-0.2C26,34.7,26,32.6,26,30.5z"/>
		<path class="st1" d="M60,31.9c-0.1,0.6-0.2,1.3-0.4,1.9c-0.2,0.6-0.5,1.2-0.9,1.8c-0.5,0.5-1,0.9-1.7,1.2
			c-0.4,0.2-0.8,0.3-1.2,0.3c-0.4,0.1-0.9,0.1-1.3,0.1c-0.8,0-1.6-0.2-2.3-0.5c-0.7-0.4-1.3-0.9-1.7-1.6c-0.5-0.8-0.7-1.6-0.9-2.4
			c-0.2-0.9-0.2-1.9-0.1-2.8c0-0.8,0.1-1.7,0.4-2.5c0.3-0.9,0.7-1.7,1.4-2.4c0.6-0.6,1.3-0.9,2.2-1.1c0.5-0.1,1-0.2,1.5-0.1
			c0.9,0,1.8,0.2,2.6,0.6c0.7,0.4,1.1,0.9,1.5,1.5c0.5,0.9,0.7,1.8,0.9,2.8c0,0,0,0,0,0.1c0.1,0.3,0.1,0.3-0.2,0.3
			c-0.9,0-1.7,0-2.6,0c-0.1,0-0.2,0-0.2-0.2c-0.1-0.6-0.3-1.1-0.6-1.6c-0.3-0.4-0.7-0.6-1.2-0.7c-0.4,0-0.7,0-1,0.1
			c-0.5,0.2-0.8,0.5-1,1c-0.3,0.5-0.4,1.1-0.5,1.7c-0.1,0.5-0.1,1.1-0.1,1.6c0,0.8,0.1,1.5,0.5,2.2c0.4,0.8,1.1,1.2,1.9,1.1
			c0.6,0,1.1-0.3,1.5-0.8c0.3-0.5,0.5-1,0.6-1.5c0-0.1,0-0.1,0.1-0.1c0.6,0,1.2,0,1.8,0C59.1,31.9,59.5,31.9,60,31.9
			C59.9,31.9,59.9,31.9,60,31.9z"/>
	</g>
</g>
</svg>
