<?xml version="1.0" encoding="utf-8"?>
<!-- Generator: Adobe Illustrator 28.1.0, SVG Export Plug-In . SVG Version: 6.00 Build 0)  -->
<svg version="1.1" id="隔离模式" xmlns="http://www.w3.org/2000/svg" xmlns:xlink="http://www.w3.org/1999/xlink" x="0px"
	 y="0px" viewBox="0 0 84.1 61.9" style="enable-background:new 0 0 84.1 61.9;" xml:space="preserve">
<style type="text/css">
	.st0{fill:#FFFFFF;}
	.st1{fill:none;}
</style>
<g>
	<g>
		<path class="st0" d="M50.1,27.6c0.5-0.8,1-1.6,1.5-2.4c1.9-3,3.8-6,5.7-9.1c0.1-0.2,0.2-0.3,0.4-0.3c2.4,0,4.8,0,7.2,0
			c0.2,0,0.3,0.1,0.4,0.2c4.6,7.5,9.3,15,13.9,22.5c0.1,0.2,0.1,0.3,0,0.5c-1.4,2.3-2.8,4.6-4.2,6.8c-0.1,0.2-0.2,0.2-0.4,0.2
			c-6.1,0-12.1,0-18.2,0c-0.2,0-0.3-0.1-0.3-0.3c0-1,0-2,0-3c0-0.3,0.1-0.4,0.4-0.4c6.7,0,13.5,0,20.2,0c0.1,0,0.2,0,0.3,0
			c0-0.1-0.1-0.2-0.1-0.3c-5.2-8.7-10.3-17.3-15.5-26c-0.2-0.3-0.2-0.3-0.4,0c-3.8,6.5-7.5,13-11.3,19.4c-1,1.7-2.1,3.4-3.4,5
			c-1.9,2.2-4.2,3.9-7,4.9c-1.5,0.5-3,0.7-4.6,0.7c-3.6,0-7.1,0-10.7,0c-0.3,0-0.3-0.1-0.3-0.3c0-5.8,0-11.6,0-17.4
			c0-0.3,0.1-0.4,0.4-0.4c1,0,1.9,0,2.9,0c0.2,0,0.3,0.1,0.3,0.3c0,4.6,0,9.1,0,13.7c0,0.4,0,0.4,0.4,0.4c2.4,0,4.8,0,7.3,0
			c2.7,0,5.1-0.9,7.2-2.4c2.4-1.7,3.9-4.1,4.4-7c0.5-3.1,0.1-6.1-1.8-8.7c-1.7-2.4-4-3.8-6.8-4.6c-0.9-0.3-1.7-0.4-2.6-0.4
			c-9,0-18,0-27,0c-0.3,0-0.4,0.1-0.4,0.4c0,8.7,0,17.3,0,26c0,0.3-0.1,0.4-0.4,0.4c-0.9,0-1.9,0-2.8,0c-0.2,0-0.2-0.1-0.2-0.2
			c0-1.1,0-2.2,0-3.2c0-8.8,0-17.6,0-26.4c0-0.4,0-0.4,0.4-0.4c9.9,0,19.8,0,29.7,0c2.6,0,5.2,0.4,7.5,1.6c3.1,1.5,5.3,4,6.7,7.1
			c0.4,0.9,0.8,1.9,1,2.9C50,27.5,50.1,27.5,50.1,27.6z"/>
		<path class="st0" d="M22.8,20.6c4.1,0,8.1,0,12.2,0c2.4,0,4.7,0.7,6.6,2.2c2.2,1.7,3.4,3.9,3.8,6.5c0.3,2.3,0,4.5-1.1,6.5
			c-1.6,2.8-4,4.5-7.2,5.1c-0.5,0.1-1,0.1-1.4,0.1c-2.2,0-4.4,0-6.6,0c-0.3,0-0.3-0.1-0.3-0.3c0-4.1,0-8.2,0-12.4
			c0-0.2,0-0.3,0.3-0.3c1,0,2,0,3.1,0c0.3,0,0.3,0.1,0.3,0.3c0,2.9,0,5.9,0,8.8c0,0.3,0.1,0.3,0.3,0.3c0.9,0,1.8,0,2.6,0
			c1.5,0.1,2.9-0.5,4-1.4c1.3-1.1,2.2-2.4,2.5-4.1c0.4-2.5-0.4-4.5-2.4-6.1c-1.3-1.1-2.9-1.6-4.6-1.6c-7.3,0-14.5,0-21.8,0
			c-0.3,0-0.4,0.1-0.3,0.4c0,1.1,0,2.1,0,3.2c0,0.2,0.1,0.3,0.3,0.3c3,0,6,0,9,0c0.3,0,0.4,0.1,0.4,0.4c0,1,0,2,0,2.9
			c0,0.3-0.1,0.4-0.4,0.4c-4.1,0-8.1,0-12.2,0c-0.7,0-0.7,0-0.7-0.7c0-3.4,0-6.7,0-10.1c0-0.3,0.1-0.3,0.3-0.3
			C14,20.6,18.4,20.6,22.8,20.6z"/>
		<path class="st0" d="M61.4,26.4c-0.6,1-1.2,2-1.7,3c-3.1,5.5-6.3,11-9.4,16.5c-0.1,0.2-0.2,0.3-0.5,0.3c-1.4,0-2.9,0-4.3,0
			c-0.1,0-0.2,0-0.3,0c5.4-8.9,10.8-17.8,16.3-26.8c4.5,7.2,8.9,14.4,13.3,21.7c-0.1,0.1-0.2,0-0.3,0c-5.9,0-11.8,0-17.7,0
			c-0.3,0-0.4-0.1-0.4-0.4c0-1,0-1.9,0-2.9c0-0.3,0.1-0.3,0.3-0.3c3.7,0,7.4,0,11.2,0c0.1,0,0.2,0,0.4,0
			C65.9,33.8,63.7,30.1,61.4,26.4z"/>
		<path class="st0" d="M15.9,33.3c2.1,0,4.2,0,6.3,0c0.2,0,0.3,0,0.3,0.3c0,1,0,2,0,3c0,0.3-0.1,0.3-0.3,0.3c-3,0-6,0-9,0
			c-0.3,0-0.4,0.1-0.4,0.4c0,2.9,0,5.8,0,8.6c0,0.2-0.1,0.3-0.3,0.3c-1,0-1.9,0-2.9,0c-0.3,0-0.3,0-0.3-0.3c0-4.1,0-8.2,0-12.2
			c0-0.2,0.1-0.3,0.3-0.3C11.7,33.3,13.8,33.3,15.9,33.3z"/>
	</g>
	<rect class="st1" width="84.1" height="61.9"/>
</g>
</svg>
