<?xml version="1.0" encoding="utf-8"?>
<!-- Generator: Adobe Illustrator 28.1.0, SVG Export Plug-In . SVG Version: 6.00 Build 0)  -->
<svg version="1.1" id="隔离模式" xmlns="http://www.w3.org/2000/svg" xmlns:xlink="http://www.w3.org/1999/xlink" x="0px"
	 y="0px" viewBox="0 0 84.1 61.9" style="enable-background:new 0 0 84.1 61.9;" xml:space="preserve">
<style type="text/css">
	.st0{fill:none;}
	.st1{fill:#FFFFFF;}
</style>
<g>
	<g>
		<rect y="0" class="st0" width="84.1" height="61.9"/>
	</g>
</g>
<g>
	<rect x="0" y="0" class="st0" width="84.1" height="61.9"/>
	<g>
		<path class="st1" d="M17.6,9.9H26v42.2h-8.5V9.9z"/>
		<path class="st1" d="M59.8,11.5c2.6,1.1,4.8,2.6,6.7,4.5l-6,6c-2.5-2.5-5.5-3.7-9-3.7c-3.5,0-6.5,1.2-8.9,3.7
			c-2.5,2.5-3.7,5.5-3.7,8.9c0,3.5,1.2,6.5,3.7,8.9c2.5,2.5,5.4,3.7,8.9,3.7c3.5,0,6.5-1.2,9-3.7l6,6c-1.9,1.9-4.2,3.4-6.7,4.5
			s-5.3,1.7-8.2,1.7c-5.8,0-10.8-2.1-14.9-6.2c-4.1-4.1-6.2-9.1-6.2-14.9c0-5.8,2.1-10.8,6.2-14.9c4.1-4.1,9.1-6.2,14.9-6.2
			C54.5,9.9,57.2,10.4,59.8,11.5z"/>
	</g>
</g>
</svg>
