<?xml version="1.0" encoding="utf-8"?>
<!-- Generator: Adobe Illustrator 28.1.0, SVG Export Plug-In . SVG Version: 6.00 Build 0)  -->
<svg version="1.1" id="隔离模式" xmlns="http://www.w3.org/2000/svg" xmlns:xlink="http://www.w3.org/1999/xlink" x="0px"
	 y="0px" viewBox="0 0 84.1 61.9" style="enable-background:new 0 0 84.1 61.9;" xml:space="preserve">
<style type="text/css">
	.st0{fill:none;}
	.st1{fill:#FFFFFF;}
</style>
<g>
	<rect x="0" class="st0" width="84.1" height="61.9"/>
	<g>
		<rect x="0" class="st0" width="84.1" height="61.9"/>
		<path class="st1" d="M29,30.6c-0.6-0.9-1.2-1.7-2-2.4c-1.1-0.9-2.3-1.7-3.5-2.5c-1.1-0.7-2.3-1.4-3.2-2.3
			c-0.2-0.3-0.8-0.8-1.1-1.8c-0.6-1.8-0.1-4.5,1.9-5c0.8-0.2,1.7-0.1,2.4,0.3c0.9,0.5,1.5,1.6,1.4,2.7l0,1.8c0,0,5.5,0,5.5,0
			c0.1,0-0.1-3.1-0.1-3.4c-0.1-1.1-0.4-2.2-1-3.2c-1.4-2.1-4.1-3.1-6.4-3.2c-2.1-0.1-4.4,0.5-6.2,1.6c-1.2,0.8-2.1,2-2.6,3.3
			c-0.7,2-1,4.2-0.5,6.3c0.6,3.1,2.7,5.2,5.2,6.9c1.2,0.8,2.4,1.5,3.5,2.3c1,0.7,1.9,1.5,2.3,2.8c0.6,1.8,0.1,4.5-1.9,5
			c-0.8,0.2-1.7,0.1-2.4-0.3c-0.9-0.5-1.5-1.6-1.4-2.7l0-1.8c0,0-5.5,0-5.5,0c-0.1,0,0.1,3.1,0.1,3.4c0.1,1.1,0.4,2.2,1,3.2
			c1.4,2.1,4.1,3.1,6.4,3.2c2.1,0.1,4.4-0.5,6.2-1.6c1.2-0.8,2.1-2,2.6-3.3c0.7-2,1-4.2,0.5-6.3C30,32.6,29.6,31.6,29,30.6z"/>
		<path class="st1" d="M69.3,30.6c-0.6-0.9-1.2-1.7-2-2.4c-1.1-0.9-2.3-1.7-3.5-2.5c-1.1-0.7-2.3-1.4-3.2-2.3
			c-0.2-0.3-0.8-0.8-1.1-1.8c-0.6-1.8-0.1-4.5,1.9-5c0.8-0.2,1.7-0.1,2.4,0.3c0.9,0.5,1.5,1.6,1.4,2.7l0,1.8c0,0,5.5,0,5.5,0
			c0.1,0-0.1-3.1-0.1-3.4c-0.1-1.1-0.4-2.2-1-3.2c-1.4-2.1-4.1-3.1-6.4-3.2c-2.1-0.1-4.4,0.5-6.2,1.6c-1.2,0.8-2.1,2-2.6,3.3
			c-0.7,2-1,4.2-0.5,6.3c0.6,3.1,2.7,5.2,5.2,6.9c1.2,0.8,2.4,1.5,3.5,2.3c1,0.7,1.9,1.5,2.3,2.8c0.6,1.8,0.1,4.5-1.9,5
			c-0.8,0.2-1.7,0.1-2.4-0.3c-0.9-0.5-1.5-1.6-1.4-2.7l0-1.8c0,0-5.5,0-5.5,0c-0.1,0,0.1,3.1,0.1,3.4c0.1,1.1,0.4,2.2,1,3.2
			c1.4,2.1,4.1,3.1,6.4,3.2c2.1,0.1,4.4-0.5,6.2-1.6c1.2-0.8,2.1-2,2.6-3.3c0.7-2,1-4.2,0.5-6.3C70.3,32.6,69.9,31.6,69.3,30.6z"/>
		<g>
			<polygon class="st1" points="42.6,32.5 45.6,32.5 45.6,40.4 41.7,40.4 41.7,45.1 45.6,45.1 51.3,45.1 51.3,40.4 51.3,32.5 
				51.3,30.1 51.3,27.8 42.6,27.8 			"/>
			<path class="st1" d="M42.1,11.9L42.1,11.9c-5.2,0-9.3,4.2-9.3,9.3v14.6c0,5,4,9.1,9,9.3v-4.7c-1.8-0.2-3.2-1.7-3.2-3.5V20.2
				c0-2,1.6-3.5,3.5-3.5c1.9,0,3.5,1.6,3.5,3.5v2.1h5.8v-1C51.3,16.1,47.2,11.9,42.1,11.9z"/>
		</g>
		<rect x="70.6" y="8.7" class="st1" width="0.3" height="41.6"/>
		<rect x="8.6" y="44.8" class="st1" width="66.8" height="0.3"/>
		<rect x="40.1" y="40.4" class="st1" width="5.8" height="4.5"/>
	</g>
</g>
</svg>
