<?xml version="1.0" encoding="utf-8"?>
<!-- Generator: Adobe Illustrator 28.1.0, SVG Export Plug-In . SVG Version: 6.00 Build 0)  -->
<svg version="1.1" id="隔离模式" xmlns="http://www.w3.org/2000/svg" xmlns:xlink="http://www.w3.org/1999/xlink" x="0px"
	 y="0px" viewBox="0 0 84.1 61.9" style="enable-background:new 0 0 84.1 61.9;" xml:space="preserve">
<style type="text/css">
	.st0{fill:none;}
	.st1{fill:#FFFFFF;}
</style>
<g>
	<rect y="0" class="st0" width="84.1" height="61.9"/>
	<g>
		<path class="st1" d="M63.5,45.5c0,2.2,0,4.3,0,6.5c0,0.3-0.1,0.4-0.4,0.4c-1.3,0-2.5,0-3.8,0c-0.3,0-0.4-0.1-0.4-0.4
			c0-1.2,0-2.5,0-3.7c0-0.3,0-0.4-0.3-0.4c-3.3,0-6.7,0-10,0c-0.3,0-0.3,0.1-0.3,0.3c0,1.3,0,2.5,0,3.8c0,0.2,0,0.3-0.3,0.3
			c-1.3,0-2.6,0-3.9,0c-0.3,0-0.3-0.1-0.3-0.3c0-4.2,0-8.4,0-12.6c0-3.4,2.6-6.2,6-6.7c0.4-0.1,0.9-0.1,1.3-0.1c1.8,0,3.7,0,5.5,0
			c3.2,0,6.1,2.3,6.7,5.5c0.1,0.5,0.1,0.9,0.1,1.4C63.5,41.6,63.5,43.6,63.5,45.5z M53.7,43.5c1.7,0,3.3,0,5,0
			c0.3,0,0.4-0.1,0.4-0.4c0-1.1,0-2.3,0-3.4c0-1.2-0.9-2.5-2.4-2.5c-2,0-3.9,0-5.9,0c-1.4,0-2.5,1.2-2.4,2.5c0,1.1,0,2.3,0,3.4
			c0,0.3,0.1,0.4,0.4,0.4C50.4,43.5,52,43.5,53.7,43.5z"/>
		<path class="st1" d="M40.3,16.4c0,2,0,3.9,0,5.9c0,3.4-2.4,6.2-5.7,6.8c-0.4,0.1-0.7,0.1-1.1,0.1c-2,0-4,0-6.1,0
			c-3.3,0-6.1-2.3-6.8-5.6c-0.1-0.4-0.1-0.8-0.1-1.2c0-4.2,0-8.3,0-12.5c0-0.3,0.1-0.4,0.4-0.4c1.2,0,2.5,0,3.7,0
			c0.3,0,0.4,0.1,0.4,0.4c0,4,0,8.1,0,12.1c0,1.8,1.3,2.7,2.7,2.7c1.8,0,3.6,0,5.4,0c1.5,0,2.6-1.1,2.6-2.6c0-4.1,0-8.1,0-12.2
			c0-0.3,0.1-0.4,0.4-0.4c1.3,0,2.5,0,3.8,0c0.3,0,0.3,0.1,0.3,0.4C40.3,12,40.3,14.2,40.3,16.4z"/>
		<path class="st1" d="M33.4,52.4c-2,0-4.1,0-6.1,0c-3.2,0-6.1-2.5-6.6-5.6c-0.1-0.5-0.1-1.1-0.1-1.6c0-1.9,0-3.8,0-5.8
			c0.1-3,2.2-5.7,5.1-6.5c0.6-0.2,1.2-0.2,1.8-0.2c4.1,0,8.2,0,12.4,0c0.3,0,0.4,0.1,0.4,0.4c0,1.2,0,2.5,0,3.7
			c0,0.3-0.1,0.4-0.4,0.4c-4.1,0-8.2,0-12.3,0c-1.2,0-2.1,0.6-2.5,1.8c-0.1,0.3-0.1,0.5-0.1,0.8c0,1.8,0,3.7,0,5.5
			c0,1.2,0.6,2.1,1.7,2.5c0.3,0.1,0.6,0.1,0.9,0.1c4.1,0,8.1,0,12.2,0c0.3,0,0.4,0.1,0.4,0.4c0,1.3,0,2.5,0,3.8
			c0,0.3-0.1,0.3-0.3,0.3C37.8,52.4,35.6,52.4,33.4,52.4z"/>
		<path class="st1" d="M48.3,16.9c2.3-1.8,4.5-3.5,6.7-5.2c0.9-0.7,1.8-1.4,2.6-2.1c0.1-0.1,0.2-0.1,0.3-0.1c1.8,0,3.6,0,5.4,0
			c0,0,0.1,0,0.2,0c-4.2,3.3-8.3,6.5-12.4,9.8c4.1,3.3,8.2,6.5,12.4,9.8c-0.1,0.1-0.2,0.1-0.3,0.1c-1.7,0-3.4,0-5.1,0
			c-0.2,0-0.3,0-0.5-0.2c-3-2.4-5.9-4.7-8.9-7c-0.1-0.1-0.1-0.2-0.3-0.2c-0.1,0.1,0,0.2,0,0.4c0,2.2,0,4.4,0,6.7
			c0,0.3-0.1,0.4-0.3,0.3c-1.3,0-2.6,0-3.8,0c-0.2,0-0.3,0-0.3-0.3c0-6.4,0-12.7,0-19.1c0-0.2,0.1-0.3,0.3-0.3c1.3,0,2.6,0,3.9,0
			c0.3,0,0.3,0.1,0.3,0.3c0,2.2,0,4.4,0,6.6C48.3,16.6,48.3,16.7,48.3,16.9z"/>
	</g>
</g>
</svg>
