<svg xmlns="http://www.w3.org/2000/svg" xmlns:xlink="http://www.w3.org/1999/xlink" width="16.86mm" height="16.93mm" viewBox="0 0 47.8 48">
  <defs>
    <style>
      .cls-1 {
        fill: none;
      }

      .cls-2 {
        clip-path: url(#clip-path);
      }
    </style>
    <clipPath id="clip-path">
      <rect class="cls-1" width="47.8" height="48"/>
    </clipPath>
  </defs>
  <g class="cls-2">
    <path d="M14.93,43A21,21,0,0,1,3,26H0A24,24,0,0,0,23.9,48c.45,0,.88,0,1.32-.07L17.6,40.3Zm1.78-13a3,3,0,0,1-1.05-.17,2.35,2.35,0,0,1-.8-.47,2.09,2.09,0,0,1-.51-.73,2.42,2.42,0,0,1-.18-.94h-2.6a4.12,4.12,0,0,0,.42,1.9,4,4,0,0,0,1.12,1.37,4.92,4.92,0,0,0,1.63.83,6.24,6.24,0,0,0,1.94.29,6.91,6.91,0,0,0,2.07-.3,4.82,4.82,0,0,0,1.66-.89,4.13,4.13,0,0,0,1.1-1.44,4.65,4.65,0,0,0,.4-1.95,4.58,4.58,0,0,0-.14-1.12,3.87,3.87,0,0,0-.45-1,3.64,3.64,0,0,0-.81-.86,4.59,4.59,0,0,0-1.21-.63,4.26,4.26,0,0,0,1.05-.66,4.44,4.44,0,0,0,.75-.83,3.56,3.56,0,0,0,.45-.92,3.19,3.19,0,0,0,.15-.95,4.77,4.77,0,0,0-.36-1.92,3.71,3.71,0,0,0-1-1.38,4.43,4.43,0,0,0-1.58-.84A6.84,6.84,0,0,0,16.68,16a6.12,6.12,0,0,0-2,.32,4.73,4.73,0,0,0-1.57.89,4.12,4.12,0,0,0-1,1.35,3.88,3.88,0,0,0-.37,1.7h2.6a2.13,2.13,0,0,1,.18-.9,1.91,1.91,0,0,1,.5-.68,2.2,2.2,0,0,1,.76-.44,2.91,2.91,0,0,1,.95-.16,2.35,2.35,0,0,1,1.78.62,2.41,2.41,0,0,1,.58,1.73,2.7,2.7,0,0,1-.16,1,2,2,0,0,1-.49.75,2.39,2.39,0,0,1-.82.49,3.41,3.41,0,0,1-1.16.18H14.89v2.05h1.54a4.35,4.35,0,0,1,1.19.15,2.28,2.28,0,0,1,.9.47,2.15,2.15,0,0,1,.58.8,3,3,0,0,1,.2,1.14,2.39,2.39,0,0,1-.7,1.86,2.66,2.66,0,0,1-1.89.63M33.83,18.07a6.5,6.5,0,0,0-2.27-1.53A7.72,7.72,0,0,0,28.63,16H23.9V32h4.59a8.12,8.12,0,0,0,3-.54,6.52,6.52,0,0,0,2.32-1.53,6.7,6.7,0,0,0,1.48-2.39,8.88,8.88,0,0,0,.52-3.14v-.79a8.91,8.91,0,0,0-.53-3.14,6.93,6.93,0,0,0-1.47-2.4M33,24.41a7.82,7.82,0,0,1-.29,2.25,4.56,4.56,0,0,1-.85,1.69,3.76,3.76,0,0,1-1.42,1.06,5.08,5.08,0,0,1-2,.37H26.68V18.24h1.95a4,4,0,0,1,3.29,1.37,6.15,6.15,0,0,1,1.13,4v.82ZM23.9,0c-.45,0-.88,0-1.32.07L30.2,7.7,32.86,5A21,21,0,0,1,44.8,22h3A24,24,0,0,0,23.9,0"/>
  </g>
</svg>
