<?xml version="1.0" encoding="utf-8"?>
<!-- Generator: Adobe Illustrator 26.0.0, SVG Export Plug-In . SVG Version: 6.00 Build 0)  -->
<svg version="1.1" id="图层_1" xmlns="http://www.w3.org/2000/svg" xmlns:xlink="http://www.w3.org/1999/xlink" x="0px" y="0px"
	 viewBox="0 0 1920 1080" style="enable-background:new 0 0 1920 1080;" xml:space="preserve">
<style type="text/css">
	.st0{fill:#040000;}
</style>
<path class="st0" d="M940.5,249.4v98.1h24v-98.1l43.5,43.5l17-17l-72.5-72.4l-72.4,72.3l17,17L940.5,249.4z M825.3,475.5L781.8,432
	h74.3v-24h-74.3l43.4-43.4l-17-17L735.9,420l72.4,72.4L825.3,475.5z M1079.9,475.5l17,17l72.5-72.4l-72.4-72.4l-17,17l43.4,43.4
	h-74.9v24h74.9L1079.9,475.5z M1136.4,642.2c-15.3-9.6-33-14.7-51-14.7c-24.6,0-49.1,9.4-67.8,28.1l-17,17V444.1
	c0-26.4-21.6-48-48-48s-48,21.6-48,48v105.6c-9-11.2-22.6-17.7-36.9-17.8c-10,0-19.7,3.2-27.8,9.1l-103.4,59.9
	c-14.8,8.5-23.9,24.3-23.9,41.4v79c0,85.9,69.6,155.4,155.4,155.4c41.6,0,79.2-16.4,107.1-43l0,0.2l2.7-2.7l0.1-0.1l161.7-161.7
	c6.8-6.8,6.8-17.8,0.1-24.6C1138.6,643.7,1137.6,642.9,1136.4,642.2L1136.4,642.2z M958.5,816.2c-24.4,23.4-56.8,36.4-90.6,36.4
	c-72.5,0-131.4-58.9-131.4-131.4v-79c0-8.5,4.5-16.1,12-20.5l105.3-61.2c4-2.9,8.9-4.5,13.8-4.6c9.6,0,15.6,5.6,18.3,8.9l21.3,26.1
	c4.2,5.1,11.8,5.9,16.9,1.7c2.8-2.3,4.4-5.7,4.4-9.3V444.1c0-13.2,10.8-24,24-24s24,10.8,24,24v240c0,9.5,5.6,17.6,13.7,21.5
	c4.6,2.2,10,1.2,13.6-2.4l30.7-30.6c13.5-13.5,31.8-21.1,50.8-21.1c10.8,0,21.4,2.4,31.1,7L958.5,816.2L958.5,816.2z"/>
</svg>
