<svg id="图层_1" data-name="图层 1" xmlns="http://www.w3.org/2000/svg" xmlns:xlink="http://www.w3.org/1999/xlink" width="31.43mm" height="34.64mm" viewBox="0 0 89.09 98.2">
  <defs>
    <style>
      .cls-1 {
        fill: none;
      }

      .cls-2 {
        clip-path: url(#clip-path);
      }

      .cls-3 {
        fill: #32fa9a;
      }
    </style>
    <clipPath id="clip-path" transform="translate(0 0)">
      <rect class="cls-1" width="89.1" height="98.2"/>
    </clipPath>
  </defs>
  <g class="cls-2">
    <path class="cls-3" d="M85.34,12.36c-7.19-2.09-23.63-7-39.15-12.1a5.25,5.25,0,0,0-3.28,0c-15.53,5.14-32,10-39.16,12.1a5.24,5.24,0,0,0-3.75,5V57.21c0,22.91,32.83,36.3,44.55,41,11.72-4.69,44.54-18.08,44.54-41V17.38a5.22,5.22,0,0,0-3.75-5M63.54,40.29,41,62.87a3.6,3.6,0,0,1-2.49,1,3.5,3.5,0,0,1-2.48-1L25.56,52.45a3.52,3.52,0,0,1,5-5l7.94,7.95,20.1-20.09a3.52,3.52,0,0,1,5.88,1.57,3.53,3.53,0,0,1-.91,3.4" transform="translate(0 0)"/>
  </g>
</svg>
