<?xml version="1.0" encoding="utf-8"?>
<!-- Generator: Adobe Illustrator 28.0.0, SVG Export Plug-In . SVG Version: 6.00 Build 0)  -->
<svg version="1.1" id="图层_1" xmlns="http://www.w3.org/2000/svg" xmlns:xlink="http://www.w3.org/1999/xlink" x="0px" y="0px"
	 viewBox="0 0 52 33" style="enable-background:new 0 0 52 33;" xml:space="preserve">
<style type="text/css">
	.st0{fill:#FFFFFF;}
</style>
<g>
	<path class="st0" d="M15.9,18c-0.4-0.7-1-1.3-1.6-1.8c-0.8-0.7-1.8-1.3-2.7-1.9c-0.8-0.5-1.8-1.1-2.5-1.8c-0.2-0.2-0.6-0.6-0.8-1.4
		C7.9,9.8,8.3,7.7,9.9,7.3c0.6-0.2,1.3-0.1,1.9,0.2c0.7,0.4,1.1,1.3,1.1,2.1l0,1.4h4.3c0.1,0-0.1-2.4-0.1-2.6
		c-0.1-0.8-0.3-1.7-0.8-2.4c-1.1-1.6-3.1-2.4-5-2.5C9.5,3.5,7.8,4,6.4,4.8c-0.9,0.6-1.6,1.5-2,2.6C3.9,8.9,3.7,10.7,4,12.2
		c0.5,2.4,2.1,4.1,4,5.3c0.9,0.6,1.9,1.1,2.7,1.8c0.8,0.6,1.5,1.2,1.8,2.1c0.4,1.4,0.1,3.5-1.5,3.9c-0.6,0.2-1.3,0.1-1.9-0.2
		c-0.7-0.4-1.1-1.2-1.1-2.1l0-1.4H3.9C3.8,21.6,4,24,4,24.2c0.1,0.9,0.3,1.7,0.8,2.4c1.1,1.6,3.1,2.4,5,2.5c1.6,0.1,3.4-0.4,4.8-1.3
		c0.9-0.6,1.6-1.5,2-2.5c0.5-1.5,0.7-3.3,0.4-4.8C16.8,19.6,16.4,18.8,15.9,18z"/>
	<path class="st0" d="M47,18c-0.4-0.7-1-1.3-1.6-1.8c-0.8-0.7-1.8-1.3-2.7-1.9c-0.8-0.5-1.8-1.1-2.5-1.8c-0.2-0.2-0.6-0.6-0.8-1.4
		c-0.4-1.4-0.1-3.4,1.5-3.9c0.6-0.2,1.3-0.1,1.9,0.2c0.7,0.4,1.2,1.2,1.1,2.1l0,1.4h4.3c0.1,0-0.1-2.4-0.1-2.6
		c-0.1-0.8-0.3-1.7-0.8-2.4c-1-1.6-3.1-2.4-5-2.5c-1.6-0.1-3.4,0.4-4.8,1.3c-0.9,0.6-1.6,1.5-2,2.6c-0.5,1.5-0.7,3.3-0.4,4.8
		c0.5,2.4,2.1,4.1,4,5.3c0.9,0.6,1.8,1.1,2.7,1.8c0.8,0.6,1.5,1.2,1.8,2.1c0.4,1.4,0.1,3.5-1.5,3.9c-0.6,0.2-1.3,0.1-1.9-0.2
		c-0.7-0.4-1.2-1.2-1.1-2.1l0-1.4h-4.3c-0.1,0,0.1,2.4,0.1,2.6c0.1,0.9,0.3,1.7,0.8,2.4c1,1.6,3.1,2.4,5,2.5
		c1.6,0.1,3.4-0.4,4.8-1.3c0.9-0.6,1.6-1.5,2-2.5c0.5-1.5,0.7-3.3,0.4-4.8C47.8,19.6,47.5,18.8,47,18z"/>
	<g>
		<polygon class="st0" points="26.4,19.5 28.7,19.5 28.7,25.5 25.7,25.5 25.7,29.2 28.7,29.2 33.2,29.2 33.2,25.5 33.2,19.5 
			33.2,17.6 33.2,15.8 26.4,15.8 		"/>
		<path class="st0" d="M26,3.6L26,3.6c-4,0-7.2,3.2-7.2,7.2V22c0,3.9,3.1,7.1,6.9,7.2v-3.3v-0.3c-1.4-0.1-2.5-1.3-2.5-2.7V10
			c0-1.5,1.2-2.7,2.7-2.7s2.7,1.2,2.7,2.7v1.6h4.5v-0.8C33.2,6.8,30,3.6,26,3.6z"/>
	</g>
	<rect x="48" y="1.1" class="st0" width="0.2" height="30.9"/>
	<rect x="0.9" y="29.1" class="st0" width="50.1" height="0.2"/>
</g>
<polygon class="st0" points="26,25.7 25.7,25.5 25.7,25.5 25.4,25.5 25.2,26.3 25.3,27.1 25.3,28.6 25.3,29.1 25.7,29.1 26.2,29.2 
	26.5,29.1 26.6,26.9 26.5,26.3 26.3,25.9 "/>
</svg>
