<svg width="40" height="45" viewBox="0 0 40 45" fill="none" xmlns="http://www.w3.org/2000/svg">
<path d="M8.43628 39.2048C8.6612 39.3814 8.89048 39.5518 9.12413 39.7201C8.89048 39.5539 8.6612 39.3835 8.43628 39.2048Z" fill="#FBFAF4"/>
<path d="M37.5306 30.4656C35.8884 36.1211 31.294 40.6235 25.4309 42.3709C31.2853 40.6173 35.8819 36.1066 37.5306 30.4656Z" fill="#FBFAF4"/>
<path d="M37.1476 20.0806C36.9554 19.5653 36.737 19.0583 36.4968 18.5659C36.7392 19.0583 36.9554 19.5653 37.1476 20.0806Z" fill="#FBFAF4"/>
<path d="M40 25.8551C40 36.5325 30.7107 45.182 19.419 44.8766C8.90035 44.5919 0.349141 36.4909 0.0106745 26.4826C-0.325609 16.5885 7.32375 8.29424 17.2812 7.0019V8.74303C8.53786 9.99381 1.81219 17.191 1.81219 25.8551C1.81219 29.73 3.15951 33.3141 5.43051 36.2021C5.60521 36.4224 5.78427 36.6426 5.97206 36.8566C6.71232 37.7105 7.53993 38.498 8.43959 39.2044C8.66451 39.381 8.89379 39.5514 9.12745 39.7197C12.1627 41.8805 15.9295 43.1625 20.0021 43.1625C20.1549 43.1625 20.3078 43.1625 20.4584 43.1562H20.4847C20.5633 43.1562 20.6419 43.1521 20.7205 43.15C20.7816 43.1479 20.845 43.1458 20.9039 43.1417C20.9258 43.1417 20.9454 43.1417 20.9672 43.1396C21.0895 43.1334 21.2096 43.1271 21.3319 43.1188C21.3756 43.1168 21.4171 43.1126 21.4607 43.1084C21.5677 43.1022 21.6726 43.0918 21.7796 43.0835C21.8254 43.0794 21.8691 43.0752 21.9149 43.071C22.0394 43.0586 22.1617 43.0461 22.284 43.0295C22.3015 43.0295 22.3167 43.0274 22.3298 43.0233C22.4543 43.0087 22.581 42.9921 22.7054 42.9734C22.7426 42.9692 22.7753 42.963 22.8102 42.9568C22.8867 42.9464 22.9609 42.936 23.0352 42.9215C23.1356 42.9048 23.2382 42.8882 23.3365 42.8695C23.3409 42.8695 23.3452 42.8695 23.3496 42.8695C23.4806 42.8467 23.6116 42.8217 23.7383 42.7947C23.7776 42.7885 23.8147 42.7802 23.854 42.7719C23.961 42.7511 24.0658 42.7282 24.1728 42.7033C24.2012 42.6971 24.2296 42.6908 24.258 42.6825C24.3672 42.6576 24.4807 42.6327 24.5899 42.6056C24.7755 42.5579 24.959 42.5101 25.1424 42.4581C25.2385 42.4332 25.3346 42.4041 25.4285 42.3771C31.2828 40.6235 35.8794 36.1128 37.5281 30.4718C37.5652 30.3388 37.6023 30.2079 37.6373 30.0749C37.6722 29.942 37.705 29.8111 37.7377 29.676C37.7705 29.543 37.7989 29.408 37.8273 29.2729C37.8556 29.1379 37.884 29.0049 37.9081 28.8699C37.9081 28.8615 37.9081 28.8532 37.9124 28.8429C37.9343 28.714 37.9583 28.5873 37.9779 28.4585C37.9998 28.3213 38.0194 28.1863 38.0391 28.0471C38.0696 27.8268 38.0937 27.6066 38.1133 27.3843C38.1199 27.3199 38.1264 27.2555 38.1308 27.189C38.1439 27.0436 38.1526 26.8981 38.1592 26.7485C38.1657 26.6239 38.1723 26.495 38.1766 26.3683C38.1766 26.3475 38.1766 26.3247 38.1766 26.3039C38.1788 26.1543 38.1832 26.0068 38.1832 25.8593C38.1832 23.8356 37.8163 21.8908 37.1416 20.0853C36.9494 19.57 36.7311 19.063 36.4909 18.5706C35.7659 17.0934 34.8291 15.7283 33.7154 14.5128C33.532 14.3113 33.342 14.1118 33.1455 13.9165C33.0494 13.821 32.949 13.7233 32.8485 13.6298C32.7983 13.582 32.7481 13.5322 32.6935 13.4885C31.6344 12.5016 30.4509 11.6373 29.1647 10.9205C28.9201 10.7833 28.6712 10.6524 28.4179 10.5278C26.1491 9.39335 23.6007 8.70355 20.8974 8.57681V22.7074C20.8974 23.2725 20.7183 23.8085 20.4039 24.2594C20.0872 24.7082 19.633 25.0718 19.0849 25.2858V1.7245H10.9421V0H29.0599V1.7245H20.8974V6.84607C31.5078 7.29902 39.9913 15.6514 39.9913 25.8551H40Z" fill="#FBFAF4"/>
<path d="M27.8836 32.1389L26.6018 33.3585L19.7866 26.8719H19.7888C20.885 26.4397 22.145 26.6787 22.9813 27.4744L27.8814 32.1368L27.8836 32.1389Z" fill="#FBFAF4"/>
</svg>
