<svg width="40" height="39" viewBox="0 0 40 39" fill="none" xmlns="http://www.w3.org/2000/svg">
<path d="M27.4076 0C19.8809 5.39764 13.6084 18.8908 13.6084 25.6374C13.6084 31.035 16.4165 33.7329 19.8809 33.7329C23.3454 33.7329 26.1535 31.035 26.1535 26.9863C26.1535 20.2398 19.8809 13.4932 27.4076 0ZM23.7054 21.446C24.2516 23.4954 24.7236 25.2668 24.7236 26.9863C24.7236 28.5095 24.2395 29.8195 23.323 30.7719C22.4409 31.691 21.2178 32.195 19.8809 32.195C18.5441 32.195 17.3416 31.6706 16.5061 30.6774C15.5465 29.536 15.0383 27.7942 15.0383 25.6374C15.0383 22.5652 16.5319 17.7438 18.9386 13.0559C20.2134 10.5711 21.6554 8.28824 23.1714 6.32967C22.6236 8.28824 22.329 10.2135 22.2825 12.1275C22.1912 15.7667 22.9974 18.7852 23.7072 21.4479L23.7054 21.446Z" fill="#FBFAF4"/>
<path d="M9.25979 23.5456L8.75675 24.0106C8.0108 24.7018 7.05811 25.0816 6.0727 25.0816H0V23.5437H9.26151L9.25979 23.5456Z" fill="#FBFAF4"/>
<path d="M39.9999 25.0811H31.3793C31.4361 25.5814 31.4637 26.0854 31.4637 26.5913C31.4637 33.3916 26.3195 38.9245 19.9988 38.9245C14.3705 38.9245 9.76217 34.5589 8.74058 28.976C8.45633 27.4232 8.98522 25.8279 10.0998 24.7958C10.0068 25.3869 9.96029 25.9891 9.96029 26.5931C9.96029 32.5448 14.4636 37.3884 19.9988 37.3884C25.534 37.3884 30.0338 32.5448 30.0338 26.5931C30.0338 25.876 29.97 25.1589 29.8391 24.4659L29.6686 23.5469H39.9982V25.0848L39.9999 25.0811Z" fill="#FBFAF4"/>
</svg>
