<svg width="42" height="32" viewBox="0 0 42 32" fill="none" xmlns="http://www.w3.org/2000/svg">
<g clip-path="url(#clip0_401_625)">
<path d="M38.283 18.4902C38.1756 18.6315 38.0681 18.7728 37.9587 18.9162C34.2838 23.7434 29.7111 29.7515 21.4676 29.7515C14.1625 29.7515 10.4553 25.0762 6.87166 20.5527C5.44267 18.7496 4.08057 17.033 2.53605 15.6686C3.72384 14.3611 4.81838 12.9418 5.88251 11.5626C9.77827 6.51612 13.4551 1.75011 21.4676 1.75011C29.48 1.75011 33.1548 6.51612 37.0506 11.5626C37.4377 12.0666 37.8289 12.5728 38.2283 13.0768C39.1282 14.2177 40.4741 14.8756 41.8929 14.8756H41.9983C40.7112 13.5133 39.5194 11.9675 38.362 10.4681C34.3913 5.32251 30.2847 -0.000244141 21.4676 -0.000244141C12.6504 -0.000244141 8.54387 5.32251 4.57109 10.4681C3.34277 12.0603 2.07189 13.7073 0.693576 15.1287L0.000366211 15.8436L0.782761 16.451C2.48335 17.7669 3.98328 19.6606 5.57239 21.664C9.22695 26.274 13.368 31.4998 21.4655 31.4998C30.5219 31.4998 35.5811 24.8547 39.2741 20.0023C40.2309 18.7475 41.1389 17.556 41.9983 16.626C40.5511 16.626 39.1809 17.3114 38.281 18.4902H38.283Z" fill="#FBFAF4"/>
<path d="M28.1827 15.1964C27.9273 11.7674 25.2639 9.00904 21.9681 8.76019C18.3156 8.48393 15.2184 11.2571 14.7847 14.8759C15.2326 14.8759 15.6664 14.7451 16.0333 14.5068C16.4022 14.2685 16.7042 13.9248 16.8988 13.503C17.7095 11.7231 19.4527 10.4916 21.4695 10.4916C24.2565 10.4916 26.5226 12.8514 26.5226 15.7511C26.5226 18.6507 24.2545 21.0105 21.4695 21.0105C19.4547 21.0105 17.7116 19.779 16.8988 17.9991C16.5136 17.1534 15.6846 16.6262 14.7847 16.6262C14.9914 18.3534 15.8042 19.8865 16.996 20.9895C18.1859 22.0903 19.7527 22.7609 21.4675 22.7609C25.3571 22.7609 28.4867 19.3108 28.1827 15.1985V15.1964Z" fill="#FBFAF4"/>
</g>
<defs>
<clipPath id="clip0_401_625">
<rect width="42" height="31.5" fill="white"/>
</clipPath>
</defs>
</svg>
