<svg width="195" height="104" viewBox="0 0 195 104" fill="none" xmlns="http://www.w3.org/2000/svg">
<path d="M75.2919 55.6656C74.0603 53.7225 72.5003 51.9435 70.7488 50.3835C68.3403 48.2488 65.6309 46.5246 62.894 44.8825C60.4582 43.4319 57.7214 41.8445 55.7509 39.7372C55.2035 39.1624 53.9993 37.8488 53.3425 35.7414C52.0835 31.6909 53.0688 25.7246 57.6393 24.5203C59.4457 24.0277 61.4709 24.2193 63.113 25.1498C65.2204 26.354 66.4519 28.7898 66.2056 31.2256V35.3583H78.5488C78.7403 35.3583 78.3025 28.5161 78.2204 27.8593C77.8919 25.3688 77.2625 22.9056 75.894 20.7982C72.8288 16.1182 66.8077 13.8466 61.4709 13.6824C56.7088 13.5182 51.5909 14.8319 47.513 17.3498C44.7761 19.0467 42.8877 21.7288 41.793 24.7667C40.233 29.1456 39.6583 34.2635 40.5888 38.834C41.9846 45.7309 46.6099 50.5751 52.2478 54.3246C54.8751 56.0761 57.6119 57.6635 60.1572 59.5245C62.4561 61.194 64.5088 62.9182 65.412 65.7645C66.6709 69.8151 65.6856 75.7814 61.1151 76.9856C59.3088 77.4782 57.2835 77.2867 55.6414 76.3561C53.534 75.1519 52.3025 72.7161 52.5488 70.2803V66.1477H40.2056C40.014 66.1477 40.452 72.9898 40.5341 73.6466C40.8625 76.1372 41.4919 78.6003 42.8603 80.7077C45.9256 85.3877 51.9467 87.6593 57.2835 87.8235C62.0456 87.9877 67.1636 86.674 71.2414 84.1561C73.9783 82.4593 75.8667 79.7772 76.9614 76.7393C78.5214 72.3603 79.0962 67.2425 78.1657 62.6719C77.6457 60.1267 76.6604 57.773 75.3193 55.6656H75.2919Z" fill="#190A0A"/>
<path d="M165.445 55.6656C164.214 53.7225 162.654 51.9435 160.902 50.3835C158.494 48.2488 155.784 46.5246 153.047 44.8825C150.612 43.4319 147.875 41.8445 145.904 39.7372C145.357 39.1624 144.153 37.8488 143.496 35.7414C142.237 31.6909 143.222 25.7246 147.793 24.5203C149.599 24.0277 151.624 24.2193 153.266 25.1498C155.374 26.354 156.605 28.7898 156.359 31.2256V35.3583H168.702C168.894 35.3583 168.456 28.5161 168.374 27.8593C168.045 25.3688 167.416 22.9056 166.047 20.7982C162.982 16.1182 156.961 13.8466 151.624 13.6824C146.862 13.5182 141.744 14.8319 137.666 17.3498C134.929 19.0467 133.041 21.7288 131.946 24.7667C130.386 29.1456 129.812 34.2635 130.742 38.834C132.138 45.7309 136.763 50.5751 142.401 54.3246C145.028 56.0761 147.765 57.6635 150.311 59.5245C152.609 61.194 154.662 62.9182 155.565 65.7645C156.824 69.8151 155.839 75.7814 151.268 76.9856C149.462 77.4782 147.437 77.2867 145.795 76.3561C143.687 75.1519 142.456 72.7161 142.702 70.2803V66.1477H130.359C130.167 66.1477 130.605 72.9898 130.687 73.6466C131.016 76.1372 131.645 78.6003 133.014 80.7077C136.079 85.3877 142.1 87.6593 147.437 87.8235C152.199 87.9877 157.317 86.674 161.395 84.1561C164.132 82.4593 166.02 79.7772 167.115 76.7393C168.675 72.3603 169.25 67.2425 168.319 62.6719C167.799 60.1267 166.814 57.773 165.473 55.6656H165.445Z" fill="#190A0A"/>
<path d="M105.668 60.4829H112.346V77.8892H103.67V88.4261H112.346H125.291V77.8892V60.4829V55.2282V49.946H105.668V60.4829Z" fill="#190A0A"/>
<path d="M104.496 14.4497H104.387C92.9195 14.4497 83.6143 23.755 83.6143 35.2224V67.6539C83.6143 78.875 92.5364 88.016 103.648 88.3992V77.835C99.6522 77.4518 96.5322 74.0855 96.5322 69.9803V32.8413C96.5322 28.4897 100.063 24.9592 104.414 24.9592C108.766 24.9592 112.296 28.4897 112.296 32.8413V37.5213H125.242V35.195C125.242 23.7276 115.936 14.4224 104.469 14.4224L104.496 14.4497Z" fill="#190A0A"/>
<path d="M169.024 0H168.449V104H169.024V0Z" fill="#190A0A"/>
<path d="M194.261 87.4424H0V88.2087H194.261V87.4424Z" fill="#190A0A"/>
</svg>
