<svg width="70" height="50" viewBox="0 0 70 50" fill="none" xmlns="http://www.w3.org/2000/svg">
<mask id="path-1-inside-1_5378_1719" fill="white">
<path fill-rule="evenodd" clip-rule="evenodd" d="M11.6784 42.0712C11.2106 42.0712 10.832 41.6942 10.832 41.2284V14.7894C10.832 12.7789 11.1044 9.89178 12.4001 7.56403C13.6834 5.25773 15.7377 3.95976 18.3552 3.79273C18.3668 3.77414 18.3778 3.75504 18.3886 3.73632L18.3886 3.7363C18.3966 3.72261 18.4044 3.70912 18.4121 3.69618L18.4124 3.69572C19.0142 2.68866 20.4242 0.329397 25.6122 0.0214262C28.956 -0.177789 32.3521 1.0175 35.1743 3.3851C38.0912 5.83229 39.935 9.26489 40.3848 12.9959C40.8771 13.3705 43.7026 15.5025 47.0752 17.6167C47.266 17.7362 47.4014 17.9278 47.4507 18.1469C47.4999 18.3661 47.4584 18.5959 47.3368 18.7859C44.5116 23.1549 42.5942 33.9049 42.5758 34.0137C42.5281 34.288 42.3449 34.5209 42.091 34.6358C42.0387 34.6588 36.7483 37.1076 33.3861 43.0335C33.2306 43.3078 32.9429 43.4611 32.649 43.4611H32.6444C32.5028 43.4611 32.3597 43.4258 32.2289 43.3523C31.8226 43.1239 31.678 42.609 31.9088 42.2045C32.1216 41.8295 32.3411 41.4676 32.5657 41.1186C29.9668 39.6846 29.7234 35.293 29.6142 32.7239C27.8239 33.9892 26.0245 34.7879 25.2558 34.7879L25.2574 34.7894C24.443 34.7894 22.9988 34.088 21.7338 33.2925L21.7396 33.4576C21.7857 34.8138 21.8334 36.2159 21.4657 37.5415C21.2779 38.2173 21.061 38.841 20.7994 39.4494C20.2962 40.6232 18.8682 42.2047 17.2617 42.2047V42.2062C17.134 42.2062 17.0047 42.1955 16.8739 42.174C16.4123 42.0989 16.0999 41.6652 16.1753 41.2055C16.2507 40.7458 16.6862 40.4347 17.1478 40.5098C17.8326 40.6201 18.8713 39.6562 19.2421 38.7873C19.4729 38.2479 19.6668 37.6932 19.833 37.091C20.1314 36.0141 20.0885 34.7443 20.047 33.5158L20.0469 33.5143L20.0442 33.43C20.0311 33.0288 20.0177 32.6159 20.0177 32.2178C20.0177 32.1708 20.0215 32.1246 20.029 32.0796C18.805 31.0953 17.2652 29.5835 16.5863 27.7985C16.5465 27.6938 16.5088 27.5848 16.4732 27.4716C16.4623 27.4718 16.4513 27.4719 16.4402 27.4719L16.4418 27.4734C14.9892 27.4734 13.7766 26.3302 13.712 24.8714L13.6042 22.4425C13.5415 21.021 14.5903 19.8008 15.984 19.6226C16.0768 17.8754 16.2262 16.5561 16.2416 16.4248C16.2954 15.962 16.714 15.631 17.1787 15.6831C17.5301 15.7237 17.8058 15.9719 17.8968 16.2906C19.0342 15.4897 20.704 14.009 21.5406 11.7998C21.5544 11.7634 21.5704 11.7284 21.5885 11.6951C21.2682 11.1189 20.962 10.5082 20.6727 9.86109C20.4834 9.43661 20.6742 8.93704 21.102 8.74855C21.5283 8.56006 22.0299 8.75008 22.2192 9.1761C24.4781 14.23 28.0558 17.5278 32.8553 18.9821C35.4945 19.7821 37.7731 19.7747 38.7997 19.7145V14.7894C38.7997 10.8756 37.0808 7.18858 34.0833 4.6754C31.595 2.58671 28.6221 1.5324 25.7122 1.70556C21.419 1.95995 20.3695 3.71611 19.8663 4.56047L19.8641 4.56413C19.6275 4.95888 19.3336 5.44933 18.7307 5.4646C13.331 5.61018 12.5247 11.3706 12.5247 14.7909V41.2314C12.5247 41.6973 12.1462 42.0743 11.6784 42.0743V42.0712ZM33.5425 39.7186C35.3279 37.3521 37.2931 35.6961 38.8113 34.6321C38.8037 34.5865 38.7997 34.5396 38.7997 34.4918V21.4043C38.5593 21.417 38.2714 21.4263 37.9426 21.4263L37.9411 21.4248C37.5834 21.4248 37.177 21.4139 36.7303 21.3848C36.8519 21.7135 36.9111 22.0709 36.8943 22.4422L36.7866 24.8711C36.722 26.3299 35.5094 27.4731 34.0568 27.4731L34.0541 27.4731C33.5868 28.9825 32.4 30.4201 31.0287 31.6151C31.1783 31.7593 31.2753 31.958 31.2857 32.1812L31.298 32.4769L31.2984 32.4855C31.3876 34.5785 31.5692 38.8383 33.5425 39.7186ZM40.4924 33.5671C40.6831 33.4594 40.8481 33.371 40.9831 33.3011C41.3555 31.3151 43.0051 23.043 45.4764 18.6021C43.4184 17.2827 41.6165 16.0026 40.4924 15.1807V33.5671ZM34.4119 25.7242C34.6627 23.9882 34.6322 22.387 34.565 21.3656C34.9563 21.5286 35.2236 21.9222 35.2032 22.3671L35.0955 24.796C35.0757 25.2269 34.7945 25.5847 34.4119 25.7242ZM15.9191 21.3702C15.5357 21.5366 15.2748 21.9256 15.2938 22.3658L15.4016 24.7947C15.4217 25.2329 15.7136 25.596 16.1076 25.73C15.9263 24.3835 15.8901 22.8238 15.9191 21.3702ZM18.1697 27.2008C17.4374 25.2769 17.5579 21.081 17.7612 18.369C18.6576 17.8794 21.1859 16.3046 22.6634 13.4305C25.6367 17.7476 29.4356 19.7072 32.3629 20.5942C32.5135 20.6398 32.663 20.683 32.8112 20.724C32.8997 21.532 33.1115 24.1556 32.499 26.7534C31.7526 29.924 26.2915 33.0716 25.2605 33.1038C24.9696 33.093 23.5678 32.5659 21.8259 31.3231C19.9778 30.0037 18.679 28.5402 18.1697 27.2008ZM53.3424 33.2214C53.244 33.2214 53.1439 33.2046 53.047 33.1678C52.6084 33.0053 52.3868 32.5196 52.55 32.0843C55.8676 23.2147 54.9274 14.4124 54.7058 12.7421L51.205 9.55769C50.8604 9.24354 50.8357 8.71025 51.1512 8.36699C51.4666 8.02373 52.0021 7.99921 52.3468 8.31336L56.0723 11.7015C56.2123 11.8287 56.3062 12.0004 56.3369 12.1873C56.4046 12.6011 57.9604 22.4531 54.1365 32.6728C54.0103 33.0115 53.6871 33.2214 53.344 33.2214H53.3424ZM39.3658 46.0265C39.4596 46.0602 39.5551 46.0755 39.6505 46.0755L39.652 46.077C39.9998 46.077 40.326 45.8625 40.4491 45.5177C40.4553 45.4993 41.1431 43.6282 42.8281 42.6889C43.2359 42.4605 43.3805 41.9472 43.1528 41.5411C42.9235 41.135 42.408 40.9909 42.0002 41.2177C39.7689 42.4621 38.8918 44.848 38.8549 44.9492C38.6964 45.3875 38.9257 45.8702 39.3658 46.0265Z"/>
</mask>
<path fill-rule="evenodd" clip-rule="evenodd" d="M11.6784 42.0712C11.2106 42.0712 10.832 41.6942 10.832 41.2284V14.7894C10.832 12.7789 11.1044 9.89178 12.4001 7.56403C13.6834 5.25773 15.7377 3.95976 18.3552 3.79273C18.3668 3.77414 18.3778 3.75504 18.3886 3.73632L18.3886 3.7363C18.3966 3.72261 18.4044 3.70912 18.4121 3.69618L18.4124 3.69572C19.0142 2.68866 20.4242 0.329397 25.6122 0.0214262C28.956 -0.177789 32.3521 1.0175 35.1743 3.3851C38.0912 5.83229 39.935 9.26489 40.3848 12.9959C40.8771 13.3705 43.7026 15.5025 47.0752 17.6167C47.266 17.7362 47.4014 17.9278 47.4507 18.1469C47.4999 18.3661 47.4584 18.5959 47.3368 18.7859C44.5116 23.1549 42.5942 33.9049 42.5758 34.0137C42.5281 34.288 42.3449 34.5209 42.091 34.6358C42.0387 34.6588 36.7483 37.1076 33.3861 43.0335C33.2306 43.3078 32.9429 43.4611 32.649 43.4611H32.6444C32.5028 43.4611 32.3597 43.4258 32.2289 43.3523C31.8226 43.1239 31.678 42.609 31.9088 42.2045C32.1216 41.8295 32.3411 41.4676 32.5657 41.1186C29.9668 39.6846 29.7234 35.293 29.6142 32.7239C27.8239 33.9892 26.0245 34.7879 25.2558 34.7879L25.2574 34.7894C24.443 34.7894 22.9988 34.088 21.7338 33.2925L21.7396 33.4576C21.7857 34.8138 21.8334 36.2159 21.4657 37.5415C21.2779 38.2173 21.061 38.841 20.7994 39.4494C20.2962 40.6232 18.8682 42.2047 17.2617 42.2047V42.2062C17.134 42.2062 17.0047 42.1955 16.8739 42.174C16.4123 42.0989 16.0999 41.6652 16.1753 41.2055C16.2507 40.7458 16.6862 40.4347 17.1478 40.5098C17.8326 40.6201 18.8713 39.6562 19.2421 38.7873C19.4729 38.2479 19.6668 37.6932 19.833 37.091C20.1314 36.0141 20.0885 34.7443 20.047 33.5158L20.0469 33.5143L20.0442 33.43C20.0311 33.0288 20.0177 32.6159 20.0177 32.2178C20.0177 32.1708 20.0215 32.1246 20.029 32.0796C18.805 31.0953 17.2652 29.5835 16.5863 27.7985C16.5465 27.6938 16.5088 27.5848 16.4732 27.4716C16.4623 27.4718 16.4513 27.4719 16.4402 27.4719L16.4418 27.4734C14.9892 27.4734 13.7766 26.3302 13.712 24.8714L13.6042 22.4425C13.5415 21.021 14.5903 19.8008 15.984 19.6226C16.0768 17.8754 16.2262 16.5561 16.2416 16.4248C16.2954 15.962 16.714 15.631 17.1787 15.6831C17.5301 15.7237 17.8058 15.9719 17.8968 16.2906C19.0342 15.4897 20.704 14.009 21.5406 11.7998C21.5544 11.7634 21.5704 11.7284 21.5885 11.6951C21.2682 11.1189 20.962 10.5082 20.6727 9.86109C20.4834 9.43661 20.6742 8.93704 21.102 8.74855C21.5283 8.56006 22.0299 8.75008 22.2192 9.1761C24.4781 14.23 28.0558 17.5278 32.8553 18.9821C35.4945 19.7821 37.7731 19.7747 38.7997 19.7145V14.7894C38.7997 10.8756 37.0808 7.18858 34.0833 4.6754C31.595 2.58671 28.6221 1.5324 25.7122 1.70556C21.419 1.95995 20.3695 3.71611 19.8663 4.56047L19.8641 4.56413C19.6275 4.95888 19.3336 5.44933 18.7307 5.4646C13.331 5.61018 12.5247 11.3706 12.5247 14.7909V41.2314C12.5247 41.6973 12.1462 42.0743 11.6784 42.0743V42.0712ZM33.5425 39.7186C35.3279 37.3521 37.2931 35.6961 38.8113 34.6321C38.8037 34.5865 38.7997 34.5396 38.7997 34.4918V21.4043C38.5593 21.417 38.2714 21.4263 37.9426 21.4263L37.9411 21.4248C37.5834 21.4248 37.177 21.4139 36.7303 21.3848C36.8519 21.7135 36.9111 22.0709 36.8943 22.4422L36.7866 24.8711C36.722 26.3299 35.5094 27.4731 34.0568 27.4731L34.0541 27.4731C33.5868 28.9825 32.4 30.4201 31.0287 31.6151C31.1783 31.7593 31.2753 31.958 31.2857 32.1812L31.298 32.4769L31.2984 32.4855C31.3876 34.5785 31.5692 38.8383 33.5425 39.7186ZM40.4924 33.5671C40.6831 33.4594 40.8481 33.371 40.9831 33.3011C41.3555 31.3151 43.0051 23.043 45.4764 18.6021C43.4184 17.2827 41.6165 16.0026 40.4924 15.1807V33.5671ZM34.4119 25.7242C34.6627 23.9882 34.6322 22.387 34.565 21.3656C34.9563 21.5286 35.2236 21.9222 35.2032 22.3671L35.0955 24.796C35.0757 25.2269 34.7945 25.5847 34.4119 25.7242ZM15.9191 21.3702C15.5357 21.5366 15.2748 21.9256 15.2938 22.3658L15.4016 24.7947C15.4217 25.2329 15.7136 25.596 16.1076 25.73C15.9263 24.3835 15.8901 22.8238 15.9191 21.3702ZM18.1697 27.2008C17.4374 25.2769 17.5579 21.081 17.7612 18.369C18.6576 17.8794 21.1859 16.3046 22.6634 13.4305C25.6367 17.7476 29.4356 19.7072 32.3629 20.5942C32.5135 20.6398 32.663 20.683 32.8112 20.724C32.8997 21.532 33.1115 24.1556 32.499 26.7534C31.7526 29.924 26.2915 33.0716 25.2605 33.1038C24.9696 33.093 23.5678 32.5659 21.8259 31.3231C19.9778 30.0037 18.679 28.5402 18.1697 27.2008ZM53.3424 33.2214C53.244 33.2214 53.1439 33.2046 53.047 33.1678C52.6084 33.0053 52.3868 32.5196 52.55 32.0843C55.8676 23.2147 54.9274 14.4124 54.7058 12.7421L51.205 9.55769C50.8604 9.24354 50.8357 8.71025 51.1512 8.36699C51.4666 8.02373 52.0021 7.99921 52.3468 8.31336L56.0723 11.7015C56.2123 11.8287 56.3062 12.0004 56.3369 12.1873C56.4046 12.6011 57.9604 22.4531 54.1365 32.6728C54.0103 33.0115 53.6871 33.2214 53.344 33.2214H53.3424ZM39.3658 46.0265C39.4596 46.0602 39.5551 46.0755 39.6505 46.0755L39.652 46.077C39.9998 46.077 40.326 45.8625 40.4491 45.5177C40.4553 45.4993 41.1431 43.6282 42.8281 42.6889C43.2359 42.4605 43.3805 41.9472 43.1528 41.5411C42.9235 41.135 42.408 40.9909 42.0002 41.2177C39.7689 42.4621 38.8918 44.848 38.8549 44.9492C38.6964 45.3875 38.9257 45.8702 39.3658 46.0265Z" fill="white"/>
<path d="M11.6784 42.0712H11.9284V41.8212H11.6784V42.0712ZM12.4001 7.56403L12.6185 7.68562L12.6185 7.68559L12.4001 7.56403ZM18.3552 3.79273L18.3711 4.04222L18.4996 4.03402L18.5675 3.92471L18.3552 3.79273ZM18.3886 3.73632L18.1724 3.61079L18.1722 3.6112L18.3886 3.73632ZM18.3886 3.7363L18.6048 3.86183L18.6051 3.86142L18.3886 3.7363ZM18.4121 3.69618L18.6263 3.8252L18.6268 3.82427L18.4121 3.69618ZM18.4124 3.69572L18.1978 3.56748L18.1977 3.56763L18.4124 3.69572ZM25.6122 0.0214262L25.627 0.270987L25.6271 0.270984L25.6122 0.0214262ZM35.1743 3.3851L35.335 3.19358L35.3349 3.19357L35.1743 3.3851ZM40.3848 12.9959L40.1366 13.0258L40.1492 13.1308L40.2334 13.1949L40.3848 12.9959ZM47.0752 17.6167L46.9424 17.8285L46.9425 17.8286L47.0752 17.6167ZM47.4507 18.1469L47.2067 18.2017L47.2068 18.2017L47.4507 18.1469ZM47.3368 18.7859L47.5467 18.9217L47.5474 18.9207L47.3368 18.7859ZM42.5758 34.0137L42.8221 34.0565L42.8222 34.0555L42.5758 34.0137ZM42.091 34.6358L42.1916 34.8647L42.1941 34.8636L42.091 34.6358ZM33.3861 43.0335L33.1686 42.9101L33.1685 42.9103L33.3861 43.0335ZM32.2289 43.3523L32.3514 43.1344L32.3514 43.1343L32.2289 43.3523ZM31.9088 42.2045L32.126 42.3284L32.1262 42.3279L31.9088 42.2045ZM32.5657 41.1186L32.7759 41.2539L32.9207 41.0289L32.6865 40.8997L32.5657 41.1186ZM29.6142 32.7239L29.864 32.7133L29.8445 32.2551L29.4699 32.5198L29.6142 32.7239ZM25.2558 34.7879V34.5379H24.6507L25.0794 34.965L25.2558 34.7879ZM25.2574 34.7894V35.0394H25.8625L25.4338 34.6123L25.2574 34.7894ZM21.7338 33.2925L21.8668 33.0809L21.4673 32.8296L21.4839 33.3013L21.7338 33.2925ZM21.7396 33.4576L21.9894 33.4491L21.9894 33.4488L21.7396 33.4576ZM21.4657 37.5415L21.7066 37.6084L21.7066 37.6083L21.4657 37.5415ZM20.7994 39.4494L20.5697 39.3506L20.5696 39.3509L20.7994 39.4494ZM17.2617 42.2047V41.9547H17.0117V42.2047H17.2617ZM17.2617 42.2062V42.4562H17.5117V42.2062H17.2617ZM16.8739 42.174L16.9144 41.9273L16.914 41.9272L16.8739 42.174ZM16.1753 41.2055L16.422 41.246H16.422L16.1753 41.2055ZM17.1478 40.5098L17.1077 40.7565L17.108 40.7566L17.1478 40.5098ZM19.2421 38.7873L19.0123 38.689L19.0122 38.6892L19.2421 38.7873ZM19.833 37.091L19.5921 37.0242L19.592 37.0244L19.833 37.091ZM20.047 33.5158L19.7971 33.5242L19.7971 33.5242L20.047 33.5158ZM20.0469 33.5143L19.797 33.5224L19.797 33.5227L20.0469 33.5143ZM20.0442 33.43L20.294 33.4219L20.294 33.4219L20.0442 33.43ZM20.029 32.0796L20.2756 32.1204L20.2994 31.9763L20.1856 31.8848L20.029 32.0796ZM16.5863 27.7985L16.3526 27.8874L16.3526 27.8874L16.5863 27.7985ZM16.4732 27.4716L16.7116 27.3965L16.6556 27.2184L16.4688 27.2216L16.4732 27.4716ZM16.4402 27.4719V27.2219H15.8346L16.2639 27.6491L16.4402 27.4719ZM16.4418 27.4734V27.7234H17.0475L16.6181 27.2962L16.4418 27.4734ZM13.712 24.8714L13.9617 24.8603L13.9617 24.8603L13.712 24.8714ZM13.6042 22.4425L13.3545 22.4535L13.3545 22.4535L13.6042 22.4425ZM15.984 19.6226L16.0157 19.8706L16.2225 19.8441L16.2336 19.6358L15.984 19.6226ZM16.2416 16.4248L16.4899 16.454L16.4899 16.4537L16.2416 16.4248ZM17.1787 15.6831L17.2074 15.4348L17.2066 15.4347L17.1787 15.6831ZM17.8968 16.2906L17.6564 16.3592L17.753 16.6976L18.0407 16.495L17.8968 16.2906ZM21.5406 11.7998L21.7744 11.8883L21.7744 11.8882L21.5406 11.7998ZM21.5885 11.6951L21.8082 11.8145L21.8738 11.6937L21.807 11.5736L21.5885 11.6951ZM20.6727 9.86109L20.4443 9.9629L20.4444 9.96311L20.6727 9.86109ZM21.102 8.74855L21.2028 8.97733L21.2031 8.97719L21.102 8.74855ZM22.2192 9.1761L21.9907 9.2776L21.9909 9.27811L22.2192 9.1761ZM32.8553 18.9821L32.9279 18.7428L32.9278 18.7428L32.8553 18.9821ZM38.7997 19.7145L38.8143 19.9641L39.0497 19.9502V19.7145H38.7997ZM34.0833 4.6754L33.9225 4.86688L33.9226 4.86698L34.0833 4.6754ZM25.7122 1.70556L25.727 1.95512L25.7271 1.95512L25.7122 1.70556ZM19.8663 4.56047L20.0807 4.68901L20.0811 4.68845L19.8663 4.56047ZM19.8641 4.56413L19.6497 4.4356L19.6497 4.43561L19.8641 4.56413ZM18.7307 5.4646L18.7243 5.21468L18.7239 5.21469L18.7307 5.4646ZM11.6784 42.0743H11.4284V42.3243H11.6784V42.0743ZM38.8113 34.6321L38.9548 34.8369L39.084 34.7463L39.0579 34.5907L38.8113 34.6321ZM33.5425 39.7186L33.4407 39.9469L33.6223 40.0279L33.7421 39.8692L33.5425 39.7186ZM38.7997 21.4043H39.0497V21.1407L38.7865 21.1547L38.7997 21.4043ZM37.9426 21.4263L37.7659 21.6032L37.8391 21.6763H37.9426V21.4263ZM37.9411 21.4248L38.1177 21.2479L38.0445 21.1748H37.9411V21.4248ZM36.7303 21.3848L36.7466 21.1353L36.3623 21.1102L36.4958 21.4715L36.7303 21.3848ZM36.8943 22.4422L36.6446 22.4309L36.6446 22.4311L36.8943 22.4422ZM36.7866 24.8711L36.5368 24.86L36.5368 24.86L36.7866 24.8711ZM34.0568 27.4731L34.0566 27.7231H34.0568V27.4731ZM34.0541 27.4731L34.0542 27.2231L33.8698 27.223L33.8152 27.3992L34.0541 27.4731ZM31.0287 31.6151L30.8644 31.4267L30.6588 31.6059L30.8552 31.7951L31.0287 31.6151ZM31.2857 32.1812L31.5355 32.1708L31.5354 32.1696L31.2857 32.1812ZM31.298 32.4769L31.0482 32.4873L31.0482 32.4876L31.298 32.4769ZM31.2984 32.4855L31.5481 32.4748V32.4748L31.2984 32.4855ZM40.9831 33.3011L41.0981 33.5231L41.2063 33.467L41.2288 33.3472L40.9831 33.3011ZM40.4924 33.5671H40.2424V33.9955L40.6153 33.7848L40.4924 33.5671ZM45.4764 18.6021L45.6948 18.7236L45.8091 18.5184L45.6113 18.3916L45.4764 18.6021ZM40.4924 15.1807L40.6399 14.9789L40.2424 14.6883V15.1807H40.4924ZM34.565 21.3656L34.6612 21.1348L34.2891 20.9798L34.3156 21.382L34.565 21.3656ZM34.4119 25.7242L34.1645 25.6884L34.1047 26.1023L34.4975 25.9591L34.4119 25.7242ZM35.2032 22.3671L34.9534 22.3556L34.9534 22.356L35.2032 22.3671ZM35.0955 24.796L35.3452 24.8074L35.3452 24.807L35.0955 24.796ZM15.2938 22.3658L15.0441 22.3766L15.0441 22.3769L15.2938 22.3658ZM15.9191 21.3702L16.169 21.3752L16.1768 20.9859L15.8196 21.1409L15.9191 21.3702ZM15.4016 24.7947L15.1518 24.8058L15.1518 24.8062L15.4016 24.7947ZM16.1076 25.73L16.0271 25.9667L16.4092 26.0968L16.3554 25.6967L16.1076 25.73ZM17.7612 18.369L17.6413 18.1497L17.522 18.2148L17.5119 18.3504L17.7612 18.369ZM18.1697 27.2008L18.4034 27.112L18.4033 27.1119L18.1697 27.2008ZM22.6634 13.4305L22.8693 13.2887L22.6322 12.9444L22.4411 13.3162L22.6634 13.4305ZM32.3629 20.5942L32.2904 20.8335L32.2905 20.8335L32.3629 20.5942ZM32.8112 20.724L33.0597 20.6968L33.0413 20.5282L32.8778 20.483L32.8112 20.724ZM32.499 26.7534L32.2556 26.696L32.2556 26.6961L32.499 26.7534ZM25.2605 33.1038L25.2512 33.3536L25.2598 33.3539L25.2683 33.3536L25.2605 33.1038ZM21.8259 31.3231L21.6806 31.5265L21.6807 31.5266L21.8259 31.3231ZM53.047 33.1678L53.1357 32.934L53.1338 32.9333L53.047 33.1678ZM52.55 32.0843L52.7841 32.1721L52.7841 32.1719L52.55 32.0843ZM54.7058 12.7421L54.9536 12.7092L54.9416 12.6186L54.874 12.5571L54.7058 12.7421ZM51.205 9.55769L51.0366 9.74246L51.0368 9.74262L51.205 9.55769ZM52.3468 8.31336L52.1784 8.49813L52.1786 8.49831L52.3468 8.31336ZM56.0723 11.7015L55.9041 11.8865L55.9042 11.8866L56.0723 11.7015ZM56.3369 12.1873L56.5837 12.147L56.5836 12.1467L56.3369 12.1873ZM54.1365 32.6728L53.9023 32.5852L53.9022 32.5855L54.1365 32.6728ZM39.6505 46.0755L39.8268 45.8983L39.7536 45.8255H39.6505V46.0755ZM39.3658 46.0265L39.4503 45.7912L39.4495 45.7909L39.3658 46.0265ZM39.652 46.077L39.4757 46.2543L39.5488 46.327H39.652V46.077ZM40.4491 45.5177L40.6846 45.6018L40.6862 45.5971L40.4491 45.5177ZM42.8281 42.6889L42.9498 42.9072L42.9502 42.907L42.8281 42.6889ZM43.1528 41.5411L43.3708 41.4188L43.3705 41.4181L43.1528 41.5411ZM42.0002 41.2177L41.8787 40.9992L41.8784 40.9994L42.0002 41.2177ZM38.8549 44.9492L38.6201 44.8634L38.6198 44.8642L38.8549 44.9492ZM10.582 41.2284C10.582 41.8333 11.0735 42.3212 11.6784 42.3212V41.8212C11.3477 41.8212 11.082 41.5552 11.082 41.2284H10.582ZM10.582 14.7894V41.2284H11.082V14.7894H10.582ZM12.1816 7.44244C10.8547 9.82644 10.582 12.7654 10.582 14.7894H11.082C11.082 12.7924 11.3541 9.95713 12.6185 7.68562L12.1816 7.44244ZM18.3393 3.54323C15.6366 3.71571 13.5062 5.06214 12.1816 7.44247L12.6185 7.68559C13.8607 5.45331 15.8389 4.20382 18.3711 4.04222L18.3393 3.54323ZM18.1722 3.6112C18.161 3.6305 18.152 3.64612 18.1429 3.66075L18.5675 3.92471C18.5816 3.90216 18.5946 3.87959 18.6051 3.86144L18.1722 3.6112ZM18.1724 3.61076L18.1724 3.61079L18.6048 3.86185L18.6048 3.86183L18.1724 3.61076ZM18.198 3.56717C18.1888 3.58239 18.1799 3.59787 18.1722 3.61118L18.6051 3.86142C18.6132 3.84735 18.6199 3.83586 18.6263 3.8252L18.198 3.56717ZM18.1977 3.56763L18.1975 3.5681L18.6268 3.82427L18.6271 3.82381L18.1977 3.56763ZM25.5974 -0.228134C22.9658 -0.0719209 21.2697 0.606342 20.149 1.39168C19.028 2.17727 18.503 3.05681 18.1978 3.56748L18.627 3.82397C18.9237 3.32756 19.4045 2.52395 20.436 1.80115C21.4677 1.0781 23.0705 0.422744 25.627 0.270987L25.5974 -0.228134ZM35.3349 3.19357C32.4692 0.789404 29.0116 -0.431543 25.5973 -0.228131L25.6271 0.270984C28.9004 0.0759645 32.235 1.2456 35.0136 3.57663L35.3349 3.19357ZM40.633 12.966C40.1756 9.17215 38.3007 5.6817 35.335 3.19358L35.0136 3.57663C37.8817 5.98287 39.6943 9.35763 40.1366 13.0258L40.633 12.966ZM47.208 17.4049C43.8447 15.2966 41.026 13.1697 40.5362 12.797L40.2334 13.1949C40.7281 13.5713 43.5605 15.7085 46.9424 17.8285L47.208 17.4049ZM47.6946 18.0921C47.6307 17.8079 47.4553 17.5598 47.2079 17.4048L46.9425 17.8286C47.0767 17.9126 47.1721 18.0476 47.2067 18.2017L47.6946 18.0921ZM47.5474 18.9207C47.7043 18.6753 47.7587 18.3774 47.6946 18.0921L47.2068 18.2017C47.2411 18.3547 47.2124 18.5165 47.1262 18.6512L47.5474 18.9207ZM42.8222 34.0555C42.8222 34.0555 42.8223 34.0553 42.8224 34.0547C42.8225 34.0541 42.8226 34.0533 42.8228 34.0524C42.8231 34.0504 42.8236 34.0478 42.8242 34.0445C42.8253 34.0379 42.827 34.0287 42.8291 34.0171C42.8333 33.9937 42.8393 33.9605 42.8471 33.9179C42.8628 33.8326 42.8856 33.71 42.9153 33.5542C42.9748 33.2424 43.062 32.7979 43.1749 32.2536C43.4009 31.165 43.7297 29.6785 44.1459 28.0596C44.9813 24.8101 46.1589 21.0678 47.5467 18.9217L47.1269 18.6502C45.6894 20.873 44.4958 24.6902 43.6616 27.9351C42.8247 31.1907 42.3394 33.9124 42.3293 33.9718L42.8222 34.0555ZM42.1941 34.8636C42.522 34.7152 42.7599 34.4139 42.8221 34.0565L42.3295 33.9708C42.2962 34.1621 42.1679 34.3266 41.9879 34.4081L42.1941 34.8636ZM33.6035 43.1569C35.2643 40.2298 37.4023 38.1599 39.1329 36.8187C39.9979 36.1483 40.76 35.6608 41.3079 35.3401C41.5818 35.1797 41.8021 35.0612 41.9547 34.9823C42.1086 34.9027 42.1918 34.8646 42.1916 34.8647L41.9905 34.4069C41.9157 34.4398 36.569 36.9171 33.1686 42.9101L33.6035 43.1569ZM32.649 43.7111C33.0282 43.7111 33.4015 43.5134 33.6036 43.1568L33.1685 42.9103C33.0598 43.1022 32.8576 43.2111 32.649 43.2111V43.7111ZM32.6444 43.7111H32.649V43.2111H32.6444V43.7111ZM32.1063 43.5702C32.2757 43.6654 32.4612 43.7111 32.6444 43.7111V43.2111C32.5444 43.2111 32.4437 43.1862 32.3514 43.1344L32.1063 43.5702ZM31.6917 42.0806C31.3916 42.6066 31.5802 43.2745 32.1064 43.5702L32.3514 43.1343C32.065 42.9734 31.9644 42.6115 32.126 42.3284L31.6917 42.0806ZM32.3555 40.9833C32.1284 41.3361 31.9065 41.702 31.6914 42.0811L32.1262 42.3279C32.3367 41.957 32.5537 41.5991 32.7759 41.2539L32.3555 40.9833ZM29.3645 32.7346C29.419 34.0176 29.5075 35.7815 29.9138 37.4075C30.3182 39.0262 31.0523 40.5691 32.4449 41.3375L32.6865 40.8997C31.4802 40.2341 30.7931 38.8642 30.3989 37.2863C30.0064 35.7158 29.9187 33.9994 29.864 32.7133L29.3645 32.7346ZM25.2558 35.0379C25.6997 35.0379 26.3853 34.816 27.1573 34.4571C27.9418 34.0924 28.8522 33.5687 29.7585 32.9281L29.4699 32.5198C28.586 33.1445 27.7015 33.6527 26.9465 34.0037C26.1791 34.3605 25.5807 34.5379 25.2558 34.5379V35.0379ZM25.4338 34.6123L25.4323 34.6108L25.0794 34.965L25.0809 34.9665L25.4338 34.6123ZM21.6007 33.5041C22.2404 33.9064 22.9286 34.287 23.5634 34.5679C24.1892 34.8448 24.7946 35.0394 25.2574 35.0394V34.5394C24.9058 34.5394 24.3819 34.3833 23.7657 34.1107C23.1586 33.842 22.4922 33.4741 21.8668 33.0809L21.6007 33.5041ZM21.9894 33.4488L21.9836 33.2837L21.4839 33.3013L21.4897 33.4664L21.9894 33.4488ZM21.7066 37.6083C22.0863 36.2395 22.0354 34.7982 21.9894 33.4491L21.4897 33.4661C21.5361 34.8293 21.5805 36.1924 21.2248 37.4746L21.7066 37.6083ZM21.029 39.5481C21.2955 38.9285 21.5161 38.2941 21.7066 37.6084L21.2248 37.4746C21.0398 38.1404 20.8265 38.7534 20.5697 39.3506L21.029 39.5481ZM17.2617 42.4547C18.147 42.4547 18.9619 42.0204 19.6087 41.4555C20.2567 40.8896 20.7623 40.1704 21.0292 39.5479L20.5696 39.3509C20.3333 39.9022 19.8733 40.5606 19.2798 41.0789C18.6853 41.5982 17.9829 41.9547 17.2617 41.9547V42.4547ZM17.5117 42.2062V42.2047H17.0117V42.2062H17.5117ZM16.8334 42.4207C16.9771 42.4443 17.1199 42.4562 17.2617 42.4562V41.9562C17.148 41.9562 17.0323 41.9466 16.9144 41.9273L16.8334 42.4207ZM15.9286 41.1651C15.8307 41.7617 16.2363 42.3236 16.8338 42.4208L16.914 41.9272C16.5882 41.8743 16.3691 41.5688 16.422 41.246L15.9286 41.1651ZM17.1879 40.263C16.5914 40.166 16.0265 40.5679 15.9286 41.1651L16.422 41.246C16.4749 40.9236 16.7809 40.7034 17.1077 40.7565L17.1879 40.263ZM19.0122 38.6892C18.844 39.0831 18.5171 39.5112 18.1499 39.826C17.9674 39.9825 17.7822 40.1047 17.6105 40.1808C17.4365 40.2579 17.2941 40.2801 17.1876 40.263L17.108 40.7566C17.3439 40.7946 17.5881 40.7377 17.8131 40.6379C18.0403 40.5372 18.2663 40.3848 18.4754 40.2056C18.8915 39.8488 19.2693 39.3604 19.472 38.8855L19.0122 38.6892ZM19.592 37.0244C19.4287 37.6163 19.2385 38.1603 19.0123 38.689L19.472 38.8857C19.7074 38.3355 19.9049 37.7701 20.074 37.1575L19.592 37.0244ZM19.7971 33.5242C19.839 34.7629 19.8783 35.9914 19.5921 37.0242L20.0739 37.1577C20.3846 36.0368 20.338 34.7258 20.2968 33.5074L19.7971 33.5242ZM19.797 33.5227L19.7971 33.5242L20.2968 33.5074L20.2968 33.5059L19.797 33.5227ZM19.7943 33.4382L19.797 33.5224L20.2968 33.5061L20.294 33.4219L19.7943 33.4382ZM19.7677 32.2178C19.7677 32.6207 19.7813 33.0377 19.7943 33.4382L20.294 33.4219C20.2809 33.0199 20.2677 32.6112 20.2677 32.2178H19.7677ZM19.7823 32.0389C19.7727 32.0972 19.7677 32.157 19.7677 32.2178H20.2677C20.2677 32.1845 20.2704 32.1519 20.2756 32.1204L19.7823 32.0389ZM16.3526 27.8874C17.0558 29.7363 18.639 31.2827 19.8723 32.2745L20.1856 31.8848C18.971 30.908 17.4745 29.4307 16.8199 27.7096L16.3526 27.8874ZM16.2347 27.5467C16.2717 27.664 16.3109 27.7778 16.3526 27.8874L16.8199 27.7096C16.782 27.6099 16.7459 27.5055 16.7116 27.3965L16.2347 27.5467ZM16.4402 27.7219C16.453 27.7219 16.4654 27.7218 16.4775 27.7216L16.4688 27.2216C16.4591 27.2218 16.4496 27.2219 16.4402 27.2219V27.7219ZM16.6181 27.2962L16.6166 27.2947L16.2639 27.6491L16.2654 27.6506L16.6181 27.2962ZM13.4622 24.8824C13.5328 26.4765 14.857 27.7234 16.4418 27.7234V27.2234C15.1213 27.2234 14.0203 26.1839 13.9617 24.8603L13.4622 24.8824ZM13.3545 22.4535L13.4622 24.8824L13.9617 24.8603L13.854 22.4314L13.3545 22.4535ZM15.9523 19.3746C14.4314 19.5691 13.2859 20.9003 13.3545 22.4535L13.854 22.4314C13.797 21.1416 14.7492 20.0325 16.0157 19.8706L15.9523 19.3746ZM15.9933 16.3957C15.9775 16.5305 15.8276 17.8553 15.7343 19.6093L16.2336 19.6358C16.3261 17.8955 16.4749 16.5817 16.4899 16.454L15.9933 16.3957ZM17.2066 15.4347C16.6061 15.3674 16.0631 15.7953 15.9932 16.3959L16.4899 16.4537C16.5277 16.1287 16.8219 15.8947 17.1508 15.9316L17.2066 15.4347ZM18.1372 16.222C18.0192 15.8088 17.6619 15.4872 17.2074 15.4348L17.15 15.9315C17.3982 15.9601 17.5924 16.135 17.6564 16.3592L18.1372 16.222ZM21.3068 11.7113C20.4953 13.8541 18.8708 15.299 17.7528 16.0862L18.0407 16.495C19.1976 15.6803 20.9127 14.1638 21.7744 11.8883L21.3068 11.7113ZM21.3689 11.5757C21.3454 11.619 21.3246 11.6642 21.3068 11.7113L21.7744 11.8882C21.7842 11.8625 21.7955 11.8379 21.8082 11.8145L21.3689 11.5757ZM20.4444 9.96311C20.7366 10.6168 21.0461 11.2339 21.37 11.8166L21.807 11.5736C21.4902 11.0038 21.1873 10.3997 20.9009 9.75907L20.4444 9.96311ZM21.0012 8.51977C20.4463 8.76429 20.1989 9.41233 20.4443 9.9629L20.901 9.75928C20.768 9.46089 20.9022 9.10979 21.2028 8.97733L21.0012 8.51977ZM22.4476 9.07459C22.2017 8.52096 21.5517 8.27636 21.0009 8.51991L21.2031 8.97719C21.5048 8.84376 21.8581 8.97921 21.9907 9.2776L22.4476 9.07459ZM32.9278 18.7428C28.2054 17.3119 24.6802 14.0696 22.4474 9.07408L21.9909 9.27811C24.276 14.3905 27.9063 17.7437 32.7828 19.2213L32.9278 18.7428ZM38.785 19.4649C37.7769 19.5241 35.5299 19.5316 32.9279 18.7428L32.7828 19.2213C35.4591 20.0326 37.7693 20.0254 38.8143 19.9641L38.785 19.4649ZM38.5497 14.7894V19.7145H39.0497V14.7894H38.5497ZM33.9226 4.86698C36.8635 7.33261 38.5497 10.9495 38.5497 14.7894H39.0497C39.0497 10.8017 37.2982 7.04456 34.2439 4.48383L33.9226 4.86698ZM25.7271 1.95512C28.5656 1.7862 31.4772 2.8142 33.9225 4.86688L34.244 4.48392C31.7129 2.35922 28.6785 1.2786 25.6974 1.456L25.7271 1.95512ZM20.0811 4.68845C20.3281 4.27395 20.693 3.66392 21.507 3.11959C22.3233 2.5737 23.613 2.08038 25.727 1.95512L25.6974 1.456C23.5181 1.58513 22.1365 2.09708 21.229 2.70396C20.3192 3.31239 19.9077 4.00263 19.6516 4.43249L20.0811 4.68845ZM20.0785 4.69267L20.0807 4.68901L19.6519 4.43194L19.6497 4.4356L20.0785 4.69267ZM18.737 5.71452C19.4969 5.69527 19.8558 5.06425 20.0786 4.69266L19.6497 4.43561C19.3992 4.8535 19.1702 5.20339 18.7243 5.21468L18.737 5.71452ZM12.7747 14.7909C12.7747 13.0928 12.9761 10.8413 13.8295 9.0051C14.2548 8.09006 14.8381 7.28681 15.6311 6.70368C16.4219 6.12221 17.4345 5.74964 18.7374 5.71451L18.7239 5.21469C17.3271 5.25236 16.214 5.65443 15.3349 6.30086C14.4581 6.94563 13.8273 7.82355 13.3761 8.79435C12.4765 10.7298 12.2747 13.0687 12.2747 14.7909H12.7747ZM12.7747 41.2314V14.7909H12.2747V41.2314H12.7747ZM11.6784 42.3243C12.2833 42.3243 12.7747 41.8363 12.7747 41.2314H12.2747C12.2747 41.5582 12.0091 41.8243 11.6784 41.8243V42.3243ZM11.4284 42.0712V42.0743H11.9284V42.0712H11.4284ZM38.6679 34.4274C37.1333 35.5028 35.1475 37.1762 33.3429 39.568L33.7421 39.8692C35.5084 37.528 37.4528 35.8895 38.9548 34.8369L38.6679 34.4274ZM38.5497 34.4918C38.5497 34.5536 38.5548 34.6143 38.5648 34.6736L39.0579 34.5907C39.0525 34.5587 39.0497 34.5257 39.0497 34.4918H38.5497ZM38.5497 21.4043V34.4918H39.0497V21.4043H38.5497ZM37.9426 21.6763C38.2761 21.6763 38.5684 21.6669 38.8129 21.654L38.7865 21.1547C38.5502 21.1672 38.2667 21.1763 37.9426 21.1763V21.6763ZM37.7644 21.6017L37.7659 21.6032L38.1193 21.2494L38.1177 21.2479L37.7644 21.6017ZM36.7141 21.6342C37.1665 21.6638 37.5783 21.6748 37.9411 21.6748V21.1748C37.5884 21.1748 37.1875 21.1641 36.7466 21.1353L36.7141 21.6342ZM37.1441 22.4534C37.1624 22.0482 37.0977 21.6574 36.9648 21.2981L36.4958 21.4715C36.606 21.7695 36.6598 22.0936 36.6446 22.4309L37.1441 22.4534ZM37.0364 24.8821L37.1441 22.4532L36.6446 22.4311L36.5368 24.86L37.0364 24.8821ZM34.0568 27.7231C35.6416 27.7231 36.9657 26.4762 37.0364 24.8821L36.5368 24.86C36.4782 26.1836 35.3773 27.2231 34.0568 27.2231V27.7231ZM34.0539 27.7231L34.0566 27.7231L34.057 27.2231L34.0542 27.2231L34.0539 27.7231ZM31.1929 31.8036C32.5788 30.5959 33.8057 29.121 34.2929 27.547L33.8152 27.3992C33.368 28.844 32.2211 30.2444 30.8644 31.4267L31.1929 31.8036ZM31.5354 32.1696C31.522 31.8796 31.3955 31.6215 31.2021 31.4351L30.8552 31.7951C30.961 31.8971 31.0287 32.0365 31.0359 32.1928L31.5354 32.1696ZM31.5478 32.4665L31.5355 32.1708L31.0359 32.1916L31.0482 32.4873L31.5478 32.4665ZM31.5481 32.4748L31.5478 32.4663L31.0482 32.4876L31.0486 32.4961L31.5481 32.4748ZM33.6444 39.4903C33.22 39.301 32.8735 38.9216 32.5926 38.3939C32.312 37.8668 32.1076 37.2115 31.9585 36.5052C31.6603 35.092 31.5929 33.5242 31.5481 32.4748L31.0486 32.4961C31.0931 33.5398 31.1611 35.1484 31.4693 36.6084C31.6234 37.3387 31.84 38.0443 32.1513 38.6289C32.4622 39.2129 32.8784 39.6961 33.4407 39.9469L33.6444 39.4903ZM40.8681 33.0791C40.7306 33.1503 40.5629 33.2402 40.3694 33.3495L40.6153 33.7848C40.8033 33.6786 40.9656 33.5916 41.0981 33.5231L40.8681 33.0791ZM45.2579 18.4805C44.0064 20.7295 42.9699 23.9329 42.2011 26.8076C41.431 29.6874 40.9242 32.2588 40.7374 33.255L41.2288 33.3472C41.4144 32.3574 41.9186 29.7997 42.6842 26.9368C43.4511 24.0687 44.475 20.9156 45.6948 18.7236L45.2579 18.4805ZM40.3448 15.3825C41.4716 16.2064 43.2778 17.4895 45.3415 18.8125L45.6113 18.3916C43.5589 17.0758 41.7614 15.7989 40.6399 14.9789L40.3448 15.3825ZM40.7424 33.5671V15.1807H40.2424V33.5671H40.7424ZM34.3156 21.382C34.382 22.3927 34.412 23.9753 34.1645 25.6884L34.6593 25.7599C34.9134 24.0011 34.8823 22.3813 34.8145 21.3492L34.3156 21.382ZM35.4529 22.3785C35.4783 21.8243 35.1454 21.3366 34.6612 21.1348L34.4689 21.5963C34.7671 21.7206 34.9688 22.02 34.9534 22.3556L35.4529 22.3785ZM35.3452 24.807L35.4529 22.3781L34.9534 22.356L34.8457 24.7849L35.3452 24.807ZM34.4975 25.9591C34.971 25.7865 35.3207 25.3432 35.3452 24.8074L34.8457 24.7845C34.8308 25.1107 34.6179 25.383 34.3263 25.4893L34.4975 25.9591ZM15.5436 22.3551C15.5292 22.0224 15.7264 21.7264 16.0186 21.5996L15.8196 21.1409C15.345 21.3468 15.0204 21.8289 15.0441 22.3766L15.5436 22.3551ZM15.6513 24.7837L15.5436 22.3548L15.0441 22.3769L15.1518 24.8058L15.6513 24.7837ZM16.1881 25.4934C15.8873 25.391 15.6665 25.1143 15.6513 24.7833L15.1518 24.8062C15.1768 25.3515 15.54 25.801 16.0271 25.9667L16.1881 25.4934ZM15.6691 21.3652C15.64 22.8245 15.6761 24.3986 15.8598 25.7634L16.3554 25.6967C16.1765 24.3684 16.1402 22.8231 16.169 21.3752L15.6691 21.3652ZM17.5119 18.3504C17.4099 19.7111 17.3284 21.4467 17.3647 23.086C17.4007 24.7153 17.5532 26.2838 17.936 27.2898L18.4033 27.1119C18.0539 26.1939 17.9005 24.7025 17.8645 23.0749C17.8288 21.4572 17.9092 19.7389 18.0105 18.3877L17.5119 18.3504ZM22.4411 13.3162C20.9973 16.1246 18.5208 17.6692 17.6413 18.1497L17.881 18.5884C18.7944 18.0895 21.3745 16.4845 22.8858 13.5448L22.4411 13.3162ZM32.4354 20.3549C29.5493 19.4804 25.8035 17.549 22.8693 13.2887L22.4575 13.5723C25.4699 17.9461 29.3219 19.934 32.2904 20.8335L32.4354 20.3549ZM32.8778 20.483C32.7315 20.4426 32.584 20.3999 32.4354 20.3549L32.2905 20.8335C32.443 20.8797 32.5945 20.9235 32.7447 20.965L32.8778 20.483ZM32.7423 26.8108C33.3647 24.1713 33.1492 21.514 33.0597 20.6968L32.5627 20.7512C32.6502 21.5501 32.8584 24.1399 32.2556 26.696L32.7423 26.8108ZM25.2683 33.3536C25.4417 33.3482 25.6731 33.2819 25.9261 33.1852C26.1871 33.0855 26.497 32.9431 26.8372 32.7654C27.518 32.4099 28.3319 31.9072 29.1362 31.3057C29.94 30.7045 30.7398 30.0004 31.3882 29.241C32.0347 28.4838 32.5431 27.6572 32.7423 26.8107L32.2556 26.6961C32.0817 27.4349 31.6276 28.1906 31.008 28.9164C30.3902 29.6399 29.6203 30.3192 28.8367 30.9053C28.0535 31.491 27.2623 31.9794 26.6058 32.3222C26.2774 32.4937 25.9856 32.6272 25.7476 32.7182C25.5018 32.8121 25.3369 32.8512 25.2527 32.8539L25.2683 33.3536ZM21.6807 31.5266C22.5635 32.1565 23.362 32.6063 23.9797 32.9011C24.2883 33.0484 24.5535 33.1577 24.7629 33.2315C24.9619 33.3017 25.1364 33.3493 25.2512 33.3536L25.2697 32.8539C25.2391 32.8528 25.1293 32.8306 24.9292 32.76C24.7395 32.6931 24.4909 32.591 24.195 32.4498C23.6035 32.1676 22.8301 31.7325 21.9711 31.1196L21.6807 31.5266ZM17.936 27.2897C18.4704 28.6949 19.814 30.1939 21.6806 31.5265L21.9711 31.1196C20.1415 29.8134 18.8877 28.3855 18.4034 27.112L17.936 27.2897ZM52.9583 33.4015C53.0851 33.4496 53.2153 33.4714 53.3424 33.4714V32.9714C53.2726 32.9714 53.2027 32.9595 53.1357 32.934L52.9583 33.4015ZM52.3159 31.9966C52.104 32.5618 52.3921 33.1918 52.9602 33.4022L53.1338 32.9333C52.8248 32.8189 52.6696 32.4773 52.7841 32.1721L52.3159 31.9966ZM54.458 12.7749C54.6778 14.4317 55.6118 23.1848 52.3158 31.9968L52.7841 32.1719C56.1234 23.2445 55.177 14.3931 54.9536 12.7092L54.458 12.7749ZM51.0368 9.74262L54.5376 12.927L54.874 12.5571L51.3733 9.37275L51.0368 9.74262ZM50.9671 8.19783C50.5576 8.64348 50.59 9.33543 51.0366 9.74246L51.3734 9.37291C51.1307 9.15165 51.1139 8.77703 51.3353 8.53615L50.9671 8.19783ZM52.5152 8.12858C52.0685 7.72143 51.3754 7.75349 50.9671 8.19783L51.3353 8.53615C51.5578 8.29396 51.9358 8.27699 52.1784 8.49813L52.5152 8.12858ZM56.2405 11.5166L52.515 8.12841L52.1786 8.49831L55.9041 11.8865L56.2405 11.5166ZM56.5836 12.1467C56.5436 11.9038 56.4219 11.6814 56.2404 11.5165L55.9042 11.8866C56.0027 11.9761 56.0687 12.097 56.0903 12.2279L56.5836 12.1467ZM54.3706 32.7604C58.2177 22.4786 56.6535 12.5739 56.5837 12.147L56.0902 12.2277C56.1558 12.6283 57.703 22.4275 53.9023 32.5852L54.3706 32.7604ZM53.344 33.4714C53.7875 33.4714 54.2067 33.2003 54.3707 32.7601L53.9022 32.5855C53.8139 32.8226 53.5868 32.9714 53.344 32.9714V33.4714ZM53.3424 33.4714H53.344V32.9714H53.3424V33.4714ZM39.6505 45.8255C39.5823 45.8255 39.5156 45.8146 39.4503 45.7912L39.2813 46.2618C39.4037 46.3057 39.5278 46.3255 39.6505 46.3255V45.8255ZM39.8283 45.8998L39.8268 45.8983L39.4741 46.2527L39.4757 46.2543L39.8283 45.8998ZM40.2137 45.4336C40.1275 45.6749 39.8985 45.827 39.652 45.827V46.327C40.101 46.327 40.5245 46.0501 40.6845 45.6018L40.2137 45.4336ZM42.7063 42.4705C41.8162 42.9668 41.1959 43.7047 40.7997 44.312C40.4035 44.9191 40.2212 45.4111 40.212 45.4383L40.6862 45.5971C40.6832 45.6059 40.8478 45.1532 41.2184 44.5853C41.5888 44.0176 42.155 43.3503 42.9498 42.9072L42.7063 42.4705ZM42.9347 41.6633C43.0947 41.9487 42.9935 42.3097 42.7059 42.4707L42.9502 42.907C43.4782 42.6113 43.6663 41.9457 43.3708 41.4188L42.9347 41.6633ZM42.1217 41.4362C42.41 41.2759 42.7737 41.3782 42.9351 41.664L43.3705 41.4181C43.0733 40.8918 42.406 40.706 41.8787 40.9992L42.1217 41.4362ZM39.0897 45.0349C39.1238 44.9417 39.9752 42.6333 42.122 41.4361L41.8784 40.9994C39.5627 42.2908 38.6599 44.7544 38.6201 44.8634L39.0897 45.0349ZM39.4495 45.7909C39.1392 45.6807 38.9789 45.3413 39.09 45.0342L38.6198 44.8642C38.4139 45.4336 38.7122 46.0596 39.2821 46.2621L39.4495 45.7909Z" fill="black" mask="url(#path-1-inside-1_5378_1719)"/>
<mask id="path-3-inside-2_5378_1719" fill="white">
<path fill-rule="evenodd" clip-rule="evenodd" d="M50.4844 36.7586C50.4781 36.7169 50.4747 36.6743 50.4741 36.6309L50.4649 35.972C50.4588 35.4556 50.8742 35.0326 51.3928 35.0265C51.9129 35.0188 52.3361 35.4356 52.3422 35.9521L52.3515 36.611C52.3521 36.6593 52.3489 36.7067 52.3424 36.7531L54.0008 38.3213H54.7419C55.2604 38.3259 55.679 38.7458 55.6774 39.2607C55.6759 39.7756 55.2558 40.1924 54.7388 40.1924V40.1939H53.8889L52.3441 41.6705C52.3442 42.2459 52.3454 42.3534 52.3456 42.3746L52.3457 42.3789C52.3534 42.8953 51.9379 43.3198 51.4209 43.3275H51.407L51.4085 43.3259C50.8961 43.3259 50.4776 42.9168 50.4699 42.405C50.4699 42.405 50.4668 42.3375 50.4668 41.6418C50.4668 41.6376 50.4668 41.6335 50.4669 41.6293L49.0893 40.1938H48.1371H48.134C47.6169 40.1938 47.1969 39.777 47.1953 39.2606C47.1953 38.7442 47.6123 38.3243 48.1309 38.3228H48.9517L50.4844 36.7586ZM51.5539 40.1063L50.566 39.2205L51.4908 38.3562L52.4233 39.2037L51.5539 40.1063Z"/>
</mask>
<path fill-rule="evenodd" clip-rule="evenodd" d="M50.4844 36.7586C50.4781 36.7169 50.4747 36.6743 50.4741 36.6309L50.4649 35.972C50.4588 35.4556 50.8742 35.0326 51.3928 35.0265C51.9129 35.0188 52.3361 35.4356 52.3422 35.9521L52.3515 36.611C52.3521 36.6593 52.3489 36.7067 52.3424 36.7531L54.0008 38.3213H54.7419C55.2604 38.3259 55.679 38.7458 55.6774 39.2607C55.6759 39.7756 55.2558 40.1924 54.7388 40.1924V40.1939H53.8889L52.3441 41.6705C52.3442 42.2459 52.3454 42.3534 52.3456 42.3746L52.3457 42.3789C52.3534 42.8953 51.9379 43.3198 51.4209 43.3275H51.407L51.4085 43.3259C50.8961 43.3259 50.4776 42.9168 50.4699 42.405C50.4699 42.405 50.4668 42.3375 50.4668 41.6418C50.4668 41.6376 50.4668 41.6335 50.4669 41.6293L49.0893 40.1938H48.1371H48.134C47.6169 40.1938 47.1969 39.777 47.1953 39.2606C47.1953 38.7442 47.6123 38.3243 48.1309 38.3228H48.9517L50.4844 36.7586ZM51.5539 40.1063L50.566 39.2205L51.4908 38.3562L52.4233 39.2037L51.5539 40.1063Z" fill="white"/>
<path d="M50.4741 36.6309L50.7241 36.6279L50.7241 36.6274L50.4741 36.6309ZM50.4844 36.7586L50.663 36.9336L50.7501 36.8447L50.7316 36.7216L50.4844 36.7586ZM50.4649 35.972L50.2149 35.975L50.2149 35.9755L50.4649 35.972ZM51.3928 35.0265L51.3958 35.2765L51.3965 35.2764L51.3928 35.0265ZM52.3422 35.9521L52.0923 35.955L52.0923 35.9556L52.3422 35.9521ZM52.3515 36.611L52.6015 36.608L52.6015 36.6075L52.3515 36.611ZM52.3424 36.7531L52.0949 36.7182L52.0769 36.8461L52.1706 36.9347L52.3424 36.7531ZM54.0008 38.3213L53.829 38.5029L53.9013 38.5713H54.0008V38.3213ZM54.7419 38.3213L54.7441 38.0713H54.7419V38.3213ZM55.6774 39.2607L55.4274 39.2599L55.6774 39.2607ZM54.7388 40.1924V39.9424H54.4888V40.1924H54.7388ZM54.7388 40.1939V40.4439H54.9888V40.1939H54.7388ZM53.8889 40.1939V39.9439H53.7887L53.7162 40.0132L53.8889 40.1939ZM52.3441 41.6705L52.1714 41.4898L52.0941 41.5636L52.0941 41.6705L52.3441 41.6705ZM52.3456 42.3746L52.5956 42.3722L52.5956 42.3717L52.3456 42.3746ZM52.3457 42.3789L52.0957 42.3812L52.0957 42.3826L52.3457 42.3789ZM51.4209 43.3275V43.5775L51.4246 43.5774L51.4209 43.3275ZM51.407 43.3275L51.2308 43.1501L50.8005 43.5775H51.407V43.3275ZM51.4085 43.3259L51.5847 43.5033L52.015 43.0759H51.4085V43.3259ZM50.4699 42.405L50.72 42.4012L50.7196 42.3935L50.4699 42.405ZM50.4669 41.6293L50.7169 41.6326L50.7182 41.5302L50.6473 41.4562L50.4669 41.6293ZM49.0893 40.1938L49.2696 40.0207L49.1958 39.9438H49.0893V40.1938ZM47.1953 39.2606H46.9453L46.9453 39.2613L47.1953 39.2606ZM48.1309 38.3228V38.0728L48.1302 38.0728L48.1309 38.3228ZM48.9517 38.3228V38.5728H49.0568L49.1303 38.4977L48.9517 38.3228ZM50.566 39.2205L50.3953 39.0379L50.1958 39.2244L50.3991 39.4067L50.566 39.2205ZM51.5539 40.1063L51.387 40.2924L51.5666 40.4534L51.734 40.2797L51.5539 40.1063ZM51.4908 38.3562L51.659 38.1712L51.4885 38.0163L51.3201 38.1736L51.4908 38.3562ZM52.4233 39.2037L52.6034 39.3771L52.7819 39.1917L52.5915 39.0187L52.4233 39.2037ZM50.2242 36.6339C50.2248 36.6887 50.2292 36.7427 50.2371 36.7956L50.7316 36.7216C50.7271 36.6911 50.7245 36.6598 50.7241 36.6279L50.2242 36.6339ZM50.2149 35.9755L50.2242 36.6344L50.7241 36.6274L50.7149 35.9685L50.2149 35.9755ZM51.3899 34.7765C50.7344 34.7842 50.2071 35.3192 50.2149 35.975L50.7149 35.969C50.7104 35.5919 51.014 35.281 51.3958 35.2765L51.3899 34.7765ZM52.5922 35.9491C52.5844 35.2954 52.0486 34.7668 51.3891 34.7765L51.3965 35.2764C51.7772 35.2708 52.0877 35.5759 52.0923 35.955L52.5922 35.9491ZM52.6015 36.6075L52.5922 35.9486L52.0923 35.9556L52.1015 36.6145L52.6015 36.6075ZM52.59 36.788C52.5983 36.7291 52.6022 36.669 52.6015 36.608L52.1015 36.614C52.1019 36.6495 52.0996 36.6843 52.0949 36.7182L52.59 36.788ZM52.1706 36.9347L53.829 38.5029L54.1726 38.1396L52.5142 36.5715L52.1706 36.9347ZM54.0008 38.5713H54.7419V38.0713H54.0008V38.5713ZM54.7396 38.5713C55.1226 38.5747 55.4286 38.8844 55.4274 39.2599L55.9274 39.2614C55.9294 38.6071 55.3982 38.0771 54.7441 38.0713L54.7396 38.5713ZM55.4274 39.2599C55.4263 39.636 55.1191 39.9424 54.7388 39.9424V40.4424C55.3925 40.4424 55.9255 39.9152 55.9274 39.2614L55.4274 39.2599ZM54.4888 40.1924V40.1939H54.9888V40.1924H54.4888ZM54.7388 39.9439H53.8889V40.4439H54.7388V39.9439ZM53.7162 40.0132L52.1714 41.4898L52.5169 41.8512L54.0617 40.3746L53.7162 40.0132ZM52.5956 42.3717C52.5954 42.3522 52.5942 42.2459 52.5941 41.6705L52.0941 41.6705C52.0942 42.2459 52.0954 42.3547 52.0956 42.3774L52.5956 42.3717ZM52.5957 42.3766L52.5956 42.3722L52.0956 42.3769L52.0957 42.3812L52.5957 42.3766ZM51.4246 43.5774C52.0783 43.5678 52.6054 43.031 52.5956 42.3752L52.0957 42.3826C52.1013 42.7597 51.7974 43.0719 51.4171 43.0775L51.4246 43.5774ZM51.407 43.5775H51.4209V43.0775H51.407V43.5775ZM51.2324 43.1486L51.2308 43.1501L51.5832 43.5049L51.5847 43.5033L51.2324 43.1486ZM50.2199 42.4087C50.2297 43.0583 50.7607 43.5759 51.4085 43.5759V43.0759C51.0315 43.0759 50.7255 42.7752 50.7198 42.4012L50.2199 42.4087ZM50.2168 41.6418C50.2168 41.9899 50.2176 42.1814 50.2183 42.2861C50.2187 42.3385 50.2191 42.3695 50.2194 42.3878C50.2196 42.3969 50.2197 42.4031 50.2198 42.4073C50.2199 42.4094 50.2199 42.4111 50.22 42.4125C50.22 42.4132 50.22 42.4139 50.2201 42.4145C50.2201 42.4148 50.2201 42.4151 50.2201 42.4155C50.2201 42.4156 50.2201 42.4158 50.2201 42.4159C50.2201 42.416 50.2201 42.4161 50.2201 42.4161C50.2201 42.4162 50.2201 42.4162 50.2201 42.4163C50.2201 42.4163 50.2201 42.4164 50.4699 42.405C50.7196 42.3935 50.7196 42.3936 50.7196 42.3937C50.7196 42.3937 50.7196 42.3937 50.7196 42.3938C50.7196 42.3938 50.7196 42.3939 50.7196 42.394C50.7196 42.3941 50.7196 42.3942 50.7197 42.3944C50.7197 42.3946 50.7197 42.3948 50.7197 42.395C50.7197 42.3953 50.7197 42.3955 50.7197 42.3955C50.7197 42.3956 50.7197 42.3952 50.7197 42.3941C50.7196 42.3919 50.7195 42.3874 50.7194 42.3794C50.7191 42.3632 50.7187 42.3339 50.7183 42.2824C50.7176 42.1795 50.7168 41.9894 50.7168 41.6418H50.2168ZM50.2169 41.626C50.2168 41.6313 50.2168 41.6366 50.2168 41.6418H50.7168C50.7168 41.6387 50.7168 41.6357 50.7169 41.6326L50.2169 41.626ZM50.6473 41.4562L49.2696 40.0207L48.9089 40.367L50.2865 41.8024L50.6473 41.4562ZM48.1371 40.4438H49.0893V39.9438H48.1371V40.4438ZM48.134 40.4438H48.1371V39.9438H48.134V40.4438ZM46.9453 39.2613C46.9473 39.9164 47.48 40.4438 48.134 40.4438V39.9438C47.7539 39.9438 47.4464 39.6377 47.4453 39.2599L46.9453 39.2613ZM48.1302 38.0728C47.4736 38.0747 46.9453 38.6066 46.9453 39.2606H47.4453C47.4453 38.8818 47.751 38.5739 48.1316 38.5728L48.1302 38.0728ZM48.9517 38.0728H48.1309V38.5728H48.9517V38.0728ZM49.1303 38.4977L50.663 36.9336L50.3058 36.5836L48.7731 38.1478L49.1303 38.4977ZM50.3991 39.4067L51.387 40.2924L51.7208 39.9201L50.7329 39.0344L50.3991 39.4067ZM51.3201 38.1736L50.3953 39.0379L50.7367 39.4032L51.6615 38.5389L51.3201 38.1736ZM52.5915 39.0187L51.659 38.1712L51.3227 38.5413L52.2552 39.3887L52.5915 39.0187ZM51.734 40.2797L52.6034 39.3771L52.2433 39.0302L51.3739 39.9328L51.734 40.2797Z" fill="black" mask="url(#path-3-inside-2_5378_1719)"/>
<mask id="path-5-inside-3_5378_1719" fill="white">
<path fill-rule="evenodd" clip-rule="evenodd" d="M48.4526 47.8926H48.8882H48.8897C49.3237 47.8926 49.6791 47.5402 49.6791 47.108C49.6791 46.6759 49.3268 46.3219 48.8913 46.3188H48.5251L47.4746 45.2351L47.4719 44.9904C47.4673 44.5613 47.1149 44.2119 46.6748 44.2119C46.464 44.2134 46.267 44.2977 46.1193 44.4479C45.9716 44.5981 45.8915 44.7958 45.8946 45.0057L45.8972 45.2393L44.7654 46.3145H44.4363C44.0008 46.316 43.6484 46.6684 43.6484 47.1021C43.65 47.5343 44.0039 47.8867 44.4409 47.8867H44.8597L45.8693 48.8675C45.8697 49.132 45.8707 49.2243 45.8707 49.2243C45.8768 49.6518 46.2308 49.9997 46.6601 49.9997H46.6709C47.1063 49.9936 47.4556 49.6365 47.4495 49.1982C47.4485 49.179 47.4481 49.1027 47.448 48.9354L48.4526 47.8926ZM46.6823 47.459L46.2699 47.0591L46.6777 46.6714L47.0609 47.0667L46.6823 47.459Z"/>
</mask>
<path fill-rule="evenodd" clip-rule="evenodd" d="M48.4526 47.8926H48.8882H48.8897C49.3237 47.8926 49.6791 47.5402 49.6791 47.108C49.6791 46.6759 49.3268 46.3219 48.8913 46.3188H48.5251L47.4746 45.2351L47.4719 44.9904C47.4673 44.5613 47.1149 44.2119 46.6748 44.2119C46.464 44.2134 46.267 44.2977 46.1193 44.4479C45.9716 44.5981 45.8915 44.7958 45.8946 45.0057L45.8972 45.2393L44.7654 46.3145H44.4363C44.0008 46.316 43.6484 46.6684 43.6484 47.1021C43.65 47.5343 44.0039 47.8867 44.4409 47.8867H44.8597L45.8693 48.8675C45.8697 49.132 45.8707 49.2243 45.8707 49.2243C45.8768 49.6518 46.2308 49.9997 46.6601 49.9997H46.6709C47.1063 49.9936 47.4556 49.6365 47.4495 49.1982C47.4485 49.179 47.4481 49.1027 47.448 48.9354L48.4526 47.8926ZM46.6823 47.459L46.2699 47.0591L46.6777 46.6714L47.0609 47.0667L46.6823 47.459Z" fill="white"/>
<path d="M48.4526 47.8926V47.6426H48.3463L48.2726 47.7192L48.4526 47.8926ZM48.8913 46.3188L48.893 46.0688H48.8913V46.3188ZM48.5251 46.3188L48.3456 46.4928L48.4193 46.5688H48.5251V46.3188ZM47.4746 45.2351L47.2246 45.2379L47.2257 45.3376L47.2951 45.4091L47.4746 45.2351ZM47.4719 44.9904L47.2219 44.9931L47.2219 44.9932L47.4719 44.9904ZM46.6748 44.2119V43.9619L46.673 43.9619L46.6748 44.2119ZM46.1193 44.4479L45.9411 44.2726L45.9411 44.2726L46.1193 44.4479ZM45.8946 45.0057L46.1446 45.0029L46.1446 45.002L45.8946 45.0057ZM45.8972 45.2393L46.0694 45.4206L46.1484 45.3455L46.1472 45.2365L45.8972 45.2393ZM44.7654 46.3145V46.5645H44.8652L44.9376 46.4957L44.7654 46.3145ZM44.4363 46.3145V46.0645L44.4354 46.0645L44.4363 46.3145ZM43.6484 47.1021H43.3984L43.3984 47.103L43.6484 47.1021ZM44.8597 47.8867L45.0339 47.7074L44.9611 47.6367H44.8597V47.8867ZM45.8693 48.8675L46.1193 48.8671L46.1192 48.7617L46.0435 48.6882L45.8693 48.8675ZM45.8707 49.2243L45.6207 49.2268L45.6207 49.2279L45.8707 49.2243ZM46.6709 49.9997V50.2497L46.6744 50.2497L46.6709 49.9997ZM47.4495 49.1982L47.6996 49.1947L47.6991 49.185L47.4495 49.1982ZM47.448 48.9354L47.268 48.762L47.1979 48.8346L47.198 48.9356L47.448 48.9354ZM46.2699 47.0591L46.0976 46.8779L45.909 47.0573L46.0959 47.2385L46.2699 47.0591ZM46.6823 47.459L46.5083 47.6385L46.6882 47.813L46.8622 47.6326L46.6823 47.459ZM46.6777 46.6714L46.8572 46.4974L46.6849 46.3196L46.5054 46.4902L46.6777 46.6714ZM47.0609 47.0667L47.2408 47.2403L47.4086 47.0663L47.2404 46.8927L47.0609 47.0667ZM48.4526 48.1426H48.8882V47.6426H48.4526V48.1426ZM48.8882 48.1426H48.8897V47.6426H48.8882V48.1426ZM48.8897 48.1426C49.4601 48.1426 49.9291 47.6799 49.9291 47.108H49.4291C49.4291 47.4005 49.1872 47.6426 48.8897 47.6426V48.1426ZM49.9291 47.108C49.9291 46.5375 49.4648 46.0729 48.893 46.0689L48.8895 46.5688C49.1887 46.5709 49.4291 46.8143 49.4291 47.108H49.9291ZM48.8913 46.0688H48.5251V46.5688H48.8913V46.0688ZM47.2951 45.4091L48.3456 46.4928L48.7046 46.1448L47.6541 45.0611L47.2951 45.4091ZM47.7246 45.2323L47.7219 44.9876L47.2219 44.9932L47.2246 45.2379L47.7246 45.2323ZM47.7219 44.9877C47.7158 44.4197 47.25 43.9619 46.6748 43.9619V44.4619C46.9798 44.4619 47.2188 44.7029 47.2219 44.9931L47.7219 44.9877ZM46.673 43.9619C46.3951 43.9639 46.1348 44.0756 45.9411 44.2726L46.2975 44.6232C46.3992 44.5199 46.5329 44.463 46.6766 44.4619L46.673 43.9619ZM45.9411 44.2726C45.747 44.4699 45.6406 44.7318 45.6446 45.0094L46.1446 45.002C46.1425 44.8597 46.1961 44.7263 46.2975 44.6232L45.9411 44.2726ZM45.6446 45.0085L45.6472 45.2421L46.1472 45.2365L46.1446 45.0029L45.6446 45.0085ZM44.9376 46.4957L46.0694 45.4206L45.725 45.0581L44.5932 46.1332L44.9376 46.4957ZM44.7654 46.0645H44.4363V46.5645H44.7654V46.0645ZM44.4354 46.0645C43.8631 46.0665 43.3984 46.5299 43.3984 47.1021H43.8984C43.8984 46.807 44.1386 46.5655 44.4372 46.5645L44.4354 46.0645ZM43.3984 47.103C43.4005 47.674 43.8673 48.1367 44.4409 48.1367V47.6367C44.1405 47.6367 43.8995 47.3946 43.8984 47.1012L43.3984 47.103ZM44.4409 48.1367H44.8597V47.6367H44.4409V48.1367ZM46.0435 48.6882L45.0339 47.7074L44.6855 48.066L45.6951 49.0468L46.0435 48.6882ZM45.6193 48.8679C45.6195 49.0004 45.6199 49.0899 45.6202 49.1464C45.6203 49.1746 45.6204 49.1946 45.6205 49.2076C45.6206 49.2141 45.6206 49.2188 45.6206 49.222C45.6207 49.2236 45.6207 49.2247 45.6207 49.2255C45.6207 49.2259 45.6207 49.2262 45.6207 49.2265C45.6207 49.2266 45.6207 49.2266 45.6207 49.2267C45.6207 49.2267 45.6207 49.2268 45.6207 49.2268C45.6207 49.2268 45.6207 49.2268 45.6207 49.2268C45.6207 49.2268 45.6207 49.2268 45.6207 49.2268C45.6207 49.2268 45.6207 49.2268 45.8707 49.2243C46.1207 49.2218 46.1207 49.2218 46.1207 49.2218C46.1207 49.2218 46.1207 49.2218 46.1207 49.2218C46.1207 49.2218 46.1207 49.2218 46.1207 49.2218C46.1207 49.2218 46.1207 49.2217 46.1207 49.2217C46.1207 49.2217 46.1207 49.2217 46.1207 49.2216C46.1207 49.2214 46.1207 49.2212 46.1207 49.2208C46.1207 49.2202 46.1206 49.2191 46.1206 49.2176C46.1206 49.2147 46.1206 49.2102 46.1205 49.2039C46.1204 49.1913 46.1203 49.1717 46.1202 49.1438C46.1199 49.088 46.1195 48.9991 46.1193 48.8671L45.6193 48.8679ZM45.6207 49.2279C45.6288 49.7929 46.0949 50.2497 46.6601 50.2497V49.7497C46.3667 49.7497 46.1248 49.5108 46.1207 49.2207L45.6207 49.2279ZM46.6601 50.2497H46.6709V49.7497H46.6601V50.2497ZM46.6744 50.2497C47.2476 50.2416 47.7076 49.7714 47.6995 49.1947L47.1995 49.2017C47.2037 49.5016 46.9651 49.7455 46.6673 49.7497L46.6744 50.2497ZM47.6991 49.185C47.6992 49.1856 47.699 49.1817 47.6988 49.169C47.6987 49.1576 47.6985 49.1419 47.6984 49.121C47.6982 49.0793 47.6981 49.0189 47.698 48.9352L47.198 48.9356C47.1981 49.0972 47.1984 49.1836 47.1998 49.2114L47.6991 49.185ZM48.2726 47.7192L47.268 48.762L47.628 49.1089L48.6327 48.0661L48.2726 47.7192ZM46.0959 47.2385L46.5083 47.6385L46.8564 47.2796L46.444 46.8796L46.0959 47.2385ZM46.5054 46.4902L46.0976 46.8779L46.4422 47.2402L46.85 46.8525L46.5054 46.4902ZM47.2404 46.8927L46.8572 46.4974L46.4982 46.8453L46.8813 47.2407L47.2404 46.8927ZM46.8622 47.6326L47.2408 47.2403L46.8809 46.8931L46.5024 47.2854L46.8622 47.6326Z" fill="black" mask="url(#path-5-inside-3_5378_1719)"/>
</svg>
