<svg width="70" height="50" viewBox="0 0 70 50" fill="none" xmlns="http://www.w3.org/2000/svg">
<path d="M31.0244 38.7908H24.2851L19.7461 34.1813V13.8028L24.2851 9.19336H31.0244H37.7637L42.3027 13.8028V34.1813L37.7637 38.7908H31.0244Z" stroke="white" stroke-miterlimit="10"/>
<path d="M31.027 45.226H21.4501L15 38.6757V9.71675L21.4501 3.1665H31.027H40.604L47.0541 9.71675V38.6757L40.604 45.226H31.027Z" stroke="white" stroke-miterlimit="10"/>
<path d="M15 9.50704L19.7407 13.6479M42.2593 13.6479L47 9.50704M37.5185 8.91549L40.4815 3M24.4815 8.91549L21.5185 3M19.7407 34.3521L15 38.493M24.4815 39.0845L21.5185 45M37.5185 39.0845L40.4815 45M42.2593 34.3521L46.4074 38.493" stroke="white" stroke-linecap="round" stroke-linejoin="round"/>
<path d="M54.4661 21.7963C54.7092 21.7963 54.8955 21.5807 54.8955 21.2827L54.8876 19.4024L55.6329 18.9634L57.6589 17.5966L57.5209 20.0732V20.9515L55.9168 21.8793C55.6575 22.0285 55.5762 22.3017 55.7059 22.5169C55.8438 22.7739 56.1031 22.8068 56.3541 22.658L57.5209 21.9786V23.478C57.5209 23.7844 57.7156 24 57.9991 24C58.2988 24 58.4772 23.7844 58.4772 23.478V21.9786L59.6357 22.658C59.887 22.8071 60.1463 22.7739 60.2922 22.5254C60.4219 22.3017 60.3327 22.0285 60.0734 21.8793L58.4772 20.9515V20.0732L58.3392 17.5963L60.3652 18.9549L61.1105 19.3939L61.0943 21.2827C61.0943 21.581 61.281 21.7963 61.532 21.7963C61.8234 21.7963 61.9776 21.5725 61.9776 21.2827V19.9159L63.2578 20.6698C63.5171 20.819 63.7843 20.761 63.9223 20.4959C64.0682 20.2475 63.9869 19.9573 63.7356 19.8166L62.4557 19.0627L63.6142 18.3753C63.8656 18.2261 63.971 17.9776 63.8251 17.7292C63.6955 17.5054 63.4362 17.4393 63.1769 17.5966L61.5887 18.5492L60.8433 18.1102L58.6715 17L60.8433 15.8902L61.5887 15.4427L63.1769 16.3953C63.4279 16.5525 63.7034 16.4864 63.8331 16.2708C63.9707 16.0142 63.8656 15.7654 63.6142 15.6166L62.4637 14.9292L63.7359 14.1834C63.9952 14.0261 64.0761 13.761 63.9223 13.4959C63.7843 13.2475 63.5171 13.1729 63.2578 13.3302L61.9776 14.0841L61.9693 12.7092C61.9693 12.4193 61.8234 12.1953 61.532 12.2037C61.2806 12.2037 61.0943 12.4109 61.0943 12.7092L61.1105 14.5973L60.3652 15.0363L58.3392 16.3949L58.4772 13.918V13.04L60.0734 12.1125C60.3327 11.9634 60.4219 11.6898 60.2922 11.4746C60.1463 11.218 59.887 11.1848 59.6357 11.3339L58.4772 12.0132V10.5136C58.4772 10.2071 58.2988 10 57.9991 10C57.7156 10 57.5209 10.2071 57.5209 10.5136V12.0132L56.3541 11.3339C56.1031 11.1929 55.8438 11.218 55.7059 11.4746C55.5762 11.6902 55.6575 11.9634 55.9168 12.1125L57.5209 13.0403V13.9183L57.6589 16.4037L55.6329 15.0366L54.8876 14.5895L54.8955 12.7092C54.8955 12.4109 54.7092 12.2037 54.4661 12.2037C54.1747 12.2037 54.0205 12.4193 54.0205 12.7092L54.0126 14.0759L52.7403 13.3302C52.4893 13.181 52.2138 13.2475 52.0758 13.4959C51.922 13.761 52.0112 14.0342 52.2625 14.1834L53.5344 14.9292L52.3839 15.6166C52.1325 15.7658 52.0191 16.0061 52.165 16.2712C52.2867 16.4864 52.5702 16.5525 52.8215 16.3953L54.4094 15.4508L55.1548 15.8898L57.3266 17L55.1548 18.1098L54.4094 18.5492L52.8212 17.5963C52.5619 17.439 52.2947 17.5054 52.173 17.7207C52.0354 17.9858 52.1325 18.2261 52.3839 18.3753L53.5344 19.0627L52.2622 19.8166C52.0112 19.9573 51.9303 20.2471 52.0758 20.4959C52.2217 20.761 52.489 20.8105 52.7403 20.6698L54.0126 19.9159L54.0205 21.2827C54.0205 21.5725 54.1744 21.7963 54.4665 21.7963H54.4661Z" fill="white"/>
<path d="M4.38386 41.7594C4.56951 41.7594 4.71186 41.6054 4.71186 41.3926L4.70578 40.0495L5.27516 39.7359L6.82274 38.7597L6.71737 40.5286V41.156L5.49198 41.8187C5.29392 41.9253 5.23185 42.1204 5.33089 42.2742C5.43626 42.4577 5.63433 42.4812 5.82606 42.3749L6.71737 41.8897V42.9606C6.71737 43.1795 6.86605 43.3335 7.08261 43.3335C7.31157 43.3335 7.44785 43.1795 7.44785 42.9606V41.8897L8.33282 42.3749C8.52481 42.4814 8.72288 42.4577 8.83433 42.2802C8.93336 42.1204 8.86523 41.9253 8.66716 41.8187L7.44785 41.156V40.5286L7.34247 38.7594L8.89005 39.7299L9.45943 40.0434L9.44702 41.3926C9.44702 41.6056 9.58963 41.7594 9.78136 41.7594C10.004 41.7594 10.1218 41.5996 10.1218 41.3926V40.4163L11.0997 40.9548C11.2978 41.0613 11.5019 41.0199 11.6073 40.8306C11.7187 40.6531 11.6567 40.4458 11.4647 40.3454L10.487 39.8069L11.372 39.3158C11.564 39.2093 11.6445 39.0318 11.5331 38.8543C11.434 38.6945 11.236 38.6473 11.0379 38.7597L9.82467 39.44L9.25529 39.1265L7.59627 38.3335L9.25529 37.5408L9.82467 37.2212L11.0379 37.9015C11.2296 38.0139 11.4401 37.9667 11.5392 37.8127C11.6443 37.6294 11.564 37.4516 11.372 37.3454L10.4931 36.8543L11.4649 36.3216C11.663 36.2093 11.7248 36.0199 11.6073 35.8306C11.5019 35.6531 11.2978 35.5998 11.0997 35.7122L10.1218 36.2507L10.1154 35.2686C10.1154 35.0616 10.004 34.9015 9.78136 34.9076C9.58937 34.9076 9.44702 35.0555 9.44702 35.2686L9.45943 36.6173L8.89005 36.9308L7.34247 37.9013L7.44785 36.132V35.5049L8.66716 34.8425C8.86523 34.7359 8.93336 34.5405 8.83433 34.3868C8.72288 34.2035 8.52481 34.1797 8.33282 34.2863L7.44785 34.7715V33.7003C7.44785 33.4814 7.31157 33.3335 7.08261 33.3335C6.86605 33.3335 6.71737 33.4814 6.71737 33.7003V34.7715L5.82606 34.2863C5.63433 34.1856 5.43626 34.2035 5.33089 34.3868C5.23185 34.5408 5.29392 34.7359 5.49198 34.8425L6.71737 35.5052V36.1323L6.82274 37.9076L5.27516 36.9311L4.70578 36.6117L4.71186 35.2686C4.71186 35.0555 4.56951 34.9076 4.38386 34.9076C4.16123 34.9076 4.04344 35.0616 4.04344 35.2686L4.03737 36.2449L3.06551 35.7122C2.87378 35.6056 2.6633 35.6531 2.55793 35.8306C2.44041 36.0199 2.50854 36.2151 2.70054 36.3216L3.67213 36.8543L2.79323 37.3454C2.60124 37.4519 2.51461 37.6236 2.62606 37.8129C2.71902 37.9667 2.93558 38.0139 3.12757 37.9015L4.34054 37.227L4.90993 37.5405L6.56895 38.3335L4.90993 39.1262L4.34054 39.44L3.12731 38.7594C2.92924 38.6471 2.7251 38.6945 2.63214 38.8483C2.52703 39.0376 2.60124 39.2093 2.79323 39.3158L3.67213 39.8069L2.70027 40.3454C2.50854 40.4458 2.44674 40.6529 2.55793 40.8306C2.66937 41.0199 2.87352 41.0553 3.06551 40.9548L4.03737 40.4163L4.04344 41.3926C4.04344 41.5996 4.16096 41.7594 4.38412 41.7594H4.38386Z" fill="white"/>
</svg>
