<svg width="91" height="24" viewBox="0 0 91 24" fill="none" xmlns="http://www.w3.org/2000/svg">
<rect width="90.566" height="24" rx="12" fill="#B2FCE4"/>
<path d="M20.3346 11.8796C20.3346 10.8619 19.5773 10.1471 18.6467 10.1471C17.7161 10.1471 16.9588 10.8744 16.9588 11.8796C16.9588 12.873 17.7161 13.6118 18.6467 13.6118C19.5784 13.6118 20.3346 12.8975 20.3346 11.8796ZM20.3482 14.908V14.1207C19.8891 14.6657 19.2054 15.0042 18.3874 15.0042C16.6871 15.0042 15.3965 13.6717 15.3965 11.8796C15.3965 10.0989 16.7363 8.74255 18.4254 8.74255C19.2201 8.74255 19.8897 9.08222 20.3488 9.61426V8.85125H21.8754V14.908H20.3482ZM29.2894 13.563C28.7551 13.563 28.6068 13.3695 28.6068 12.8612V10.1719H29.5876V8.85068H28.6068V7.37337H27.0422V8.85068H25.0271V8.48274C25.0271 7.97343 25.2264 7.77933 25.7726 7.77933H26.1156V6.60463H25.3628C24.0722 6.60463 23.4643 7.0167 23.4643 8.27622V8.8501H22.5954V10.1719H23.4643V14.9074H25.0288V10.1719H27.0439V13.1397C27.0439 14.3753 27.5273 14.9085 28.7929 14.9085H29.6002V13.5636L29.2894 13.563ZM34.8995 11.334C34.7879 10.5471 34.1296 10.0745 33.3605 10.0745C32.5906 10.0745 31.9577 10.5347 31.797 11.334H34.8995ZM31.784 12.2793C31.896 13.1752 32.5537 13.6847 33.3853 13.6847C34.043 13.6847 34.5525 13.3814 34.8496 12.8969H36.4515C36.0786 14.1807 34.8995 15.0042 33.3478 15.0042C31.4743 15.0042 30.1588 13.721 30.1588 11.8914C30.1588 10.0626 31.549 8.74217 33.3864 8.74217C35.2357 8.74217 36.5755 10.0745 36.5755 11.8914C36.5755 12.0252 36.5636 12.1576 36.5388 12.2793H31.784ZM46.5213 11.8796C46.5213 10.898 45.764 10.1471 44.8335 10.1471C43.9029 10.1471 43.1455 10.8744 43.1455 11.8796C43.1455 12.873 43.9029 13.6118 44.8335 13.6118C45.764 13.6118 46.5213 12.8612 46.5213 11.8796ZM41.6059 8.85125H43.1325V9.63871C43.591 9.08107 44.2738 8.74255 45.0933 8.74255C46.7687 8.74255 48.0836 10.0875 48.0836 11.8672C48.0836 13.6484 46.7439 15.0054 45.0559 15.0054C44.2737 15.0054 43.6284 14.702 43.1823 14.1937V17.4002H41.6059V8.85125ZM53.5856 11.8796C53.5856 10.8619 52.8294 10.1471 51.8977 10.1471C50.9672 10.1471 50.2097 10.8744 50.2097 11.8796C50.2097 12.873 50.9672 13.6118 51.8977 13.6118C52.8294 13.6118 53.5856 12.8975 53.5856 11.8796ZM53.5991 14.908V14.1207C53.1401 14.6657 52.4563 15.0042 51.6385 15.0042C49.9381 15.0042 48.6474 13.6717 48.6474 11.8796C48.6474 10.0989 49.9873 8.74255 51.6757 8.74255C52.4699 8.74255 53.1401 9.08222 53.5991 9.61426V8.85125H55.1251V14.908H53.5991ZM38.8549 9.44519C38.8549 9.44519 39.2433 8.74312 40.1947 8.74312C40.6018 8.74312 40.865 8.87914 40.865 8.87914V10.4243C40.865 10.4243 40.291 10.0785 39.7635 10.1482C39.2359 10.2178 38.9025 10.6904 38.9042 11.3233V14.9091H37.3283V8.8524H38.8549V9.44519ZM62.254 8.85125L58.4003 17.381H56.7753L58.2884 14.0832L55.7298 8.85125H57.5716L59.0684 12.3473L60.604 8.85125H62.254ZM74.5557 8.7137L70.7349 6.56222C69.6141 5.93055 68.2121 6.71964 68.2121 7.98412V8.20496C68.2121 8.40422 68.3214 8.58876 68.4981 8.68772L69.2196 9.09406C69.4313 9.21422 69.6951 9.06464 69.6951 8.82642V8.27737C69.6951 8.00285 69.9996 7.83072 70.243 7.96827L73.5522 9.83281C73.7956 9.96978 73.7956 10.3129 73.5522 10.4499L70.243 12.3138C69.9996 12.4508 69.6957 12.2798 69.6957 12.0047V11.7126C69.6957 10.4487 68.2937 9.65801 67.1711 10.2907L63.3503 12.4428C63.0957 12.5828 62.8832 12.7886 62.7352 13.0386C62.5871 13.2889 62.5092 13.5741 62.5092 13.8647C62.5092 14.1554 62.5871 14.4407 62.7352 14.6907C62.8832 14.941 63.0957 15.1467 63.3503 15.2866L67.1711 17.4383C68.2925 18.0698 69.6957 17.2808 69.6957 16.0164V15.7955C69.6951 15.6969 69.6682 15.6001 69.6179 15.5153C69.5675 15.4304 69.4955 15.3605 69.4093 15.3128L68.6882 14.9051C68.4765 14.7857 68.2121 14.9351 68.2121 15.1735V15.7225C68.2121 15.9971 67.9076 16.1686 67.6648 16.0311L64.3552 14.1671C64.3 14.1365 64.2539 14.0918 64.2219 14.0376C64.1898 13.9831 64.1728 13.9212 64.1728 13.8582C64.1728 13.7951 64.1898 13.7333 64.2219 13.679C64.2539 13.6245 64.3 13.5798 64.3552 13.5495L67.6648 11.6849C67.9081 11.5474 68.2121 11.7189 68.2121 11.994V12.2861C68.2121 13.55 69.6137 14.3408 70.7349 13.708L74.5557 11.5558C74.8102 11.4159 75.0224 11.2104 75.1703 10.9605C75.3182 10.7104 75.3961 10.4254 75.3961 10.135C75.3961 9.84465 75.3182 9.55962 75.1703 9.30974C75.0224 9.05986 74.8102 8.85354 74.5557 8.7137Z" fill="black"/>
</svg>
