<svg width="200" height="200" viewBox="0 0 200 200" fill="none" xmlns="http://www.w3.org/2000/svg">
<path d="M100 200C80.2219 200 60.8879 194.135 44.443 183.147C27.9981 172.159 15.1809 156.541 7.61209 138.268C0.0433281 119.996 -1.937 99.8891 1.92152 80.491C5.78004 61.0929 15.3041 43.2746 29.2894 29.2894C43.2746 15.3041 61.0929 5.78004 80.491 1.92152C99.8891 -1.937 119.996 0.0433281 138.268 7.61209C156.541 15.1809 172.159 27.9981 183.147 44.443C194.135 60.8879 200 80.2219 200 100C199.971 126.513 189.426 151.931 170.679 170.679C151.931 189.426 126.513 199.971 100 200ZM100 2.44709C80.7029 2.44709 61.8392 8.16949 45.7945 18.8906C29.7497 29.6117 17.2446 44.8501 9.86045 62.6785C2.47634 80.5069 0.544931 100.125 4.31049 119.051C8.07605 137.977 17.3694 155.361 31.0154 169.005C44.6613 182.65 62.0469 191.941 80.9735 195.704C99.9001 199.467 119.518 197.533 137.345 190.147C155.173 182.761 170.409 170.254 181.128 154.208C191.847 138.161 197.568 119.297 197.565 100C197.533 74.1352 187.243 49.3391 168.953 31.051C150.662 12.7629 125.865 2.47608 100 2.44709Z" fill="url(#paint0_linear_5539_2116)"/>
<path d="M171.245 139.202C171.036 139.201 170.829 139.146 170.647 139.042C170.464 138.939 170.312 138.79 170.204 138.609C170.096 138.429 170.037 138.224 170.032 138.015C170.026 137.805 170.075 137.597 170.174 137.412C175.109 128.117 178.159 117.937 179.147 107.46C180.135 96.9817 179.043 86.4118 175.933 76.3576C175.849 76.0526 175.887 75.7268 176.039 75.4494C176.191 75.1719 176.445 74.9645 176.747 74.8711C177.049 74.7777 177.376 74.8057 177.658 74.9491C177.94 75.0925 178.155 75.3401 178.258 75.6393C181.464 86.0004 182.59 96.8933 181.57 107.691C180.551 118.489 177.406 128.979 172.317 138.556C172.213 138.751 172.059 138.913 171.87 139.027C171.682 139.141 171.466 139.201 171.245 139.202Z" fill="url(#paint1_linear_5539_2116)"/>
<path d="M31.2146 143.474C31.0077 143.475 30.8041 143.422 30.6231 143.322C30.442 143.222 30.2895 143.078 30.1798 142.902C24.4526 133.561 20.6523 123.168 19.0026 112.335C17.353 101.503 17.8873 90.4498 20.5743 79.8269C20.6534 79.5138 20.8536 79.2448 21.131 79.0793C21.2684 78.9973 21.4206 78.9432 21.5788 78.9201C21.7371 78.8969 21.8984 78.9051 22.0534 78.9443C22.2085 78.9835 22.3544 79.0528 22.4826 79.1483C22.6109 79.2439 22.7191 79.3638 22.8011 79.5011C22.8831 79.6385 22.9372 79.7906 22.9603 79.9489C22.9835 80.1071 22.9752 80.2684 22.9361 80.4235C20.3284 90.7302 19.809 101.454 21.4085 111.965C23.008 122.475 26.6939 132.559 32.2494 141.624C32.4173 141.897 32.4705 142.226 32.3976 142.538C32.3246 142.85 32.1314 143.121 31.8599 143.292C31.6661 143.412 31.4426 143.475 31.2146 143.474Z" fill="url(#paint2_linear_5539_2116)"/>
<path d="M71.6081 93.3651C72.8256 97.4679 75.6622 100.451 80.6171 100.451C87.2278 100.451 92.2923 93.9617 92.2923 83.9422V83.3456C91.1717 85.426 89.4993 87.1573 87.459 88.3492C85.4187 89.5412 83.0893 90.1478 80.7267 90.1024C78.8664 90.1163 77.0225 89.755 75.3049 89.0402C73.5874 88.3254 72.0316 87.2718 70.7304 85.9422C69.4293 84.6126 68.4094 83.0344 67.7319 81.3019C67.0544 79.5693 66.733 77.718 66.7871 75.8584C66.7574 73.91 67.12 71.9755 67.8535 70.1701C68.5869 68.3648 69.6761 66.7255 71.0563 65.3498C72.4365 63.9742 74.0794 62.8904 75.8872 62.1629C77.6949 61.4354 79.6306 61.0791 81.5789 61.1153C92.5358 61.1153 97.4908 70.8548 97.4908 82.7491C97.4908 96.3356 90.2714 105.223 80.4467 105.223C73.0569 105.223 68.7593 101.23 66.921 95.3252L71.6081 93.3651ZM81.5789 85.3787C82.8649 85.3758 84.1374 85.1163 85.3219 84.6155C86.5064 84.1146 87.579 83.3824 88.4769 82.4618C89.3749 81.5412 90.0801 80.4506 90.5513 79.254C91.0225 78.0574 91.2501 76.7789 91.221 75.4932C91.1636 73.6114 90.5538 71.7881 89.4675 70.2504C88.3813 68.7127 86.8666 67.5286 85.1121 66.8456C83.3577 66.1627 81.4411 66.011 79.6011 66.4096C77.7611 66.8082 76.079 67.7393 74.7645 69.0871C73.4499 70.4348 72.561 72.1396 72.2084 73.989C71.8558 75.8383 72.0552 77.7506 72.7817 79.4874C73.5082 81.2243 74.7297 82.709 76.294 83.7566C77.8583 84.8042 79.6963 85.3683 81.5789 85.3787Z" fill="url(#paint3_linear_5539_2116)"/>
<path d="M118.396 61.1152C128.525 61.1152 134.661 70.1121 134.661 83.163C134.661 96.2138 128.574 105.223 118.396 105.223C108.218 105.223 102.07 96.1895 102.07 83.163C102.07 70.1364 108.206 61.1152 118.396 61.1152ZM118.396 100.207C125.311 100.207 129 93.1824 129 83.163C129 73.1435 125.348 66.1189 118.396 66.1189C111.445 66.1189 107.78 73.1557 107.78 83.163C107.78 93.1703 111.42 100.207 118.396 100.207Z" fill="url(#paint4_linear_5539_2116)"/>
<path d="M67.0703 115.364H73.6688C79.756 115.364 83.4083 119.102 83.4083 124.958C83.4083 130.813 79.756 134.551 73.6688 134.551H67.0703V115.364ZM73.6688 131.191C77.3211 131.191 79.5125 128.756 79.5125 124.97C79.5125 121.184 77.382 118.749 73.6323 118.749H70.9174V131.191H73.6688Z" fill="url(#paint5_linear_5539_2116)"/>
<path d="M94.8501 115.364L102.033 134.551H98.0519L96.5301 130.436H88.629L87.095 134.551H83.1992L90.3577 115.364H94.8501ZM89.8464 127.088H95.2762L92.5491 119.784L89.8464 127.088Z" fill="url(#paint6_linear_5539_2116)"/>
<path d="M113.369 115.364H117.533L110.618 126.747V134.551H106.685V126.747L99.7461 115.364H104.019L108.694 123.144L113.369 115.364Z" fill="url(#paint7_linear_5539_2116)"/>
<path d="M118.918 128.427C119.529 129.361 120.355 130.133 121.328 130.678C122.301 131.223 123.392 131.524 124.506 131.556C126.503 131.556 127.976 130.68 127.976 129.048C127.976 127.417 126.162 127.04 123.277 126.394C120.392 125.749 117.324 124.824 117.324 121.025C117.324 117.227 120.465 115.072 124.446 115.072C125.847 115.006 127.244 115.28 128.516 115.872C129.788 116.463 130.898 117.355 131.75 118.469L129.06 121.001C128.556 120.196 127.856 119.531 127.026 119.069C126.196 118.607 125.262 118.363 124.312 118.359C122.437 118.359 121.159 119.272 121.159 120.66C121.159 122.048 122.546 122.45 125.054 123.01C128.098 123.679 131.835 124.446 131.835 128.647C131.835 132.518 128.427 134.843 124.336 134.843C121.098 134.843 117.738 133.37 116.191 131.045L118.918 128.427Z" fill="url(#paint8_linear_5539_2116)"/>
<path d="M37.4715 154.297C36.8677 154.259 36.2822 154.075 35.7649 153.761C35.2477 153.447 34.814 153.013 34.5009 152.496C32.6383 149.902 33.2835 146.481 36.3149 144.339C39.3463 142.196 42.889 142.573 44.8369 145.288C45.532 146.174 45.9098 147.267 45.9098 148.393C45.9098 149.519 45.532 150.612 44.8369 151.497L42.7795 150.012C43.2326 149.57 43.5068 148.977 43.5494 148.346C43.5921 147.714 43.4003 147.09 43.0108 146.591C41.8908 145.033 39.7846 144.911 37.7637 146.36C35.7427 147.808 35.1705 149.866 36.3149 151.449C36.5107 151.741 36.7626 151.991 37.056 152.185C37.3493 152.379 37.6783 152.513 38.0238 152.578C38.3693 152.644 38.7244 152.64 39.0685 152.568C39.4125 152.495 39.7387 152.355 40.0281 152.155L38.2993 149.72L40.0281 148.502L43.1934 152.897L37.7637 156.793L36.534 154.979L37.4715 154.297Z" fill="url(#paint9_linear_5539_2116)"/>
<path d="M46.2028 158.802L51.0726 153.312L52.9596 154.992L48.0899 160.421C46.7142 161.955 46.8724 163.294 48.0168 164.293C49.1612 165.291 50.4517 165.328 51.8761 163.781L56.7458 158.352L58.6206 160.02L53.7509 165.51C53.3505 166.065 52.8318 166.523 52.2324 166.853C51.6329 167.182 50.9677 167.375 50.2849 167.415C49.6021 167.456 48.9187 167.345 48.2843 167.089C47.6499 166.833 47.0803 166.439 46.6168 165.936C46.0611 165.536 45.6016 165.017 45.2719 164.417C44.9422 163.817 44.7505 163.151 44.7109 162.468C44.6712 161.784 44.7845 161.101 45.0427 160.466C45.3008 159.832 45.6971 159.264 46.2028 158.802Z" fill="url(#paint10_linear_5539_2116)"/>
<path d="M67.8737 165.79L65.8527 178.695L63.637 177.477L64.0875 174.714L59.6925 172.279L57.5498 174.093L55.3828 172.876L65.3779 164.366L67.8737 165.79ZM61.4213 170.733L64.4283 172.437L65.2318 167.482L61.4213 170.733Z" fill="url(#paint11_linear_5539_2116)"/>
<path d="M74.7122 182.019L72.2773 181.301L75.8201 169.589L80.6168 171.038C83.3073 171.853 84.6099 173.631 83.8795 176.053C83.6784 176.853 83.202 177.556 82.5341 178.039C81.8662 178.522 81.0494 178.755 80.2272 178.695L81.749 184.162L79.0097 183.334L77.6219 178.16L75.9905 177.673L74.7122 182.019ZM78.9124 176.346C80.3124 176.772 81.2133 176.346 81.5298 175.347C81.8464 174.349 81.3107 173.46 79.9106 173.034L77.6462 172.352L76.6358 175.664L78.9124 176.346Z" fill="url(#paint12_linear_5539_2116)"/>
<path d="M96.1046 173.728L99.7569 186.28L97.2246 186.085L96.4576 183.394L91.4296 183.005L90.2122 185.549L87.7773 185.354L93.2801 173.509L96.1046 173.728ZM92.3427 180.947L95.7881 181.203L94.4245 176.333L92.3427 180.947Z" fill="url(#paint13_linear_5539_2116)"/>
<path d="M116.885 184.441L114.73 184.77L107.827 177.246L109.045 185.598L106.61 185.951L104.82 173.837L107.34 173.472L113.817 180.631L112.6 172.681L115.035 172.34L116.885 184.441Z" fill="url(#paint14_linear_5539_2116)"/>
<path d="M126.101 170.988L129.68 180.411L127.331 181.3L123.751 171.877L120.099 173.241L119.332 171.22L128.865 167.567L129.632 169.588L126.101 170.988Z" fill="url(#paint15_linear_5539_2116)"/>
<path d="M140.017 160.981L141.174 162.808L136.109 166.009L137.57 168.31L141.807 165.644L142.951 167.458L138.715 170.137L140.334 172.693L145.398 169.503L146.555 171.33L139.409 175.846L132.871 165.498L140.017 160.981Z" fill="url(#paint16_linear_5539_2116)"/>
<path d="M150.013 152.191L151.498 153.762L147.152 157.877L149.027 159.849L152.679 156.404L154.152 157.962L150.5 161.407L152.594 163.611L156.94 159.496L158.425 161.066L152.338 166.886L143.926 157.999L150.013 152.191Z" fill="url(#paint17_linear_5539_2116)"/>
<path d="M153.191 148.539L155.626 145.07C156.084 144.409 156.666 143.846 157.341 143.41C158.017 142.975 158.771 142.678 159.561 142.534C160.351 142.39 161.162 142.404 161.947 142.574C162.732 142.743 163.476 143.066 164.136 143.523C164.796 143.981 165.36 144.564 165.795 145.239C166.23 145.914 166.528 146.668 166.672 147.458C166.815 148.248 166.802 149.059 166.632 149.844C166.462 150.629 166.14 151.373 165.682 152.033L163.247 155.491L153.191 148.539ZM163.88 150.816C164.386 149.949 164.545 148.923 164.326 147.943C164.107 146.964 163.526 146.103 162.7 145.533C161.873 144.964 160.862 144.728 159.869 144.872C158.875 145.016 157.973 145.53 157.343 146.311L156.357 147.736L162.882 152.252L163.88 150.816Z" fill="url(#paint18_linear_5539_2116)"/>
<path d="M22.5352 61.7603L24.544 62.5881L22.2431 68.1153L24.7631 69.1622L26.6867 64.536L28.6711 65.3639L26.7963 69.9901L29.5964 71.2075L31.8851 65.6926L33.8817 66.5204L30.5947 74.2755L19.2969 69.5762L22.5352 61.7603Z" fill="url(#paint19_linear_5539_2116)"/>
<path d="M28.4875 51.4854L41.2584 54.2124L39.8949 56.3551L37.1557 55.7585L34.4408 60.0074L36.133 62.2475L34.7938 64.3414L26.9414 53.8959L28.4875 51.4854ZM33.0651 58.2056L34.9399 55.2837L30.0702 54.2246L33.0651 58.2056Z" fill="url(#paint20_linear_5539_2116)"/>
<path d="M40.503 49.1478C41.2005 49.2679 41.9166 49.2201 42.592 49.0084C43.2673 48.7967 43.8825 48.4272 44.3867 47.9304C45.2389 46.9808 45.458 45.9095 44.691 45.2155C43.924 44.5216 42.9744 45.2155 41.4283 46.2869C39.8822 47.3582 38.1169 48.4174 36.3272 46.786C34.5376 45.1546 34.8907 42.732 36.5951 40.8571C37.1677 40.1796 37.8943 39.6492 38.714 39.3103C39.5337 38.9714 40.4227 38.8339 41.3065 38.9092L41.4039 41.1615C40.8082 41.0577 40.1959 41.1035 39.6222 41.2947C39.0485 41.486 38.5312 41.8167 38.1169 42.2572C37.3012 43.1459 37.1794 44.132 37.8369 44.692C38.4943 45.252 39.2734 44.8016 40.6248 43.8642C42.244 42.7198 44.2162 41.2832 46.2006 43.0972C48.185 44.9112 47.6372 47.3704 45.8841 49.2939C45.2322 50.0462 44.4146 50.6368 43.4956 51.0192C42.5766 51.4015 41.5813 51.5653 40.5883 51.4975L40.503 49.1478Z" fill="url(#paint21_linear_5539_2116)"/>
<path d="M49.1614 29.6689L51.2432 28.0132L52.2902 36.45L55.3825 40.3458L53.4224 41.9041L50.3301 38.0083L42.3438 35.0743L44.4864 33.3821L49.9284 35.4152L49.1614 29.6689Z" fill="url(#paint22_linear_5539_2116)"/>
<path d="M70.4281 31.4587L64.2071 24.361L67.7133 32.6152L65.5462 33.5405L60.7617 22.2549L63.9636 20.8914L69.9777 27.8064L69.162 18.6878L72.3152 17.3486L77.0997 28.6221L74.9083 29.5473L71.4021 21.2931L72.1934 30.7039L70.4281 31.4587Z" fill="url(#paint23_linear_5539_2116)"/>
<path d="M83.2337 14.4876C86.5208 13.8302 89.4061 15.9242 90.1244 19.5522C90.8427 23.1801 88.9069 26.2115 85.6807 26.8568C82.4545 27.502 79.484 25.4202 78.7657 21.7922C78.0474 18.1643 79.9223 15.1451 83.2337 14.4876ZM83.6598 16.6425C81.7606 17.0199 80.7623 18.8461 81.2249 21.3053C81.6876 23.7645 83.3433 25.0793 85.2425 24.7019C87.1417 24.3245 88.1156 22.4984 87.6773 20.0391C87.2391 17.5799 85.5225 16.2773 83.6598 16.6425Z" fill="url(#paint24_linear_5539_2116)"/>
<path d="M104.71 25.1885H102.531L96.6754 16.8369L96.7972 25.2737H94.3623L94.1797 13.0994H96.712L102.203 21.037L102.081 13.0142H104.516L104.71 25.1885Z" fill="url(#paint25_linear_5539_2116)"/>
<path d="M118.748 14.9624L118.383 17.0564L112.49 16.0581L112.016 18.7973L116.958 19.6252L116.605 21.7435L111.663 20.9157L111.151 23.8984L117.056 24.9088L116.691 27.0394L108.363 25.5784L110.409 13.5137L118.748 14.9624Z" fill="url(#paint26_linear_5539_2116)"/>
<path d="M131.071 18.7848L133.591 19.6613L127.029 25.0668L125.41 29.7539L122.975 28.9382L124.618 24.2389L122.816 15.9238L125.397 16.8247L126.615 22.4858L131.071 18.7848Z" fill="url(#paint27_linear_5539_2116)"/>
<path d="M143.278 24.6167L147.503 27.3803C149.719 28.8412 150.266 30.5821 149.122 32.3352C148.825 32.8077 148.391 33.1778 147.877 33.3955C147.363 33.6132 146.795 33.6681 146.249 33.5527C146.664 34.0527 146.903 34.676 146.927 35.3256C146.951 35.9752 146.76 36.6145 146.383 37.1441C145.165 38.9337 143.205 39.1529 141.05 37.7285L136.57 34.7944L143.278 24.6167ZM139.736 34.417L142.049 35.9388C143.084 36.6084 143.984 36.4502 144.484 35.6588C144.983 34.8675 144.788 33.9909 143.753 33.3092L141.44 31.7874L139.736 34.417ZM144.605 31.41C145.652 32.0917 146.492 32.0796 147.04 31.2639C147.588 30.4482 147.247 29.669 146.212 28.9873L144.204 27.6725L142.609 30.1073L144.605 31.41Z" fill="url(#paint28_linear_5539_2116)"/>
<path d="M159.836 37.3633L154.772 49.4159L152.921 47.6628L154.017 45.094L150.365 41.6243L147.857 42.8418L146.043 41.1374L157.767 35.3789L159.836 37.3633ZM152.386 40.6139L154.906 42.9879L156.866 38.386L152.386 40.6139Z" fill="url(#paint29_linear_5539_2116)"/>
<path d="M160.715 53.8836C161.086 54.3906 161.625 54.7488 162.237 54.8938C162.848 55.0389 163.491 54.9613 164.05 54.6749L164.83 57.0246C163.788 57.4326 162.638 57.474 161.569 57.1422C160.501 56.8103 159.577 56.1249 158.949 55.1984C156.965 52.5566 157.61 49.1113 160.569 46.8468C163.527 44.5824 167.057 44.9963 169.091 47.6382C169.802 48.5023 170.199 49.5822 170.216 50.7012C170.234 51.8203 169.872 52.9122 169.188 53.7984L167.118 52.3618C167.552 51.904 167.807 51.3063 167.838 50.6767C167.87 50.0471 167.675 49.4271 167.289 48.9286C166.169 47.4312 164.087 47.3582 162.102 48.8434C160.118 50.3287 159.595 52.3618 160.715 53.8836Z" fill="url(#paint30_linear_5539_2116)"/>
<path d="M170.659 60.7988L177.757 62.5154L179.084 65.1329L172.351 63.3919L168.285 70.8913L166.97 68.2738L169.917 62.771L167.847 62.2232L164.718 63.8059L163.586 61.5658L174.543 56.063L175.675 58.2909L170.659 60.7988Z" fill="url(#paint31_linear_5539_2116)"/>
<path d="M99.9982 164.67C87.2077 164.67 74.7044 160.877 64.0695 153.771C53.4345 146.665 45.1456 136.565 40.2509 124.748C35.3561 112.931 34.0755 99.9284 36.5708 87.3837C39.0661 74.8389 45.2253 63.3158 54.2696 54.2715C63.3138 45.2273 74.8369 39.068 87.3817 36.5727C99.9265 34.0774 112.929 35.3581 124.746 40.2528C136.563 45.1475 146.663 53.4365 153.769 64.0714C160.875 74.7063 164.668 87.2096 164.668 100C164.649 117.146 157.829 133.584 145.705 145.707C133.582 157.831 117.144 164.651 99.9982 164.67ZM99.9982 37.7528C87.6887 37.7528 75.6557 41.4031 65.4209 48.2422C55.1861 55.0812 47.2093 64.8017 42.4992 76.1744C37.7892 87.5471 36.5574 100.061 38.9597 112.134C41.3621 124.207 47.2906 135.296 55.9956 143.999C64.7006 152.702 75.7909 158.629 87.8642 161.029C99.9374 163.429 112.451 162.195 123.823 157.482C135.195 152.77 144.914 144.791 151.751 134.555C158.588 124.319 162.236 112.285 162.233 99.9758C162.214 83.4771 155.651 67.6598 143.983 55.9946C132.316 44.3293 116.497 37.7689 99.9982 37.7528Z" fill="url(#paint32_linear_5539_2116)"/>
<defs>
<linearGradient id="paint0_linear_5539_2116" x1="55" y1="6.5" x2="150" y2="183.5" gradientUnits="userSpaceOnUse">
<stop stop-color="#DEB581"/>
<stop offset="1" stop-color="#685134"/>
</linearGradient>
<linearGradient id="paint1_linear_5539_2116" x1="173.305" y1="76.9094" x2="195.905" y2="84.6941" gradientUnits="userSpaceOnUse">
<stop stop-color="#DEB581"/>
<stop offset="1" stop-color="#685134"/>
</linearGradient>
<linearGradient id="paint2_linear_5539_2116" x1="22.0162" y1="81.0057" x2="48.0499" y2="91.7956" gradientUnits="userSpaceOnUse">
<stop stop-color="#DEB581"/>
<stop offset="1" stop-color="#685134"/>
</linearGradient>
<linearGradient id="paint3_linear_5539_2116" x1="75.2264" y1="62.5464" x2="99.5404" y2="94.0849" gradientUnits="userSpaceOnUse">
<stop stop-color="#DEB581"/>
<stop offset="1" stop-color="#685134"/>
</linearGradient>
<linearGradient id="paint4_linear_5539_2116" x1="111.033" y1="62.5487" x2="134.941" y2="95.4623" gradientUnits="userSpaceOnUse">
<stop stop-color="#DEB581"/>
<stop offset="1" stop-color="#685134"/>
</linearGradient>
<linearGradient id="paint5_linear_5539_2116" x1="71.5632" y1="115.988" x2="81.4295" y2="131.641" gradientUnits="userSpaceOnUse">
<stop stop-color="#DEB581"/>
<stop offset="1" stop-color="#685134"/>
</linearGradient>
<linearGradient id="paint6_linear_5539_2116" x1="88.3785" y1="115.988" x2="97.5851" y2="132.826" gradientUnits="userSpaceOnUse">
<stop stop-color="#DEB581"/>
<stop offset="1" stop-color="#685134"/>
</linearGradient>
<linearGradient id="paint7_linear_5539_2116" x1="104.637" y1="115.988" x2="114.121" y2="132.369" gradientUnits="userSpaceOnUse">
<stop stop-color="#DEB581"/>
<stop offset="1" stop-color="#685134"/>
</linearGradient>
<linearGradient id="paint8_linear_5539_2116" x1="120.494" y1="115.705" x2="130.971" y2="131.144" gradientUnits="userSpaceOnUse">
<stop stop-color="#DEB581"/>
<stop offset="1" stop-color="#685134"/>
</linearGradient>
<linearGradient id="paint9_linear_5539_2116" x1="36.8815" y1="143.408" x2="43.8191" y2="155.042" gradientUnits="userSpaceOnUse">
<stop stop-color="#DEB581"/>
<stop offset="1" stop-color="#685134"/>
</linearGradient>
<linearGradient id="paint10_linear_5539_2116" x1="48.5304" y1="153.77" x2="55.2848" y2="166.181" gradientUnits="userSpaceOnUse">
<stop stop-color="#DEB581"/>
<stop offset="1" stop-color="#685134"/>
</linearGradient>
<linearGradient id="paint11_linear_5539_2116" x1="58.8178" y1="164.831" x2="66.1105" y2="176.676" gradientUnits="userSpaceOnUse">
<stop stop-color="#DEB581"/>
<stop offset="1" stop-color="#685134"/>
</linearGradient>
<linearGradient id="paint12_linear_5539_2116" x1="75.5231" y1="170.062" x2="83.1724" y2="181.606" gradientUnits="userSpaceOnUse">
<stop stop-color="#DEB581"/>
<stop offset="1" stop-color="#685134"/>
</linearGradient>
<linearGradient id="paint13_linear_5539_2116" x1="91.0717" y1="173.924" x2="97.3471" y2="184.891" gradientUnits="userSpaceOnUse">
<stop stop-color="#DEB581"/>
<stop offset="1" stop-color="#685134"/>
</linearGradient>
<linearGradient id="paint14_linear_5539_2116" x1="108.138" y1="172.782" x2="115.013" y2="184.135" gradientUnits="userSpaceOnUse">
<stop stop-color="#DEB581"/>
<stop offset="1" stop-color="#685134"/>
</linearGradient>
<linearGradient id="paint15_linear_5539_2116" x1="122.178" y1="168.014" x2="129.575" y2="178.399" gradientUnits="userSpaceOnUse">
<stop stop-color="#DEB581"/>
<stop offset="1" stop-color="#685134"/>
</linearGradient>
<linearGradient id="paint16_linear_5539_2116" x1="136.634" y1="161.465" x2="144.007" y2="174.111" gradientUnits="userSpaceOnUse">
<stop stop-color="#DEB581"/>
<stop offset="1" stop-color="#685134"/>
</linearGradient>
<linearGradient id="paint17_linear_5539_2116" x1="147.913" y1="152.669" x2="154.944" y2="165.595" gradientUnits="userSpaceOnUse">
<stop stop-color="#DEB581"/>
<stop offset="1" stop-color="#685134"/>
</linearGradient>
<linearGradient id="paint18_linear_5539_2116" x1="156.926" y1="142.86" x2="162.99" y2="154.613" gradientUnits="userSpaceOnUse">
<stop stop-color="#DEB581"/>
<stop offset="1" stop-color="#685134"/>
</linearGradient>
<linearGradient id="paint19_linear_5539_2116" x1="23.3077" y1="62.167" x2="28.7285" y2="73.937" gradientUnits="userSpaceOnUse">
<stop stop-color="#DEB581"/>
<stop offset="1" stop-color="#685134"/>
</linearGradient>
<linearGradient id="paint20_linear_5539_2116" x1="30.8786" y1="51.9032" x2="36.6104" y2="63.7959" gradientUnits="userSpaceOnUse">
<stop stop-color="#DEB581"/>
<stop offset="1" stop-color="#685134"/>
</linearGradient>
<linearGradient id="paint21_linear_5539_2116" x1="38.5291" y1="39.2994" x2="44.6046" y2="50.3486" gradientUnits="userSpaceOnUse">
<stop stop-color="#DEB581"/>
<stop offset="1" stop-color="#685134"/>
</linearGradient>
<linearGradient id="paint22_linear_5539_2116" x1="45.9294" y1="28.4646" x2="52.7528" y2="40.3978" gradientUnits="userSpaceOnUse">
<stop stop-color="#DEB581"/>
<stop offset="1" stop-color="#685134"/>
</linearGradient>
<linearGradient id="paint23_linear_5539_2116" x1="65.2547" y1="17.8749" x2="72.9075" y2="32.262" gradientUnits="userSpaceOnUse">
<stop stop-color="#DEB581"/>
<stop offset="1" stop-color="#685134"/>
</linearGradient>
<linearGradient id="paint24_linear_5539_2116" x1="81.8199" y1="14.7774" x2="88.0576" y2="25.5278" gradientUnits="userSpaceOnUse">
<stop stop-color="#DEB581"/>
<stop offset="1" stop-color="#685134"/>
</linearGradient>
<linearGradient id="paint25_linear_5539_2116" x1="97.0757" y1="13.4126" x2="103.356" y2="23.4637" gradientUnits="userSpaceOnUse">
<stop stop-color="#DEB581"/>
<stop offset="1" stop-color="#685134"/>
</linearGradient>
<linearGradient id="paint26_linear_5539_2116" x1="111.219" y1="13.9533" x2="118.459" y2="24.3104" gradientUnits="userSpaceOnUse">
<stop stop-color="#DEB581"/>
<stop offset="1" stop-color="#685134"/>
</linearGradient>
<linearGradient id="paint27_linear_5539_2116" x1="125.779" y1="16.3733" x2="133.145" y2="27.0643" gradientUnits="userSpaceOnUse">
<stop stop-color="#DEB581"/>
<stop offset="1" stop-color="#685134"/>
</linearGradient>
<linearGradient id="paint28_linear_5539_2116" x1="140.182" y1="25.0731" x2="147.093" y2="37.1154" gradientUnits="userSpaceOnUse">
<stop stop-color="#DEB581"/>
<stop offset="1" stop-color="#685134"/>
</linearGradient>
<linearGradient id="paint29_linear_5539_2116" x1="149.836" y1="35.8351" x2="156.568" y2="48.1597" gradientUnits="userSpaceOnUse">
<stop stop-color="#DEB581"/>
<stop offset="1" stop-color="#685134"/>
</linearGradient>
<linearGradient id="paint30_linear_5539_2116" x1="161.221" y1="45.7646" x2="166.806" y2="56.535" gradientUnits="userSpaceOnUse">
<stop stop-color="#DEB581"/>
<stop offset="1" stop-color="#685134"/>
</linearGradient>
<linearGradient id="paint31_linear_5539_2116" x1="167.848" y1="56.5449" x2="174.717" y2="69.9209" gradientUnits="userSpaceOnUse">
<stop stop-color="#DEB581"/>
<stop offset="1" stop-color="#685134"/>
</linearGradient>
<linearGradient id="paint32_linear_5539_2116" x1="70.8967" y1="39.5336" x2="132.333" y2="154" gradientUnits="userSpaceOnUse">
<stop stop-color="#DEB581"/>
<stop offset="1" stop-color="#685134"/>
</linearGradient>
</defs>
</svg>
