<svg width="152" height="20" viewBox="0 0 152 20" fill="none" xmlns="http://www.w3.org/2000/svg">
<path d="M9.04894 2.92705C9.3483 2.00574 10.6517 2.00574 10.9511 2.92705L12.0206 6.21885C12.1545 6.63087 12.5385 6.90983 12.9717 6.90983H16.4329C17.4016 6.90983 17.8044 8.14945 17.0207 8.71885L14.2205 10.7533C13.87 11.0079 13.7234 11.4593 13.8572 11.8713L14.9268 15.1631C15.2261 16.0844 14.1717 16.8506 13.388 16.2812L10.5878 14.2467C10.2373 13.9921 9.7627 13.9921 9.41221 14.2467L6.61204 16.2812C5.82833 16.8506 4.77385 16.0844 5.0732 15.1631L6.14277 11.8713C6.27665 11.4593 6.12999 11.0079 5.7795 10.7533L2.97933 8.71885C2.19562 8.14945 2.59839 6.90983 3.56712 6.90983H7.02832C7.46154 6.90983 7.8455 6.63087 7.97937 6.21885L9.04894 2.92705Z" fill="#E0004D"/>
<path d="M29.0489 2.92705C29.3483 2.00574 30.6517 2.00574 30.9511 2.92705L32.0206 6.21885C32.1545 6.63087 32.5385 6.90983 32.9717 6.90983H36.4329C37.4016 6.90983 37.8044 8.14945 37.0207 8.71885L34.2205 10.7533C33.87 11.0079 33.7234 11.4593 33.8572 11.8713L34.9268 15.1631C35.2261 16.0844 34.1717 16.8506 33.388 16.2812L30.5878 14.2467C30.2373 13.9921 29.7627 13.9921 29.4122 14.2467L26.612 16.2812C25.8283 16.8506 24.7739 16.0844 25.0732 15.1631L26.1428 11.8713C26.2766 11.4593 26.13 11.0079 25.7795 10.7533L22.9793 8.71885C22.1956 8.14945 22.5984 6.90983 23.5671 6.90983H27.0283C27.4615 6.90983 27.8455 6.63087 27.9794 6.21885L29.0489 2.92705Z" fill="#E0004D"/>
<path d="M49.0489 2.92705C49.3483 2.00574 50.6517 2.00574 50.9511 2.92705L52.0206 6.21885C52.1545 6.63087 52.5385 6.90983 52.9717 6.90983H56.4329C57.4016 6.90983 57.8044 8.14945 57.0207 8.71885L54.2205 10.7533C53.87 11.0079 53.7234 11.4593 53.8572 11.8713L54.9268 15.1631C55.2261 16.0844 54.1717 16.8506 53.388 16.2812L50.5878 14.2467C50.2373 13.9921 49.7627 13.9921 49.4122 14.2467L46.612 16.2812C45.8283 16.8506 44.7739 16.0844 45.0732 15.1631L46.1428 11.8713C46.2766 11.4593 46.13 11.0079 45.7795 10.7533L42.9793 8.71885C42.1956 8.14945 42.5984 6.90983 43.5671 6.90983H47.0283C47.4615 6.90983 47.8455 6.63087 47.9794 6.21885L49.0489 2.92705Z" fill="#E0004D"/>
<path d="M69.0489 2.92705C69.3483 2.00574 70.6517 2.00574 70.9511 2.92705L72.0206 6.21885C72.1545 6.63087 72.5385 6.90983 72.9717 6.90983H76.4329C77.4016 6.90983 77.8044 8.14945 77.0207 8.71885L74.2205 10.7533C73.87 11.0079 73.7234 11.4593 73.8572 11.8713L74.9268 15.1631C75.2261 16.0844 74.1717 16.8506 73.388 16.2812L70.5878 14.2467C70.2373 13.9921 69.7627 13.9921 69.4122 14.2467L66.612 16.2812C65.8283 16.8506 64.7739 16.0844 65.0732 15.1631L66.1428 11.8713C66.2766 11.4593 66.13 11.0079 65.7795 10.7533L62.9793 8.71885C62.1956 8.14945 62.5984 6.90983 63.5671 6.90983H67.0283C67.4615 6.90983 67.8455 6.63087 67.9794 6.21885L69.0489 2.92705Z" fill="#E0004D"/>
<path d="M89.0489 2.92705C89.3483 2.00574 90.6517 2.00574 90.9511 2.92705L92.0206 6.21885C92.1545 6.63087 92.5385 6.90983 92.9717 6.90983H96.4329C97.4016 6.90983 97.8044 8.14945 97.0207 8.71885L94.2205 10.7533C93.87 11.0079 93.7234 11.4593 93.8572 11.8713L94.9268 15.1631C95.2261 16.0844 94.1717 16.8506 93.388 16.2812L90.5878 14.2467C90.2373 13.9921 89.7627 13.9921 89.4122 14.2467L86.612 16.2812C85.8283 16.8506 84.7739 16.0844 85.0732 15.1631L86.1428 11.8713C86.2766 11.4593 86.13 11.0079 85.7795 10.7533L82.9793 8.71885C82.1956 8.14945 82.5984 6.90983 83.5671 6.90983H87.0283C87.4615 6.90983 87.8455 6.63087 87.9794 6.21885L89.0489 2.92705Z" fill="#E0004D"/>
<path d="M118.297 17H116.695V13.634H110.449V12.284L116.119 4.076H118.315V12.194H120.817V13.634H118.297V17ZM112.213 12.194H116.677V5.732L112.213 12.194ZM121.68 17V14.876H123.732V17H121.68ZM129.746 3.878C132.104 3.878 133.868 5.264 133.868 7.334C133.868 8.63 133.13 9.638 131.834 10.142C133.382 10.61 134.534 11.798 134.534 13.436C134.534 15.704 132.518 17.18 129.746 17.18C126.992 17.18 124.976 15.704 124.976 13.436C124.976 11.798 126.128 10.61 127.658 10.142C126.38 9.638 125.642 8.63 125.642 7.334C125.642 5.264 127.406 3.878 129.746 3.878ZM129.746 9.458C131.276 9.458 132.302 8.63 132.302 7.352C132.302 6.092 131.276 5.246 129.746 5.246C128.234 5.246 127.19 6.092 127.19 7.352C127.19 8.63 128.234 9.458 129.746 9.458ZM129.746 10.88C127.928 10.88 126.668 11.888 126.668 13.328C126.668 14.804 127.928 15.812 129.746 15.812C131.564 15.812 132.86 14.804 132.86 13.328C132.86 11.888 131.564 10.88 129.746 10.88ZM134.827 18.764L140.047 3.716H141.703L136.483 18.764H134.827ZM144.49 10.988L142.906 10.718L143.464 4.076H150.502V5.588H144.796L144.454 9.494C145.012 8.936 145.894 8.486 147.028 8.486C149.548 8.486 151.204 10.358 151.204 12.806C151.204 15.254 149.278 17.198 146.686 17.198C144.256 17.198 142.492 15.83 142.042 13.382L143.698 13.04C143.968 14.696 145.084 15.758 146.686 15.758C148.324 15.758 149.584 14.498 149.584 12.842C149.584 11.204 148.468 9.89 146.83 9.89C145.75 9.89 144.922 10.376 144.49 10.988Z" fill="#888888"/>
</svg>
