<svg width="70" height="50" viewBox="0 0 70 50" fill="none" xmlns="http://www.w3.org/2000/svg">
<path d="M21.1523 2.06738L23.2991 8.40751" stroke="white" stroke-miterlimit="10" stroke-linecap="round"/>
<path d="M28.7227 0.833496V7.52219" stroke="white" stroke-miterlimit="10" stroke-linecap="round"/>
<path d="M14.3789 5.50098L18.4455 10.8237" stroke="white" stroke-miterlimit="10" stroke-linecap="round"/>
<path d="M36.478 2.10059L34.1562 8.37476" stroke="white" stroke-miterlimit="10" stroke-linecap="round"/>
<path d="M42.9618 5.60938L38.8242 10.8755" stroke="white" stroke-miterlimit="10" stroke-linecap="round"/>
<path d="M48.148 10.9604L42.8047 15.0066" stroke="white" stroke-miterlimit="10" stroke-linecap="round"/>
<path d="M51.7397 17.7109L45.375 19.8447" stroke="white" stroke-miterlimit="10" stroke-linecap="round"/>
<path d="M53.0107 25.4304L46.3008 25.2373" stroke="white" stroke-miterlimit="10" stroke-linecap="round"/>
<path d="M51.7457 32.6753L45.4141 30.4473" stroke="white" stroke-miterlimit="10" stroke-linecap="round"/>
<path d="M22.2491 45.3436C22.5158 45.4153 22.7901 45.2572 22.8618 44.9906C22.9335 44.7239 22.7754 44.4496 22.5087 44.3779L22.2491 45.3436ZM11.8294 13.6265C11.4295 13.3264 11.4293 13.3266 11.4291 13.3268C11.429 13.3269 11.4288 13.3272 11.4287 13.3274C11.4283 13.3279 11.4278 13.3285 11.4273 13.3292C11.4262 13.3307 11.4248 13.3326 11.423 13.3351C11.4194 13.3399 11.4143 13.3468 11.4079 13.3556C11.3951 13.3732 11.3768 13.3985 11.3536 13.4315C11.307 13.4974 11.2405 13.5938 11.1578 13.7191C10.9924 13.9697 10.7623 14.3365 10.4983 14.8078C9.97061 15.75 9.30588 17.113 8.75282 18.8037C7.64648 22.1857 6.98331 26.8929 8.77418 32.1578L9.72091 31.8358C8.01732 26.8275 8.64506 22.3495 9.70326 19.1146C10.2325 17.4969 10.8684 16.1935 11.3708 15.2965C11.6219 14.8482 11.8392 14.5021 11.9924 14.2698C12.0691 14.1537 12.1297 14.066 12.1704 14.0083C12.1908 13.9795 12.2062 13.9581 12.2162 13.9444C12.2212 13.9376 12.2248 13.9327 12.227 13.9297C12.2281 13.9282 12.2288 13.9272 12.2292 13.9267C12.2294 13.9264 12.2295 13.9263 12.2295 13.9263C12.2295 13.9262 12.2295 13.9263 12.2295 13.9263C12.2294 13.9264 12.2293 13.9266 11.8294 13.6265ZM8.77418 32.1578C10.5648 37.4221 13.9312 40.7186 16.8428 42.695C18.2981 43.6828 19.6421 44.3426 20.6245 44.7563C21.116 44.9632 21.5177 45.1088 21.7987 45.2033C21.9391 45.2505 22.0495 45.285 22.1259 45.308C22.164 45.3194 22.1937 45.3281 22.2144 45.3339C22.2248 45.3369 22.2329 45.3391 22.2387 45.3408C22.2416 45.3416 22.2439 45.3422 22.2457 45.3427C22.2465 45.3429 22.2473 45.3431 22.2478 45.3433C22.2481 45.3433 22.2484 45.3434 22.2486 45.3435C22.2489 45.3435 22.2491 45.3436 22.3789 44.8608C22.5087 44.3779 22.5089 44.3779 22.5091 44.378C22.5091 44.378 22.5092 44.378 22.5092 44.378C22.5091 44.378 22.509 44.378 22.5087 44.3779C22.5081 44.3777 22.5069 44.3774 22.5052 44.3769C22.5017 44.376 22.4959 44.3743 22.4879 44.3721C22.472 44.3675 22.4471 44.3603 22.4138 44.3503C22.3473 44.3303 22.2472 44.2991 22.1174 44.2554C21.8576 44.1681 21.4792 44.0311 21.0126 43.8346C20.0789 43.4415 18.7952 42.8116 17.4045 41.8676C14.624 39.9802 11.4247 36.8447 9.72091 31.8358L8.77418 32.1578Z" fill="white"/>
<path d="M6.92416 15.2858L12.5633 11.1596L13.6989 18.2785L6.92416 15.2858Z" fill="white"/>
<path d="M28.6721 26.3302C29.2568 26.3302 29.7309 25.8602 29.7309 25.2803C29.7309 24.7005 29.2568 24.2305 28.6721 24.2305C28.0873 24.2305 27.6133 24.7005 27.6133 25.2803C27.6133 25.8602 28.0873 26.3302 28.6721 26.3302Z" stroke="white" stroke-miterlimit="10"/>
<path d="M28.7227 12.8428L28.8165 22.9982" stroke="white" stroke-miterlimit="10" stroke-linecap="round"/>
<path d="M40.8775 25.3369H30.4609" stroke="white" stroke-miterlimit="10" stroke-linecap="round"/>
<path d="M31.7089 47H30.6409V44.756H26.4769V43.856L30.2569 38.384H31.7209V43.796H33.3889V44.756H31.7089V47ZM27.6529 43.796H30.6289V39.488L27.6529 43.796ZM39.9349 40.724H40.8469L42.1429 45.404L43.4509 40.724H44.5309L42.6229 47H41.6749L40.3669 42.344L39.0589 47H38.1109L36.2029 40.724H37.3189L38.6389 45.392L39.9349 40.724ZM47.9744 47.132C46.2344 47.132 45.0344 45.8 45.0344 43.868C45.0344 41.996 46.2224 40.604 47.9264 40.604C49.6784 40.604 50.6024 41.936 50.6024 43.676V44.036H46.0664C46.1264 45.356 46.8824 46.196 47.9744 46.196C48.8144 46.196 49.4144 45.74 49.6064 44.996L50.5544 45.332C50.1704 46.448 49.2224 47.132 47.9744 47.132ZM47.9144 41.528C47.0024 41.528 46.3184 42.14 46.1264 43.208H49.5104C49.4864 42.32 49.0064 41.528 47.9144 41.528ZM54.4549 47.132C52.7149 47.132 51.5149 45.8 51.5149 43.868C51.5149 41.996 52.7029 40.604 54.4069 40.604C56.1589 40.604 57.0829 41.936 57.0829 43.676V44.036H52.5469C52.6069 45.356 53.3629 46.196 54.4549 46.196C55.2949 46.196 55.8949 45.74 56.0869 44.996L57.0349 45.332C56.6509 46.448 55.7029 47.132 54.4549 47.132ZM54.3949 41.528C53.4829 41.528 52.7989 42.14 52.6069 43.208H55.9909C55.9669 42.32 55.4869 41.528 54.3949 41.528ZM59.5073 38.384V43.652L62.2913 40.724H63.6353L61.1873 43.196L63.8393 47H62.5793L60.4193 43.976L59.5073 44.9V47H58.4273V38.384H59.5073ZM64.0712 45.668L64.9112 45.056C65.2472 45.788 66.0152 46.232 66.8312 46.232C67.5632 46.232 68.2112 45.92 68.2112 45.236C68.2112 44.552 67.6112 44.456 66.5792 44.24C65.5472 44.012 64.4672 43.784 64.4672 42.5C64.4672 41.384 65.4392 40.604 66.7712 40.604C67.8992 40.604 68.8232 41.156 69.1952 41.9L68.4272 42.512C68.1032 41.888 67.5152 41.492 66.7232 41.492C66.0032 41.492 65.5232 41.852 65.5232 42.416C65.5232 43.004 66.0752 43.112 66.9512 43.304C68.0312 43.556 69.2672 43.772 69.2672 45.14C69.2672 46.34 68.1752 47.132 66.8312 47.132C65.6912 47.132 64.5512 46.64 64.0712 45.668Z" fill="white"/>
</svg>
