<svg width="106" height="19" viewBox="0 0 106 19" fill="none" xmlns="http://www.w3.org/2000/svg">
<path d="M8.90489 1.29271C8.93483 1.20057 9.06517 1.20057 9.09511 1.29271L10.9982 7.14975C11.0116 7.19095 11.05 7.21885 11.0933 7.21885H17.2517C17.3486 7.21885 17.3889 7.34281 17.3105 7.39975L12.3282 11.0196C12.2932 11.0451 12.2785 11.0902 12.2919 11.1314L14.195 16.9884C14.2249 17.0806 14.1194 17.1572 14.0411 17.1003L9.05878 13.4804C9.02373 13.4549 8.97627 13.4549 8.94122 13.4804L3.95892 17.1003C3.88055 17.1572 3.7751 17.0806 3.80504 16.9884L5.70811 11.1314C5.72149 11.0902 5.70683 11.0451 5.67178 11.0196L0.689482 7.39975C0.61111 7.34281 0.651388 7.21885 0.74826 7.21885H6.90672C6.95004 7.21885 6.98844 7.19095 7.00183 7.14975L8.90489 1.29271Z" fill="#DBA25B" stroke="#DBA25B"/>
<path d="M30.9049 1.29271C30.9348 1.20057 31.0652 1.20057 31.0951 1.29271L32.9982 7.14975C33.0116 7.19095 33.05 7.21885 33.0933 7.21885H39.2517C39.3486 7.21885 39.3889 7.34281 39.3105 7.39975L34.3282 11.0196C34.2932 11.0451 34.2785 11.0902 34.2919 11.1314L36.195 16.9884C36.2249 17.0806 36.1194 17.1572 36.0411 17.1003L31.0588 13.4804C31.0237 13.4549 30.9763 13.4549 30.9412 13.4804L25.9589 17.1003C25.8806 17.1572 25.7751 17.0806 25.805 16.9884L27.7081 11.1314C27.7215 11.0902 27.7068 11.0451 27.6718 11.0196L22.6895 7.39975C22.6111 7.34281 22.6514 7.21885 22.7483 7.21885H28.9067C28.95 7.21885 28.9884 7.19095 29.0018 7.14975L30.9049 1.29271Z" fill="#DBA25B" stroke="#DBA25B"/>
<path d="M52.9049 1.29271C52.9348 1.20057 53.0652 1.20057 53.0951 1.29271L54.9982 7.14975C55.0116 7.19095 55.05 7.21885 55.0933 7.21885H61.2517C61.3486 7.21885 61.3889 7.34281 61.3105 7.39975L56.3282 11.0196C56.2932 11.0451 56.2785 11.0902 56.2919 11.1314L58.195 16.9884C58.2249 17.0806 58.1194 17.1572 58.0411 17.1003L53.0588 13.4804C53.0237 13.4549 52.9763 13.4549 52.9412 13.4804L47.9589 17.1003C47.8806 17.1572 47.7751 17.0806 47.805 16.9884L49.7081 11.1314C49.7215 11.0902 49.7068 11.0451 49.6718 11.0196L44.6895 7.39975C44.6111 7.34281 44.6514 7.21885 44.7483 7.21885H50.9067C50.95 7.21885 50.9884 7.19095 51.0018 7.14975L52.9049 1.29271Z" fill="#DBA25B" stroke="#DBA25B"/>
<path d="M74.9049 1.29271C74.9348 1.20057 75.0652 1.20057 75.0951 1.29271L76.9982 7.14975C77.0116 7.19095 77.05 7.21885 77.0933 7.21885H83.2517C83.3486 7.21885 83.3889 7.34281 83.3105 7.39975L78.3282 11.0196C78.2932 11.0451 78.2785 11.0902 78.2919 11.1314L80.195 16.9884C80.2249 17.0806 80.1194 17.1572 80.0411 17.1003L75.0588 13.4804C75.0237 13.4549 74.9763 13.4549 74.9412 13.4804L69.9589 17.1003C69.8806 17.1572 69.7751 17.0806 69.805 16.9884L71.7081 11.1314C71.7215 11.0902 71.7068 11.0451 71.6718 11.0196L66.6895 7.39975C66.6111 7.34281 66.6514 7.21885 66.7483 7.21885H72.9067C72.95 7.21885 72.9884 7.19095 73.0018 7.14975L74.9049 1.29271Z" fill="#DBA25B" stroke="#DBA25B"/>
<path d="M96.9049 1.29271C96.9348 1.20057 97.0652 1.20057 97.0951 1.29271L98.9982 7.14975C99.0116 7.19095 99.05 7.21885 99.0933 7.21885H105.252C105.349 7.21885 105.389 7.34281 105.311 7.39975L100.328 11.0196C100.293 11.0451 100.279 11.0902 100.292 11.1314L102.195 16.9884C102.225 17.0806 102.119 17.1572 102.041 17.1003L97.0588 13.4804C97.0237 13.4549 96.9763 13.4549 96.9412 13.4804L91.9589 17.1003C91.8806 17.1572 91.7751 17.0806 91.805 16.9884L93.7081 11.1314C93.7215 11.0902 93.7068 11.0451 93.6718 11.0196L88.6895 7.39975C88.6111 7.34281 88.6514 7.21885 88.7483 7.21885H94.9067C94.95 7.21885 94.9884 7.19095 95.0018 7.14975L96.9049 1.29271Z" stroke="#DBA25B"/>
<path d="M96.8048 1.60047C96.84 1.49217 96.9999 1.5175 96.9999 1.63137L96.9999 7V9.5L96.9999 10.5V13V13.3867C96.9999 13.4188 96.9846 13.4488 96.9587 13.4676L91.9589 17.1003C91.8805 17.1572 91.775 17.0806 91.805 16.9884L93.708 11.1314C93.7214 11.0902 93.7068 11.0451 93.6717 11.0196L88.6894 7.39975C88.611 7.34281 88.6513 7.21885 88.7482 7.21885H94.9067C94.95 7.21885 94.9884 7.19095 95.0018 7.14975L96.8048 1.60047Z" fill="#DBA25B" stroke="#DBA25B"/>
</svg>
