<svg width="117" height="128" viewBox="0 0 117 128" fill="none" xmlns="http://www.w3.org/2000/svg">
<path d="M9.36 119L24.4 33.56H0.0800002L2 23.32C24.4 23 27.6 21.08 32.72 3.64H42.96L22.64 119H9.36Z" fill="#E0004D"/>
<path d="M33 63.1702C33 61.4194 34.6342 60 36.65 60H102.35C104.366 60 106 61.4194 106 63.1702V108.83C106 110.581 104.366 112 102.35 112H36.65C34.6342 112 33 110.581 33 108.83V63.1702Z" fill="white" stroke="#190A0A" stroke-width="2" stroke-linejoin="round"/>
<path d="M33 69H106H33Z" fill="white"/>
<path d="M33 69H106" stroke="#190A0A" stroke-width="2" stroke-linecap="round" stroke-linejoin="round"/>
<path d="M84.2199 90.6289C84.2199 99.2508 77.2215 106.258 68.61 106.258C59.9985 106.258 53 99.2508 53 90.6289C53 82.0069 59.9985 75 68.61 75C77.2215 75 84.2199 82.0069 84.2199 90.6289Z" fill="#D9D9D9" stroke="#190A0A" stroke-width="2" stroke-linecap="round" stroke-linejoin="round"/>
<path d="M64.4 92.1V90.66H65.98C65.54 89.84 65.14 89 65.14 88C65.14 85.4 67.04 83.42 69.84 83.42C72.54 83.42 74.3 85.32 74.3 87.9C74.3 88.48 74.22 88.98 74.02 89.58H72.26C72.48 89.06 72.58 88.48 72.58 88C72.58 86.32 71.62 85.02 69.84 85.02C68.08 85.02 66.94 86.3 66.94 88.08C66.94 89.06 67.36 89.84 67.8 90.66H70.96V92.1H68.46C68.64 92.62 68.76 93.18 68.76 93.86C68.76 94.26 68.7 94.7 68.6 95.12C69.5 95.84 70.36 96.54 71.48 96.54C72.74 96.54 73.28 95.76 73.32 94.2H74.92C74.92 96.62 73.7 98.22 71.72 98.22C70.12 98.22 69 97.36 68.06 96.52C67.52 97.5 66.64 98.22 65.46 98.22C64.1 98.22 63.08 97.34 63.1 95.96C63.1 94.66 64.14 93.7 65.6 93.7C66.2 93.7 66.72 93.88 67.22 94.14V93.96C67.22 93.28 67.02 92.68 66.74 92.1H64.4ZM64.56 95.94C64.56 96.5 64.96 96.86 65.5 96.86C66.22 96.86 66.7 96.3 66.96 95.56C66.52 95.22 66.08 94.98 65.62 94.98C65 94.98 64.56 95.32 64.56 95.94Z" fill="#190A0A"/>
</svg>
