<svg width="116" height="128" viewBox="0 0 116 128" fill="none" xmlns="http://www.w3.org/2000/svg">
<path d="M3.4 119L5.48 107.32L53.8 70.2C72.2 56.12 81.96 45.56 81.96 32.12C81.96 21.08 74.12 14.2 61 14.2C44.68 14.2 33.64 25.88 33 43.64H19.72C21.48 18.84 38.6 2.35999 61.16 2.35999C81.96 2.35999 95.56 14.36 95.56 31.48C95.56 51.32 78.28 66.52 61.32 79.48L25.16 107.16H82.6L80.52 119H3.4Z" fill="#E0004D"/>
<path d="M70.2321 113.751C69.601 113.3 69.5108 112.939 69.5108 112.939C69.06 111.587 69.06 109.062 68.6993 103.833C68.3386 98.6029 69.4206 85.3034 69.4206 85.3034C69.8814 76.2868 69.0374 64.6554 68.4405 55.2754C67.8436 45.8955 68.7336 41.0473 69.8047 38.3269C70.9931 35.3064 74.4456 32.7817 74.4456 32.7817H90.8143C90.8143 32.7817 94.2668 35.3064 95.456 38.3269C96.5272 41.0473 97.4163 45.8955 96.8203 55.2754C96.2234 64.6554 95.3794 76.2868 95.8402 85.3034C95.8402 85.3034 96.9221 98.6029 96.5615 103.833C96.2008 109.062 96.2008 111.587 95.75 112.939C95.75 112.939 95.6598 113.3 95.0287 113.751C95.0287 113.751 94.4687 118.516 88.9875 120.784C87.1031 121.564 84.6794 121.605 83.473 121.567C83.1367 121.556 82.3964 121.557 82.0249 121.567C80.7211 121.604 78.1496 121.559 76.2741 120.784C70.793 118.516 70.233 113.751 70.233 113.751H70.2321Z" fill="white"/>
<path d="M94.6229 113.941C94.6229 113.941 92.7831 115.299 91.2791 117.555C90.196 119.182 88.7488 120.355 88.7488 120.355C88.7488 120.355 86.6725 121.934 82.2881 121.731C82.2881 121.731 85.9488 122.072 88.5691 120.988C94.0649 118.713 94.6229 113.941 94.6229 113.941ZM94.6229 113.941C95.2567 113.487 95.3466 113.128 95.3466 113.128C95.8006 111.77 95.8006 109.24 96.1601 104C96.5195 98.7593 95.4364 85.4265 95.4364 85.4265C94.9729 76.3882 95.8195 64.7298 96.4202 55.3273C97.0161 45.9248 96.127 41.0675 95.0533 38.3385C93.8615 35.3116 90.3994 32.7812 90.3994 32.7812H77.8659H77.27" stroke="#190A0A" stroke-width="1.5" stroke-linecap="round" stroke-linejoin="round"/>
<path d="M69.7691 113.941C69.7691 113.941 71.6089 115.299 73.1129 117.555C74.196 119.182 75.6432 120.355 75.6432 120.355C75.6432 120.355 78.0364 121.934 82.4208 121.731C82.4208 121.731 78.4432 122.072 75.823 120.988C70.3272 118.713 69.7691 113.941 69.7691 113.941ZM69.7691 113.941C69.1353 113.487 69.0454 113.128 69.0454 113.128C68.5914 111.77 68.5914 109.24 68.2319 104C67.8725 98.7593 68.9556 85.4265 68.9556 85.4265C69.4191 76.3882 68.5725 64.7298 67.9718 55.3273C67.3759 45.9248 68.2651 41.0675 69.3387 38.3385C70.5305 35.3116 73.9926 32.7812 73.9926 32.7812H86.5261H87.122" stroke="#190A0A" stroke-width="1.5" stroke-linecap="round" stroke-linejoin="round"/>
<path d="M75.8796 35.9027C75.8796 35.9027 73.2594 41.0532 72.8952 52.4421C72.5641 62.9277 73.8884 80.9096 73.8884 80.9096C73.8884 80.9096 75.085 96.9335 75.5154 103.64C75.9694 110.687 76.2768 118.912 76.2768 120.719C76.2768 120.719 76.9106 121.665 82.2834 121.665C86.7624 121.665 88.5691 120.771 88.5691 120.771C88.5691 118.964 88.7488 110.687 89.2029 103.635C89.6569 96.5835 90.8298 80.9049 90.8298 80.9049C90.8298 80.9049 92.1589 62.9229 91.8231 52.4374C91.4636 41.0485 88.8387 35.8979 88.8387 35.8979" fill="white"/>
<path d="M75.8796 35.9027C75.8796 35.9027 73.2594 41.0532 72.8952 52.4421C72.5641 62.9277 73.8884 80.9096 73.8884 80.9096C73.8884 80.9096 75.085 96.9335 75.5154 103.64C75.9694 110.687 76.2768 118.912 76.2768 120.719C76.2768 120.719 76.9106 121.665 82.2834 121.665C86.7624 121.665 88.5691 120.771 88.5691 120.771C88.5691 118.964 88.7488 110.687 89.2029 103.635C89.6569 96.5835 90.8298 80.9049 90.8298 80.9049C90.8298 80.9049 92.1589 62.9229 91.8231 52.4374C91.4636 41.0485 88.8387 35.8979 88.8387 35.8979" stroke="#190A0A" stroke-width="1.5" stroke-linecap="round" stroke-linejoin="round"/>
<path d="M94.1264 36.6688C92.0028 35.7181 82.4206 35.7134 82.4206 35.7134H82.2834C82.2834 35.7134 72.706 35.7134 70.5776 36.6688" stroke="#190A0A" stroke-width="1.5" stroke-linecap="round" stroke-linejoin="round"/>
<path d="M81.7018 65.2876C81.7018 65.2876 81.6971 65.2876 81.6923 65.2876C81.6923 65.2876 81.6923 65.2876 81.6876 65.2876H81.6829V65.2782C81.6829 65.2782 81.6829 65.2782 81.6829 65.2734C81.6829 65.2734 81.6829 65.2687 81.6829 65.264C81.6829 65.264 81.6829 65.264 81.6829 65.2592C81.6829 65.2592 81.6829 65.2545 81.6829 65.2498C81.6829 65.2498 81.6829 65.2498 81.6829 65.245V65.2356C81.6829 65.2356 81.6829 65.2356 81.6829 65.2309C81.6829 65.2309 81.6829 65.2261 81.6829 65.2214C81.6829 65.2214 81.6829 65.2214 81.6829 65.2167C81.6829 65.2167 81.6829 65.2167 81.6829 65.2119C81.6829 65.2119 81.6829 65.2119 81.6829 65.2072C81.6829 65.2072 81.6829 65.2072 81.6829 65.2025C81.6829 65.2025 81.6829 65.2025 81.6876 65.2025H81.6923C81.6923 65.2025 81.6923 65.2025 81.6923 65.1978C81.6923 65.1978 81.6923 65.1978 81.697 65.1978C81.697 65.1978 81.7018 65.1978 81.7065 65.1978C81.7065 65.1978 81.7112 65.1978 81.716 65.1978C81.716 65.1978 81.7207 65.1978 81.7254 65.1978C81.7254 65.1978 81.7254 65.1978 81.7302 65.1978C81.7302 65.1978 81.7349 65.1978 81.7396 65.1978H81.7491C81.7491 65.1978 81.7538 65.1978 81.7585 65.1978C81.7585 65.1978 81.7585 65.1978 81.7633 65.1978C81.7633 65.1978 81.7633 65.1978 81.768 65.1978C81.768 65.1978 81.768 65.1978 81.7727 65.1978H81.7775V65.2072C81.7775 65.2072 81.7775 65.2072 81.7775 65.2119C81.7775 65.2119 81.7775 65.2119 81.7775 65.2167C81.7775 65.2167 81.7775 65.2167 81.7775 65.2214C81.7775 65.2214 81.7775 65.2214 81.7775 65.2261C81.7775 65.2261 81.7775 65.2309 81.7775 65.2356C81.7775 65.2356 81.7775 65.2403 81.7775 65.245C81.7775 65.245 81.7775 65.245 81.7775 65.2498C81.7775 65.2498 81.7775 65.2545 81.7775 65.2592V65.2734C81.7775 65.2734 81.7775 65.2782 81.7775 65.2829C81.7775 65.2829 81.7775 65.2829 81.7775 65.2876C81.7775 65.2876 81.7775 65.2876 81.7775 65.2923V65.3018C81.7775 65.3018 81.7775 65.3018 81.7775 65.3065C81.7775 65.3065 81.7775 65.3065 81.7775 65.3113C81.7775 65.3113 81.7775 65.3113 81.7775 65.316C81.7775 65.316 81.7775 65.3207 81.7727 65.3255C81.7727 65.3255 81.768 65.3255 81.7633 65.3302C81.7633 65.3302 81.7633 65.3302 81.7585 65.3302C81.7585 65.3302 81.7538 65.3302 81.7491 65.3302C81.7491 65.3302 81.7444 65.3302 81.7396 65.3302C81.7396 65.3302 81.7349 65.3302 81.7302 65.3302C81.7302 65.3302 81.7302 65.3302 81.7254 65.3302H81.7207C81.7207 65.3302 81.7207 65.3302 81.716 65.3302C81.716 65.3302 81.7112 65.3302 81.7065 65.3302H81.697L81.7018 65.2876Z" fill="#E0004D"/>
<path d="M81.1151 65.2879C81.1151 65.2879 81.1104 65.2879 81.1057 65.2879H81.0962V65.2832H81.0915C81.0915 65.2832 81.0915 65.2832 81.0915 65.2784C81.0915 65.2784 81.0915 65.2784 81.0868 65.2784H81.082V65.269C81.082 65.269 81.082 65.269 81.082 65.2642C81.082 65.2642 81.082 65.2642 81.082 65.2595C81.082 65.2595 81.082 65.2595 81.082 65.2548C81.082 65.2548 81.082 65.25 81.082 65.2453C81.082 65.2453 81.082 65.2359 81.082 65.2311V65.2169V65.2027C81.082 65.2027 81.082 65.198 81.082 65.1933C81.082 65.1933 81.082 65.1933 81.082 65.1886C81.082 65.1886 81.082 65.1838 81.082 65.1791C81.082 65.1791 81.082 65.1744 81.082 65.1696C81.082 65.1696 81.082 65.1696 81.082 65.1649C81.082 65.1649 81.082 65.1649 81.082 65.1602C81.082 65.1602 81.082 65.1602 81.082 65.1555C81.082 65.1555 81.0868 65.1555 81.0915 65.1507H81.0962C81.0962 65.1507 81.0962 65.1507 81.0962 65.146C81.0962 65.146 81.0962 65.146 81.1009 65.146H81.1104C81.1104 65.146 81.1151 65.146 81.1199 65.146C81.1199 65.146 81.1199 65.146 81.1246 65.146C81.1246 65.146 81.1293 65.146 81.1341 65.146C81.1341 65.146 81.1341 65.146 81.1388 65.146C81.1388 65.146 81.1388 65.146 81.1435 65.146C81.1435 65.146 81.1482 65.146 81.153 65.146H81.1624C81.1624 65.146 81.1672 65.146 81.1719 65.146H81.1766V65.1555C81.1766 65.1555 81.1766 65.1555 81.1766 65.1602C81.1766 65.1602 81.1766 65.1602 81.1766 65.1649C81.1766 65.1649 81.1766 65.1649 81.1766 65.1696C81.1766 65.1696 81.1766 65.1696 81.1766 65.1744C81.1766 65.1744 81.1766 65.1791 81.1766 65.1838C81.1766 65.1838 81.1766 65.1838 81.1766 65.1886C81.1766 65.1886 81.1766 65.1933 81.1766 65.198V65.2075C81.1766 65.2075 81.1766 65.2075 81.1766 65.2122C81.1766 65.2122 81.1766 65.2169 81.1766 65.2217V65.2311H81.1719C81.1719 65.2311 81.1719 65.2311 81.1719 65.2359C81.1719 65.2359 81.1719 65.2453 81.1672 65.25C81.1672 65.25 81.1672 65.25 81.1624 65.25H81.1577C81.1577 65.25 81.1577 65.25 81.1577 65.2548H81.1482V65.2595H81.1388C81.1388 65.2595 81.1341 65.2595 81.1293 65.2595C81.1293 65.2595 81.1293 65.2595 81.1246 65.2595C81.1246 65.2595 81.1199 65.2595 81.1151 65.2595C81.1151 65.2595 81.1151 65.2595 81.1104 65.2595C81.1104 65.2595 81.1104 65.2595 81.1057 65.2595C81.1057 65.2595 81.1009 65.2595 81.0962 65.2595H81.0868L81.1151 65.2879Z" fill="#E0004D"/>
<path d="M83.4896 65.2923C83.4896 65.2923 83.4896 65.2923 83.4943 65.2923C83.4943 65.2923 83.499 65.2923 83.5038 65.2923H83.5132C83.5132 65.2923 83.518 65.2923 83.5227 65.2923H83.5322V65.2876H83.5369C83.5369 65.2876 83.5416 65.2781 83.5463 65.2781H83.5511V65.2687C83.5511 65.2687 83.5511 65.2687 83.5511 65.2639C83.5511 65.2639 83.5511 65.2592 83.5511 65.2545C83.5511 65.2545 83.5511 65.2545 83.5511 65.2497C83.5511 65.2497 83.5511 65.245 83.5511 65.2403C83.5511 65.2403 83.5511 65.2356 83.5511 65.2308C83.5511 65.2308 83.5511 65.2261 83.5511 65.2214C83.5511 65.2214 83.5511 65.2119 83.5511 65.2072V65.1977C83.5511 65.1977 83.5511 65.1977 83.5511 65.193C83.5511 65.193 83.5511 65.1835 83.5511 65.1788C83.5511 65.1788 83.5511 65.1788 83.5511 65.1741C83.5511 65.1741 83.5511 65.1693 83.5511 65.1646C83.5511 65.1646 83.5511 65.1646 83.5511 65.1599C83.5511 65.1599 83.5511 65.1599 83.5511 65.1551C83.5511 65.1551 83.5511 65.1551 83.5511 65.1504V65.1457C83.5511 65.1457 83.5511 65.1457 83.5463 65.1457H83.5416C83.5416 65.1457 83.5416 65.1457 83.5416 65.141H83.5322V65.1362H83.5227C83.5227 65.1362 83.518 65.1362 83.5132 65.1362C83.5132 65.1362 83.5132 65.1362 83.5085 65.1362C83.5085 65.1362 83.5038 65.1362 83.499 65.1362C83.499 65.1362 83.499 65.1362 83.4943 65.1362C83.4943 65.1362 83.4943 65.1362 83.4896 65.1362C83.4896 65.1362 83.4849 65.1362 83.4801 65.1362H83.4707C83.4707 65.1362 83.4659 65.1362 83.4612 65.1362C83.4612 65.1362 83.4612 65.1362 83.4565 65.1362C83.4565 65.1362 83.4565 65.1362 83.4517 65.1362H83.447V65.1457C83.447 65.1457 83.447 65.1457 83.447 65.1504C83.447 65.1504 83.447 65.1504 83.447 65.1551C83.447 65.1551 83.447 65.1552 83.447 65.1599C83.447 65.1599 83.447 65.1599 83.447 65.1646C83.447 65.1646 83.447 65.1693 83.447 65.1741C83.447 65.1741 83.447 65.1741 83.447 65.1788C83.447 65.1788 83.447 65.1788 83.447 65.1835C83.447 65.1835 83.447 65.1883 83.447 65.193V65.2072C83.447 65.2072 83.447 65.2119 83.447 65.2166C83.447 65.2166 83.447 65.2166 83.447 65.2214C83.447 65.2214 83.447 65.2214 83.447 65.2261C83.447 65.2261 83.447 65.2308 83.447 65.2356V65.245H83.4517C83.4517 65.245 83.4517 65.245 83.4517 65.2497C83.4517 65.2497 83.4517 65.2592 83.4565 65.2639V65.2687C83.4565 65.2687 83.4565 65.2687 83.4612 65.2687H83.4659C83.4659 65.2687 83.4659 65.2687 83.4659 65.2734H83.4754V65.2781H83.4849C83.4849 65.2781 83.4896 65.2781 83.4943 65.2781C83.4943 65.2781 83.4943 65.2781 83.499 65.2781C83.499 65.2781 83.5038 65.2781 83.5085 65.2781C83.5085 65.2781 83.5085 65.2781 83.5132 65.2781L83.4896 65.2923Z" fill="#E0004D"/>
<path d="M82.9078 65.2926C82.9078 65.2926 82.9078 65.2926 82.9126 65.2926C82.9126 65.2926 82.9173 65.2926 82.922 65.2926H82.9315C82.9315 65.2926 82.9362 65.2926 82.9409 65.2926H82.9457V65.2831C82.9457 65.2831 82.9457 65.2831 82.9457 65.2784C82.9457 65.2784 82.9457 65.2737 82.9457 65.2689C82.9457 65.2689 82.9457 65.2689 82.9457 65.2642C82.9457 65.2642 82.9457 65.2595 82.9457 65.2547C82.9457 65.2547 82.9457 65.2547 82.9457 65.25C82.9457 65.25 82.9457 65.25 82.9457 65.2453C82.9457 65.2453 82.9457 65.2406 82.9457 65.2358V65.2216C82.9457 65.2216 82.9457 65.2169 82.9457 65.2122V65.2027C82.9457 65.2027 82.9457 65.2027 82.9457 65.198C82.9457 65.198 82.9457 65.1933 82.9457 65.1885C82.9457 65.1885 82.9457 65.1885 82.9457 65.1838C82.9457 65.1838 82.9457 65.1838 82.9457 65.1791C82.9457 65.1791 82.9457 65.1791 82.9457 65.1743C82.9457 65.1743 82.9457 65.1743 82.9457 65.1696V65.1649C82.9457 65.1649 82.9457 65.1649 82.9409 65.1649H82.9362C82.9362 65.1649 82.9362 65.1649 82.9362 65.1602C82.9362 65.1602 82.9362 65.1602 82.9315 65.1602C82.9315 65.1602 82.9268 65.1602 82.922 65.1602C82.922 65.1602 82.9173 65.1602 82.9126 65.1602C82.9126 65.1602 82.9078 65.1602 82.9031 65.1602C82.9031 65.1602 82.9031 65.1602 82.8984 65.1602C82.8984 65.1602 82.8936 65.1602 82.8889 65.1602H82.8795C82.8795 65.1602 82.8747 65.1602 82.87 65.1602C82.87 65.1602 82.87 65.1602 82.8653 65.1602C82.8653 65.1602 82.8653 65.1602 82.8605 65.1602C82.8605 65.1602 82.8605 65.1602 82.8558 65.1602H82.8511V65.1696C82.8511 65.1696 82.8511 65.1696 82.8511 65.1743C82.8511 65.1743 82.8511 65.1743 82.8511 65.1791C82.8511 65.1791 82.8511 65.1791 82.8511 65.1838C82.8511 65.1838 82.8511 65.1838 82.8511 65.1885C82.8511 65.1885 82.8511 65.1933 82.8511 65.198C82.8511 65.198 82.8511 65.2075 82.8511 65.2122C82.8511 65.2122 82.8511 65.2122 82.8511 65.2169C82.8511 65.2169 82.8511 65.2264 82.8511 65.2311V65.2453C82.8511 65.2453 82.8511 65.25 82.8511 65.2547C82.8511 65.2547 82.8511 65.2547 82.8511 65.2595V65.2689C82.8511 65.2689 82.8511 65.2737 82.8511 65.2784C82.8511 65.2784 82.8511 65.2784 82.8511 65.2831C82.8511 65.2831 82.8511 65.2831 82.8511 65.2879C82.8511 65.2879 82.8511 65.2926 82.8511 65.2973C82.8511 65.2973 82.8511 65.2973 82.8511 65.302C82.8511 65.302 82.8511 65.3068 82.8558 65.3115C82.8558 65.3115 82.8558 65.3115 82.8605 65.3115C82.8605 65.3115 82.8653 65.3115 82.87 65.3115C82.87 65.3115 82.8747 65.3115 82.8795 65.3115C82.8795 65.3115 82.8842 65.3115 82.8889 65.3115C82.8889 65.3115 82.8889 65.3115 82.8936 65.3115L82.9078 65.2926Z" fill="#E0004D"/>
<path d="M82.4491 65.1647C82.4491 65.1647 82.4491 65.1647 82.4491 65.16C82.4491 65.16 82.4491 65.16 82.4491 65.1552V65.1458C82.4491 65.1458 82.4491 65.141 82.4491 65.1363C82.4491 65.1363 82.4491 65.1363 82.4491 65.1316V65.1221V65.1127H82.4444C82.4444 65.1127 82.4444 65.1079 82.4444 65.1032C82.4444 65.1032 82.4444 65.1032 82.4444 65.0985C82.4444 65.0985 82.4444 65.0985 82.4397 65.0985C82.4397 65.0985 82.4397 65.0985 82.4349 65.0985H82.4255V65.0938C82.4255 65.0938 82.4255 65.0938 82.4207 65.0938C82.4207 65.0938 82.416 65.0938 82.4113 65.0938C82.4113 65.0938 82.4113 65.0938 82.4065 65.0938C82.4065 65.0938 82.4018 65.0938 82.3971 65.0938H82.3924C82.3924 65.0938 82.3876 65.0938 82.3829 65.0938H82.3734C82.3734 65.0938 82.3687 65.0938 82.364 65.0938C82.364 65.0938 82.364 65.0938 82.3593 65.0938C82.3593 65.0938 82.3593 65.0938 82.3545 65.0938C82.3545 65.0938 82.3545 65.0938 82.3498 65.0938C82.3498 65.0938 82.3498 65.0938 82.3451 65.0938H82.3403V65.1032C82.3403 65.1032 82.3403 65.1032 82.3403 65.1079C82.3403 65.1079 82.3403 65.1079 82.3403 65.1127C82.3403 65.1127 82.3403 65.1127 82.3403 65.1174C82.3403 65.1174 82.3403 65.1174 82.3403 65.1221C82.3403 65.1221 82.3403 65.1221 82.3403 65.1269C82.3403 65.1269 82.3403 65.1316 82.3403 65.1363C82.3403 65.1363 82.3403 65.141 82.3403 65.1458C82.3403 65.1458 82.3403 65.1458 82.3403 65.1505V65.16C82.3403 65.16 82.3403 65.16 82.3403 65.1647C82.3403 65.1647 82.3403 65.1742 82.3403 65.1789C82.3403 65.1789 82.3403 65.1789 82.3403 65.1836C82.3403 65.1836 82.3403 65.1836 82.3403 65.1883V65.1978C82.3403 65.1978 82.3403 65.2025 82.3403 65.2073C82.3403 65.2073 82.3403 65.2073 82.3403 65.212C82.3403 65.212 82.3403 65.2167 82.3451 65.2214C82.3451 65.2214 82.3451 65.2214 82.3451 65.2262C82.3451 65.2262 82.3451 65.2262 82.3451 65.2309V65.2356C82.3451 65.2356 82.3451 65.2356 82.3498 65.2356C82.3498 65.2356 82.3498 65.2356 82.3545 65.2356C82.3545 65.2356 82.3545 65.2356 82.3593 65.2356C82.3593 65.2356 82.3593 65.2356 82.364 65.2356C82.364 65.2356 82.3687 65.2356 82.3734 65.2356C82.3734 65.2356 82.3782 65.2356 82.3829 65.2356C82.3829 65.2356 82.3876 65.2356 82.3924 65.2356C82.3924 65.2356 82.3924 65.2356 82.3971 65.2356H82.4018C82.4018 65.2356 82.4018 65.2356 82.4065 65.2356C82.4065 65.2356 82.4113 65.2356 82.416 65.2356H82.4255C82.4255 65.2356 82.4302 65.2356 82.4349 65.2356C82.4349 65.2356 82.4349 65.2356 82.4397 65.2356H82.4444C82.4444 65.2356 82.4444 65.2356 82.4444 65.2309C82.4444 65.2309 82.4444 65.2309 82.4444 65.2262C82.4444 65.2262 82.4444 65.2262 82.4444 65.2214C82.4444 65.2214 82.4444 65.2167 82.4491 65.212V65.2025C82.4491 65.2025 82.4491 65.2025 82.4491 65.1978V65.1883C82.4491 65.1883 82.4491 65.1883 82.4491 65.1836C82.4491 65.1836 82.4491 65.1836 82.4491 65.1789C82.4491 65.1789 82.4491 65.1789 82.4491 65.1742V65.1647Z" fill="#E0004D"/>
<path fill-rule="evenodd" clip-rule="evenodd" d="M81.6165 67.5202V67.5249H81.6212V67.5296L81.6259 67.5344L81.6306 67.5391H81.6354V67.5438H81.6401L81.6448 67.5486H81.6496H81.6543H81.659H81.6638H81.834L81.7867 67.6337L81.782 67.6432V67.6479V67.6526L81.7773 67.6573V67.6668V67.6715V67.6763H81.782V67.681V67.6857V67.6904H81.7867V67.6952V67.6999H81.7915V67.7046H81.7962V67.7094H81.8009V67.7141H81.8056L81.8104 67.7188H81.8151H81.8198V67.7236H81.8246H81.8293H81.834H81.8387H81.8435H81.8482H81.8529H81.8577V67.7188H81.8624H81.8671V67.7141H81.8719H81.8766V67.7094H81.8813V67.7046H81.886V67.6999V67.6952H81.8908L81.9712 67.5486H82.236L82.1793 67.6432L82.1036 67.7756H81.9381H81.9333H81.9286H81.9239L81.9191 67.7803H81.9144H81.9097V67.785H81.905H81.9002V67.7898H81.8955V67.7945H81.8908V67.7992H81.886V67.804V67.8087H81.8813V67.8134V67.8181L81.8766 67.8229V67.8465V67.8513H81.8813V67.856V67.8607L81.886 67.8654V67.8702H81.8908V67.8749H81.8955V67.8796H81.9002V67.8844H81.905V67.8891H81.9097H81.9144V67.8938H81.9191H81.9239H81.9286H81.9333H81.9381H82.0327L81.9475 68.0452V68.0499H81.9428V68.0546V68.0594V68.0641L81.9475 68.0925V68.0972L81.9523 68.1019V68.1067H81.957V68.1114H81.9617H81.9664V68.1161H81.9712H81.9759V68.1208H81.9806H81.9854H81.9901H81.9948H81.9996H82.0043L82.0137 68.1161H82.0185V68.1114H82.0232V68.1067H82.0279V68.1019H82.0327V68.0972H82.0374L82.1225 67.9458L82.1698 68.031H82.1746V68.0357L82.1793 68.0404V68.0452H82.184L82.1887 68.0499H82.1935V68.0546H82.1982H82.2029V68.0594H82.2077H82.2124H82.2171H82.2218H82.2266H82.2313H82.236H82.2408L82.2455 68.0546H82.2502H82.255V68.0499H82.2597V68.0452H82.2644V68.0404H82.2691V68.0357H82.2739V68.031V68.0262H82.2786V68.0215V68.0168L82.2833 68.0121V68.0073V68.0026V67.9979V67.9931V67.9884H82.2786V67.9837V67.979V67.9742H82.2739L82.1935 67.8276L82.2975 67.6479L82.3212 67.6006L82.3448 67.6479L82.4536 67.8276L82.3685 67.9695V67.9742H82.3637V67.979V67.9837V67.9884H82.359V67.9931V67.9979V68.0026V68.0073V68.0121H82.3637V68.0168V68.0215V68.0262H82.3685V68.031V68.0357H82.3732V68.0404H82.3779V68.0452H82.3827V68.0499H82.3874L82.3921 68.0546H82.3968H82.4016V68.0594H82.4063H82.411H82.4158H82.4205H82.4252H82.4299H82.4347H82.4394V68.0546H82.4441H82.4489V68.0499H82.4536H82.4583V68.0452H82.4631V68.0404L82.4678 68.0357L82.4725 68.031L82.5198 67.9458L82.6049 68.0972H82.6097V68.1019H82.6144V68.1067H82.6191V68.1114H82.6239V68.1161H82.6286H82.6333V68.1208H82.6381H82.6428H82.6475H82.6522H82.657H82.6617H82.6664V68.1161H82.6712H82.6759V68.1114H82.6806H82.6854V68.1067H82.6901V68.1019L82.6948 68.0972V68.0925H82.6995V68.0877V68.083V68.0641V68.0594V68.0546V68.0499H82.6948V68.0452L82.6097 67.8938H82.7043H82.709H82.7137H82.7185H82.7232L82.7279 67.8891H82.7326H82.7374V67.8844H82.7421V67.8796H82.7468L82.7516 67.8749V67.8702H82.7563V67.8654H82.761V67.8607V67.856L82.7658 67.8513V67.8465V67.8229V67.8181H82.761V67.8134V67.8087H82.7563V67.804V67.7992H82.7516V67.7945H82.7468V67.7898H82.7421V67.785H82.7374H82.7326V67.7803H82.7279H82.7232V67.7756H82.7185H82.7137H82.709H82.7043H82.5387L82.4631 67.6432L82.411 67.5486H82.6712L82.7232 67.6432L82.7516 67.6952H82.7563V67.6999L82.761 67.7046V67.7094H82.7658L82.7705 67.7141H82.7752V67.7188H82.7799H82.7847V67.7236H82.7894H82.7941H82.7989H82.8036H82.8083H82.813H82.8178H82.8225L82.8272 67.7188H82.832H82.8367V67.7141H82.8414V67.7094H82.8462V67.7046H82.8509V67.6999H82.8556V67.6952V67.6904H82.8603V67.6857V67.681L82.8651 67.6763V67.6715V67.6668V67.6573V67.6526H82.8603V67.6479V67.6432L82.8556 67.6337L82.8083 67.5486H82.9786H82.9833H82.988H82.9928H82.9975H83.0022V67.5438H83.007L83.0117 67.5391H83.0164V67.5344H83.0211V67.5296L83.0259 67.5249V67.5202V67.4823V67.4776V67.4729H83.0211V67.4682L83.0164 67.4634H83.0117V67.4587H83.007V67.454H83.0022H82.9975V67.4492H82.9928H82.988H82.9833H82.9786H82.8083L82.8556 67.3641V67.3594H82.8603V67.3546V67.3499H82.8651V67.3452V67.3405V67.3357V67.331V67.3263V67.3215H82.8603V67.3168V67.3121V67.3073H82.8556V67.3026L82.8509 67.2979V67.2932H82.8462V67.2884H82.8414V67.2837H82.8367H82.832V67.279H82.8272H82.8225H82.8178V67.2742H82.813H82.8083H82.8036H82.7989H82.7941H82.7894V67.279H82.7847H82.7799L82.7752 67.2837H82.7705V67.2884H82.7658L82.761 67.2932V67.2979H82.7563V67.3026H82.7516L82.6712 67.4492H82.411L82.5387 67.2222H82.7043H82.709H82.7137H82.7185H82.7232L82.7279 67.2175H82.7326H82.7374V67.2128H82.7421V67.208H82.7468L82.7516 67.2033V67.1986H82.7563V67.1938H82.761V67.1891V67.1844L82.7658 67.1796V67.1749V67.1655V67.1607V67.156V67.1513V67.1465H82.761V67.1418V67.1371L82.7563 67.1324V67.1276H82.7516V67.1229H82.7468V67.1182H82.7421V67.1134H82.7374H82.7326V67.1087H82.7279H82.7232V67.104H82.7185H82.7137H82.709H82.7043H82.6097L82.6948 66.9526L82.6995 66.9479V66.9432V66.9384V66.9337L82.6948 66.9053V66.9006H82.6901V66.8959L82.6854 66.8911H82.6806V66.8864H82.6759V66.8817H82.6712H82.6664H82.6617V66.877H82.657H82.6522H82.6475H82.6428L82.6381 66.8817H82.6286V66.8864H82.6239H82.6191V66.8911H82.6144V66.8959H82.6097V66.9006L82.6049 66.9053L82.5198 67.0519L82.4725 66.9668H82.4678V66.9621L82.4631 66.9574L82.4583 66.9526H82.4536V66.9479H82.4489L82.4441 66.9432H82.4394H82.4347V66.9384H82.4299H82.4252H82.4205H82.4158H82.411H82.4063V66.9432H82.4016H82.3968H82.3921V66.9479H82.3874L82.3827 66.9526H82.3779V66.9574H82.3732V66.9621L82.3685 66.9668V66.9715H82.3637V66.9763V66.981V66.9857L82.359 66.9905V66.9952V66.9999V67.0047V67.0094H82.3637V67.0141V67.0188V67.0236H82.3685V67.0283L82.4536 67.1702L82.3212 67.3972L82.1935 67.1702L82.2739 67.0283V67.0236H82.2786V67.0188V67.0141H82.2833V67.0094V67.0047V66.9999V66.9952V66.9905V66.9857H82.2786V66.981V66.9763V66.9715H82.2739V66.9668V66.9621H82.2691V66.9574H82.2644V66.9526H82.2597V66.9479H82.255H82.2502V66.9432H82.2455H82.2408L82.236 66.9384H82.2313H82.2266H82.2218H82.2171H82.2124H82.2077V66.9432H82.2029H82.1982L82.1935 66.9479H82.1887V66.9526H82.184V66.9574H82.1793V66.9621H82.1746V66.9668H82.1698L82.1225 67.0519L82.0374 66.9053V66.9006H82.0327V66.8959H82.0279V66.8911H82.0232V66.8864H82.0185L82.0137 66.8817H82.009H82.0043V66.877H81.9996H81.9948H81.9901H81.9854H81.9806V66.8817H81.9759H81.9712L81.9664 66.8864H81.9617V66.8911H81.957V66.8959H81.9523V66.9006H81.9475V66.9053V66.9101H81.9428V66.9148V66.9337V66.9384V66.9432V66.9479H81.9475V66.9526L82.0327 67.104H81.9381H81.9333H81.9286H81.9239H81.9191V67.1087H81.9144H81.9097V67.1134H81.905H81.9002V67.1182H81.8955V67.1229H81.8908V67.1276H81.886V67.1324V67.1371H81.8813V67.1418V67.1465V67.1513H81.8766V67.156V67.1607V67.1655V67.1749V67.1796H81.8813V67.1844V67.1891L81.886 67.1938V67.1986H81.8908V67.2033H81.8955V67.208H81.9002V67.2128H81.905V67.2175H81.9097H81.9144L81.9191 67.2222H81.9239H81.9286H81.9333H81.9381H82.1036L82.236 67.4492H81.9712L81.8908 67.3026H81.886V67.2979L81.8813 67.2932L81.8766 67.2884H81.8719V67.2837H81.8671L81.8624 67.279H81.8577H81.8529V67.2742H81.8482H81.8435H81.8387H81.834H81.8293H81.8246V67.279H81.8198H81.8151H81.8104V67.2837H81.8056L81.8009 67.2884H81.7962V67.2932H81.7915V67.2979V67.3026H81.7867V67.3073H81.782V67.3121V67.3168V67.3215L81.7773 67.3263V67.331V67.3357V67.3405V67.3452H81.782V67.3499V67.3546V67.3594H81.7867V67.3641L81.834 67.4492H81.6638H81.659H81.6543H81.6496H81.6448V67.454H81.6401H81.6354V67.4587H81.6306V67.4634H81.6259V67.4682H81.6212V67.4729H81.6165V67.4776V67.4823V67.5202Z" fill="#E0004D"/>
<path d="M81.7775 56.207H81.8769V56.803H81.7775V56.5381H81.4985V56.803H81.3992V56.207H81.4985V56.4624H81.7775V56.207Z" fill="#E0004D"/>
<path d="M82.1132 56.207C82.1132 56.207 82.1085 56.2401 82.0943 56.2496C82.0801 56.259 82.0659 56.2685 82.0517 56.2685C82.0375 56.2685 82.0186 56.2637 82.0091 56.2496C81.9997 56.2354 81.9902 56.2212 81.9902 56.207C81.9902 56.1881 81.995 56.1739 82.0091 56.1644C82.0233 56.155 82.0375 56.1455 82.0517 56.1455C82.0659 56.1455 82.0848 56.1502 82.0943 56.1644C82.1037 56.1786 82.1132 56.1928 82.1132 56.207ZM82.0044 56.8029V56.33H82.1037V56.8029H82.0044Z" fill="#E0004D"/>
<path d="M82.2598 56.7414C82.2173 56.6941 82.1936 56.6373 82.1936 56.5664C82.1936 56.4955 82.2173 56.434 82.2598 56.3914C82.3024 56.3441 82.3544 56.3252 82.4206 56.3252C82.4585 56.3252 82.4916 56.3347 82.5199 56.3488C82.5483 56.3678 82.572 56.3867 82.5862 56.4151V56.3299H82.6855V56.8123C82.6855 56.8786 82.6666 56.9353 82.624 56.9732C82.5814 57.011 82.5294 57.0346 82.4585 57.0346C82.3875 57.0346 82.3355 57.0204 82.2929 56.9873C82.2504 56.959 82.2267 56.9164 82.222 56.8644H82.3213C82.3308 56.888 82.345 56.9069 82.3686 56.9259C82.3923 56.94 82.4254 56.9495 82.4585 56.9495C82.4916 56.9495 82.5247 56.9353 82.5483 56.9117C82.572 56.888 82.5862 56.8549 82.5862 56.8076V56.713C82.572 56.7414 82.5483 56.765 82.5199 56.784C82.4916 56.8029 82.4585 56.8123 82.4206 56.8123C82.3591 56.8123 82.3071 56.7887 82.2598 56.7414ZM82.5436 56.6846C82.572 56.6563 82.5862 56.6184 82.5862 56.5664C82.5862 56.5144 82.572 56.4813 82.5436 56.4529C82.5152 56.4245 82.4821 56.4103 82.4443 56.4103C82.4064 56.4103 82.3733 56.4245 82.345 56.4529C82.3166 56.4813 82.3024 56.5191 82.3024 56.5664C82.3024 56.6137 82.3166 56.6563 82.345 56.6846C82.3733 56.713 82.4064 56.7272 82.4443 56.7272C82.4821 56.7272 82.5152 56.713 82.5436 56.6846Z" fill="#E0004D"/>
<path d="M82.9077 56.1689V56.4054C82.9408 56.3487 82.9881 56.325 83.059 56.325C83.111 56.325 83.1583 56.3439 83.1914 56.377C83.2246 56.4102 83.2435 56.4622 83.2435 56.5237V56.8027H83.1442V56.5379C83.1442 56.4953 83.1347 56.4622 83.111 56.4385C83.0921 56.4149 83.059 56.4054 83.0259 56.4054C82.9928 56.4054 82.9597 56.4149 82.9408 56.4385C82.9171 56.4622 82.9077 56.4953 82.9077 56.5379V56.8027H82.8083V56.1689H82.9077Z" fill="#E0004D"/>
<path d="M81.4652 63.4573V62.8613H81.8152V62.937H81.5598V63.1167H81.7584V63.1924H81.5598V63.4573H81.4604H81.4652Z" fill="#E0004D"/>
<path d="M81.9383 63.3962C81.8957 63.3489 81.8721 63.2921 81.8721 63.2212C81.8721 63.1502 81.8957 63.0888 81.9383 63.0462C81.9809 62.9989 82.0329 62.98 82.0991 62.98C82.1369 62.98 82.17 62.9894 82.1984 63.0036C82.2268 63.0225 82.2504 63.0415 82.2646 63.0698V62.9847H82.3639V63.4577H82.2646V63.3678C82.2504 63.3962 82.2268 63.4198 82.1984 63.4388C82.17 63.4577 82.1369 63.4671 82.0991 63.4671C82.0376 63.4671 81.9856 63.4435 81.9383 63.3962ZM82.2221 63.3347C82.2504 63.3063 82.2646 63.2685 82.2646 63.2165C82.2646 63.1692 82.2504 63.1313 82.2221 63.103C82.1937 63.0746 82.1606 63.0604 82.1227 63.0604C82.0849 63.0604 82.0518 63.0746 82.0234 63.103C81.995 63.1313 81.9808 63.1692 81.9808 63.2165C81.9808 63.2638 81.995 63.3063 82.0234 63.3347C82.0518 63.3631 82.0849 63.3773 82.1227 63.3773C82.1606 63.3773 82.1937 63.3631 82.2221 63.3347Z" fill="#E0004D"/>
<path d="M82.4679 63.117C82.4679 63.0792 82.4868 63.0413 82.5199 63.0177C82.553 62.9893 82.6003 62.9751 82.6523 62.9751C82.7043 62.9751 82.7516 62.9893 82.7847 63.0177C82.8179 63.046 82.832 63.0839 82.8368 63.1312H82.7375C82.7375 63.1312 82.728 63.0886 82.7138 63.0744C82.6996 63.0602 82.6807 63.0555 82.6523 63.0555C82.6239 63.0555 82.605 63.0602 82.5908 63.0744C82.5766 63.0886 82.5672 63.1028 82.5672 63.1217C82.5672 63.1406 82.5766 63.1548 82.5956 63.169C82.6145 63.1785 82.6381 63.1879 82.6665 63.1927C82.6949 63.1974 82.7233 63.2021 82.7469 63.2116C82.7706 63.221 82.7989 63.2305 82.8179 63.2541C82.8368 63.2731 82.8462 63.3014 82.8462 63.3345C82.8462 63.3771 82.8273 63.4102 82.7942 63.4339C82.7611 63.4575 82.7138 63.4717 82.6618 63.4717C82.6098 63.4717 82.5625 63.4575 82.5293 63.4339C82.4962 63.4055 82.4773 63.3724 82.4726 63.3204H82.5719C82.5719 63.3204 82.5814 63.3629 82.5956 63.3771C82.6098 63.3913 82.6334 63.396 82.6571 63.396C82.6807 63.396 82.7043 63.3913 82.7185 63.3771C82.7327 63.3629 82.7422 63.3487 82.7422 63.3298C82.7422 63.3109 82.7327 63.2967 82.7138 63.2825C82.6949 63.2731 82.6712 63.2636 82.6429 63.2589C82.6145 63.2541 82.5908 63.2494 82.5625 63.24C82.5341 63.2305 82.5104 63.221 82.4915 63.2021C82.4726 63.1832 82.4631 63.1596 82.4631 63.1264L82.4679 63.117Z" fill="#E0004D"/>
<path d="M83.1775 63.0647H83.0639V63.3248C83.0639 63.3437 83.0639 63.3532 83.0781 63.3627C83.0876 63.3721 83.1018 63.3721 83.1207 63.3721H83.1822V63.4525H83.1065C83.0167 63.4525 82.9694 63.41 82.9694 63.3201V63.06H82.9126V62.9796H82.9694V62.8613H83.0687V62.9796H83.1822V63.06L83.1775 63.0647Z" fill="#E0004D"/>
<path d="M81.8957 55.0576H81.8342C81.7584 55.0576 81.697 55.119 81.697 55.1948V55.5826C81.697 55.6584 81.7584 55.7198 81.8342 55.7198H81.8957C81.9714 55.7198 82.0328 55.6584 82.0328 55.5826V55.1948C82.0328 55.119 81.9714 55.0576 81.8957 55.0576Z" fill="#E0004D"/>
<path d="M82.3639 55.0576H82.3024C82.2267 55.0576 82.1653 55.119 82.1653 55.1948V55.5826C82.1653 55.6584 82.2267 55.7198 82.3024 55.7198H82.3639C82.4397 55.7198 82.5011 55.6584 82.5011 55.5826V55.1948C82.5011 55.119 82.4397 55.0576 82.3639 55.0576Z" fill="#E0004D"/>
<path d="M82.8085 55.0576H82.747C82.6713 55.0576 82.6099 55.119 82.6099 55.1948V55.5826C82.6099 55.6584 82.6713 55.7198 82.747 55.7198H82.8085C82.8843 55.7198 82.9457 55.6584 82.9457 55.5826V55.1948C82.9457 55.119 82.8843 55.0576 82.8085 55.0576Z" fill="#E0004D"/>
<path d="M81.9053 61.9488C82.1086 61.6934 82.312 61.438 82.5201 61.1826C82.5343 61.1637 82.5627 61.1826 82.558 61.2016C82.5201 61.4002 82.4823 61.5941 82.4444 61.7928C82.4444 61.8069 82.4539 61.8211 82.4681 61.8164C82.5532 61.8117 82.6384 61.8069 82.7235 61.8022C82.7424 61.8022 82.7519 61.8211 82.7424 61.8353C82.5532 62.0529 82.3688 62.2752 82.1796 62.4927C82.1654 62.5117 82.137 62.4927 82.1418 62.4738L82.2647 61.9914C82.2647 61.9914 82.2553 61.963 82.2411 61.963C82.137 61.963 82.033 61.9725 81.9289 61.9772C81.91 61.9772 81.9005 61.9583 81.91 61.9441L81.9053 61.9488Z" fill="#E0004D"/>
<path d="M82.9504 58.1557L82.9315 58.1132C82.922 58.099 82.8842 58.0517 82.7707 58.0422C82.7139 58.0375 82.6288 58.0422 82.5342 58.0612C82.4491 58.0801 82.3639 58.1179 82.3119 58.1416C82.222 58.1841 82.0849 58.2645 81.943 58.4443C81.9099 58.4868 81.8673 58.5483 81.8295 58.624C81.8011 58.6855 81.768 58.7469 81.7633 58.8605C81.7633 58.8794 81.7633 58.8936 81.7633 58.9078C81.7633 58.9172 81.7633 58.9314 81.768 58.9503C81.8058 58.8983 81.8531 58.8368 81.9193 58.7659C81.9808 58.7044 82.0754 58.6051 82.222 58.5152C82.2977 58.4679 82.4112 58.4064 82.5626 58.3686C82.5626 58.3686 82.5531 58.3686 82.5484 58.3733C82.4065 58.449 82.2646 58.5436 82.1274 58.6665C82.0754 58.7186 82.0187 58.7753 81.9619 58.8368C81.8862 58.9267 81.82 59.0165 81.7727 59.0969C81.7302 59.1632 81.716 59.1868 81.716 59.1868C81.7065 59.2104 81.6923 59.2388 81.6829 59.2767C81.6829 59.2767 81.6829 59.2861 81.6829 59.2908C81.6829 59.2908 81.6829 59.2956 81.6829 59.3003C81.6829 59.3003 81.6829 59.3098 81.6923 59.3145C81.7018 59.3287 81.7349 59.3287 81.7491 59.3145C81.7585 59.305 81.7585 59.2956 81.7633 59.2767C81.768 59.2483 81.7775 59.2294 81.7964 59.1915C81.8058 59.1726 81.8248 59.1442 81.8579 59.1159C81.9099 59.1253 81.943 59.1253 81.9714 59.1253C81.9761 59.1253 81.9808 59.1253 81.9856 59.1253C82.0045 59.1253 82.0329 59.1253 82.0754 59.1159C82.1227 59.1111 82.1889 59.0922 82.2646 59.0591C82.2977 59.0402 82.3166 59.0213 82.3119 59.0071C82.3119 58.9929 82.2788 58.9929 82.2741 58.9929C82.2599 58.9929 82.2457 58.9929 82.2315 58.9929C82.2078 58.9929 82.1842 58.9929 82.1653 58.9882C82.2599 58.9787 82.3261 58.955 82.3734 58.9361C82.4207 58.9172 82.4727 58.8888 82.5105 58.8368C82.52 58.8273 82.5531 58.7895 82.5437 58.7753C82.5437 58.7706 82.5295 58.7753 82.52 58.7753C82.4916 58.7895 82.4491 58.8084 82.3923 58.8226C82.3355 58.8321 82.2883 58.8321 82.2599 58.8226C82.4538 58.7611 82.5957 58.676 82.6855 58.6145C82.7849 58.5436 82.8558 58.4726 82.9078 58.3828C82.9078 58.3828 82.9882 58.2456 82.9551 58.151L82.9504 58.1557Z" fill="#E0004D"/>
<path d="M81.2146 59.6172H81.3139V60.2131H81.2146L80.9213 59.7685V60.2131H80.822V59.6172H80.9213L81.2146 60.0618V59.6172Z" fill="#E0004D"/>
<path d="M81.6449 60.2222C81.574 60.2222 81.5172 60.1985 81.4747 60.156C81.4321 60.1134 81.4084 60.0519 81.4084 59.981C81.4084 59.91 81.4321 59.8485 81.4794 59.806C81.5267 59.7587 81.5834 59.7397 81.6497 59.7397C81.7159 59.7397 81.7774 59.7634 81.8199 59.806C81.8672 59.8485 81.8909 59.91 81.8909 59.981C81.8909 60.0519 81.8672 60.1134 81.8199 60.156C81.7726 60.2032 81.7159 60.2222 81.6449 60.2222ZM81.7442 60.0945C81.7726 60.0661 81.7868 60.0283 81.7868 59.9762C81.7868 59.9242 81.7726 59.8864 81.7442 59.858C81.7159 59.8296 81.6828 59.8154 81.6449 59.8154C81.6071 59.8154 81.574 59.8296 81.5456 59.858C81.5172 59.8864 81.503 59.9242 81.503 59.9762C81.503 60.0283 81.5172 60.0661 81.5409 60.0945C81.5693 60.1228 81.5976 60.137 81.6402 60.137C81.6828 60.137 81.7111 60.1228 81.7395 60.0945H81.7442Z" fill="#E0004D"/>
<path d="M82.0848 59.7399V59.8203C82.1132 59.7588 82.1605 59.7305 82.2267 59.7305V59.8298H82.2031C82.1652 59.8298 82.1369 59.8392 82.1179 59.8582C82.099 59.8771 82.0896 59.9102 82.0896 59.9575V60.2082H81.9902V59.7352H82.0896L82.0848 59.7399Z" fill="#E0004D"/>
<path d="M82.4159 59.7399V59.8156C82.449 59.7588 82.4963 59.7352 82.5672 59.7352C82.6051 59.7352 82.6382 59.7447 82.6665 59.7588C82.6949 59.7778 82.7186 59.8014 82.7328 59.8345C82.7517 59.8014 82.7706 59.7778 82.8037 59.7588C82.8368 59.7399 82.8652 59.7305 82.903 59.7305C82.9598 59.7305 83.0023 59.7494 83.0355 59.7825C83.0686 59.8156 83.0875 59.8676 83.0875 59.9291V60.2082H82.9882V59.9433C82.9882 59.9007 82.9787 59.8676 82.9551 59.844C82.9361 59.8203 82.903 59.8109 82.8699 59.8109C82.8368 59.8109 82.8037 59.8203 82.7848 59.844C82.7659 59.8676 82.7517 59.9007 82.7517 59.9433V60.2082H82.6571V59.9433C82.6571 59.9007 82.6476 59.8676 82.624 59.844C82.6051 59.8203 82.572 59.8109 82.5389 59.8109C82.5057 59.8109 82.4726 59.8203 82.4537 59.844C82.4301 59.8676 82.4206 59.9007 82.4206 59.9433V60.2082H82.3213V59.7352H82.4206L82.4159 59.7399Z" fill="#E0004D"/>
<path d="M83.2388 60.1516C83.1963 60.1043 83.1726 60.0475 83.1726 59.9766C83.1726 59.9056 83.1963 59.8441 83.2388 59.8016C83.2814 59.7543 83.3334 59.7354 83.3996 59.7354C83.4375 59.7354 83.4706 59.7448 83.499 59.759C83.5273 59.7779 83.551 59.7968 83.5652 59.8252V59.7401H83.6645V60.213H83.5652V60.1232C83.551 60.1516 83.5273 60.1752 83.499 60.1941C83.4706 60.213 83.4375 60.2225 83.3996 60.2225C83.3381 60.2225 83.2861 60.1989 83.2388 60.1516ZM83.5179 60.0901C83.5462 60.0617 83.5604 60.0239 83.5604 59.9718C83.5604 59.9198 83.5462 59.8867 83.5179 59.8583C83.4895 59.8299 83.4564 59.8158 83.4185 59.8158C83.3807 59.8158 83.3476 59.8299 83.3192 59.8583C83.2908 59.8867 83.2767 59.9245 83.2767 59.9718C83.2767 60.0191 83.2908 60.0617 83.3192 60.0901C83.3476 60.1184 83.3807 60.1326 83.4185 60.1326C83.4564 60.1326 83.4895 60.1184 83.5179 60.0901Z" fill="#E0004D"/>
<path d="M83.7874 60.2134V59.5796H83.8867V60.2134H83.7874Z" fill="#E0004D"/>
<path d="M83.3901 50.9382C83.3901 50.8814 83.3428 50.8389 83.2908 50.8389H82.3117C81.9854 50.8389 81.6591 50.8389 81.3327 50.8389C81.276 50.8389 81.2334 50.8814 81.2334 50.9382C81.2334 50.9949 81.2807 51.0375 81.3327 51.0375H82.3117C82.6381 51.0375 82.9644 51.0375 83.2908 51.0375C83.3475 51.0375 83.3901 50.9949 83.3901 50.9382Z" fill="#E0004D"/>
<path d="M83.3901 51.7517C83.3901 51.6949 83.3428 51.6523 83.2908 51.6523H82.3117C81.9854 51.6523 81.6591 51.6523 81.3327 51.6523C81.276 51.6523 81.2334 51.6949 81.2334 51.7517C81.2334 51.8084 81.2807 51.851 81.3327 51.851H82.3117C82.6381 51.851 82.9644 51.851 83.2908 51.851C83.3475 51.851 83.3901 51.8084 83.3901 51.7517Z" fill="#E0004D"/>
<path d="M83.3901 53.3693C83.3901 53.3126 83.3428 53.27 83.2908 53.27H82.3117C81.9854 53.27 81.6591 53.27 81.3327 53.27C81.276 53.27 81.2334 53.3126 81.2334 53.3693C81.2334 53.4261 81.2807 53.4687 81.3327 53.4687H82.3117C82.6381 53.4687 82.9644 53.4687 83.2908 53.4687C83.3475 53.4687 83.3901 53.4261 83.3901 53.3693Z" fill="#E0004D"/>
<path d="M83.3901 52.5603C83.3901 52.5035 83.3428 52.4609 83.2908 52.4609H82.3117C81.9854 52.4609 81.6591 52.4609 81.3327 52.4609C81.276 52.4609 81.2334 52.5035 81.2334 52.5603C81.2334 52.617 81.2807 52.6596 81.3327 52.6596C81.6591 52.6596 81.9854 52.6596 82.3117 52.6596H83.2908C83.3475 52.6596 83.3901 52.617 83.3901 52.5603Z" fill="#E0004D"/>
<path d="M83.3901 47.6936C83.3901 47.6368 83.3428 47.5942 83.2908 47.5942H82.3117C81.9854 47.5942 81.6591 47.5942 81.3327 47.5942C81.276 47.5942 81.2334 47.6368 81.2334 47.6936C81.2334 47.7503 81.2807 47.7929 81.3327 47.7929H82.3117C82.6381 47.7929 82.9644 47.7929 83.2908 47.7929C83.3475 47.7929 83.3901 47.7503 83.3901 47.6936Z" fill="#E0004D"/>
<path d="M83.3901 48.507C83.3901 48.4503 83.3428 48.4077 83.2908 48.4077H82.3117C81.9854 48.4077 81.6591 48.4077 81.3327 48.4077C81.276 48.4077 81.2334 48.4503 81.2334 48.507C81.2334 48.5638 81.2807 48.6064 81.3327 48.6064H82.3117C82.6381 48.6064 82.9644 48.6064 83.2908 48.6064C83.3475 48.6064 83.3901 48.5638 83.3901 48.507Z" fill="#E0004D"/>
<path d="M83.3901 46.0759C83.3901 46.0191 83.3428 45.9766 83.2908 45.9766H82.3117C81.9854 45.9766 81.6591 45.9766 81.3327 45.9766C81.276 45.9766 81.2334 46.0239 81.2334 46.0759C81.2334 46.1326 81.2807 46.1752 81.3327 46.1752H82.3117C82.6381 46.1752 82.9644 46.1752 83.2908 46.1752C83.3475 46.1752 83.3901 46.1326 83.3901 46.0759Z" fill="#E0004D"/>
<path d="M83.3901 50.1291C83.3901 50.0724 83.3428 50.0298 83.2908 50.0298C82.9644 50.0298 82.6381 50.0298 82.3117 50.0298H81.3327C81.276 50.0298 81.2334 50.0724 81.2334 50.1291C81.2334 50.1859 81.2807 50.2284 81.3327 50.2284C81.6591 50.2284 81.9854 50.2284 82.3117 50.2284H83.2908C83.3475 50.2284 83.3901 50.1859 83.3901 50.1291Z" fill="#E0004D"/>
<path d="M83.3901 46.885C83.3901 46.8282 83.3428 46.7856 83.2908 46.7856H82.3117C81.9854 46.7856 81.6591 46.7856 81.3327 46.7856C81.276 46.7856 81.2334 46.8282 81.2334 46.885C81.2334 46.9417 81.2807 46.9843 81.3327 46.9843H82.3117C82.6381 46.9843 82.9644 46.9843 83.2908 46.9843C83.3475 46.9843 83.3901 46.9417 83.3901 46.885Z" fill="#E0004D"/>
<path d="M83.3901 49.3161C83.3901 49.2594 83.3428 49.2168 83.2908 49.2168H82.3117C81.9854 49.2168 81.6591 49.2168 81.3327 49.2168C81.276 49.2168 81.2334 49.2594 81.2334 49.3161C81.2334 49.3729 81.2807 49.4154 81.3327 49.4154C81.6591 49.4154 81.9854 49.4154 82.3117 49.4154H83.2908C83.3475 49.4154 83.3901 49.3729 83.3901 49.3161Z" fill="#E0004D"/>
<path d="M82.5955 44.6526H82.4631V44.3168H82.1273V44.6526H81.9949V43.877H82.1273V44.208H82.4631V43.877H82.5955V44.6526Z" fill="#E0004D"/>
<path d="M83.1491 44.3357C83.2058 44.3215 83.2484 44.2979 83.2768 44.2601C83.3099 44.2175 83.3288 44.1655 83.3288 44.104C83.3288 44.0425 83.3051 43.9857 83.2578 43.9432C83.2105 43.9006 83.1443 43.877 83.0545 43.877H82.7991V44.6479H82.9315V44.3452H82.9977L83.1916 44.6479H83.3572L83.1491 44.3357ZM82.9315 44.2364V43.9952H83.0545C83.1491 43.9952 83.1964 44.033 83.1964 44.1182C83.1964 44.156 83.1869 44.1844 83.1633 44.208C83.1396 44.2269 83.1065 44.2411 83.0592 44.2411H82.9362L82.9315 44.2364Z" fill="#E0004D"/>
<path d="M81.5363 44.6575C81.4559 44.6575 81.3944 44.6386 81.3424 44.6008C81.2903 44.5629 81.2667 44.5109 81.2667 44.4447V44.4258H81.4039V44.44C81.4039 44.4683 81.418 44.492 81.437 44.5109C81.4559 44.5298 81.489 44.5393 81.5316 44.5393C81.5741 44.5393 81.6072 44.5298 81.6309 44.5062C81.6545 44.4873 81.664 44.4636 81.664 44.4352C81.664 44.4069 81.6593 44.3879 81.6451 44.3737C81.6309 44.3596 81.6167 44.3454 81.593 44.3406C81.5694 44.3312 81.5457 44.3264 81.5174 44.3217C81.489 44.317 81.4606 44.3075 81.4322 44.2981C81.4039 44.2886 81.3755 44.2792 81.3518 44.265C81.3282 44.2508 81.3045 44.2271 81.2856 44.1987C81.2714 44.1704 81.262 44.1325 81.262 44.0947C81.262 44.0285 81.2856 43.9717 81.3329 43.9292C81.3802 43.8866 81.4417 43.8677 81.5174 43.8677C81.593 43.8677 81.6545 43.8866 81.6971 43.9197C81.7444 43.9575 81.768 44.0048 81.7775 44.0663V44.0852H81.6356V44.071C81.6356 44.0474 81.6214 44.0238 81.5978 44.0096C81.5741 43.9906 81.5457 43.9812 81.5126 43.9812C81.4795 43.9812 81.4464 43.9906 81.4228 44.0096C81.3991 44.0285 81.3897 44.0521 81.3897 44.09C81.3897 44.1136 81.3944 44.1325 81.4086 44.1467C81.4228 44.1609 81.437 44.1751 81.4606 44.1798C81.4843 44.1893 81.5079 44.194 81.5363 44.2035C81.5647 44.2082 81.593 44.2177 81.6214 44.2271C81.6498 44.2366 81.6782 44.246 81.7018 44.2602C81.7302 44.2744 81.7491 44.2981 81.768 44.3264C81.7822 44.3548 81.7917 44.3879 81.7917 44.4305C81.7917 44.492 81.768 44.5487 81.7207 44.5913C81.6734 44.6386 81.612 44.6623 81.5316 44.6623L81.5363 44.6575Z" fill="#E0004D"/>
<path d="M82.9315 110.503H82.0093V110.867H82.9315V110.503Z" fill="#190A0A"/>
<path d="M83.3809 109.822H82.0093V110.186H83.3809V109.822Z" fill="#190A0A"/>
<path d="M83.3853 110.503H83.1157V110.867H83.3853V110.503Z" fill="#190A0A"/>
<path d="M83.2957 112.612H83.3005V112.186L82.8039 111.538H83.3856V111.184H82.0093V111.538H82.6194L82.0093 112.248V112.64H82.0187L82.714 111.855L83.2957 112.612Z" fill="#190A0A"/>
<path d="M83.2152 108.999V109.131H82.5152C82.2929 109.131 82.1557 108.947 82.1557 108.748C82.1557 108.549 82.2929 108.37 82.5152 108.365H83.3807V107.741L83.2104 107.859V107.991H82.5246C82.1226 107.991 81.9666 108.384 81.9666 108.748C81.9666 109.112 82.1274 109.505 82.5246 109.505H83.3807V108.881L83.2104 108.999H83.2152Z" fill="#190A0A"/>
<path d="M83.1395 113.903C83.2719 113.766 83.3429 113.563 83.3381 113.355C83.3381 113.109 83.2577 112.905 83.1206 112.759C82.9976 112.631 82.8321 112.565 82.6523 112.565C82.4442 112.565 82.2551 112.65 82.1321 112.82C82.0139 112.981 81.9666 113.128 81.9666 113.364C81.9666 113.435 81.9666 113.492 81.9807 113.549C82.028 113.837 82.1841 114.012 82.3591 114.083V113.776C82.2692 113.728 82.1699 113.587 82.1699 113.364C82.1699 113.114 82.3638 112.953 82.5672 112.939V114.112C82.8084 114.126 83.0071 114.045 83.1395 113.908V113.903ZM82.7753 112.939H82.7895C82.9645 112.967 83.149 113.109 83.149 113.355C83.149 113.601 82.9409 113.743 82.7895 113.757H82.7753V112.939Z" fill="#190A0A"/>
<path d="M73.8364 80.0488H90.915" stroke="#190A0A" stroke-width="0.799304" stroke-linecap="round" stroke-linejoin="round"/>
<path d="M74.5601 89.7212H90.1914" stroke="#190A0A" stroke-width="0.799304" stroke-linecap="round" stroke-linejoin="round"/>
</svg>
