<svg width="118" height="128" viewBox="0 0 118 128" fill="none" xmlns="http://www.w3.org/2000/svg">
<path d="M42 120.28C17.2 120.28 0.24 104.12 2.64 84.44H15.92C14.32 98.52 26.16 108.44 42.16 108.44C57.68 108.44 69.68 99.16 69.68 85.72C69.68 74.04 58.8 65.88 45.68 65.88H34.96L37.04 54.68C39.92 54.84 42.96 54.84 45.04 54.84C60.24 54.84 74.64 44.76 74.64 31.16C74.64 20.28 66.64 14.2 53.68 14.2C38.8 14.2 27.28 23 26.32 36.44H13.04C14.8 15.96 31.6 2.35999 54 2.35999C74.64 2.35999 88.24 14.36 88.24 31C88.24 46.68 75.44 57.4 60.72 59.96C74 62.2 83.12 71.48 83.12 85.88C83.12 107.48 64.08 120.28 42 120.28Z" fill="#E0004D"/>
<g clip-path="url(#clip0_2285_801)">
<path d="M91.219 50.0161H58.8115V112.679H102.923C102.398 112.679 102.923 81.9877 102.923 81.9877V61.7641L91.219 50.0161Z" fill="white"/>
<path d="M66.912 64.44V62.92H68.08C67.744 62.36 67.472 61.752 67.472 61.032C67.472 58.936 69.056 57.336 71.376 57.336C73.568 57.336 75.088 58.84 75.088 61C75.088 61.448 75.024 61.8 74.896 62.248H73.024C73.184 61.88 73.248 61.464 73.248 61.112C73.248 59.944 72.592 59.032 71.376 59.032C70.144 59.032 69.376 59.928 69.376 61.144C69.376 61.832 69.68 62.344 70.016 62.92H72.384V64.44H70.704C70.784 64.744 70.832 65.08 70.832 65.464C70.832 65.816 70.784 66.184 70.688 66.568C71.248 67.016 71.824 67.4 72.56 67.4C73.472 67.4 73.824 66.856 73.888 65.736H75.552C75.552 67.8 74.528 69.176 72.848 69.176C71.616 69.176 70.736 68.6 70.048 67.992C69.584 68.68 68.88 69.176 67.984 69.176C66.816 69.176 65.92 68.408 65.936 67.224C65.952 66.088 66.832 65.256 68.096 65.256C68.512 65.256 68.88 65.352 69.216 65.512C69.2 65.128 69.104 64.776 68.96 64.44H66.912ZM67.472 67.192C67.472 67.512 67.712 67.736 68.032 67.736C68.464 67.736 68.768 67.416 68.96 66.968C68.672 66.744 68.4 66.584 68.128 66.584C67.744 66.584 67.472 66.792 67.472 67.192Z" fill="#190A0A"/>
<path opacity="0.2" d="M102.923 61.7641H91.2188V50.0161L102.923 61.7641Z" fill="#E0004D"/>
<path d="M102.923 61.7641H91.2188V50.0161L102.923 61.7641Z" stroke="#190A0A" stroke-width="2" stroke-linecap="round" stroke-linejoin="round"/>
<path d="M94.3468 112.679H58.8115V50.0161H91.219" stroke="#190A0A" stroke-width="2" stroke-linecap="round" stroke-linejoin="round"/>
<path d="M102.902 61.7642V102.455" stroke="#190A0A" stroke-width="2" stroke-linecap="round" stroke-linejoin="round"/>
<path d="M66.5801 74.1709H77.2346" stroke="#190A0A" stroke-width="2" stroke-linecap="round" stroke-linejoin="round"/>
<path d="M66.5801 78.8252H87.2636" stroke="#190A0A" stroke-width="2" stroke-linecap="round" stroke-linejoin="round"/>
<path d="M107.696 112.813H54V77L80.8583 92.813L107.696 77V112.813Z" fill="white" stroke="#190A0A" stroke-width="2" stroke-linecap="round" stroke-linejoin="round"/>
<path d="M54.009 112.984L78.5467 95.0771" stroke="#190A0A" stroke-width="2" stroke-linecap="round" stroke-linejoin="round"/>
<path d="M107.706 112.984L83.168 95.0771" stroke="#190A0A" stroke-width="2" stroke-linecap="round" stroke-linejoin="round"/>
</g>
<defs>
<clipPath id="clip0_2285_801">
<rect width="55.7143" height="65" fill="white" transform="translate(53 49)"/>
</clipPath>
</defs>
</svg>
