<svg width="170" height="48" viewBox="0 0 170 48" fill="none" xmlns="http://www.w3.org/2000/svg">
<path d="M130.396 11.9067H121.164C120.551 11.9067 119.983 12.3443 119.895 13.0006L116.176 36.4099C116.132 36.6286 116.22 36.8474 116.351 37.0224C116.482 37.1975 116.701 37.285 116.92 37.285H121.645C122.083 37.285 122.477 36.9787 122.52 36.5411L123.571 29.8903C123.658 29.2777 124.227 28.7964 124.84 28.8401H127.771C133.853 28.8401 137.354 25.9085 138.272 20.1765C138.666 17.6387 138.272 15.6697 137.091 14.2695C135.822 12.7381 133.503 11.9067 130.396 11.9067ZM131.447 20.4828C130.922 23.7645 128.427 23.7645 125.977 23.7645H124.577L125.54 17.6387C125.583 17.2449 125.933 16.9824 126.283 16.9824H126.94C128.602 16.9824 130.178 16.9824 131.009 17.9013C131.49 18.4701 131.665 19.3014 131.447 20.4828ZM64.5006 11.9067H55.2681C54.6555 11.9067 54.0867 12.3443 53.9992 13.0006L50.2362 36.4099C50.1925 36.6286 50.28 36.8474 50.4113 37.0224C50.5425 37.1975 50.7613 37.285 50.9801 37.285H55.3994C56.012 37.285 56.5808 36.8474 56.6683 36.2348L57.6747 29.934C57.7622 29.3215 58.331 28.8401 58.9436 28.8839H61.8752C67.9572 28.8839 71.4577 25.9523 72.3766 20.2203C72.7704 17.6825 72.3766 15.7135 71.1952 14.3133C69.9262 12.7381 67.6072 11.9067 64.5006 11.9067ZM65.5944 20.4828C65.0694 23.7645 62.5753 23.7645 60.125 23.7645H58.7248L59.6874 17.6387C59.7312 17.2449 60.0812 16.9824 60.4313 16.9824H61.0876C62.7503 16.9824 64.3255 16.9824 65.1569 17.9013C65.5944 18.4701 65.7695 19.3014 65.5944 20.4828ZM92.1103 20.3516H87.691C87.2972 20.3516 86.9909 20.6141 86.9472 21.0079L86.7721 22.2331L86.4659 21.7955C85.5032 20.4391 83.3592 19.9578 81.2589 19.9578C76.3583 19.9578 72.2015 23.6332 71.3702 28.7526C70.9326 31.3342 71.5452 33.7408 73.0329 35.4472C74.3893 37.0224 76.3146 37.6788 78.5899 37.6788C80.8651 37.7225 83.0967 36.8037 84.7156 35.1847L84.4531 36.4099C84.4093 36.6286 84.4969 36.8474 84.6281 37.0224C84.7594 37.1975 84.9782 37.285 85.1969 37.285H89.1787C89.7913 37.285 90.3601 36.8474 90.4476 36.2348L92.8542 21.2704C92.8979 21.0517 92.8104 20.8329 92.6792 20.6579C92.5479 20.4828 92.3291 20.3516 92.1103 20.3516ZM85.9408 28.8839C85.547 31.3342 83.4467 33.1282 80.9527 33.0407C79.815 33.1282 78.7649 32.6906 77.9773 31.8593C77.3209 30.9842 77.0584 29.8903 77.2772 28.7964C77.6272 26.3461 79.7713 24.5521 82.2216 24.5959C83.3155 24.5083 84.4093 24.9459 85.1532 25.7773C85.9408 26.6524 86.2033 27.79 85.9408 28.8839ZM158.006 20.3516H153.587C153.193 20.3516 152.887 20.6141 152.843 21.0079L152.668 22.2331L152.362 21.7955C151.399 20.4391 149.255 19.9578 147.155 19.9578C142.254 19.9578 138.097 23.6332 137.266 28.7526C136.829 31.3342 137.441 33.7408 138.929 35.4472C140.285 37.0224 142.21 37.6788 144.486 37.6788C146.761 37.7225 148.993 36.8037 150.612 35.1847L150.437 36.4099C150.393 36.6286 150.48 36.8474 150.612 37.0224C150.743 37.1975 150.962 37.285 151.18 37.285H155.162C155.775 37.285 156.344 36.8037 156.431 36.1911L158.838 21.2267C158.881 21.0079 158.794 20.7891 158.663 20.6141C158.444 20.4391 158.225 20.3516 158.006 20.3516ZM151.837 28.8839C151.443 31.3342 149.343 33.1282 146.849 33.0407C145.711 33.1282 144.661 32.6906 143.873 31.8593C143.217 30.9842 142.954 29.8903 143.173 28.7964C143.523 26.3461 145.667 24.5521 148.117 24.5959C149.211 24.5083 150.305 24.9459 151.049 25.7773C151.837 26.6524 152.099 27.79 151.837 28.8839ZM115.695 20.3516H111.232C110.794 20.3516 110.4 20.5703 110.181 20.9204L104.056 29.8465L101.474 21.2704C101.299 20.7454 100.818 20.3516 100.249 20.3516H95.8733C95.6108 20.3516 95.392 20.4828 95.2607 20.6579C95.1295 20.8766 95.0857 21.0954 95.1732 21.3579L100.074 35.5348L95.392 41.9668C95.217 42.1856 95.217 42.4919 95.3482 42.7544C95.4795 43.017 95.742 43.1482 96.0483 43.1482H100.511C100.949 43.1482 101.343 42.9294 101.562 42.6232L116.351 21.533C116.526 21.3142 116.526 21.0079 116.395 20.7454C116.22 20.5266 115.957 20.3516 115.695 20.3516ZM163.213 12.5631L159.406 36.3661C159.363 36.5849 159.45 36.8037 159.581 36.9787C159.713 37.1537 159.931 37.2412 160.15 37.2412H163.957C164.57 37.2412 165.138 36.8037 165.226 36.1911L168.989 12.8256C169.033 12.6068 168.945 12.388 168.814 12.213C168.683 12.038 168.464 11.9505 168.245 11.9505H163.957C163.607 11.9067 163.301 12.1693 163.213 12.5631Z" fill="#3F3636"/>
<path d="M14.5314 11.295C14.8377 11.12 15.2315 11.0762 15.5815 11.0762H25.5141C26.6517 11.0762 27.7894 11.1637 28.927 11.3388C29.2333 11.3825 29.4958 11.4263 29.8021 11.5138C30.1084 11.5575 30.3709 11.6451 30.6335 11.7326L31.0273 11.8638C31.1585 11.9076 31.2898 11.9513 31.4211 11.9951C31.6398 9.326 30.8522 7.44451 29.5396 6.00058C27.6143 3.90031 24.2452 2.98145 19.8696 2.98145H8.05559C7.18048 2.98145 6.39288 3.63778 6.26161 4.46913L1.01094 37.5484C0.967183 37.8546 1.05469 38.1609 1.27347 38.4235C1.49225 38.686 1.79854 38.8173 2.10483 38.7735H9.06196L13.175 13.1327C13.3063 12.3014 13.7876 11.6013 14.5314 11.295Z" fill="#3F3636"/>
<path d="M30.502 13.3509L30.1519 13.2634C29.9332 13.1758 29.6706 13.1321 29.4081 13.0883C29.1456 13.0446 28.883 13.0008 28.6205 12.9571C27.5704 12.782 26.5202 12.7383 25.4701 12.7383H16.2377C16.0189 12.7383 15.7564 12.782 15.5376 12.8695C15.0563 13.0883 14.75 13.5259 14.6625 14.0509L12.9998 24.5085C13.1748 24.4648 13.3936 24.4648 13.5686 24.4648H17.2878C19.0818 24.5085 20.832 24.246 22.5822 23.8084C26.5202 22.6708 29.1456 20.1767 30.502 16.1512C30.7645 15.3199 30.9833 14.4885 31.1583 13.6572C30.9833 13.5259 30.7208 13.4384 30.502 13.3509Z" fill="#3F3636"/>
<path d="M33.9151 15.2768C33.5651 14.9267 33.215 14.6204 32.7775 14.3579C31.7711 19.2585 28.6644 26.1719 17.2005 26.1719H14.3564C13.4812 26.1719 12.6936 26.8282 12.5624 27.6596C12.5624 27.6596 10.3308 41.4426 10.2433 42.1427C10.1996 42.4052 10.2871 42.6678 10.4621 42.8865C10.6371 43.1053 10.8997 43.1928 11.1622 43.1928H16.8942C17.6818 43.1928 18.3381 42.624 18.4694 41.8802L19.8696 33.3478C20.0008 32.604 20.6572 32.0352 21.4448 32.0352H22.4074C28.7957 32.0352 33.7838 29.4536 35.2715 22.0589C35.3153 21.8401 35.359 21.6213 35.4028 21.4026C35.6653 18.8647 35.2715 16.8082 33.9151 15.2768Z" fill="#3F3636"/>
</svg>
