<svg width="81" height="80" viewBox="0 0 81 80" fill="none" xmlns="http://www.w3.org/2000/svg">
<g clip-path="url(#clip0_2295_4856)">
<path d="M39.9522 27.1726C39.4789 27.6459 39.1833 28.2997 39.1833 29.0163V58.3011H41.8064V26.4011C41.0794 26.4011 40.4256 26.6966 39.9522 27.17V27.1726Z" fill="#3F3636"/>
<path d="M57.4764 56.6378C57.3901 50.479 53.7733 44.5792 48.339 41.6842V13.8508C48.339 9.38406 44.9784 6.02094 40.5196 6.00001C36.045 5.99217 32.6452 9.36314 32.6478 13.8508V38.3524C32.708 38.9513 32.9826 39.4796 33.3958 39.9006V39.9111C33.8874 40.3844 34.5386 40.6773 35.2604 40.659V13.924C35.2369 10.4301 38.6052 7.88033 41.9004 8.81395C44.1233 9.43636 45.7264 11.5233 45.7264 13.924V43.3056C53.5772 46.6347 57.1495 55.8349 53.347 63.5184C53.347 63.5288 53.3366 63.5393 53.3366 63.5602C48.0251 73.9503 32.9617 73.9477 27.6555 63.5602C27.6555 63.5393 27.645 63.5288 27.645 63.5184C24.0988 56.5044 26.9651 47.6128 33.9267 43.9803C33.1473 42.6753 31.1598 42.3903 30.0588 43.4207C30.0484 43.4207 30.0484 43.4311 30.0379 43.4311C25.8902 46.687 23.4529 51.9148 23.4999 57.1765C23.4712 66.5833 31.4475 74.238 40.7941 73.9948C50.1173 73.9163 57.8138 66.008 57.4764 56.6378Z" fill="#3F3636"/>
<path d="M54.5005 8.61523C54.5005 9.34226 54.796 9.99605 55.2694 10.4589C55.7427 10.9323 56.3965 11.2278 57.1235 11.2278H64.1374V8.61523H54.5005Z" fill="#3F3636"/>
<path d="M54.5005 13.8455C54.5005 14.5725 54.796 15.2263 55.2694 15.6892C55.7427 16.1625 56.3965 16.458 57.1235 16.458H64.1374V13.8455H54.5005Z" fill="#3F3636"/>
<path d="M54.5005 19.0759C54.5005 19.8029 54.796 20.4567 55.2694 20.9196C55.7427 21.393 56.3965 21.6885 57.1235 21.6885H64.1374V19.0759H54.5005Z" fill="#3F3636"/>
</g>
<defs>
<clipPath id="clip0_2295_4856">
<rect width="40.6373" height="68" fill="white" transform="translate(23.5 6)"/>
</clipPath>
</defs>
</svg>
