<svg width="81" height="80" viewBox="0 0 81 80" fill="none" xmlns="http://www.w3.org/2000/svg">
<g clip-path="url(#clip0_2295_4875)">
<path d="M57.7353 17.9412H19.5C19.5 16.3176 20.8176 15 22.4412 15H60.6765C60.6765 16.6235 59.3588 17.9412 57.7353 17.9412Z" fill="#3F3636"/>
<path d="M57.7353 29.7058H19.5C19.5 28.0823 20.8176 26.7646 22.4412 26.7646H60.6765C60.6765 28.3882 59.3588 29.7058 57.7353 29.7058Z" fill="#3F3636"/>
<path d="M57.7353 41.4705H19.5C19.5 39.8469 20.8176 38.5293 22.4412 38.5293H60.6765C60.6765 40.1528 59.3588 41.4705 57.7353 41.4705Z" fill="#3F3636"/>
<path d="M57.7353 53.2352H19.5C19.5 51.6117 20.8176 50.2941 22.4412 50.2941H60.6765C60.6765 51.9176 59.3588 53.2352 57.7353 53.2352Z" fill="#3F3636"/>
<path d="M57.7353 65H19.5C19.5 63.3765 20.8176 62.0588 22.4412 62.0588H60.6765C60.6765 63.6824 59.3588 65 57.7353 65Z" fill="#3F3636"/>
</g>
<defs>
<clipPath id="clip0_2295_4875">
<rect width="41.1765" height="50" fill="white" transform="translate(19.5 15)"/>
</clipPath>
</defs>
</svg>
