<svg width="81" height="80" viewBox="0 0 81 80" fill="none" xmlns="http://www.w3.org/2000/svg">
<g clip-path="url(#clip0_2295_4883)">
<path d="M57.875 19.875H20.5C20.5 18.288 21.788 17 23.375 17H60.75C60.75 18.587 59.462 19.875 57.875 19.875Z" fill="#3F3636"/>
<path d="M57.875 34.25H20.5C20.5 32.663 21.788 31.375 23.375 31.375H60.75C60.75 32.962 59.462 34.25 57.875 34.25Z" fill="#3F3636"/>
<path d="M57.875 48.625H20.5C20.5 47.038 21.788 45.75 23.375 45.75H60.75C60.75 47.337 59.462 48.625 57.875 48.625Z" fill="#3F3636"/>
<path d="M57.875 63H20.5C20.5 61.413 21.788 60.125 23.375 60.125H60.75C60.75 61.712 59.462 63 57.875 63Z" fill="#3F3636"/>
</g>
<defs>
<clipPath id="clip0_2295_4883">
<rect width="40.25" height="46" fill="white" transform="translate(20.5 17)"/>
</clipPath>
</defs>
</svg>
