<svg width="81" height="80" viewBox="0 0 81 80" fill="none" xmlns="http://www.w3.org/2000/svg">
<g clip-path="url(#clip0_2295_4771)">
<path d="M53.6176 8C40.5001 16.755 29.5576 38.6275 29.5576 49.5575C29.5576 58.3125 34.4551 62.685 40.5001 62.685C46.5451 62.685 51.4326 58.3125 51.4326 51.755C51.4326 40.8125 40.5001 29.8725 53.6176 8ZM48.9326 51.755C48.9326 56.6425 45.3851 60.1875 40.5001 60.1875C35.2101 60.1875 32.0576 56.2175 32.0576 49.5575C32.0576 44.58 34.6676 36.7725 38.8576 29.165C41.0751 25.155 43.5726 21.4675 46.2026 18.305C43.1001 28.6325 45.2951 36.2875 47.1601 42.7675C48.1176 46.0925 48.9326 48.9625 48.9326 51.755Z" fill="#3F3636"/>
<path d="M59.0376 45.4976C59.0376 46.1926 59.3201 46.8176 59.7726 47.2601C60.2251 47.7126 60.8501 47.9951 61.5451 47.9951H75.5001V45.4976H59.0376Z" fill="#3F3636"/>
<path d="M59.1675 51.5026C59.3325 49.9501 57.985 48.5851 56.4175 48.7526C58.3425 58.4601 50.545 68.0901 40.4475 67.9651C28.9825 68.0651 20.97 56.0276 25.4475 45.4976H7.9975C6.6175 45.4976 5.5 46.6151 5.5 47.9951H22.0925C19.6625 59.4101 28.7475 70.5901 40.45 70.4526C50.8625 70.4626 59.3275 61.9226 59.17 51.5026H59.1675Z" fill="#3F3636"/>
</g>
<defs>
<clipPath id="clip0_2295_4771">
<rect width="70" height="62.455" fill="white" transform="translate(5.5 8)"/>
</clipPath>
</defs>
</svg>
