<svg width="81" height="80" viewBox="0 0 81 80" fill="none" xmlns="http://www.w3.org/2000/svg">
<g clip-path="url(#clip0_2295_4777)">
<path d="M27.0012 23.1775C26.7487 25.1029 26.6237 27.0307 26.6212 28.9686C26.6137 35.0271 27.8064 40.1981 28.8566 44.7564C29.6767 48.3145 30.3844 51.3901 30.3844 54.2006C30.3844 59.164 27.9514 62.9071 24.7233 62.9071C23.2431 62.9071 21.9879 62.387 20.9952 61.3568C19.79 60.1116 18.3872 57.4987 18.5622 52.1352C18.7898 45.184 22.1179 33.0193 27.0012 23.175M33.88 9C23.8682 18.0216 16.4144 41.3333 16.0643 52.0577C15.7517 61.6344 20.08 65.4126 24.7258 65.4126C29.3717 65.4126 32.8873 60.6417 32.8873 54.2056C32.8873 43.4762 23.7882 30.4613 33.8825 9.0025L33.88 9Z" fill="#3F3636"/>
<path d="M24.4684 71.4661C18.1898 71.4661 11.4386 66.8403 10.5059 56.5085C10.3534 54.8282 10.3134 52.2327 10.866 48.9621H5.5C5.5 47.5819 6.6202 46.4617 8.00045 46.4617H13.9265L13.6014 47.9744C12.8113 51.6526 12.8363 54.5231 12.9963 56.2834C13.5664 62.597 17.3346 68.9657 24.4684 68.9657C30.5445 68.9657 35.0653 64.2523 35.7229 57.2386C35.9604 54.7131 35.7804 51.8826 35.2203 49.2672C36.6006 48.9721 37.9258 49.9323 38.0983 51.3325C38.3509 53.4079 38.3934 55.5208 38.2108 57.4711C37.4282 65.8426 31.9047 71.4661 24.4684 71.4661Z" fill="#3F3636"/>
<path d="M58.1092 23.1775C57.8566 25.1029 57.7316 27.0307 57.7291 28.9686C57.7216 35.0271 58.9143 40.1981 59.9645 44.7564C60.7846 48.3145 61.4923 51.3901 61.4923 54.2006C61.4923 59.164 59.0593 62.9071 55.8313 62.9071C54.351 62.9071 53.0958 62.387 52.1031 61.3568C50.8979 60.1116 49.4951 57.4987 49.6702 52.1352C49.8977 45.184 53.2258 33.0193 58.1092 23.175M64.9879 9C54.9761 18.0216 47.5223 41.3333 47.1722 52.0577C46.8597 61.6344 51.1879 65.4126 55.8338 65.4126C60.4796 65.4126 63.9952 60.6417 63.9952 54.2056C63.9952 43.4762 54.8961 30.4613 64.9904 9.0025L64.9879 9Z" fill="#3F3636"/>
<path d="M55.5765 71.4661C49.2979 71.4661 42.5466 66.8403 41.614 56.5085C41.4614 54.8282 41.4214 52.2327 41.974 48.9621H40.8588C39.4786 48.9621 38.3584 47.8419 38.3584 46.4617H45.0346L44.7095 47.9744C43.9194 51.6526 43.9444 54.5231 44.1044 56.2834C44.6745 62.597 48.4427 68.9657 55.5765 68.9657C61.6526 68.9657 66.1734 64.2523 66.831 57.2386C67.0685 54.7131 66.8885 51.8826 66.3284 49.2672C67.7086 48.9721 69.0339 49.9323 69.2064 51.3325C69.459 53.4079 69.5015 55.5208 69.3189 57.4711C68.5363 65.8426 63.0128 71.4661 55.5765 71.4661Z" fill="#3F3636"/>
<path d="M75.5002 48.9621H71.622C70.2418 48.9621 69.1216 47.8419 69.1216 46.4617H75.5002V48.9621Z" fill="#3F3636"/>
</g>
<defs>
<clipPath id="clip0_2295_4777">
<rect width="70" height="62.4662" fill="white" transform="translate(5.5 9)"/>
</clipPath>
</defs>
</svg>
