<svg width="81" height="80" viewBox="0 0 81 80" fill="none" xmlns="http://www.w3.org/2000/svg">
<g clip-path="url(#clip0_2295_4792)">
<path d="M42.5663 16.4982V8.61277H50.4177C51.1448 8.61277 51.7986 8.31723 52.2615 7.84385C52.7349 7.38092 53.0305 6.72708 53.0305 6H29.4946V8.61277H39.9509V19.3751L39.9614 24.3208L39.9719 28.4818C41.4051 28.4714 42.5637 27.3128 42.5742 25.8795C42.5742 25.8691 42.5637 19.1109 42.5637 19.1109C56.6449 19.8066 67.8283 31.6752 67.4046 46.0075C67.0149 59.3826 56.2945 70.4902 42.9534 71.3245C27.7659 72.2843 15.1074 60.2038 15.1074 45.2282C15.1074 32.1486 24.7712 21.2712 37.3355 19.3751V16.7414C22.7914 18.7317 11.6734 31.6334 12.5469 46.9046C13.3577 61.2291 24.8889 72.9277 39.2029 73.9294C55.9937 75.0985 70.0305 61.7783 70.0305 45.2308C70.0305 29.8 57.8245 17.1729 42.5637 16.5008L42.5663 16.4982Z" fill="#3F3636"/>
<path d="M59.6451 45.2283L59.6373 45.2361C58.9677 45.2361 58.2956 45.4898 57.7882 45.9972C57.2808 46.5046 57.0271 47.1741 57.0271 47.8463L62.2526 47.8384H65.2629V45.2309H59.6425L59.6451 45.2283Z" fill="#3F3636"/>
<path d="M30.5409 35.8469H25.5403V33.7546C29.8557 33.7233 31.0326 33.0354 31.1634 29.7322H33.2557V53.302H30.5409V35.8443V35.8469Z" fill="#3F3636"/>
<path d="M37.3096 41.5039C37.3096 34.343 40.2859 29.4731 46.1705 29.4731C52.0551 29.4731 55.0314 34.3116 55.0314 41.5039C55.0314 48.6962 52.0237 53.5661 46.1705 53.5661C40.3173 53.5661 37.3096 48.6962 37.3096 41.5039ZM52.2826 41.5039C52.2826 35.7815 50.159 31.8924 46.1679 31.8924C42.1768 31.8924 40.0531 35.7501 40.0531 41.5039C40.0531 47.2578 42.1768 51.1495 46.1679 51.1495C50.159 51.1495 52.2826 47.2578 52.2826 41.5039Z" fill="#3F3636"/>
<path d="M29.5051 57.4736H31.4039V58.2112C31.7596 57.7168 32.3141 57.3821 33.0621 57.3821C33.9827 57.3821 34.5241 57.7378 34.8457 58.3942C35.157 57.8764 35.871 57.3821 36.8596 57.3821C38.1594 57.3821 39.0225 58.2452 39.0225 59.3619V63.4472H37.1237V59.9478C37.1237 59.3384 36.789 58.9696 36.2371 58.9696C35.5807 58.9696 35.2119 59.4979 35.2119 60.3741V63.4472H33.3131V59.9478C33.3131 59.3384 32.9784 58.9696 32.4396 58.9696C31.7831 58.9696 31.4039 59.511 31.4039 60.3845V63.4472H29.5051V57.4736Z" fill="#3F3636"/>
<path d="M42.0382 55.0569V56.817H40.0479V55.0569H42.0382ZM40.0819 57.4735H41.9806V63.447H40.0819V57.4735Z" fill="#3F3636"/>
<path d="M43.0842 57.4736H44.983V58.1876C45.3282 57.7168 45.9611 57.3821 46.7562 57.3821C48.0901 57.3821 48.9662 58.2452 48.9662 59.5685V63.4472H47.0675V60.0759C47.0675 59.4665 46.6882 59.0638 46.1233 59.0638C45.3518 59.0638 44.983 59.6862 44.983 60.8239V63.4472H43.0842V57.4736Z" fill="#3F3636"/>
<path d="M49.7012 61.3182H51.3462C51.3698 61.687 51.7961 62.1133 52.3819 62.1133C52.8318 62.1133 53.1535 61.9407 53.1535 61.6425C53.1535 61.4359 52.9913 61.2738 52.6592 61.2058L51.8301 61.0436C50.9566 60.871 49.9784 60.4447 49.9784 59.1213C49.9784 58.2007 50.8179 57.3821 52.2459 57.3821C53.5353 57.3821 54.6155 58.083 54.7672 59.3515H53.1221C53.0541 58.9147 52.5807 58.7185 52.2486 58.7185C51.9164 58.7185 51.6496 58.8572 51.6496 59.1213C51.6496 59.3855 51.8693 59.5136 52.191 59.5712L53.0306 59.7202C53.9982 59.8928 54.8718 60.2852 54.8718 61.6085C54.8718 62.6338 53.8701 63.5413 52.3846 63.5413C50.8206 63.5413 49.7613 62.6678 49.7038 61.3208L49.7012 61.3182Z" fill="#3F3636"/>
</g>
<defs>
<clipPath id="clip0_2295_4792">
<rect width="57.5306" height="68" fill="white" transform="translate(12.5 6)"/>
</clipPath>
</defs>
</svg>
