<svg width="81" height="80" viewBox="0 0 81 80" fill="none" xmlns="http://www.w3.org/2000/svg">
<g clip-path="url(#clip0_2295_4806)">
<path d="M41.5666 16.4982V8.61277H49.4179C50.145 8.61277 50.7989 8.31723 51.2618 7.84385C51.7352 7.38092 52.0307 6.72708 52.0307 6H28.4949V8.61277H38.9512V19.3751L38.9616 24.3208L38.9721 28.4818C40.4053 28.4714 41.5639 27.3128 41.5744 25.8795C41.5744 25.8691 41.5639 19.1109 41.5639 19.1109C55.6452 19.8066 66.8285 31.6752 66.4049 46.0075C66.0152 59.3826 55.2947 70.4902 41.9536 71.3245C26.7661 72.2843 14.1076 60.2038 14.1076 45.2282C14.1076 32.1486 23.7715 21.2712 36.3358 19.3751V16.7414C21.7916 18.7317 10.6736 31.6334 11.5472 46.9046C12.3579 61.2291 23.8892 72.9277 38.2032 73.9294C54.9939 75.0985 69.0307 61.7783 69.0307 45.2308C69.0307 29.8 56.8247 17.1729 41.5639 16.5008L41.5666 16.4982Z" fill="#3F3636"/>
<path d="M57.4786 50.5007L57.4733 50.4928C56.8169 50.3621 56.2075 49.9802 55.81 49.3839C55.4124 48.7876 55.2947 48.0788 55.4281 47.4224L60.549 48.4554L63.5018 49.0465L62.9892 51.6044L57.4786 50.5007Z" fill="#3F3636"/>
<path d="M30.1947 35.8467H25.1941V33.7544C29.5095 33.723 30.6864 33.0352 30.8172 29.7319H32.9095V53.3018H30.1947V35.8441V35.8467Z" fill="#3F3636"/>
<path d="M36.571 50.9192L45.5627 43.1045C48.2435 40.7192 49.5852 38.7237 49.5852 36.4352C49.5852 33.6577 47.689 31.8897 44.8121 31.8897C41.3467 31.8897 39.3852 34.2749 39.7775 37.9051H37.1621C36.8352 32.7737 39.9397 29.4705 44.8121 29.4705C49.389 29.4705 52.3314 32.2166 52.3314 36.4326C52.3314 39.2782 50.8275 41.8935 47.2314 44.964L40.366 50.88H52.3314V53.2992H36.5737V50.914L36.571 50.9192Z" fill="#3F3636"/>
<path d="M28.5051 57.4736H30.4039V58.2112C30.7596 57.7168 31.3141 57.3821 32.0621 57.3821C32.9827 57.3821 33.5241 57.7378 33.8457 58.3942C34.157 57.8764 34.871 57.3821 35.8596 57.3821C37.1594 57.3821 38.0225 58.2452 38.0225 59.3619V63.4472H36.1237V59.9478C36.1237 59.3384 35.789 58.9696 35.2371 58.9696C34.5807 58.9696 34.2119 59.4979 34.2119 60.3741V63.4472H32.3131V59.9478C32.3131 59.3384 31.9784 58.9696 31.4396 58.9696C30.7831 58.9696 30.4039 59.511 30.4039 60.3845V63.4472H28.5051V57.4736Z" fill="#3F3636"/>
<path d="M41.0382 55.0569V56.817H39.0479V55.0569H41.0382ZM39.0819 57.4735H40.9806V63.447H39.0819V57.4735Z" fill="#3F3636"/>
<path d="M42.084 57.4736H43.9828V58.1876C44.328 57.7168 44.9609 57.3821 45.756 57.3821C47.0898 57.3821 47.966 58.2452 47.966 59.5685V63.4472H46.0672V60.0759C46.0672 59.4665 45.688 59.0638 45.1231 59.0638C44.3515 59.0638 43.9828 59.6862 43.9828 60.8239V63.4472H42.084V57.4736Z" fill="#3F3636"/>
<path d="M48.7012 61.3182H50.3462C50.3698 61.687 50.7961 62.1133 51.3819 62.1133C51.8318 62.1133 52.1535 61.9407 52.1535 61.6425C52.1535 61.4359 51.9913 61.2738 51.6592 61.2058L50.8301 61.0436C49.9566 60.871 48.9784 60.4447 48.9784 59.1213C48.9784 58.2007 49.8179 57.3821 51.2459 57.3821C52.5353 57.3821 53.6155 58.083 53.7672 59.3515H52.1221C52.0541 58.9147 51.5807 58.7185 51.2486 58.7185C50.9164 58.7185 50.6496 58.8572 50.6496 59.1213C50.6496 59.3855 50.8693 59.5136 51.191 59.5712L52.0306 59.7202C52.9982 59.8928 53.8718 60.2852 53.8718 61.6085C53.8718 62.6338 52.8701 63.5413 51.3846 63.5413C49.8206 63.5413 48.7613 62.6678 48.7038 61.3208L48.7012 61.3182Z" fill="#3F3636"/>
</g>
<defs>
<clipPath id="clip0_2295_4806">
<rect width="57.5306" height="68" fill="white" transform="translate(11.5 6)"/>
</clipPath>
</defs>
</svg>
