<svg width="81" height="80" viewBox="0 0 81 80" fill="none" xmlns="http://www.w3.org/2000/svg">
<g clip-path="url(#clip0_2295_4831)">
<path d="M62.0481 49.0173H19.352C17.1113 49.0173 15.2891 47.211 15.2891 44.9898C15.2891 42.7687 17.1113 40.9624 19.352 40.9624H62.0505C64.2912 40.9624 66.1134 42.7687 66.1134 44.9898C66.1134 47.211 64.2912 49.0173 62.0505 49.0173H62.0481ZM19.352 43.6474C18.6043 43.6474 17.9977 44.2487 17.9977 44.9898C17.9977 45.731 18.6043 46.3323 19.352 46.3323H62.0505C62.7981 46.3323 63.4048 45.731 63.4048 44.9898C63.4048 44.2487 62.7981 43.6474 62.0505 43.6474H19.352Z" fill="#3F3636"/>
<path d="M62.0481 37.35H19.352C17.1113 37.35 15.2891 35.5438 15.2891 33.3226C15.2891 31.1015 17.1113 29.2952 19.352 29.2952H62.0505C64.2912 29.2952 66.1134 31.1015 66.1134 33.3226C66.1134 35.5438 64.2912 37.35 62.0505 37.35H62.0481ZM19.352 31.9825C18.6043 31.9825 17.9977 32.5838 17.9977 33.3249C17.9977 34.0661 18.6043 34.6674 19.352 34.6674H62.0505C62.7981 34.6674 63.4048 34.0661 63.4048 33.3249C63.4048 32.5838 62.7981 31.9825 62.0505 31.9825H19.352Z" fill="#3F3636"/>
<path d="M5 22V57H76.4V22H5ZM73.2611 53.8885H8.1389V25.1115H73.2611V53.8885Z" fill="#3F3636"/>
</g>
<defs>
<clipPath id="clip0_2295_4831">
<rect width="71.4" height="35" fill="white" transform="translate(5 22)"/>
</clipPath>
</defs>
</svg>
