<svg width="81" height="80" viewBox="0 0 81 80" fill="none" xmlns="http://www.w3.org/2000/svg">
<g clip-path="url(#clip0_2295_4837)">
<path d="M5 21V56H76V21H5ZM72.8773 52.8871H8.12015V24.1103H72.8773V52.8871Z" fill="#3F3636"/>
<path d="M61.7285 42.5903H19.2716C17.0444 42.5903 15.2332 40.7848 15.2332 38.5645C15.2332 36.3443 17.0444 34.5388 19.2716 34.5388H61.7285C63.9558 34.5388 65.767 36.3443 65.767 38.5645C65.767 40.7848 63.9558 42.5903 61.7285 42.5903ZM19.2716 37.2218C18.5283 37.2218 17.9246 37.8236 17.9246 38.5645C17.9246 39.3055 18.5283 39.9073 19.2716 39.9073H61.7285C62.4718 39.9073 63.0755 39.3055 63.0755 38.5645C63.0755 37.8236 62.4718 37.2218 61.7285 37.2218H19.2716Z" fill="#3F3636"/>
</g>
<defs>
<clipPath id="clip0_2295_4837">
<rect width="71" height="35" fill="white" transform="translate(5 21)"/>
</clipPath>
</defs>
</svg>
