<svg width="147" height="101" viewBox="0 0 147 101" fill="none" xmlns="http://www.w3.org/2000/svg">
<path d="M56.9316 42.0918C56.0003 40.6225 54.8207 39.2773 53.4962 38.0977C51.6751 36.4835 49.6263 35.1797 47.5568 33.938C45.7149 32.8412 43.6455 31.6409 42.1554 30.0474C41.7415 29.6128 40.831 28.6195 40.3343 27.026C39.3823 23.9631 40.1273 19.4516 43.5834 18.541C44.9493 18.1685 46.4807 18.3134 47.7224 19.017C49.3159 19.9276 50.2471 21.7694 50.0608 23.6113V26.7362H59.3943C59.5391 26.7362 59.208 21.5625 59.1459 21.0658C58.8976 19.1826 58.4216 17.32 57.3869 15.7265C55.069 12.1877 50.5162 10.47 46.4807 10.3458C42.8798 10.2217 39.0098 11.215 35.9263 13.119C33.8568 14.4021 32.4288 16.4301 31.601 18.7273C30.4214 22.0385 29.9868 25.9084 30.6904 29.3645C31.7459 34.5796 35.2433 38.2426 39.5065 41.0778C41.4932 42.4023 43.5627 43.6025 45.4873 45.0098C47.2257 46.2722 48.7778 47.576 49.4607 49.7282C50.4127 52.7911 49.6677 57.3026 46.2116 58.2132C44.8458 58.5857 43.3143 58.4408 42.0726 57.7372C40.4791 56.8266 39.5479 54.9848 39.7341 53.1429V50.018H30.4007C30.2558 50.018 30.587 55.1917 30.6491 55.6884C30.8974 57.5716 31.3733 59.4342 32.4081 61.0277C34.7259 64.5665 39.2788 66.2842 43.3143 66.4084C46.9153 66.5325 50.7852 65.5391 53.8688 63.6352C55.9383 62.3521 57.3662 60.324 58.194 58.0269C59.3736 54.7157 59.8082 50.8458 59.1046 47.3897C58.7114 45.4651 57.9663 43.6853 56.9523 42.0918H56.9316Z" fill="#FBFAF4"/>
<path d="M125.102 42.0918C124.171 40.6225 122.992 39.2773 121.667 38.0977C119.846 36.4835 117.797 35.1797 115.728 33.938C113.886 32.8412 111.816 31.6409 110.326 30.0474C109.912 29.6128 109.002 28.6195 108.505 27.026C107.553 23.9631 108.298 19.4516 111.754 18.541C113.12 18.1685 114.652 18.3134 115.893 19.017C117.487 19.9276 118.418 21.7694 118.232 23.6113V26.7362H127.565C127.71 26.7362 127.379 21.5625 127.317 21.0658C127.068 19.1826 126.593 17.32 125.558 15.7265C123.24 12.1877 118.687 10.47 114.652 10.3458C111.051 10.2217 107.181 11.215 104.097 13.119C102.028 14.4021 100.6 16.4301 99.7719 18.7273C98.5923 22.0385 98.1577 25.9084 98.8613 29.3645C99.9168 34.5796 103.414 38.2426 107.677 41.0778C109.664 42.4023 111.734 43.6025 113.658 45.0098C115.397 46.2722 116.949 47.576 117.632 49.7282C118.584 52.7911 117.839 57.3026 114.383 58.2132C113.017 58.5857 111.485 58.4408 110.244 57.7372C108.65 56.8266 107.719 54.9848 107.905 53.1429V50.018H98.5716C98.4267 50.018 98.7579 55.1917 98.82 55.6884C99.0683 57.5716 99.5442 59.4342 100.579 61.0277C102.897 64.5665 107.45 66.2842 111.485 66.4084C115.086 66.5325 118.956 65.5391 122.04 63.6352C124.109 62.3521 125.537 60.324 126.365 58.0269C127.544 54.7157 127.979 50.8458 127.275 47.3897C126.882 45.4651 126.137 43.6854 125.123 42.0918H125.102Z" fill="#FBFAF4"/>
<path d="M79.9028 45.7346H84.9524V58.8966H78.3921V66.8642H84.9524H94.7411V58.8966V45.7346V41.7612V37.7671H79.9028V45.7346Z" fill="#FBFAF4"/>
<path d="M79.0173 10.9264H78.9345C70.2633 10.9264 63.2271 17.9627 63.2271 26.6339V51.1573C63.2271 59.6423 69.9736 66.5544 78.3757 66.8441V58.8559C75.3543 58.5661 72.9951 56.0207 72.9951 52.9164V24.8334C72.9951 21.5429 75.6647 18.8733 78.9552 18.8733C82.2457 18.8733 84.9153 21.5429 84.9153 24.8334V28.3723H94.704V26.6132C94.704 17.942 87.6677 10.9058 78.9966 10.9058L79.0173 10.9264Z" fill="#FBFAF4"/>
<path d="M127.812 0H127.377V78.6406H127.812V0Z" fill="#FBFAF4"/>
<path d="M146.892 66.1204H0V66.6998H146.892V66.1204Z" fill="#FBFAF4"/>
<path d="M0.935739 88.0218H1.93224V95.8723H6.34358V96.7837H0.935739V88.0218ZM8.93623 96.8809C8.3043 96.8809 7.78985 96.7189 7.39287 96.3948C7.00399 96.0707 6.80955 95.6373 6.80955 95.0945C6.80955 94.5598 6.99184 94.1304 7.35641 93.8063C7.72909 93.4742 8.25164 93.2635 8.92408 93.1744L10.431 92.98C10.8442 92.9152 11.0508 92.7207 11.0508 92.3967C11.0508 92.0402 10.909 91.7526 10.6254 91.5338C10.3419 91.307 9.95703 91.1936 9.47094 91.1936C9.00914 91.1936 8.63242 91.3029 8.34076 91.5217C8.0491 91.7404 7.88707 92.0523 7.85466 92.4574H6.89462C6.95943 91.8255 7.22273 91.3232 7.68453 90.9505C8.14632 90.5697 8.74179 90.3793 9.47094 90.3793C9.96514 90.3793 10.4026 90.4725 10.7834 90.6589C11.1642 90.8371 11.4599 91.0842 11.6705 91.4002C11.8812 91.7161 11.9865 92.0766 11.9865 92.4817V95.532C11.9865 95.7264 12.023 95.8561 12.0959 95.9209C12.1769 95.9857 12.2903 96.0181 12.4361 96.0181C12.5009 96.0181 12.5658 96.01 12.6306 95.9938V96.7837C12.4847 96.8242 12.347 96.8445 12.2174 96.8445C11.8771 96.8445 11.6057 96.7513 11.4032 96.5649C11.2087 96.3786 11.1075 96.091 11.0994 95.7021C10.9292 96.0586 10.6457 96.3462 10.2487 96.5649C9.85171 96.7756 9.41423 96.8809 8.93623 96.8809ZM9.0456 96.0788C9.67753 96.0788 10.1717 95.8885 10.5282 95.5077C10.8847 95.1269 11.0629 94.6003 11.0629 93.9279V93.6119L9.0456 93.9279C8.19493 94.0656 7.76959 94.4504 7.76959 95.0823C7.76959 95.3902 7.88707 95.6333 8.12201 95.8115C8.35696 95.9897 8.66482 96.0788 9.0456 96.0788ZM16.6691 96.8809C16.1992 96.8809 15.7698 96.7796 15.3809 96.5771C14.992 96.3746 14.7287 96.1234 14.591 95.8236V96.7837H13.6553V87.9246H14.591V91.4366C14.7854 91.1288 15.0771 90.8776 15.466 90.6832C15.8549 90.4806 16.2559 90.3793 16.6691 90.3793C17.2929 90.3793 17.8317 90.5211 18.2854 90.8047C18.739 91.0882 19.0834 91.4771 19.3183 91.9713C19.5533 92.4574 19.6707 93.0083 19.6707 93.6241C19.6707 94.2398 19.5533 94.7947 19.3183 95.2889C19.0834 95.7831 18.739 96.172 18.2854 96.4556C17.8317 96.7391 17.2929 96.8809 16.6691 96.8809ZM16.5962 96.0424C17.2281 96.0424 17.7344 95.8196 18.1152 95.374C18.5041 94.9284 18.6985 94.3451 18.6985 93.6241C18.6985 92.903 18.5041 92.3237 18.1152 91.8863C17.7344 91.4407 17.2281 91.2179 16.5962 91.2179C15.9723 91.2179 15.466 91.4407 15.0771 91.8863C14.6963 92.3237 14.5059 92.903 14.5059 93.6241C14.5059 94.3532 14.6963 94.9406 15.0771 95.3862C15.466 95.8236 15.9723 96.0424 16.5962 96.0424ZM20.6026 92.7612H24.1997V93.5876H20.6026V92.7612ZM25.1456 93.6241C25.1456 93.0164 25.2671 92.4655 25.5102 91.9713C25.7613 91.4771 26.1137 91.0882 26.5674 90.8047C27.0211 90.5211 27.5518 90.3793 28.1594 90.3793C28.7184 90.3793 29.2126 90.509 29.642 90.7682C30.0714 91.0194 30.3995 91.3677 30.6264 91.8133C30.8613 92.2508 30.9788 92.745 30.9788 93.2959C30.9788 93.4175 30.9707 93.5673 30.9545 93.7456H26.0935C26.1178 94.4585 26.3163 95.0216 26.689 95.4348C27.0697 95.848 27.568 96.0545 28.1837 96.0545C28.6617 96.0545 29.0708 95.9452 29.4111 95.7264C29.7514 95.4996 29.958 95.1877 30.0309 94.7907H30.9302C30.8167 95.455 30.5089 95.9695 30.0066 96.3341C29.5043 96.6986 28.8967 96.8809 28.1837 96.8809C27.5761 96.8809 27.0414 96.7391 26.5796 96.4556C26.1259 96.172 25.7735 95.7831 25.5223 95.2889C25.2712 94.7947 25.1456 94.2398 25.1456 93.6241ZM29.9823 92.9557C29.9418 92.4291 29.7595 92.0037 29.4354 91.6797C29.1195 91.3475 28.6941 91.1814 28.1594 91.1814C27.6247 91.1814 27.1791 91.3394 26.8226 91.6554C26.4743 91.9713 26.2515 92.4048 26.1543 92.9557H29.9823ZM32.6071 91.2908H31.4162V90.4766H32.6071V89.7353C32.6071 89.1357 32.7691 88.6821 33.0932 88.3742C33.4173 88.0663 33.8467 87.9124 34.3814 87.9124C34.673 87.9124 34.9363 87.9408 35.1713 87.9975V88.836C34.9444 88.7793 34.6973 88.7509 34.43 88.7509C34.1707 88.7509 33.956 88.836 33.7859 89.0061C33.6158 89.1763 33.5307 89.4274 33.5307 89.7596V90.4766H35.1713V91.2908H33.5307V96.7837H32.6071V91.2908ZM36.6184 91.2908H35.4274V90.4766H36.6184V89.7353C36.6184 89.1357 36.7804 88.6821 37.1045 88.3742C37.4285 88.0663 37.8579 87.9124 38.3926 87.9124C38.6843 87.9124 38.9476 87.9408 39.1825 87.9975V88.836C38.9557 88.7793 38.7086 88.7509 38.4412 88.7509C38.182 88.7509 37.9673 88.836 37.7972 89.0061C37.627 89.1763 37.542 89.4274 37.542 89.7596V90.4766H39.1825V91.2908H37.542V96.7837H36.6184V91.2908ZM39.4461 93.6241C39.4461 93.0164 39.5676 92.4655 39.8107 91.9713C40.0618 91.4771 40.4142 91.0882 40.8679 90.8047C41.3216 90.5211 41.8523 90.3793 42.4599 90.3793C43.0189 90.3793 43.5131 90.509 43.9425 90.7682C44.3719 91.0194 44.7 91.3677 44.9269 91.8133C45.1618 92.2508 45.2793 92.745 45.2793 93.2959C45.2793 93.4175 45.2712 93.5673 45.255 93.7456H40.394C40.4183 94.4585 40.6168 95.0216 40.9895 95.4348C41.3702 95.848 41.8685 96.0545 42.4842 96.0545C42.9622 96.0545 43.3713 95.9452 43.7116 95.7264C44.0519 95.4996 44.2585 95.1877 44.3314 94.7907H45.2307C45.1172 95.455 44.8094 95.9695 44.3071 96.3341C43.8048 96.6986 43.1972 96.8809 42.4842 96.8809C41.8766 96.8809 41.3419 96.7391 40.8801 96.4556C40.4264 96.172 40.074 95.7831 39.8228 95.2889C39.5717 94.7947 39.4461 94.2398 39.4461 93.6241ZM44.2828 92.9557C44.2423 92.4291 44.06 92.0037 43.7359 91.6797C43.4199 91.3475 42.9946 91.1814 42.4599 91.1814C41.9252 91.1814 41.4796 91.3394 41.1231 91.6554C40.7748 91.9713 40.552 92.4048 40.4547 92.9557H44.2828ZM49.1778 96.8809C48.5783 96.8809 48.0477 96.7472 47.5859 96.4799C47.1241 96.2044 46.7635 95.8236 46.5043 95.3375C46.2531 94.8434 46.1276 94.2722 46.1276 93.6241C46.1276 92.984 46.2531 92.421 46.5043 91.9349C46.7635 91.4407 47.1241 91.0599 47.5859 90.7925C48.0477 90.5171 48.5783 90.3793 49.1778 90.3793C49.8827 90.3793 50.4741 90.5778 50.9521 90.9748C51.4382 91.3637 51.7379 91.9227 51.8514 92.6519H50.9399C50.867 92.2225 50.6685 91.8782 50.3445 91.6189C50.0285 91.3515 49.6437 91.2179 49.19 91.2179C48.5581 91.2179 48.0517 91.4366 47.6709 91.8741C47.2902 92.3116 47.0998 92.8949 47.0998 93.6241C47.0998 94.3532 47.2902 94.9406 47.6709 95.3862C48.0517 95.8236 48.5581 96.0424 49.19 96.0424C49.6518 96.0424 50.0407 95.9168 50.3566 95.6657C50.6726 95.4064 50.8711 95.0337 50.9521 94.5476H51.8757C51.7379 95.3173 51.4301 95.9006 50.9521 96.2976C50.4822 96.6865 49.8908 96.8809 49.1778 96.8809ZM56.0459 91.2908H54.4053V95.0216C54.4053 95.3619 54.4863 95.6171 54.6483 95.7872C54.8104 95.9492 55.0453 96.0302 55.3532 96.0302C55.499 96.0302 55.6367 96.0181 55.7664 95.9938C55.9041 95.9695 55.9973 95.9492 56.0459 95.933V96.7837C55.9892 96.7999 55.8879 96.8201 55.7421 96.8445C55.5962 96.8688 55.4504 96.8809 55.3046 96.8809C54.7294 96.8809 54.2797 96.731 53.9556 96.4313C53.6397 96.1234 53.4817 95.6657 53.4817 95.058V91.2908H52.2786V90.4766H53.4817V88.5443H54.4053V90.4766H56.0459V91.2908ZM57.1383 90.4766H58.074V96.7837H57.1383V90.4766ZM58.1712 87.9246V89.2006H57.0653V87.9246H58.1712ZM59.0206 90.4766H59.9806L61.8278 95.7386L63.6993 90.4766H64.635L62.326 96.7837H61.3295L59.0206 90.4766ZM65.187 93.6241C65.187 93.0164 65.3085 92.4655 65.5516 91.9713C65.8027 91.4771 66.1551 91.0882 66.6088 90.8047C67.0625 90.5211 67.5932 90.3793 68.2008 90.3793C68.7598 90.3793 69.254 90.509 69.6834 90.7682C70.1128 91.0194 70.4409 91.3677 70.6677 91.8133C70.9027 92.2508 71.0202 92.745 71.0202 93.2959C71.0202 93.4175 71.0121 93.5673 70.9958 93.7456H66.1349C66.1592 94.4585 66.3577 95.0216 66.7303 95.4348C67.1111 95.848 67.6094 96.0545 68.2251 96.0545C68.7031 96.0545 69.1122 95.9452 69.4525 95.7264C69.7928 95.4996 69.9993 95.1877 70.0723 94.7907H70.9715C70.8581 95.455 70.5503 95.9695 70.048 96.3341C69.5457 96.6986 68.938 96.8809 68.2251 96.8809C67.6175 96.8809 67.0828 96.7391 66.621 96.4556C66.1673 96.172 65.8149 95.7831 65.5637 95.2889C65.3126 94.7947 65.187 94.2398 65.187 93.6241ZM70.0237 92.9557C69.9831 92.4291 69.8009 92.0037 69.4768 91.6797C69.1608 91.3475 68.7355 91.1814 68.2008 91.1814C67.6661 91.1814 67.2205 91.3394 66.864 91.6554C66.5156 91.9713 66.2929 92.4048 66.1956 92.9557H70.0237ZM72.2695 90.4766H73.2052V91.7283C73.4483 91.307 73.7602 90.9789 74.141 90.7439C74.5298 90.5009 74.9552 90.3793 75.417 90.3793C75.8464 90.3793 76.2312 90.4725 76.5714 90.6589C76.9117 90.8371 77.175 91.0963 77.3614 91.4366C77.5558 91.7688 77.653 92.1536 77.653 92.5911V96.7837H76.7173V92.7369C76.7173 92.2913 76.5836 91.9308 76.3162 91.6554C76.0489 91.3718 75.6884 91.23 75.2347 91.23C74.619 91.23 74.1248 91.4812 73.7521 91.9835C73.3875 92.4858 73.2052 93.1623 73.2052 94.0129V96.7837H72.2695V90.4766ZM78.8348 93.6241C78.8348 93.0164 78.9563 92.4655 79.1993 91.9713C79.4505 91.4771 79.8029 91.0882 80.2566 90.8047C80.7103 90.5211 81.2409 90.3793 81.8486 90.3793C82.4076 90.3793 82.9018 90.509 83.3312 90.7682C83.7605 91.0194 84.0887 91.3677 84.3155 91.8133C84.5505 92.2508 84.6679 92.745 84.6679 93.2959C84.6679 93.4175 84.6598 93.5673 84.6436 93.7456H79.7826C79.8069 94.4585 80.0054 95.0216 80.3781 95.4348C80.7589 95.848 81.2571 96.0545 81.8729 96.0545C82.3509 96.0545 82.76 95.9452 83.1003 95.7264C83.4405 95.4996 83.6471 95.1877 83.72 94.7907H84.6193C84.5059 95.455 84.198 95.9695 83.6957 96.3341C83.1934 96.6986 82.5858 96.8809 81.8729 96.8809C81.2652 96.8809 80.7305 96.7391 80.2687 96.4556C79.815 96.172 79.4626 95.7831 79.2115 95.2889C78.9603 94.7947 78.8348 94.2398 78.8348 93.6241ZM83.6714 92.9557C83.6309 92.4291 83.4486 92.0037 83.1246 91.6797C82.8086 91.3475 82.3833 91.1814 81.8486 91.1814C81.3139 91.1814 80.8683 91.3394 80.5118 91.6554C80.1634 91.9713 79.9406 92.4048 79.8434 92.9557H83.6714ZM87.9589 96.8809C87.4647 96.8809 87.0272 96.7877 86.6464 96.6014C86.2656 96.407 85.9659 96.1477 85.7471 95.8236C85.5365 95.4996 85.419 95.135 85.3947 94.7299H86.3304C86.3547 95.1026 86.5127 95.4145 86.8044 95.6657C87.096 95.9168 87.4809 96.0424 87.9589 96.0424C88.3721 96.0424 88.7083 95.9452 88.9675 95.7507C89.2268 95.5563 89.3564 95.3213 89.3564 95.0459C89.3564 94.7785 89.2713 94.5679 89.1012 94.414C88.9311 94.26 88.6921 94.1426 88.3842 94.0615L87.2419 93.7577C86.7558 93.6281 86.3709 93.4377 86.0874 93.1866C85.8119 92.9354 85.6742 92.5668 85.6742 92.0807C85.6742 91.7566 85.7633 91.465 85.9416 91.2057C86.1279 90.9465 86.3831 90.7439 86.7072 90.5981C87.0312 90.4523 87.4039 90.3793 87.8252 90.3793C88.4652 90.3793 88.9999 90.5495 89.4293 90.8898C89.8587 91.2219 90.118 91.6716 90.2071 92.2387H89.2592C89.2187 91.9227 89.0647 91.6716 88.7974 91.4852C88.5381 91.2908 88.2141 91.1936 87.8252 91.1936C87.4606 91.1936 87.169 91.2746 86.9502 91.4366C86.7396 91.5905 86.6343 91.8052 86.6343 92.0807C86.6343 92.2913 86.7072 92.4696 86.853 92.6154C87.0069 92.7531 87.2176 92.8544 87.4849 92.9192L88.6273 93.2109C89.1701 93.3486 89.5873 93.5471 89.879 93.8063C90.1787 94.0656 90.3286 94.4788 90.3286 95.0459C90.3286 95.5968 90.1099 96.0424 89.6724 96.3827C89.243 96.7148 88.6718 96.8809 87.9589 96.8809ZM93.5841 96.8809C93.0899 96.8809 92.6524 96.7877 92.2717 96.6014C91.8909 96.407 91.5911 96.1477 91.3724 95.8236C91.1617 95.4996 91.0443 95.135 91.02 94.7299H91.9557C91.98 95.1026 92.138 95.4145 92.4296 95.6657C92.7213 95.9168 93.1061 96.0424 93.5841 96.0424C93.9973 96.0424 94.3335 95.9452 94.5928 95.7507C94.852 95.5563 94.9817 95.3213 94.9817 95.0459C94.9817 94.7785 94.8966 94.5679 94.7264 94.414C94.5563 94.26 94.3173 94.1426 94.0095 94.0615L92.8671 93.7577C92.381 93.6281 91.9962 93.4377 91.7126 93.1866C91.4372 92.9354 91.2995 92.5668 91.2995 92.0807C91.2995 91.7566 91.3886 91.465 91.5668 91.2057C91.7531 90.9465 92.0084 90.7439 92.3324 90.5981C92.6565 90.4523 93.0292 90.3793 93.4504 90.3793C94.0905 90.3793 94.6252 90.5495 95.0546 90.8898C95.484 91.2219 95.7432 91.6716 95.8323 92.2387H94.8844C94.8439 91.9227 94.69 91.6716 94.4226 91.4852C94.1634 91.2908 93.8393 91.1936 93.4504 91.1936C93.0859 91.1936 92.7942 91.2746 92.5755 91.4366C92.3648 91.5905 92.2595 91.8052 92.2595 92.0807C92.2595 92.2913 92.3324 92.4696 92.4782 92.6154C92.6322 92.7531 92.8428 92.8544 93.1102 92.9192L94.2525 93.2109C94.7953 93.3486 95.2125 93.5471 95.5042 93.8063C95.804 94.0656 95.9538 94.4788 95.9538 95.0459C95.9538 95.5968 95.7351 96.0424 95.2976 96.3827C94.8682 96.7148 94.2971 96.8809 93.5841 96.8809ZM103.715 96.8809C102.961 96.8809 102.26 96.7148 101.612 96.3827C100.972 96.0424 100.458 95.536 100.069 94.8636C99.68 94.1912 99.4856 93.3689 99.4856 92.3967C99.4856 91.4326 99.68 90.6143 100.069 89.9419C100.466 89.2694 100.984 88.7671 101.624 88.435C102.273 88.0947 102.969 87.9246 103.715 87.9246C104.338 87.9246 104.91 88.042 105.428 88.277C105.955 88.5038 106.388 88.84 106.728 89.2856C107.069 89.7231 107.287 90.2457 107.385 90.8533H106.352C106.263 90.2214 105.975 89.7272 105.489 89.3707C105.011 89.0061 104.419 88.8238 103.715 88.8238C103.091 88.8238 102.536 88.9656 102.05 89.2492C101.572 89.5246 101.195 89.9338 100.92 90.4766C100.652 91.0113 100.519 91.6513 100.519 92.3967C100.519 93.1501 100.652 93.7982 100.92 94.341C101.195 94.8758 101.572 95.2849 102.05 95.5684C102.536 95.8439 103.091 95.9816 103.715 95.9816C104.428 95.9816 105.015 95.8074 105.477 95.4591C105.947 95.1026 106.238 94.6084 106.352 93.9765H107.385C107.279 94.5841 107.052 95.1067 106.704 95.5441C106.364 95.9816 105.934 96.3138 105.416 96.5406C104.897 96.7675 104.33 96.8809 103.715 96.8809ZM108.172 93.6241C108.172 93.0164 108.293 92.4655 108.536 91.9713C108.787 91.4771 109.14 91.0882 109.593 90.8047C110.047 90.5211 110.578 90.3793 111.185 90.3793C111.744 90.3793 112.239 90.509 112.668 90.7682C113.097 91.0194 113.425 91.3677 113.652 91.8133C113.887 92.2508 114.005 92.745 114.005 93.2959C114.005 93.4175 113.997 93.5673 113.98 93.7456H109.119C109.144 94.4585 109.342 95.0216 109.715 95.4348C110.096 95.848 110.594 96.0545 111.21 96.0545C111.688 96.0545 112.097 95.9452 112.437 95.7264C112.777 95.4996 112.984 95.1877 113.057 94.7907H113.956C113.843 95.455 113.535 95.9695 113.033 96.3341C112.53 96.6986 111.923 96.8809 111.21 96.8809C110.602 96.8809 110.067 96.7391 109.606 96.4556C109.152 96.172 108.799 95.7831 108.548 95.2889C108.297 94.7947 108.172 94.2398 108.172 93.6241ZM113.008 92.9557C112.968 92.4291 112.785 92.0037 112.461 91.6797C112.145 91.3475 111.72 91.1814 111.185 91.1814C110.651 91.1814 110.205 91.3394 109.849 91.6554C109.5 91.9713 109.277 92.4048 109.18 92.9557H113.008ZM118.73 91.3151C118.689 91.2989 118.608 91.2827 118.487 91.2665C118.365 91.2422 118.227 91.23 118.073 91.23C117.725 91.23 117.405 91.3475 117.113 91.5824C116.83 91.8174 116.603 92.1739 116.433 92.6519C116.271 93.1218 116.19 93.6929 116.19 94.3654V96.7837H115.254V90.4766H116.19V91.7769C116.344 91.3799 116.607 91.0477 116.98 90.7804C117.36 90.513 117.761 90.3793 118.183 90.3793C118.393 90.3793 118.535 90.3875 118.608 90.4037C118.689 90.4199 118.73 90.428 118.73 90.428V91.3151ZM122.742 91.2908H121.101V95.0216C121.101 95.3619 121.182 95.6171 121.344 95.7872C121.506 95.9492 121.741 96.0302 122.049 96.0302C122.195 96.0302 122.333 96.0181 122.462 95.9938C122.6 95.9695 122.693 95.9492 122.742 95.933V96.7837C122.685 96.7999 122.584 96.8201 122.438 96.8445C122.292 96.8688 122.146 96.8809 122.001 96.8809C121.425 96.8809 120.976 96.731 120.652 96.4313C120.336 96.1234 120.178 95.6657 120.178 95.058V91.2908H118.975V90.4766H120.178V88.5443H121.101V90.4766H122.742V91.2908ZM123.834 90.4766H124.77V96.7837H123.834V90.4766ZM124.867 87.9246V89.2006H123.761V87.9246H124.867ZM126.895 91.2908H125.704V90.4766H126.895V89.7353C126.895 89.1357 127.057 88.6821 127.382 88.3742C127.706 88.0663 128.135 87.9124 128.67 87.9124C128.961 87.9124 129.225 87.9408 129.46 87.9975V88.836C129.233 88.7793 128.986 88.7509 128.718 88.7509C128.459 88.7509 128.244 88.836 128.074 89.0061C127.904 89.1763 127.819 89.4274 127.819 89.7596V90.4766H129.46V91.2908H127.819V96.7837H126.895V91.2908ZM130.326 90.4766H131.262V96.7837H130.326V90.4766ZM131.359 87.9246V89.2006H130.253V87.9246H131.359ZM132.512 93.6241C132.512 93.0164 132.634 92.4655 132.877 91.9713C133.128 91.4771 133.48 91.0882 133.934 90.8047C134.388 90.5211 134.918 90.3793 135.526 90.3793C136.085 90.3793 136.579 90.509 137.008 90.7682C137.438 91.0194 137.766 91.3677 137.993 91.8133C138.228 92.2508 138.345 92.745 138.345 93.2959C138.345 93.4175 138.337 93.5673 138.321 93.7456H133.46C133.484 94.4585 133.683 95.0216 134.055 95.4348C134.436 95.848 134.934 96.0545 135.55 96.0545C136.028 96.0545 136.437 95.9452 136.778 95.7264C137.118 95.4996 137.324 95.1877 137.397 94.7907H138.297C138.183 95.455 137.875 95.9695 137.373 96.3341C136.871 96.6986 136.263 96.8809 135.55 96.8809C134.943 96.8809 134.408 96.7391 133.946 96.4556C133.492 96.172 133.14 95.7831 132.889 95.2889C132.638 94.7947 132.512 94.2398 132.512 93.6241ZM137.349 92.9557C137.308 92.4291 137.126 92.0037 136.802 91.6797C136.486 91.3475 136.061 91.1814 135.526 91.1814C134.991 91.1814 134.546 91.3394 134.189 91.6554C133.841 91.9713 133.618 92.4048 133.521 92.9557H137.349ZM142.195 96.8809C141.571 96.8809 141.033 96.7391 140.579 96.4556C140.125 96.172 139.781 95.7831 139.546 95.2889C139.311 94.7947 139.194 94.2398 139.194 93.6241C139.194 93.0083 139.311 92.4574 139.546 91.9713C139.781 91.4771 140.125 91.0882 140.579 90.8047C141.033 90.5211 141.571 90.3793 142.195 90.3793C142.608 90.3793 143.009 90.4806 143.398 90.6832C143.787 90.8776 144.079 91.1288 144.273 91.4366V87.9246H145.209V96.7837H144.273V95.8236C144.136 96.1234 143.872 96.3746 143.483 96.5771C143.094 96.7796 142.665 96.8809 142.195 96.8809ZM142.268 96.0424C142.892 96.0424 143.398 95.8236 143.787 95.3862C144.176 94.9406 144.37 94.3532 144.37 93.6241C144.37 92.903 144.176 92.3237 143.787 91.8863C143.398 91.4407 142.892 91.2179 142.268 91.2179C141.636 91.2179 141.126 91.4407 140.737 91.8863C140.356 92.3237 140.166 92.903 140.166 93.6241C140.166 94.3451 140.356 94.9284 140.737 95.374C141.126 95.8196 141.636 96.0424 142.268 96.0424Z" fill="#FBFAF4"/>
</svg>
