<svg width="53" height="42" viewBox="0 0 53 42" fill="none" xmlns="http://www.w3.org/2000/svg">
<path d="M20.014 15.1453C19.6866 14.6287 19.2719 14.1558 18.8063 13.7412C18.1661 13.1737 17.4459 12.7154 16.7183 12.2788C16.0709 11.8933 15.3433 11.4713 14.8195 10.9111C14.674 10.7583 14.3539 10.4091 14.1793 9.84893C13.8446 8.7722 14.1066 7.18619 15.3215 6.86609C15.8017 6.73513 16.3401 6.78605 16.7766 7.03341C17.3368 7.35352 17.6641 8.00102 17.5986 8.64851V9.74707H20.8798C20.9307 9.74707 20.8143 7.92827 20.7925 7.75366C20.7052 7.09162 20.5378 6.43685 20.1741 5.87666C19.3593 4.63259 17.7587 4.02875 16.34 3.9851C15.0742 3.94144 13.7137 4.29066 12.6297 4.95998C11.9022 5.41105 11.4002 6.12401 11.1092 6.93156C10.6945 8.09559 10.5417 9.45606 10.7891 10.671C11.1601 12.5044 12.3896 13.7921 13.8883 14.7888C14.5867 15.2544 15.3142 15.6764 15.9908 16.1711C16.6019 16.6149 17.1476 17.0732 17.3877 17.8298C17.7223 18.9066 17.4604 20.4926 16.2455 20.8127C15.7653 20.9436 15.2269 20.8927 14.7904 20.6453C14.2302 20.3252 13.9028 19.6777 13.9683 19.0302V17.9317H10.6872C10.6363 17.9317 10.7527 19.7505 10.7745 19.9251C10.8618 20.5871 11.0291 21.2419 11.3929 21.8021C12.2077 23.0462 13.8083 23.65 15.2269 23.6937C16.4928 23.7373 17.8533 23.3881 18.9373 22.7188C19.6648 22.2677 20.1668 21.5547 20.4578 20.7472C20.8725 19.5832 21.0253 18.2227 20.7779 17.0077C20.6397 16.3311 20.3778 15.7055 20.0213 15.1453H20.014Z" fill="#FFFFFC"/>
<path d="M43.9798 15.1453C43.6525 14.6287 43.2378 14.1558 42.7722 13.7412C42.1319 13.1737 41.4117 12.7154 40.6842 12.2788C40.0367 11.8933 39.3092 11.4713 38.7853 10.9111C38.6398 10.7583 38.3197 10.4091 38.1451 9.84893C37.8105 8.7722 38.0724 7.18619 39.2873 6.86609C39.7675 6.73513 40.3059 6.78605 40.7424 7.03341C41.3026 7.35352 41.6299 8.00102 41.5645 8.64851V9.74708H44.8456C44.8965 9.74708 44.7801 7.92827 44.7583 7.75366C44.671 7.09162 44.5037 6.43685 44.1399 5.87666C43.3251 4.63259 41.7245 4.02875 40.3059 3.9851C39.04 3.94144 37.6795 4.29066 36.5955 4.95998C35.868 5.41105 35.366 6.12401 35.075 6.93156C34.6603 8.09559 34.5075 9.45606 34.7549 10.671C35.1259 12.5044 36.3554 13.7921 37.8541 14.7888C38.5525 15.2544 39.2801 15.6764 39.9566 16.1711C40.5678 16.6149 41.1134 17.0732 41.3535 17.8298C41.6882 18.9066 41.4262 20.4926 40.2113 20.8127C39.7311 20.9436 39.1928 20.8927 38.7562 20.6453C38.1961 20.3252 37.8687 19.6777 37.9341 19.0302V17.9317H34.653C34.6021 17.9317 34.7185 19.7505 34.7403 19.9251C34.8276 20.5871 34.9949 21.2419 35.3587 21.8021C36.1735 23.0462 37.7741 23.65 39.1928 23.6937C40.4586 23.7373 41.8191 23.3881 42.9031 22.7188C43.6306 22.2677 44.1326 21.5547 44.4236 20.7472C44.8383 19.5832 44.9911 18.2227 44.7438 17.0077C44.6055 16.3311 44.3436 15.7055 43.9871 15.1453H43.9798Z" fill="#FFFFFC"/>
<path d="M28.0907 16.4255H29.8658V21.0525H27.5596V23.8535H29.8658H33.307V21.0525V16.4255V15.0286V13.6245H28.0907V16.4255Z" fill="#FFFFFC"/>
<path d="M27.7785 4.18867H27.7494C24.7011 4.18867 22.2275 6.66225 22.2275 9.71056V18.3317C22.2275 21.3145 24.5993 23.7444 27.553 23.8463V21.0381C26.4908 20.9362 25.6614 20.0414 25.6614 18.9501V9.07761C25.6614 7.92085 26.5999 6.98236 27.7567 6.98236C28.9135 6.98236 29.852 7.92085 29.852 9.07761V10.3217H33.2931V9.70328C33.2931 6.65497 30.8196 4.1814 27.7712 4.1814L27.7785 4.18867Z" fill="#FFFFFC"/>
<path d="M44.9321 0.347656H44.7793V27.9935H44.9321V0.347656Z" fill="#FFFFFC"/>
<path d="M51.6395 23.5918H0V23.7955H51.6395V23.5918Z" fill="#FFFFFC"/>
<path d="M7.58366 31.725H7.97348V34.796H9.69913V35.1526H7.58366V31.725ZM10.7133 35.1906C10.4661 35.1906 10.2649 35.1272 10.1096 35.0005C9.95748 34.8737 9.88141 34.7041 9.88141 34.4918C9.88141 34.2826 9.95272 34.1147 10.0953 33.9879C10.2411 33.8579 10.4455 33.7755 10.7086 33.7407L11.2981 33.6646C11.4597 33.6393 11.5405 33.5632 11.5405 33.4364C11.5405 33.297 11.4851 33.1845 11.3741 33.0989C11.2632 33.0102 11.1127 32.9658 10.9225 32.9658C10.7419 32.9658 10.5945 33.0086 10.4804 33.0942C10.3663 33.1797 10.3029 33.3017 10.2902 33.4602H9.91469C9.94005 33.213 10.043 33.0165 10.2237 32.8707C10.4043 32.7218 10.6373 32.6473 10.9225 32.6473C11.1158 32.6473 11.287 32.6837 11.4359 32.7566C11.5849 32.8264 11.7006 32.923 11.783 33.0466C11.8654 33.1702 11.9066 33.3113 11.9066 33.4697V34.6629C11.9066 34.739 11.9208 34.7897 11.9493 34.8151C11.981 34.8404 12.0254 34.8531 12.0825 34.8531C12.1078 34.8531 12.1332 34.8499 12.1585 34.8436V35.1526C12.1015 35.1684 12.0476 35.1764 11.9969 35.1764C11.8638 35.1764 11.7576 35.1399 11.6784 35.067C11.6023 34.9941 11.5627 34.8816 11.5595 34.7295C11.493 34.8689 11.3821 34.9814 11.2268 35.067C11.0715 35.1494 10.9003 35.1906 10.7133 35.1906ZM10.7561 34.8769C11.0033 34.8769 11.1967 34.8024 11.3361 34.6534C11.4755 34.5045 11.5453 34.2985 11.5453 34.0354V33.9118L10.7561 34.0354C10.4234 34.0893 10.257 34.2398 10.257 34.487C10.257 34.6075 10.3029 34.7026 10.3948 34.7723C10.4867 34.842 10.6072 34.8769 10.7561 34.8769ZM13.7383 35.1906C13.5545 35.1906 13.3865 35.151 13.2344 35.0718C13.0823 34.9925 12.9793 34.8943 12.9254 34.777V35.1526H12.5594V31.687H12.9254V33.0609C13.0015 32.9405 13.1156 32.8422 13.2677 32.7661C13.4198 32.6869 13.5767 32.6473 13.7383 32.6473C13.9824 32.6473 14.1931 32.7028 14.3706 32.8137C14.5481 32.9246 14.6828 33.0767 14.7747 33.2701C14.8666 33.4602 14.9125 33.6757 14.9125 33.9166C14.9125 34.1574 14.8666 34.3745 14.7747 34.5679C14.6828 34.7612 14.5481 34.9133 14.3706 35.0242C14.1931 35.1352 13.9824 35.1906 13.7383 35.1906ZM13.7098 34.8626C13.957 34.8626 14.1551 34.7754 14.304 34.6011C14.4562 34.4268 14.5322 34.1986 14.5322 33.9166C14.5322 33.6345 14.4562 33.4079 14.304 33.2368C14.1551 33.0625 13.957 32.9753 13.7098 32.9753C13.4658 32.9753 13.2677 33.0625 13.1156 33.2368C12.9666 33.4079 12.8921 33.6345 12.8921 33.9166C12.8921 34.2018 12.9666 34.4316 13.1156 34.6059C13.2677 34.777 13.4658 34.8626 13.7098 34.8626ZM15.2771 33.5791H16.6842V33.9023H15.2771V33.5791ZM17.0542 33.9166C17.0542 33.6789 17.1018 33.4634 17.1968 33.2701C17.2951 33.0767 17.433 32.9246 17.6104 32.8137C17.7879 32.7028 17.9955 32.6473 18.2332 32.6473C18.4519 32.6473 18.6452 32.698 18.8132 32.7994C18.9811 32.8977 19.1095 33.0339 19.1982 33.2083C19.2901 33.3794 19.3361 33.5727 19.3361 33.7882C19.3361 33.8358 19.3329 33.8944 19.3266 33.9641H17.425C17.4345 34.243 17.5122 34.4633 17.658 34.6249C17.8069 34.7865 18.0018 34.8674 18.2427 34.8674C18.4297 34.8674 18.5897 34.8246 18.7228 34.739C18.8559 34.6503 18.9368 34.5282 18.9653 34.373H19.3171C19.2727 34.6328 19.1523 34.8341 18.9558 34.9767C18.7593 35.1193 18.5216 35.1906 18.2427 35.1906C18.005 35.1906 17.7958 35.1352 17.6152 35.0242C17.4377 34.9133 17.2998 34.7612 17.2016 34.5679C17.1034 34.3745 17.0542 34.1574 17.0542 33.9166ZM18.9463 33.6551C18.9304 33.4491 18.8591 33.2827 18.7323 33.156C18.6087 33.026 18.4424 32.9611 18.2332 32.9611C18.024 32.9611 17.8497 33.0229 17.7103 33.1465C17.574 33.2701 17.4868 33.4396 17.4488 33.6551H18.9463ZM19.9731 33.0038H19.5072V32.6853H19.9731V32.3953C19.9731 32.1608 20.0365 31.9833 20.1632 31.8629C20.29 31.7425 20.458 31.6823 20.6671 31.6823C20.7812 31.6823 20.8842 31.6934 20.9761 31.7155V32.0436C20.8874 32.0214 20.7907 32.0103 20.6862 32.0103C20.5847 32.0103 20.5007 32.0436 20.4342 32.1101C20.3676 32.1767 20.3344 32.2749 20.3344 32.4048V32.6853H20.9761V33.0038H20.3344V35.1526H19.9731V33.0038ZM21.5422 33.0038H21.0763V32.6853H21.5422V32.3953C21.5422 32.1608 21.6056 31.9833 21.7324 31.8629C21.8591 31.7425 22.0271 31.6823 22.2363 31.6823C22.3504 31.6823 22.4534 31.6934 22.5453 31.7155V32.0436C22.4565 32.0214 22.3599 32.0103 22.2553 32.0103C22.1539 32.0103 22.0699 32.0436 22.0033 32.1101C21.9368 32.1767 21.9035 32.2749 21.9035 32.4048V32.6853H22.5453V33.0038H21.9035V35.1526H21.5422V33.0038ZM22.6484 33.9166C22.6484 33.6789 22.6959 33.4634 22.791 33.2701C22.8892 33.0767 23.0271 32.9246 23.2046 32.8137C23.3821 32.7028 23.5897 32.6473 23.8273 32.6473C24.046 32.6473 24.2393 32.698 24.4073 32.7994C24.5753 32.8977 24.7036 33.0339 24.7924 33.2083C24.8843 33.3794 24.9302 33.5727 24.9302 33.7882C24.9302 33.8358 24.9271 33.8944 24.9207 33.9641H23.0192C23.0287 34.243 23.1063 34.4633 23.2521 34.6249C23.4011 34.7865 23.596 34.8674 23.8369 34.8674C24.0238 34.8674 24.1839 34.8246 24.317 34.739C24.4501 34.6503 24.5309 34.5282 24.5594 34.373H24.9112C24.8669 34.6328 24.7464 34.8341 24.5499 34.9767C24.3534 35.1193 24.1157 35.1906 23.8369 35.1906C23.5992 35.1906 23.39 35.1352 23.2093 35.0242C23.0319 34.9133 22.894 34.7612 22.7958 34.5679C22.6975 34.3745 22.6484 34.1574 22.6484 33.9166ZM24.5404 33.6551C24.5246 33.4491 24.4533 33.2827 24.3265 33.156C24.2029 33.026 24.0365 32.9611 23.8273 32.9611C23.6182 32.9611 23.4439 33.0229 23.3044 33.1465C23.1681 33.2701 23.081 33.4396 23.043 33.6551H24.5404ZM26.4553 35.1906C26.2208 35.1906 26.0132 35.1383 25.8326 35.0337C25.6519 34.926 25.5109 34.777 25.4095 34.5869C25.3112 34.3936 25.2621 34.1701 25.2621 33.9166C25.2621 33.6662 25.3112 33.4459 25.4095 33.2558C25.5109 33.0625 25.6519 32.9135 25.8326 32.8089C26.0132 32.7012 26.2208 32.6473 26.4553 32.6473C26.731 32.6473 26.9624 32.7249 27.1494 32.8802C27.3395 33.0324 27.4568 33.251 27.5012 33.5363H27.1446C27.1161 33.3683 27.0385 33.2336 26.9117 33.1322C26.7881 33.0276 26.6375 32.9753 26.4601 32.9753C26.2129 32.9753 26.0148 33.0609 25.8658 33.232C25.7169 33.4032 25.6424 33.6313 25.6424 33.9166C25.6424 34.2018 25.7169 34.4316 25.8658 34.6059C26.0148 34.777 26.2129 34.8626 26.4601 34.8626C26.6407 34.8626 26.7928 34.8135 26.9164 34.7152C27.04 34.6138 27.1177 34.468 27.1494 34.2779H27.5107C27.4568 34.579 27.3364 34.8071 27.1494 34.9624C26.9656 35.1146 26.7342 35.1906 26.4553 35.1906ZM29.142 33.0038H28.5002V34.4633C28.5002 34.5964 28.5319 34.6962 28.5953 34.7628C28.6587 34.8262 28.7506 34.8578 28.871 34.8578C28.9281 34.8578 28.9819 34.8531 29.0327 34.8436C29.0865 34.8341 29.123 34.8262 29.142 34.8198V35.1526C29.1198 35.1589 29.0802 35.1668 29.0231 35.1764C28.9661 35.1859 28.9091 35.1906 28.852 35.1906C28.627 35.1906 28.4511 35.132 28.3243 35.0147C28.2007 34.8943 28.1389 34.7152 28.1389 34.4775V33.0038H27.6683V32.6853H28.1389V31.9295H28.5002V32.6853H29.142V33.0038ZM29.5693 32.6853H29.9354V35.1526H29.5693V32.6853ZM29.9734 31.687V32.1862H29.5408V31.687H29.9734ZM30.3056 32.6853H30.6812L31.4038 34.7438L32.1359 32.6853H32.5019L31.5987 35.1526H31.2089L30.3056 32.6853ZM32.7179 33.9166C32.7179 33.6789 32.7654 33.4634 32.8605 33.2701C32.9587 33.0767 33.0966 32.9246 33.2741 32.8137C33.4515 32.7028 33.6591 32.6473 33.8968 32.6473C34.1155 32.6473 34.3088 32.698 34.4768 32.7994C34.6448 32.8977 34.7731 33.0339 34.8619 33.2083C34.9538 33.3794 34.9997 33.5727 34.9997 33.7882C34.9997 33.8358 34.9966 33.8944 34.9902 33.9641H33.0887C33.0982 34.243 33.1758 34.4633 33.3216 34.6249C33.4706 34.7865 33.6655 34.8674 33.9063 34.8674C34.0933 34.8674 34.2534 34.8246 34.3865 34.739C34.5196 34.6503 34.6004 34.5282 34.6289 34.373H34.9807C34.9363 34.6328 34.8159 34.8341 34.6194 34.9767C34.4229 35.1193 34.1852 35.1906 33.9063 35.1906C33.6686 35.1906 33.4595 35.1352 33.2788 35.0242C33.1013 34.9133 32.9635 34.7612 32.8652 34.5679C32.767 34.3745 32.7179 34.1574 32.7179 33.9166ZM34.6099 33.6551C34.5941 33.4491 34.5228 33.2827 34.396 33.156C34.2724 33.026 34.106 32.9611 33.8968 32.9611C33.6877 32.9611 33.5134 33.0229 33.3739 33.1465C33.2376 33.2701 33.1505 33.4396 33.1124 33.6551H34.6099ZM35.4884 32.6853H35.8545V33.175C35.9496 33.0102 36.0716 32.8818 36.2205 32.7899C36.3727 32.6948 36.5391 32.6473 36.7197 32.6473C36.8877 32.6473 37.0382 32.6837 37.1713 32.7566C37.3044 32.8264 37.4074 32.9278 37.4803 33.0609C37.5564 33.1908 37.5944 33.3414 37.5944 33.5125V35.1526H37.2284V33.5695C37.2284 33.3952 37.1761 33.2542 37.0715 33.1465C36.9669 33.0355 36.8259 32.9801 36.6484 32.9801C36.4075 32.9801 36.2142 33.0783 36.0684 33.2748C35.9258 33.4713 35.8545 33.7359 35.8545 34.0687V35.1526H35.4884V32.6853ZM38.0567 33.9166C38.0567 33.6789 38.1042 33.4634 38.1993 33.2701C38.2976 33.0767 38.4354 32.9246 38.6129 32.8137C38.7904 32.7028 38.998 32.6473 39.2357 32.6473C39.4543 32.6473 39.6477 32.698 39.8156 32.7994C39.9836 32.8977 40.1119 33.0339 40.2007 33.2083C40.2926 33.3794 40.3385 33.5727 40.3385 33.7882C40.3385 33.8358 40.3354 33.8944 40.329 33.9641H38.4275C38.437 34.243 38.5146 34.4633 38.6604 34.6249C38.8094 34.7865 39.0043 34.8674 39.2452 34.8674C39.4321 34.8674 39.5922 34.8246 39.7253 34.739C39.8584 34.6503 39.9392 34.5282 39.9677 34.373H40.3195C40.2752 34.6328 40.1547 34.8341 39.9582 34.9767C39.7617 35.1193 39.5241 35.1906 39.2452 35.1906C39.0075 35.1906 38.7983 35.1352 38.6176 35.0242C38.4402 34.9133 38.3023 34.7612 38.2041 34.5679C38.1058 34.3745 38.0567 34.1574 38.0567 33.9166ZM39.9487 33.6551C39.9329 33.4491 39.8616 33.2827 39.7348 33.156C39.6112 33.026 39.4448 32.9611 39.2357 32.9611C39.0265 32.9611 38.8522 33.0229 38.7127 33.1465C38.5764 33.2701 38.4893 33.4396 38.4513 33.6551H39.9487ZM41.6259 35.1906C41.4326 35.1906 41.2615 35.1542 41.1125 35.0813C40.9635 35.0052 40.8463 34.9038 40.7607 34.777C40.6783 34.6503 40.6324 34.5076 40.6229 34.3492H40.9889C40.9984 34.495 41.0602 34.617 41.1743 34.7152C41.2884 34.8135 41.4389 34.8626 41.6259 34.8626C41.7876 34.8626 41.9191 34.8246 42.0205 34.7485C42.1219 34.6724 42.1726 34.5805 42.1726 34.4728C42.1726 34.3682 42.1393 34.2858 42.0728 34.2256C42.0062 34.1654 41.9127 34.1194 41.7923 34.0877L41.3454 33.9689C41.1553 33.9182 41.0047 33.8437 40.8938 33.7454C40.7861 33.6472 40.7322 33.503 40.7322 33.3128C40.7322 33.1861 40.7671 33.072 40.8368 32.9706C40.9097 32.8691 41.0095 32.7899 41.1363 32.7329C41.263 32.6758 41.4088 32.6473 41.5736 32.6473C41.824 32.6473 42.0332 32.7139 42.2011 32.847C42.3691 32.9769 42.4705 33.1528 42.5054 33.3746H42.1346C42.1187 33.251 42.0585 33.1528 41.9539 33.0799C41.8525 33.0038 41.7258 32.9658 41.5736 32.9658C41.431 32.9658 41.3169 32.9975 41.2313 33.0609C41.1489 33.1211 41.1077 33.2051 41.1077 33.3128C41.1077 33.3952 41.1363 33.465 41.1933 33.522C41.2535 33.5759 41.3359 33.6155 41.4405 33.6409L41.8874 33.7549C42.0997 33.8088 42.2629 33.8865 42.377 33.9879C42.4943 34.0893 42.5529 34.2509 42.5529 34.4728C42.5529 34.6883 42.4674 34.8626 42.2962 34.9957C42.1282 35.1256 41.9048 35.1906 41.6259 35.1906ZM43.8264 35.1906C43.6331 35.1906 43.462 35.1542 43.313 35.0813C43.1641 35.0052 43.0468 34.9038 42.9612 34.777C42.8788 34.6503 42.8329 34.5076 42.8234 34.3492H43.1894C43.1989 34.495 43.2607 34.617 43.3748 34.7152C43.4889 34.8135 43.6395 34.8626 43.8264 34.8626C43.9881 34.8626 44.1196 34.8246 44.221 34.7485C44.3224 34.6724 44.3731 34.5805 44.3731 34.4728C44.3731 34.3682 44.3399 34.2858 44.2733 34.2256C44.2068 34.1654 44.1133 34.1194 43.9928 34.0877L43.546 33.9689C43.3558 33.9182 43.2053 33.8437 43.0943 33.7454C42.9866 33.6472 42.9327 33.503 42.9327 33.3128C42.9327 33.1861 42.9676 33.072 43.0373 32.9706C43.1102 32.8691 43.21 32.7899 43.3368 32.7329C43.4636 32.6758 43.6093 32.6473 43.7742 32.6473C44.0245 32.6473 44.2337 32.7139 44.4017 32.847C44.5696 32.9769 44.671 33.1528 44.7059 33.3746H44.3351C44.3193 33.251 44.259 33.1528 44.1545 33.0799C44.053 33.0038 43.9263 32.9658 43.7742 32.9658C43.6315 32.9658 43.5174 32.9975 43.4319 33.0609C43.3495 33.1211 43.3083 33.2051 43.3083 33.3128C43.3083 33.3952 43.3368 33.465 43.3938 33.522C43.4541 33.5759 43.5365 33.6155 43.641 33.6409L44.0879 33.7549C44.3002 33.8088 44.4635 33.8865 44.5776 33.9879C44.6948 34.0893 44.7534 34.2509 44.7534 34.4728C44.7534 34.6883 44.6679 34.8626 44.4967 34.9957C44.3288 35.1256 44.1053 35.1906 43.8264 35.1906ZM18.7044 41.1906C18.4096 41.1906 18.1355 41.1256 17.882 40.9957C17.6316 40.8626 17.4303 40.6645 17.2782 40.4015C17.1261 40.1384 17.05 39.8167 17.05 39.4364C17.05 39.0593 17.1261 38.7392 17.2782 38.4762C17.4335 38.2131 17.6363 38.0166 17.8867 37.8867C18.1403 37.7536 18.4128 37.687 18.7044 37.687C18.9484 37.687 19.1718 37.733 19.3747 37.8249C19.5807 37.9136 19.7502 38.0451 19.8833 38.2194C20.0164 38.3906 20.102 38.595 20.1401 38.8327H19.736C19.7011 38.5855 19.5886 38.3922 19.3984 38.2527C19.2115 38.1101 18.9801 38.0388 18.7044 38.0388C18.4603 38.0388 18.2433 38.0943 18.0531 38.2052C17.8661 38.3129 17.7187 38.473 17.611 38.6853C17.5064 38.8945 17.4541 39.1449 17.4541 39.4364C17.4541 39.7312 17.5064 39.9847 17.611 40.1971C17.7187 40.4062 17.8661 40.5663 18.0531 40.6772C18.2433 40.785 18.4603 40.8388 18.7044 40.8388C18.9833 40.8388 19.213 40.7707 19.3937 40.6344C19.5775 40.495 19.6916 40.3016 19.736 40.0544H20.1401C20.0989 40.2921 20.0101 40.4966 19.8738 40.6677C19.7407 40.8388 19.5728 40.9688 19.3699 41.0575C19.1671 41.1462 18.9452 41.1906 18.7044 41.1906ZM20.4479 39.9166C20.4479 39.6789 20.4954 39.4634 20.5905 39.2701C20.6887 39.0767 20.8266 38.9246 21.0041 38.8137C21.1815 38.7028 21.3891 38.6473 21.6268 38.6473C21.8455 38.6473 22.0388 38.698 22.2068 38.7994C22.3748 38.8977 22.5031 39.0339 22.5919 39.2083C22.6838 39.3794 22.7297 39.5727 22.7297 39.7882C22.7297 39.8358 22.7266 39.8944 22.7202 39.9641H20.8187C20.8282 40.243 20.9058 40.4633 21.0516 40.6249C21.2006 40.7865 21.3955 40.8674 21.6363 40.8674C21.8233 40.8674 21.9834 40.8246 22.1165 40.739C22.2496 40.6503 22.3304 40.5282 22.3589 40.373H22.7107C22.6663 40.6328 22.5459 40.8341 22.3494 40.9767C22.1529 41.1193 21.9152 41.1906 21.6363 41.1906C21.3986 41.1906 21.1895 41.1352 21.0088 41.0242C20.8313 40.9133 20.6935 40.7612 20.5952 40.5679C20.497 40.3745 20.4479 40.1574 20.4479 39.9166ZM22.3399 39.6551C22.3241 39.4491 22.2527 39.2827 22.126 39.156C22.0024 39.026 21.836 38.9611 21.6268 38.9611C21.4177 38.9611 21.2433 39.0229 21.1039 39.1465C20.9676 39.2701 20.8805 39.4396 20.8424 39.6551H22.3399ZM24.5781 39.0133C24.5622 39.007 24.5305 39.0007 24.483 38.9943C24.4354 38.9848 24.3816 38.9801 24.3213 38.9801C24.1851 38.9801 24.0599 39.026 23.9458 39.1179C23.8349 39.2098 23.7461 39.3493 23.6796 39.5363C23.6162 39.7201 23.5845 39.9435 23.5845 40.2066V41.1526H23.2184V38.6853H23.5845V39.194C23.6447 39.0387 23.7477 38.9088 23.8935 38.8042C24.0424 38.6996 24.1993 38.6473 24.3641 38.6473C24.4465 38.6473 24.502 38.6505 24.5305 38.6568C24.5622 38.6631 24.5781 38.6663 24.5781 38.6663V39.0133ZM26.1476 39.0038H25.5058V40.4633C25.5058 40.5964 25.5375 40.6962 25.6009 40.7628C25.6643 40.8262 25.7562 40.8578 25.8766 40.8578C25.9337 40.8578 25.9876 40.8531 26.0383 40.8436C26.0921 40.8341 26.1286 40.8262 26.1476 40.8198V41.1526C26.1254 41.1589 26.0858 41.1668 26.0288 41.1764C25.9717 41.1859 25.9147 41.1906 25.8576 41.1906C25.6326 41.1906 25.4567 41.132 25.3299 41.0147C25.2063 40.8943 25.1445 40.7152 25.1445 40.4775V39.0038H24.6739V38.6853H25.1445V37.9295H25.5058V38.6853H26.1476V39.0038ZM26.5749 38.6853H26.941V41.1526H26.5749V38.6853ZM26.979 37.687V38.1862H26.5464V37.687H26.979ZM27.7724 39.0038H27.3065V38.6853H27.7724V38.3953C27.7724 38.1608 27.8358 37.9833 27.9625 37.8629C28.0893 37.7425 28.2573 37.6823 28.4665 37.6823C28.5806 37.6823 28.6836 37.6934 28.7755 37.7155V38.0436C28.6867 38.0214 28.5901 38.0103 28.4855 38.0103C28.3841 38.0103 28.3001 38.0436 28.2335 38.1101C28.167 38.1767 28.1337 38.2749 28.1337 38.4048V38.6853H28.7755V39.0038H28.1337V41.1526H27.7724V39.0038ZM29.1144 38.6853H29.4804V41.1526H29.1144V38.6853ZM29.5184 37.687V38.1862H29.0858V37.687H29.5184ZM29.9695 39.9166C29.9695 39.6789 30.0171 39.4634 30.1122 39.2701C30.2104 39.0767 30.3483 38.9246 30.5257 38.8137C30.7032 38.7028 30.9108 38.6473 31.1485 38.6473C31.3672 38.6473 31.5605 38.698 31.7285 38.7994C31.8964 38.8977 32.0248 39.0339 32.1135 39.2083C32.2054 39.3794 32.2514 39.5727 32.2514 39.7882C32.2514 39.8358 32.2482 39.8944 32.2419 39.9641H30.3403C30.3498 40.243 30.4275 40.4633 30.5733 40.6249C30.7222 40.7865 30.9171 40.8674 31.158 40.8674C31.345 40.8674 31.505 40.8246 31.6381 40.739C31.7713 40.6503 31.8521 40.5282 31.8806 40.373H32.2324C32.188 40.6328 32.0676 40.8341 31.8711 40.9767C31.6746 41.1193 31.4369 41.1906 31.158 41.1906C30.9203 41.1906 30.7111 41.1352 30.5305 41.0242C30.353 40.9133 30.2152 40.7612 30.1169 40.5679C30.0187 40.3745 29.9695 40.1574 29.9695 39.9166ZM31.8616 39.6551C31.8457 39.4491 31.7744 39.2827 31.6477 39.156C31.5241 39.026 31.3577 38.9611 31.1485 38.9611C30.9393 38.9611 30.765 39.0229 30.6256 39.1465C30.4893 39.2701 30.4021 39.4396 30.3641 39.6551H31.8616ZM33.7574 41.1906C33.5134 41.1906 33.3027 41.1352 33.1252 41.0242C32.9477 40.9133 32.813 40.7612 32.7211 40.5679C32.6292 40.3745 32.5832 40.1574 32.5832 39.9166C32.5832 39.6757 32.6292 39.4602 32.7211 39.2701C32.813 39.0767 32.9477 38.9246 33.1252 38.8137C33.3027 38.7028 33.5134 38.6473 33.7574 38.6473C33.9191 38.6473 34.076 38.6869 34.2281 38.7661C34.3802 38.8422 34.4943 38.9405 34.5704 39.0609V37.687H34.9364V41.1526H34.5704V40.777C34.5165 40.8943 34.4135 40.9925 34.2614 41.0718C34.1092 41.151 33.9413 41.1906 33.7574 41.1906ZM33.786 40.8626C34.03 40.8626 34.2281 40.777 34.3802 40.6059C34.5323 40.4316 34.6084 40.2018 34.6084 39.9166C34.6084 39.6345 34.5323 39.4079 34.3802 39.2368C34.2281 39.0625 34.03 38.9753 33.786 38.9753C33.5388 38.9753 33.3391 39.0625 33.187 39.2368C33.038 39.4079 32.9635 39.6345 32.9635 39.9166C32.9635 40.1986 33.038 40.4268 33.187 40.6011C33.3391 40.7754 33.5388 40.8626 33.786 40.8626Z" fill="#FFFFFC"/>
</svg>
