<svg width="50" height="50" viewBox="0 0 50 50" fill="none" xmlns="http://www.w3.org/2000/svg">
<g clip-path="url(#clip0_928_12172)">
<path d="M25.0003 49.5374C38.5519 49.5374 49.5377 38.5516 49.5377 25C49.5377 11.4484 38.5519 0.462646 25.0003 0.462646C11.4487 0.462646 0.462891 11.4484 0.462891 25C0.462891 38.5516 11.4487 49.5374 25.0003 49.5374Z" stroke="#190A0A" stroke-width="0.925241" stroke-miterlimit="10"/>
<path d="M10.7614 25.37V25.333H17.8858V25.37H10.7614Z" fill="#040000" stroke="#190A0A" stroke-width="0.925241"/>
<path d="M10.7614 19.2447V19.2077H17.8858V19.2447H10.7614Z" fill="#040000" stroke="#190A0A" stroke-width="0.925241"/>
<path d="M10.7517 22.391V22.354H17.876V22.391H10.7517Z" fill="#040000" stroke="#190A0A" stroke-width="0.925241"/>
<path d="M39.2668 24.2829L39.2665 24.2928L39.2666 24.3028L39.3437 30.172H37.6844H37.2218V30.6346V30.6349V30.6351V30.6354V30.6357V30.636V30.6362V30.6365V30.6368V30.6371V30.6374V30.6376V30.6379V30.6382V30.6385V30.6388V30.6391V30.6394V30.6397V30.64V30.6402V30.6405V30.6408V30.6411V30.6414V30.6417V30.642V30.6423V30.6426V30.643V30.6433V30.6436V30.6439V30.6442V30.6445V30.6448V30.6451V30.6454V30.6457V30.6461V30.6464V30.6467V30.647V30.6473V30.6476V30.648V30.6483V30.6486V30.6489V30.6493V30.6496V30.6499V30.6502V30.6506V30.6509V30.6512V30.6515V30.6519V30.6522V30.6525V30.6529V30.6532V30.6536V30.6539V30.6542V30.6546V30.6549V30.6552V30.6556V30.6559V30.6563V30.6566V30.657V30.6573V30.6576V30.658V30.6583V30.6587V30.659V30.6594V30.6597V30.6601V30.6604V30.6608V30.6611V30.6615V30.6618V30.6622V30.6626V30.6629V30.6633V30.6636V30.664V30.6643V30.6647V30.6651V30.6654V30.6658V30.6661V30.6665V30.6669V30.6672V30.6676V30.668V30.6683V30.6687V30.6691V30.6694V30.6698V30.6702V30.6705V30.6709V30.6713V30.6716V30.672V30.6724V30.6727V30.6731V30.6735V30.6739V30.6742V30.6746V30.675V30.6754V30.6757V30.6761V30.6765V30.6769V30.6772V30.6776V30.678V30.6784V30.6787V30.6791V30.6795V30.6799V30.6803V30.6806V30.681V30.6814V30.6818V30.6821V30.6825V30.6829V30.6833V30.6837V30.6841V30.6844V30.6848V30.6852V30.6856V30.686V30.6863V30.6867V30.6871V30.6875V30.6879V30.6883V30.6886V30.689V30.6894V30.6898V30.6902V30.6906V30.691V30.6913V30.6917V30.6921V30.6925V30.6929V30.6933V30.6937V30.694V30.6944V30.6948V30.6952V30.6956V30.696V30.6964V30.6967V30.6971V30.6975V30.6979V30.6983V30.6987V30.6991V30.6994V30.6998V30.7002V30.7006V30.701V30.7014V30.7018V30.7021V30.7025V30.7029V30.7033V30.7037V30.7041V30.7044V30.7048V30.7052V30.7056V30.706V30.7064V30.7068V30.7071V30.7075V30.7079V30.7083V30.7087V30.7091V30.7094V30.7098V30.7102V30.7106V30.711V30.7113V30.7117V30.7121V30.7125V30.7129V30.7132V30.7136V30.714V30.7144V30.7148V30.7151V30.7155V30.7159V30.7163V30.7167V30.717V30.7174V30.7178V30.7182V30.7185V30.7189V30.7193V30.7197V30.72V30.7204V30.7208V30.7212V30.7215V30.7219V30.7223V30.7226V30.723V30.7234V30.7237V30.7241V30.7245V30.7249V30.7252V30.7256V30.726V30.7263V30.7267V30.727V30.7274V30.7278V30.7281V30.7285V30.7289V30.7292V30.7296V30.7299V30.7303V30.7307V30.731V30.7314V30.7317V30.7321V30.7324V30.7328V30.7332V30.7335V30.7339V30.7342V30.7346V30.7349V30.7353V30.7356V30.736V30.7363V30.7367V30.737V30.7374V30.7377V30.738V30.7384V30.7387V30.7391V30.7394V30.7397V30.7401V30.7404V30.7408V30.7411V30.7414V30.7418V30.7421V30.7424V30.7428V30.7431V30.7434V30.7438V30.7441V30.7444V30.7448V30.7451V30.7454V30.7457V30.7461V30.7464V30.7467V30.747V30.7473V30.7477V30.748V30.7483V30.7486V30.7489V30.7492V30.7496V30.7499V30.7502V30.7505V30.7508V30.7511V30.7514V30.7517V30.752V30.7523V30.7526V30.7529V30.7532V30.7535V30.7538V30.7541V30.7544V30.7547V30.755V30.7553V30.7556V30.7559V30.7562V30.7565V30.7568V30.757V30.7573V30.7576V30.7579V30.7582V30.7584V30.7587V30.759V30.7593V30.7596V30.7598V30.7601V30.7604V30.7606V30.7609V30.7612V30.7614V30.7617V30.762V30.7622V30.7625V30.7628V30.763V30.7633V30.7635V30.7638V30.764V30.7643V30.7645V30.7648V30.765V30.7653V30.7655V30.7658V30.766V30.7662V30.7665V30.7667V30.7669V30.7672V30.7674V30.7676V30.7679V30.7681V30.7683V30.7686V30.7688V30.769V30.7692V30.7694V30.7697V30.7699V30.7701V30.7703V30.7705V30.7707V30.7709V30.7711V30.7713V30.7715V30.7717V30.7719V30.7721V30.7723V30.7725V30.7727V30.7729V30.7731V30.7733V30.7735V30.7737V30.7739V30.774V30.7742V30.7744V30.7746V30.7748V30.7749V30.7751V30.7753V30.7754V30.7756V30.7758V30.7759V30.7761V30.7763V30.7764V30.7766V30.7767V30.7769V30.777V30.7772V30.7773V30.7775V30.7776V30.7777V30.7779V30.778V30.7782V30.7783V30.7784V30.7786V30.7787V30.7788V30.7789V30.7791V30.7792V30.7793V30.7794V30.7795V30.7796V30.7797V30.7799V30.78V30.7801V30.7802V30.7803V30.7804V30.7805V30.7806V30.7807V30.7807V30.7808V30.7809V30.781V30.7811V30.7812V30.7812V30.7813V30.7814V30.7815V30.7815V30.7816V30.7817V30.7817V30.7818V30.7819V30.7819V30.782V30.782V30.7821V30.7821V30.7822V30.7822V30.7823V30.7823V30.7823V30.7824V30.7824V30.7824V30.7825V30.7825V30.7825V30.7825V30.7825V30.7826V30.7826V30.7826V30.7826C37.2218 31.6587 36.8738 32.4988 36.2543 33.1183C35.6349 33.7377 34.7947 34.0857 33.9187 34.0857C33.0426 34.0857 32.2025 33.7377 31.583 33.1183C30.9636 32.4988 30.6156 31.6587 30.6156 30.7826V30.7824V30.7822V30.782V30.7817V30.7815V30.7813V30.7811V30.7809V30.7806V30.7804V30.7802V30.7799V30.7797V30.7795V30.7793V30.779V30.7788V30.7786V30.7783V30.7781V30.7778V30.7776V30.7774V30.7771V30.7769V30.7766V30.7764V30.7762V30.7759V30.7757V30.7754V30.7752V30.7749V30.7747V30.7744V30.7742V30.7739V30.7737V30.7734V30.7732V30.7729V30.7727V30.7724V30.7721V30.7719V30.7716V30.7714V30.7711V30.7708V30.7706V30.7703V30.77V30.7698V30.7695V30.7693V30.769V30.7687V30.7685V30.7682V30.7679V30.7676V30.7674V30.7671V30.7668V30.7666V30.7663V30.766V30.7657V30.7655V30.7652V30.7649V30.7646V30.7643V30.7641V30.7638V30.7635V30.7632V30.7629V30.7627V30.7624V30.7621V30.7618V30.7615V30.7612V30.761V30.7607V30.7604V30.7601V30.7598V30.7595V30.7592V30.7589V30.7587V30.7584V30.7581V30.7578V30.7575V30.7572V30.7569V30.7566V30.7563V30.756V30.7557V30.7554V30.7551V30.7548V30.7545V30.7542V30.7539V30.7536V30.7533V30.753V30.7527V30.7524V30.7521V30.7518V30.7515V30.7512V30.7509V30.7506V30.7503V30.75V30.7497V30.7494V30.7491V30.7488V30.7485V30.7482V30.7479V30.7476V30.7473V30.747V30.7467V30.7464V30.7461V30.7458V30.7455V30.7451V30.7448V30.7445V30.7442V30.7439V30.7436V30.7433V30.743V30.7427V30.7424V30.7421V30.7417V30.7414V30.7411V30.7408V30.7405V30.7402V30.7399V30.7396V30.7393V30.7389V30.7386V30.7383V30.738V30.7377V30.7374V30.7371V30.7368V30.7364V30.7361V30.7358V30.7355V30.7352V30.7349V30.7346V30.7343V30.7339V30.7336V30.7333V30.733V30.7327V30.7324V30.7321V30.7317V30.7314V30.7311V30.7308V30.7305V30.7302V30.7299V30.7296V30.7292V30.7289V30.7286V30.7283V30.728V30.7277V30.7274V30.727V30.7267V30.7264V30.7261V30.7258V30.7255V30.7252V30.7249V30.7245V30.7242V30.7239V30.7236V30.7233V30.723V30.7227V30.7224V30.722V30.7217V30.7214V30.7211V30.7208V30.7205V30.7202V30.7199V30.7196V30.7193V30.7189V30.7186V30.7183V30.718V30.7177V30.7174V30.7171V30.7168V30.7165V30.7162V30.7159V30.7156V30.7153V30.7149V30.7146V30.7143V30.714V30.7137V30.7134V30.7131V30.7128V30.7125V30.7122V30.7119V30.7116V30.7113V30.711V30.7107V30.7104V30.7101V30.7098V30.7095V30.7092V30.7089V30.7086V30.7083V30.708V30.7077V30.7074V30.7071V30.7068V30.7065V30.7062V30.7059V30.7056V30.7053V30.7051V30.7048V30.7045V30.7042V30.7039V30.7036V30.7033V30.703V30.7027V30.7024V30.7022V30.7019V30.7016V30.7013V30.701V30.7007V30.7004V30.7002V30.6999V30.6996V30.6993V30.699V30.6987V30.6985V30.6982V30.6979V30.6976V30.6974V30.6971V30.6968V30.6965V30.6962V30.696V30.6957V30.6954V30.6952V30.6949V30.6946V30.6943V30.6941V30.6938V30.6935V30.6933V30.693V30.6927V30.6925V30.6922V30.6919V30.6917V30.6914V30.6912V30.6909V30.6906V30.6904V30.6901V30.6899V30.6896V30.6894V30.6891V30.6888V30.6886V30.6883V30.6881V30.6878V30.6876V30.6873V30.6871V30.6868V30.6866V30.6864V30.6861V30.6859V30.6856V30.6854V30.6851V30.6849V30.6847V30.6844V30.6842V30.6839V30.6837V30.6835V30.6832V30.683V30.6828V30.6826V30.6823V30.6821V30.6819V30.6816V30.6814V30.6812V30.681V30.6807V30.6805V30.6803V30.6801V30.6799V30.6796V30.6794V30.6792V30.679V30.6788V30.6786V30.6784V30.6782V30.678V30.6777V30.6775V30.6773V30.6771V30.6769V30.6767V30.6765V30.6763V30.6761V30.6759V30.6757V30.6755V30.6753V30.6752V30.675V30.6748V30.6746V30.6744V30.6742V30.674V30.6738V30.6737V30.6735V30.6733V30.6731V30.6729V30.6728V30.6726V30.6724V30.6722V30.6721V30.6719V30.6717V30.6716V30.6714V30.6712V30.6711V30.6709V30.6707V30.6706V30.6704V30.6703V30.6701V30.67V30.6698V30.6697V30.6695V30.6694V30.6692V30.6691V30.6689V30.6688V30.6686V30.6685V30.6684V30.6682V30.6681V30.6679V30.6678V30.6677V30.6675V30.6674V30.6673V30.6672V30.667V30.6669V30.6668V30.6667V30.6666V30.6664V30.6663V30.6662V30.6661V30.666V30.6659V30.6658V30.6657V30.6656V30.6655V30.6654V30.6653V30.6652V30.6651V30.665V30.6649V30.6648V30.6647V30.6646V30.6645V30.6644V30.6643V30.6643V30.6642V30.6641V30.664V30.6639V30.6639V30.6638V30.6637V30.6637V30.6636V30.6635V30.6635V30.6634V30.6633V30.6633V30.6632V30.6632V30.6631V30.6631V30.663V30.663V30.6629V30.6629V30.6628V30.6628V30.6628V30.6627V30.6627V30.6626V30.6626V30.6626V30.6625V30.6625V30.6625V30.6625V30.6625V30.6624V30.6624V30.6624V30.6624V30.6624V30.6623V30.1997H30.153H27.0997H22.9453H22.4827V30.6623V30.6628V30.6633V30.6638V30.6643V30.6648V30.6653V30.6657V30.6662V30.6667V30.6672V30.6677V30.6682V30.6687V30.6691V30.6696V30.6701V30.6706V30.6711V30.6716V30.6721V30.6725V30.673V30.6735V30.674V30.6745V30.675V30.6754V30.6759V30.6764V30.6769V30.6774V30.6778V30.6783V30.6788V30.6793V30.6798V30.6803V30.6807V30.6812V30.6817V30.6822V30.6827V30.6831V30.6836V30.6841V30.6846V30.6851V30.6855V30.686V30.6865V30.687V30.6874V30.6879V30.6884V30.6889V30.6894V30.6898V30.6903V30.6908V30.6913V30.6917V30.6922V30.6927V30.6932V30.6936V30.6941V30.6946V30.6951V30.6955V30.696V30.6965V30.697V30.6974V30.6979V30.6984V30.6989V30.6993V30.6998V30.7003V30.7008V30.7012V30.7017V30.7022V30.7027V30.7031V30.7036V30.7041V30.7046V30.705V30.7055V30.706V30.7064V30.7069V30.7074V30.7079V30.7083V30.7088V30.7093V30.7097V30.7102V30.7107V30.7112V30.7116V30.7121V30.7126V30.713V30.7135V30.714V30.7144V30.7149V30.7154V30.7159V30.7163V30.7168V30.7173V30.7177V30.7182V30.7187V30.7191V30.7196V30.7201V30.7205V30.721V30.7215V30.7219V30.7224V30.7229V30.7233V30.7238V30.7243V30.7248V30.7252V30.7257V30.7262V30.7266V30.7271V30.7276V30.728V30.7285V30.729V30.7294V30.7299V30.7304V30.7308V30.7313V30.7317V30.7322V30.7327V30.7331V30.7336V30.7341V30.7345V30.735V30.7355V30.7359V30.7364V30.7369V30.7373V30.7378V30.7383V30.7387V30.7392V30.7397V30.7401V30.7406V30.741V30.7415V30.742V30.7424V30.7429V30.7434V30.7438V30.7443V30.7448V30.7452V30.7457V30.7461V30.7466V30.7471V30.7475V30.748V30.7485V30.7489V30.7494V30.7499V30.7503V30.7508V30.7512V30.7517V30.7522V30.7526V30.7531V30.7536V30.754V30.7545V30.7549V30.7554V30.7559V30.7563V30.7568V30.7573V30.7577V30.7582V30.7586V30.7591V30.7596V30.76V30.7605V30.7609V30.7614V30.7619V30.7623V30.7628V30.7633V30.7637V30.7642V30.7646V30.7651V30.7656V30.766V30.7665V30.7669V30.7674V30.7679V30.7683V30.7688V30.7693V30.7697V30.7702V30.7706V30.7711V30.7716V30.772V30.7725V30.7729V30.7734V30.7739V30.7743V30.7748V30.7752V30.7757V30.7762V30.7766V30.7771V30.7776V30.778V30.7785V30.7789V30.7794V30.7799V30.7803V30.7808V30.7812V30.7817V30.7822V30.7826V30.7831V30.7835V30.784V30.7845V30.7849V30.7854V30.7858V30.7863V30.7868V30.7872V30.7877V30.7882V30.7886V30.7891V30.7895V30.79V30.7905V30.7909V30.7914V30.7918V30.7923V30.7928V30.7932V30.7937V30.7941V30.7946V30.7951V30.7955V30.796V30.7964V30.7969V30.7974V30.7978V30.7983V30.7988V30.7992V30.7997V30.8001V30.8006V30.8011V30.8015V30.802V30.8024V30.8029V30.8034V30.8038V30.8043V30.8048V30.8052V30.8057V30.8061V30.8066V30.8071V30.8075V30.808V30.8085V30.8089V30.8094V30.8098V30.8103V30.8108V30.8112V30.8117V30.8122V30.8126V30.8131V30.8135V30.814V30.8145V30.8149V30.8154V30.8159V30.8163V30.8168V30.8172V30.8177V30.8182V30.8186V30.8191V30.8196V30.82V30.8205V30.8209V30.8214V30.8219V30.8223V30.8228V30.8233V30.8237V30.8242V30.8247V30.8251V30.8256V30.8261V30.8265V30.827V30.8274V30.8279V30.8284V30.8288V30.8293V30.8298V30.8302V30.8307V30.8312V30.8316V30.8321V30.8326V30.833V30.8335V30.834V30.8344V30.8349V30.8354V30.8358V30.8363V30.8368V30.8372V30.8377V30.8382V30.8386V30.8391V30.8396V30.84V30.8405V30.841V30.8414V30.8419V30.8424V30.8428V30.8433V30.8438V30.8442V30.8447V30.8452V30.8456V30.8461V30.8466V30.847V30.8475V30.848V30.8485V30.8489V30.8494V30.8499V30.8503V30.8508V30.8513V30.8517V30.8522V30.8527V30.8532V30.8536V30.8541V30.8546V30.855V30.8555V30.856V30.8564V30.8569V30.8574V30.8579V30.8583V30.8588V30.8593V30.8597V30.8602V30.8607V30.8612V30.8616V30.8621V30.8626V30.8631V30.8635V30.864V30.8645V30.865V30.8654V30.8659V30.8664V30.8668V30.8673V30.8678V30.8683V30.8687V30.8692V30.8697V30.8702V30.8706V30.8711V30.8716V30.8721V30.8726V30.873V30.8735V30.874V30.8745V30.8749V30.8754V30.8759V30.8764V30.8768V30.8773V30.8778V30.8783V30.8788V30.8792V30.8797V30.8802V30.8807V30.8811V30.8816V30.8821V30.8826V30.8831V30.8835V30.884V30.8845V30.885V30.8855V30.886V30.8864V30.8869V30.8874V30.8879V30.8884V30.8888V30.8893V30.8898V30.8903V30.8908V30.8913V30.8917V30.8922V30.8927V30.8932V30.8937V30.8942V30.8946V30.8951V30.8956V30.8961V30.8966V30.8971V30.8975V30.898V30.8985V30.899V30.8995V30.9V30.9005V30.901V30.9014V30.9019V30.9024V30.9029C22.4827 31.7789 22.1347 32.6191 21.5152 33.2386C20.8958 33.858 20.0556 34.206 19.1796 34.206C18.3036 34.206 17.4634 33.858 16.8439 33.2386C16.2245 32.6191 15.8765 31.7789 15.8765 30.9029V30.8911L15.8759 30.8794C15.8721 30.8057 15.8721 30.7318 15.8759 30.6581L15.9007 30.172H15.4139H10.7322V29.9869H15.6452H15.9619L16.0765 29.6917C16.3167 29.0725 16.7385 28.5405 17.2865 28.1653C17.8345 27.7902 18.4831 27.5894 19.1472 27.5894C19.8113 27.5894 20.4599 27.7902 21.0079 28.1653C21.5559 28.5405 21.9777 29.0725 22.218 29.6917L22.3325 29.9869H22.6492H26.2577H26.7203V29.5243V16.4599V15.9973H26.2577H10.7322V15.8122H26.9146V18.0328V18.4954H27.3772H33.3359L35.6757 22.8769L35.8063 23.1216H36.0837H38.1924C38.4864 23.1357 38.7633 23.264 38.9642 23.4794C39.1669 23.6969 39.2757 23.9856 39.2668 24.2829ZM19.1518 34.0117L19.1534 34.0117C19.9791 34.0088 20.7701 33.6796 21.3539 33.0958C21.9378 32.5119 22.267 31.7209 22.2699 30.8953V30.8936C22.2699 30.277 22.087 29.6741 21.7444 29.1613C21.4018 28.6486 20.9148 28.2489 20.3451 28.0129C19.7753 27.7769 19.1484 27.7152 18.5435 27.8355C17.9387 27.9558 17.3831 28.2528 16.947 28.6888C16.511 29.1249 16.214 29.6805 16.0937 30.2853C15.9734 30.8902 16.0351 31.5171 16.2711 32.0869C16.5071 32.6566 16.9068 33.1436 17.4195 33.4862C17.9323 33.8288 18.5351 34.0117 19.1518 34.0117ZM31.6333 18.6527H31.1754L31.1707 19.1106L31.1337 22.719L31.1288 23.2018L31.6113 23.1862L33.8892 23.1124H34.7514H35.5158L35.1612 22.4352L33.3108 18.9008L33.1809 18.6527H32.9009H31.6333ZM33.8447 33.8914L33.8463 33.8914C34.6719 33.8886 35.4629 33.5593 36.0468 32.9755C36.6306 32.3916 36.9599 31.6006 36.9627 30.775V30.7734C36.9627 30.1567 36.7798 29.5538 36.4372 29.0411C36.0946 28.5283 35.6076 28.1287 35.0379 27.8927C34.4681 27.6567 33.8412 27.5949 33.2364 27.7152C32.6315 27.8355 32.0759 28.1325 31.6399 28.5686C31.2038 29.0046 30.9068 29.5602 30.7865 30.1651C30.6662 30.7699 30.7279 31.3969 30.9639 31.9666C31.1999 32.5364 31.5996 33.0233 32.1124 33.3659C32.6251 33.7086 33.228 33.8914 33.8447 33.8914ZM38.6744 30.0702H39.1378L39.137 29.6068L39.1278 24.3115C39.142 24.0618 39.0638 23.8153 38.9076 23.6194C38.7471 23.4179 38.5161 23.2848 38.2613 23.2469L38.2275 23.2419H38.1933H35.9727H35.9652L35.9578 23.2422L30.9949 23.4025V19.1153V18.6527H30.5323H27.3772H26.9146V19.1153V29.6076V30.0702H27.3772H30.3102H30.654L30.7532 29.741C30.9539 29.0748 31.3638 28.4909 31.9223 28.0759C32.4808 27.6608 33.1581 27.4367 33.8539 27.4367C34.5497 27.4367 35.227 27.6608 35.7855 28.0759C36.344 28.4909 36.7539 29.0748 36.9546 29.741L37.0538 30.0702H37.3976H38.6744Z" fill="#040000" stroke="#190A0A" stroke-width="0.925241"/>
</g>
<defs>
<clipPath id="clip0_928_12172">
<rect width="50" height="50" fill="white"/>
</clipPath>
</defs>
</svg>
