<svg width="50" height="50" viewBox="0 0 50 50" fill="none" xmlns="http://www.w3.org/2000/svg">
<g clip-path="url(#clip0_928_12171)">
<path d="M25.0003 49.5374C38.5519 49.5374 49.5377 38.5516 49.5377 25C49.5377 11.4484 38.5519 0.462646 25.0003 0.462646C11.4487 0.462646 0.462891 11.4484 0.462891 25C0.462891 38.5516 11.4487 49.5374 25.0003 49.5374Z" stroke="#231815" stroke-width="0.925241" stroke-miterlimit="10"/>
<path d="M30.6626 15.4238H19.0786L14.5449 22.2058V34.6596H35.4554V22.2058L30.6626 15.4238ZM34.123 21.9005H25.2592V16.3491H30.1815L34.123 21.9005ZM19.5597 16.3491H24.371V21.9005H15.8588L19.5597 16.3491ZM15.4424 33.7528V22.7702H34.5579V33.7528H15.4424Z" fill="#190A0A"/>
<path d="M27.8496 26.2304H20.9751L21.9558 25.2034L21.3082 24.5835L19.1523 26.8318L21.4284 28.7841L22.0206 28.0994L20.901 27.1742H27.8496C28.3036 27.1742 28.7389 27.3545 29.06 27.6755C29.381 27.9965 29.5613 28.4319 29.5613 28.8859C29.5613 29.3398 29.381 29.7752 29.06 30.0962C28.7389 30.4172 28.3036 30.5976 27.8496 30.5976H23.1309V31.5228H27.8496C28.5159 31.4831 29.142 31.1905 29.5997 30.7047C30.0575 30.2188 30.3125 29.5765 30.3125 28.909C30.3125 28.2415 30.0575 27.5992 29.5997 27.1133C29.142 26.6275 28.5159 26.3349 27.8496 26.2952V26.2304Z" fill="#190A0A"/>
</g>
<defs>
<clipPath id="clip0_928_12171">
<rect width="50" height="50" fill="white"/>
</clipPath>
</defs>
</svg>
