<svg width="50" height="50" viewBox="0 0 50 50" fill="none" xmlns="http://www.w3.org/2000/svg">
<g clip-path="url(#clip0_928_12169)">
<path d="M25.0003 49.5374C38.5519 49.5374 49.5377 38.5516 49.5377 25C49.5377 11.4484 38.5519 0.462646 25.0003 0.462646C11.4487 0.462646 0.462891 11.4484 0.462891 25C0.462891 38.5516 11.4487 49.5374 25.0003 49.5374Z" stroke="#190A0A" stroke-width="0.925241" stroke-miterlimit="10"/>
<path d="M30.9961 28.6824C31.9654 28.6824 32.895 28.2974 33.5804 27.612C34.2657 26.9266 34.6508 25.997 34.6508 25.0277C34.6508 24.0585 34.2657 23.1289 33.5804 22.4435C32.895 21.7581 31.9654 21.373 30.9961 21.373" stroke="#190A0A" stroke-width="0.925241"/>
<path d="M20.0317 21.3452C19.5517 21.3452 19.0765 21.4397 18.6331 21.6234C18.1897 21.8071 17.7868 22.0763 17.4474 22.4157C17.108 22.755 16.8388 23.1579 16.6551 23.6013C16.4715 24.0447 16.377 24.52 16.377 24.9999C16.377 25.4799 16.4715 25.9551 16.6551 26.3985C16.8388 26.8419 17.108 27.2448 17.4474 27.5842C17.7868 27.9235 18.1897 28.1928 18.6331 28.3764C19.0765 28.5601 19.5517 28.6546 20.0317 28.6546" stroke="#190A0A" stroke-width="0.925241"/>
<path d="M20.0312 28.6826V21.3732C20.0894 19.9583 20.6924 18.6206 21.7141 17.64C22.7358 16.6594 24.0971 16.1118 25.5133 16.1118C26.9295 16.1118 28.2908 16.6594 29.3125 17.64C30.3342 18.6206 30.9372 19.9583 30.9954 21.3732V28.6826C30.9929 30.1362 30.4138 31.5294 29.3851 32.5563C28.3564 33.5833 26.9622 34.1601 25.5087 34.1601" stroke="#190A0A" stroke-width="0.925241"/>
<path d="M20.5225 29.1361H20.0414H19.625V28.3682H20.4947L20.5225 29.1361Z" fill="#080103"/>
</g>
<defs>
<clipPath id="clip0_928_12169">
<rect width="50" height="50" fill="white"/>
</clipPath>
</defs>
</svg>
