<svg width="50" height="50" viewBox="0 0 50 50" fill="none" xmlns="http://www.w3.org/2000/svg">
<g clip-path="url(#clip0_928_12170)">
<path d="M25.0003 49.5374C38.5519 49.5374 49.5377 38.5516 49.5377 25C49.5377 11.4484 38.5519 0.462646 25.0003 0.462646C11.4487 0.462646 0.462891 11.4484 0.462891 25C0.462891 38.5516 11.4487 49.5374 25.0003 49.5374Z" stroke="#190A0A" stroke-width="0.925241" stroke-miterlimit="10"/>
<path d="M33.4755 19.43H32.9574C32.0974 19.4277 31.2726 19.0882 30.6602 18.4845C30.0478 17.8807 29.6966 17.0608 29.6821 16.2009V15.8216L29.2935 15.7291C27.7853 15.4881 26.2592 15.3767 24.732 15.396C23.2017 15.3765 21.6726 15.4879 20.1613 15.7291L19.782 15.7938V16.1824C19.765 17.0577 19.4021 17.8907 18.7728 18.4992C18.1434 19.1078 17.2987 19.4424 16.4234 19.43H15.8867L15.9422 19.9574C16.0903 21.3083 16.3123 23.4641 16.5899 26.2768C17.1173 31.5692 24.2046 34.3912 24.51 34.5115H24.8616H24.9448C25.2502 34.3912 32.3467 31.5692 32.8649 26.2768C33.1425 23.5011 33.3738 21.3083 33.5126 19.9482L33.4755 19.43ZM31.9304 26.1843C31.4955 30.5514 25.6573 33.1976 24.732 33.5862C23.8068 33.1884 17.9593 30.5422 17.5244 26.1843C17.2746 23.6861 17.071 21.7154 16.923 20.3553C17.8769 20.2555 18.7687 19.8352 19.4527 19.163C20.1367 18.4907 20.5725 17.6063 20.6887 16.6543C22.0258 16.4749 23.3737 16.3883 24.7228 16.3952C26.0749 16.3884 27.4259 16.475 28.7661 16.6543C28.8807 17.6069 29.3159 18.4922 30.0003 19.1648C30.6846 19.8374 31.5773 20.2572 32.5318 20.3553C32.3838 21.7061 32.1802 23.6769 31.9304 26.1843Z" fill="#190A0A"/>
<path d="M27.5534 20.2351V19.8465L27.174 19.7818C26.3637 19.6488 25.5433 19.5868 24.7221 19.5967C23.901 19.5868 23.0806 19.6488 22.2702 19.7818L21.8909 19.8465V20.2351C21.8861 20.645 21.7204 21.0366 21.4297 21.3256C21.139 21.6146 20.7464 21.7779 20.3365 21.7803H19.8184V22.2892C19.8924 23.0294 20.0127 24.1952 20.17 25.7218C20.4383 28.4975 23.8709 30.0704 24.4723 30.348H24.5556L24.6759 30.4035H24.7221L24.9072 30.311C25.0737 30.2462 29.0153 28.6641 29.3113 25.6848C29.4594 24.1582 29.5796 22.9924 29.6537 22.2522V21.7433H29.1355C28.7271 21.7484 28.3328 21.5934 28.0372 21.3116C27.7415 21.0297 27.5678 20.6434 27.5534 20.2351ZM28.3398 25.6293C28.1363 27.7481 25.4068 29.1082 24.7036 29.4228C23.9912 29.1082 21.271 27.7481 21.0582 25.6293C20.9379 24.3802 20.8361 23.381 20.7529 22.65C21.2478 22.5561 21.7023 22.3137 22.056 21.955C22.4098 21.5963 22.6458 21.1384 22.7329 20.6422C24.0387 20.4818 25.3593 20.4818 26.6651 20.6422C26.7545 21.1435 26.9961 21.6051 27.3569 21.9643C27.7178 22.3235 28.1805 22.5629 28.6822 22.65C28.5711 23.381 28.4694 24.3802 28.3398 25.6293Z" fill="#190A0A"/>
</g>
<defs>
<clipPath id="clip0_928_12170">
<rect width="50" height="50" fill="white"/>
</clipPath>
</defs>
</svg>
