<svg width="302" height="68" viewBox="0 0 302 68" fill="none" xmlns="http://www.w3.org/2000/svg">
<path d="M148.212 0.0427246H130.749V13.0173H148.212V0.0427246Z" fill="#190A0A"/>
<path d="M148.145 21.629H130.872V65.9522H148.145V21.629Z" fill="#190A0A"/>
<path d="M115.963 0.0427246H98.6905V65.9521H115.963V0.0427246Z" fill="#190A0A"/>
<path d="M163.268 0.0427246V65.9521H180.169V36.6312L213.791 65.9521H232.267V65.5535L195.011 32.2001L231.097 4.3372V3.98408H210.922L180.169 27.9853V0.0427246H163.268Z" fill="#190A0A"/>
<path d="M65.9011 8.16464V41.6775C65.7549 52.4308 57.0455 58.958 47.7623 58.958C38.4791 58.958 29.781 52.4308 29.6235 41.6775V0.0427246H0.0410156L5.68971 8.16464H11.9348V41.0966C11.9348 60.3249 30.5574 68.014 47.7511 67.957C64.9559 68.014 83.5674 60.3363 83.5674 41.0966V0.0427246H53.9961L59.6448 8.16464H65.9011Z" fill="#190A0A"/>
<path d="M292.243 11.7643C285.784 5.46493 276.095 1.92227 266.227 2.1387C254.648 2.36653 244.881 6.01171 237.995 12.6756C231.829 18.6445 228.858 26.5956 228.858 35.0706C228.858 44.9582 232.965 54.0939 240.864 59.9604C248.493 65.6332 255.357 67.9456 266.621 67.9456C269.895 67.9228 272.607 67.7634 275.398 67.2963C289.036 64.9953 297.452 57.4657 300.682 49.2185L285.986 49.1501C283.736 53.513 277.029 58.2859 266.441 58.2859C254.525 58.2859 246.929 49.0704 246.265 39.1487H301.942C302.516 27.5411 298.769 18.1205 292.243 11.7643ZM246.389 29.2953L246.457 28.6232C247.773 20.1368 254.356 11.2517 266.16 11.2517C277.963 11.2517 284.49 21.1962 285.21 28.6232L285.255 29.2953H246.389Z" fill="#190A0A"/>
</svg>
