<svg width="77" height="12" viewBox="0 0 77 12" fill="none" xmlns="http://www.w3.org/2000/svg">
<path fill-rule="evenodd" clip-rule="evenodd" d="M5.88487 1.60528C6.10907 1.06631 6.87257 1.0663 7.09672 1.60528L8.13772 4.10814L10.8398 4.32476C11.4217 4.3714 11.6576 5.09754 11.2143 5.47729L9.15562 7.24079L9.78457 9.87749C9.91997 10.4453 9.30232 10.8941 8.80412 10.5898L6.49082 9.17684L4.17749 10.5898C3.67933 10.8941 3.06163 10.4453 3.19707 9.87749L3.82603 7.24079L1.76736 5.47729C1.32404 5.09754 1.55998 4.3714 2.14184 4.32476L4.84389 4.10814L5.88487 1.60528Z" fill="#E0004D"/>
<path fill-rule="evenodd" clip-rule="evenodd" d="M21.8849 1.60528C22.1091 1.06631 22.8726 1.0663 23.0967 1.60528L24.1377 4.10814L26.8398 4.32476C27.4217 4.3714 27.6576 5.09754 27.2143 5.47729L25.1556 7.24079L25.7846 9.87749C25.92 10.4453 25.3023 10.8941 24.8041 10.5898L22.4908 9.17684L20.1775 10.5898C19.6793 10.8941 19.0616 10.4453 19.1971 9.87749L19.826 7.24079L17.7674 5.47729C17.324 5.09754 17.56 4.3714 18.1418 4.32476L20.8439 4.10814L21.8849 1.60528Z" fill="#E0004D"/>
<path fill-rule="evenodd" clip-rule="evenodd" d="M37.8849 1.60528C38.1091 1.06631 38.8726 1.0663 39.0967 1.60528L40.1377 4.10814L42.8398 4.32476C43.4217 4.3714 43.6576 5.09754 43.2143 5.47729L41.1556 7.24079L41.7846 9.87749C41.92 10.4453 41.3023 10.8941 40.8041 10.5898L38.4908 9.17684L36.1775 10.5898C35.6793 10.8941 35.0616 10.4453 35.1971 9.87749L35.826 7.24079L33.7674 5.47729C33.324 5.09754 33.56 4.3714 34.1418 4.32476L36.8439 4.10814L37.8849 1.60528Z" fill="#E0004D"/>
<path fill-rule="evenodd" clip-rule="evenodd" d="M53.8849 1.60528C54.1091 1.06631 54.8726 1.0663 55.0967 1.60528L56.1377 4.10814L58.8398 4.32476C59.4217 4.3714 59.6576 5.09754 59.2143 5.47729L57.1556 7.24079L57.7846 9.87749C57.92 10.4453 57.3023 10.8941 56.8041 10.5898L54.4908 9.17684L52.1775 10.5898C51.6793 10.8941 51.0616 10.4453 51.1971 9.87749L51.826 7.24079L49.7674 5.47729C49.324 5.09754 49.56 4.3714 50.1418 4.32476L52.8439 4.10814L53.8849 1.60528Z" fill="#E0004D"/>
<path fill-rule="evenodd" clip-rule="evenodd" d="M69.8849 1.60528C70.1091 1.06631 70.8726 1.0663 71.0967 1.60528L72.1377 4.10814L74.8398 4.32476C75.4217 4.3714 75.6576 5.09754 75.2143 5.47729L73.1556 7.24079L73.7846 9.87749C73.92 10.4453 73.3023 10.8941 72.8041 10.5898L70.4908 9.17684L68.1775 10.5898C67.6793 10.8941 67.0616 10.4453 67.1971 9.87749L67.826 7.24079L65.7674 5.47729C65.324 5.09754 65.56 4.3714 66.1418 4.32476L68.8439 4.10814L69.8849 1.60528Z" fill="#E0004D"/>
</svg>
