<svg width="76" height="12" viewBox="0 0 76 12" fill="none" xmlns="http://www.w3.org/2000/svg">
<path fill-rule="evenodd" clip-rule="evenodd" d="M5.39464 1.61389C5.61884 1.07492 6.38234 1.07491 6.60649 1.61389L7.64749 4.11675L10.3495 4.33337C10.9314 4.38001 11.1673 5.10615 10.724 5.4859L8.66539 7.24939L9.29434 9.8861C9.42974 10.4539 8.81209 10.9027 8.31389 10.5984L6.00059 9.18544L3.68725 10.5984C3.18909 10.9027 2.5714 10.4539 2.70684 9.8861L3.3358 7.24939L1.27713 5.4859C0.833807 5.10615 1.06974 4.38001 1.65161 4.33337L4.35365 4.11675L5.39464 1.61389Z" fill="#E0004D"/>
<path fill-rule="evenodd" clip-rule="evenodd" d="M21.3946 1.61389C21.6188 1.07492 22.3823 1.07491 22.6065 1.61389L23.6475 4.11675L26.3495 4.33337C26.9314 4.38001 27.1673 5.10615 26.724 5.4859L24.6654 7.24939L25.2943 9.8861C25.4297 10.4539 24.8121 10.9027 24.3139 10.5984L22.0006 9.18544L19.6873 10.5984C19.1891 10.9027 18.5714 10.4539 18.7068 9.8861L19.3358 7.24939L17.2771 5.4859C16.8338 5.10615 17.0697 4.38001 17.6516 4.33337L20.3537 4.11675L21.3946 1.61389Z" fill="#E0004D"/>
<path fill-rule="evenodd" clip-rule="evenodd" d="M37.3946 1.61389C37.6188 1.07492 38.3823 1.07491 38.6065 1.61389L39.6475 4.11675L42.3495 4.33337C42.9314 4.38001 43.1673 5.10615 42.724 5.4859L40.6654 7.24939L41.2943 9.8861C41.4297 10.4539 40.8121 10.9027 40.3139 10.5984L38.0006 9.18544L35.6873 10.5984C35.1891 10.9027 34.5714 10.4539 34.7068 9.8861L35.3358 7.24939L33.2771 5.4859C32.8338 5.10615 33.0697 4.38001 33.6516 4.33337L36.3537 4.11675L37.3946 1.61389Z" fill="#E0004D"/>
<path fill-rule="evenodd" clip-rule="evenodd" d="M53.3946 1.61389C53.6188 1.07492 54.3823 1.07491 54.6065 1.61389L55.6475 4.11675L58.3495 4.33337C58.9314 4.38001 59.1673 5.10615 58.724 5.4859L56.6654 7.24939L57.2943 9.8861C57.4297 10.4539 56.8121 10.9027 56.3139 10.5984L54.0006 9.18544L51.6873 10.5984C51.1891 10.9027 50.5714 10.4539 50.7068 9.8861L51.3358 7.24939L49.2771 5.4859C48.8338 5.10615 49.0697 4.38001 49.6516 4.33337L52.3537 4.11675L53.3946 1.61389Z" fill="#E0004D"/>
<path fill-rule="evenodd" clip-rule="evenodd" d="M69.5154 1.72341C69.6189 1.4635 69.8469 1.33354 70.075 1.33354C70.075 9.026 70.075 1.33354 70.075 9.026L67.9385 10.3888C67.4784 10.6822 66.908 10.2494 67.0331 9.7018L67.6139 7.1587L65.7126 5.4579C65.3032 5.09165 65.5211 4.39128 66.0585 4.34629L68.554 4.13736L69.5154 1.72341Z" fill="#E0004D"/>
<path d="M69.8185 1.68178C69.8666 1.56629 69.9723 1.50854 70.0782 1.50854C70.184 1.50855 70.2898 1.56629 70.3379 1.68178L71.4008 4.23751C71.4413 4.33489 71.533 4.40143 71.6381 4.40985L74.3972 4.63105C74.6465 4.65104 74.7476 4.96225 74.5576 5.12499L72.4555 6.92575C72.3754 6.99435 72.3404 7.102 72.3649 7.2046L73.0071 9.89699C73.0652 10.1403 72.8005 10.3327 72.587 10.2023L70.2248 8.75949C70.1348 8.70449 70.0216 8.70449 69.9316 8.75949L67.5694 10.2023C67.3559 10.3327 67.0912 10.1403 67.1492 9.89699L67.7914 7.2046C67.8159 7.102 67.7809 6.99435 67.7008 6.92575L65.5987 5.12499C65.4087 4.96225 65.5098 4.65104 65.7592 4.63105L68.5183 4.40985C68.6234 4.40143 68.715 4.33489 68.7555 4.23751L69.8185 1.68178Z" stroke="#E0004D" stroke-width="0.75" stroke-linecap="round" stroke-linejoin="round"/>
</svg>
