<svg width="375" height="610" viewBox="0 0 375 610" fill="none" xmlns="http://www.w3.org/2000/svg">
<path fill-rule="evenodd" clip-rule="evenodd" d="M375 0H0V610H375V0ZM86.96 363.92C78.8533 363.92 71.44 362.32 64.72 359.12C58.1067 355.92 52.7733 351.333 48.72 345.36C44.7733 339.387 42.5333 332.453 42 324.56H60.4C60.72 328.827 62.0533 332.72 64.4 336.24C66.8533 339.653 70.0533 342.373 74 344.4C77.9467 346.427 82.2667 347.44 86.96 347.44C93.8933 347.44 99.44 345.947 103.6 342.96C107.867 339.973 110 335.973 110 330.96C110 322.96 104.933 317.467 94.8 314.48L74.96 308.72C66.1067 306.267 59.12 302.64 54 297.84C48.9867 292.933 46.48 285.947 46.48 276.88C46.48 270.907 48.1333 265.573 51.44 260.88C54.8533 256.187 59.5467 252.56 65.52 250C71.4933 247.333 78.32 246 86 246C97.84 246 107.547 248.987 115.12 254.96C122.693 260.933 126.853 269.04 127.6 279.28H109.2C108.347 274.267 105.84 270.213 101.68 267.12C97.6267 263.92 92.4 262.32 86 262.32C79.6 262.32 74.5867 263.6 70.96 266.16C67.3333 268.72 65.52 272.24 65.52 276.72C65.52 280.453 66.7467 283.493 69.2 285.84C71.6533 288.08 75.1733 289.84 79.76 291.12L99.92 296.88C109.093 299.44 116.24 303.227 121.36 308.24C126.48 313.253 129.04 320.667 129.04 330.48C129.04 337.093 127.28 342.96 123.76 348.08C120.347 353.093 115.44 356.987 109.04 359.76C102.747 362.533 95.3867 363.92 86.96 363.92ZM211.217 247.28H229.777V362.64H211.217V310.48H155.857V362.64H137.298V247.28H155.857V294H211.217V247.28ZM292.149 247.28H243.829V362.64H262.389V315.28H279.509C288.149 315.28 294.549 316.773 298.709 319.76C302.975 322.747 305.695 327.653 306.869 334.48L310.069 352.88C310.602 356.827 311.722 360.08 313.429 362.64H333.429C331.509 359.547 330.015 355.12 328.949 349.36L325.109 330.64C323.935 325.413 322.229 321.253 319.989 318.16C317.855 314.96 314.762 312.453 310.709 310.64C316.469 308.08 320.949 304.24 324.149 299.12C327.455 293.893 329.109 287.973 329.109 281.36C329.109 270.8 325.802 262.48 319.189 256.4C312.575 250.32 303.562 247.28 292.149 247.28ZM304.629 294.32C301.109 297.307 296.149 298.8 289.749 298.8H262.389V263.76H289.749C296.149 263.76 301.109 265.307 304.629 268.4C308.255 271.493 310.069 275.813 310.069 281.36C310.069 286.907 308.255 291.227 304.629 294.32Z" fill="white"/>
</svg>
