<svg width="1920" height="1080" viewBox="0 0 1920 1080" fill="none" xmlns="http://www.w3.org/2000/svg">
<path fill-rule="evenodd" clip-rule="evenodd" d="M1920 0H0V1080H1920V0ZM708.4 687.8C688.133 687.8 669.6 683.8 652.8 675.8C636.267 667.8 622.933 656.333 612.8 641.4C602.933 626.467 597.333 609.133 596 589.4H642C642.8 600.067 646.133 609.8 652 618.6C658.133 627.133 666.133 633.933 676 639C685.867 644.067 696.667 646.6 708.4 646.6C725.733 646.6 739.6 642.867 750 635.4C760.667 627.933 766 617.933 766 605.4C766 585.4 753.333 571.667 728 564.2L678.4 549.8C656.267 543.667 638.8 534.6 626 522.6C613.467 510.333 607.2 492.867 607.2 470.2C607.2 455.267 611.333 441.933 619.6 430.2C628.133 418.467 639.867 409.4 654.8 403C669.733 396.333 686.8 393 706 393C735.6 393 759.867 400.467 778.8 415.4C797.733 430.333 808.133 450.6 810 476.2H764C761.867 463.667 755.6 453.533 745.2 445.8C735.067 437.8 722 433.8 706 433.8C690 433.8 677.467 437 668.4 443.4C659.333 449.8 654.8 458.6 654.8 469.8C654.8 479.133 657.867 486.733 664 492.6C670.133 498.2 678.933 502.6 690.4 505.8L740.8 520.2C763.733 526.6 781.6 536.067 794.4 548.6C807.2 561.133 813.6 579.667 813.6 604.2C813.6 620.733 809.2 635.4 800.4 648.2C791.867 660.733 779.6 670.467 763.6 677.4C747.867 684.333 729.467 687.8 708.4 687.8ZM1019.04 396.2H1065.44V684.6H1019.04V554.2H880.644V684.6H834.244V396.2H880.644V513H1019.04V396.2ZM1221.37 396.2H1100.57V684.6H1146.97V566.2H1189.77C1211.37 566.2 1227.37 569.933 1237.77 577.4C1248.44 584.867 1255.24 597.133 1258.17 614.2L1266.17 660.2C1267.51 670.067 1270.31 678.2 1274.57 684.6H1324.57C1319.77 676.867 1316.04 665.8 1313.37 651.4L1303.77 604.6C1300.84 591.533 1296.57 581.133 1290.97 573.4C1285.64 565.4 1277.91 559.133 1267.77 554.6C1282.17 548.2 1293.37 538.6 1301.37 525.8C1309.64 512.733 1313.77 497.933 1313.77 481.4C1313.77 455 1305.51 434.2 1288.97 419C1272.44 403.8 1249.91 396.2 1221.37 396.2ZM1252.57 513.8C1243.77 521.267 1231.37 525 1215.37 525H1146.97V437.4H1215.37C1231.37 437.4 1243.77 441.267 1252.57 449C1261.64 456.733 1266.17 467.533 1266.17 481.4C1266.17 495.267 1261.64 506.067 1252.57 513.8Z" fill="white"/>
</svg>
