<svg width="3840" height="2160" viewBox="0 0 3840 2160" fill="none" xmlns="http://www.w3.org/2000/svg">
<path fill-rule="evenodd" clip-rule="evenodd" d="M3840 0H0V2160H3840V0ZM1267.97 787.01V924H1318.89C1347.2 924 1362.4 910.32 1362.4 884.48C1362.4 866.81 1353.85 854.27 1337.89 848.95C1350.24 844.01 1356.7 834.32 1356.7 822.16C1356.7 799.36 1342.26 787.01 1315.47 787.01H1267.97ZM1349.1 884.48C1349.1 902.53 1337.32 912.22 1316.04 912.22H1280.89V856.74H1316.04C1337.32 856.74 1349.1 866.62 1349.1 884.48ZM1343.4 821.97C1343.4 836.98 1333.52 844.96 1315.47 844.96H1280.89V798.79H1315.66C1333.33 798.79 1343.4 806.96 1343.4 821.97ZM1383.72 825.39V924H1395.69V825.39H1383.72ZM1397.4 785.49H1382.39V804.11H1397.4V785.49ZM1463.33 823.87C1435.21 823.87 1416.41 845.34 1416.41 874.6C1416.41 904.05 1435.21 925.52 1463.33 925.52C1484.23 925.52 1501.71 914.5 1505.52 893.22H1494.11C1491.83 906.9 1478.72 914.5 1463.33 914.5C1443.01 914.5 1429.14 899.87 1428.94 875.17H1505.9C1505.9 875.17 1506.28 872.13 1506.28 869.28C1506.66 842.68 1488.98 823.87 1463.33 823.87ZM1493.55 864.53H1429.7C1432.94 846.48 1445.09 834.89 1463.33 834.89C1481.57 834.89 1492.41 847.43 1493.55 864.53ZM1526.96 825.39V924H1538.93V880.68C1538.93 852.75 1552.61 834.89 1572.75 834.89C1587.95 834.89 1597.07 845.34 1597.07 859.59V924H1609.04V858.26C1609.04 837.55 1594.41 823.87 1574.27 823.87C1559.45 823.87 1546.72 832.23 1538.93 846.1V825.39H1526.96ZM1623.73 825.39L1660.02 924H1673.7L1709.8 825.39H1697.83L1666.86 910.7L1636.27 825.39H1623.73ZM1765.96 823.87C1737.84 823.87 1719.03 845.34 1719.03 874.6C1719.03 904.05 1737.84 925.52 1765.96 925.52C1786.86 925.52 1804.34 914.5 1808.14 893.22H1796.74C1794.46 906.9 1781.35 914.5 1765.96 914.5C1745.63 914.5 1731.76 899.87 1731.57 875.17H1808.52C1808.52 875.17 1808.9 872.13 1808.9 869.28C1809.28 842.68 1791.61 823.87 1765.96 823.87ZM1796.17 864.53H1732.33C1735.56 846.48 1747.72 834.89 1765.96 834.89C1784.2 834.89 1795.03 847.43 1796.17 864.53ZM1829.59 825.39V924H1841.56V880.68C1841.56 852.75 1855.24 834.89 1875.38 834.89C1890.58 834.89 1899.7 845.34 1899.7 859.59V924H1911.67V858.26C1911.67 837.55 1897.04 823.87 1876.9 823.87C1862.08 823.87 1849.35 832.23 1841.56 846.1V825.39H1829.59ZM2018.89 924V825.39H2006.92V868.71C2006.92 896.64 1993.24 914.5 1973.1 914.5C1957.9 914.5 1948.78 904.05 1948.78 889.8V825.39H1936.81V891.13C1936.81 911.84 1951.44 925.52 1971.58 925.52C1986.4 925.52 1999.13 917.16 2006.92 903.29V924H2018.89ZM2086.59 823.87C2058.47 823.87 2039.66 845.34 2039.66 874.6C2039.66 904.05 2058.47 925.52 2086.59 925.52C2107.49 925.52 2124.97 914.5 2128.77 893.22H2117.37C2115.09 906.9 2101.98 914.5 2086.59 914.5C2066.26 914.5 2052.39 899.87 2052.2 875.17H2129.15C2129.15 875.17 2129.53 872.13 2129.53 869.28C2129.91 842.68 2112.24 823.87 2086.59 823.87ZM2116.8 864.53H2052.96C2056.19 846.48 2068.35 834.89 2086.59 834.89C2104.83 834.89 2115.66 847.43 2116.8 864.53ZM2186.24 874.6C2186.24 902.72 2202.58 925.52 2233.17 925.52C2248.75 925.52 2262.62 917.54 2266.8 908.04V924H2278.77V785.49H2266.8V841.35C2260.53 831.09 2246.28 823.87 2233.17 823.87C2202.77 823.87 2186.24 846.48 2186.24 874.6ZM2268.13 874.6C2268.13 898.73 2254.26 914.5 2233.55 914.5C2212.65 914.5 2198.78 898.54 2198.78 874.6C2198.78 850.66 2212.65 834.89 2233.55 834.89C2254.26 834.89 2268.13 850.66 2268.13 874.6ZM2298.85 897.78C2298.85 914.88 2312.53 925.52 2331.91 925.52C2346.92 925.52 2360.79 917.92 2366.49 905.95C2366.49 919.63 2373.52 924.76 2383.59 924.76C2386.06 924.76 2388.72 924 2388.72 924V913.74C2388.72 913.74 2387.2 914.12 2385.68 914.12C2381.69 914.12 2378.46 913.17 2378.46 906.52V855.22C2378.46 837.36 2362.88 823.87 2340.08 823.87C2317.66 823.87 2302.46 836.41 2300.56 855.79H2313.1C2314.43 842.11 2324.69 834.89 2340.08 834.89C2356.61 834.89 2366.49 843.44 2366.49 855.22C2366.49 860.92 2363.07 863.77 2356.23 864.72L2331.53 867.95C2311.01 870.61 2298.85 881.06 2298.85 897.78ZM2366.49 878.78C2366.49 901.39 2354.14 914.5 2332.86 914.5C2320.51 914.5 2311.39 908.42 2311.39 897.78C2311.39 886.76 2318.8 880.68 2333.05 878.4L2366.49 873.27V878.78ZM2405.9 825.39V924H2417.87V880.68C2417.87 852.75 2431.55 834.89 2451.69 834.89C2466.89 834.89 2476.01 845.34 2476.01 859.59V924H2487.98V858.26C2487.98 837.55 2473.35 823.87 2453.21 823.87C2438.39 823.87 2425.66 832.23 2417.87 846.1V825.39H2405.9ZM2505.52 892.46C2506.66 910.7 2521.48 925.52 2544.66 925.52C2566.51 925.52 2580.76 914.5 2580.76 897.4C2580.76 878.21 2568.6 872.89 2555.11 869.28L2536.49 864.34C2527.94 862.06 2522.43 857.12 2522.43 850.09C2522.43 840.78 2530.41 834.89 2542.76 834.89C2556.06 834.89 2565.18 841.92 2566.51 852.37H2579.05C2576.2 835.08 2562.33 823.87 2542.76 823.87C2523.38 823.87 2509.89 834.51 2509.89 850.09C2509.89 865.67 2520.72 871.75 2533.26 875.17L2551.69 880.3C2561.38 882.96 2568.22 887.33 2568.22 897.4C2568.22 906.52 2558.91 914.5 2544.66 914.5C2528.32 914.5 2518.63 904.43 2517.87 892.46H2505.52ZM1335.11 1013.49V1152H1347.08V1013.49H1335.11ZM1367.22 1125.78C1367.22 1142.88 1380.9 1153.52 1400.28 1153.52C1415.29 1153.52 1429.16 1145.92 1434.86 1133.95C1434.86 1147.63 1441.89 1152.76 1451.96 1152.76C1454.43 1152.76 1457.09 1152 1457.09 1152V1141.74C1457.09 1141.74 1455.57 1142.12 1454.05 1142.12C1450.06 1142.12 1446.83 1141.17 1446.83 1134.52V1083.22C1446.83 1065.36 1431.25 1051.87 1408.45 1051.87C1386.03 1051.87 1370.83 1064.41 1368.93 1083.79H1381.47C1382.8 1070.11 1393.06 1062.89 1408.45 1062.89C1424.98 1062.89 1434.86 1071.44 1434.86 1083.22C1434.86 1088.92 1431.44 1091.77 1424.6 1092.72L1399.9 1095.95C1379.38 1098.61 1367.22 1109.06 1367.22 1125.78ZM1434.86 1106.78C1434.86 1129.39 1422.51 1142.5 1401.23 1142.5C1388.88 1142.5 1379.76 1136.42 1379.76 1125.78C1379.76 1114.76 1387.17 1108.68 1401.42 1106.4L1434.86 1101.27V1106.78ZM1516.94 1053.39V1152H1528.91V1108.68C1528.91 1080.75 1542.59 1062.89 1562.73 1062.89C1577.93 1062.89 1587.05 1073.34 1587.05 1087.59V1152H1599.02V1086.26C1599.02 1065.55 1584.39 1051.87 1564.25 1051.87C1549.43 1051.87 1536.7 1060.23 1528.91 1074.1V1053.39H1516.94ZM1618.46 1102.6C1618.46 1132.24 1638.22 1153.52 1665.96 1153.52C1693.51 1153.52 1713.65 1132.43 1713.65 1102.6C1713.65 1072.96 1693.51 1051.87 1665.96 1051.87C1638.22 1051.87 1618.46 1073.15 1618.46 1102.6ZM1701.11 1102.6C1701.11 1125.78 1686.67 1142.5 1665.96 1142.5C1645.06 1142.5 1631 1125.78 1631 1102.6C1631 1079.61 1645.06 1062.89 1665.96 1062.89C1686.48 1062.89 1701.11 1079.42 1701.11 1102.6ZM1815.16 1152V1053.39H1803.19V1096.71C1803.19 1124.64 1789.51 1142.5 1769.37 1142.5C1754.17 1142.5 1745.05 1132.05 1745.05 1117.8V1053.39H1733.08V1119.13C1733.08 1139.84 1747.71 1153.52 1767.85 1153.52C1782.67 1153.52 1795.4 1145.16 1803.19 1131.29V1152H1815.16ZM1830.99 1053.39L1867.28 1152H1880.96L1917.06 1053.39H1905.09L1874.12 1138.7L1843.53 1053.39H1830.99ZM1973.22 1051.87C1945.1 1051.87 1926.29 1073.34 1926.29 1102.6C1926.29 1132.05 1945.1 1153.52 1973.22 1153.52C1994.12 1153.52 2011.6 1142.5 2015.4 1121.22H2004C2001.72 1134.9 1988.61 1142.5 1973.22 1142.5C1952.89 1142.5 1939.02 1127.87 1938.83 1103.17H2015.78C2015.78 1103.17 2016.16 1100.13 2016.16 1097.28C2016.54 1070.68 1998.87 1051.87 1973.22 1051.87ZM2003.43 1092.53H1939.59C1942.82 1074.48 1954.98 1062.89 1973.22 1062.89C1991.46 1062.89 2002.29 1075.43 2003.43 1092.53ZM2036.84 1013.49V1152H2048.81V1013.49H2036.84ZM2076.18 1013.49V1152H2088.15V1013.49H2076.18ZM2155.8 1051.87C2127.68 1051.87 2108.87 1073.34 2108.87 1102.6C2108.87 1132.05 2127.68 1153.52 2155.8 1153.52C2176.7 1153.52 2194.18 1142.5 2197.98 1121.22H2186.58C2184.3 1134.9 2171.19 1142.5 2155.8 1142.5C2135.47 1142.5 2121.6 1127.87 2121.41 1103.17H2198.36C2198.36 1103.17 2198.74 1100.13 2198.74 1097.28C2199.12 1070.68 2181.45 1051.87 2155.8 1051.87ZM2186.01 1092.53H2122.17C2125.4 1074.48 2137.56 1062.89 2155.8 1062.89C2174.04 1062.89 2184.87 1075.43 2186.01 1092.53ZM2298.01 1042.37H2306.94L2291.74 1013.49H2275.4L2298.01 1042.37ZM2302.38 1051.87C2274.26 1051.87 2255.45 1073.34 2255.45 1102.6C2255.45 1132.05 2274.26 1153.52 2302.38 1153.52C2323.28 1153.52 2340.76 1142.5 2344.56 1121.22H2333.16C2330.88 1134.9 2317.77 1142.5 2302.38 1142.5C2282.05 1142.5 2268.18 1127.87 2267.99 1103.17H2344.94C2344.94 1103.17 2345.32 1100.13 2345.32 1097.28C2345.7 1070.68 2328.03 1051.87 2302.38 1051.87ZM2332.59 1092.53H2268.75C2271.98 1074.48 2284.14 1062.89 2302.38 1062.89C2320.62 1062.89 2331.45 1075.43 2332.59 1092.53ZM2408.18 1062.7C2414.45 1062.7 2418.63 1064.03 2418.63 1064.03V1052.82C2418.63 1052.82 2416.16 1051.87 2409.51 1051.87C2396.21 1051.87 2382.72 1061.37 2377.97 1074.29V1053.39H2366V1152H2377.97V1113.81C2377.97 1079.99 2391.65 1062.7 2408.18 1062.7ZM2468.63 1051.87C2440.51 1051.87 2421.7 1073.34 2421.7 1102.6C2421.7 1132.05 2440.51 1153.52 2468.63 1153.52C2489.53 1153.52 2507.01 1142.5 2510.81 1121.22H2499.41C2497.13 1134.9 2484.02 1142.5 2468.63 1142.5C2448.3 1142.5 2434.43 1127.87 2434.24 1103.17H2511.19C2511.19 1103.17 2511.57 1100.13 2511.57 1097.28C2511.95 1070.68 2494.28 1051.87 2468.63 1051.87ZM2498.84 1092.53H2435C2438.23 1074.48 2450.39 1062.89 2468.63 1062.89C2486.87 1062.89 2497.7 1075.43 2498.84 1092.53ZM1411.02 1330.6C1411.02 1358.72 1427.36 1381.52 1457.95 1381.52C1473.53 1381.52 1487.4 1373.54 1491.58 1364.04V1380H1503.55V1241.49H1491.58V1297.35C1485.31 1287.09 1471.06 1279.87 1457.95 1279.87C1427.55 1279.87 1411.02 1302.48 1411.02 1330.6ZM1492.91 1330.6C1492.91 1354.73 1479.04 1370.5 1458.33 1370.5C1437.43 1370.5 1423.56 1354.54 1423.56 1330.6C1423.56 1306.66 1437.43 1290.89 1458.33 1290.89C1479.04 1290.89 1492.91 1306.66 1492.91 1330.6ZM1571.14 1279.87C1543.02 1279.87 1524.21 1301.34 1524.21 1330.6C1524.21 1360.05 1543.02 1381.52 1571.14 1381.52C1592.04 1381.52 1609.52 1370.5 1613.32 1349.22H1601.92C1599.64 1362.9 1586.53 1370.5 1571.14 1370.5C1550.81 1370.5 1536.94 1355.87 1536.75 1331.17H1613.7C1613.7 1331.17 1614.08 1328.13 1614.08 1325.28C1614.46 1298.68 1596.79 1279.87 1571.14 1279.87ZM1601.35 1320.53H1537.51C1540.74 1302.48 1552.9 1290.89 1571.14 1290.89C1589.38 1290.89 1600.21 1303.43 1601.35 1320.53ZM1677.44 1241.49V1380H1689.41V1241.49H1677.44ZM1712.6 1243.01L1714.88 1284.62H1722.1L1724.38 1243.01H1712.6ZM1788.69 1241.49L1773.49 1270.37H1782.42L1805.03 1241.49H1788.69ZM1776.91 1279.87C1748.79 1279.87 1729.98 1301.34 1729.98 1330.6C1729.98 1360.05 1748.79 1381.52 1776.91 1381.52C1797.81 1381.52 1815.29 1370.5 1819.09 1349.22H1807.69C1805.41 1362.9 1792.3 1370.5 1776.91 1370.5C1756.58 1370.5 1742.71 1355.87 1742.52 1331.17H1819.47C1819.47 1331.17 1819.85 1328.13 1819.85 1325.28C1820.23 1298.68 1802.56 1279.87 1776.91 1279.87ZM1807.12 1320.53H1743.28C1746.51 1302.48 1758.67 1290.89 1776.91 1290.89C1795.15 1290.89 1805.98 1303.43 1807.12 1320.53ZM1840.54 1281.39V1415.53H1852.51V1364.04C1859.54 1374.3 1873.6 1381.52 1886.33 1381.52C1916.92 1381.52 1933.07 1358.72 1933.07 1330.6C1933.07 1302.67 1916.92 1279.87 1886.14 1279.87C1871.7 1279.87 1857.45 1287.66 1852.51 1297.35V1281.39H1840.54ZM1920.53 1330.6C1920.53 1354.73 1906.66 1370.5 1885.95 1370.5C1865.24 1370.5 1851.37 1354.73 1851.37 1330.6C1851.37 1306.66 1865.24 1290.89 1885.95 1290.89C1906.66 1290.89 1920.53 1306.66 1920.53 1330.6ZM1953.53 1281.39V1380H1965.5V1281.39H1953.53ZM1967.21 1241.49H1952.2V1260.11H1967.21V1241.49ZM1992.87 1241.49V1380H2004.84V1241.49H1992.87ZM2024.99 1353.78C2024.99 1370.88 2038.67 1381.52 2058.05 1381.52C2073.06 1381.52 2086.93 1373.92 2092.63 1361.95C2092.63 1375.63 2099.66 1380.76 2109.73 1380.76C2112.2 1380.76 2114.86 1380 2114.86 1380V1369.74C2114.86 1369.74 2113.34 1370.12 2111.82 1370.12C2107.83 1370.12 2104.6 1369.17 2104.6 1362.52V1311.22C2104.6 1293.36 2089.02 1279.87 2066.22 1279.87C2043.8 1279.87 2028.6 1292.41 2026.7 1311.79H2039.24C2040.57 1298.11 2050.83 1290.89 2066.22 1290.89C2082.75 1290.89 2092.63 1299.44 2092.63 1311.22C2092.63 1316.92 2089.21 1319.77 2082.37 1320.72L2057.67 1323.95C2037.15 1326.61 2024.99 1337.06 2024.99 1353.78ZM2092.63 1334.78C2092.63 1357.39 2080.28 1370.5 2059 1370.5C2046.65 1370.5 2037.53 1364.42 2037.53 1353.78C2037.53 1342.76 2044.94 1336.68 2059.19 1334.4L2092.63 1329.27V1334.78ZM2175.01 1292.03V1281.39H2148.79V1250.99H2136.82V1281.39H2117.63V1292.03H2136.82V1354.16C2136.82 1372.78 2146.89 1381.52 2163.8 1381.52C2169.12 1381.52 2175.01 1380 2175.01 1380V1368.79C2175.01 1368.79 2169.69 1370.31 2163.8 1370.31C2154.3 1370.31 2148.79 1365.37 2148.79 1354.16V1292.03H2175.01ZM2193.07 1281.39V1380H2205.04V1281.39H2193.07ZM2206.75 1241.49H2191.74V1260.11H2206.75V1241.49ZM2225.57 1330.6C2225.57 1360.24 2245.33 1381.52 2273.07 1381.52C2300.62 1381.52 2320.76 1360.43 2320.76 1330.6C2320.76 1300.96 2300.62 1279.87 2273.07 1279.87C2245.33 1279.87 2225.57 1301.15 2225.57 1330.6ZM2308.22 1330.6C2308.22 1353.78 2293.78 1370.5 2273.07 1370.5C2252.17 1370.5 2238.11 1353.78 2238.11 1330.6C2238.11 1307.61 2252.17 1290.89 2273.07 1290.89C2293.59 1290.89 2308.22 1307.42 2308.22 1330.6ZM2341.33 1281.39V1380H2353.3V1336.68C2353.3 1308.75 2366.98 1290.89 2387.12 1290.89C2402.32 1290.89 2411.44 1301.34 2411.44 1315.59V1380H2423.41V1314.26C2423.41 1293.55 2408.78 1279.87 2388.64 1279.87C2373.82 1279.87 2361.09 1288.23 2353.3 1302.1V1281.39H2341.33Z" fill="white"/>
</svg>
