<?xml version="1.0" encoding="utf-8"?>
<!-- Generator: Adobe Illustrator 28.1.0, SVG Export Plug-In . SVG Version: 6.00 Build 0)  -->
<svg version="1.1" id="图层_1" xmlns="http://www.w3.org/2000/svg" xmlns:xlink="http://www.w3.org/1999/xlink" x="0px" y="0px"
	 viewBox="0 0 300 300" style="enable-background:new 0 0 300 300;" xml:space="preserve">
<style type="text/css">
	.st0{clip-path:url(#SVGID_00000160912679149797994750000006352890226775006120_);}
	.st1{stroke:#000000;stroke-width:2;stroke-miterlimit:10;}
	.st2{fill:none;}
</style>
<g>
	<g>
		<g>
			<g>
				<defs>
					<rect id="SVGID_1_" x="23" y="23" width="262" height="254.1"/>
				</defs>
				<clipPath id="SVGID_00000010290335325850161600000002340400952821174201_">
					<use xlink:href="#SVGID_1_"  style="overflow:visible;"/>
				</clipPath>
				<path style="clip-path:url(#SVGID_00000010290335325850161600000002340400952821174201_);" d="M174.4,232.9
					c-14.6,11-30.1,20.1-46.5,27.4c-15.5-7.3-91.2-46.5-91.2-90.3V70.5H85c1.8,0,2.7-0.9,4.6-1.8L127,36.7c0.9-0.9,1.8-0.9,2.7,0
					l41,31.9c0.9,0.9,2.7,1.8,4.6,1.8h44.7v42c0,3.7,2.7,7.3,7.3,7.3c4.6,0,7.3-2.7,7.3-7.3V63.2c0-1.8-0.9-3.7-1.8-4.6
					c-0.9-0.9-2.7-1.8-4.6-1.8H179l-38.3-30.1c-6.4-4.6-14.6-4.6-20.1,0L82.2,56.8h-52c-3.7,0-7.3,2.7-7.3,7.3v106.8
					c0,57.5,98.5,103.1,102.2,104.9c0.9,0,1.8,0.9,2.7,0.9c0.9,0,1.8,0,2.7-0.9c18.3-8.2,35.6-18.3,51.1-30.1
					c2.7-1.8,3.7-6.4,1.8-9.1C181.7,231.9,178.1,231,174.4,232.9L174.4,232.9z"/>
			</g>
		</g>
		<g>
			<path d="M224.6,123.4c-32.8,0-60.2,27.4-60.2,60.2s27.4,60.2,60.2,60.2c32.8,0,60.2-27.4,60.2-60.2
				C284.8,149.9,258.3,123.4,224.6,123.4L224.6,123.4z M182.9,163c7.7-15.3,23.5-25.9,41.7-25.9c25.6,0,46.5,21,46.5,46.5
				s-21,46.5-46.5,46.5l0,0c-25.6,0-46.5-21-46.5-46.5C178.1,176.3,179.8,169.3,182.9,163"/>
			<g>
				<path d="M247.9,207L247.9,207c-2.9,2.9-7.4,2.9-10.3,0l-36.4-36.4c-2.9-2.9-2.9-7.4,0-10.3l0,0c2.9-2.9,7.4-2.9,10.3,0
					l36.4,36.4C250.7,199.5,250.7,204.1,247.9,207z"/>
				<path d="M201.2,207L201.2,207c-2.9-2.9-2.9-7.4,0-10.3l36.4-36.4c2.9-2.9,7.4-2.9,10.3,0l0,0c2.9,2.9,2.9,7.4,0,10.3L211.5,207
					C208.7,209.9,204.1,209.9,201.2,207z"/>
			</g>
		</g>
	</g>
	<g>
		<g>
			<path class="st1" d="M175.8,219.6c-4.1-3.8-5.9-9.2-6.3-14.7L137.7,173l-3.2,1.4c-5.4,2.3-11,3.5-16.9,3.5
				C94.1,177.9,75,158.7,75,135c0-3.3,0.4-6.5,1.1-9.7l26.5,26.7c1.1,0.9,2.6,0.9,3.8,0.1l28-28c0,0,0,0,0-0.1
				c1.1-1.1,1.2-2.9,0.2-4.1l-26.6-26.7c3.2-0.8,6.4-1.1,9.6-1.1c23.5,0,42.7,19.2,42.7,42.9c0,5.9-1.2,11.6-3.5,17l-1.4,3.2
				l18,18.1c0.9-3.5,2.8-6.8,5-9.2l-11.1-11.2c2-5.7,3.1-11.7,3.1-17.8c0-29.2-23.7-53-52.8-53c-3.8,0-7.7,0.5-11.3,1.3
				c-2.1,0.5-3.8,1.1-3.8,1.1c-1,0.3-1.3,0.5-3,1.1c-1.7,0.6-1.8,0.6-2.8,0.9c-2.4,0.9-3.6,1.3-3.9,2c-0.8,1.4,0,3.8,0,3.8l0,0
				c0.8,1.7,8.8,9.9,29.5,29.7l-17.7,17.8l-28.9-29.1c-0.1,0-0.1,0-0.2-0.1c-1.2-1.2-3.2-1.2-4.4,0c-0.4,0.4-0.6,0.8-0.8,1.1
				c0,0.1-0.1,0-0.1,0l-1,2.3c-2.9,6.7-4.4,13.8-4.4,21c0,29.2,23.7,53,52.8,53c6.1,0,12-1.1,17.7-3.1l31.6,31.8
				c3.2,3.2,7.1,5.3,11.3,6.2c-0.8-0.9-1.4-1.9-2-2.9C176,219.8,176,219.7,175.8,219.6z"/>
		</g>
	</g>
	<circle class="st2" cx="224.6" cy="183.6" r="60.2"/>
	<ellipse cx="175" cy="213.8" rx="6.3" ry="6"/>
</g>
</svg>
