<?xml version="1.0" encoding="UTF-8"?>
<svg id="_图层_2" data-name="图层 2" xmlns="http://www.w3.org/2000/svg" xmlns:xlink="http://www.w3.org/1999/xlink" viewBox="0 0 262 254.1">
  <defs>
    <style>
      .cls-1, .cls-2 {
        stroke-width: 0px;
      }

      .cls-1, .cls-3 {
        fill: #000;
      }

      .cls-2 {
        fill: none;
      }

      .cls-3 {
        stroke: #000;
        stroke-miterlimit: 10;
        stroke-width: 2px;
      }

      .cls-4 {
        clip-path: url(#clippath);
      }
    </style>
    <clipPath id="clippath">
      <rect class="cls-2" width="262" height="254.1"/>
    </clipPath>
  </defs>
  <g id="_图层_1-2" data-name="图层 1">
    <g>
      <g>
        <g class="cls-4">
          <path class="cls-1" d="M151.4,209.9c-14.6,11-30.1,20.1-46.5,27.4-15.5-7.3-91.2-46.5-91.2-90.3V47.5h48.3c1.8,0,2.7-.9,4.6-1.8l37.4-32c.9-.9,1.8-.9,2.7,0l41,31.9c.9.9,2.7,1.8,4.6,1.8h44.7v42c0,3.7,2.7,7.3,7.3,7.3s7.3-2.7,7.3-7.3v-49.2c0-1.8-.9-3.7-1.8-4.6-.9-.9-2.7-1.8-4.6-1.8h-49.2L117.7,3.7c-6.4-4.6-14.6-4.6-20.1,0l-38.4,30.1H7.2c-3.7,0-7.3,2.7-7.3,7.3v106.8c0,57.5,98.5,103.1,102.2,104.9.9,0,1.8.9,2.7.9s1.8,0,2.7-.9c18.3-8.2,35.6-18.3,51.1-30.1,2.7-1.8,3.7-6.4,1.8-9.1-1.7-4.7-5.3-5.6-9-3.7h0Z"/>
        </g>
        <g>
          <path class="cls-1" d="M201.6,100.4c-32.8,0-60.2,27.4-60.2,60.2s27.4,60.2,60.2,60.2,60.2-27.4,60.2-60.2c0-33.7-26.5-60.2-60.2-60.2h0ZM159.9,140c7.7-15.3,23.5-25.9,41.7-25.9,25.6,0,46.5,21,46.5,46.5s-21,46.5-46.5,46.5h0c-25.6,0-46.5-21-46.5-46.5,0-7.3,1.7-14.3,4.8-20.6"/>
          <g>
            <path class="cls-1" d="M224.9,184h0c-2.9,2.9-7.4,2.9-10.3,0l-36.4-36.4c-2.9-2.9-2.9-7.4,0-10.3h0c2.9-2.9,7.4-2.9,10.3,0l36.4,36.4c2.8,2.8,2.8,7.4,0,10.3Z"/>
            <path class="cls-1" d="M178.2,184h0c-2.9-2.9-2.9-7.4,0-10.3l36.4-36.4c2.9-2.9,7.4-2.9,10.3,0h0c2.9,2.9,2.9,7.4,0,10.3l-36.4,36.4c-2.8,2.9-7.4,2.9-10.3,0Z"/>
          </g>
        </g>
      </g>
      <path class="cls-3" d="M152.8,196.6c-4.1-3.8-5.9-9.2-6.3-14.7l-31.8-31.9-3.2,1.4c-5.4,2.3-11,3.5-16.9,3.5-23.5,0-42.6-19.2-42.6-42.9,0-3.3.4-6.5,1.1-9.7l26.5,26.7c1.1.9,2.6.9,3.8.1l28-28v-.1c1.1-1.1,1.2-2.9.2-4.1l-26.6-26.7c3.2-.8,6.4-1.1,9.6-1.1,23.5,0,42.7,19.2,42.7,42.9,0,5.9-1.2,11.6-3.5,17l-1.4,3.2,18,18.1c.9-3.5,2.8-6.8,5-9.2l-11.1-11.2c2-5.7,3.1-11.7,3.1-17.8,0-29.2-23.7-53-52.8-53-3.8,0-7.7.5-11.3,1.3-2.1.5-3.8,1.1-3.8,1.1-1,.3-1.3.5-3,1.1s-1.8.6-2.8.9c-2.4.9-3.6,1.3-3.9,2-.8,1.4,0,3.8,0,3.8h0c.8,1.7,8.8,9.9,29.5,29.7l-17.7,17.8-28.9-29.1q-.1,0-.2-.1c-1.2-1.2-3.2-1.2-4.4,0-.4.4-.6.8-.8,1.1,0,.1-.1,0-.1,0l-1,2.3c-2.9,6.7-4.4,13.8-4.4,21,0,29.2,23.7,53,52.8,53,6.1,0,12-1.1,17.7-3.1l31.6,31.8c3.2,3.2,7.1,5.3,11.3,6.2-.8-.9-1.4-1.9-2-2.9-.2-.2-.2-.3-.4-.4Z"/>
      <circle class="cls-2" cx="201.6" cy="160.6" r="60.2"/>
      <ellipse class="cls-1" cx="152" cy="190.8" rx="6.3" ry="6"/>
    </g>
  </g>
</svg>