<?xml version="1.0" encoding="utf-8"?>
<!-- Generator: Adobe Illustrator 28.1.0, SVG Export Plug-In . SVG Version: 6.00 Build 0)  -->
<svg version="1.1" id="图层_1" xmlns="http://www.w3.org/2000/svg" xmlns:xlink="http://www.w3.org/1999/xlink" x="0px" y="0px"
	 viewBox="0 0 300 300" style="enable-background:new 0 0 300 300;" xml:space="preserve">
<style type="text/css">
	.st0{clip-path:url(#SVGID_00000101098182295634706070000015269208889975599519_);}
	.st1{stroke:#000000;stroke-width:2;stroke-miterlimit:10;}
	.st2{fill:none;}
</style>
<g>
	<g>
		<g>
			<defs>
				<rect id="SVGID_1_" x="21.4" y="23" width="263.3" height="255.4"/>
			</defs>
			<clipPath id="SVGID_00000138570209071593167140000008579342596287888048_">
				<use xlink:href="#SVGID_1_"  style="overflow:visible;"/>
			</clipPath>
			<path style="clip-path:url(#SVGID_00000138570209071593167140000008579342596287888048_);" d="M173.6,234
				c-14.7,11-30.3,20.2-46.8,27.5c-15.6-7.3-91.7-46.8-91.7-90.8v-100h48.6c1.8,0,2.8-0.9,4.6-1.8l37.6-32.1c0.9-0.9,1.8-0.9,2.8,0
				l41.3,32.1c0.9,0.9,2.8,1.8,4.6,1.8h44.9v42.2c0,3.7,2.8,7.3,7.3,7.3c4.6,0,7.3-2.8,7.3-7.3V63.4c0-1.8-0.9-3.7-1.8-4.6
				c-0.9-0.9-2.8-1.8-4.6-1.8h-49.5l-38.5-30.3c-6.4-4.6-14.7-4.6-20.2,0L81,57H28.7c-3.7,0-7.3,2.8-7.3,7.3v107.3
				c0,57.8,99.1,103.6,102.7,105.5c0.9,0,1.8,0.9,2.8,0.9c0.9,0,1.8,0,2.8-0.9c18.3-8.3,35.8-18.3,51.4-30.3
				c2.8-1.8,3.7-6.4,1.8-9.2C180.9,233,177.3,232.1,173.6,234L173.6,234z M173.6,234"/>
		</g>
		<path d="M224.1,123.9c-33,0-60.5,27.5-60.5,60.5c0,33,27.5,60.5,60.5,60.5c33,0,60.5-27.5,60.5-60.5
			C284.6,150.5,258,123.9,224.1,123.9L224.1,123.9z M182.2,163.7c7.7-15.4,23.6-26.1,41.9-26.1c25.7,0,46.8,21.1,46.8,46.8
			c0,25.7-21.1,46.8-46.8,46.8l0,0c-25.7,0-46.8-21.1-46.8-46.8C177.3,177,179,170,182.2,163.7 M224.1,231.2"/>
		<path d="M257.1,179.9h-25.7v-28.4c0-3.7-2.8-7.3-7.3-7.3c-4.6,0-7.3,2.8-7.3,7.3v35.8c0,3.7,2.8,7.3,7.3,7.3h33
			c3.7,0,7.3-2.8,7.3-7.3C264.4,182.6,260.7,179.9,257.1,179.9L257.1,179.9z M257.1,179.9"/>
	</g>
	<g>
		<g>
			<path class="st1" d="M175,220.6c-4.1-3.8-6-9.3-6.4-14.7l-32-32.1l-3.1,1.4c-5.4,2.4-11.1,3.5-17,3.5
				c-23.7,0-42.9-19.3-42.9-43.1c0-3.3,0.4-6.6,1.1-9.7l26.7,26.8c1.1,0.9,2.7,0.9,3.8,0.1l28.1-28.2c0,0,0,0,0,0
				c1.1-1.1,1.2-3,0.2-4.2l-26.6-26.8c3.2-0.7,6.4-1.1,9.7-1.1c23.7,0,42.9,19.3,42.9,43.1c0,5.9-1.2,11.7-3.5,17.1l-1.4,3.2
				l18.1,18.2c0.9-3.4,2.8-6.8,5-9.3l-11.2-11.3c2-5.7,3.1-11.7,3.1-17.9c0-29.4-23.8-53.3-53-53.3c-3.9,0-7.7,0.4-11.4,1.2
				c-2.1,0.5-3.8,1.1-3.8,1.1c-1,0.3-1.3,0.5-3,1.1c-1.7,0.6-1.8,0.6-2.8,0.9c-2.4,0.9-3.6,1.3-4,2c-0.7,1.5,0,3.8,0,3.8
				c0,0,0,0,0,0c0.8,1.7,8.8,10,29.7,29.9l-17.9,17.9L74.2,111c0,0-0.1,0-0.2-0.1c-1.2-1.2-3.2-1.2-4.5,0c-0.3,0.3-0.6,0.7-0.7,1.2
				c0,0,0,0-0.1,0l-1,2.3c-2.9,6.7-4.4,13.8-4.4,21.1c0,29.4,23.8,53.3,53,53.3c6.1,0,12.1-1,17.8-3.1l31.8,31.9
				c3.1,3.2,7.1,5.3,11.3,6.2c-0.8-0.9-1.4-1.9-2-2.9C175.3,220.8,175.2,220.7,175,220.6z"/>
		</g>
	</g>
	<circle class="st2" cx="224.1" cy="184.4" r="60.5"/>
	<ellipse cx="174.2" cy="214.8" rx="6.4" ry="6"/>
</g>
</svg>
