<?xml version="1.0" encoding="UTF-8"?>
<svg id="_图层_2" data-name="图层 2" xmlns="http://www.w3.org/2000/svg" xmlns:xlink="http://www.w3.org/1999/xlink" viewBox="0 0 263.3 255.4">
  <defs>
    <style>
      .cls-1, .cls-2 {
        stroke-width: 0px;
      }

      .cls-1, .cls-3 {
        fill: #000;
      }

      .cls-2 {
        fill: none;
      }

      .cls-3 {
        stroke: #000;
        stroke-miterlimit: 10;
        stroke-width: 2px;
      }

      .cls-4 {
        clip-path: url(#clippath);
      }
    </style>
    <clipPath id="clippath">
      <rect class="cls-2" width="263.3" height="255.4"/>
    </clipPath>
  </defs>
  <g id="_图层_1-2" data-name="图层 1">
    <g>
      <g>
        <g class="cls-4">
          <path class="cls-1" d="M152.2,211c-14.7,11-30.3,20.2-46.8,27.5-15.6-7.3-91.7-46.8-91.7-90.8V47.7h48.6c1.8,0,2.8-.9,4.6-1.8L104.5,13.8c.9-.9,1.8-.9,2.8,0l41.3,32.1c.9.9,2.8,1.8,4.6,1.8h44.9v42.2c0,3.7,2.8,7.3,7.3,7.3s7.3-2.8,7.3-7.3v-49.5c0-1.8-.9-3.7-1.8-4.6-.9-.9-2.8-1.8-4.6-1.8h-49.5L118.3,3.7c-6.4-4.6-14.7-4.6-20.2,0l-38.5,30.3H7.3C3.6,34,0,36.8,0,41.3v107.3C0,206.4,99.1,252.2,102.7,254.1c.9,0,1.8.9,2.8.9.9,0,1.8,0,2.8-.9,18.3-8.3,35.8-18.3,51.4-30.3,2.8-1.8,3.7-6.4,1.8-9.2-2-4.6-5.6-5.5-9.3-3.6h0Z"/>
        </g>
        <path class="cls-1" d="M202.7,100.9c-33,0-60.5,27.5-60.5,60.5s27.5,60.5,60.5,60.5,60.5-27.5,60.5-60.5-26.6-60.5-60.5-60.5h0ZM160.8,140.7c7.7-15.4,23.6-26.1,41.9-26.1,25.7,0,46.8,21.1,46.8,46.8s-21.1,46.8-46.8,46.8h0c-25.7,0-46.8-21.1-46.8-46.8,0-7.4,1.7-14.4,4.9-20.7"/>
        <path class="cls-1" d="M235.7,156.9h-25.7v-28.4c0-3.7-2.8-7.3-7.3-7.3s-7.3,2.8-7.3,7.3v35.8c0,3.7,2.8,7.3,7.3,7.3h33c3.7,0,7.3-2.8,7.3-7.3s-3.7-7.4-7.3-7.4h0Z"/>
      </g>
      <path class="cls-3" d="M153.6,197.6c-4.1-3.8-6-9.3-6.4-14.7l-32-32.1-3.1,1.4c-5.4,2.4-11.1,3.5-17,3.5-23.7,0-42.9-19.3-42.9-43.1,0-3.3.4-6.6,1.1-9.7l26.7,26.8c1.1.9,2.7.9,3.8.1l28.1-28.2h0c1.1-1.1,1.2-3,.2-4.2l-26.6-26.8c3.2-.7,6.4-1.1,9.7-1.1,23.7,0,42.9,19.3,42.9,43.1,0,5.9-1.2,11.7-3.5,17.1l-1.4,3.2,18.1,18.2c.9-3.4,2.8-6.8,5-9.3l-11.2-11.3c2-5.7,3.1-11.7,3.1-17.9,0-29.4-23.8-53.3-53-53.3-3.9,0-7.7.4-11.4,1.2-2.1.5-3.8,1.1-3.8,1.1-1,.3-1.3.5-3,1.1s-1.8.6-2.8.9c-2.4.9-3.6,1.3-4,2-.7,1.5,0,3.8,0,3.8h0c.8,1.7,8.8,10,29.7,29.9l-17.9,17.9-29.2-29.2s-.1,0-.2-.1c-1.2-1.2-3.2-1.2-4.5,0-.3.3-.6.7-.7,1.2h-.1l-1,2.3c-2.9,6.7-4.4,13.8-4.4,21.1,0,29.4,23.8,53.3,53,53.3,6.1,0,12.1-1,17.8-3.1l31.8,31.9c3.1,3.2,7.1,5.3,11.3,6.2-.8-.9-1.4-1.9-2-2.9.1-.1,0-.2-.2-.3Z"/>
      <circle class="cls-2" cx="202.7" cy="161.4" r="60.5"/>
      <ellipse class="cls-1" cx="152.8" cy="191.8" rx="6.4" ry="6"/>
    </g>
  </g>
</svg>