<?xml version="1.0" encoding="utf-8"?>
<!-- Generator: Adobe Illustrator 28.1.0, SVG Export Plug-In . SVG Version: 6.00 Build 0)  -->
<svg version="1.1" id="图层_1" xmlns="http://www.w3.org/2000/svg" xmlns:xlink="http://www.w3.org/1999/xlink" x="0px" y="0px"
	 viewBox="0 0 300 300" style="enable-background:new 0 0 300 300;" xml:space="preserve">
<style type="text/css">
	.st0{clip-path:url(#SVGID_00000064345697516025289580000016429412004694136205_);}
	.st1{stroke:#000000;stroke-width:4;stroke-miterlimit:10;}
	.st2{stroke:#000000;stroke-width:2;stroke-miterlimit:10;}
	.st3{fill:none;}
</style>
<g>
	<g>
		<g>
			<g>
				<defs>
					<rect id="SVGID_1_" x="23" y="22.8" width="262.3" height="254.4"/>
				</defs>
				<clipPath id="SVGID_00000110438651362986208310000000254436280477225915_">
					<use xlink:href="#SVGID_1_"  style="overflow:visible;"/>
				</clipPath>
				<path style="clip-path:url(#SVGID_00000110438651362986208310000000254436280477225915_);" d="M174.6,233
					c-14.6,11-30.2,20.1-46.6,27.4c-15.5-7.3-91.3-46.6-91.3-90.4V70.4h48.5c1.8,0,2.7-0.9,4.6-1.8l37.5-32c0.9-0.9,1.8-0.9,2.7,0
					l41.1,32c0.9,0.9,2.7,1.8,4.6,1.8h44.8v42.1c0,3.7,2.7,7.3,7.3,7.3s7.3-2.7,7.3-7.3V63.1c0-1.8-0.9-3.7-1.8-4.6
					c-0.9-0.9-2.7-1.8-4.6-1.8h-49.4l-38.4-30.2c-6.4-4.6-14.6-4.6-20.1,0L82.3,56.7H30.3c-3.7,0-7.3,2.7-7.3,7.3v106.9
					c0,57.6,98.6,103.2,102.3,105c0.9,0,1.8,0.9,2.7,0.9c0.9,0,1.8,0,2.7-0.9c18.3-8.2,35.7-18.3,51.2-30.2c2.7-1.8,3.7-6.4,1.8-9.1
					C182,232.1,178.3,231.2,174.6,233L174.6,233z"/>
			</g>
		</g>
		<g>
			<path d="M224.8,123.4c-32.9,0-60.3,27.4-60.3,60.3s27.4,60.3,60.3,60.3s60.3-27.4,60.3-60.3C285.2,149.9,258.6,123.4,224.8,123.4
				L224.8,123.4z M183.2,163.1c7.7-15.3,23.6-26,41.8-26c25.6,0,46.6,21,46.6,46.6s-21,46.6-46.6,46.6l0,0
				c-25.6,0-46.6-21-46.6-46.6C178.3,176.3,180,169.3,183.2,163.1"/>
			<path class="st1" d="M225.1,200.6c-2.4,0-4.3-2-4.3-4.3v-5.6c0-4.5,3.1-8.5,7.4-9.7c5.2-1.5,8.6-6.2,8.3-11.7
				c-0.4-5.6-5-10.3-10.6-10.6c-3.2-0.2-6.2,0.9-8.5,3.1c-2.3,2.2-3.6,5.1-3.6,8.3c0,2.4-2,4.3-4.3,4.3c-2.4,0-4.3-2-4.3-4.3
				c0-5.5,2.3-10.8,6.3-14.6c4.1-3.8,9.4-5.7,15-5.4c10,0.6,18.1,8.7,18.7,18.7c0.6,9.3-5.5,18-14.5,20.5c-0.7,0.2-1.1,0.8-1.1,1.4
				v5.6C229.4,198.6,227.5,200.6,225.1,200.6L225.1,200.6z"/>
			<path class="st1" d="M219.2,212.9c0,3.2,2.6,5.9,5.9,5.9c3.2,0,5.9-2.6,5.9-5.9c0-2.1-1.1-4.1-2.9-5.1c-1.8-1.1-4.1-1.1-5.9,0
				C220.3,208.7,219.2,210.7,219.2,212.9L219.2,212.9z"/>
		</g>
	</g>
	<g>
		<g>
			<path class="st2" d="M176,219.7c-4.1-3.8-5.9-9.3-6.3-14.7l-31.8-32l-3.2,1.4c-5.4,2.3-11.1,3.5-16.9,3.5
				C94.2,178,75,158.7,75,135c0-3.3,0.4-6.5,1.1-9.7l26.6,26.7c1.1,0.9,2.6,0.9,3.8,0.1l28-28.1c0,0,0,0,0-0.1
				c1.1-1.1,1.2-2.9,0.2-4.1l-26.5-26.6c3.2-0.8,6.4-1.1,9.6-1.1c23.6,0,42.7,19.3,42.7,43c0,5.9-1.2,11.7-3.5,17l-1.4,3.2l18,18.1
				c0.9-3.5,2.8-6.8,5-9.3l-11.1-11.2c2-5.7,3.1-11.7,3.1-17.8c0-29.3-23.7-53-52.8-53c-3.8,0-7.7,0.5-11.4,1.3
				c-2.1,0.5-3.8,1.1-3.8,1.1c-1,0.3-1.3,0.5-3,1.1c-1.7,0.6-1.8,0.6-2.8,0.9c-2.4,0.9-3.6,1.3-3.9,2c-0.8,1.4,0,3.8,0,3.8l0,0
				c0.8,1.7,8.8,9.9,29.6,29.7l-17.8,17.8l-29-29.1c-0.1,0-0.1,0-0.2-0.1c-1.2-1.2-3.2-1.2-4.4,0c-0.4,0.4-0.6,0.8-0.8,1.1
				c0,0.1-0.1,0-0.1,0l-1,2.3c-2.9,6.7-4.4,13.8-4.4,21.1c0,29.3,23.7,53,52.8,53c6.1,0,12-1.1,17.8-3.1l31.6,31.8
				c3.2,3.2,7.1,5.3,11.3,6.2c-0.8-0.9-1.4-1.9-2-2.9C176.3,219.9,176.2,219.8,176,219.7z"/>
		</g>
	</g>
	<circle class="st3" cx="224.8" cy="183.6" r="60.3"/>
	<ellipse cx="175.2" cy="213.8" rx="6.3" ry="6"/>
</g>
</svg>
