<?xml version="1.0" encoding="UTF-8"?>
<svg id="_图层_2" data-name="图层 2" xmlns="http://www.w3.org/2000/svg" xmlns:xlink="http://www.w3.org/1999/xlink" viewBox="0 0 262.3 254.4">
  <defs>
    <style>
      .cls-1, .cls-2 {
        stroke-width: 0px;
      }

      .cls-1, .cls-3, .cls-4 {
        fill: #000;
      }

      .cls-2 {
        fill: none;
      }

      .cls-3 {
        stroke-width: 2px;
      }

      .cls-3, .cls-4 {
        stroke: #000;
        stroke-miterlimit: 10;
      }

      .cls-5 {
        clip-path: url(#clippath);
      }

      .cls-4 {
        stroke-width: 4px;
      }
    </style>
    <clipPath id="clippath">
      <rect class="cls-2" width="262.3" height="254.4"/>
    </clipPath>
  </defs>
  <g id="_图层_1-2" data-name="图层 1">
    <g>
      <g>
        <g class="cls-5">
          <path class="cls-1" d="M151.6,210.2c-14.6,11-30.2,20.1-46.6,27.4-15.5-7.3-91.3-46.6-91.3-90.4V47.6h48.5c1.8,0,2.7-.9,4.6-1.8L104.3,13.8c.9-.9,1.8-.9,2.7,0l41.1,32c.9.9,2.7,1.8,4.6,1.8h44.8v42.1c0,3.7,2.7,7.3,7.3,7.3s7.3-2.7,7.3-7.3v-49.4c0-1.8-.9-3.7-1.8-4.6-.9-.9-2.7-1.8-4.6-1.8h-49.4L117.9,3.7c-6.4-4.6-14.6-4.6-20.1,0l-38.5,30.2H7.3c-3.7,0-7.3,2.7-7.3,7.3v106.9c0,57.6,98.6,103.2,102.3,105,.9,0,1.8.9,2.7.9s1.8,0,2.7-.9c18.3-8.2,35.7-18.3,51.2-30.2,2.7-1.8,3.7-6.4,1.8-9.1-1.7-4.5-5.4-5.4-9.1-3.6h0Z"/>
        </g>
        <g>
          <path class="cls-1" d="M201.8,100.6c-32.9,0-60.3,27.4-60.3,60.3s27.4,60.3,60.3,60.3,60.3-27.4,60.3-60.3c.1-33.8-26.5-60.3-60.3-60.3h0ZM160.2,140.3c7.7-15.3,23.6-26,41.8-26,25.6,0,46.6,21,46.6,46.6s-21,46.6-46.6,46.6h0c-25.6,0-46.6-21-46.6-46.6-.1-7.4,1.6-14.4,4.8-20.6"/>
          <path class="cls-4" d="M202.1,177.8c-2.4,0-4.3-2-4.3-4.3v-5.6c0-4.5,3.1-8.5,7.4-9.7,5.2-1.5,8.6-6.2,8.3-11.7-.4-5.6-5-10.3-10.6-10.6-3.2-.2-6.2.9-8.5,3.1-2.3,2.2-3.6,5.1-3.6,8.3,0,2.4-2,4.3-4.3,4.3s-4.3-2-4.3-4.3c0-5.5,2.3-10.8,6.3-14.6,4.1-3.8,9.4-5.7,15-5.4,10,.6,18.1,8.7,18.7,18.7.6,9.3-5.5,18-14.5,20.5-.7.2-1.1.8-1.1,1.4v5.6c-.2,2.3-2.1,4.3-4.5,4.3h0Z"/>
          <path class="cls-4" d="M196.2,190.1c0,3.2,2.6,5.9,5.9,5.9s5.9-2.6,5.9-5.9c0-2.1-1.1-4.1-2.9-5.1-1.8-1.1-4.1-1.1-5.9,0-1.9.9-3,2.9-3,5.1h0Z"/>
        </g>
      </g>
      <path class="cls-3" d="M153,196.9c-4.1-3.8-5.9-9.3-6.3-14.7l-31.8-32-3.2,1.4c-5.4,2.3-11.1,3.5-16.9,3.5-23.6.1-42.8-19.2-42.8-42.9,0-3.3.4-6.5,1.1-9.7l26.6,26.7c1.1.9,2.6.9,3.8.1l28-28.1v-.1c1.1-1.1,1.2-2.9.2-4.1l-26.5-26.6c3.2-.8,6.4-1.1,9.6-1.1,23.6,0,42.7,19.3,42.7,43,0,5.9-1.2,11.7-3.5,17l-1.4,3.2,18,18.1c.9-3.5,2.8-6.8,5-9.3l-11.1-11.2c2-5.7,3.1-11.7,3.1-17.8,0-29.3-23.7-53-52.8-53-3.8,0-7.7.5-11.4,1.3-2.1.5-3.8,1.1-3.8,1.1-1,.3-1.3.5-3,1.1s-1.8.6-2.8.9c-2.4.9-3.6,1.3-3.9,2-.8,1.4,0,3.8,0,3.8h0c.8,1.7,8.8,9.9,29.6,29.7l-17.8,17.8-29-29.1q-.1,0-.2-.1c-1.2-1.2-3.2-1.2-4.4,0-.4.4-.6.8-.8,1.1,0,.1-.1,0-.1,0l-1,2.3c-2.9,6.7-4.4,13.8-4.4,21.1,0,29.3,23.7,53,52.8,53,6.1,0,12-1.1,17.8-3.1l31.6,31.8c3.2,3.2,7.1,5.3,11.3,6.2-.8-.9-1.4-1.9-2-2.9,0-.2-.1-.3-.3-.4Z"/>
      <circle class="cls-2" cx="201.8" cy="160.8" r="60.3"/>
      <ellipse class="cls-1" cx="152.2" cy="191" rx="6.3" ry="6"/>
    </g>
  </g>
</svg>