<svg width="252" height="230" viewBox="0 0 252 230" fill="none" xmlns="http://www.w3.org/2000/svg">
<rect width="251.427" height="229.564" rx="12.5758" fill="#FBFAF4"/>
<path d="M53.1431 172.262V159.205H55.2437V170.378H61.5276V172.262H53.1431ZM65.405 172.407C63.5035 172.407 62.1634 171.302 62.1634 169.708C62.1634 168.078 63.3405 167.064 65.3869 166.793L67.397 166.521C67.9403 166.449 68.2119 166.195 68.2119 165.742C68.2119 164.927 67.4694 164.294 66.238 164.294C65.0971 164.294 64.2641 164.873 64.1736 165.923H62.2359C62.4532 163.968 63.9563 162.718 66.238 162.718C68.6465 162.718 70.1858 164.094 70.1858 166.195V169.926C70.1858 170.469 70.4212 170.668 70.8015 170.668C70.9283 170.668 71.1094 170.632 71.1094 170.632V172.262C71.1094 172.262 70.6386 172.37 70.1858 172.37C69.2079 172.37 68.5198 171.9 68.4473 170.885C67.9946 171.827 66.8175 172.407 65.405 172.407ZM65.7128 170.867C67.3246 170.867 68.2662 169.745 68.2662 168.133V167.789L65.7128 168.205C64.6625 168.368 64.1373 168.839 64.1373 169.636C64.1373 170.36 64.7712 170.867 65.7128 170.867ZM77.2323 172.407C75.9284 172.407 74.8238 171.809 74.3891 171.048V172.262H72.4152V159.06H74.3891V164.058C74.9505 163.261 76.0733 162.718 77.2504 162.718C80.0392 162.718 81.7053 164.728 81.7053 167.553C81.7053 170.378 80.0573 172.407 77.2323 172.407ZM76.9607 170.686C78.6086 170.686 79.6951 169.419 79.6951 167.553C79.6951 165.67 78.6086 164.439 76.9607 164.439C75.3489 164.439 74.2443 165.67 74.2443 167.553C74.2443 169.437 75.3489 170.686 76.9607 170.686ZM83.0008 167.734V166.014H88.7595V167.734H83.0008ZM90.7586 172.262V159.205H99.2337V161.052H92.8593V164.42H98.0023V166.268H92.8593V170.396H99.4329V172.262H90.7586ZM101.455 172.262V164.529H99.789V162.863H101.455V161.921C101.455 159.911 102.759 158.933 104.516 158.933C104.914 158.933 105.33 158.97 105.711 159.06V160.78C105.439 160.708 105.077 160.654 104.715 160.654C104.027 160.654 103.411 161.125 103.411 162.084V162.863H105.711V164.529H103.411V172.262H101.455ZM107.786 172.262V164.529H106.12V162.863H107.786V161.921C107.786 159.911 109.09 158.933 110.847 158.933C111.245 158.933 111.662 158.97 112.042 159.06V160.78C111.77 160.708 111.408 160.654 111.046 160.654C110.358 160.654 109.742 161.125 109.742 162.084V162.863H112.042V164.529H109.742V172.262H107.786ZM112.388 167.553C112.388 165.018 113.964 162.718 116.934 162.718C119.849 162.718 121.388 164.891 121.37 167.227C121.37 167.59 121.334 168.024 121.334 168.024H114.344C114.525 169.745 115.557 170.722 117.079 170.722C118.237 170.722 119.161 170.179 119.378 169.219H121.316C120.99 171.266 119.27 172.407 117.024 172.407C114.054 172.407 112.388 170.107 112.388 167.553ZM114.435 166.467H119.252C119.161 165.199 118.346 164.276 116.934 164.276C115.612 164.276 114.724 165.09 114.435 166.467ZM127.14 172.407C124.406 172.407 122.504 170.451 122.504 167.553C122.504 164.674 124.406 162.718 127.14 162.718C129.368 162.718 131.052 163.931 131.378 166.249H129.44C129.241 165.181 128.336 164.439 127.177 164.439C125.565 164.439 124.514 165.67 124.514 167.553C124.514 169.455 125.583 170.686 127.177 170.686C128.354 170.686 129.223 169.998 129.44 168.803H131.378C130.998 171.248 129.35 172.407 127.14 172.407ZM137.824 162.863V164.529H135.542V169.256C135.542 170.197 136.086 170.686 136.882 170.686C137.281 170.686 137.679 170.578 137.824 170.541V172.262C137.661 172.316 137.19 172.407 136.683 172.407C134.836 172.407 133.569 171.447 133.569 169.419V164.529H131.902V162.863H133.569V160.056H135.542V162.863H137.824ZM139.281 172.262V162.863H141.255V172.262H139.281ZM139.191 159.06H141.382V161.288H139.191V159.06ZM145.883 172.262L142.442 162.863H144.452L146.843 169.998L149.251 162.863H151.225L147.802 172.262H145.883ZM151.896 167.553C151.896 165.018 153.472 162.718 156.441 162.718C159.357 162.718 160.896 164.891 160.878 167.227C160.878 167.59 160.842 168.024 160.842 168.024H153.852C154.033 169.745 155.065 170.722 156.586 170.722C157.745 170.722 158.669 170.179 158.886 169.219H160.824C160.498 171.266 158.778 172.407 156.532 172.407C153.562 172.407 151.896 170.107 151.896 167.553ZM153.942 166.467H158.759C158.669 165.199 157.854 164.276 156.441 164.276C155.119 164.276 154.232 165.09 153.942 166.467ZM162.519 172.262V162.863H164.493V164.457C165.145 163.388 166.268 162.718 167.608 162.718C169.6 162.718 170.994 164.04 170.994 166.068V172.262H169.02V166.503C169.02 165.326 168.278 164.493 167.083 164.493C165.471 164.493 164.493 165.869 164.493 168.133V172.262H162.519ZM172.516 167.553C172.516 165.018 174.092 162.718 177.062 162.718C179.977 162.718 181.517 164.891 181.499 167.227C181.499 167.59 181.462 168.024 181.462 168.024H174.472C174.653 169.745 175.686 170.722 177.207 170.722C178.366 170.722 179.289 170.179 179.507 169.219H181.444C181.118 171.266 179.398 172.407 177.152 172.407C174.183 172.407 172.516 170.107 172.516 167.553ZM174.563 166.467H179.38C179.289 165.199 178.474 164.276 177.062 164.276C175.74 164.276 174.853 165.09 174.563 166.467ZM186.49 172.407C184.136 172.407 182.56 171.012 182.47 169.074H184.407C184.462 169.889 185.258 170.704 186.49 170.704C187.522 170.704 188.228 170.215 188.228 169.563C188.228 168.93 187.776 168.622 187.069 168.459L185.512 168.097C184.136 167.789 182.886 167.119 182.886 165.362C182.886 163.895 184.226 162.718 186.309 162.718C188.301 162.718 189.822 163.823 190.057 165.634H188.12C188.011 164.801 187.196 164.33 186.309 164.33C185.458 164.33 184.86 164.728 184.86 165.362C184.86 165.869 185.295 166.195 185.965 166.358L187.522 166.702C189.025 167.028 190.238 167.626 190.238 169.509C190.238 171.139 188.753 172.407 186.49 172.407ZM195.191 172.407C192.837 172.407 191.261 171.012 191.171 169.074H193.108C193.163 169.889 193.959 170.704 195.191 170.704C196.223 170.704 196.929 170.215 196.929 169.563C196.929 168.93 196.477 168.622 195.77 168.459L194.213 168.097C192.837 167.789 191.587 167.119 191.587 165.362C191.587 163.895 192.927 162.718 195.01 162.718C197.002 162.718 198.523 163.823 198.758 165.634H196.821C196.712 164.801 195.897 164.33 195.01 164.33C194.159 164.33 193.561 164.728 193.561 165.362C193.561 165.869 193.996 166.195 194.666 166.358L196.223 166.702C197.726 167.028 198.939 167.626 198.939 169.509C198.939 171.139 197.454 172.407 195.191 172.407ZM84.9523 194.407C81.5659 194.407 78.5417 192.197 78.5417 187.724C78.5417 183.269 81.6202 181.06 84.9523 181.06C87.9222 181.06 90.2764 182.708 90.6567 185.642H88.4474C88.1758 183.976 86.7633 182.907 84.9342 182.907C82.5076 182.907 80.6786 184.628 80.6786 187.724C80.6786 190.839 82.5076 192.541 84.9342 192.541C86.7814 192.541 88.1396 191.545 88.4474 189.825H90.6748C90.1859 192.849 87.8317 194.407 84.9523 194.407ZM91.6793 189.553C91.6793 187.018 93.2548 184.718 96.2248 184.718C99.1403 184.718 100.68 186.891 100.662 189.227C100.662 189.59 100.625 190.024 100.625 190.024H93.6351C93.8162 191.745 94.8485 192.722 96.3696 192.722C97.5286 192.722 98.4522 192.179 98.6695 191.219H100.607C100.281 193.266 98.5608 194.407 96.3153 194.407C93.3454 194.407 91.6793 192.107 91.6793 189.553ZM93.7257 188.467H98.5427C98.4522 187.199 97.6373 186.276 96.2248 186.276C94.9028 186.276 94.0154 187.09 93.7257 188.467ZM107.862 186.656C107.717 186.62 107.373 186.547 106.92 186.547C105.544 186.547 104.276 187.815 104.276 190.749V194.262H102.303V184.863H104.276V186.656C104.711 185.533 105.979 184.718 107.174 184.718C107.572 184.718 107.771 184.772 107.862 184.772V186.656ZM114.18 184.863V186.529H111.898V191.256C111.898 192.197 112.441 192.686 113.238 192.686C113.636 192.686 114.035 192.578 114.18 192.541V194.262C114.017 194.316 113.546 194.407 113.039 194.407C111.192 194.407 109.924 193.447 109.924 191.419V186.529H108.258V184.863H109.924V182.056H111.898V184.863H114.18ZM115.637 194.262V184.863H117.611V194.262H115.637ZM115.546 181.06H117.738V183.288H115.546V181.06ZM120.572 194.262V186.529H118.906V184.863H120.572V183.921C120.572 181.911 121.876 180.933 123.633 180.933C124.031 180.933 124.448 180.97 124.828 181.06V182.78C124.556 182.708 124.194 182.654 123.832 182.654C123.144 182.654 122.528 183.125 122.528 184.084V184.863H124.828V186.529H122.528V194.262H120.572ZM125.982 194.262V184.863H127.956V194.262H125.982ZM125.892 181.06H128.083V183.288H125.892V181.06ZM134.232 194.407C131.497 194.407 129.596 192.451 129.596 189.553C129.596 186.674 131.497 184.718 134.232 184.718C136.459 184.718 138.143 185.931 138.469 188.249H136.532C136.333 187.181 135.427 186.439 134.268 186.439C132.656 186.439 131.606 187.67 131.606 189.553C131.606 191.455 132.674 192.686 134.268 192.686C135.445 192.686 136.314 191.998 136.532 190.803H138.469C138.089 193.248 136.441 194.407 134.232 194.407ZM142.705 194.407C140.804 194.407 139.464 193.302 139.464 191.708C139.464 190.078 140.641 189.064 142.687 188.793L144.697 188.521C145.24 188.449 145.512 188.195 145.512 187.742C145.512 186.927 144.77 186.294 143.538 186.294C142.397 186.294 141.564 186.873 141.474 187.923H139.536C139.753 185.968 141.256 184.718 143.538 184.718C145.947 184.718 147.486 186.094 147.486 188.195V191.926C147.486 192.469 147.721 192.668 148.102 192.668C148.228 192.668 148.41 192.632 148.41 192.632V194.262C148.41 194.262 147.939 194.37 147.486 194.37C146.508 194.37 145.82 193.9 145.748 192.885C145.295 193.827 144.118 194.407 142.705 194.407ZM143.013 192.867C144.625 192.867 145.566 191.745 145.566 190.133V189.789L143.013 190.205C141.963 190.368 141.438 190.839 141.438 191.636C141.438 192.36 142.071 192.867 143.013 192.867ZM154.519 184.863V186.529H152.237V191.256C152.237 192.197 152.78 192.686 153.577 192.686C153.975 192.686 154.374 192.578 154.519 192.541V194.262C154.356 194.316 153.885 194.407 153.378 194.407C151.531 194.407 150.263 193.447 150.263 191.419V186.529H148.597V184.863H150.263V182.056H152.237V184.863H154.519ZM155.203 189.553C155.203 187.018 156.779 184.718 159.748 184.718C162.664 184.718 164.203 186.891 164.185 189.227C164.185 189.59 164.149 190.024 164.149 190.024H157.159C157.34 191.745 158.372 192.722 159.893 192.722C161.052 192.722 161.976 192.179 162.193 191.219H164.131C163.805 193.266 162.085 194.407 159.839 194.407C156.869 194.407 155.203 192.107 155.203 189.553ZM157.249 188.467H162.066C161.976 187.199 161.161 186.276 159.748 186.276C158.427 186.276 157.539 187.09 157.249 188.467ZM169.176 194.407C166.822 194.407 165.247 193.012 165.156 191.074H167.094C167.148 191.889 167.945 192.704 169.176 192.704C170.209 192.704 170.915 192.215 170.915 191.563C170.915 190.93 170.462 190.622 169.756 190.459L168.199 190.097C166.822 189.789 165.573 189.119 165.573 187.362C165.573 185.895 166.913 184.718 168.995 184.718C170.987 184.718 172.509 185.823 172.744 187.634H170.806C170.698 186.801 169.883 186.33 168.995 186.33C168.144 186.33 167.547 186.728 167.547 187.362C167.547 187.869 167.981 188.195 168.651 188.358L170.209 188.702C171.712 189.028 172.925 189.626 172.925 191.509C172.925 193.139 171.44 194.407 169.176 194.407Z" fill="#190A0A"/>
<path d="M107.171 91.7869C106.108 90.1092 104.761 88.5732 103.248 87.2263C101.169 85.3831 98.8295 83.8944 96.4665 82.4766C94.3634 81.2242 92.0004 79.8536 90.299 78.0341C89.8264 77.5378 88.7866 76.4036 88.2195 74.5841C87.1325 71.0868 87.9832 65.9353 91.9295 64.8956C93.4891 64.4703 95.2377 64.6357 96.6555 65.4391C98.4751 66.4788 99.5384 68.5819 99.3257 70.685V74.2532H109.983C110.148 74.2532 109.77 68.3456 109.699 67.7785C109.416 65.6281 108.872 63.5014 107.691 61.6819C105.044 57.6411 99.8456 55.6798 95.2377 55.538C91.126 55.3962 86.7071 56.5305 83.1862 58.7045C80.8232 60.1696 79.1927 62.4853 78.2475 65.1083C76.9006 68.8891 76.4043 73.308 77.2077 77.2543C78.4129 83.2091 82.4064 87.3917 87.2743 90.629C89.5428 92.1414 91.9058 93.5119 94.1034 95.1188C96.0884 96.5602 97.8607 98.0489 98.6405 100.506C99.7275 104.004 98.8768 109.155 94.9305 110.195C93.3709 110.62 91.6223 110.455 90.2044 109.651C88.3849 108.612 87.3215 106.509 87.5342 104.406V100.837H76.8769C76.7115 100.837 77.0896 106.745 77.1605 107.312C77.4441 109.462 77.9875 111.589 79.169 113.409C81.8156 117.449 87.0144 119.411 91.6223 119.553C95.7339 119.694 100.153 118.56 103.674 116.386C106.037 114.921 107.667 112.605 108.612 109.982C109.959 106.201 110.456 101.783 109.652 97.8363C109.203 95.6387 108.353 93.6065 107.195 91.7869H107.171Z" fill="#3F3636"/>
<path d="M185.013 91.7869C183.949 90.1092 182.602 88.5732 181.09 87.2263C179.011 85.3831 176.671 83.8944 174.308 82.4766C172.205 81.2242 169.842 79.8536 168.141 78.0341C167.668 77.5378 166.628 76.4036 166.061 74.5841C164.974 71.0868 165.825 65.9353 169.771 64.8956C171.331 64.4703 173.08 64.6357 174.497 65.4391C176.317 66.4788 177.38 68.5819 177.168 70.685V74.2532H187.825C187.99 74.2532 187.612 68.3456 187.541 67.7785C187.258 65.6281 186.714 63.5014 185.533 61.6819C182.886 57.6411 177.687 55.6798 173.08 55.538C168.968 55.3962 164.549 56.5305 161.028 58.7045C158.665 60.1696 157.034 62.4853 156.089 65.1083C154.742 68.8891 154.246 73.308 155.05 77.2543C156.255 83.2091 160.248 87.3917 165.116 90.629C167.385 92.1414 169.748 93.5119 171.945 95.1188C173.93 96.5602 175.702 98.0489 176.482 100.506C177.569 104.004 176.719 109.155 172.772 110.195C171.213 110.62 169.464 110.455 168.046 109.651C166.227 108.612 165.163 106.509 165.376 104.406V100.837H154.719C154.553 100.837 154.931 106.745 155.002 107.312C155.286 109.462 155.829 111.589 157.011 113.409C159.657 117.449 164.856 119.411 169.464 119.553C173.576 119.694 177.995 118.56 181.515 116.386C183.879 114.921 185.509 112.605 186.454 109.982C187.801 106.201 188.297 101.783 187.494 97.8363C187.045 95.6387 186.194 93.6065 185.036 91.7869H185.013Z" fill="#3F3636"/>
<path d="M133.396 95.9541H139.162V110.983H131.671V120.081H139.162H150.339V110.983V95.9541V91.4171V86.8564H133.396V95.9541Z" fill="#3F3636"/>
<path d="M132.387 56.2043H132.292C122.391 56.2043 114.357 64.2386 114.357 74.1397V102.142C114.357 111.83 122.06 119.723 131.654 120.053V110.932C128.204 110.601 125.51 107.695 125.51 104.15V72.0839C125.51 68.3266 128.559 65.2784 132.316 65.2784C136.073 65.2784 139.122 68.3266 139.122 72.0839V76.1247H150.299V74.1161C150.299 64.215 142.264 56.1807 132.363 56.1807L132.387 56.2043Z" fill="#3F3636"/>
<path d="M188.105 43.7266H187.608V133.522H188.105V43.7266Z" fill="#3F3636"/>
<path d="M209.893 119.222H42.165V119.883H209.893V119.222Z" fill="#3F3636"/>
</svg>
