<svg width="252" height="230" viewBox="0 0 252 230" fill="none" xmlns="http://www.w3.org/2000/svg">
<rect x="0.426758" width="251.427" height="229.564" rx="12.5758" fill="#FBFAF4"/>
<circle cx="126.499" cy="96.423" r="41.1811" stroke="#3F3636" stroke-width="1.04036"/>
<circle cx="126.498" cy="96.4221" r="63.5211" stroke="#3F3636" stroke-width="1.04036"/>
<path d="M119.117 79.4697C109.512 79.5488 101.738 87.3619 101.738 96.9801C101.738 106.598 109.499 114.411 119.117 114.49L121.396 114.464V108.864H119.117C112.608 108.785 107.364 103.489 107.364 96.9669C107.364 90.445 112.621 85.1484 119.117 85.0694H121.396V79.4697" fill="#3F3636"/>
<path d="M148.444 79.4697C138.839 79.5488 131.065 87.3619 131.065 96.9801C131.065 106.598 138.826 114.411 148.444 114.49L150.723 114.464V108.864H148.444C141.935 108.785 136.691 103.489 136.691 96.9669C136.691 90.445 141.948 85.1484 148.444 85.0693H150.723V79.4697L148.444 79.4434V79.4697Z" fill="#3F3636"/>
<path d="M147.295 94.1338H135.872V99.6544H147.295V94.1338Z" fill="#3F3636"/>
<path d="M125.739 41.6256C125.822 41.3721 126.18 41.3721 126.263 41.6256L127.165 44.4036C127.202 44.5169 127.308 44.5937 127.427 44.5937H130.348C130.614 44.5937 130.725 44.9347 130.51 45.0914L128.146 46.8083C128.05 46.8783 128.01 47.0025 128.046 47.1159L128.949 49.8939C129.031 50.1473 128.741 50.3581 128.526 50.2015L126.163 48.4846C126.066 48.4145 125.936 48.4145 125.839 48.4846L123.476 50.2015C123.26 50.3581 122.97 50.1473 123.053 49.8939L123.955 47.1159C123.992 47.0025 123.952 46.8783 123.855 46.8083L121.492 45.0914C121.277 44.9347 121.388 44.5937 121.654 44.5937H124.575C124.694 44.5937 124.8 44.5169 124.837 44.4036L125.739 41.6256Z" fill="#3F3636"/>
<path d="M157.513 50.065C157.595 49.8116 157.954 49.8116 158.036 50.065L158.939 52.843C158.975 52.9564 159.081 53.0331 159.2 53.0331H162.121C162.388 53.0331 162.499 53.3742 162.283 53.5308L159.92 55.2477C159.823 55.3178 159.783 55.442 159.82 55.5553L160.723 58.3333C160.805 58.5868 160.515 58.7976 160.299 58.6409L157.936 56.924C157.84 56.854 157.709 56.854 157.613 56.924L155.25 58.6409C155.034 58.7976 154.744 58.5868 154.826 58.3333L155.729 55.5553C155.766 55.442 155.725 55.3178 155.629 55.2477L153.266 53.5308C153.05 53.3742 153.161 53.0331 153.427 53.0331H156.348C156.468 53.0331 156.573 52.9564 156.61 52.843L157.513 50.065Z" fill="#3F3636"/>
<path d="M175.384 74.8873C175.466 74.6338 175.825 74.6338 175.907 74.8873L176.81 77.6653C176.847 77.7787 176.952 77.8554 177.071 77.8554H179.992C180.259 77.8554 180.37 78.1964 180.154 78.3531L177.791 80.07C177.695 80.1401 177.654 80.2642 177.691 80.3776L178.594 83.1556C178.676 83.4091 178.386 83.6198 178.17 83.4632L175.807 81.7463C175.711 81.6762 175.58 81.6762 175.484 81.7463L173.121 83.4632C172.905 83.6198 172.615 83.4091 172.697 83.1556L173.6 80.3776C173.637 80.2642 173.596 80.1401 173.5 80.07L171.137 78.3531C170.921 78.1964 171.032 77.8554 171.299 77.8554H174.22C174.339 77.8554 174.444 77.7787 174.481 77.6653L175.384 74.8873Z" fill="#3F3636"/>
<path d="M75.104 77.3687C75.1864 77.1153 75.545 77.1153 75.6273 77.3687L76.5299 80.1468C76.5668 80.2601 76.6724 80.3369 76.7916 80.3369H79.7126C79.9791 80.3369 80.0899 80.6779 79.8743 80.8345L77.5112 82.5514C77.4147 82.6215 77.3744 82.7457 77.4112 82.859L78.3139 85.637C78.3962 85.8905 78.1061 86.1013 77.8905 85.9446L75.5274 84.2277C75.431 84.1577 75.3004 84.1577 75.204 84.2277L72.8408 85.9446C72.6252 86.1013 72.3351 85.8905 72.4175 85.637L73.3201 82.859C73.357 82.7457 73.3166 82.6215 73.2202 82.5514L70.8571 80.8345C70.6415 80.6779 70.7523 80.3369 71.0188 80.3369H73.9397C74.0589 80.3369 74.1646 80.2601 74.2014 80.1468L75.104 77.3687Z" fill="#3F3636"/>
<path d="M175.881 108.15C175.963 107.897 176.322 107.897 176.404 108.15L177.307 110.928C177.344 111.041 177.449 111.118 177.568 111.118H180.489C180.756 111.118 180.867 111.459 180.651 111.616L178.288 113.333C178.192 113.403 178.151 113.527 178.188 113.64L179.091 116.418C179.173 116.672 178.883 116.883 178.667 116.726L176.304 115.009C176.208 114.939 176.077 114.939 175.981 115.009L173.618 116.726C173.402 116.883 173.112 116.672 173.194 116.418L174.097 113.64C174.134 113.527 174.093 113.403 173.997 113.333L171.634 111.616C171.418 111.459 171.529 111.118 171.796 111.118H174.717C174.836 111.118 174.941 111.041 174.978 110.928L175.881 108.15Z" fill="#3F3636"/>
<path d="M75.5972 110.631C75.6795 110.378 76.0381 110.378 76.1205 110.631L77.0231 113.409C77.0599 113.523 77.1656 113.6 77.2848 113.6H80.2057C80.4722 113.6 80.5831 113.941 80.3674 114.097L78.0043 115.814C77.9079 115.884 77.8676 116.008 77.9044 116.122L78.807 118.9C78.8894 119.153 78.5993 119.364 78.3837 119.207L76.0205 117.49C75.9241 117.42 75.7936 117.42 75.6971 117.49L73.334 119.207C73.1184 119.364 72.8283 119.153 72.9107 118.9L73.8133 116.122C73.8501 116.008 73.8098 115.884 73.7133 115.814L71.3502 114.097C71.1346 113.941 71.2454 113.6 71.5119 113.6H74.4329C74.5521 113.6 74.6577 113.523 74.6946 113.409L75.5972 110.631Z" fill="#3F3636"/>
<path d="M157.513 133.467C157.595 133.214 157.954 133.214 158.036 133.467L158.939 136.245C158.975 136.359 159.081 136.435 159.2 136.435H162.121C162.388 136.435 162.499 136.777 162.283 136.933L159.92 138.65C159.823 138.72 159.783 138.844 159.82 138.958L160.723 141.736C160.805 141.989 160.515 142.2 160.299 142.043L157.936 140.326C157.84 140.256 157.709 140.256 157.613 140.326L155.25 142.043C155.034 142.2 154.744 141.989 154.826 141.736L155.729 138.958C155.766 138.844 155.725 138.72 155.629 138.65L153.266 136.933C153.05 136.777 153.161 136.435 153.427 136.435H156.348C156.468 136.435 156.573 136.359 156.61 136.245L157.513 133.467Z" fill="#3F3636"/>
<path d="M93.4722 50.065C93.5545 49.8116 93.9131 49.8116 93.9955 50.065L94.8981 52.843C94.9349 52.9564 95.0406 53.0331 95.1598 53.0331H98.0807C98.3472 53.0331 98.4581 53.3742 98.2424 53.5308L95.8793 55.2477C95.7829 55.3178 95.7426 55.442 95.7794 55.5553L96.682 58.3333C96.7644 58.5868 96.4743 58.7976 96.2587 58.6409L93.8955 56.924C93.7991 56.854 93.6686 56.854 93.5721 56.924L91.209 58.6409C90.9934 58.7976 90.7033 58.5868 90.7857 58.3333L91.6883 55.5553C91.7251 55.442 91.6848 55.3178 91.5883 55.2477L89.2252 53.5308C89.0096 53.3742 89.1204 53.0331 89.3869 53.0331H92.3079C92.4271 53.0331 92.5327 52.9564 92.5696 52.843L93.4722 50.065Z" fill="#3F3636"/>
<path d="M93.4722 133.467C93.5545 133.214 93.9131 133.214 93.9955 133.467L94.8981 136.245C94.9349 136.359 95.0406 136.435 95.1598 136.435H98.0807C98.3472 136.435 98.4581 136.777 98.2424 136.933L95.8793 138.65C95.7829 138.72 95.7426 138.844 95.7794 138.958L96.682 141.736C96.7644 141.989 96.4743 142.2 96.2587 142.043L93.8955 140.326C93.7991 140.256 93.6686 140.256 93.5721 140.326L91.209 142.043C90.9934 142.2 90.7033 141.989 90.7857 141.736L91.6883 138.958C91.7251 138.844 91.6848 138.72 91.5883 138.65L89.2252 136.933C89.0096 136.777 89.1204 136.435 89.3869 136.435H92.3079C92.4271 136.435 92.5327 136.359 92.5696 136.245L93.4722 133.467Z" fill="#3F3636"/>
<path d="M125.739 143.894C125.822 143.641 126.18 143.641 126.263 143.894L127.165 146.672C127.202 146.786 127.308 146.862 127.427 146.862H130.348C130.614 146.862 130.725 147.203 130.51 147.36L128.146 149.077C128.05 149.147 128.01 149.271 128.046 149.384L128.949 152.162C129.031 152.416 128.741 152.627 128.526 152.47L126.163 150.753C126.066 150.683 125.936 150.683 125.839 150.753L123.476 152.47C123.26 152.627 122.97 152.416 123.053 152.162L123.955 149.384C123.992 149.271 123.952 149.147 123.855 149.077L121.492 147.36C121.277 147.203 121.388 146.862 121.654 146.862H124.575C124.694 146.862 124.8 146.786 124.837 146.672L125.739 143.894Z" fill="#3F3636"/>
<path d="M39.2059 191V177.943H47.681V179.79H41.3065V183.159H46.4495V185.006H41.3065V189.135H47.8802V191H39.2059ZM57.5427 181.601V191H55.5688V189.406C54.9169 190.475 53.7941 191.145 52.454 191.145C50.462 191.145 49.0676 189.823 49.0676 187.795V181.601H51.0415V187.36C51.0415 188.537 51.784 189.37 52.9792 189.37C54.5909 189.37 55.5688 187.994 55.5688 185.73V181.601H57.5427ZM65.2401 183.394C65.0952 183.358 64.7512 183.285 64.2984 183.285C62.9221 183.285 61.6545 184.553 61.6545 187.487V191H59.6806V181.601H61.6545V183.394C62.0891 182.271 63.3568 181.456 64.552 181.456C64.9504 181.456 65.1496 181.511 65.2401 181.511V183.394ZM70.2131 191.145C67.4424 191.145 65.4866 189.099 65.4866 186.292C65.4866 183.503 67.4424 181.456 70.2131 181.456C72.9295 181.456 74.9396 183.485 74.9396 186.292C74.9396 189.117 72.9295 191.145 70.2131 191.145ZM70.2131 189.424C71.8067 189.424 72.9113 188.121 72.9113 186.292C72.9113 184.463 71.7886 183.177 70.2131 183.177C68.5651 183.177 67.4967 184.481 67.4967 186.292C67.4967 188.121 68.5651 189.424 70.2131 189.424ZM76.5519 194.386V181.601H78.5258V182.815C79.0328 182.036 80.1737 181.456 81.4414 181.456C84.194 181.456 85.86 183.485 85.86 186.292C85.86 189.117 84.1034 191.145 81.3146 191.145C80.1918 191.145 79.1053 190.638 78.5258 189.895V194.386H76.5519ZM81.1154 189.424C82.7452 189.424 83.8318 188.175 83.8318 186.292C83.8318 184.408 82.7452 183.177 81.1154 183.177C79.4856 183.177 78.399 184.408 78.399 186.292C78.399 188.175 79.4856 189.424 81.1154 189.424ZM86.9382 186.292C86.9382 183.756 88.5137 181.456 91.4836 181.456C94.3992 181.456 95.9385 183.63 95.9204 185.966C95.9204 186.328 95.8842 186.762 95.8842 186.762H88.894C89.0751 188.483 90.1073 189.461 91.6285 189.461C92.7875 189.461 93.7111 188.917 93.9284 187.958H95.8661C95.5401 190.004 93.8197 191.145 91.5742 191.145C88.6043 191.145 86.9382 188.845 86.9382 186.292ZM88.9845 185.205H93.8016C93.7111 183.937 92.8961 183.014 91.4836 183.014C90.1616 183.014 89.2743 183.829 88.9845 185.205ZM100.278 191.145C98.3763 191.145 97.0362 190.04 97.0362 188.447C97.0362 186.817 98.2133 185.803 100.26 185.531L102.27 185.259C102.813 185.187 103.085 184.933 103.085 184.481C103.085 183.666 102.342 183.032 101.111 183.032C99.9699 183.032 99.1369 183.611 99.0463 184.662H97.1087C97.326 182.706 98.829 181.456 101.111 181.456C103.519 181.456 105.059 182.833 105.059 184.933V188.664C105.059 189.207 105.294 189.406 105.674 189.406C105.801 189.406 105.982 189.37 105.982 189.37V191C105.982 191 105.511 191.109 105.059 191.109C104.081 191.109 103.393 190.638 103.32 189.624C102.867 190.565 101.69 191.145 100.278 191.145ZM100.586 189.606C102.197 189.606 103.139 188.483 103.139 186.871V186.527L100.586 186.944C99.5353 187.107 99.0101 187.577 99.0101 188.374C99.0101 189.099 99.6439 189.606 100.586 189.606ZM107.288 191V181.601H109.262V183.195C109.914 182.126 111.037 181.456 112.377 181.456C114.369 181.456 115.763 182.778 115.763 184.807V191H113.789V185.241C113.789 184.064 113.047 183.231 111.852 183.231C110.24 183.231 109.262 184.607 109.262 186.871V191H107.288ZM127.553 191.145C124.167 191.145 121.143 188.936 121.143 184.463C121.143 180.008 124.221 177.798 127.553 177.798C130.523 177.798 132.877 179.446 133.258 182.38H131.048C130.777 180.714 129.364 179.646 127.535 179.646C125.109 179.646 123.28 181.366 123.28 184.463C123.28 187.577 125.109 189.28 127.535 189.28C129.382 189.28 130.741 188.284 131.048 186.563H133.276C132.787 189.587 130.433 191.145 127.553 191.145ZM139.007 191.145C136.236 191.145 134.28 189.099 134.28 186.292C134.28 183.503 136.236 181.456 139.007 181.456C141.723 181.456 143.733 183.485 143.733 186.292C143.733 189.117 141.723 191.145 139.007 191.145ZM139.007 189.424C140.6 189.424 141.705 188.121 141.705 186.292C141.705 184.463 140.582 183.177 139.007 183.177C137.359 183.177 136.29 184.481 136.29 186.292C136.29 188.121 137.359 189.424 139.007 189.424ZM145.346 191V181.601H147.32V183.195C147.972 182.126 149.094 181.456 150.434 181.456C152.426 181.456 153.821 182.778 153.821 184.807V191H151.847V185.241C151.847 184.064 151.104 183.231 149.909 183.231C148.297 183.231 147.32 184.607 147.32 186.871V191H145.346ZM156.542 191V183.267H154.875V181.601H156.542V180.66C156.542 178.65 157.845 177.672 159.602 177.672C160 177.672 160.417 177.708 160.797 177.798V179.519C160.526 179.446 160.163 179.392 159.801 179.392C159.113 179.392 158.497 179.863 158.497 180.823V181.601H160.797V183.267H158.497V191H156.542ZM165.87 191.145C163.099 191.145 161.144 189.099 161.144 186.292C161.144 183.503 163.099 181.456 165.87 181.456C168.586 181.456 170.597 183.485 170.597 186.292C170.597 189.117 168.586 191.145 165.87 191.145ZM165.87 189.424C167.464 189.424 168.568 188.121 168.568 186.292C168.568 184.463 167.446 183.177 165.87 183.177C164.222 183.177 163.154 184.481 163.154 186.292C163.154 188.121 164.222 189.424 165.87 189.424ZM177.768 183.394C177.624 183.358 177.279 183.285 176.827 183.285C175.45 183.285 174.183 184.553 174.183 187.487V191H172.209V181.601H174.183V183.394C174.617 182.271 175.885 181.456 177.08 181.456C177.479 181.456 177.678 181.511 177.768 181.511V183.394ZM179.035 191V181.601H181.009V183.213C181.498 182.163 182.44 181.456 183.78 181.456C185.301 181.456 186.388 182.108 186.786 183.322C187.293 182.271 188.416 181.456 189.864 181.456C191.875 181.456 193.178 182.742 193.178 184.662V191H191.205V185.151C191.205 183.956 190.516 183.159 189.321 183.159C187.891 183.159 187.094 184.426 187.094 186.255V191H185.12V185.151C185.12 183.956 184.45 183.159 183.255 183.159C181.824 183.159 181.009 184.444 181.009 186.255V191H179.035ZM195.217 191V181.601H197.191V191H195.217ZM195.126 177.798H197.317V180.026H195.126V177.798ZM204.317 181.601V183.267H202.036V187.994C202.036 188.936 202.579 189.424 203.376 189.424C203.774 189.424 204.172 189.316 204.317 189.28V191C204.154 191.054 203.684 191.145 203.176 191.145C201.329 191.145 200.062 190.185 200.062 188.157V183.267H198.396V181.601H200.062V178.794H202.036V181.601H204.317ZM211.968 181.601H213.96L210.085 191.67C209.469 193.246 208.563 194.531 206.589 194.531C206.101 194.531 205.63 194.423 205.394 194.35V192.648C205.394 192.648 205.865 192.811 206.39 192.811C207.386 192.811 207.839 192.286 208.364 190.928L208.419 190.783L204.742 181.601H206.915L209.415 188.193L211.968 181.601Z" fill="#190A0A"/>
</svg>
