<svg width="253" height="230" viewBox="0 0 253 230" fill="none" xmlns="http://www.w3.org/2000/svg">
<rect x="0.853516" width="251.517" height="229.383" rx="12.5758" fill="#FBFAF4"/>
<path d="M72.3092 164.721C69.3031 164.721 67.2387 163.019 67.2387 159.94V151.519H69.3393V159.995C69.3393 161.842 70.5526 162.856 72.3092 162.856C74.0839 162.856 75.3154 161.842 75.3154 159.995V151.519H77.416V159.94C77.416 163.019 75.3335 164.721 72.3092 164.721ZM81.9157 164.576H79.8151V151.519H81.9157V157.405L87.2942 151.519H90.1192L85.1573 156.807L90.6263 164.576H88.0004L83.6542 158.401L81.9157 160.248V164.576ZM100.713 164.721C97.3264 164.721 94.3022 162.512 94.3022 158.039C94.3022 153.584 97.3807 151.375 100.713 151.375C103.683 151.375 106.037 153.022 106.417 155.956H104.208C103.936 154.29 102.524 153.222 100.695 153.222C98.2681 153.222 96.4391 154.942 96.4391 158.039C96.4391 161.154 98.2681 162.856 100.695 162.856C102.542 162.856 103.9 161.86 104.208 160.139H106.435C105.946 163.164 103.592 164.721 100.713 164.721ZM112.166 164.721C109.396 164.721 107.44 162.675 107.44 159.868C107.44 157.079 109.396 155.033 112.166 155.033C114.883 155.033 116.893 157.061 116.893 159.868C116.893 162.693 114.883 164.721 112.166 164.721ZM112.166 163.001C113.76 163.001 114.865 161.697 114.865 159.868C114.865 158.039 113.742 156.753 112.166 156.753C110.518 156.753 109.45 158.057 109.45 159.868C109.45 161.697 110.518 163.001 112.166 163.001ZM118.505 164.576V155.177H120.479V156.771C121.131 155.703 122.254 155.033 123.594 155.033C125.586 155.033 126.98 156.355 126.98 158.383V164.576H125.006V158.817C125.006 157.64 124.264 156.807 123.069 156.807C121.457 156.807 120.479 158.184 120.479 160.447V164.576H118.505ZM129.701 164.576V156.844H128.035V155.177H129.701V154.236C129.701 152.226 131.005 151.248 132.761 151.248C133.16 151.248 133.576 151.284 133.957 151.375V153.095C133.685 153.022 133.323 152.968 132.961 152.968C132.273 152.968 131.657 153.439 131.657 154.399V155.177H133.957V156.844H131.657V164.576H129.701ZM139.03 164.721C136.259 164.721 134.303 162.675 134.303 159.868C134.303 157.079 136.259 155.033 139.03 155.033C141.746 155.033 143.756 157.061 143.756 159.868C143.756 162.693 141.746 164.721 139.03 164.721ZM139.03 163.001C140.623 163.001 141.728 161.697 141.728 159.868C141.728 158.039 140.605 156.753 139.03 156.753C137.382 156.753 136.313 158.057 136.313 159.868C136.313 161.697 137.382 163.001 139.03 163.001ZM150.928 156.97C150.783 156.934 150.439 156.862 149.986 156.862C148.61 156.862 147.342 158.129 147.342 161.063V164.576H145.368V155.177H147.342V156.97C147.777 155.848 149.044 155.033 150.24 155.033C150.638 155.033 150.837 155.087 150.928 155.087V156.97ZM152.195 164.576V155.177H154.169V156.789C154.658 155.739 155.599 155.033 156.939 155.033C158.46 155.033 159.547 155.685 159.945 156.898C160.452 155.848 161.575 155.033 163.024 155.033C165.034 155.033 166.338 156.318 166.338 158.238V164.576H164.364V158.727C164.364 157.532 163.676 156.735 162.481 156.735C161.05 156.735 160.253 158.003 160.253 159.832V164.576H158.279V158.727C158.279 157.532 157.609 156.735 156.414 156.735C154.983 156.735 154.169 158.021 154.169 159.832V164.576H152.195ZM168.376 164.576V155.177H170.35V164.576H168.376ZM168.286 151.375H170.477V153.602H168.286V151.375ZM177.477 155.177V156.844H175.195V161.57C175.195 162.512 175.738 163.001 176.535 163.001C176.934 163.001 177.332 162.892 177.477 162.856V164.576C177.314 164.63 176.843 164.721 176.336 164.721C174.489 164.721 173.221 163.761 173.221 161.733V156.844H171.555V155.177H173.221V152.371H175.195V155.177H177.477ZM185.127 155.177H187.119L183.244 165.246C182.628 166.822 181.723 168.107 179.749 168.107C179.26 168.107 178.789 167.999 178.554 167.926V166.224C178.554 166.224 179.025 166.387 179.55 166.387C180.546 166.387 180.998 165.862 181.524 164.504L181.578 164.359L177.902 155.177H180.075L182.574 161.769L185.127 155.177ZM76.427 186.576L81.4794 173.519H83.7069L88.7774 186.576H86.5138L85.3367 183.461H79.7772L78.6182 186.576H76.427ZM80.4653 181.632H84.6485L82.5479 176.091L80.4653 181.632ZM92.923 186.721C90.5688 186.721 88.9933 185.327 88.9028 183.389H90.8405C90.8948 184.204 91.6916 185.019 92.923 185.019C93.9553 185.019 94.6615 184.53 94.6615 183.878C94.6615 183.244 94.2088 182.936 93.5025 182.773L91.9451 182.411C90.5688 182.103 89.3193 181.433 89.3193 179.677C89.3193 178.21 90.6594 177.033 92.7419 177.033C94.734 177.033 96.2551 178.137 96.4906 179.948H94.5529C94.4442 179.115 93.6293 178.644 92.7419 178.644C91.8908 178.644 91.2932 179.043 91.2932 179.677C91.2932 180.184 91.7278 180.51 92.3979 180.673L93.9553 181.017C95.4583 181.343 96.6716 181.94 96.6716 183.824C96.6716 185.453 95.1867 186.721 92.923 186.721ZM101.624 186.721C99.2698 186.721 97.6943 185.327 97.6037 183.389H99.5414C99.5957 184.204 100.393 185.019 101.624 185.019C102.656 185.019 103.362 184.53 103.362 183.878C103.362 183.244 102.91 182.936 102.203 182.773L100.646 182.411C99.2698 182.103 98.0202 181.433 98.0202 179.677C98.0202 178.21 99.3603 177.033 101.443 177.033C103.435 177.033 104.956 178.137 105.191 179.948H103.254C103.145 179.115 102.33 178.644 101.443 178.644C100.592 178.644 99.9941 179.043 99.9941 179.677C99.9941 180.184 100.429 180.51 101.099 180.673L102.656 181.017C104.159 181.343 105.373 181.94 105.373 183.824C105.373 185.453 103.888 186.721 101.624 186.721ZM106.449 181.868C106.449 179.332 108.025 177.033 110.995 177.033C113.91 177.033 115.45 179.206 115.432 181.542C115.432 181.904 115.395 182.339 115.395 182.339H108.405C108.586 184.059 109.619 185.037 111.14 185.037C112.299 185.037 113.222 184.494 113.44 183.534H115.377C115.051 185.58 113.331 186.721 111.085 186.721C108.116 186.721 106.449 184.421 106.449 181.868ZM108.496 180.781H113.313C113.222 179.514 112.407 178.59 110.995 178.59C109.673 178.59 108.786 179.405 108.496 180.781ZM120.423 186.721C118.069 186.721 116.493 185.327 116.403 183.389H118.34C118.395 184.204 119.191 185.019 120.423 185.019C121.455 185.019 122.161 184.53 122.161 183.878C122.161 183.244 121.709 182.936 121.002 182.773L119.445 182.411C118.069 182.103 116.819 181.433 116.819 179.677C116.819 178.21 118.159 177.033 120.242 177.033C122.234 177.033 123.755 178.137 123.99 179.948H122.053C121.944 179.115 121.129 178.644 120.242 178.644C119.391 178.644 118.793 179.043 118.793 179.677C118.793 180.184 119.228 180.51 119.898 180.673L121.455 181.017C122.958 181.343 124.171 181.94 124.171 183.824C124.171 185.453 122.687 186.721 120.423 186.721ZM129.124 186.721C126.77 186.721 125.194 185.327 125.104 183.389H127.041C127.096 184.204 127.892 185.019 129.124 185.019C130.156 185.019 130.862 184.53 130.862 183.878C130.862 183.244 130.41 182.936 129.703 182.773L128.146 182.411C126.77 182.103 125.52 181.433 125.52 179.677C125.52 178.21 126.86 177.033 128.943 177.033C130.935 177.033 132.456 178.137 132.691 179.948H130.754C130.645 179.115 129.83 178.644 128.943 178.644C128.092 178.644 127.494 179.043 127.494 179.677C127.494 180.184 127.929 180.51 128.599 180.673L130.156 181.017C131.659 181.343 132.872 181.94 132.872 183.824C132.872 185.453 131.387 186.721 129.124 186.721ZM134.474 186.576V177.177H136.448V178.789C136.937 177.739 137.879 177.033 139.219 177.033C140.74 177.033 141.827 177.685 142.225 178.898C142.732 177.848 143.855 177.033 145.304 177.033C147.314 177.033 148.618 178.318 148.618 180.238V186.576H146.644V180.727C146.644 179.532 145.956 178.735 144.761 178.735C143.33 178.735 142.533 180.003 142.533 181.832V186.576H140.559V180.727C140.559 179.532 139.889 178.735 138.694 178.735C137.263 178.735 136.448 180.021 136.448 181.832V186.576H134.474ZM150.131 181.868C150.131 179.332 151.706 177.033 154.676 177.033C157.592 177.033 159.131 179.206 159.113 181.542C159.113 181.904 159.077 182.339 159.077 182.339H152.087C152.268 184.059 153.3 185.037 154.821 185.037C155.98 185.037 156.904 184.494 157.121 183.534H159.059C158.733 185.58 157.012 186.721 154.767 186.721C151.797 186.721 150.131 184.421 150.131 181.868ZM152.177 180.781H156.994C156.904 179.514 156.089 178.59 154.676 178.59C153.354 178.59 152.467 179.405 152.177 180.781ZM160.754 186.576V177.177H162.728V178.771C163.38 177.703 164.503 177.033 165.843 177.033C167.835 177.033 169.229 178.355 169.229 180.383V186.576H167.255V180.817C167.255 179.64 166.513 178.807 165.318 178.807C163.706 178.807 162.728 180.184 162.728 182.447V186.576H160.754ZM176.133 177.177V178.844H173.851V183.57C173.851 184.512 174.394 185.001 175.191 185.001C175.589 185.001 175.988 184.892 176.133 184.856V186.576C175.97 186.63 175.499 186.721 174.992 186.721C173.145 186.721 171.877 185.761 171.877 183.733V178.844H170.211V177.177H171.877V174.371H173.851V177.177H176.133Z" fill="#190A0A"/>
<path d="M138.952 44.5562H131.467V76.0845H138.952V44.5562Z" fill="#3F3636"/>
<path d="M136.956 59.489L151.297 44.5564H161.813L147.601 59.489L161.628 75.9739H151.112L136.956 59.489Z" fill="#3F3636"/>
<path d="M115.329 44.0374V63.738C115.329 64.9762 115.274 66.0296 115.163 66.8982V66.9352C114.904 68.8202 113.37 70.2802 111.485 70.5759C109.009 70.9455 105.294 71.001 102.337 70.6314C100.877 70.4465 99.5648 69.5595 99.0104 68.2104C98.9734 68.0995 98.9365 68.0071 98.8995 67.8962C98.6038 66.8982 98.456 65.5121 98.456 63.738V44.0374H90.4907V63.9043C90.4907 66.8243 90.7494 69.0974 91.2854 70.7053C91.8029 72.3131 92.7639 73.7731 94.1684 75.0668C96.8481 77.5802 101.099 78.8369 106.92 78.8369C112.372 78.8369 116.586 77.5617 119.561 75.0113C120.836 73.8655 121.797 72.3501 122.407 70.4835C123.036 68.6169 123.331 66.2329 123.331 63.3499V44.0374H115.311H115.329Z" fill="#3F3636"/>
<path d="M125.309 110.417H105.608C104.37 110.417 103.316 110.362 102.448 110.233H102.411C100.526 109.955 99.0659 108.329 98.7702 106.333C98.4006 103.709 98.3451 99.7725 98.7147 96.6307C98.8996 95.0783 99.7866 93.6923 101.136 93.1009C101.247 93.0639 101.339 93.0085 101.45 92.99C102.429 92.6573 103.815 92.5095 105.59 92.5095H125.29V84.0637H105.423C102.503 84.0637 100.23 84.3409 98.6223 84.8954C97.0145 85.4498 95.5545 86.4662 94.2608 87.9447C91.7474 90.7723 90.4907 95.2816 90.4907 101.473C90.4907 107.257 91.7659 111.73 94.3163 114.89C95.4621 116.239 96.9775 117.255 98.8441 117.921C100.711 118.586 103.095 118.9 105.978 118.9H125.29V110.399L125.309 110.417Z" fill="#3F3636"/>
<path d="M135.997 108.905H158.304V101.309H135.997V108.905Z" fill="#3F3636"/>
<path d="M158.311 88.7027H158.293C156.943 87.5754 155.391 86.6144 153.709 85.8567C151.27 84.7663 148.535 84.1195 145.633 84.0825C142.732 84.1195 139.996 84.7663 137.557 85.8567C135.857 86.6144 134.323 87.5754 132.974 88.6843H132.955C130.738 90.5323 129.444 93.2675 129.444 96.1505V118.919H136.929V99.8467C136.929 95.9473 139.886 92.6946 143.767 92.288C144.376 92.2326 145.005 92.1956 145.633 92.1771C146.261 92.1771 146.89 92.2141 147.5 92.288C151.381 92.6946 154.338 95.9473 154.338 99.8467V118.919H161.822V96.1505C161.822 93.2675 160.529 90.5324 158.311 88.7027Z" fill="#3F3636"/>
</svg>
