<svg width="175" height="28" viewBox="0 0 175 28" fill="none" xmlns="http://www.w3.org/2000/svg">
<path fill-rule="evenodd" clip-rule="evenodd" d="M12.3564 3.93378C12.87 2.69916 14.6189 2.69915 15.1324 3.93378L17.517 9.66708L23.7066 10.1633C25.0395 10.2701 25.5799 11.9335 24.5644 12.8034L19.8487 16.843L21.2894 22.8829C21.5996 24.1837 20.1847 25.2116 19.0435 24.5147L13.7444 21.2779L8.44528 24.5147C7.30414 25.2116 5.88919 24.1837 6.19944 22.8829L7.6402 16.843L2.92441 12.8034C1.9089 11.9335 2.44935 10.2701 3.78223 10.1633L9.9718 9.66708L12.3564 3.93378Z" fill="#E0004D"/>
<path fill-rule="evenodd" clip-rule="evenodd" d="M49.0075 3.93378C49.5211 2.69916 51.27 2.69915 51.7835 3.93378L54.1681 9.66708L60.3577 10.1633C61.6906 10.2701 62.231 11.9335 61.2155 12.8034L56.4998 16.843L57.9405 22.8829C58.2507 24.1837 56.8358 25.2116 55.6946 24.5147L50.3956 21.2779L45.0964 24.5147C43.9553 25.2116 42.5403 24.1837 42.8506 22.8829L44.2913 16.843L39.5755 12.8034C38.56 11.9335 39.1005 10.2701 40.4334 10.1633L46.6229 9.66708L49.0075 3.93378Z" fill="#E0004D"/>
<path fill-rule="evenodd" clip-rule="evenodd" d="M85.6586 3.93378C86.1722 2.69916 87.9211 2.69915 88.4346 3.93378L90.8192 9.66708L97.0088 10.1633C98.3418 10.2701 98.8821 11.9335 97.8667 12.8034L93.1509 16.843L94.5917 22.8829C94.9018 24.1837 93.487 25.2116 92.3457 24.5147L87.0467 21.2779L81.7475 24.5147C80.6064 25.2116 79.1914 24.1837 79.5017 22.8829L80.9424 16.843L76.2267 12.8034C75.2111 11.9335 75.7516 10.2701 77.0845 10.1633L83.274 9.66708L85.6586 3.93378Z" fill="#E0004D"/>
<path fill-rule="evenodd" clip-rule="evenodd" d="M122.31 3.93378C122.824 2.69916 124.572 2.69915 125.086 3.93378L127.471 9.66708L133.66 10.1633C134.993 10.2701 135.533 11.9335 134.518 12.8034L129.802 16.843L131.243 22.8829C131.553 24.1837 130.138 25.2116 128.997 24.5147L123.698 21.2779L118.399 24.5147C117.258 25.2116 115.843 24.1837 116.153 22.8829L117.594 16.843L112.878 12.8034C111.862 11.9335 112.403 10.2701 113.736 10.1633L119.925 9.66708L122.31 3.93378Z" fill="#E0004D"/>
<path fill-rule="evenodd" clip-rule="evenodd" d="M159.239 4.18214C159.476 3.58676 159.999 3.28906 160.521 3.28906C160.521 20.9102 160.521 3.28906 160.521 20.9102L155.627 24.0319C154.573 24.7041 153.266 23.7126 153.553 22.4582L154.883 16.6327L150.528 12.7367C149.59 11.8977 150.089 10.2934 151.32 10.1904L157.037 9.71175L159.239 4.18214Z" fill="#E0004D"/>
<path d="M159.933 4.08825C160.043 3.82368 160.286 3.69139 160.528 3.69141C160.771 3.69142 161.013 3.82369 161.123 4.08825L163.558 9.94265C163.651 10.1657 163.861 10.3181 164.101 10.3374L170.422 10.8441C170.993 10.8899 171.224 11.6028 170.789 11.9756L165.974 16.1006C165.79 16.2577 165.71 16.5043 165.766 16.7393L167.238 22.9068C167.37 23.4642 166.764 23.9049 166.275 23.6062L160.864 20.3011C160.658 20.1752 160.399 20.1752 160.192 20.3011L154.781 23.6062C154.292 23.9049 153.686 23.4642 153.819 22.9068L155.29 16.7393C155.346 16.5043 155.266 16.2577 155.082 16.1006L150.267 11.9756C149.832 11.6028 150.063 10.8899 150.635 10.8441L156.955 10.3374C157.196 10.3181 157.405 10.1657 157.498 9.94265L159.933 4.08825Z" stroke="#E0004D" stroke-width="1.71802" stroke-linecap="round" stroke-linejoin="round"/>
</svg>
