<svg width="177" height="43" viewBox="0 0 177 43" fill="none" xmlns="http://www.w3.org/2000/svg">
<path d="M136.018 9.75488H126.368C125.728 9.75488 125.133 10.2123 125.041 10.8983L121.154 35.3679C121.108 35.5966 121.2 35.8253 121.337 36.0082C121.474 36.1912 121.703 36.2826 121.931 36.2826H126.871C127.328 36.2826 127.74 35.9625 127.786 35.5051L128.883 28.553C128.975 27.9127 129.569 27.4096 130.21 27.4553H133.274C139.632 27.4553 143.291 24.3909 144.251 18.3993C144.663 15.7465 144.251 13.6883 143.016 12.2247C141.69 10.6239 139.266 9.75488 136.018 9.75488ZM137.116 18.7194C136.567 22.1497 133.96 22.1497 131.399 22.1497H129.935L130.942 15.7465C130.987 15.3349 131.353 15.0604 131.719 15.0604H132.405C134.143 15.0604 135.79 15.0604 136.659 16.0209C137.162 16.6155 137.345 17.4845 137.116 18.7194ZM67.1377 9.75488H57.4871C56.8467 9.75488 56.2521 10.2123 56.1607 10.8983L52.2272 35.3679C52.1815 35.5966 52.273 35.8253 52.4102 36.0082C52.5474 36.1912 52.7761 36.2826 53.0048 36.2826H57.6243C58.2646 36.2826 58.8592 35.8253 58.9507 35.1849L60.0026 28.5987C60.0941 27.9584 60.6887 27.4553 61.329 27.501H64.3934C70.751 27.501 74.41 24.4366 75.3704 18.445C75.7821 15.7922 75.3704 13.734 74.1355 12.2704C72.8091 10.6239 70.3851 9.75488 67.1377 9.75488ZM68.2811 18.7194C67.7323 22.1497 65.1252 22.1497 62.5639 22.1497H61.1003L62.1065 15.7465C62.1523 15.3349 62.5182 15.0604 62.8841 15.0604H63.5702C65.3082 15.0604 66.9547 15.0604 67.8237 16.0209C68.2811 16.6155 68.4641 17.4845 68.2811 18.7194ZM95.9981 18.5822H91.3786C90.967 18.5822 90.6468 18.8566 90.6011 19.2683L90.4181 20.5489L90.098 20.0916C89.0917 18.6737 86.8506 18.1706 84.6552 18.1706C79.5326 18.1706 75.1875 22.0125 74.3185 27.3638C73.8611 30.0623 74.5014 32.5779 76.0565 34.3617C77.4744 36.0082 79.4868 36.6943 81.8652 36.6943C84.2435 36.74 86.5762 35.7795 88.2685 34.0872L87.994 35.3679C87.9483 35.5966 88.0398 35.8253 88.177 36.0082C88.3142 36.1912 88.5429 36.2826 88.7716 36.2826H92.9337C93.574 36.2826 94.1686 35.8253 94.2601 35.1849L96.7756 19.5427C96.8214 19.314 96.7299 19.0853 96.5927 18.9024C96.4555 18.7194 96.2268 18.5822 95.9981 18.5822ZM89.5491 27.501C89.1375 30.0623 86.9421 31.9376 84.335 31.8461C83.1458 31.9376 82.0481 31.4802 81.2249 30.6112C80.5388 29.6964 80.2644 28.553 80.4931 27.4096C80.859 24.8483 83.1001 22.973 85.6614 23.0188C86.8048 22.9273 87.9483 23.3847 88.7258 24.2537C89.5491 25.1684 89.8235 26.3576 89.5491 27.501ZM164.879 18.5822H160.259C159.848 18.5822 159.528 18.8566 159.482 19.2683L159.299 20.5489L158.979 20.0916C157.973 18.6737 155.731 18.1706 153.536 18.1706C148.413 18.1706 144.068 22.0125 143.199 27.3638C142.742 30.0623 143.382 32.5779 144.937 34.3617C146.355 36.0082 148.368 36.6943 150.746 36.6943C153.124 36.74 155.457 35.7795 157.149 34.0872L156.966 35.3679C156.921 35.5966 157.012 35.8253 157.149 36.0082C157.286 36.1912 157.515 36.2826 157.744 36.2826H161.906C162.546 36.2826 163.141 35.7795 163.232 35.1392L165.748 19.497C165.794 19.2683 165.702 19.0396 165.565 18.8566C165.336 18.6737 165.108 18.5822 164.879 18.5822ZM158.43 27.501C158.018 30.0623 155.823 31.9376 153.216 31.8461C152.027 31.9376 150.929 31.4802 150.106 30.6112C149.42 29.6964 149.145 28.553 149.374 27.4096C149.74 24.8483 151.981 22.973 154.542 23.0188C155.686 22.9273 156.829 23.3847 157.607 24.2537C158.43 25.1684 158.704 26.3576 158.43 27.501ZM120.651 18.5822H115.985C115.528 18.5822 115.116 18.8109 114.888 19.1768L108.484 28.5073L105.786 19.5427C105.603 18.9939 105.1 18.5822 104.505 18.5822H99.9315C99.6571 18.5822 99.4284 18.7194 99.2912 18.9024C99.154 19.1311 99.1083 19.3598 99.1997 19.6342L104.322 34.4531L99.4284 41.1765C99.2455 41.4052 99.2455 41.7254 99.3827 41.9998C99.5199 42.2742 99.7943 42.4114 100.114 42.4114H104.78C105.237 42.4114 105.649 42.1828 105.877 41.8626L121.337 19.8171C121.52 19.5884 121.52 19.2683 121.382 18.9939C121.2 18.7652 120.925 18.5822 120.651 18.5822ZM170.322 10.4409L166.343 35.3221C166.297 35.5508 166.388 35.7795 166.525 35.9625C166.663 36.1454 166.891 36.2369 167.12 36.2369H171.099C171.74 36.2369 172.334 35.7795 172.426 35.1392L176.359 10.7154C176.405 10.4867 176.313 10.258 176.176 10.075C176.039 9.89209 175.81 9.80062 175.582 9.80062H171.099C170.733 9.75489 170.413 10.0293 170.322 10.4409Z" fill="#FFFFFC"/>
<path d="M14.9051 9.11639C15.2253 8.93344 15.6369 8.88771 16.0028 8.88771H26.3852C27.5744 8.88771 28.7636 8.97918 29.9528 9.16213C30.2729 9.20786 30.5473 9.25361 30.8675 9.34508C31.1877 9.39082 31.4621 9.48229 31.7365 9.57377L32.1482 9.71097C32.2854 9.75671 32.4226 9.80245 32.5598 9.84819C32.7885 7.0582 31.9652 5.09149 30.5931 3.58215C28.5806 1.38675 25.0588 0.42627 20.4851 0.42627H8.13593C7.22118 0.42627 6.3979 1.11233 6.26069 1.98134L0.772177 36.5589C0.726439 36.8791 0.817914 37.1992 1.0466 37.4736C1.27529 37.7481 1.59545 37.8853 1.91562 37.8395H9.18789L13.4872 11.0374C13.6244 10.1684 14.1276 9.43656 14.9051 9.11639Z" fill="#FFFFFC"/>
<path d="M31.5988 11.2644L31.2328 11.1729C31.0042 11.0814 30.7297 11.0357 30.4553 10.9899C30.1809 10.9442 29.9065 10.8984 29.632 10.8527C28.5343 10.6698 27.4366 10.624 26.3389 10.624H16.6883C16.4596 10.624 16.1852 10.6698 15.9565 10.7612C15.4534 10.9899 15.1332 11.4473 15.0417 11.9961L13.3037 22.9274C13.4867 22.8817 13.7154 22.8817 13.8983 22.8817H17.786C19.6612 22.9274 21.4907 22.653 23.3202 22.1956C27.4366 21.0064 30.1809 18.3994 31.5988 14.1915C31.8732 13.3225 32.1019 12.4535 32.2848 11.5845C32.1019 11.4473 31.8274 11.3558 31.5988 11.2644Z" fill="#FFFFFC"/>
<path d="M35.1668 13.2788C34.8009 12.9129 34.435 12.5928 33.9776 12.3184C32.9257 17.441 29.6783 24.6675 17.6951 24.6675H14.7221C13.8074 24.6675 12.9841 25.3535 12.8469 26.2226C12.8469 26.2226 10.5143 40.6299 10.4228 41.3617C10.3771 41.6361 10.4685 41.9105 10.6515 42.1392C10.8344 42.3679 11.1089 42.4594 11.3833 42.4594H17.3749C18.1982 42.4594 18.8842 41.8648 19.0215 41.0872L20.4851 32.1684C20.6223 31.3909 21.3083 30.7963 22.1316 30.7963H23.1378C29.8155 30.7963 35.0296 28.0978 36.5847 20.3682C36.6304 20.1395 36.6762 19.9108 36.7219 19.6821C36.9963 17.0293 36.5847 14.8797 35.1668 13.2788Z" fill="#FFFFFC"/>
</svg>
