<svg id="图层_1" data-name="图层 1" xmlns="http://www.w3.org/2000/svg" width="14.46mm" height="13.93mm" viewBox="0 0 41 39.5">
  <path d="M9.86,32.76C6.24,33.84,4,35.34,4,37c0,3.31,9,6,20,6s20-2.69,20-6c0-1.66-2.24-3.16-5.86-4.24" transform="translate(-3.5 -4)" fill="none" stroke="#e0004d" stroke-linecap="round"/>
  <path d="M24,4A12.84,12.84,0,0,0,11,16.68C11,26.5,24,35,24,35s13-8.5,13-18.32A12.84,12.84,0,0,0,24,4Zm0,18a5,5,0,1,1,5-5A5,5,0,0,1,24,22Z" transform="translate(-3.5 -4)" fill="#e0004d"/>
</svg>
