<svg width="47" height="68" viewBox="0 0 47 68" fill="none" xmlns="http://www.w3.org/2000/svg">
<path d="M23.6901 0.00826423C23.8974 0.00275474 24.1057 0 24.3144 0C24.523 0 24.7313 0.00275474 24.9386 0.00826423C41.1024 0.439381 51.5873 18.1597 45.0057 33.7089L25.946 67.0293C25.2054 68.3236 21.7944 68.3236 21.0543 67.0293L1.99415 33.7089C-4.58699 18.1602 7.5263 0.439381 23.6901 0.00826423ZM26.5601 35.1501C32.854 35.1501 37.9564 29.7783 37.9564 23.1518C37.9564 16.5252 32.854 11.1535 26.5601 11.1535C20.2661 11.1535 15.1638 16.5252 15.1638 23.1518C15.1638 29.7783 20.2661 35.1501 26.5601 35.1501Z" fill="url(#paint0_linear_653_13)"/>
<path d="M22.0617 0.00826423C22.269 0.00275474 24.1057 0 24.3144 0C24.523 0 24.7313 0.00275474 24.9386 0.00826423C25.4857 0.0229562 26.0264 0.0578496 26.5601 0.111567C11.3275 1.63769 1.75591 18.6863 8.11451 33.7089L25.9682 64.921C26.332 65.5574 26.332 66.3535 25.9682 66.9898L25.9456 67.0293C25.205 68.3236 21.7939 68.3236 21.0538 67.0293L1.99415 33.7089C-4.58699 18.1602 5.89741 0.439381 22.0617 0.00826423Z" fill="url(#paint1_linear_653_13)"/>
<path d="M26.5601 35.1501C25.8269 35.1501 25.1108 35.0761 24.4159 34.937C29.6849 33.881 33.6685 29.0065 33.6685 23.1518C33.6685 17.297 29.6849 12.4225 24.4159 11.3665C25.1103 11.2274 25.8269 11.1535 26.5601 11.1535C32.854 11.1535 37.9564 16.5252 37.9564 23.1518C37.9564 29.7783 32.854 35.1501 26.5601 35.1501Z" fill="url(#paint2_linear_653_13)"/>
<defs>
<linearGradient id="paint0_linear_653_13" x1="42.1665" y1="40.6623" x2="-1.18377" y2="22.9864" gradientUnits="userSpaceOnUse">
<stop stop-color="#666666"/>
<stop offset="0.09" stop-color="#4C4C4C"/>
<stop offset="0.21" stop-color="#333232"/>
<stop offset="0.34" stop-color="#1F1E1E"/>
<stop offset="0.5" stop-color="#111010"/>
<stop offset="0.68" stop-color="#090808"/>
<stop offset="1" stop-color="#070606"/>
</linearGradient>
<linearGradient id="paint1_linear_653_13" x1="23.5" y1="68.0003" x2="23.5" y2="0" gradientUnits="userSpaceOnUse">
<stop stop-color="#070606"/>
<stop offset="0.17" stop-color="#0E0D0D"/>
<stop offset="0.44" stop-color="#242323"/>
<stop offset="0.76" stop-color="#474747"/>
<stop offset="1" stop-color="#666666"/>
</linearGradient>
<linearGradient id="paint2_linear_653_13" x1="31.1864" y1="35.1501" x2="31.1864" y2="11.154" gradientUnits="userSpaceOnUse">
<stop stop-color="#070606"/>
<stop offset="0.18" stop-color="#0B0A0A"/>
<stop offset="0.4" stop-color="#1A1919"/>
<stop offset="0.63" stop-color="#313131"/>
<stop offset="0.88" stop-color="#525252"/>
<stop offset="1" stop-color="#666666"/>
</linearGradient>
</defs>
</svg>
