<svg width="187" height="92" viewBox="0 0 187 92" fill="none" xmlns="http://www.w3.org/2000/svg">
<g clip-path="url(#clip0_559_85)">
<path d="M187 0H0V92H187V0Z" fill="white"/>
<path d="M93.45 20C79.37 20 67.95 31.42 67.95 45.5C67.95 59.58 79.37 71 93.45 71C107.53 71 118.95 59.58 118.95 45.5C118.95 31.42 107.53 20 93.45 20ZM91.26 37.15C86.66 37.15 82.91 40.9 82.91 45.5C82.91 50.1 86.66 53.85 91.26 53.85V56.83C89.73 56.83 88.25 56.53 86.85 55.94C85.5 55.37 84.29 54.55 83.25 53.51C82.21 52.47 81.39 51.26 80.82 49.91C80.23 48.51 79.93 47.03 79.93 45.5C79.93 43.97 80.23 42.49 80.82 41.09C81.39 39.74 82.21 38.53 83.25 37.49C84.29 36.45 85.5 35.63 86.85 35.06C88.25 34.47 89.73 34.17 91.26 34.17V37.15ZM105.48 37.15C101.38 37.15 97.97 40.11 97.26 44.01H105.48V46.99H97.26C97.97 50.89 101.38 53.85 105.48 53.85V56.83C103.95 56.83 102.47 56.53 101.07 55.94C99.72 55.37 98.51 54.55 97.47 53.51C96.43 52.47 95.61 51.26 95.04 49.91C94.45 48.51 94.15 47.03 94.15 45.5C94.15 43.97 94.45 42.49 95.04 41.09C95.61 39.74 96.43 38.53 97.47 37.49C98.51 36.45 99.72 35.63 101.07 35.06C102.47 34.47 103.95 34.17 105.48 34.17V37.15Z" fill="#040000"/>
</g>
<defs>
<clipPath id="clip0_559_85">
<rect width="187" height="92" fill="white"/>
</clipPath>
</defs>
</svg>
