<svg width="187" height="92" viewBox="0 0 187 92" fill="none" xmlns="http://www.w3.org/2000/svg">
<g clip-path="url(#clip0_559_93)">
<path d="M187 0H0V92H187V0Z" fill="white"/>
<path fill-rule="evenodd" clip-rule="evenodd" d="M88.05 37.3701C87.24 37.9601 86.44 38.5701 85.66 39.2001C85.46 39.3601 85.27 39.5201 85.07 39.6801C84.79 39.9301 84.82 39.9201 85.09 40.1501C87 41.4801 88.65 43.4201 89.9 45.4101C90.2 45.8401 90.31 45.9201 90.59 45.4101C92.61 41.6701 95.22 38.1801 98.77 35.7801C99.13 35.5101 99.24 35.5701 99.18 34.9801C99.1 34.0301 99.03 33.0801 99 32.1201C98.97 31.3101 98.98 30.5101 99.01 29.7001C99.04 29.2801 98.95 29.1801 98.59 29.4601C97.14 30.6501 95.84 32.0901 94.71 33.5601C93.61 34.9901 92.61 36.5001 91.73 38.0901C91.54 38.4301 91 39.5301 90.63 40.0601C90.33 40.4901 90.1 40.3401 89.84 39.8801C89.4 39.0801 88.97 38.2901 88.54 37.4701C88.37 37.1601 88.32 37.1501 88.03 37.3601" fill="#040000"/>
<path fill-rule="evenodd" clip-rule="evenodd" d="M107.31 47.2801C107.31 47.2801 107.21 47.1801 107.07 47.1101C106.94 47.0301 106.77 46.9501 106.56 46.8601C106.36 46.7701 106.14 46.6901 105.9 46.6201C105.66 46.5501 105.42 46.5201 105.18 46.5201C104.87 46.5201 104.62 46.5701 104.45 46.6801C104.28 46.7901 104.19 46.9501 104.19 47.1801C104.19 47.3601 104.26 47.5001 104.39 47.6001C104.52 47.7001 104.71 47.7901 104.96 47.8701C105.21 47.9501 105.51 48.0401 105.87 48.1401C106.38 48.2701 106.82 48.4401 107.2 48.6301C107.57 48.8201 107.86 49.0601 108.06 49.3601C108.26 49.6601 108.36 50.0501 108.36 50.5401C108.36 50.9901 108.28 51.3601 108.11 51.6701C107.95 51.9801 107.72 52.2301 107.44 52.4201C107.16 52.6101 106.84 52.7501 106.48 52.8301C106.12 52.9201 105.75 52.9601 105.37 52.9601C104.99 52.9601 104.58 52.9201 104.17 52.8401C103.76 52.7601 103.37 52.6501 102.99 52.5001C102.62 52.3501 102.27 52.1801 101.96 51.9701L102.77 50.3601C102.77 50.3601 102.9 50.4701 103.06 50.5701C103.22 50.6701 103.43 50.7801 103.67 50.8801C103.91 50.9901 104.19 51.0801 104.49 51.1701C104.79 51.2601 105.09 51.2901 105.4 51.2901C105.73 51.2901 105.98 51.2401 106.14 51.1401C106.3 51.0401 106.38 50.8901 106.38 50.7101C106.38 50.5101 106.3 50.3501 106.13 50.2401C105.96 50.1301 105.73 50.0301 105.44 49.9401C105.15 49.8501 104.82 49.7501 104.44 49.6401C103.95 49.4901 103.55 49.3201 103.23 49.1401C102.91 48.9501 102.68 48.7301 102.52 48.4601C102.37 48.1901 102.29 47.8601 102.29 47.4501C102.29 46.8901 102.42 46.4201 102.69 46.0401C102.96 45.6601 103.31 45.3701 103.76 45.1701C104.21 44.9701 104.7 44.8701 105.23 44.8701C105.6 44.8701 105.97 44.9101 106.32 45.0001C106.67 45.0901 106.99 45.2001 107.3 45.3401C107.6 45.4701 107.88 45.6101 108.12 45.7401L107.31 47.2701V47.2801ZM100.99 44.9301V52.9101H99.15V49.6401H95.97V52.9101H94.13V44.9301H95.97V48.0201H99.15V44.9301H100.99ZM88.71 50.0201C88.71 50.3201 88.77 50.5801 88.88 50.8101C89 51.0401 89.15 51.2101 89.35 51.3301C89.54 51.4501 89.77 51.5201 90.02 51.5201C90.27 51.5201 90.49 51.4601 90.69 51.3301C90.89 51.2001 91.04 51.0301 91.16 50.8001C91.27 50.5701 91.33 50.3101 91.33 50.0201C91.33 49.7301 91.27 49.4601 91.16 49.2301C91.05 49.0001 90.89 48.8301 90.69 48.7101C90.49 48.5901 90.27 48.5201 90.02 48.5201C89.77 48.5201 89.54 48.5801 89.35 48.7101C89.16 48.8301 89 49.0101 88.88 49.2301C88.76 49.4501 88.71 49.7201 88.71 50.0201ZM90.02 53.0301C89.52 53.0301 89.07 52.9501 88.68 52.7901C88.29 52.6301 87.95 52.4101 87.68 52.1201C87.41 51.8401 87.21 51.5201 87.07 51.1601C86.93 50.8001 86.86 50.4201 86.86 50.0201C86.86 49.6201 86.93 49.2301 87.07 48.8701C87.21 48.5101 87.41 48.1901 87.68 47.9101C87.95 47.6301 88.28 47.4101 88.68 47.2401C89.07 47.0801 89.52 47.0001 90.02 47.0001C90.52 47.0001 90.97 47.0801 91.36 47.2401C91.75 47.4001 92.08 47.6201 92.35 47.9101C92.62 48.1901 92.83 48.5101 92.97 48.8701C93.11 49.2301 93.18 49.6201 93.18 50.0201C93.18 50.4201 93.11 50.8001 92.97 51.1601C92.83 51.5201 92.62 51.8401 92.35 52.1201C92.08 52.4001 91.75 52.6201 91.36 52.7901C90.97 52.9501 90.52 53.0301 90.02 53.0301ZM81.87 48.7301H83.56C83.71 48.7301 83.84 48.6801 83.96 48.5901C84.08 48.5001 84.17 48.3701 84.25 48.2001C84.32 48.0401 84.36 47.8401 84.36 47.6301C84.36 47.4201 84.32 47.2201 84.23 47.0601C84.14 46.9001 84.04 46.7701 83.91 46.6801C83.78 46.5901 83.65 46.5501 83.51 46.5501H81.88V48.7301H81.87ZM80.03 52.9201V44.9401H83.63C84 44.9401 84.35 45.0201 84.67 45.1701C84.99 45.3201 85.26 45.5301 85.5 45.7901C85.73 46.0501 85.91 46.3401 86.05 46.6601C86.18 46.9801 86.25 47.3101 86.25 47.6401C86.25 47.9701 86.2 48.2801 86.09 48.5801C85.99 48.8801 85.84 49.1401 85.64 49.3801C85.45 49.6201 85.21 49.8101 84.94 49.9601L86.69 52.9301H84.65L83.12 50.3501H81.87V52.9301H80.03V52.9201Z" fill="#040000"/>
<path fill-rule="evenodd" clip-rule="evenodd" d="M108.38 54.5802H107.45V57.0102H106.75V54.5802H105.82V53.9602H108.38V54.5802ZM103.08 55.2702V57.0102H102.38V53.9602H102.94L104.35 55.7602V53.9602H105.05V57.0102H104.47L103.07 55.2702H103.08ZM100.57 55.8402L100.21 54.6702L99.85 55.8402H100.56H100.57ZM99.84 53.9602H100.6L101.65 57.0102H100.93L100.72 56.3302H99.72L99.51 57.0102H98.79L99.84 53.9602ZM97.36 57.0102V53.9602H98.06V57.0102H97.36ZM94.42 57.0102V53.9602H95.12V56.3902H96.6V57.0102H94.42ZM92.02 55.4102H92.6C92.65 55.4102 92.7 55.3902 92.75 55.3602C92.8 55.3302 92.83 55.2802 92.86 55.2202C92.89 55.1602 92.9 55.0802 92.9 54.9902C92.9 54.9002 92.88 54.8202 92.85 54.7602C92.82 54.7002 92.78 54.6502 92.73 54.6202C92.68 54.5902 92.63 54.5802 92.57 54.5802H92.02V55.4102ZM91.32 57.0102V53.9602H92.62C92.77 53.9602 92.9 53.9902 93.02 54.0502C93.14 54.1102 93.25 54.1902 93.34 54.2902C93.43 54.3902 93.5 54.5002 93.55 54.6202C93.6 54.7402 93.62 54.8702 93.62 55.0002C93.62 55.1702 93.58 55.3402 93.5 55.5002C93.42 55.6602 93.31 55.7902 93.16 55.8802C93.02 55.9802 92.84 56.0302 92.65 56.0302H92.03V57.0102H91.33H91.32ZM89.61 57.0102V55.1902L88.95 56.5102H88.56L87.9 55.1902V57.0102H87.2V53.9602H87.96L88.75 55.5502L89.54 53.9602H90.3V57.0102H89.6H89.61ZM84.05 55.4902C84.05 55.6102 84.07 55.7202 84.1 55.8302C84.13 55.9402 84.19 56.0402 84.25 56.1202C84.32 56.2102 84.4 56.2702 84.5 56.3302C84.6 56.3802 84.71 56.4102 84.84 56.4102C84.97 56.4102 85.09 56.3802 85.19 56.3302C85.29 56.2802 85.37 56.2102 85.44 56.1202C85.51 56.0302 85.56 55.9302 85.59 55.8202C85.62 55.7102 85.64 55.6002 85.64 55.4802C85.64 55.3602 85.62 55.2502 85.59 55.1402C85.56 55.0302 85.5 54.9302 85.44 54.8502C85.37 54.7602 85.29 54.6902 85.19 54.6502C85.09 54.6002 84.98 54.5802 84.85 54.5802C84.72 54.5802 84.6 54.6102 84.5 54.6602C84.4 54.7102 84.32 54.7802 84.25 54.8702C84.18 54.9602 84.13 55.0602 84.1 55.1702C84.07 55.2802 84.05 55.3902 84.05 55.5102V55.4902ZM84.85 57.0302C84.62 57.0302 84.41 56.9902 84.23 56.9002C84.05 56.8102 83.89 56.7002 83.75 56.5502C83.62 56.4002 83.51 56.2402 83.44 56.0502C83.37 55.8702 83.33 55.6702 83.33 55.4802C83.33 55.2902 83.37 55.0802 83.44 54.9002C83.52 54.7202 83.62 54.5502 83.76 54.4102C83.9 54.2702 84.06 54.1502 84.24 54.0702C84.43 53.9902 84.63 53.9502 84.85 53.9502C85.07 53.9502 85.28 53.9902 85.47 54.0802C85.65 54.1702 85.81 54.2902 85.95 54.4302C86.08 54.5802 86.19 54.7502 86.26 54.9302C86.33 55.1102 86.37 55.3002 86.37 55.4902C86.37 55.6902 86.33 55.8902 86.26 56.0702C86.19 56.2502 86.08 56.4202 85.94 56.5602C85.8 56.7002 85.64 56.8202 85.46 56.9002C85.28 56.9802 85.07 57.0302 84.85 57.0302ZM80 55.4602C80 55.2702 80.03 55.0902 80.1 54.9102C80.17 54.7302 80.27 54.5702 80.4 54.4202C80.53 54.2702 80.69 54.1602 80.88 54.0702C81.07 53.9802 81.28 53.9402 81.52 53.9402C81.81 53.9402 82.05 54.0002 82.27 54.1202C82.48 54.2402 82.64 54.4002 82.74 54.6002L82.2 54.9802C82.15 54.8702 82.09 54.7902 82.02 54.7302C81.94 54.6702 81.86 54.6302 81.77 54.6002C81.68 54.5802 81.59 54.5602 81.51 54.5602C81.38 54.5602 81.26 54.5902 81.16 54.6402C81.06 54.6902 80.98 54.7602 80.91 54.8502C80.84 54.9402 80.8 55.0402 80.76 55.1502C80.73 55.2602 80.71 55.3702 80.71 55.4802C80.71 55.6002 80.73 55.7202 80.77 55.8302C80.81 55.9402 80.86 56.0402 80.93 56.1302C81 56.2202 81.09 56.2802 81.19 56.3302C81.29 56.3802 81.4 56.4102 81.52 56.4102C81.61 56.4102 81.69 56.4002 81.78 56.3702C81.87 56.3402 81.95 56.3002 82.03 56.2302C82.11 56.1702 82.16 56.0902 82.2 55.9902L82.78 56.3302C82.72 56.4802 82.62 56.6102 82.48 56.7102C82.34 56.8202 82.19 56.9002 82.01 56.9502C81.84 57.0102 81.67 57.0302 81.5 57.0302C81.28 57.0302 81.08 56.9802 80.89 56.8902C80.71 56.8002 80.55 56.6802 80.41 56.5302C80.28 56.3802 80.17 56.2102 80.1 56.0202C80.03 55.8302 79.99 55.6402 79.99 55.4502L80 55.4602Z" fill="#040000"/>
<path d="M94.58 69C107.625 69 118.2 58.425 118.2 45.38C118.2 32.335 107.625 21.76 94.58 21.76C81.535 21.76 70.96 32.335 70.96 45.38C70.96 58.425 81.535 69 94.58 69Z" stroke="#0D0D0D" stroke-width="3" stroke-miterlimit="10"/>
</g>
<defs>
<clipPath id="clip0_559_93">
<rect width="187" height="92" fill="white"/>
</clipPath>
</defs>
</svg>
