<svg width="187" height="92" viewBox="0 0 187 92" fill="none" xmlns="http://www.w3.org/2000/svg">
<g clip-path="url(#clip0_559_41)">
<path d="M187 0H0V92H187V0Z" fill="white"/>
<path d="M132.3 64.54H126.72V20.46H126.41V32.6C126.39 32.32 126.37 32.12 126.36 32.05C126.18 30.7 125.84 29.35 125.09 28.2C123.42 25.65 120.14 24.41 117.23 24.31C114.63 24.22 111.85 24.94 109.62 26.32C108.13 27.25 107.1 28.7 106.5 30.36C105.65 32.74 105.34 35.54 105.85 38.03C106.61 41.8 109.13 44.44 112.21 46.48C113.65 47.43 115.14 48.29 116.53 49.32C117.78 50.24 118.91 51.18 119.39 52.72C120.08 54.92 119.54 58.18 117.04 58.84C116.05 59.1 114.95 59.01 114.06 58.5C112.91 57.84 112.24 56.52 112.37 55.19V52.93H105.63C105.53 52.93 105.76 56.66 105.81 57.02C105.99 58.37 106.33 59.72 107.08 60.87C108.42 62.92 110.8 64.11 113.2 64.55H102.87V43.71H92.17V49.5H95.82V59.07H91.09C88.91 58.85 87.21 57.01 87.21 54.76V34.41C87.21 32.02 89.14 30.08 91.51 30.08C93.88 30.08 95.81 32.02 95.81 34.41V36.97H102.86V35.69C102.86 29.4 97.79 24.31 91.53 24.31H91.47C85.21 24.31 80.14 29.41 80.14 35.69V53.47C80.14 58.86 83.87 63.37 88.88 64.55H68.41C70.17 64.26 71.91 63.67 73.39 62.75C74.88 61.82 75.91 60.37 76.51 58.71C77.36 56.33 77.67 53.53 77.16 51.04C76.88 49.65 76.34 48.37 75.61 47.22C74.93 46.15 74.09 45.19 73.13 44.34C71.82 43.18 70.34 42.24 68.85 41.34C67.52 40.54 66.03 39.68 64.95 38.54C64.65 38.23 63.99 37.51 63.63 36.36C62.94 34.16 63.48 30.9 65.98 30.24C66.97 29.98 68.07 30.07 68.96 30.58C70.11 31.24 70.78 32.56 70.65 33.89V36.15H77.39C77.49 36.15 77.26 32.42 77.21 32.06C77.03 30.71 76.69 29.36 75.94 28.21C74.27 25.66 70.99 24.42 68.08 24.32C65.48 24.23 62.7 24.95 60.47 26.33C58.98 27.26 57.95 28.71 57.35 30.37C56.5 32.75 56.19 35.55 56.7 38.04C57.46 41.81 59.98 44.45 63.06 46.49C64.5 47.44 65.99 48.3 67.38 49.33C68.63 50.25 69.76 51.19 70.24 52.73C70.93 54.93 70.39 58.19 67.89 58.85C66.9 59.11 65.8 59.02 64.91 58.51C63.76 57.85 63.09 56.53 63.22 55.2V52.94H56.48C56.38 52.94 56.61 56.67 56.66 57.03C56.84 58.38 57.18 59.73 57.93 60.88C59.27 62.93 61.65 64.12 64.05 64.56H50.73V64.98H126.42V71.26H126.73V64.98H132.31V64.56L132.3 64.54ZM118 41.33C116.67 40.53 115.18 39.67 114.1 38.53C113.8 38.22 113.14 37.5 112.78 36.35C112.09 34.15 112.63 30.89 115.13 30.23C116.12 29.97 117.22 30.06 118.11 30.57C119.26 31.23 119.93 32.55 119.8 33.88V36.14C119.8 36.14 125.51 36.14 126.41 36.14V51.77C126.38 51.52 126.37 51.27 126.32 51.03C126.04 49.64 125.5 48.36 124.77 47.21C124.09 46.14 123.25 45.18 122.29 44.33C120.98 43.17 119.5 42.23 118.01 41.33H118ZM117.57 64.54C119.33 64.25 121.07 63.66 122.55 62.74C124.04 61.81 125.07 60.36 125.67 58.7C126.03 57.69 126.27 56.6 126.41 55.5V64.54H117.57Z" fill="#040000"/>
</g>
<defs>
<clipPath id="clip0_559_41">
<rect width="187" height="92" fill="white"/>
</clipPath>
</defs>
</svg>
