<svg width="187" height="92" viewBox="0 0 187 92" fill="none" xmlns="http://www.w3.org/2000/svg">
<g clip-path="url(#clip0_559_45)">
<path d="M187 0H0V92H187V0Z" fill="white"/>
<path d="M118.759 63.56C118.759 66.13 118.759 68.7 118.759 71.26C118.759 71.6 118.679 71.7 118.329 71.7C116.849 71.68 115.359 71.68 113.879 71.7C113.489 71.7 113.439 71.58 113.439 71.24C113.459 69.77 113.439 68.3 113.449 66.83C113.449 66.53 113.399 66.41 113.059 66.41C109.099 66.42 105.149 66.42 101.189 66.41C100.869 66.41 100.799 66.5 100.809 66.8C100.829 68.3 100.809 69.79 100.819 71.29C100.819 71.57 100.779 71.7 100.449 71.7C98.9094 71.68 97.3694 71.68 95.8294 71.7C95.5194 71.7 95.4694 71.59 95.4694 71.32C95.4694 66.35 95.4494 61.38 95.4794 56.41C95.4994 52.41 98.5694 49.05 102.559 48.53C103.079 48.46 103.599 48.46 104.119 48.46C106.299 48.46 108.489 48.46 110.669 48.46C114.499 48.46 117.849 51.22 118.599 54.96C118.709 55.51 118.739 56.07 118.739 56.64C118.739 58.95 118.739 61.25 118.739 63.56H118.759ZM107.149 61.13C109.109 61.13 111.079 61.13 113.039 61.13C113.389 61.13 113.469 61.02 113.469 60.69C113.449 59.36 113.429 58.03 113.469 56.7C113.519 55.23 112.369 53.79 110.609 53.76C108.289 53.72 105.969 53.73 103.649 53.76C101.969 53.78 100.749 55.19 100.809 56.67C100.869 58.01 100.829 59.36 100.809 60.71C100.809 61.06 100.909 61.14 101.249 61.14C103.209 61.12 105.179 61.14 107.139 61.14L107.149 61.13Z" fill="black"/>
<path d="M91.2895 29.13C91.2895 31.45 91.2595 33.77 91.2895 36.09C91.3395 40.1 88.4295 43.44 84.5895 44.13C84.1695 44.21 83.7495 44.25 83.3195 44.25C80.9295 44.25 78.5395 44.25 76.1495 44.25C72.2195 44.25 68.9395 41.55 68.1595 37.69C68.0595 37.21 68.0095 36.75 68.0095 36.26C68.0095 31.33 68.0095 26.4 68.0095 21.47C68.0095 21.09 68.1195 21 68.4795 21C69.9495 21.02 71.4195 21.02 72.8895 21C73.2395 21 73.3195 21.1 73.3195 21.44C73.3095 26.22 73.3495 31 73.2995 35.78C73.2795 37.92 74.8895 39.02 76.5195 38.98C78.6495 38.92 80.7795 38.94 82.9095 38.98C84.6295 39 86.0195 37.71 86.0095 35.88C85.9695 31.07 86.0095 26.27 85.9895 21.46C85.9895 21.1 86.0795 21.01 86.4395 21.01C87.9195 21.03 89.4095 21.03 90.8895 21.01C91.2195 21.01 91.2995 21.1 91.2995 21.42C91.2895 23.99 91.2995 26.56 91.2995 29.12L91.2895 29.13Z" fill="black"/>
<path d="M83.1895 71.7C80.7895 71.7 78.3795 71.7 75.9795 71.7C72.2195 71.7 68.8095 68.77 68.1695 65.05C68.0595 64.42 68.0195 63.8 68.0195 63.17C68.0195 60.9 67.9695 58.64 68.0295 56.37C68.1195 52.82 70.5995 49.62 74.1095 48.71C74.7995 48.53 75.5095 48.46 76.2295 48.46C81.0895 48.46 85.9595 48.46 90.8195 48.46C91.1995 48.46 91.2995 48.55 91.2995 48.93C91.2795 50.4 91.2795 51.87 91.2995 53.34C91.2995 53.69 91.1995 53.77 90.8595 53.77C86.0195 53.76 81.1895 53.77 76.3495 53.77C74.8795 53.77 73.8795 54.51 73.4395 55.91C73.3495 56.21 73.3295 56.53 73.3295 56.84C73.3295 59.01 73.3295 61.18 73.3295 63.35C73.3295 64.81 74.0895 65.89 75.3795 66.3C75.7195 66.41 76.0795 66.43 76.4395 66.43C81.2395 66.43 86.0295 66.43 90.8295 66.43C91.1895 66.43 91.3195 66.51 91.3095 66.9C91.2895 68.38 91.2895 69.87 91.3095 71.35C91.3095 71.67 91.2195 71.73 90.9195 71.73C88.3495 71.72 85.7795 71.73 83.2095 71.73L83.1895 71.7Z" fill="black"/>
<path d="M100.82 29.78C103.5 27.67 106.1 25.63 108.7 23.59C109.75 22.77 110.79 21.94 111.83 21.11C111.93 21.03 112.02 21.02 112.13 21.02C114.27 21.02 116.42 21.02 118.56 21.02C118.6 21.02 118.63 21.04 118.77 21.07C113.85 24.94 108.99 28.76 104.09 32.61C108.979 36.48 113.83 40.32 118.71 44.18C118.56 44.29 118.43 44.25 118.32 44.25C116.31 44.25 114.309 44.25 112.299 44.25C112.069 44.25 111.89 44.2 111.7 44.05C108.2 41.27 104.69 38.5 101.18 35.72C101.09 35.65 101.009 35.54 100.869 35.53C100.789 35.67 100.83 35.82 100.83 35.97C100.83 38.59 100.83 41.22 100.83 43.84C100.83 44.16 100.75 44.26 100.42 44.25C98.9095 44.23 97.3995 44.24 95.8895 44.25C95.5995 44.25 95.4895 44.2 95.4895 43.87C95.4995 36.36 95.4895 28.85 95.4895 21.34C95.4895 21.06 95.5695 21 95.8395 21C97.3795 21.01 98.9195 21.01 100.46 21C100.79 21 100.84 21.12 100.84 21.41C100.84 24.02 100.84 26.63 100.84 29.24C100.84 29.39 100.84 29.53 100.84 29.77L100.82 29.78Z" fill="black"/>
</g>
<defs>
<clipPath id="clip0_559_45">
<rect width="187" height="92" fill="white"/>
</clipPath>
</defs>
</svg>
