<svg width="188" height="92" viewBox="0 0 188 92" fill="none" xmlns="http://www.w3.org/2000/svg">
<g clip-path="url(#clip0_559_131)">
<path d="M187.27 0H0V91.59H187.27V0Z" fill="white"/>
<path d="M51.6301 31H59.6001L65.7201 52.35L70.59 31H79.0501L70.3301 63H62.4901L55.7701 40.64L48.7401 63H40.9001L32.1801 31H40.6401L45.5101 52.35L51.6301 31Z" fill="#040000"/>
<path d="M103 36.81V31H89.2001H82.9601H82.0601V63H82.9601H89.2001H103V57.19H89.2001V49.9H103V44.1H89.2001V36.81H103Z" fill="#040000"/>
<path d="M127.07 36.81V31H113.26H107.03H106.13V63H107.03H113.26H127.07V57.19H113.26V49.9H127.07V44.1H113.26V36.81H127.07Z" fill="#040000"/>
<path d="M151.14 36.81V31H137.33H131.1H130.2V63H131.1H137.33H151.14V57.19H137.33V49.9H151.14V44.1H137.33V36.81H151.14Z" fill="#040000"/>
</g>
<defs>
<clipPath id="clip0_559_131">
<rect width="187.27" height="91.59" fill="white"/>
</clipPath>
</defs>
</svg>
