<svg width="188" height="92" viewBox="0 0 188 92" fill="none" xmlns="http://www.w3.org/2000/svg">
<g clip-path="url(#clip0_559_106)">
<path d="M187.27 0H0V91.59H187.27V0Z" fill="white"/>
<path d="M56.1901 35.22C59.6501 35.22 62.7301 36.85 64.7201 39.38L69.8501 34.25C66.5301 30.43 61.6401 28 56.1901 28C46.2001 28 38.1101 36.1 38.1101 46.08C38.1101 56.06 46.2101 64.16 56.1901 64.16C61.6501 64.16 66.5401 61.74 69.8501 57.91L64.7201 52.78C62.7301 55.31 59.6501 56.94 56.1901 56.94C50.1901 56.94 45.3301 52.08 45.3301 46.08C45.3301 40.08 50.1901 35.22 56.1901 35.22Z" fill="#040000"/>
<path d="M134.11 56.94C128.11 56.94 123.25 52.08 123.25 46.08C123.25 40.08 128.11 35.22 134.11 35.22C137.57 35.22 140.65 36.85 142.64 39.38L147.77 34.25C144.45 30.43 139.56 28 134.11 28C124.12 28 116.03 36.1 116.03 46.08C116.03 56.06 124.13 64.16 134.11 64.16C139.57 64.16 144.46 61.74 147.77 57.91L142.64 52.78C140.65 55.31 137.57 56.94 134.11 56.94Z" fill="#040000"/>
<path d="M109.87 52.38C110.6 50.42 111.02 48.3 111.02 46.08C111.02 36.09 102.92 28 92.9401 28C82.9601 28 74.8601 36.1 74.8601 46.08C74.8601 56.06 82.9601 64.16 92.9401 64.16C98.0201 64.16 102.6 62.06 105.88 58.69C108.34 59.84 111.08 60.59 113.69 60.59C113.89 60.59 114.08 60.59 114.27 60.58L113.94 53.21C112.7 53.27 111.26 52.92 109.86 52.37L109.87 52.38ZM92.9401 35.22C98.9401 35.22 103.8 40.08 103.8 46.08C103.8 46.72 103.73 47.35 103.63 47.96C101.01 45.43 96.6901 41.96 91.0801 42.37C88.0801 42.59 84.9901 43.7 82.1101 45.54C82.3901 39.79 87.1201 35.21 92.9401 35.21V35.22ZM92.9401 56.94C89.5301 56.94 86.4901 55.37 84.5001 52.91C86.7901 51.05 89.3301 49.9 91.6101 49.73C94.3001 49.54 96.7701 51.46 99.6401 54.4C99.6801 54.44 99.7301 54.48 99.7701 54.52C97.9001 56.03 95.5301 56.94 92.9501 56.94H92.9401Z" fill="#040000"/>
</g>
<defs>
<clipPath id="clip0_559_106">
<rect width="187.27" height="91.59" fill="white"/>
</clipPath>
</defs>
</svg>
