<svg width="188" height="92" viewBox="0 0 188 92" fill="none" xmlns="http://www.w3.org/2000/svg">
<g clip-path="url(#clip0_559_113)">
<path d="M187.27 0H0V91.59H187.27V0Z" fill="white"/>
<path d="M63 45C63 31.19 74.19 20 88 20C95.87 20 103.29 23.71 108.01 30.01L93.69 44.63C93.69 44.63 92.7 45.83 91.88 45.71C90.17 45.47 90.42 44.06 90.42 44.06L89.33 36.95C89.33 36.95 89.33 34.93 88.62 34.59C87.91 34.26 85.07 33.57 83.84 34.76C82.61 35.95 80.44 38.05 80.28 38.85C80.11 39.64 79.86 42.11 80.2 47.49C80.53 52.87 80.57 54.35 80.99 55.15C81.41 55.94 82.22 56.88 83.72 57.97C85.23 59.05 86.71 59.93 87.91 59.76C89.12 59.6 89.68 59.07 90.94 58.13C91.53 57.69 95.84 53.87 101.69 48.01C105.15 44.51 108.52 40.93 111.8 37.26C116.07 50.39 108.89 64.49 95.76 68.76C93.26 69.57 90.65 69.99 88.02 69.98C74.21 69.98 63.02 58.79 63.02 44.99" fill="#040000"/>
</g>
<defs>
<clipPath id="clip0_559_113">
<rect width="187.27" height="91.59" fill="white"/>
</clipPath>
</defs>
</svg>
