<svg width="187" height="92" viewBox="0 0 187 92" fill="none" xmlns="http://www.w3.org/2000/svg">
<g clip-path="url(#clip0_559_77)">
<path d="M186.9 0H0V92H186.9V0Z" fill="white"/>
<path d="M93.2501 70.79C79.2201 70.79 67.8701 59.42 67.8701 45.38C67.8701 31.36 79.3001 19.93 93.3901 19.99C107.35 20.05 118.75 31.46 118.67 45.55C118.59 59.45 107.26 70.81 93.2601 70.78L93.2501 70.79ZM115.35 45.4C115.35 33.25 105.47 23.33 93.3401 23.31C81.1101 23.29 71.2001 33.16 71.1801 45.36C71.1701 57.57 81.0701 67.48 93.2601 67.48C105.45 67.48 115.33 57.59 115.34 45.4H115.35Z" fill="black"/>
<path d="M89.2302 41.98C89.1202 42.07 89.1602 42.17 89.1602 42.26C89.1602 45.68 89.1602 49.1 89.1602 52.52C89.1602 52.74 89.1002 52.79 88.8902 52.78C87.9802 52.77 87.0702 52.78 86.1602 52.78C86.0102 52.78 85.9702 52.74 85.9702 52.59C85.9702 47.8 85.9702 43.02 85.9702 38.23C85.9702 38.07 86.0002 38.03 86.1702 38.03C87.6902 38.03 89.2102 38.03 90.7302 38.03C90.8802 38.03 90.9302 38.06 90.9802 38.23C91.1802 39 91.3502 39.77 91.5302 40.54C91.7502 41.45 91.9802 42.36 92.1802 43.28C92.2902 43.81 92.4402 44.33 92.5702 44.85C92.7802 45.73 92.9902 46.62 93.2002 47.51C93.2102 47.57 93.2302 47.63 93.2802 47.71C93.3602 47.4 93.4302 47.12 93.5002 46.83C93.8102 45.52 94.1302 44.21 94.4402 42.9C94.6802 41.9 94.9102 40.9 95.1502 39.91C95.2902 39.32 95.4302 38.74 95.5702 38.15C95.6002 38 95.7002 38.03 95.8002 38.03C96.7102 38.03 97.6202 38.03 98.5302 38.03C99.1502 38.03 99.7802 38.03 100.4 38.03C100.55 38.03 100.61 38.05 100.61 38.22C100.61 43.01 100.61 47.79 100.61 52.58C100.61 52.74 100.57 52.78 100.41 52.78C99.4802 52.78 98.5502 52.78 97.6102 52.78C97.4302 52.78 97.3702 52.74 97.3702 52.55C97.3702 49.08 97.3702 45.61 97.3702 42.14C97.3702 42.06 97.3702 41.98 97.3702 41.84C97.2502 42.09 97.2202 42.3 97.1702 42.51C97.0302 43.08 96.9002 43.66 96.7602 44.23C96.3602 45.86 95.9602 47.49 95.5602 49.11C95.3202 50.09 95.0802 51.07 94.8402 52.05C94.7902 52.25 94.7402 52.44 94.7002 52.64C94.6802 52.74 94.6302 52.77 94.5402 52.77C93.6702 52.77 92.8102 52.77 91.9402 52.77C91.8702 52.77 91.8302 52.76 91.8202 52.67C91.6802 51.97 91.4902 51.29 91.3202 50.6C90.9502 49.1 90.5902 47.59 90.2302 46.08C89.9802 45.06 89.7302 44.04 89.4802 43.01C89.4002 42.67 89.3102 42.33 89.2202 41.97L89.2302 41.98Z" fill="black"/>
<path d="M74.7102 45.4C74.7102 43.02 74.7102 40.64 74.7102 38.26C74.7102 38.08 74.7402 38.02 74.9402 38.02C78.2002 38.02 81.4602 38.02 84.7202 38.02C84.8902 38.02 84.9502 38.05 84.9502 38.24C84.9402 39.16 84.9502 40.09 84.9502 41.01C84.9502 41.18 84.9002 41.21 84.7502 41.21C82.6302 41.21 80.5102 41.21 78.3902 41.21C78.2002 41.21 78.1402 41.24 78.1502 41.45C78.1702 42.17 78.1902 42.9 78.1502 43.62C78.1302 43.9 78.2402 43.88 78.4302 43.88C80.3902 43.88 82.3602 43.88 84.3202 43.88C84.4802 43.88 84.5402 43.91 84.5402 44.09C84.5402 44.96 84.5402 45.82 84.5402 46.69C84.5402 46.88 84.5002 46.94 84.3002 46.94C82.3602 46.94 80.4202 46.94 78.4702 46.94C78.1602 46.94 78.1702 46.94 78.1702 47.24C78.1702 47.94 78.1702 48.64 78.1702 49.35C78.1702 49.52 78.2102 49.58 78.3902 49.58C80.2602 49.58 82.1302 49.58 84.0002 49.58C84.2902 49.58 84.5802 49.61 84.8602 49.61C84.9502 49.61 84.9702 49.65 84.9702 49.73C84.9702 50.71 84.9702 51.69 84.9702 52.68C84.9702 52.77 84.9402 52.81 84.8502 52.8C84.8102 52.8 84.7602 52.8 84.7202 52.8C81.4702 52.8 78.2302 52.8 74.9802 52.8C74.7902 52.8 74.7302 52.76 74.7302 52.56C74.7302 50.18 74.7302 47.8 74.7302 45.42L74.7102 45.4Z" fill="black"/>
<path d="M113.35 47.06C113.23 47.79 113.13 48.52 112.89 49.22C112.65 49.94 112.35 50.63 111.85 51.23C111.32 51.85 110.69 52.3 109.94 52.59C109.5 52.76 109.05 52.87 108.58 52.94C108.09 53 107.59 53.05 107.09 53.03C106.18 52.99 105.28 52.84 104.46 52.42C103.65 52.01 103.01 51.4 102.54 50.62C102.01 49.76 101.72 48.82 101.56 47.84C101.38 46.77 101.33 45.69 101.39 44.61C101.44 43.67 101.54 42.73 101.82 41.82C102.13 40.81 102.59 39.88 103.38 39.15C104.08 38.51 104.9 38.11 105.84 37.93C106.42 37.82 106.99 37.75 107.57 37.77C108.59 37.81 109.59 37.94 110.51 38.46C111.25 38.88 111.81 39.47 112.23 40.2C112.8 41.18 113.08 42.26 113.25 43.36C113.25 43.38 113.25 43.4 113.26 43.42C113.35 43.79 113.35 43.78 112.98 43.78C112 43.78 111.01 43.78 110.03 43.78C109.87 43.78 109.8 43.75 109.76 43.58C109.63 42.95 109.44 42.33 109.04 41.81C108.69 41.35 108.22 41.1 107.64 41.03C107.23 40.98 106.85 41.03 106.48 41.17C105.95 41.37 105.61 41.77 105.35 42.26C105.04 42.85 104.91 43.49 104.82 44.15C104.74 44.77 104.72 45.38 104.75 46C104.8 46.86 104.91 47.71 105.29 48.5C105.74 49.42 106.49 49.84 107.48 49.8C108.16 49.77 108.74 49.48 109.16 48.9C109.54 48.38 109.73 47.79 109.81 47.16C109.82 47.06 109.86 47.04 109.95 47.03C110.61 46.99 111.28 46.99 111.94 47.03C112.38 47.05 112.81 47.04 113.25 47.06C113.29 47.06 113.32 47.06 113.36 47.06H113.35Z" fill="black"/>
</g>
<defs>
<clipPath id="clip0_559_77">
<rect width="186.9" height="92" fill="white"/>
</clipPath>
</defs>
</svg>
