<svg width="187" height="92" viewBox="0 0 187 92" fill="none" xmlns="http://www.w3.org/2000/svg">
<g clip-path="url(#clip0_559_3)">
<path d="M187 0H0V92H187V0Z" fill="white"/>
<path d="M50.46 51.06H49.15V21H50.46V51.06ZM53.09 51.06H51.78V21H53.09V51.06ZM55.72 51.06H54.41V21H55.72V51.06ZM58.35 51.06H57.04V21H71.59V22.31H58.35V23.62H71.59V24.93H58.35V26.24H71.59V27.55H58.35V34.09H70.97V35.4H58.35V36.71H70.97V38.02H58.35V39.33H70.97V40.64H58.35V51.1V51.06Z" fill="#040000"/>
<path d="M91.5501 51.06H74.6901V21H91.5501C93.9201 21 96.1401 21.67 98.2001 23.02C100.26 24.37 101.9 26.19 103.12 28.5C104.34 30.81 104.96 33.32 104.96 36.03C104.96 38.06 104.6 40.01 103.87 41.87C103.15 43.73 102.18 45.33 100.98 46.67C99.7701 48.01 98.3501 49.08 96.7001 49.87C95.0501 50.66 93.3401 51.06 91.5601 51.06H91.5501ZM76.0001 49.76H91.5401C93.1301 49.76 94.6701 49.4 96.1601 48.67C97.6401 47.94 98.9301 46.97 100.01 45.75C101.09 44.53 101.96 43.07 102.61 41.37C103.26 39.67 103.59 37.89 103.59 36.04C103.59 34.19 103.26 32.42 102.61 30.72C101.96 29.03 101.09 27.56 100.01 26.34C98.9301 25.11 97.6401 24.13 96.1601 23.41C94.6701 22.68 93.1301 22.32 91.5401 22.32H76.0001V49.77V49.76ZM77.3201 48.45V23.62H91.5501C93.4501 23.62 95.2201 24.17 96.8601 25.28C98.5001 26.39 99.8101 27.9 100.79 29.81C101.76 31.72 102.25 33.8 102.25 36.04C102.25 38.28 101.76 40.35 100.79 42.27C99.8201 44.18 98.5101 45.69 96.8601 46.8C95.2201 47.91 93.4501 48.46 91.5501 48.46H77.3201V48.45ZM78.6301 47.14H91.5401C93.2101 47.14 94.7601 46.64 96.1901 45.65C97.6201 44.66 98.7601 43.31 99.6101 41.6C100.46 39.89 100.89 38.04 100.89 36.03C100.89 34.02 100.46 32.18 99.6101 30.47C98.7601 28.76 97.6101 27.4 96.1801 26.41C94.7401 25.42 93.2001 24.92 91.5401 24.92H78.6301V47.14ZM79.9501 45.84V26.23H91.5501C92.9701 26.23 94.3001 26.67 95.5301 27.54C96.7601 28.41 97.7401 29.6 98.4601 31.11C99.1801 32.62 99.5501 34.26 99.5501 36.04C99.5501 37.82 99.1901 39.45 98.4601 40.96C97.7401 42.47 96.7601 43.67 95.5301 44.54C94.3001 45.41 92.9701 45.85 91.5501 45.85H79.9501V45.84ZM81.2601 44.53H91.5401C93.3501 44.53 94.9201 43.7 96.2201 42.03C97.5301 40.37 98.1801 38.37 98.1801 36.03C98.1801 34.49 97.8801 33.07 97.2801 31.76C96.6801 30.45 95.8701 29.42 94.8501 28.66C93.8301 27.9 92.7301 27.53 91.5401 27.53H81.2601V44.52V44.53ZM82.5801 43.22V28.84H91.5501C93.0001 28.84 94.2401 29.55 95.2801 30.95C96.3201 32.36 96.8401 34.05 96.8401 36.02C96.8401 37.99 96.3201 39.7 95.2801 41.1C94.2401 42.5 92.9901 43.21 91.5501 43.21H82.5801V43.22ZM83.8901 41.91H91.5401C92.6201 41.91 93.5501 41.34 94.3201 40.19C95.0901 39.04 95.4801 37.65 95.4801 36.03C95.4801 34.41 95.0901 33.01 94.3201 31.86C93.5501 30.71 92.6201 30.14 91.5401 30.14H83.8901V41.9V41.91Z" fill="#040000"/>
<path d="M106.26 51.06H104.84L116.8 21H118.22L130.16 51.06H128.75L117.5 22.76L106.25 51.06H106.26ZM117.68 25.87L118.43 27.54L109.08 51.07H107.67L117.68 25.87ZM119.14 29.32L119.83 31.12L111.92 51.07H110.5L119.14 29.32ZM120.53 32.91L121.22 34.74L114.74 51.06H113.33L120.53 32.91ZM116.95 47.47L117.46 46.16H126.08L126.63 47.47H116.95ZM117.97 44.86L118.48 43.55H125.04L125.61 44.86H117.98H117.97ZM118.99 42.24L119.52 40.93H124.01L124.54 42.24H118.99ZM121.04 21L133 51.06H131.58L119.64 21H121.05H121.04ZM123.87 21L135.83 51.06H134.42L122.46 21H123.87ZM138.66 51.06H137.24L125.3 21H126.71L138.67 51.06H138.66Z" fill="#040000"/>
<path d="M65.24 67.42C64.37 66.97 63.67 66.3 63.15 65.41C62.63 64.52 62.36 63.43 62.36 62.16C62.36 60.89 62.62 59.81 63.15 58.92C63.68 58.03 64.38 57.36 65.25 56.91C66.12 56.46 67.07 56.23 68.09 56.23C68.99 56.23 69.8 56.39 70.53 56.71C71.26 57.03 71.86 57.5 72.33 58.11C72.8 58.72 73.09 59.45 73.2 60.3H71.22C71.1 59.56 70.75 58.97 70.17 58.53C69.59 58.09 68.89 57.87 68.07 57.87C67.34 57.87 66.68 58.04 66.11 58.37C65.54 58.7 65.09 59.19 64.76 59.84C64.43 60.49 64.27 61.26 64.27 62.15C64.27 63.04 64.43 63.83 64.76 64.47C65.09 65.11 65.54 65.6 66.11 65.94C66.68 66.27 67.34 66.44 68.07 66.44C68.9 66.44 69.6 66.23 70.16 65.8C70.72 65.38 71.07 64.78 71.21 64.02H73.2C72.98 65.33 72.41 66.34 71.47 67.04C70.54 67.74 69.4 68.1 68.08 68.1C67.04 68.1 66.09 67.87 65.22 67.42H65.24Z" fill="#040000"/>
<path d="M75.66 56.3501H77.54V66.2901H83.16V67.9701H75.66V56.3601V56.3501Z" fill="#040000"/>
<path d="M85.21 56.3501H92.79V57.9901H87.09V60.9901H91.69V62.6301H87.09V66.3001H92.97V67.9601H85.21V56.3501Z" fill="#040000"/>
<path d="M99.15 56.3501H101.14L105.68 67.9601H103.65L102.6 65.1901H97.63L96.59 67.9601H94.63L99.15 56.3501ZM101.98 63.5701L100.1 58.6401L98.24 63.5701H101.98Z" fill="#040000"/>
<path d="M107.65 56.3501H112.54C113.7 56.3501 114.61 56.6601 115.28 57.2701C115.95 57.8801 116.28 58.7201 116.28 59.7801C116.28 60.4501 116.12 61.0401 115.79 61.5601C115.46 62.0801 115 62.4701 114.42 62.7301C114.83 62.9101 115.15 63.1601 115.37 63.4801C115.59 63.8001 115.76 64.2201 115.88 64.7401L116.27 66.6201C116.38 67.2001 116.53 67.6501 116.72 67.9601H114.69C114.52 67.7001 114.4 67.3801 114.35 66.9801L114.03 65.1301C113.91 64.4401 113.64 63.9501 113.21 63.6501C112.78 63.3501 112.13 63.2001 111.26 63.2001H109.53V67.9701H107.65V56.3601V56.3501ZM113.82 61.0801C114.18 60.7701 114.36 60.3401 114.36 59.7801C114.36 59.2201 114.18 58.7901 113.82 58.4801C113.46 58.1701 112.95 58.0101 112.3 58.0101H109.53V61.5401H112.3C112.95 61.5401 113.45 61.3901 113.82 61.0801Z" fill="#040000"/>
<path d="M119.15 56.3501H126.73V57.9901H121.03V60.9901H125.63V62.6301H121.03V66.3001H126.91V67.9601H119.15V56.3501Z" fill="#040000"/>
<path d="M129.26 56.3501H132.91C134.01 56.3501 135.01 56.5701 135.91 57.0201C136.81 57.4701 137.52 58.1201 138.05 58.9901C138.58 59.8601 138.84 60.9101 138.84 62.1501C138.84 63.3901 138.58 64.4401 138.05 65.3201C137.52 66.2001 136.81 66.8601 135.91 67.3001C135.01 67.7501 134.01 67.9701 132.91 67.9701H129.26V56.3601V56.3501ZM134.84 65.8701C135.46 65.5801 135.96 65.1301 136.34 64.5101C136.72 63.8901 136.91 63.1101 136.91 62.1501C136.91 61.1901 136.72 60.4201 136.34 59.8101C135.96 59.2001 135.46 58.7401 134.84 58.4501C134.22 58.1601 133.54 58.0101 132.79 58.0101H131.14V66.3101H132.79C133.54 66.3101 134.22 66.1701 134.84 65.8701Z" fill="#040000"/>
<path d="M138.83 53.51H49V54.37H138.83V53.51Z" fill="#040000"/>
<path d="M138.83 70.25H49V71.11H138.83V70.25Z" fill="#040000"/>
<path d="M54.4 56.25L49.17 57.77V60.88C49.17 64.15 51.28 67.06 54.4 68.1C57.52 67.07 59.63 64.16 59.63 60.89V57.78L54.4 56.26V56.25ZM53.77 63.79L51.76 61.79L52.24 61.32L53.77 62.85L56.58 60.06L57.06 60.54L53.78 63.8L53.77 63.79Z" fill="#040000"/>
</g>
<defs>
<clipPath id="clip0_559_3">
<rect width="187" height="92" fill="white"/>
</clipPath>
</defs>
</svg>
