<svg width="187" height="92" viewBox="0 0 187 92" fill="none" xmlns="http://www.w3.org/2000/svg">
<g clip-path="url(#clip0_559_71)">
<path d="M186.94 0H0V92H186.94V0Z" fill="white"/>
<path d="M64.3999 20.5601H74.5099V71.0001H64.3999V20.5601Z" fill="black"/>
<path d="M114.82 22.5501C117.88 23.8701 120.56 25.6701 122.88 27.9501L115.75 35.0801C112.75 32.1201 109.18 30.6401 105.05 30.6401C100.92 30.6401 97.3198 32.1301 94.3698 35.1001C91.4198 38.0701 89.9398 41.6301 89.9398 45.7901C89.9398 49.9501 91.4198 53.5201 94.3698 56.4701C97.3198 59.4201 100.88 60.9001 105.05 60.9001C109.22 60.9001 112.79 59.4201 115.75 56.4601L122.88 63.5901C120.56 65.8801 117.88 67.6901 114.82 69.0201C111.76 70.3401 108.51 71.0101 105.04 71.0101C98.0898 71.0101 92.1498 68.5401 87.2198 63.6101C82.2898 58.6801 79.8198 52.7401 79.8198 45.7901C79.8198 38.8401 82.2898 32.9301 87.2198 27.9901C92.1498 23.0501 98.0898 20.5701 105.04 20.5701C108.5 20.5701 111.76 21.2301 114.82 22.5601V22.5501Z" fill="black"/>
</g>
<defs>
<clipPath id="clip0_559_71">
<rect width="186.94" height="92" fill="white"/>
</clipPath>
</defs>
</svg>
