<svg width="187" height="92" viewBox="0 0 187 92" fill="none" xmlns="http://www.w3.org/2000/svg">
<g clip-path="url(#clip0_559_102)">
<path d="M187 0H0V92H187V0Z" fill="white"/>
<path fill-rule="evenodd" clip-rule="evenodd" d="M64.85 20.6299V70.4599H121.75V20.6299H64.85ZM82.98 31.6899C82.98 30.0499 84.51 28.8899 85.55 28.8899H96.29V30.9699H88.34C87.25 30.9699 87.27 31.9499 87.27 32.5099V37.5199C87.27 38.0299 87.11 38.6199 87.94 38.6199H94.22V40.2599H87.79C87.01 40.2599 87.28 41.2799 87.28 41.8999V47.8399C87.28 48.6299 87.9 49.2499 89.19 49.2499H96.5V51.0799H86.19C84.17 51.0799 82.99 48.9099 82.99 47.6099V31.6799L82.98 31.6899ZM72.79 29.3999H77.2V51.1299H72.79V29.3999ZM72.79 56.4199H110.54C110.48 56.4399 110.34 56.5199 110.02 56.7999C109.63 57.1399 109.51 57.3499 109.51 57.3499H72.79V56.4199ZM72.79 58.8899H109.16V59.9399H72.79V58.8899ZM72.79 62.5199V61.5999H109.5C109.5 61.5999 109.67 61.7799 109.89 62.0199C110.32 62.4999 110.56 62.5299 110.56 62.5299H72.79V62.5199ZM113.1 62.6499C111.56 62.6499 110.31 61.2299 110.31 59.4699C110.31 57.7099 111.56 56.2899 113.1 56.2899C114.64 56.2899 115.89 57.7099 115.89 59.4699C115.89 61.2299 114.64 62.6499 113.1 62.6499ZM107.74 51.5799C103.8 51.5799 97.26 48.5199 97.26 40.2099C97.26 32.5699 103.02 28.4399 107.43 28.4399C112.82 28.4399 115.21 32.5099 115.21 32.5099L114.12 33.6399C114.12 33.6399 111.9 30.1299 108.01 30.1299C104.84 30.1299 101.41 32.1699 101.41 40.1999C101.41 47.4399 105.47 49.9599 108.01 49.9599C112.13 49.9599 114.89 45.0099 114.89 45.0099L115.93 45.9699C115.93 45.9699 113.75 51.5699 107.74 51.5699V51.5799Z" fill="#040000"/>
</g>
<defs>
<clipPath id="clip0_559_102">
<rect width="187" height="92" fill="white"/>
</clipPath>
</defs>
</svg>
