<svg width="187" height="92" viewBox="0 0 187 92" fill="none" xmlns="http://www.w3.org/2000/svg">
<g clip-path="url(#clip0_559_53)">
<path d="M187 0H0V92H187V0Z" fill="white"/>
<path d="M80.74 54.18C80.74 50.45 80.74 46.73 80.73 43C80.73 42.54 80.87 42.46 81.29 42.46C85.29 42.48 89.29 42.44 93.3 42.48C96.82 42.51 99.36 44.2 100.95 47.31C101.57 48.53 101.88 49.83 101.85 51.22C101.81 53.27 101.81 55.32 101.85 57.37C101.92 60.59 99.86 64.42 95.67 65.6C94.78 65.85 93.88 66 92.96 65.99C89.07 65.98 85.18 65.98 81.29 65.99C80.87 65.99 80.72 65.91 80.73 65.45C80.75 61.69 80.74 57.93 80.74 54.17V54.18ZM86.12 54.17C86.12 56.17 86.12 58.17 86.12 60.17C86.12 60.41 86.1 60.61 86.45 60.61C88.77 60.59 91.1 60.64 93.41 60.56C95.25 60.49 96.44 59.18 96.45 57.34C96.47 55.21 96.45 53.08 96.44 50.95C96.43 49.24 95.03 47.85 93.32 47.84C91.08 47.84 88.84 47.84 86.6 47.83C86.23 47.83 86.1 47.92 86.11 48.31C86.13 50.26 86.11 52.21 86.11 54.16L86.12 54.17Z" fill="black"/>
<path d="M55.12 42.61C54.96 42.74 54.78 42.85 54.63 43C51.11 46.48 47.59 49.97 44.06 53.44C43.77 53.72 43.77 53.86 44.06 54.15C47.85 57.93 51.63 61.73 55.42 65.52C55.54 65.64 55.68 65.75 55.82 65.88C55.65 66.07 55.48 65.99 55.34 65.99C53.19 65.99 51.05 65.99 48.9 66C48.57 66 48.33 65.9 48.1 65.67C45.02 62.57 41.93 59.47 38.84 56.38C38.72 56.26 38.59 56.14 38.45 56.01C38.31 56.19 38.37 56.37 38.37 56.54C38.37 59.52 38.36 62.51 38.37 65.49C38.37 65.88 38.29 66.01 37.87 66.01C36.4 65.98 34.93 65.99 33.47 66.01C33.13 66.01 33 65.95 33 65.57C33.01 58.02 33.01 50.47 33 42.92C33 42.55 33.11 42.47 33.46 42.47C34.94 42.49 36.43 42.49 37.91 42.47C38.28 42.47 38.37 42.57 38.36 42.93C38.35 45.91 38.36 48.9 38.36 51.88C38.36 52.06 38.36 52.23 38.36 52.43C38.59 52.41 38.68 52.24 38.79 52.12C41.89 49.02 44.99 45.91 48.08 42.8C48.31 42.56 48.54 42.46 48.88 42.46C50.93 42.48 52.97 42.46 55.02 42.46C55.05 42.51 55.08 42.56 55.12 42.61Z" fill="black"/>
<path d="M101.64 65.99C102.63 63.67 103.6 61.42 104.56 59.17C106.38 54.92 108.19 50.68 110.01 46.4301C110.41 45.4901 110.88 44.6 111.55 43.82C113.58 41.48 116.87 41.63 118.85 44.16C119.33 44.7701 119.72 45.44 120.02 46.16C122.64 52.6 125.44 58.9601 128.12 65.3701C128.2 65.5601 128.27 65.7501 128.37 65.9801C126.32 65.9801 124.32 65.9801 122.32 65.9801C122.01 65.9801 122.01 65.74 121.94 65.57C120.47 61.83 119 58.0801 117.53 54.3401C116.86 52.6301 116.18 50.93 115.5 49.23C115.47 49.16 115.44 49.08 115.41 49.01C115.32 48.79 115.24 48.5001 114.96 48.5001C114.68 48.5001 114.61 48.8001 114.53 49.0201C113.23 52.4201 111.94 55.81 110.65 59.21C109.84 61.34 109.03 63.48 108.21 65.6101C108.14 65.8001 108.1 65.99 107.8 65.99C105.77 65.98 103.74 65.99 101.63 65.99H101.64Z" fill="black"/>
<path d="M58.38 54.21C58.38 50.45 58.38 46.69 58.38 42.93C58.38 42.54 58.49 42.46 58.86 42.46C64.68 42.47 70.51 42.47 76.33 42.46C76.69 42.46 76.8 42.54 76.79 42.91C76.76 44.04 76.76 45.17 76.79 46.3C76.8 46.71 76.65 46.77 76.29 46.77C72.21 46.76 68.13 46.77 64.04 46.75C63.55 46.75 63.41 46.87 63.42 47.36C63.46 48.79 63.46 50.23 63.42 51.67C63.41 52.19 63.58 52.27 64.04 52.27C67.51 52.25 70.98 52.27 74.45 52.25C74.81 52.25 74.95 52.31 74.94 52.72C74.91 53.85 74.91 54.98 74.94 56.11C74.95 56.54 74.8 56.6 74.42 56.6C71.02 56.59 67.61 56.6 64.21 56.58C63.68 56.58 63.59 56.74 63.59 57.22C63.61 59.98 63.59 62.74 63.61 65.5C63.61 65.88 63.54 66.03 63.12 66.02C61.7 65.99 60.28 65.99 58.86 66.02C58.43 66.02 58.37 65.89 58.37 65.5C58.38 61.74 58.37 57.98 58.37 54.22L58.38 54.21Z" fill="black"/>
<path d="M153.26 32.7302C153.26 37.2902 150.17 41.0902 145.77 42.0402C145.44 42.1102 145.3 42.0602 145.22 41.6802C144.1 35.9902 140.92 31.8602 135.72 29.2902C135.31 29.0902 135.28 28.9402 135.48 28.5602C137.32 24.9802 141.3 22.9102 145.21 23.5002C149.25 24.1202 152.42 27.1902 153.13 31.1802C153.23 31.7202 153.29 32.2602 153.25 32.7202L153.26 32.7302Z" fill="black"/>
<path d="M126.51 20.0001C130.74 20.0001 133.85 23.7401 133.11 27.8401C133.05 28.1501 132.97 28.2601 132.61 28.1701C128.6 27.2001 124.72 27.6001 121 29.3901C120.71 29.5301 120.6 29.5001 120.47 29.2101C118.79 25.3601 121.3 20.7501 125.44 20.0901C125.82 20.0301 126.21 19.9901 126.51 20.0001Z" fill="black"/>
<path d="M151.91 50.89C151.82 53.52 150.67 55.55 148.32 56.76C146 57.96 143.69 57.76 141.49 56.34C141.18 56.14 141.16 56.03 141.41 55.74C143.68 53.1 144.98 50.03 145.4 46.58C145.48 45.94 145.5 45.29 145.5 44.65C145.5 44.35 145.58 44.28 145.88 44.29C148.34 44.38 150.81 46.36 151.6 48.89C151.8 49.54 151.93 50.2 151.91 50.89Z" fill="black"/>
<path d="M143.49 42.2101C139.03 42.0901 135.11 38.5101 134.57 34.1201C134.44 33.0501 134.47 32.0001 134.66 30.9501C134.73 30.5801 134.82 30.5401 135.15 30.7001C139.06 32.6501 141.75 35.6701 143.19 39.8001C143.43 40.4801 143.59 41.1901 143.74 41.9001C143.8 42.1701 143.74 42.2801 143.5 42.2201L143.49 42.2101Z" fill="black"/>
<path d="M110.18 34.2801C110.26 32.7501 111.13 31.2301 112.9 30.3301C114.65 29.4401 116.38 29.6101 118.03 30.6901C118.37 30.9101 118.33 31.0301 118.03 31.2601C115.56 33.1801 113.75 35.6101 112.61 38.5201C112.44 38.9501 112.3 38.8701 112.03 38.6501C110.84 37.6801 110.17 36.2801 110.18 34.2801Z" fill="black"/>
<path d="M133.63 64.9201C132.08 64.8401 130.59 63.9301 129.64 62.1301C129.48 61.8201 129.45 61.6701 129.9 61.6401C133.03 61.4101 135.86 60.3401 138.4 58.5201C138.77 58.2601 138.85 58.3101 138.95 58.7201C139.73 61.9101 137.38 64.9201 133.63 64.9201Z" fill="black"/>
<path d="M140.07 54.9502C137.09 51.3202 139.12 45.4602 143.66 44.4502C144.05 44.3602 143.97 44.5802 143.97 44.7802C143.97 47.7202 143.16 50.4202 141.61 52.9102C141.16 53.6302 140.66 54.3202 140.07 54.9502Z" fill="black"/>
<path d="M132.44 29.7001C130.15 33.9801 124.38 34.4001 121.52 30.8401C125.02 29.1201 128.64 28.7601 132.44 29.7001Z" fill="black"/>
<path d="M129.15 59.7101C129.2 57.7401 130.57 55.9301 132.48 55.2601C134.35 54.6001 136.59 55.1701 137.82 56.6201C138.01 56.8401 137.98 56.9501 137.76 57.1101C135.51 58.7701 133.01 59.7901 130.23 60.0901C130.05 60.1101 129.88 60.1201 129.7 60.1601C129.28 60.2401 129.02 60.1601 129.15 59.7201V59.7101Z" fill="black"/>
<path d="M120.14 34.5402C120.14 37.8802 117.25 40.2602 114.19 39.6502C113.91 39.6002 113.86 39.5002 113.96 39.2402C115.04 36.4702 116.74 34.1702 119.09 32.3502C119.35 32.1502 119.45 32.2202 119.58 32.4802C119.94 33.2002 120.12 33.9602 120.13 34.5302L120.14 34.5402Z" fill="black"/>
</g>
<defs>
<clipPath id="clip0_559_53">
<rect width="187" height="92" fill="white"/>
</clipPath>
</defs>
</svg>
