<svg width="188" height="92" viewBox="0 0 188 92" fill="none" xmlns="http://www.w3.org/2000/svg">
<g clip-path="url(#clip0_559_123)">
<path d="M187.14 0H0V92H187.14V0Z" fill="white"/>
<path d="M96.7201 20.0901C82.5901 20.0301 71.1101 31.5501 71.1201 45.6901C71.1201 59.8501 82.5101 71.3101 96.5901 71.3101C110.64 71.3301 122 59.8801 122.09 45.8601C122.17 31.6501 110.74 20.1401 96.7301 20.0801L96.7201 20.0901ZM96.6001 67.9801C84.3601 67.9801 74.4301 57.9801 74.4401 45.6701C74.4501 33.3701 84.4101 23.4201 96.6701 23.4301C108.84 23.4501 118.76 33.4501 118.75 45.7101C118.75 58.0101 108.82 67.9801 96.5901 67.9801H96.6001Z" fill="#040000"/>
<path d="M93.4702 57.0302H102.03V55.2802H93.4702V50.7102H102.61V48.9502H91.4202V63.8802H102.97V62.1202H93.4702V57.0302Z" fill="#040000"/>
<path d="M95.9902 34.8101C95.9902 34.0401 95.8302 33.3301 95.5202 32.6901C95.2102 32.0501 94.7902 31.5501 94.2802 31.1901C93.7702 30.8301 93.1302 30.5901 92.3702 30.4601C91.8302 30.3601 91.0402 30.3101 90.0202 30.3101H84.1802V45.8701H86.2302V39.5401H90.2002C92.3902 39.5401 93.9002 39.0801 94.7402 38.1701C95.5802 37.2501 96.0002 36.1301 96.0002 34.8101H95.9902ZM93.0402 36.9701C92.4802 37.4701 91.5402 37.7101 90.2202 37.7101H86.2202V32.1501H90.1802C91.1102 32.1501 91.7502 32.2001 92.0902 32.2901C92.6302 32.4401 93.0602 32.7401 93.3802 33.2101C93.7102 33.6701 93.8702 34.2301 93.8702 34.8801C93.8702 35.7801 93.5902 36.4801 93.0402 36.9701Z" fill="#040000"/>
<path d="M107.58 37.6601C106.96 37.3901 105.82 37.0701 104.15 36.7001C102.48 36.3401 101.45 35.9801 101.06 35.6301C100.66 35.2801 100.46 34.8401 100.46 34.3001C100.46 33.6801 100.74 33.1501 101.31 32.7101C101.88 32.2701 102.78 32.0501 104.02 32.0501C105.26 32.0501 106.11 32.2901 106.72 32.7801C107.33 33.2601 107.69 33.9801 107.79 34.9301L109.75 34.7901C109.71 33.9101 109.46 33.1201 108.99 32.4301C108.52 31.7401 107.84 31.2101 106.97 30.8501C106.09 30.4901 105.08 30.3101 103.93 30.3101C102.89 30.3101 101.94 30.4801 101.09 30.8201C100.24 31.1601 99.5901 31.6601 99.1501 32.3201C98.7101 32.9801 98.4801 33.6801 98.4801 34.4401C98.4801 35.1301 98.6601 35.7501 99.0201 36.3001C99.3801 36.8601 99.9301 37.3201 100.67 37.6901C101.24 37.9801 102.24 38.2901 103.66 38.6301C105.08 38.9601 106 39.2001 106.42 39.3601C107.07 39.6001 107.53 39.8901 107.81 40.2401C108.09 40.5901 108.23 41.0001 108.23 41.4701C108.23 41.9401 108.08 42.3601 107.79 42.7501C107.5 43.1401 107.05 43.4501 106.45 43.6701C105.85 43.8901 105.16 44.0101 104.38 44.0101C103.5 44.0101 102.71 43.8601 102 43.5701C101.3 43.2701 100.78 42.8901 100.44 42.4101C100.1 41.9301 99.8901 41.3101 99.8001 40.5701L97.8701 40.7301C97.9001 41.7301 98.1801 42.6301 98.7201 43.4201C99.2601 44.2101 100 44.8101 100.95 45.2001C101.9 45.6001 103.07 45.7901 104.47 45.7901C105.58 45.7901 106.57 45.5901 107.45 45.2001C108.33 44.8101 109.01 44.2601 109.48 43.5501C109.95 42.8401 110.19 42.0901 110.19 41.3001C110.19 40.5101 109.98 39.7901 109.55 39.1701C109.12 38.5501 108.45 38.0401 107.55 37.6401L107.58 37.6601Z" fill="#040000"/>
</g>
<defs>
<clipPath id="clip0_559_123">
<rect width="187.14" height="92" fill="white"/>
</clipPath>
</defs>
</svg>
