<svg width="196" height="27" viewBox="0 0 196 27" fill="none" xmlns="http://www.w3.org/2000/svg">
<path d="M26.4 1.0332C26.48 1.0332 26.52 1.1132 26.52 1.2732C26.52 1.4332 26.48 1.5132 26.4 1.5132C25.3067 1.5132 24.4533 1.8732 23.84 2.5932C23.2267 3.28654 22.92 4.2732 22.92 5.5532L22.88 26.3532C22.88 26.4332 22.8133 26.4865 22.68 26.5132C22.5467 26.5665 22.4133 26.5932 22.28 26.5932C22.0667 26.5932 21.92 26.5399 21.84 26.4332L4.92 4.9132L4.88 21.5132C4.88 22.8199 5.17333 23.8199 5.76 24.5132C6.34667 25.2065 7.18667 25.5532 8.28 25.5532C8.38667 25.5532 8.44 25.6332 8.44 25.7932C8.44 25.9532 8.38667 26.0332 8.28 26.0332C7.58667 26.0332 7.05333 26.0199 6.68 25.9932L4.32 25.9532L2.08 25.9932C1.65333 26.0199 1.05333 26.0332 0.28 26.0332C0.173333 26.0332 0.12 25.9532 0.12 25.7932C0.12 25.6332 0.173333 25.5532 0.28 25.5532C1.37333 25.5532 2.22667 25.2065 2.84 24.5132C3.45333 23.8199 3.76 22.8199 3.76 21.5132L3.8 3.5532C3.13333 2.80654 2.50667 2.28654 1.92 1.9932C1.33333 1.6732 0.746667 1.5132 0.16 1.5132C0.08 1.5132 0.04 1.4332 0.04 1.2732C0.04 1.1132 0.08 1.0332 0.16 1.0332L2.08 1.0732C2.48 1.09987 3.01333 1.1132 3.68 1.1132C4.32 1.1132 4.85333 1.09987 5.28 1.0732C5.73333 1.04654 6.04 1.0332 6.2 1.0332C6.41333 1.0332 6.57333 1.08654 6.68 1.1932C6.78667 1.29987 6.93333 1.49987 7.12 1.7932C7.41333 2.2732 7.72 2.7132 8.04 3.1132L21.76 20.5932L21.8 5.5532C21.8267 4.24653 21.5467 3.24653 20.96 2.5532C20.3733 1.85987 19.52 1.5132 18.4 1.5132C18.2933 1.5132 18.24 1.4332 18.24 1.2732C18.24 1.1132 18.2933 1.0332 18.4 1.0332L19.88 1.0732C20.84 1.12654 21.6667 1.1532 22.36 1.1532C22.8933 1.1532 23.64 1.12654 24.6 1.0732L26.4 1.0332ZM48.0003 19.7932C48.0536 19.7399 48.1203 19.7132 48.2003 19.7132C48.2803 19.7132 48.3603 19.7399 48.4403 19.7932C48.5203 19.8199 48.547 19.8465 48.5203 19.8732C48.2536 21.5532 48.1203 23.4065 48.1203 25.4332C48.1203 25.6465 48.0803 25.8065 48.0003 25.9132C47.9203 25.9932 47.7603 26.0332 47.5203 26.0332H29.4003C29.2936 26.0332 29.2403 25.9532 29.2403 25.7932C29.2403 25.6332 29.2803 25.5532 29.3603 25.5532C30.2136 25.5532 30.827 25.4865 31.2003 25.3532C31.6003 25.2199 31.867 24.9665 32.0003 24.5932C32.1336 24.2199 32.2003 23.6199 32.2003 22.7932V4.2732C32.1736 3.4732 32.0803 2.88654 31.9203 2.5132C31.787 2.13987 31.5203 1.88653 31.1203 1.7532C30.747 1.5932 30.1603 1.5132 29.3603 1.5132C29.2803 1.5132 29.227 1.4332 29.2003 1.2732C29.2003 1.1132 29.227 1.0332 29.2803 1.0332H46.4003C46.6136 1.0332 46.7203 1.1532 46.7203 1.3932L46.8003 6.5532C46.8003 6.65987 46.7203 6.7132 46.5603 6.7132C46.427 6.7132 46.347 6.6732 46.3203 6.5932C46.0003 5.12654 45.307 3.96654 44.2403 3.1132C43.2003 2.2332 41.947 1.7932 40.4803 1.7932H38.7203C37.867 1.7932 37.2536 1.85987 36.8803 1.9932C36.507 2.09987 36.2536 2.32654 36.1203 2.6732C36.0136 2.9932 35.947 3.53987 35.9203 4.3132V12.5132H41.3203C42.6003 12.5132 43.5336 12.2865 44.1203 11.8332C44.707 11.3799 45.0003 10.6199 45.0003 9.5532C45.0003 9.44654 45.0803 9.3932 45.2403 9.3932C45.4536 9.3932 45.547 9.45987 45.5203 9.5932C45.547 10.0732 45.547 10.5399 45.5203 10.9932C45.5203 11.4199 45.5203 11.7265 45.5203 11.9132C45.4936 12.1532 45.4803 12.5265 45.4803 13.0332C45.4803 13.8599 45.4936 14.4865 45.5203 14.9132L45.5603 16.9932C45.5603 17.1265 45.4803 17.1932 45.3203 17.1932C45.267 17.1932 45.2003 17.1799 45.1203 17.1532C45.067 17.0999 45.0403 17.0465 45.0403 16.9932C45.0403 14.6999 43.7603 13.5532 41.2003 13.5532H35.9203V22.6332C35.9203 23.3799 35.987 23.9399 36.1203 24.3132C36.2803 24.6599 36.547 24.8999 36.9203 25.0332C37.2936 25.1665 37.8803 25.2332 38.6803 25.2332H41.0403C42.5603 25.2332 43.947 24.7399 45.2003 23.7532C46.4536 22.7665 47.387 21.4465 48.0003 19.7932ZM86.1766 1.0332C86.3099 1.0332 86.3766 1.1132 86.3766 1.2732C86.3766 1.4332 86.3099 1.5132 86.1766 1.5132C85.2166 1.5132 84.3899 1.77987 83.6966 2.3132C83.0299 2.81987 82.4032 3.84654 81.8166 5.3932L74.0166 25.9932C73.9899 26.0999 73.8166 26.1532 73.4966 26.1532C73.1499 26.1532 72.9632 26.0999 72.9366 25.9932L67.9366 14.9532L63.8166 25.9932C63.7899 26.0999 63.6032 26.1532 63.2566 26.1532C62.9099 26.1532 62.7232 26.0999 62.6966 25.9932L52.9366 4.3532C52.4832 3.3132 52.0166 2.57987 51.5366 2.1532C51.0832 1.72654 50.4832 1.5132 49.7366 1.5132C49.6299 1.5132 49.5766 1.4332 49.5766 1.2732C49.5766 1.1132 49.6166 1.0332 49.6966 1.0332L51.6566 1.0732C52.5632 1.12654 53.2166 1.1532 53.6166 1.1532C54.4166 1.1532 55.3232 1.12654 56.3366 1.0732L57.9766 1.0332C58.0832 1.0332 58.1366 1.1132 58.1366 1.2732C58.1366 1.4332 58.0832 1.5132 57.9766 1.5132C56.8832 1.5132 56.3366 1.9132 56.3366 2.7132C56.3366 3.08654 56.4432 3.49987 56.6566 3.9532L64.4966 21.3532L67.3366 13.5932L63.1366 4.3532C62.6832 3.28654 62.2566 2.5532 61.8566 2.1532C61.4566 1.72654 60.9499 1.5132 60.3366 1.5132C60.2566 1.5132 60.2032 1.4332 60.1766 1.2732C60.1766 1.1132 60.2032 1.0332 60.2566 1.0332C60.6299 1.0332 61.2432 1.05987 62.0966 1.1132L63.8566 1.1532C64.4699 1.1532 65.1499 1.12654 65.8966 1.0732L67.0966 1.0332C67.2299 1.0332 67.2966 1.1132 67.2966 1.2732C67.2966 1.4332 67.2299 1.5132 67.0966 1.5132C66.7766 1.5132 66.5366 1.5532 66.3766 1.6332C66.2432 1.68654 66.1766 1.80654 66.1766 1.9932C66.1766 2.25987 66.4032 2.9132 66.8566 3.9532L69.3766 9.5532L70.9766 5.2332C71.3499 4.24653 71.5366 3.4732 71.5366 2.9132C71.5366 2.4332 71.4032 2.08654 71.1366 1.8732C70.8699 1.6332 70.4432 1.5132 69.8566 1.5132C69.8032 1.5132 69.7766 1.4332 69.7766 1.2732C69.7766 1.1132 69.8032 1.0332 69.8566 1.0332L71.0566 1.0732C71.6966 1.12654 72.2966 1.1532 72.8566 1.1532C73.3099 1.1532 73.8832 1.12654 74.5766 1.0732L76.0566 1.0332C76.1632 1.0332 76.2166 1.1132 76.2166 1.2732C76.2432 1.4332 76.2032 1.5132 76.0966 1.5132C75.2699 1.5132 74.5632 1.76653 73.9766 2.2732C73.4166 2.77987 72.8432 3.81987 72.2566 5.3932L70.0966 11.1132L74.6966 21.3132L80.5766 5.2332C80.7632 4.69987 80.8566 4.1932 80.8566 3.7132C80.8566 3.01987 80.6299 2.48653 80.1766 2.1132C79.7499 1.7132 79.1099 1.5132 78.2566 1.5132C78.1766 1.5132 78.1366 1.4332 78.1366 1.2732C78.1366 1.1132 78.1766 1.0332 78.2566 1.0332L79.9366 1.0732C80.8432 1.12654 81.6832 1.1532 82.4566 1.1532C82.9899 1.1532 83.6299 1.12654 84.3766 1.0732L86.1766 1.0332ZM118.446 1.0332C118.58 1.0332 118.646 1.1132 118.646 1.2732C118.646 1.4332 118.58 1.5132 118.446 1.5132C117.513 1.5132 116.633 1.85987 115.806 2.5532C114.98 3.21987 114.153 4.25987 113.326 5.6732L108.966 13.5932V22.7932C108.993 23.6199 109.073 24.2199 109.206 24.5932C109.366 24.9665 109.66 25.2199 110.086 25.3532C110.513 25.4865 111.206 25.5532 112.166 25.5532C112.273 25.5532 112.326 25.6332 112.326 25.7932C112.326 25.9532 112.273 26.0332 112.166 26.0332C111.286 26.0332 110.593 26.0199 110.086 25.9932L107.126 25.9532L103.966 25.9932C103.46 26.0199 102.78 26.0332 101.926 26.0332C101.82 26.0332 101.766 25.9532 101.766 25.7932C101.766 25.6332 101.82 25.5532 101.926 25.5532C102.886 25.5532 103.593 25.4865 104.046 25.3532C104.526 25.1932 104.846 24.9265 105.006 24.5532C105.193 24.1799 105.273 23.5932 105.246 22.7932L105.206 14.0332L98.8463 4.3532C98.1796 3.33987 97.5529 2.61987 96.9663 2.1932C96.3796 1.73987 95.7529 1.5132 95.0862 1.5132C94.9796 1.5132 94.9262 1.4332 94.9262 1.2732C94.9262 1.1132 94.9662 1.0332 95.0462 1.0332L96.9663 1.0732C97.8196 1.12654 98.4729 1.1532 98.9263 1.1532C99.6196 1.1532 100.633 1.12654 101.966 1.0732L103.966 1.0332C104.046 1.0332 104.086 1.08654 104.086 1.1932C104.086 1.2732 104.06 1.3532 104.006 1.4332C103.98 1.48654 103.94 1.5132 103.886 1.5132C102.58 1.5132 101.926 1.73987 101.926 2.1932C101.926 2.4332 102.06 2.73987 102.326 3.1132L108.406 12.5132L112.406 5.0332C112.726 4.41987 112.886 3.85987 112.886 3.3532C112.886 2.7932 112.686 2.3532 112.286 2.0332C111.886 1.68654 111.326 1.5132 110.606 1.5132C110.5 1.5132 110.446 1.4332 110.446 1.2732C110.446 1.1132 110.486 1.0332 110.566 1.0332L112.606 1.0732C113.833 1.12654 114.806 1.1532 115.526 1.1532C115.98 1.1532 116.5 1.12654 117.086 1.0732L118.446 1.0332ZM139.094 19.7932C139.147 19.7399 139.214 19.7132 139.294 19.7132C139.374 19.7132 139.454 19.7399 139.534 19.7932C139.614 19.8199 139.641 19.8465 139.614 19.8732C139.347 21.5532 139.214 23.4065 139.214 25.4332C139.214 25.6465 139.174 25.8065 139.094 25.9132C139.014 25.9932 138.854 26.0332 138.614 26.0332H120.494C120.387 26.0332 120.334 25.9532 120.334 25.7932C120.334 25.6332 120.374 25.5532 120.454 25.5532C121.307 25.5532 121.921 25.4865 122.294 25.3532C122.694 25.2199 122.961 24.9665 123.094 24.5932C123.227 24.2199 123.294 23.6199 123.294 22.7932V4.2732C123.267 3.4732 123.174 2.88654 123.014 2.5132C122.881 2.13987 122.614 1.88653 122.214 1.7532C121.841 1.5932 121.254 1.5132 120.454 1.5132C120.374 1.5132 120.321 1.4332 120.294 1.2732C120.294 1.1132 120.321 1.0332 120.374 1.0332H137.494C137.707 1.0332 137.814 1.1532 137.814 1.3932L137.894 6.5532C137.894 6.65987 137.814 6.7132 137.654 6.7132C137.521 6.7132 137.441 6.6732 137.414 6.5932C137.094 5.12654 136.401 3.96654 135.334 3.1132C134.294 2.2332 133.041 1.7932 131.574 1.7932H129.814C128.961 1.7932 128.347 1.85987 127.974 1.9932C127.601 2.09987 127.347 2.32654 127.214 2.6732C127.107 2.9932 127.041 3.53987 127.014 4.3132V12.5132H132.414C133.694 12.5132 134.627 12.2865 135.214 11.8332C135.801 11.3799 136.094 10.6199 136.094 9.5532C136.094 9.44654 136.174 9.3932 136.334 9.3932C136.547 9.3932 136.641 9.45987 136.614 9.5932C136.641 10.0732 136.641 10.5399 136.614 10.9932C136.614 11.4199 136.614 11.7265 136.614 11.9132C136.587 12.1532 136.574 12.5265 136.574 13.0332C136.574 13.8599 136.587 14.4865 136.614 14.9132L136.654 16.9932C136.654 17.1265 136.574 17.1932 136.414 17.1932C136.361 17.1932 136.294 17.1799 136.214 17.1532C136.161 17.0999 136.134 17.0465 136.134 16.9932C136.134 14.6999 134.854 13.5532 132.294 13.5532H127.014V22.6332C127.014 23.3799 127.081 23.9399 127.214 24.3132C127.374 24.6599 127.641 24.8999 128.014 25.0332C128.387 25.1665 128.974 25.2332 129.774 25.2332H132.134C133.654 25.2332 135.041 24.7399 136.294 23.7532C137.547 22.7665 138.481 21.4465 139.094 19.7932ZM167.35 25.5532C167.43 25.5532 167.47 25.6332 167.47 25.7932C167.47 25.9532 167.43 26.0332 167.35 26.0332C166.87 26.0332 166.15 26.0065 165.19 25.9532C164.07 25.8999 163.19 25.8732 162.55 25.8732C161.91 25.8732 161.084 25.8999 160.07 25.9532C159.164 26.0065 158.47 26.0332 157.99 26.0332C157.884 26.0332 157.83 25.9532 157.83 25.7932C157.83 25.6332 157.884 25.5532 157.99 25.5532C158.844 25.5532 159.444 25.4732 159.79 25.3132C160.164 25.1265 160.35 24.8065 160.35 24.3532C160.35 23.9799 160.204 23.4199 159.91 22.6732L156.35 13.7532H149.95L147.03 20.8332C146.604 21.8732 146.39 22.7265 146.39 23.3932C146.39 24.1665 146.67 24.7265 147.23 25.0732C147.817 25.3932 148.71 25.5532 149.91 25.5532C150.017 25.5532 150.07 25.6332 150.07 25.7932C150.07 25.9532 150.004 26.0332 149.87 26.0332C149.524 26.0332 148.817 26.0065 147.75 25.9532C146.47 25.8999 145.497 25.8732 144.83 25.8732C144.19 25.8732 143.444 25.8999 142.59 25.9532C141.844 26.0065 141.23 26.0332 140.75 26.0332C140.644 26.0332 140.59 25.9532 140.59 25.7932C140.59 25.6332 140.644 25.5532 140.75 25.5532C141.55 25.5532 142.404 25.1532 143.31 24.3532C144.244 23.5265 145.057 22.3265 145.75 20.7532L154.27 0.673203C154.27 0.593202 154.377 0.553202 154.59 0.553202C154.83 0.553202 154.99 0.606536 155.07 0.713202L163.75 22.6732C164.097 23.5265 164.377 24.1399 164.59 24.5132C164.83 24.8599 165.15 25.1265 165.55 25.3132C165.95 25.4732 166.55 25.5532 167.35 25.5532ZM150.35 12.7532H155.95L153.19 5.7932L150.35 12.7532ZM194.884 25.5532C194.964 25.5532 195.004 25.6332 195.004 25.7932C195.031 25.9532 194.991 26.0332 194.884 26.0332H188.964C188.297 26.0332 187.124 24.9399 185.444 22.7532C183.764 20.5399 181.764 17.3132 179.444 13.0732C178.697 13.2599 177.857 13.3532 176.924 13.3532C176.684 13.3532 176.404 13.3265 176.084 13.2732V22.7932C176.057 23.5932 176.111 24.1799 176.244 24.5532C176.404 24.9265 176.684 25.1932 177.084 25.3532C177.511 25.4865 178.151 25.5532 179.004 25.5532C179.111 25.5532 179.164 25.6332 179.164 25.7932C179.191 25.9532 179.151 26.0332 179.044 26.0332C178.164 26.0332 177.484 26.0199 177.004 25.9932L174.124 25.9532L171.204 25.9932C170.697 26.0199 170.004 26.0332 169.124 26.0332C169.017 26.0332 168.951 25.9532 168.924 25.7932C168.924 25.6332 168.977 25.5532 169.084 25.5532C170.017 25.5532 170.697 25.4865 171.124 25.3532C171.577 25.1932 171.884 24.9265 172.044 24.5532C172.204 24.1799 172.297 23.5932 172.324 22.7932V4.2732C172.324 3.4732 172.244 2.88654 172.084 2.5132C171.951 2.13987 171.671 1.88653 171.244 1.7532C170.817 1.5932 170.164 1.5132 169.284 1.5132C169.177 1.5132 169.124 1.4332 169.124 1.2732C169.124 1.1132 169.177 1.0332 169.284 1.0332L171.324 1.0732C172.497 1.12654 173.444 1.1532 174.164 1.1532C174.937 1.1532 175.884 1.09987 177.004 0.993201C177.911 0.939869 178.497 0.913202 178.764 0.913202C181.297 0.913202 183.204 1.3532 184.484 2.2332C185.791 3.1132 186.444 4.33987 186.444 5.9132C186.444 7.1132 186.071 8.24654 185.324 9.3132C184.577 10.3799 183.577 11.2732 182.324 11.9932C184.457 15.4065 186.257 18.0865 187.724 20.0332C189.191 21.9799 190.484 23.3932 191.604 24.2732C192.751 25.1265 193.844 25.5532 194.884 25.5532ZM176.084 12.2332C176.537 12.3132 177.031 12.3532 177.564 12.3532C179.351 12.3532 180.631 11.9665 181.404 11.1932C182.177 10.3932 182.564 9.08654 182.564 7.2732C182.564 5.32653 182.177 3.9132 181.404 3.0332C180.631 2.12654 179.631 1.6732 178.404 1.6732C177.684 1.6732 177.177 1.72654 176.884 1.8332C176.591 1.9132 176.391 2.13987 176.284 2.5132C176.177 2.85987 176.111 3.4732 176.084 4.3532V12.2332Z" fill="#E0004D"/>
<path d="M26.4 1.0332C26.48 1.0332 26.52 1.1132 26.52 1.2732C26.52 1.4332 26.48 1.5132 26.4 1.5132C25.3067 1.5132 24.4533 1.8732 23.84 2.5932C23.2267 3.28654 22.92 4.2732 22.92 5.5532L22.88 26.3532C22.88 26.4332 22.8133 26.4865 22.68 26.5132C22.5467 26.5665 22.4133 26.5932 22.28 26.5932C22.0667 26.5932 21.92 26.5399 21.84 26.4332L4.92 4.9132L4.88 21.5132C4.88 22.8199 5.17333 23.8199 5.76 24.5132C6.34667 25.2065 7.18667 25.5532 8.28 25.5532C8.38667 25.5532 8.44 25.6332 8.44 25.7932C8.44 25.9532 8.38667 26.0332 8.28 26.0332C7.58667 26.0332 7.05333 26.0199 6.68 25.9932L4.32 25.9532L2.08 25.9932C1.65333 26.0199 1.05333 26.0332 0.28 26.0332C0.173333 26.0332 0.12 25.9532 0.12 25.7932C0.12 25.6332 0.173333 25.5532 0.28 25.5532C1.37333 25.5532 2.22667 25.2065 2.84 24.5132C3.45333 23.8199 3.76 22.8199 3.76 21.5132L3.8 3.5532C3.13333 2.80654 2.50667 2.28654 1.92 1.9932C1.33333 1.6732 0.746667 1.5132 0.16 1.5132C0.08 1.5132 0.04 1.4332 0.04 1.2732C0.04 1.1132 0.08 1.0332 0.16 1.0332L2.08 1.0732C2.48 1.09987 3.01333 1.1132 3.68 1.1132C4.32 1.1132 4.85333 1.09987 5.28 1.0732C5.73333 1.04654 6.04 1.0332 6.2 1.0332C6.41333 1.0332 6.57333 1.08654 6.68 1.1932C6.78667 1.29987 6.93333 1.49987 7.12 1.7932C7.41333 2.2732 7.72 2.7132 8.04 3.1132L21.76 20.5932L21.8 5.5532C21.8267 4.24653 21.5467 3.24653 20.96 2.5532C20.3733 1.85987 19.52 1.5132 18.4 1.5132C18.2933 1.5132 18.24 1.4332 18.24 1.2732C18.24 1.1132 18.2933 1.0332 18.4 1.0332L19.88 1.0732C20.84 1.12654 21.6667 1.1532 22.36 1.1532C22.8933 1.1532 23.64 1.12654 24.6 1.0732L26.4 1.0332ZM48.0003 19.7932C48.0536 19.7399 48.1203 19.7132 48.2003 19.7132C48.2803 19.7132 48.3603 19.7399 48.4403 19.7932C48.5203 19.8199 48.547 19.8465 48.5203 19.8732C48.2536 21.5532 48.1203 23.4065 48.1203 25.4332C48.1203 25.6465 48.0803 25.8065 48.0003 25.9132C47.9203 25.9932 47.7603 26.0332 47.5203 26.0332H29.4003C29.2936 26.0332 29.2403 25.9532 29.2403 25.7932C29.2403 25.6332 29.2803 25.5532 29.3603 25.5532C30.2136 25.5532 30.827 25.4865 31.2003 25.3532C31.6003 25.2199 31.867 24.9665 32.0003 24.5932C32.1336 24.2199 32.2003 23.6199 32.2003 22.7932V4.2732C32.1736 3.4732 32.0803 2.88654 31.9203 2.5132C31.787 2.13987 31.5203 1.88653 31.1203 1.7532C30.747 1.5932 30.1603 1.5132 29.3603 1.5132C29.2803 1.5132 29.227 1.4332 29.2003 1.2732C29.2003 1.1132 29.227 1.0332 29.2803 1.0332H46.4003C46.6136 1.0332 46.7203 1.1532 46.7203 1.3932L46.8003 6.5532C46.8003 6.65987 46.7203 6.7132 46.5603 6.7132C46.427 6.7132 46.347 6.6732 46.3203 6.5932C46.0003 5.12654 45.307 3.96654 44.2403 3.1132C43.2003 2.2332 41.947 1.7932 40.4803 1.7932H38.7203C37.867 1.7932 37.2536 1.85987 36.8803 1.9932C36.507 2.09987 36.2536 2.32654 36.1203 2.6732C36.0136 2.9932 35.947 3.53987 35.9203 4.3132V12.5132H41.3203C42.6003 12.5132 43.5336 12.2865 44.1203 11.8332C44.707 11.3799 45.0003 10.6199 45.0003 9.5532C45.0003 9.44654 45.0803 9.3932 45.2403 9.3932C45.4536 9.3932 45.547 9.45987 45.5203 9.5932C45.547 10.0732 45.547 10.5399 45.5203 10.9932C45.5203 11.4199 45.5203 11.7265 45.5203 11.9132C45.4936 12.1532 45.4803 12.5265 45.4803 13.0332C45.4803 13.8599 45.4936 14.4865 45.5203 14.9132L45.5603 16.9932C45.5603 17.1265 45.4803 17.1932 45.3203 17.1932C45.267 17.1932 45.2003 17.1799 45.1203 17.1532C45.067 17.0999 45.0403 17.0465 45.0403 16.9932C45.0403 14.6999 43.7603 13.5532 41.2003 13.5532H35.9203V22.6332C35.9203 23.3799 35.987 23.9399 36.1203 24.3132C36.2803 24.6599 36.547 24.8999 36.9203 25.0332C37.2936 25.1665 37.8803 25.2332 38.6803 25.2332H41.0403C42.5603 25.2332 43.947 24.7399 45.2003 23.7532C46.4536 22.7665 47.387 21.4465 48.0003 19.7932ZM86.1766 1.0332C86.3099 1.0332 86.3766 1.1132 86.3766 1.2732C86.3766 1.4332 86.3099 1.5132 86.1766 1.5132C85.2166 1.5132 84.3899 1.77987 83.6966 2.3132C83.0299 2.81987 82.4032 3.84654 81.8166 5.3932L74.0166 25.9932C73.9899 26.0999 73.8166 26.1532 73.4966 26.1532C73.1499 26.1532 72.9632 26.0999 72.9366 25.9932L67.9366 14.9532L63.8166 25.9932C63.7899 26.0999 63.6032 26.1532 63.2566 26.1532C62.9099 26.1532 62.7232 26.0999 62.6966 25.9932L52.9366 4.3532C52.4832 3.3132 52.0166 2.57987 51.5366 2.1532C51.0832 1.72654 50.4832 1.5132 49.7366 1.5132C49.6299 1.5132 49.5766 1.4332 49.5766 1.2732C49.5766 1.1132 49.6166 1.0332 49.6966 1.0332L51.6566 1.0732C52.5632 1.12654 53.2166 1.1532 53.6166 1.1532C54.4166 1.1532 55.3232 1.12654 56.3366 1.0732L57.9766 1.0332C58.0832 1.0332 58.1366 1.1132 58.1366 1.2732C58.1366 1.4332 58.0832 1.5132 57.9766 1.5132C56.8832 1.5132 56.3366 1.9132 56.3366 2.7132C56.3366 3.08654 56.4432 3.49987 56.6566 3.9532L64.4966 21.3532L67.3366 13.5932L63.1366 4.3532C62.6832 3.28654 62.2566 2.5532 61.8566 2.1532C61.4566 1.72654 60.9499 1.5132 60.3366 1.5132C60.2566 1.5132 60.2032 1.4332 60.1766 1.2732C60.1766 1.1132 60.2032 1.0332 60.2566 1.0332C60.6299 1.0332 61.2432 1.05987 62.0966 1.1132L63.8566 1.1532C64.4699 1.1532 65.1499 1.12654 65.8966 1.0732L67.0966 1.0332C67.2299 1.0332 67.2966 1.1132 67.2966 1.2732C67.2966 1.4332 67.2299 1.5132 67.0966 1.5132C66.7766 1.5132 66.5366 1.5532 66.3766 1.6332C66.2432 1.68654 66.1766 1.80654 66.1766 1.9932C66.1766 2.25987 66.4032 2.9132 66.8566 3.9532L69.3766 9.5532L70.9766 5.2332C71.3499 4.24653 71.5366 3.4732 71.5366 2.9132C71.5366 2.4332 71.4032 2.08654 71.1366 1.8732C70.8699 1.6332 70.4432 1.5132 69.8566 1.5132C69.8032 1.5132 69.7766 1.4332 69.7766 1.2732C69.7766 1.1132 69.8032 1.0332 69.8566 1.0332L71.0566 1.0732C71.6966 1.12654 72.2966 1.1532 72.8566 1.1532C73.3099 1.1532 73.8832 1.12654 74.5766 1.0732L76.0566 1.0332C76.1632 1.0332 76.2166 1.1132 76.2166 1.2732C76.2432 1.4332 76.2032 1.5132 76.0966 1.5132C75.2699 1.5132 74.5632 1.76653 73.9766 2.2732C73.4166 2.77987 72.8432 3.81987 72.2566 5.3932L70.0966 11.1132L74.6966 21.3132L80.5766 5.2332C80.7632 4.69987 80.8566 4.1932 80.8566 3.7132C80.8566 3.01987 80.6299 2.48653 80.1766 2.1132C79.7499 1.7132 79.1099 1.5132 78.2566 1.5132C78.1766 1.5132 78.1366 1.4332 78.1366 1.2732C78.1366 1.1132 78.1766 1.0332 78.2566 1.0332L79.9366 1.0732C80.8432 1.12654 81.6832 1.1532 82.4566 1.1532C82.9899 1.1532 83.6299 1.12654 84.3766 1.0732L86.1766 1.0332ZM118.446 1.0332C118.58 1.0332 118.646 1.1132 118.646 1.2732C118.646 1.4332 118.58 1.5132 118.446 1.5132C117.513 1.5132 116.633 1.85987 115.806 2.5532C114.98 3.21987 114.153 4.25987 113.326 5.6732L108.966 13.5932V22.7932C108.993 23.6199 109.073 24.2199 109.206 24.5932C109.366 24.9665 109.66 25.2199 110.086 25.3532C110.513 25.4865 111.206 25.5532 112.166 25.5532C112.273 25.5532 112.326 25.6332 112.326 25.7932C112.326 25.9532 112.273 26.0332 112.166 26.0332C111.286 26.0332 110.593 26.0199 110.086 25.9932L107.126 25.9532L103.966 25.9932C103.46 26.0199 102.78 26.0332 101.926 26.0332C101.82 26.0332 101.766 25.9532 101.766 25.7932C101.766 25.6332 101.82 25.5532 101.926 25.5532C102.886 25.5532 103.593 25.4865 104.046 25.3532C104.526 25.1932 104.846 24.9265 105.006 24.5532C105.193 24.1799 105.273 23.5932 105.246 22.7932L105.206 14.0332L98.8463 4.3532C98.1796 3.33987 97.5529 2.61987 96.9663 2.1932C96.3796 1.73987 95.7529 1.5132 95.0862 1.5132C94.9796 1.5132 94.9262 1.4332 94.9262 1.2732C94.9262 1.1132 94.9662 1.0332 95.0462 1.0332L96.9663 1.0732C97.8196 1.12654 98.4729 1.1532 98.9263 1.1532C99.6196 1.1532 100.633 1.12654 101.966 1.0732L103.966 1.0332C104.046 1.0332 104.086 1.08654 104.086 1.1932C104.086 1.2732 104.06 1.3532 104.006 1.4332C103.98 1.48654 103.94 1.5132 103.886 1.5132C102.58 1.5132 101.926 1.73987 101.926 2.1932C101.926 2.4332 102.06 2.73987 102.326 3.1132L108.406 12.5132L112.406 5.0332C112.726 4.41987 112.886 3.85987 112.886 3.3532C112.886 2.7932 112.686 2.3532 112.286 2.0332C111.886 1.68654 111.326 1.5132 110.606 1.5132C110.5 1.5132 110.446 1.4332 110.446 1.2732C110.446 1.1132 110.486 1.0332 110.566 1.0332L112.606 1.0732C113.833 1.12654 114.806 1.1532 115.526 1.1532C115.98 1.1532 116.5 1.12654 117.086 1.0732L118.446 1.0332ZM139.094 19.7932C139.147 19.7399 139.214 19.7132 139.294 19.7132C139.374 19.7132 139.454 19.7399 139.534 19.7932C139.614 19.8199 139.641 19.8465 139.614 19.8732C139.347 21.5532 139.214 23.4065 139.214 25.4332C139.214 25.6465 139.174 25.8065 139.094 25.9132C139.014 25.9932 138.854 26.0332 138.614 26.0332H120.494C120.387 26.0332 120.334 25.9532 120.334 25.7932C120.334 25.6332 120.374 25.5532 120.454 25.5532C121.307 25.5532 121.921 25.4865 122.294 25.3532C122.694 25.2199 122.961 24.9665 123.094 24.5932C123.227 24.2199 123.294 23.6199 123.294 22.7932V4.2732C123.267 3.4732 123.174 2.88654 123.014 2.5132C122.881 2.13987 122.614 1.88653 122.214 1.7532C121.841 1.5932 121.254 1.5132 120.454 1.5132C120.374 1.5132 120.321 1.4332 120.294 1.2732C120.294 1.1132 120.321 1.0332 120.374 1.0332H137.494C137.707 1.0332 137.814 1.1532 137.814 1.3932L137.894 6.5532C137.894 6.65987 137.814 6.7132 137.654 6.7132C137.521 6.7132 137.441 6.6732 137.414 6.5932C137.094 5.12654 136.401 3.96654 135.334 3.1132C134.294 2.2332 133.041 1.7932 131.574 1.7932H129.814C128.961 1.7932 128.347 1.85987 127.974 1.9932C127.601 2.09987 127.347 2.32654 127.214 2.6732C127.107 2.9932 127.041 3.53987 127.014 4.3132V12.5132H132.414C133.694 12.5132 134.627 12.2865 135.214 11.8332C135.801 11.3799 136.094 10.6199 136.094 9.5532C136.094 9.44654 136.174 9.3932 136.334 9.3932C136.547 9.3932 136.641 9.45987 136.614 9.5932C136.641 10.0732 136.641 10.5399 136.614 10.9932C136.614 11.4199 136.614 11.7265 136.614 11.9132C136.587 12.1532 136.574 12.5265 136.574 13.0332C136.574 13.8599 136.587 14.4865 136.614 14.9132L136.654 16.9932C136.654 17.1265 136.574 17.1932 136.414 17.1932C136.361 17.1932 136.294 17.1799 136.214 17.1532C136.161 17.0999 136.134 17.0465 136.134 16.9932C136.134 14.6999 134.854 13.5532 132.294 13.5532H127.014V22.6332C127.014 23.3799 127.081 23.9399 127.214 24.3132C127.374 24.6599 127.641 24.8999 128.014 25.0332C128.387 25.1665 128.974 25.2332 129.774 25.2332H132.134C133.654 25.2332 135.041 24.7399 136.294 23.7532C137.547 22.7665 138.481 21.4465 139.094 19.7932ZM167.35 25.5532C167.43 25.5532 167.47 25.6332 167.47 25.7932C167.47 25.9532 167.43 26.0332 167.35 26.0332C166.87 26.0332 166.15 26.0065 165.19 25.9532C164.07 25.8999 163.19 25.8732 162.55 25.8732C161.91 25.8732 161.084 25.8999 160.07 25.9532C159.164 26.0065 158.47 26.0332 157.99 26.0332C157.884 26.0332 157.83 25.9532 157.83 25.7932C157.83 25.6332 157.884 25.5532 157.99 25.5532C158.844 25.5532 159.444 25.4732 159.79 25.3132C160.164 25.1265 160.35 24.8065 160.35 24.3532C160.35 23.9799 160.204 23.4199 159.91 22.6732L156.35 13.7532H149.95L147.03 20.8332C146.604 21.8732 146.39 22.7265 146.39 23.3932C146.39 24.1665 146.67 24.7265 147.23 25.0732C147.817 25.3932 148.71 25.5532 149.91 25.5532C150.017 25.5532 150.07 25.6332 150.07 25.7932C150.07 25.9532 150.004 26.0332 149.87 26.0332C149.524 26.0332 148.817 26.0065 147.75 25.9532C146.47 25.8999 145.497 25.8732 144.83 25.8732C144.19 25.8732 143.444 25.8999 142.59 25.9532C141.844 26.0065 141.23 26.0332 140.75 26.0332C140.644 26.0332 140.59 25.9532 140.59 25.7932C140.59 25.6332 140.644 25.5532 140.75 25.5532C141.55 25.5532 142.404 25.1532 143.31 24.3532C144.244 23.5265 145.057 22.3265 145.75 20.7532L154.27 0.673203C154.27 0.593202 154.377 0.553202 154.59 0.553202C154.83 0.553202 154.99 0.606536 155.07 0.713202L163.75 22.6732C164.097 23.5265 164.377 24.1399 164.59 24.5132C164.83 24.8599 165.15 25.1265 165.55 25.3132C165.95 25.4732 166.55 25.5532 167.35 25.5532ZM150.35 12.7532H155.95L153.19 5.7932L150.35 12.7532ZM194.884 25.5532C194.964 25.5532 195.004 25.6332 195.004 25.7932C195.031 25.9532 194.991 26.0332 194.884 26.0332H188.964C188.297 26.0332 187.124 24.9399 185.444 22.7532C183.764 20.5399 181.764 17.3132 179.444 13.0732C178.697 13.2599 177.857 13.3532 176.924 13.3532C176.684 13.3532 176.404 13.3265 176.084 13.2732V22.7932C176.057 23.5932 176.111 24.1799 176.244 24.5532C176.404 24.9265 176.684 25.1932 177.084 25.3532C177.511 25.4865 178.151 25.5532 179.004 25.5532C179.111 25.5532 179.164 25.6332 179.164 25.7932C179.191 25.9532 179.151 26.0332 179.044 26.0332C178.164 26.0332 177.484 26.0199 177.004 25.9932L174.124 25.9532L171.204 25.9932C170.697 26.0199 170.004 26.0332 169.124 26.0332C169.017 26.0332 168.951 25.9532 168.924 25.7932C168.924 25.6332 168.977 25.5532 169.084 25.5532C170.017 25.5532 170.697 25.4865 171.124 25.3532C171.577 25.1932 171.884 24.9265 172.044 24.5532C172.204 24.1799 172.297 23.5932 172.324 22.7932V4.2732C172.324 3.4732 172.244 2.88654 172.084 2.5132C171.951 2.13987 171.671 1.88653 171.244 1.7532C170.817 1.5932 170.164 1.5132 169.284 1.5132C169.177 1.5132 169.124 1.4332 169.124 1.2732C169.124 1.1132 169.177 1.0332 169.284 1.0332L171.324 1.0732C172.497 1.12654 173.444 1.1532 174.164 1.1532C174.937 1.1532 175.884 1.09987 177.004 0.993201C177.911 0.939869 178.497 0.913202 178.764 0.913202C181.297 0.913202 183.204 1.3532 184.484 2.2332C185.791 3.1132 186.444 4.33987 186.444 5.9132C186.444 7.1132 186.071 8.24654 185.324 9.3132C184.577 10.3799 183.577 11.2732 182.324 11.9932C184.457 15.4065 186.257 18.0865 187.724 20.0332C189.191 21.9799 190.484 23.3932 191.604 24.2732C192.751 25.1265 193.844 25.5532 194.884 25.5532ZM176.084 12.2332C176.537 12.3132 177.031 12.3532 177.564 12.3532C179.351 12.3532 180.631 11.9665 181.404 11.1932C182.177 10.3932 182.564 9.08654 182.564 7.2732C182.564 5.32653 182.177 3.9132 181.404 3.0332C180.631 2.12654 179.631 1.6732 178.404 1.6732C177.684 1.6732 177.177 1.72654 176.884 1.8332C176.591 1.9132 176.391 2.13987 176.284 2.5132C176.177 2.85987 176.111 3.4732 176.084 4.3532V12.2332Z" fill="url(#paint0_linear_3274_1915)"/>
<defs>
<linearGradient id="paint0_linear_3274_1915" x1="105.5" y1="-11.9668" x2="105.5" y2="38.0332" gradientUnits="userSpaceOnUse">
<stop stop-color="#FFDAE7"/>
<stop offset="1" stop-color="#E0004D"/>
</linearGradient>
</defs>
</svg>
