<svg width="177" height="27" viewBox="0 0 177 27" fill="none" xmlns="http://www.w3.org/2000/svg">
<path d="M27.1017 1C27.1817 1 27.2217 1.08 27.2217 1.24C27.2217 1.4 27.1817 1.48 27.1017 1.48C26.0083 1.48 25.155 1.84 24.5417 2.56C23.9283 3.25333 23.6217 4.24 23.6217 5.52L23.5817 26.32C23.5817 26.4 23.515 26.4533 23.3817 26.48C23.2483 26.5333 23.115 26.56 22.9817 26.56C22.7683 26.56 22.6217 26.5067 22.5417 26.4L5.62166 4.88L5.58166 21.48C5.58166 22.7867 5.87499 23.7867 6.46166 24.48C7.04833 25.1733 7.88833 25.52 8.98166 25.52C9.08833 25.52 9.14166 25.6 9.14166 25.76C9.14166 25.92 9.08833 26 8.98166 26C8.28833 26 7.75499 25.9867 7.38166 25.96L5.02166 25.92L2.78166 25.96C2.35499 25.9867 1.75499 26 0.98166 26C0.874994 26 0.82166 25.92 0.82166 25.76C0.82166 25.6 0.874994 25.52 0.98166 25.52C2.07499 25.52 2.92833 25.1733 3.54166 24.48C4.15499 23.7867 4.46166 22.7867 4.46166 21.48L4.50166 3.52C3.83499 2.77333 3.20833 2.25333 2.62166 1.96C2.03499 1.64 1.44833 1.48 0.86166 1.48C0.78166 1.48 0.74166 1.4 0.74166 1.24C0.74166 1.08 0.78166 1 0.86166 1L2.78166 1.04C3.18166 1.06667 3.71499 1.08 4.38166 1.08C5.02166 1.08 5.55499 1.06667 5.98166 1.04C6.43499 1.01333 6.74166 1 6.90166 1C7.11499 1 7.27499 1.05333 7.38166 1.16C7.48833 1.26666 7.63499 1.46667 7.82166 1.76C8.11499 2.24 8.42166 2.68 8.74166 3.08L22.4617 20.56L22.5017 5.52C22.5283 4.21333 22.2483 3.21333 21.6617 2.52C21.075 1.82667 20.2217 1.48 19.1017 1.48C18.995 1.48 18.9417 1.4 18.9417 1.24C18.9417 1.08 18.995 1 19.1017 1L20.5817 1.04C21.5417 1.09333 22.3683 1.12 23.0617 1.12C23.595 1.12 24.3417 1.09333 25.3017 1.04L27.1017 1ZM48.702 19.76C48.7553 19.7067 48.822 19.68 48.902 19.68C48.982 19.68 49.062 19.7067 49.142 19.76C49.222 19.7867 49.2486 19.8133 49.222 19.84C48.9553 21.52 48.822 23.3733 48.822 25.4C48.822 25.6133 48.782 25.7733 48.702 25.88C48.622 25.96 48.462 26 48.222 26H30.102C29.9953 26 29.942 25.92 29.942 25.76C29.942 25.6 29.982 25.52 30.062 25.52C30.9153 25.52 31.5286 25.4533 31.902 25.32C32.302 25.1867 32.5686 24.9333 32.702 24.56C32.8353 24.1867 32.902 23.5867 32.902 22.76V4.24C32.8753 3.44 32.782 2.85333 32.622 2.48C32.4886 2.10667 32.222 1.85333 31.822 1.72C31.4486 1.56 30.862 1.48 30.062 1.48C29.982 1.48 29.9286 1.4 29.902 1.24C29.902 1.08 29.9286 1 29.982 1H47.102C47.3153 1 47.422 1.12 47.422 1.36L47.502 6.52C47.502 6.62667 47.422 6.68 47.262 6.68C47.1286 6.68 47.0486 6.64 47.022 6.56C46.702 5.09333 46.0086 3.93333 44.942 3.08C43.902 2.2 42.6486 1.76 41.182 1.76H39.422C38.5686 1.76 37.9553 1.82667 37.582 1.96C37.2086 2.06667 36.9553 2.29333 36.822 2.64C36.7153 2.96 36.6486 3.50667 36.622 4.28V12.48H42.022C43.302 12.48 44.2353 12.2533 44.822 11.8C45.4086 11.3467 45.702 10.5867 45.702 9.52C45.702 9.41333 45.782 9.36 45.942 9.36C46.1553 9.36 46.2486 9.42667 46.222 9.56C46.2486 10.04 46.2486 10.5067 46.222 10.96C46.222 11.3867 46.222 11.6933 46.222 11.88C46.1953 12.12 46.182 12.4933 46.182 13C46.182 13.8267 46.1953 14.4533 46.222 14.88L46.262 16.96C46.262 17.0933 46.182 17.16 46.022 17.16C45.9686 17.16 45.902 17.1467 45.822 17.12C45.7686 17.0667 45.742 17.0133 45.742 16.96C45.742 14.6667 44.462 13.52 41.902 13.52H36.622V22.6C36.622 23.3467 36.6886 23.9067 36.822 24.28C36.982 24.6267 37.2486 24.8667 37.622 25C37.9953 25.1333 38.582 25.2 39.382 25.2H41.742C43.262 25.2 44.6486 24.7067 45.902 23.72C47.1553 22.7333 48.0886 21.4133 48.702 19.76ZM86.8782 1C87.0116 1 87.0782 1.08 87.0782 1.24C87.0782 1.4 87.0116 1.48 86.8782 1.48C85.9182 1.48 85.0916 1.74667 84.3982 2.28C83.7316 2.78667 83.1049 3.81333 82.5182 5.36L74.7182 25.96C74.6916 26.0667 74.5182 26.12 74.1982 26.12C73.8516 26.12 73.6649 26.0667 73.6382 25.96L68.6382 14.92L64.5182 25.96C64.4916 26.0667 64.3049 26.12 63.9582 26.12C63.6116 26.12 63.4249 26.0667 63.3982 25.96L53.6382 4.32C53.1849 3.28 52.7182 2.54667 52.2382 2.12C51.7849 1.69333 51.1849 1.48 50.4382 1.48C50.3316 1.48 50.2782 1.4 50.2782 1.24C50.2782 1.08 50.3182 1 50.3982 1L52.3582 1.04C53.2649 1.09333 53.9182 1.12 54.3182 1.12C55.1182 1.12 56.0249 1.09333 57.0382 1.04L58.6782 1C58.7849 1 58.8382 1.08 58.8382 1.24C58.8382 1.4 58.7849 1.48 58.6782 1.48C57.5849 1.48 57.0382 1.88 57.0382 2.68C57.0382 3.05333 57.1449 3.46667 57.3582 3.92L65.1982 21.32L68.0382 13.56L63.8382 4.32C63.3849 3.25333 62.9582 2.52 62.5582 2.12C62.1582 1.69333 61.6516 1.48 61.0382 1.48C60.9582 1.48 60.9049 1.4 60.8782 1.24C60.8782 1.08 60.9049 1 60.9582 1C61.3316 1 61.9449 1.02667 62.7982 1.08L64.5582 1.12C65.1716 1.12 65.8516 1.09333 66.5982 1.04L67.7982 1C67.9316 1 67.9982 1.08 67.9982 1.24C67.9982 1.4 67.9316 1.48 67.7982 1.48C67.4782 1.48 67.2382 1.52 67.0782 1.6C66.9449 1.65333 66.8782 1.77333 66.8782 1.96C66.8782 2.22667 67.1049 2.88 67.5582 3.92L70.0782 9.52L71.6782 5.2C72.0516 4.21333 72.2382 3.44 72.2382 2.88C72.2382 2.4 72.1049 2.05333 71.8382 1.84C71.5716 1.6 71.1449 1.48 70.5582 1.48C70.5049 1.48 70.4782 1.4 70.4782 1.24C70.4782 1.08 70.5049 1 70.5582 1L71.7582 1.04C72.3982 1.09333 72.9982 1.12 73.5582 1.12C74.0116 1.12 74.5849 1.09333 75.2782 1.04L76.7582 1C76.8649 1 76.9182 1.08 76.9182 1.24C76.9449 1.4 76.9049 1.48 76.7982 1.48C75.9716 1.48 75.2649 1.73333 74.6782 2.24C74.1182 2.74666 73.5449 3.78666 72.9582 5.36L70.7982 11.08L75.3982 21.28L81.2782 5.2C81.4649 4.66667 81.5582 4.16 81.5582 3.68C81.5582 2.98666 81.3316 2.45333 80.8782 2.08C80.4516 1.68 79.8116 1.48 78.9582 1.48C78.8782 1.48 78.8382 1.4 78.8382 1.24C78.8382 1.08 78.8782 1 78.9582 1L80.6382 1.04C81.5449 1.09333 82.3849 1.12 83.1582 1.12C83.6916 1.12 84.3316 1.09333 85.0782 1.04L86.8782 1ZM119.148 1C119.281 1 119.348 1.08 119.348 1.24C119.348 1.4 119.281 1.48 119.148 1.48C118.215 1.48 117.335 1.82667 116.508 2.52C115.681 3.18667 114.855 4.22667 114.028 5.64L109.668 13.56V22.76C109.695 23.5867 109.775 24.1867 109.908 24.56C110.068 24.9333 110.361 25.1867 110.788 25.32C111.215 25.4533 111.908 25.52 112.868 25.52C112.975 25.52 113.028 25.6 113.028 25.76C113.028 25.92 112.975 26 112.868 26C111.988 26 111.295 25.9867 110.788 25.96L107.828 25.92L104.668 25.96C104.161 25.9867 103.481 26 102.628 26C102.521 26 102.468 25.92 102.468 25.76C102.468 25.6 102.521 25.52 102.628 25.52C103.588 25.52 104.295 25.4533 104.748 25.32C105.228 25.16 105.548 24.8933 105.708 24.52C105.895 24.1467 105.975 23.56 105.948 22.76L105.908 14L99.5479 4.32C98.8812 3.30666 98.2546 2.58667 97.6679 2.16C97.0812 1.70667 96.4546 1.48 95.7879 1.48C95.6812 1.48 95.6279 1.4 95.6279 1.24C95.6279 1.08 95.6679 1 95.7479 1L97.6679 1.04C98.5212 1.09333 99.1746 1.12 99.6279 1.12C100.321 1.12 101.335 1.09333 102.668 1.04L104.668 1C104.748 1 104.788 1.05333 104.788 1.16C104.788 1.24 104.761 1.32 104.708 1.4C104.681 1.45333 104.641 1.48 104.588 1.48C103.281 1.48 102.628 1.70667 102.628 2.16C102.628 2.4 102.761 2.70667 103.028 3.08L109.108 12.48L113.108 5C113.428 4.38667 113.588 3.82667 113.588 3.32C113.588 2.76 113.388 2.32 112.988 2C112.588 1.65333 112.028 1.48 111.308 1.48C111.201 1.48 111.148 1.4 111.148 1.24C111.148 1.08 111.188 1 111.268 1L113.308 1.04C114.535 1.09333 115.508 1.12 116.228 1.12C116.681 1.12 117.201 1.09333 117.788 1.04L119.148 1ZM132.064 26.48C129.584 26.48 127.384 25.92 125.464 24.8C123.571 23.6533 122.104 22.1067 121.064 20.16C120.024 18.2133 119.504 16.0533 119.504 13.68C119.504 11.2 120.091 8.96 121.264 6.96C122.464 4.96 124.091 3.4 126.144 2.28C128.197 1.13333 130.491 0.559999 133.024 0.559999C135.531 0.559999 137.744 1.10667 139.664 2.2C141.611 3.29333 143.104 4.8 144.144 6.72C145.211 8.64 145.744 10.7733 145.744 13.12C145.744 15.76 145.117 18.0933 143.864 20.12C142.611 22.1467 140.944 23.72 138.864 24.84C136.784 25.9333 134.517 26.48 132.064 26.48ZM133.784 25.44C135.384 25.44 136.784 25.0267 137.984 24.2C139.211 23.3467 140.144 22.16 140.784 20.64C141.451 19.0933 141.784 17.2933 141.784 15.24C141.784 12.7867 141.344 10.52 140.464 8.44C139.611 6.33333 138.397 4.65333 136.824 3.4C135.277 2.14667 133.517 1.52 131.544 1.52C129.944 1.52 128.531 1.93333 127.304 2.76C126.077 3.58667 125.117 4.77333 124.424 6.32C123.757 7.84 123.424 9.64 123.424 11.72C123.424 14.1467 123.864 16.4133 124.744 18.52C125.624 20.6 126.851 22.28 128.424 23.56C129.997 24.8133 131.784 25.44 133.784 25.44ZM176.519 25.52C176.599 25.52 176.639 25.6 176.639 25.76C176.639 25.92 176.599 26 176.519 26L172.759 25.96L169.999 26C169.706 26 169.519 25.96 169.439 25.88C169.386 25.8 169.359 25.5867 169.359 25.24V23.16C167.999 24.3333 166.652 25.1867 165.319 25.72C164.012 26.2267 162.586 26.48 161.039 26.48C159.199 26.48 157.546 26.16 156.079 25.52C154.612 24.88 153.466 23.96 152.639 22.76C151.812 21.56 151.399 20.16 151.399 18.56V4.24C151.399 3.44 151.319 2.85333 151.159 2.48C151.026 2.10667 150.759 1.85333 150.359 1.72C149.986 1.56 149.386 1.48 148.559 1.48C148.479 1.48 148.439 1.4 148.439 1.24C148.439 1.08 148.479 1 148.559 1L150.439 1.04C151.559 1.09333 152.479 1.12 153.199 1.12C153.919 1.12 154.866 1.09333 156.039 1.04L157.959 1C158.066 1 158.119 1.08 158.119 1.24C158.146 1.4 158.119 1.48 158.039 1.48C157.186 1.48 156.559 1.56 156.159 1.72C155.759 1.88 155.492 2.16 155.359 2.56C155.226 2.93333 155.146 3.52 155.119 4.32V17.16C155.092 19.6667 155.719 21.6267 156.999 23.04C158.279 24.4267 160.066 25.12 162.359 25.12C163.612 25.12 164.786 24.8933 165.879 24.44C166.972 23.9867 168.132 23.2133 169.359 22.12L169.319 4.32C169.346 3.52 169.279 2.93333 169.119 2.56C168.986 2.16 168.719 1.88 168.319 1.72C167.919 1.56 167.319 1.48 166.519 1.48C166.439 1.48 166.399 1.4 166.399 1.24C166.399 1.08 166.426 1 166.479 1L168.439 1.04C169.559 1.09333 170.479 1.12 171.199 1.12C171.866 1.12 172.786 1.09333 173.959 1.04L175.919 1C176.026 1 176.079 1.08 176.079 1.24C176.106 1.4 176.079 1.48 175.999 1.48C175.146 1.48 174.519 1.56 174.119 1.72C173.719 1.85333 173.439 2.10667 173.279 2.48C173.146 2.85333 173.079 3.44 173.079 4.24V22.76C173.079 23.56 173.159 24.16 173.319 24.56C173.479 24.9333 173.799 25.1867 174.279 25.32C174.759 25.4533 175.506 25.52 176.519 25.52Z" fill="#E0004D"/>
<path d="M27.1017 1C27.1817 1 27.2217 1.08 27.2217 1.24C27.2217 1.4 27.1817 1.48 27.1017 1.48C26.0083 1.48 25.155 1.84 24.5417 2.56C23.9283 3.25333 23.6217 4.24 23.6217 5.52L23.5817 26.32C23.5817 26.4 23.515 26.4533 23.3817 26.48C23.2483 26.5333 23.115 26.56 22.9817 26.56C22.7683 26.56 22.6217 26.5067 22.5417 26.4L5.62166 4.88L5.58166 21.48C5.58166 22.7867 5.87499 23.7867 6.46166 24.48C7.04833 25.1733 7.88833 25.52 8.98166 25.52C9.08833 25.52 9.14166 25.6 9.14166 25.76C9.14166 25.92 9.08833 26 8.98166 26C8.28833 26 7.75499 25.9867 7.38166 25.96L5.02166 25.92L2.78166 25.96C2.35499 25.9867 1.75499 26 0.98166 26C0.874994 26 0.82166 25.92 0.82166 25.76C0.82166 25.6 0.874994 25.52 0.98166 25.52C2.07499 25.52 2.92833 25.1733 3.54166 24.48C4.15499 23.7867 4.46166 22.7867 4.46166 21.48L4.50166 3.52C3.83499 2.77333 3.20833 2.25333 2.62166 1.96C2.03499 1.64 1.44833 1.48 0.86166 1.48C0.78166 1.48 0.74166 1.4 0.74166 1.24C0.74166 1.08 0.78166 1 0.86166 1L2.78166 1.04C3.18166 1.06667 3.71499 1.08 4.38166 1.08C5.02166 1.08 5.55499 1.06667 5.98166 1.04C6.43499 1.01333 6.74166 1 6.90166 1C7.11499 1 7.27499 1.05333 7.38166 1.16C7.48833 1.26666 7.63499 1.46667 7.82166 1.76C8.11499 2.24 8.42166 2.68 8.74166 3.08L22.4617 20.56L22.5017 5.52C22.5283 4.21333 22.2483 3.21333 21.6617 2.52C21.075 1.82667 20.2217 1.48 19.1017 1.48C18.995 1.48 18.9417 1.4 18.9417 1.24C18.9417 1.08 18.995 1 19.1017 1L20.5817 1.04C21.5417 1.09333 22.3683 1.12 23.0617 1.12C23.595 1.12 24.3417 1.09333 25.3017 1.04L27.1017 1ZM48.702 19.76C48.7553 19.7067 48.822 19.68 48.902 19.68C48.982 19.68 49.062 19.7067 49.142 19.76C49.222 19.7867 49.2486 19.8133 49.222 19.84C48.9553 21.52 48.822 23.3733 48.822 25.4C48.822 25.6133 48.782 25.7733 48.702 25.88C48.622 25.96 48.462 26 48.222 26H30.102C29.9953 26 29.942 25.92 29.942 25.76C29.942 25.6 29.982 25.52 30.062 25.52C30.9153 25.52 31.5286 25.4533 31.902 25.32C32.302 25.1867 32.5686 24.9333 32.702 24.56C32.8353 24.1867 32.902 23.5867 32.902 22.76V4.24C32.8753 3.44 32.782 2.85333 32.622 2.48C32.4886 2.10667 32.222 1.85333 31.822 1.72C31.4486 1.56 30.862 1.48 30.062 1.48C29.982 1.48 29.9286 1.4 29.902 1.24C29.902 1.08 29.9286 1 29.982 1H47.102C47.3153 1 47.422 1.12 47.422 1.36L47.502 6.52C47.502 6.62667 47.422 6.68 47.262 6.68C47.1286 6.68 47.0486 6.64 47.022 6.56C46.702 5.09333 46.0086 3.93333 44.942 3.08C43.902 2.2 42.6486 1.76 41.182 1.76H39.422C38.5686 1.76 37.9553 1.82667 37.582 1.96C37.2086 2.06667 36.9553 2.29333 36.822 2.64C36.7153 2.96 36.6486 3.50667 36.622 4.28V12.48H42.022C43.302 12.48 44.2353 12.2533 44.822 11.8C45.4086 11.3467 45.702 10.5867 45.702 9.52C45.702 9.41333 45.782 9.36 45.942 9.36C46.1553 9.36 46.2486 9.42667 46.222 9.56C46.2486 10.04 46.2486 10.5067 46.222 10.96C46.222 11.3867 46.222 11.6933 46.222 11.88C46.1953 12.12 46.182 12.4933 46.182 13C46.182 13.8267 46.1953 14.4533 46.222 14.88L46.262 16.96C46.262 17.0933 46.182 17.16 46.022 17.16C45.9686 17.16 45.902 17.1467 45.822 17.12C45.7686 17.0667 45.742 17.0133 45.742 16.96C45.742 14.6667 44.462 13.52 41.902 13.52H36.622V22.6C36.622 23.3467 36.6886 23.9067 36.822 24.28C36.982 24.6267 37.2486 24.8667 37.622 25C37.9953 25.1333 38.582 25.2 39.382 25.2H41.742C43.262 25.2 44.6486 24.7067 45.902 23.72C47.1553 22.7333 48.0886 21.4133 48.702 19.76ZM86.8782 1C87.0116 1 87.0782 1.08 87.0782 1.24C87.0782 1.4 87.0116 1.48 86.8782 1.48C85.9182 1.48 85.0916 1.74667 84.3982 2.28C83.7316 2.78667 83.1049 3.81333 82.5182 5.36L74.7182 25.96C74.6916 26.0667 74.5182 26.12 74.1982 26.12C73.8516 26.12 73.6649 26.0667 73.6382 25.96L68.6382 14.92L64.5182 25.96C64.4916 26.0667 64.3049 26.12 63.9582 26.12C63.6116 26.12 63.4249 26.0667 63.3982 25.96L53.6382 4.32C53.1849 3.28 52.7182 2.54667 52.2382 2.12C51.7849 1.69333 51.1849 1.48 50.4382 1.48C50.3316 1.48 50.2782 1.4 50.2782 1.24C50.2782 1.08 50.3182 1 50.3982 1L52.3582 1.04C53.2649 1.09333 53.9182 1.12 54.3182 1.12C55.1182 1.12 56.0249 1.09333 57.0382 1.04L58.6782 1C58.7849 1 58.8382 1.08 58.8382 1.24C58.8382 1.4 58.7849 1.48 58.6782 1.48C57.5849 1.48 57.0382 1.88 57.0382 2.68C57.0382 3.05333 57.1449 3.46667 57.3582 3.92L65.1982 21.32L68.0382 13.56L63.8382 4.32C63.3849 3.25333 62.9582 2.52 62.5582 2.12C62.1582 1.69333 61.6516 1.48 61.0382 1.48C60.9582 1.48 60.9049 1.4 60.8782 1.24C60.8782 1.08 60.9049 1 60.9582 1C61.3316 1 61.9449 1.02667 62.7982 1.08L64.5582 1.12C65.1716 1.12 65.8516 1.09333 66.5982 1.04L67.7982 1C67.9316 1 67.9982 1.08 67.9982 1.24C67.9982 1.4 67.9316 1.48 67.7982 1.48C67.4782 1.48 67.2382 1.52 67.0782 1.6C66.9449 1.65333 66.8782 1.77333 66.8782 1.96C66.8782 2.22667 67.1049 2.88 67.5582 3.92L70.0782 9.52L71.6782 5.2C72.0516 4.21333 72.2382 3.44 72.2382 2.88C72.2382 2.4 72.1049 2.05333 71.8382 1.84C71.5716 1.6 71.1449 1.48 70.5582 1.48C70.5049 1.48 70.4782 1.4 70.4782 1.24C70.4782 1.08 70.5049 1 70.5582 1L71.7582 1.04C72.3982 1.09333 72.9982 1.12 73.5582 1.12C74.0116 1.12 74.5849 1.09333 75.2782 1.04L76.7582 1C76.8649 1 76.9182 1.08 76.9182 1.24C76.9449 1.4 76.9049 1.48 76.7982 1.48C75.9716 1.48 75.2649 1.73333 74.6782 2.24C74.1182 2.74666 73.5449 3.78666 72.9582 5.36L70.7982 11.08L75.3982 21.28L81.2782 5.2C81.4649 4.66667 81.5582 4.16 81.5582 3.68C81.5582 2.98666 81.3316 2.45333 80.8782 2.08C80.4516 1.68 79.8116 1.48 78.9582 1.48C78.8782 1.48 78.8382 1.4 78.8382 1.24C78.8382 1.08 78.8782 1 78.9582 1L80.6382 1.04C81.5449 1.09333 82.3849 1.12 83.1582 1.12C83.6916 1.12 84.3316 1.09333 85.0782 1.04L86.8782 1ZM119.148 1C119.281 1 119.348 1.08 119.348 1.24C119.348 1.4 119.281 1.48 119.148 1.48C118.215 1.48 117.335 1.82667 116.508 2.52C115.681 3.18667 114.855 4.22667 114.028 5.64L109.668 13.56V22.76C109.695 23.5867 109.775 24.1867 109.908 24.56C110.068 24.9333 110.361 25.1867 110.788 25.32C111.215 25.4533 111.908 25.52 112.868 25.52C112.975 25.52 113.028 25.6 113.028 25.76C113.028 25.92 112.975 26 112.868 26C111.988 26 111.295 25.9867 110.788 25.96L107.828 25.92L104.668 25.96C104.161 25.9867 103.481 26 102.628 26C102.521 26 102.468 25.92 102.468 25.76C102.468 25.6 102.521 25.52 102.628 25.52C103.588 25.52 104.295 25.4533 104.748 25.32C105.228 25.16 105.548 24.8933 105.708 24.52C105.895 24.1467 105.975 23.56 105.948 22.76L105.908 14L99.5479 4.32C98.8812 3.30666 98.2546 2.58667 97.6679 2.16C97.0812 1.70667 96.4546 1.48 95.7879 1.48C95.6812 1.48 95.6279 1.4 95.6279 1.24C95.6279 1.08 95.6679 1 95.7479 1L97.6679 1.04C98.5212 1.09333 99.1746 1.12 99.6279 1.12C100.321 1.12 101.335 1.09333 102.668 1.04L104.668 1C104.748 1 104.788 1.05333 104.788 1.16C104.788 1.24 104.761 1.32 104.708 1.4C104.681 1.45333 104.641 1.48 104.588 1.48C103.281 1.48 102.628 1.70667 102.628 2.16C102.628 2.4 102.761 2.70667 103.028 3.08L109.108 12.48L113.108 5C113.428 4.38667 113.588 3.82667 113.588 3.32C113.588 2.76 113.388 2.32 112.988 2C112.588 1.65333 112.028 1.48 111.308 1.48C111.201 1.48 111.148 1.4 111.148 1.24C111.148 1.08 111.188 1 111.268 1L113.308 1.04C114.535 1.09333 115.508 1.12 116.228 1.12C116.681 1.12 117.201 1.09333 117.788 1.04L119.148 1ZM132.064 26.48C129.584 26.48 127.384 25.92 125.464 24.8C123.571 23.6533 122.104 22.1067 121.064 20.16C120.024 18.2133 119.504 16.0533 119.504 13.68C119.504 11.2 120.091 8.96 121.264 6.96C122.464 4.96 124.091 3.4 126.144 2.28C128.197 1.13333 130.491 0.559999 133.024 0.559999C135.531 0.559999 137.744 1.10667 139.664 2.2C141.611 3.29333 143.104 4.8 144.144 6.72C145.211 8.64 145.744 10.7733 145.744 13.12C145.744 15.76 145.117 18.0933 143.864 20.12C142.611 22.1467 140.944 23.72 138.864 24.84C136.784 25.9333 134.517 26.48 132.064 26.48ZM133.784 25.44C135.384 25.44 136.784 25.0267 137.984 24.2C139.211 23.3467 140.144 22.16 140.784 20.64C141.451 19.0933 141.784 17.2933 141.784 15.24C141.784 12.7867 141.344 10.52 140.464 8.44C139.611 6.33333 138.397 4.65333 136.824 3.4C135.277 2.14667 133.517 1.52 131.544 1.52C129.944 1.52 128.531 1.93333 127.304 2.76C126.077 3.58667 125.117 4.77333 124.424 6.32C123.757 7.84 123.424 9.64 123.424 11.72C123.424 14.1467 123.864 16.4133 124.744 18.52C125.624 20.6 126.851 22.28 128.424 23.56C129.997 24.8133 131.784 25.44 133.784 25.44ZM176.519 25.52C176.599 25.52 176.639 25.6 176.639 25.76C176.639 25.92 176.599 26 176.519 26L172.759 25.96L169.999 26C169.706 26 169.519 25.96 169.439 25.88C169.386 25.8 169.359 25.5867 169.359 25.24V23.16C167.999 24.3333 166.652 25.1867 165.319 25.72C164.012 26.2267 162.586 26.48 161.039 26.48C159.199 26.48 157.546 26.16 156.079 25.52C154.612 24.88 153.466 23.96 152.639 22.76C151.812 21.56 151.399 20.16 151.399 18.56V4.24C151.399 3.44 151.319 2.85333 151.159 2.48C151.026 2.10667 150.759 1.85333 150.359 1.72C149.986 1.56 149.386 1.48 148.559 1.48C148.479 1.48 148.439 1.4 148.439 1.24C148.439 1.08 148.479 1 148.559 1L150.439 1.04C151.559 1.09333 152.479 1.12 153.199 1.12C153.919 1.12 154.866 1.09333 156.039 1.04L157.959 1C158.066 1 158.119 1.08 158.119 1.24C158.146 1.4 158.119 1.48 158.039 1.48C157.186 1.48 156.559 1.56 156.159 1.72C155.759 1.88 155.492 2.16 155.359 2.56C155.226 2.93333 155.146 3.52 155.119 4.32V17.16C155.092 19.6667 155.719 21.6267 156.999 23.04C158.279 24.4267 160.066 25.12 162.359 25.12C163.612 25.12 164.786 24.8933 165.879 24.44C166.972 23.9867 168.132 23.2133 169.359 22.12L169.319 4.32C169.346 3.52 169.279 2.93333 169.119 2.56C168.986 2.16 168.719 1.88 168.319 1.72C167.919 1.56 167.319 1.48 166.519 1.48C166.439 1.48 166.399 1.4 166.399 1.24C166.399 1.08 166.426 1 166.479 1L168.439 1.04C169.559 1.09333 170.479 1.12 171.199 1.12C171.866 1.12 172.786 1.09333 173.959 1.04L175.919 1C176.026 1 176.079 1.08 176.079 1.24C176.106 1.4 176.079 1.48 175.999 1.48C175.146 1.48 174.519 1.56 174.119 1.72C173.719 1.85333 173.439 2.10667 173.279 2.48C173.146 2.85333 173.079 3.44 173.079 4.24V22.76C173.079 23.56 173.159 24.16 173.319 24.56C173.479 24.9333 173.799 25.1867 174.279 25.32C174.759 25.4533 175.506 25.52 176.519 25.52Z" fill="url(#paint0_linear_3274_1913)"/>
<defs>
<linearGradient id="paint0_linear_3274_1913" x1="88.8618" y1="-12" x2="88.8618" y2="38" gradientUnits="userSpaceOnUse">
<stop stop-color="#FFDAE7"/>
<stop offset="1" stop-color="#E0004D"/>
</linearGradient>
</defs>
</svg>
