<svg width="140" height="70" viewBox="0 0 140 70" fill="none" xmlns="http://www.w3.org/2000/svg">
<path fill-rule="evenodd" clip-rule="evenodd" d="M20.9567 49.3767H11.0484C10.9839 49.3767 10.9839 49.1106 11.0484 49.1106H13.8819L13.8882 21.2191L11.0477 21.2242V20.9391H19.5364C23.1513 20.9391 27.6642 21.6401 27.8248 27.5557C27.9834 33.3884 23.0501 34.4591 20.7911 34.4591C24.4059 34.4591 28.8241 37.1575 28.8241 41.958C28.8247 45.7909 25.6366 49.3767 20.9567 49.3767ZM19.0529 21.2242L17.407 21.2147V34.2284H20.0212C22.2809 34.2284 24.131 31.8563 24.1177 27.7168C24.1032 23.0958 22.054 21.2242 19.0529 21.2242ZM19.7305 34.6823H17.4064L17.4057 49.1106H20.1495C22.9901 49.1106 24.6227 46.4388 24.6726 42.2001C24.7327 37.208 22.7644 34.6823 19.7305 34.6823ZM39.0655 49.3356V49.1314L42.1766 49.1333L39.8955 40.9714H32.4168L30.8265 46.8338C30.6367 47.5957 30.4643 48.3617 30.3095 49.1314H33.3377V49.3356H27.1472V49.1314H29.9928C29.9928 49.1314 30.1495 48.4071 30.5364 46.8338L37.7022 19.9999L45.9412 49.1346L48.8032 49.1371V49.3349H39.0655V49.3356ZM36.2509 26.3389L32.4143 40.6635H39.7229L36.2509 26.3389ZM50.8448 49.3356L63.0071 21.0181H57.127C52.8036 21.0839 51.585 26.3718 51.5117 31.9751C51.5015 32.7247 51.4415 33.7139 51.4067 34.8226C51.4067 34.8226 51.2095 34.834 51.2095 34.803L51.2228 20.7312H66.6801L54.6948 49.1346L60.0503 49.1422C65.2181 48.9734 66.244 45.2347 66.4273 34.8257H66.6637V49.3286L50.8448 49.3356ZM128.179 49.6579C127.683 49.9038 127.087 49.9999 126.39 49.9999C123.468 50.0005 122.468 47.8553 122.585 42.1729V39.5511C122.585 36.0008 120.878 34.7689 118.167 34.7689H115.552L115.559 49.1548H118.928L118.931 49.3147H109.194L109.186 49.1636L112.048 49.1586L112.035 20.9929L109.194 20.9973V20.7103H118.361C122.815 20.7103 126.496 21.9258 126.502 27.7301C126.509 32.6356 122.529 34.5103 119.43 34.5103C124.013 34.5103 126.731 36.4312 126.2 42.2538L126.097 45.8845C126.097 47.9425 126.365 49.462 127.541 49.4557C127.915 49.4531 128.278 49.3653 128.525 49.0922C128.789 48.7996 128.941 48.347 128.976 48.0582C128.993 47.9084 129.059 47.5563 129.019 47.1669C129.019 47.1669 129.035 42.9757 129.019 42.9554C129.031 42.9712 129.246 42.9554 129.246 42.9554L129.241 45.5678C129.268 47.9077 129.265 48.1934 129.068 48.6605C128.939 48.9671 128.667 49.4158 128.179 49.6579ZM117.65 21.0181H115.549L115.552 34.3157H118.167C121.103 34.3157 122.52 32.4808 122.723 27.8919C122.948 22.8537 120.426 21.0181 117.65 21.0181ZM79.8879 49.3413V49.1453L83.0002 49.1472L80.719 40.9771H73.2404L71.6501 46.8395C71.4603 47.6014 71.2879 48.3674 71.133 49.1371H74.1613V49.3406H67.9708V49.1371H70.8157C70.8157 49.1371 70.9725 48.4127 71.36 46.8395L78.5251 20.0056L86.7642 49.1441L89.6268 49.1472V49.3406H79.8879V49.3413ZM77.0732 26.3459L73.2366 40.6699H80.5458L77.0732 26.3459Z" fill="#181818"/>
<path fill-rule="evenodd" clip-rule="evenodd" d="M99.9846 49.3503V49.1468L103.097 49.1481L100.816 40.9861H93.3371L91.7455 46.8492C91.391 48.3011 91.2298 49.1468 91.2298 49.1468H94.2568V49.3503H88.0669V49.1506L90.9125 49.1468C90.9125 49.1468 91.0692 48.4224 91.4567 46.8492L98.6219 20.0153L106.861 49.1493L109.722 49.1531V49.3503H99.9846ZM97.17 26.3543L93.3333 40.6789H100.643L97.17 26.3543Z" fill="#181818"/>
<path fill-rule="evenodd" clip-rule="evenodd" d="M82.325 22.1794V23.5801H82.7554V23.6939H81.3396V23.5801H81.7694V20.7522H81.3396V20.6378H82.7554V20.7522H82.325V22.065H83.4804V20.7522H83.0506V20.6378H84.4665V20.7522H84.0373V23.5801H84.4665V23.6939H83.0506V23.5801H83.4804V22.1794H82.325ZM85.7666 22.1112C85.7666 21.9923 85.5542 21.9462 85.4803 21.9462C85.3147 21.9462 85.1112 22.0334 85.1769 22.12C85.2028 22.1567 85.2376 22.2528 85.2376 22.34C85.2376 22.4588 85.1289 22.541 85.029 22.541C84.907 22.541 84.8033 22.4727 84.8033 22.3261C84.8033 21.9778 85.2294 21.8546 85.4936 21.8546C85.6813 21.8546 85.881 21.8868 86.0504 21.9778C86.1711 22.0423 86.211 22.1156 86.211 22.2572V23.4739C86.211 23.534 86.2628 23.5611 86.3159 23.5611C86.3677 23.5611 86.4335 23.4929 86.4676 23.4562L86.5194 23.5201C86.4057 23.6667 86.2887 23.7628 86.1073 23.7628C85.9158 23.7628 85.7938 23.6395 85.7679 23.4379C85.6938 23.5367 85.5981 23.6173 85.4881 23.6736C85.3781 23.7299 85.2568 23.7604 85.1333 23.7628C84.8729 23.7628 84.6826 23.6117 84.6826 23.3191C84.6826 22.7742 85.3779 22.6604 85.7679 22.6832V22.1112H85.7666ZM85.7666 22.7793C85.4974 22.7793 85.1371 22.8159 85.1371 23.1863C85.1371 23.388 85.2148 23.539 85.4196 23.539C85.5713 23.539 85.6838 23.4158 85.7369 23.2691C85.7606 23.1923 85.7707 23.1118 85.7666 23.0315V22.7793ZM87.3923 22.3716C87.532 22.12 87.6837 21.8546 88.001 21.8546C88.1704 21.8546 88.348 21.9462 88.348 22.1523C88.348 22.3305 88.2304 22.4083 88.0749 22.4083C88.0201 22.4059 87.9681 22.3829 87.9294 22.3439C87.8907 22.3049 87.8682 22.2527 87.8664 22.1978C87.8664 22.1794 87.8702 22.1523 87.8752 22.1295C87.8879 22.0562 87.8923 22.029 87.8442 22.029C87.7614 22.029 87.7185 22.0745 87.6616 22.1346C87.4972 22.3084 87.3923 22.5555 87.3923 23.1547V23.5801H87.7836V23.6945H86.6661V23.5801H86.9227V21.9968H86.637V21.8824C86.8626 21.8912 87.1268 21.8729 87.3923 21.864V22.3716ZM89.1615 22.2344H89.1703C89.262 22.024 89.4775 21.8546 89.7051 21.8546C90.1778 21.8546 90.5173 22.321 90.5173 22.802C90.5173 23.2641 90.1728 23.7634 89.7051 23.7634C89.4693 23.7634 89.2702 23.6673 89.1703 23.4385H89.1615V24.6508H89.4649V24.7652H88.3783V24.6508H88.6919V21.9968H88.3746V21.8824C88.6299 21.8912 88.8954 21.8729 89.1608 21.864V22.2344H89.1615ZM89.9996 22.3438C89.9996 22.0973 89.9339 21.9456 89.669 21.9456C89.4137 21.9456 89.1615 22.2983 89.1615 22.4721V23.0669C89.1615 23.3646 89.365 23.6711 89.6602 23.6711C89.8776 23.6711 89.9996 23.5567 89.9996 23.3235V22.3438ZM91.2467 22.6832V23.0492C91.2467 23.3696 91.2638 23.6711 91.6341 23.6711C91.9464 23.6711 92.1847 23.4335 92.2725 23.1219H92.3812C92.2675 23.5656 91.9679 23.7628 91.5469 23.7628C91.0741 23.7628 90.7309 23.2824 90.7309 22.8153C90.7309 22.3122 91.1209 21.8539 91.5949 21.8539C91.9988 21.8539 92.3724 22.1466 92.3724 22.5998C92.3724 22.6958 92.3332 22.6819 92.2637 22.6819H91.2467V22.6832ZM91.8813 22.5688C91.8813 22.2622 91.9552 21.9462 91.569 21.9462C91.2088 21.9462 91.2467 22.2806 91.2467 22.5688H91.8813ZM93.2763 22.3716C93.4159 22.12 93.5676 21.8546 93.8849 21.8546C94.0543 21.8546 94.232 21.9462 94.232 22.1523C94.232 22.3305 94.1144 22.4083 93.9576 22.4083C93.9028 22.4057 93.8509 22.3827 93.8123 22.3437C93.7736 22.3047 93.7511 22.2526 93.7491 22.1978C93.7491 22.1794 93.7541 22.1523 93.7592 22.1295C93.7718 22.0562 93.7762 22.029 93.7282 22.029C93.6454 22.029 93.6024 22.0745 93.5455 22.1346C93.3799 22.3084 93.2763 22.5555 93.2763 23.1547V23.5801H93.6675V23.6945H92.55V23.5801H92.8066V21.9968H92.5203V21.8824C92.746 21.8912 93.0102 21.8729 93.2756 21.864V22.3716H93.2763ZM95.0233 21.4835C95.0233 21.804 94.8147 22.0783 94.5714 22.2477C94.5322 22.261 94.4886 22.2433 94.4886 22.1927C94.4886 22.1744 94.5575 22.1194 94.5714 22.1105C94.7269 22.0006 94.8975 21.7123 94.8975 21.5246C94.8975 21.488 94.8805 21.3375 94.8236 21.3375C94.7717 21.3375 94.7629 21.3698 94.7547 21.4108C94.7326 21.5113 94.6409 21.5802 94.524 21.5802C94.3761 21.5802 94.2857 21.438 94.2857 21.292C94.2857 21.1043 94.4292 20.9855 94.6017 20.9855C94.8798 20.9848 95.0233 21.2136 95.0233 21.4835ZM95.1011 23.6939H95.0309V23.0397H95.1485C95.1927 23.3646 95.3709 23.6711 95.7003 23.6711C95.8918 23.6711 96.0953 23.534 96.0953 23.3052C96.0953 23.0763 95.8968 23.0536 95.6706 23.0214C95.2224 22.9569 95.053 22.7654 95.053 22.4127C95.053 22.065 95.2787 21.8546 95.5998 21.8546C95.7514 21.8546 95.9044 21.9051 96.0258 22.0012L96.0947 21.8824H96.1686V22.4222H96.0561C96.0302 22.175 95.8425 21.9462 95.5991 21.9462C95.4297 21.9462 95.2471 22.0518 95.2471 22.2622C95.2471 22.3994 95.2692 22.45 95.6604 22.5182C96.0555 22.5865 96.2811 22.6604 96.2811 23.1313C96.2811 23.5706 96.0504 23.7628 95.6604 23.7628C95.517 23.7628 95.3299 23.6756 95.2256 23.5706L95.1011 23.6939Z" fill="#181818"/>
</svg>
