<svg width="240" height="70" viewBox="0 0 240 70" fill="none" xmlns="http://www.w3.org/2000/svg">
<path d="M23.1566 39.4422L10.3642 23.3688H9.00012V46.5942H12.2812V29.9309L25.4054 46.926H26.4745V23.3688H23.1566V39.4422Z" fill="black"/>
<path d="M33.4436 46.5946H48.448V43.719H36.909V35.3505H45.0932V32.6593H36.909V26.2078H48.448V23.3323H33.4436V46.5946Z" fill="black"/>
<path d="M73.4405 39.5526L67.9475 23.3685H66.7309L61.1273 39.5895L56.0398 23.3685H52.427L60.4637 46.9257H61.5328L67.2102 30.8891L73.2561 46.9257H74.3252L82.2882 23.3685H78.6754L73.4405 39.5526Z" fill="black"/>
<path d="M99.9461 42.944C98.9507 43.6813 97.3655 44.05 95.1904 44.05C94.5637 44.05 93.642 44.0131 92.4623 43.9025V35.0547L95.2641 34.981C97.4761 34.981 99.0613 35.3497 100.02 36.0501C100.978 36.7874 101.458 37.8934 101.458 39.4049C101.421 40.9901 100.941 42.1698 99.9461 42.944ZM92.4623 25.8752C93.384 25.8014 94.4162 25.7646 95.559 25.7646C98.582 25.7646 100.057 26.8337 100.057 28.9719C100.057 31.405 98.4346 32.6216 95.1535 32.6216C94.0844 32.6216 93.1996 32.5847 92.4623 32.511V25.8752ZM103.706 35.6814C102.785 34.6492 101.31 33.9119 99.3194 33.4695C100.388 33.2483 101.347 32.6953 102.232 31.8105C103.117 30.9258 103.559 29.9304 103.559 28.8613C103.559 27.018 102.858 25.6171 101.494 24.6217C100.13 23.6263 98.1765 23.1471 95.6696 23.1471C94.3056 23.1471 92.0568 23.2208 88.9969 23.3683V46.5937H96.2595C98.9138 46.5937 101.052 45.967 102.674 44.7504C104.296 43.5338 105.144 41.9117 105.144 39.8473C105.107 38.1146 104.628 36.7137 103.706 35.6814Z" fill="black"/>
<path d="M126.787 43.7184H115.285V35.3499H123.469V32.6587H115.285V26.2072H126.787V23.3685H111.783V46.5939H126.787V43.7184Z" fill="black"/>
<path d="M139.982 37.4144L143.152 29.1564L146.028 37.4144H139.982ZM143.779 22.9999H142.857L132.498 46.5939H136.406L139.06 39.7369H147.023L149.493 46.5939H153.364L143.779 22.9999Z" fill="black"/>
<path d="M173.313 39.1845C173.313 40.696 172.834 41.9126 171.838 42.7974C170.843 43.6822 169.516 44.1245 167.82 44.1245C166.198 44.1245 164.907 43.6822 163.949 42.7605C162.954 41.8389 162.474 40.696 162.474 39.2583V23.3323H158.972V39.4795C158.972 41.8757 159.746 43.7559 161.295 45.0462C162.843 46.3365 165.018 47.0001 167.857 47.0001C170.622 47.0001 172.797 46.3365 174.419 45.0093C176.004 43.6822 176.815 41.8757 176.815 39.5163V23.3323H173.313V39.1845Z" fill="black"/>
<path d="M182.303 26.2078H190.413V46.5946H193.915V26.2078H202.394V23.3323H182.303V26.2078Z" fill="black"/>
<path d="M216.741 33.5072L210.4 23.3323H206.824L215.008 36.1984V46.5946H218.51V36.1984L226.658 23.3323H223.082L216.741 33.5072Z" fill="black"/>
<path d="M228.574 24.6596V24.1434H228.869C229.054 24.1434 229.164 24.254 229.164 24.4015C229.164 24.549 229.054 24.6596 228.869 24.6596H228.574ZM229.349 24.4015C229.349 24.1434 229.127 23.9591 228.869 23.9591H228.353V25.4706H228.574V24.8439H228.796L229.127 25.4706H229.386L229.017 24.807C229.201 24.7701 229.349 24.6227 229.349 24.4015Z" fill="black"/>
<path d="M228.796 25.876C228.17 25.876 227.617 25.3599 227.617 24.6963C227.617 24.0327 228.133 23.5166 228.796 23.5166C229.423 23.5166 229.976 24.0327 229.976 24.6963C229.976 25.3599 229.46 25.876 228.796 25.876ZM228.796 23.2954C228.022 23.2954 227.395 23.9221 227.395 24.6963C227.395 25.4705 228.022 26.0972 228.796 26.0972C229.57 26.0972 230.197 25.4705 230.197 24.6963C230.197 23.9221 229.57 23.2954 228.796 23.2954Z" fill="black"/>
</svg>
