<svg width="271" height="54" viewBox="0 0 271 54" fill="none" xmlns="http://www.w3.org/2000/svg">
<path d="M87.2536 38.4865C87.1901 38.5548 81.5359 44.6241 78.8309 46.7139C77.9959 47.3584 76.7997 47.2949 76.0526 46.5479L76.0282 46.5234C75.5106 45.9961 75.1786 45.3125 75.0223 44.5899C74.705 43.1202 74.5341 41.4845 74.8417 39.8292C74.9003 39.5265 74.9784 39.2238 75.1102 38.9454C75.3837 38.3497 75.7938 37.9005 76.3749 37.6857C76.7069 37.5587 77.0731 37.5392 77.4149 37.6369C79.1141 38.13 78.2645 40.6398 78.9285 41.9337C79.0506 42.168 79.3631 42.2169 79.5584 42.0362L85.9743 35.923C86.0378 36.0158 86.1013 36.1135 86.1647 36.2062C84.4021 33.4865 81.3406 31.6848 77.8592 31.6848C72.3954 31.6848 67.9668 36.1135 67.9668 41.5772C67.9668 47.041 72.3954 51.4697 77.8592 51.4697C83.323 51.4697 87.7516 47.041 87.7516 41.5772C87.7516 40.4981 87.5759 39.463 87.2585 38.4913L87.2536 38.4865Z" fill="black"/>
<path d="M86.1782 36.2356C86.3686 36.5286 86.5444 36.8362 86.7007 37.1487C86.5444 36.8313 86.3686 36.5286 86.1782 36.2356Z" fill="black"/>
<path d="M86.8682 37.4951C87.0146 37.8174 87.1416 38.1494 87.2539 38.4863C87.1416 38.1445 87.0146 37.8174 86.8682 37.4951Z" fill="black"/>
<path d="M86.7002 37.1484C86.7539 37.251 86.8027 37.3535 86.8516 37.4609C86.8027 37.3584 86.7539 37.251 86.7002 37.1484Z" fill="black"/>
<path d="M114.039 42.5385C113.799 42.1597 113.495 41.8128 113.153 41.5086C112.684 41.0924 112.156 40.7562 111.622 40.4361C111.147 40.1532 110.613 39.8437 110.229 39.4328C110.122 39.3208 109.888 39.0647 109.76 38.6538C109.514 37.864 109.706 36.7007 110.597 36.4659C110.95 36.3699 111.344 36.4072 111.665 36.5886C112.076 36.8234 112.316 37.2984 112.268 37.7733V38.5791H114.674C114.712 38.5791 114.626 37.245 114.61 37.1169C114.546 36.6313 114.423 36.1511 114.157 35.7402C113.559 34.8277 112.385 34.3848 111.344 34.3528C110.416 34.3208 109.418 34.5769 108.623 35.0678C108.089 35.3987 107.721 35.9216 107.508 36.5139C107.204 37.3677 107.091 38.3656 107.273 39.2567C107.545 40.6015 108.447 41.546 109.546 42.277C110.058 42.6186 110.592 42.9281 111.088 43.2909C111.537 43.6164 111.937 43.9526 112.113 44.5076C112.358 45.2973 112.166 46.4606 111.275 46.6954C110.923 46.7915 110.528 46.7541 110.208 46.5727C109.797 46.3379 109.557 45.863 109.605 45.3881V44.5823H107.198C107.161 44.5823 107.246 45.9163 107.262 46.0444C107.326 46.53 107.449 47.0103 107.716 47.4211C108.313 48.3336 109.487 48.7765 110.528 48.8086C111.457 48.8406 112.454 48.5844 113.249 48.0935C113.783 47.7627 114.151 47.2397 114.365 46.6474C114.669 45.7936 114.781 44.7957 114.6 43.9046C114.498 43.4083 114.306 42.9494 114.045 42.5385H114.039Z" fill="black"/>
<path d="M131.617 42.5385C131.377 42.1597 131.073 41.8128 130.732 41.5086C130.262 41.0924 129.734 40.7562 129.2 40.4361C128.725 40.1532 128.192 39.8437 127.807 39.4328C127.701 39.3208 127.466 39.0647 127.338 38.6538C127.092 37.864 127.284 36.7007 128.176 36.4659C128.528 36.3699 128.923 36.4072 129.243 36.5886C129.654 36.8234 129.894 37.2984 129.846 37.7733V38.5791H132.252C132.29 38.5791 132.204 37.245 132.188 37.1169C132.124 36.6313 132.002 36.1511 131.735 35.7402C131.137 34.8277 129.963 34.3848 128.923 34.3528C127.994 34.3208 126.996 34.5769 126.201 35.0678C125.667 35.3987 125.299 35.9216 125.086 36.5139C124.782 37.3677 124.67 38.3656 124.851 39.2567C125.123 40.6015 126.025 41.546 127.124 42.277C127.637 42.6186 128.17 42.9281 128.666 43.2909C129.115 43.6164 129.515 43.9526 129.691 44.5076C129.936 45.2973 129.744 46.4606 128.853 46.6954C128.501 46.7915 128.106 46.7541 127.786 46.5727C127.375 46.3379 127.135 45.863 127.183 45.3881V44.5823H124.776C124.739 44.5823 124.824 45.9163 124.84 46.0444C124.904 46.53 125.027 47.0103 125.294 47.4211C125.892 48.3336 127.066 48.7765 128.106 48.8086C129.035 48.8406 130.032 48.5844 130.828 48.0935C131.361 47.7627 131.729 47.2397 131.943 46.6474C132.247 45.7936 132.359 44.7957 132.178 43.9046C132.076 43.4083 131.884 42.9494 131.623 42.5385H131.617Z" fill="black"/>
<path d="M119.962 43.4778H121.264V46.8716H119.572V48.9261H121.264H123.788V46.8716V43.4778V42.4532V41.4233H119.962V43.4778Z" fill="black"/>
<path d="M119.734 34.5024H119.712C117.476 34.5024 115.662 36.3167 115.662 38.5526V44.876C115.662 47.0638 117.402 48.8461 119.568 48.9208V46.8611C118.789 46.7864 118.181 46.13 118.181 45.3296V38.0883C118.181 37.2399 118.869 36.5515 119.718 36.5515C120.566 36.5515 121.254 37.2399 121.254 38.0883V39.0008H123.778V38.5472C123.778 36.3114 121.964 34.4971 119.728 34.4971L119.734 34.5024Z" fill="black"/>
<path d="M132.315 31.6851H132.203V51.9626H132.315V31.6851Z" fill="black"/>
<path d="M137.236 48.7344H99.3594V48.8838H137.236V48.7344Z" fill="black"/>
<path d="M154.786 35.5837H157.326L159.281 43.6436L160.835 35.5837H163.537L160.752 47.6652H158.251L156.106 39.221L153.862 47.6652H151.361L148.576 35.5837H151.277L152.831 43.6436L154.786 35.5837Z" fill="black"/>
<path d="M171.178 37.7781V35.5835H166.772H164.783H164.494V47.6705H164.783H166.772H171.178V45.4759H166.772V42.7243H171.178V40.5297H166.772V37.7781H171.178Z" fill="black"/>
<path d="M178.853 37.7781V35.5835H174.452H172.458H172.174V47.6705H172.458H174.452H178.853V45.4759H174.452V42.7243H178.853V40.5297H174.452V37.7781H178.853Z" fill="black"/>
<path d="M186.536 37.7781V35.5835H182.13H180.141H179.857V47.6705H180.141H182.13H186.536V45.4759H182.13V42.7243H186.536V40.5297H182.13V37.7781H186.536Z" fill="black"/>
<path d="M197.793 47.6649V35.5835H206.31V37.6277H200.411V40.3069H205.769V42.34H200.411V45.6263H206.31V47.6594H197.793V47.6649Z" fill="black"/>
<path d="M207.246 47.6647V35.5833H211.072L213.267 43.2922L215.434 35.5833H219.272V47.6647H216.826V38.1511L214.426 47.6647H212.075L209.685 38.1511V47.6647H207.24H207.246Z" fill="black"/>
<path d="M227.839 43.6098C227.7 44.2225 227.411 44.7071 226.976 45.0636C226.542 45.4201 226.007 45.5983 225.378 45.5983C224.514 45.5983 223.807 45.2864 223.272 44.657C222.732 44.0275 222.464 43.0138 222.464 41.6157C222.464 40.2121 222.737 39.1983 223.272 38.5745C223.812 37.945 224.514 37.6331 225.378 37.6331C226.007 37.6331 226.536 37.8114 226.976 38.1678C227.416 38.5243 227.7 39.0089 227.839 39.6216L227.956 40.0394L230.402 40.0282L230.173 39.0535C229.906 38.1066 229.511 37.3825 228.976 36.8756C228.085 36.0234 226.92 35.5945 225.494 35.5945C223.857 35.5945 222.537 36.1403 221.534 37.2265C220.565 38.2792 220.064 39.7442 220.03 41.6213C220.064 43.4984 220.565 44.9633 221.534 46.0161C222.537 47.1022 223.857 47.6481 225.494 47.6481C226.926 47.6481 228.085 47.2192 228.976 46.367C229.505 45.8601 229.906 45.136 230.173 44.1891L230.402 43.2143L227.956 43.2032L227.839 43.6209V43.6098Z" fill="black"/>
<path d="M262.566 46.8054C262.131 46.889 261.68 46.889 261.246 46.8054C259.296 46.4489 258.277 44.7556 258.171 41.7255V41.7032C258.171 41.7032 258.171 41.5751 258.171 41.5528V41.5306C258.271 38.5004 259.296 36.8127 261.246 36.4507C261.68 36.3727 262.131 36.3727 262.566 36.4507C263.858 36.6957 264.866 37.5368 265.585 38.985L266.342 38.6508C265.468 36.7737 264.098 35.7544 262.232 35.5984C261.892 35.5706 261.546 35.5817 261.207 35.6263C258.371 35.9995 256.656 38.1161 256.305 40.138C256.221 40.6004 256.182 41.0682 256.188 41.5361C256.188 41.564 256.188 41.6809 256.188 41.7088C256.188 42.1767 256.221 42.6446 256.305 43.1069C256.661 45.1344 258.377 47.2454 261.207 47.6186C261.546 47.6632 261.892 47.6743 262.232 47.6465C264.098 47.4905 265.468 46.4712 266.342 44.5941L265.585 44.2599C264.866 45.7081 263.858 46.5547 262.566 46.7942V46.8054Z" fill="black"/>
<path d="M244.587 35.7656H241.997V47.68H244.587V35.7656Z" fill="black"/>
<path d="M249.968 35.7656H250.475V47.68H249.968C248.837 47.68 247.924 46.7609 247.924 45.6358V37.8098C247.924 36.6791 248.843 35.7656 249.968 35.7656Z" fill="black"/>
<path d="M255.583 35.7659H249.969V36.9579H255.583V35.7659Z" fill="black"/>
<path d="M255.583 46.4883H249.969V47.6803H255.583V46.4883Z" fill="black"/>
<path d="M254.397 40.7007H248.098V41.8927H254.397V40.7007Z" fill="black"/>
<path d="M80.6298 3.60742H78.7676V11.4515H80.6298V3.60742Z" fill="black"/>
<path d="M80.1323 7.32281L83.7003 3.60767H86.3166L82.7808 7.32281L86.2706 11.4242H83.6544L80.1323 7.32281Z" fill="black"/>
<path d="M74.7519 3.47876V8.38018C74.7519 8.68824 74.7381 8.95033 74.7105 9.16643V9.17562C74.6462 9.64462 74.2645 10.0079 73.7955 10.0814C73.1794 10.1734 72.2552 10.1872 71.5196 10.0952C71.1563 10.0492 70.8299 9.82853 70.6919 9.49288C70.6827 9.4653 70.6735 9.4423 70.6643 9.41472C70.5908 9.16643 70.554 8.82158 70.554 8.38018V3.47876H68.5723V8.42156C68.5723 9.14804 68.6366 9.71358 68.77 10.1136C68.8987 10.5136 69.1378 10.8769 69.4873 11.1987C70.154 11.824 71.2115 12.1367 72.6598 12.1367C74.0162 12.1367 75.0646 11.8194 75.8049 11.1849C76.1221 10.8999 76.3612 10.5228 76.5129 10.0584C76.6693 9.59404 76.7428 9.0009 76.7428 8.28362V3.47876H74.7473H74.7519Z" fill="black"/>
<path d="M77.2348 19.9944H72.3334C72.0253 19.9944 71.7632 19.9806 71.5471 19.9484H71.538C71.069 19.8795 70.7057 19.4749 70.6322 18.9783C70.5402 18.3254 70.5264 17.346 70.6184 16.5644C70.6643 16.1781 70.885 15.8333 71.2207 15.6861C71.2483 15.6769 71.2713 15.6632 71.2988 15.6586C71.5425 15.5758 71.8874 15.539 72.3288 15.539H77.2302V13.4377H72.2874C71.5609 13.4377 70.9954 13.5067 70.5954 13.6447C70.1953 13.7826 69.8321 14.0355 69.5103 14.4033C68.8849 15.1068 68.5723 16.2287 68.5723 17.769C68.5723 19.2082 68.8895 20.3209 69.524 21.1071C69.8091 21.4428 70.1861 21.6957 70.6505 21.8612C71.1149 22.0267 71.7081 22.1049 72.4254 22.1049H77.2302V19.9898L77.2348 19.9944Z" fill="black"/>
<path d="M79.8936 19.6172H85.4434V17.7274H79.8936V19.6172Z" fill="black"/>
<path d="M85.4457 14.5919H85.4411C85.1054 14.3114 84.7192 14.0723 84.3008 13.8838C83.6939 13.6125 83.0134 13.4516 82.2915 13.4424C81.5696 13.4516 80.8891 13.6125 80.2822 13.8838C79.8592 14.0723 79.4775 14.3114 79.1419 14.5873H79.1373C78.5855 15.0471 78.2637 15.7276 78.2637 16.4448V22.1095H80.1259V17.3644C80.1259 16.3943 80.8615 15.585 81.8271 15.4839C81.9788 15.4701 82.1352 15.4609 82.2915 15.4563C82.4478 15.4563 82.6041 15.4655 82.7559 15.4839C83.7215 15.585 84.4571 16.3943 84.4571 17.3644V22.1095H86.3193V16.4448C86.3193 15.7276 85.9974 15.0471 85.4457 14.5919Z" fill="black"/>
<path d="M107.148 19.8071H109.104L106.67 15.1861C106.901 15.1232 107.116 15.0392 107.321 14.9291C107.793 14.6721 108.16 14.1475 108.422 13.6755C108.684 13.2034 108.816 12.6579 108.816 12.039C108.816 11.4201 108.684 10.8746 108.427 10.4025C108.17 9.93042 107.803 9.4059 107.331 9.14888C106.859 8.89187 106.314 8.76074 105.689 8.76074H101.131V19.8071H102.763V15.312H104.887L107.158 19.8071H107.148ZM102.757 10.3605H105.742C106.036 10.3605 106.287 10.4287 106.508 10.5703C106.728 10.7067 106.896 10.906 107.022 11.1578C107.142 11.4148 107.205 11.7033 107.205 12.0337C107.205 12.3642 107.142 12.6579 107.022 12.9149C106.901 13.172 106.728 13.366 106.508 13.5024C106.287 13.6388 106.03 13.7122 105.742 13.7122H102.757V10.3605Z" fill="black"/>
<path d="M123.717 9.02832V13.6179H119.427V9.02832H117.596V19.8072H119.427V15.2176H123.717V19.8072H125.553V9.02832H123.717Z" fill="black"/>
<path d="M128.726 19.6079C128.285 19.5083 127.876 19.3614 127.493 19.1621C127.11 18.9628 126.754 18.7162 126.423 18.4225L127.315 17.2686C127.703 17.6252 128.128 17.8927 128.6 18.0711C129.067 18.2494 129.576 18.3386 130.121 18.3386C130.861 18.3386 131.432 18.1917 131.836 17.9032C132.24 17.6147 132.445 17.2056 132.445 16.6759C132.445 16.293 132.35 15.994 132.167 15.7737C131.983 15.5534 131.742 15.3908 131.453 15.2859C131.16 15.181 130.782 15.0813 130.321 14.9922C130.305 14.9922 130.289 14.9869 130.273 14.9869C130.258 14.9869 130.242 14.9869 130.226 14.9817L130.121 14.9607C129.439 14.8348 128.883 14.6984 128.458 14.5411C128.028 14.3837 127.666 14.1005 127.362 13.6861C127.058 13.2717 126.906 12.6843 126.906 11.9237C126.906 11.2471 127.048 10.6806 127.331 10.2085C127.614 9.73648 128.028 9.37456 128.569 9.12804C129.109 8.88151 129.765 8.75562 130.525 8.75562C130.887 8.75562 131.249 8.79759 131.6 8.88151C131.952 8.96543 132.303 9.09131 132.644 9.25391C132.985 9.42176 133.326 9.62632 133.656 9.87809L132.843 11.0792C132.455 10.7803 132.067 10.5495 131.684 10.4026C131.301 10.2505 130.913 10.1771 130.525 10.1771C129.827 10.1771 129.287 10.3239 128.904 10.6177C128.521 10.9114 128.327 11.3258 128.327 11.866C128.327 12.2437 128.427 12.5374 128.626 12.7472C128.826 12.9623 129.072 13.1144 129.371 13.2193C129.67 13.3189 130.079 13.4238 130.609 13.534C130.63 13.534 130.646 13.5445 130.661 13.5445C130.677 13.5445 130.693 13.5497 130.714 13.555C130.735 13.555 130.761 13.5655 130.793 13.5707C130.819 13.5707 130.845 13.5812 130.871 13.5864C131.49 13.7176 132.004 13.8802 132.419 14.0585C132.833 14.2421 133.179 14.5358 133.457 14.9449C133.735 15.3541 133.872 15.9101 133.872 16.6182V16.6339C133.872 17.2895 133.725 17.856 133.431 18.3229C133.137 18.7897 132.712 19.1463 132.151 19.3929C131.595 19.6394 130.918 19.76 130.126 19.76C129.633 19.76 129.172 19.7128 128.731 19.6132L128.726 19.6079Z" fill="black"/>
<path d="M113.217 11.1792C111.255 11.1792 109.671 13.1671 109.671 15.6166C109.671 18.0661 111.26 20.0541 113.217 20.0541C115.173 20.0541 116.762 18.0661 116.762 15.6166C116.762 13.1671 115.173 11.1792 113.217 11.1792ZM113.217 18.1133C112.11 18.1133 111.218 16.9961 111.218 15.6114C111.218 14.2267 112.115 13.1094 113.217 13.1094C114.318 13.1094 115.215 14.2267 115.215 15.6114C115.215 16.9961 114.318 18.1133 113.217 18.1133Z" fill="black"/>
<path d="M111.286 6.01778V8.43582L113.378 10.6965L118.54 5.53523V2.95459L113.541 7.95325L111.286 6.01778Z" fill="black"/>
<path d="M148.088 6.68604H146.803V19.1555H148.088V6.68604Z" fill="black"/>
<path d="M156.093 11.9099H154.808V19.1552H156.093V11.9099Z" fill="black"/>
<path d="M158.138 11.9099H156.853V17.0121H158.138V11.9099Z" fill="black"/>
<path d="M159.273 7.97552V6.69043H146.803V7.97552H159.273Z" fill="black"/>
<path d="M159.273 9.92669V8.6416H148.806V9.92669H159.273Z" fill="black"/>
<path d="M159.272 19.1555V17.8704H154.808V19.1555H159.272Z" fill="black"/>
<path d="M177.102 19.1555V17.8704H168.403V19.1555H177.102Z" fill="black"/>
<path d="M170.342 8.38818L163.809 19.1551H165.31L170.342 10.8641L174.121 17.0966H175.622L170.342 8.38818Z" fill="black"/>
<path d="M175.62 17.0969L174.785 15.8118H168.398V17.0969H175.62Z" fill="black"/>
<path d="M159.273 17.0082V15.7231H156.853V17.0082H159.273Z" fill="black"/>
<path d="M150.091 8.63672H148.806V13.1899H150.091V8.63672Z" fill="black"/>
<path d="M150.091 13.8608H148.806V19.1553H150.091V13.8608Z" fill="black"/>
<path d="M154.033 13.1906V11.9055H148.804V13.1906H154.032H154.033Z" fill="black"/>
<path d="M154.033 15.1459V13.8608H148.804V15.1459H154.032H154.033Z" fill="black"/>
<path d="M159.272 6.68628V7.97137C162.006 7.97137 164.22 10.1848 164.22 12.9187C164.22 15.6527 162.006 17.8661 159.272 17.8661V19.1512C162.715 19.1512 165.505 16.3611 165.505 12.9187C165.505 9.47638 162.715 6.68628 159.272 6.68628Z" fill="black"/>
<path d="M159.272 8.63672V9.92181C160.876 9.92181 162.17 11.2211 162.17 12.8196C162.17 14.4181 160.871 15.7174 159.272 15.7174V17.0025C161.585 17.0025 163.455 15.1265 163.455 12.8196C163.455 10.5127 161.579 8.63672 159.272 8.63672Z" fill="black"/>
<path d="M171.66 6.68605H168.983L163.965 14.6255L164.584 16.1821L170.324 6.68605L177.105 17.8704L177.954 16.7117L171.661 6.6853L171.66 6.68605Z" fill="black"/>
<path d="M193.138 5.97339H190.581V17.8537H193.138V5.97339Z" fill="black"/>
<path d="M206.522 11.2358H203.964V17.8534H206.522V11.2358Z" fill="black"/>
<path d="M207.872 5.97339L208.172 8.53069H199.904V5.97339H207.872Z" fill="black"/>
<path d="M200.055 10.7874V13.3447H206.52V10.7874H200.055Z" fill="black"/>
<path d="M192.852 12.2635L190.721 10.5092L195.243 5.97339H198.249L192.852 12.2635Z" fill="black"/>
<path d="M193.678 10.8635L191.938 12.7389L201.26 19.7378V16.7992L193.678 10.8635Z" fill="black"/>
<path d="M219.43 17.8583L213.499 5.57422L210.466 11.4336L211.87 14.1165L213.422 10.6888L216.832 17.8538L219.43 17.8583Z" fill="black"/>
<path d="M201.56 19.9578L199.002 17.9254V5.97339H201.56V19.9578Z" fill="black"/>
<path d="M212.431 11.8148C212.431 9.01075 210.52 6.65534 207.931 5.97339H207.872L208.021 8.52172C209.259 9.10048 210.116 10.3567 210.116 11.8148C210.116 13.8113 208.51 15.4309 206.518 15.4489V17.8537C209.793 17.7819 212.426 15.1079 212.426 11.8148H212.431Z" fill="black"/>
<path d="M213.59 17.4005C214.42 17.4005 215.093 16.7276 215.093 15.8975C215.093 15.0674 214.42 14.3945 213.59 14.3945C212.76 14.3945 212.087 15.0674 212.087 15.8975C212.087 16.7276 212.76 17.4005 213.59 17.4005Z" fill="black"/>
<path d="M255.99 7.15039H251.81V10.2503H255.99V7.15039Z" fill="black"/>
<path d="M250.489 7.15039H242.993V10.2503H250.489V7.15039Z" fill="black"/>
<path d="M242.993 11.6348V14.6088V18.3539H245.207V14.6088H250.489V11.5037H242.993V11.6348Z" fill="black"/>
<path d="M254.029 11.5037H251.81V15.2487V18.3539H254.029H255.99V15.2487H254.029V11.5037Z" fill="black"/>
<path d="M266.356 18.3541H268.574L265.023 7.15039H264.651H263.502H263.104L259.553 18.3541H260.964H261.771H264.861L263.948 15.721H262.448L264.074 9.39533L266.356 18.3541Z" fill="black"/>
<path d="M255.992 7.15039V10.2503C256.799 10.2503 257.455 11.3675 257.455 12.7523C257.455 14.137 256.799 15.2542 255.992 15.2542V18.3541C258.142 18.3541 259.878 15.8469 259.878 12.7523C259.878 9.65759 258.137 7.15039 255.992 7.15039Z" fill="black"/>
<path d="M234.155 12.8361C234.155 15.9779 235.576 18.5271 237.328 18.5271H241.792V15.4272H238.267C237.47 15.4272 236.825 14.268 236.825 12.8413C236.825 11.4146 237.47 10.2554 238.267 10.2554H241.792V7.15552H237.328C235.576 7.15552 234.155 9.70468 234.155 12.8466V12.8361Z" fill="black"/>
<circle cx="27.42" cy="26.5489" r="16.869" stroke="black" stroke-width="0.837362"/>
<circle cx="27.4201" cy="26.549" r="26.1303" stroke="black" stroke-width="0.837362"/>
<path d="M24.3607 19.5212C20.3789 19.554 17.1562 22.793 17.1562 26.7803C17.1562 30.7677 20.3734 34.0067 24.3607 34.0394L25.3057 34.0285V31.7071H24.3607C21.6625 31.6744 19.4886 29.4786 19.4886 26.7749C19.4886 24.0711 21.6679 21.8754 24.3607 21.8426H25.3057V19.5212" fill="black"/>
<path d="M36.5184 19.5214C32.5366 19.5542 29.314 22.7932 29.314 26.7805C29.314 30.7678 32.5311 34.0068 36.5184 34.0396L37.4634 34.0287V31.7073H36.5184C33.8202 31.6745 31.6463 29.4788 31.6463 26.7751C31.6463 24.0713 33.8256 21.8756 36.5184 21.8428H37.4634V19.5214L36.5184 19.5105V19.5214Z" fill="black"/>
<path d="M36.0423 25.6006H31.3066V27.8892H36.0423V25.6006Z" fill="black"/>
<path d="M27.0813 3.90752C27.1231 3.77895 27.305 3.77895 27.3468 3.90752L27.691 4.96688C27.7097 5.02438 27.7633 5.06332 27.8237 5.06332H28.9376C29.0728 5.06332 29.129 5.23632 29.0196 5.31578L28.1185 5.9705C28.0696 6.00604 28.0491 6.06903 28.0678 6.12654L28.412 7.18589C28.4538 7.31447 28.3066 7.42139 28.1972 7.34193L27.2961 6.68721C27.2472 6.65167 27.1809 6.65167 27.132 6.68721L26.2309 7.34193C26.1215 7.42139 25.9743 7.31447 26.0161 7.18589L26.3603 6.12654C26.379 6.06903 26.3585 6.00604 26.3096 5.9705L25.4085 5.31578C25.2991 5.23632 25.3553 5.06332 25.4905 5.06332H26.6044C26.6649 5.06332 26.7184 5.02438 26.7371 4.96688L27.0813 3.90752Z" fill="black"/>
<path d="M40.2532 7.40606C40.295 7.27748 40.4769 7.27748 40.5187 7.40606L40.8629 8.46542C40.8816 8.52292 40.9351 8.56185 40.9956 8.56185H42.1095C42.2447 8.56185 42.3009 8.73485 42.1915 8.81432L41.2904 9.46904C41.2415 9.50458 41.221 9.56757 41.2397 9.62507L41.5839 10.6844C41.6256 10.813 41.4785 10.9199 41.3691 10.8405L40.468 10.1857C40.4191 10.1502 40.3528 10.1502 40.3039 10.1857L39.4028 10.8405C39.2934 10.9199 39.1462 10.813 39.188 10.6844L39.5322 9.62507C39.5509 9.56757 39.5304 9.50458 39.4815 9.46904L38.5804 8.81432C38.471 8.73485 38.5272 8.56185 38.6624 8.56185H39.7763C39.8367 8.56185 39.8903 8.52292 39.909 8.46542L40.2532 7.40606Z" fill="black"/>
<path d="M47.6619 17.6961C47.7037 17.5675 47.8856 17.5675 47.9274 17.6961L48.2716 18.7555C48.2902 18.813 48.3438 18.8519 48.4043 18.8519H49.5182C49.6534 18.8519 49.7096 19.0249 49.6002 19.1044L48.6991 19.7591C48.6501 19.7946 48.6297 19.8576 48.6484 19.9151L48.9926 20.9745C49.0343 21.103 48.8872 21.21 48.7778 21.1305L47.8767 20.4758C47.8277 20.4402 47.7615 20.4402 47.7126 20.4758L46.8115 21.1305C46.7021 21.21 46.5549 21.103 46.5967 20.9745L46.9409 19.9151C46.9596 19.8576 46.9391 19.7946 46.8902 19.7591L45.9891 19.1044C45.8797 19.0249 45.9359 18.8519 46.0711 18.8519H47.185C47.2454 18.8519 47.299 18.813 47.3177 18.7555L47.6619 17.6961Z" fill="black"/>
<path d="M6.08963 18.7249C6.13141 18.5963 6.31331 18.5963 6.35509 18.7249L6.6993 19.7843C6.71798 19.8418 6.77157 19.8807 6.83203 19.8807H7.9459C8.0811 19.8807 8.13731 20.0537 8.02793 20.1332L7.12679 20.7879C7.07788 20.8234 7.05741 20.8864 7.07609 20.9439L7.4203 22.0033C7.46208 22.1319 7.31491 22.2388 7.20554 22.1593L6.30439 21.5046C6.25548 21.4691 6.18924 21.4691 6.14033 21.5046L5.23919 22.1593C5.12981 22.2388 4.98265 22.1319 5.02442 22.0033L5.36863 20.9439C5.38731 20.8864 5.36685 20.8234 5.31793 20.7879L4.41679 20.1332C4.30741 20.0537 4.36362 19.8807 4.49882 19.8807H5.6127C5.67316 19.8807 5.72674 19.8418 5.74543 19.7843L6.08963 18.7249Z" fill="black"/>
<path d="M47.868 31.4854C47.9097 31.3568 48.0916 31.3568 48.1334 31.4854L48.4776 32.5448C48.4963 32.6023 48.5499 32.6412 48.6103 32.6412H49.7242C49.8594 32.6412 49.9156 32.8142 49.8063 32.8937L48.9051 33.5484C48.8562 33.5839 48.8357 33.6469 48.8544 33.7044L49.1986 34.7638C49.2404 34.8924 49.0932 34.9993 48.9839 34.9198L48.0827 34.2651C48.0338 34.2296 47.9676 34.2296 47.9187 34.2651L47.0175 34.9198C46.9081 34.9993 46.761 34.8924 46.8027 34.7638L47.147 33.7044C47.1656 33.6469 47.1452 33.5839 47.0963 33.5484L46.1951 32.8937C46.0857 32.8142 46.1419 32.6412 46.2771 32.6412H47.391C47.4515 32.6412 47.5051 32.6023 47.5237 32.5448L47.868 31.4854Z" fill="black"/>
<path d="M6.2952 32.5142C6.33698 32.3856 6.51888 32.3856 6.56066 32.5142L6.90486 33.5736C6.92355 33.6311 6.97713 33.67 7.03759 33.67H8.15147C8.28666 33.67 8.34288 33.843 8.2335 33.9225L7.33236 34.5772C7.28344 34.6127 7.26297 34.6757 7.28166 34.7332L7.62586 35.7926C7.66764 35.9212 7.52048 36.0281 7.4111 35.9486L6.50996 35.2939C6.46105 35.2584 6.39481 35.2584 6.3459 35.2939L5.44475 35.9486C5.33538 36.0281 5.18821 35.9212 5.22999 35.7926L5.5742 34.7332C5.59288 34.6757 5.57241 34.6127 5.5235 34.5772L4.62235 33.9225C4.51298 33.843 4.56919 33.67 4.70439 33.67H5.81826C5.87872 33.67 5.93231 33.6311 5.95099 33.5736L6.2952 32.5142Z" fill="black"/>
<path d="M40.2532 41.9813C40.295 41.8527 40.4769 41.8527 40.5187 41.9813L40.8629 43.0406C40.8816 43.0981 40.9351 43.137 40.9956 43.137H42.1095C42.2447 43.137 42.3009 43.31 42.1915 43.3895L41.2904 44.0442C41.2415 44.0798 41.221 44.1428 41.2397 44.2003L41.5839 45.2596C41.6256 45.3882 41.4785 45.4951 41.3691 45.4157L40.468 44.7609C40.4191 44.7254 40.3528 44.7254 40.3039 44.7609L39.4028 45.4157C39.2934 45.4951 39.1462 45.3882 39.188 45.2596L39.5322 44.2003C39.5509 44.1428 39.5304 44.0798 39.4815 44.0442L38.5804 43.3895C38.471 43.31 38.5272 43.137 38.6624 43.137H39.7763C39.8367 43.137 39.8903 43.0981 39.909 43.0406L40.2532 41.9813Z" fill="black"/>
<path d="M13.7044 7.40606C13.7462 7.27748 13.9281 7.27748 13.9698 7.40606L14.314 8.46542C14.3327 8.52292 14.3863 8.56185 14.4468 8.56185H15.5606C15.6958 8.56185 15.7521 8.73485 15.6427 8.81432L14.7415 9.46904C14.6926 9.50458 14.6722 9.56757 14.6908 9.62507L15.035 10.6844C15.0768 10.813 14.9297 10.9199 14.8203 10.8405L13.9191 10.1857C13.8702 10.1502 13.804 10.1502 13.7551 10.1857L12.8539 10.8405C12.7446 10.9199 12.5974 10.813 12.6392 10.6844L12.9834 9.62507C13.0021 9.56757 12.9816 9.50458 12.9327 9.46904L12.0315 8.81432C11.9222 8.73485 11.9784 8.56185 12.1136 8.56185H13.2274C13.2879 8.56185 13.3415 8.52292 13.3602 8.46542L13.7044 7.40606Z" fill="black"/>
<path d="M13.7044 41.9813C13.7462 41.8527 13.9281 41.8527 13.9698 41.9813L14.314 43.0406C14.3327 43.0981 14.3863 43.137 14.4468 43.137H15.5606C15.6958 43.137 15.7521 43.31 15.6427 43.3895L14.7415 44.0442C14.6926 44.0798 14.6722 44.1428 14.6908 44.2003L15.035 45.2596C15.0768 45.3882 14.9297 45.4951 14.8203 45.4157L13.9191 44.7609C13.8702 44.7254 13.804 44.7254 13.7551 44.7609L12.8539 45.4157C12.7446 45.4951 12.5974 45.3882 12.6392 45.2596L12.9834 44.2003C13.0021 44.1428 12.9816 44.0798 12.9327 44.0442L12.0315 43.3895C11.9222 43.31 11.9784 43.137 12.1136 43.137H13.2274C13.2879 43.137 13.3415 43.0981 13.3602 43.0406L13.7044 41.9813Z" fill="black"/>
<path d="M27.0813 46.3033C27.1231 46.1747 27.305 46.1747 27.3468 46.3033L27.691 47.3626C27.7097 47.4201 27.7633 47.4591 27.8237 47.4591H28.9376C29.0728 47.4591 29.129 47.6321 29.0196 47.7115L28.1185 48.3663C28.0696 48.4018 28.0491 48.4648 28.0678 48.5223L28.412 49.5816C28.4538 49.7102 28.3066 49.8171 28.1972 49.7377L27.2961 49.083C27.2472 49.0474 27.1809 49.0474 27.132 49.083L26.2309 49.7377C26.1215 49.8171 25.9743 49.7102 26.0161 49.5816L26.3603 48.5223C26.379 48.4648 26.3585 48.4018 26.3096 48.3663L25.4085 47.7115C25.2991 47.6321 25.3553 47.4591 25.4905 47.4591H26.6044C26.6649 47.4591 26.7184 47.4201 26.7371 47.3626L27.0813 46.3033Z" fill="black"/>
</svg>
