<svg width="140" height="70" viewBox="0 0 140 70" fill="none" xmlns="http://www.w3.org/2000/svg">
<path fill-rule="evenodd" clip-rule="evenodd" d="M124.958 52.6855V43.3005H124.655C124.655 46.2584 124.174 48.1943 123.396 49.51C122.443 51.1373 120.589 52.0989 118.148 52.0989H117.112V34.866C118.121 34.866 119.428 34.9077 120.294 36.0505C121.181 37.235 121.323 38.8958 121.323 41.0836H121.546V28.213H121.323C121.323 30.3248 121.234 32.0438 120.286 33.3118C119.405 34.4985 118.121 34.5693 117.112 34.5693V18.597H118.472C120.277 18.597 121.973 19.077 123.1 20.8139C124.064 22.2936 124.359 24.6916 124.359 27.1784H124.654V18.0029H110.383V18.2988H112.894V52.3978H110.383V52.6863H124.958V52.6855ZM93.2233 52.6855V43.2267H92.9303C92.9303 45.9625 92.4108 48.2584 91.6698 49.5107C90.5666 51.39 88.6389 52.1548 86.7224 52.1548H85.3813V18.2824H87.9173V17.9999H78.5793V18.2824H81.1682L81.1883 52.397H78.5793V52.6855H93.2233ZM61.3695 52.6855V43.2267H61.0684C61.0684 45.9625 60.5548 48.2584 59.8131 49.5107C58.7098 51.39 56.7844 52.1548 54.8664 52.1548H53.5268V18.2824H56.0606V17.9999H46.7226V18.2824H49.3062L49.3271 52.397H46.7226V52.6855H61.3695ZM29.568 52.6855V43.3005H29.269C29.269 46.2584 28.7845 48.1943 28.0115 49.51C27.0529 51.1373 25.2027 52.0989 22.7607 52.0989H21.726V34.866C22.7368 34.866 24.0398 34.9077 24.9068 36.0505C25.7976 37.235 25.9392 38.8958 25.9392 41.0836H26.1643V28.213H25.9392C25.9392 30.3248 25.8497 32.0438 24.9016 33.3118C24.0182 34.4985 22.7376 34.5693 21.726 34.5693V18.597H23.0827C24.8904 18.597 26.5862 19.077 27.7156 20.8139C28.6794 22.2936 28.9709 24.6916 28.9709 27.1784H29.269V18.0029H15V18.2988H17.5076V52.3978H15V52.6863H29.568V52.6855Z" fill="#181818"/>
</svg>
