<svg width="190" height="70" viewBox="0 0 190 70" fill="none" xmlns="http://www.w3.org/2000/svg">
<mask id="mask0_3090_212" style="mask-type:alpha" maskUnits="userSpaceOnUse" x="12" y="20" width="167" height="29">
<path d="M12.0005 20H178.078V49H12.0005V20Z" fill="#181818"/>
</mask>
<g mask="url(#mask0_3090_212)">
<path fill-rule="evenodd" clip-rule="evenodd" d="M12.0012 31.1284V48.5873H18.0968L18.1092 35.5163C18.1092 34.4957 19.1222 33.5988 20.1358 33.6321C21.0858 33.6631 22.0404 34.5598 22.0404 35.5163C22.0404 35.5163 22.0433 48.3352 22.0433 48.5733H28.4046C28.4046 48.3352 28.3938 35.5163 28.3938 35.5163C28.4043 34.4836 29.4944 33.5861 30.5337 33.6321C31.4843 33.6739 32.392 34.5718 32.392 35.5163V48.5676H38.7886L38.7778 33.4453C38.7778 32.8227 38.7778 31.9206 38.6103 31.1969C38.2897 29.9028 37.1901 28.7867 35.937 28.4902C33.0387 27.7775 30.4005 28.8828 28.8763 31.4462L28.7332 31.685L28.632 31.4271C27.8724 29.5299 26.6713 28.4791 25.0617 28.3066C22.3826 27.8898 20.315 28.9098 18.3436 31.6162L18.0968 31.9565V28.024C17.7267 28.2133 12.0012 31.1284 12.0012 31.1284ZM57.8761 31.1639L57.8819 48.5841L64.0926 48.5813V37.4317L64.1173 37.0156C64.1722 36.0967 64.2242 35.1481 64.6549 34.347C65.5842 32.5512 67.7368 32.5895 69.2424 32.784L70.3334 28.1036C70.3334 28.1036 69.648 27.8159 68.6445 27.8131C65.8639 27.8131 64.3476 31.038 64.3311 31.0738L64.0678 31.6936V31.2977L64.0656 27.7937L57.8761 31.1639ZM117.348 48.5553H123.544V21.6087L117.348 24.9262V48.5553ZM112.534 45.1353C110.881 44.2751 109.498 43.0131 109.321 39.3892C109.115 35.1697 109.954 32.2048 112.208 31.3453C113.917 30.6932 116.265 32.1319 116.265 32.1319L116.288 28.7214C116.288 28.7214 113.07 27.1613 109.457 28.3151C106.196 29.3573 104.094 31.8994 103.348 36.0561C102.805 39.0844 103.236 42.4289 104.736 45.0585C105.738 46.7094 107.26 47.901 109.092 48.5121C110.418 48.9539 111.906 49.0916 113.475 48.8785C114.491 48.7405 116.609 48.089 116.609 48.089L116.579 44.9371C116.579 44.9371 114.238 46.0221 112.534 45.1353ZM149.169 22.2925C148.93 21.6147 148.424 20.9639 147.789 20.5164C146.355 19.6505 144.294 19.8985 143.189 21.073C142.354 21.8535 141.954 23.1609 142.169 24.4105C142.339 25.579 143.295 26.5165 144.106 26.8923C145.444 27.4277 147.432 27.3186 148.645 25.8209C149.332 24.9976 149.553 23.512 149.169 22.2893V22.2925ZM149.001 27.8099L142.709 31.1813V48.5511L149.014 48.5483L149.001 27.8099ZM76.5857 22.3157C76.3462 21.6379 75.841 20.9871 75.2057 20.5395C73.7715 19.6737 71.7105 19.9217 70.6058 21.0962C69.7707 21.8767 69.3711 23.184 69.5858 24.4337C69.7555 25.6021 70.7118 26.5396 71.5231 26.9155C72.8602 27.4509 74.8485 27.3417 76.0617 25.8441C76.7487 25.0207 76.9701 23.5351 76.5857 22.3125V22.3157ZM76.4172 27.833L70.1257 31.2045V48.574L73.6554 48.5727L76.4302 48.5718L76.4172 27.833ZM149.985 31.1636L149.991 48.5838L156.201 48.5813V37.4314L156.226 37.0153C156.281 36.0964 156.333 35.1478 156.764 34.347C157.693 32.5512 159.846 32.5892 161.351 32.7836L162.442 28.1033C162.442 28.1033 161.757 27.8156 160.753 27.8127C157.973 27.8127 156.456 31.0377 156.44 31.0735L156.177 31.6936V31.2977L156.175 27.7934L149.985 31.1636ZM57.2237 46.0725C57.2237 46.0725 56.5932 45.9821 56.5767 45.9758C56.0309 45.9228 55.8809 44.7658 55.8809 44.7658C55.8809 44.7547 54.721 37.8722 54.721 37.8722C54.721 37.8798 54.4467 36.5338 54.4467 36.5338C54.1644 35.1021 53.871 33.6187 53.3255 32.2559C51.543 28.1239 46.4284 27.4442 42.6615 28.56C42.0573 28.7433 41.4848 29.0535 41.4848 29.0535V31.6146C43.0341 30.9425 44.5451 30.9016 45.7681 31.4826C47.3587 32.253 47.8071 34.2131 47.8893 35.0247C47.8893 35.0384 48.0288 35.9321 48.0288 35.9321C46.1918 36.2093 43.9089 36.6626 42.2254 37.85C40.3443 39.1907 39.3544 41.3271 39.5739 43.5593C39.6421 45.9336 41.4794 47.834 43.2536 48.4921C45.6117 49.3257 48.8484 49.1909 50.7729 46.9752C50.7844 46.9647 51.0089 46.7138 51.0089 46.7138L51.5538 47.2444C52.9579 48.7167 54.4961 48.6707 56.2786 48.6184L57.2244 48.5987L57.2237 46.0725ZM48.4941 38.9709L49.6457 44.5533C46.6796 47.9726 41.795 41.9716 48.4941 38.9709ZM167.242 38.1967C167.072 36.236 167.314 34.1395 167.786 33.1772C168.264 32.1997 168.805 31.8233 169.469 31.7427C172.303 31.3989 172.617 36.5979 172.617 36.5979L167.242 38.2087C167.245 38.2119 167.242 38.1935 167.242 38.1967ZM176.012 44.8124C176.012 44.8124 174.038 46.2593 171.016 45.8365C168.244 45.449 167.388 41.1086 167.388 41.1086L178.078 37.6547C178.078 37.6547 177.877 32.9847 175.298 30.4496C172.936 28.1296 169.354 27.4391 166.059 28.7975C164.098 29.5571 162.285 31.5965 161.444 33.9905C159.801 38.5481 160.778 43.6468 163.877 46.6761C166.736 49.4145 171.185 49.3631 174.396 48.4008C174.384 48.4037 176.014 47.7049 176.014 47.7049L176.012 44.8124ZM83.8135 38.1967C83.6438 36.236 83.8861 34.1395 84.3581 33.1772C84.8364 32.1997 85.3771 31.8233 86.0406 31.7427C88.8751 31.3989 89.1891 36.5979 89.1891 36.5979L83.8135 38.2087C83.8167 38.2119 83.8135 38.1935 83.8135 38.1967ZM92.5834 44.8124C92.5834 44.8124 90.6103 46.2593 87.5871 45.8365C84.8161 45.449 83.9597 41.1086 83.9597 41.1086L94.65 37.6547C94.65 37.6547 94.449 32.9847 91.8691 30.4496C89.5079 28.1296 85.9261 27.4391 82.6305 28.7975C80.6695 29.5571 78.8565 31.5965 78.0154 33.9905C76.3722 38.5481 77.3497 43.6468 80.4487 46.6761C83.3079 49.4145 87.7568 49.3631 90.9675 48.4008C90.9554 48.4037 92.5859 47.7049 92.5859 47.7049L92.5834 44.8124ZM141.977 46.0494C141.977 46.0494 141.346 45.9586 141.33 45.9523C140.784 45.8996 140.634 44.7423 140.634 44.7423C140.634 44.7319 139.474 37.8484 139.474 37.8484C139.474 37.8567 139.2 36.511 139.2 36.511C138.917 35.079 138.624 33.5956 138.078 32.2327C136.296 28.1007 131.181 27.421 127.414 28.5368C126.81 28.7201 126.238 29.0303 126.238 29.0303V31.5914C127.787 30.9194 129.298 30.8784 130.521 31.4595C132.112 32.2299 132.56 34.19 132.642 35.0016C132.642 35.0152 132.782 35.9087 132.782 35.9087C130.945 36.1859 128.662 36.6394 126.978 37.8269C125.097 39.1678 124.107 41.3039 124.327 43.5361C124.395 45.9101 126.232 47.8112 128.007 48.4687C130.365 49.3025 133.601 49.1677 135.526 46.9523C135.537 46.9412 135.762 46.6903 135.762 46.6903L136.307 47.221C137.711 48.6935 139.249 48.6472 141.031 48.5949L141.978 48.5756L141.977 46.0494ZM133.247 38.9474L134.399 44.5301C131.433 47.9495 126.548 41.9481 133.247 38.9474Z" fill="#181818"/>
</g>
</svg>
