<svg width="220" height="70" viewBox="0 0 220 70" fill="none" xmlns="http://www.w3.org/2000/svg">
<path d="M93.6301 25.8353L89.6458 40.4533C88.051 46.9236 102.445 47.0708 104.388 40.4533L108.372 25.8353C109.966 19.4151 95.5725 19.267 93.6301 25.8353ZM102.394 27.3167L99.2041 38.9715C98.5069 41.4899 94.8713 41.4899 95.5684 38.9715L98.758 27.3167C99.457 24.7982 103.093 24.7982 102.394 27.3167Z" fill="white"/>
<path d="M138.256 21.785L131.284 29.8843L133.524 21.785H128.095L121.969 44.2056H127.398L130.138 34.1812H130.187L132.179 44.2056H138.057L135.667 31.8118H135.567L144.183 21.7873L138.256 21.785Z" fill="white"/>
<path d="M120.874 33.1445C123.812 32.4533 124.161 30.2311 124.858 27.5641C125.754 24.354 126.8 21.7367 121.668 21.7367H111.212L105.136 44.2065H110.564L113.055 35.1198H114.897C116.142 35.1198 116.79 35.2679 116.292 37.0459L114.349 44.1573V44.2065H120.176L121.67 38.725C122.517 35.4164 123.362 33.6877 120.874 33.1445ZM118.782 29.2432C118.284 30.9715 117.587 31.1692 116.341 31.1692H114.1L115.544 25.8358H117.786C118.981 25.8358 119.628 25.9839 119.23 27.6128C119.33 27.2182 118.782 29.2432 118.782 29.2432H118.782Z" fill="white"/>
<path d="M64.1441 32.847L64.6909 21.8835V21.785H60.4077L60.358 21.8839L54.9284 32.847L55.7768 21.785H38.4951L32.4189 44.2056H44.2205L45.314 40.1562H38.943L40.3875 34.8227H46.7626L47.8561 30.7733H41.4833L42.828 25.8349H49.9996L48.6053 44.2061H54.1333L59.6116 32.6502L58.765 44.2056H64.2931L74.7522 21.785H69.3235L64.1441 32.847Z" fill="white"/>
<path d="M31.823 21.7855L28.6334 33.4895L27.4391 21.7855H21.3629L15.2371 44.2061H20.067L23.5533 31.4154L24.897 44.2061H30.5266L36.6529 21.7855H31.823Z" fill="white"/>
<path d="M89.9892 21.785L84.658 29.6866L83.6642 21.785H78.7335L80.4769 35.1189L78.0364 44.2056H83.4131L85.9033 35.1189L94.9198 21.785H89.9892Z" fill="white"/>
<path d="M166.294 25.8354L162.31 40.4534C160.715 46.9237 175.109 47.0709 177.052 40.4534L181.036 25.8354C182.63 19.4152 168.237 19.2672 166.294 25.8354ZM175.058 27.3168L171.868 39.0208C171.171 41.5392 167.535 41.5392 168.232 39.0208L171.422 27.366C172.121 24.7984 175.757 24.7984 175.058 27.3168Z" fill="white"/>
<path d="M190.797 29.2919H196.225C196.524 28.1559 197.172 25.8348 197.172 25.8348C198.466 20.4522 189.801 19.514 185.019 22.9214C183.785 23.8191 182.834 25.0528 182.28 26.4755C180.238 32.9941 189.95 35.8092 187.657 39.6613C186.563 41.3404 183.623 40.9945 184.171 38.9204L184.669 37.044H179.242L178.295 40.5011C176.652 47.1678 190.945 46.9213 193.436 40.2541C196.723 31.9083 185.918 30.3276 188.256 26.3771C189.35 24.698 191.792 25.3892 191.245 27.4633L190.797 29.2919Z" fill="white"/>
<path d="M199.211 21.785L198.066 25.8345H201.702L196.721 44.2056H202.15L207.13 25.8345H210.766L211.859 21.785H199.211Z" fill="white"/>
<path d="M163.953 29.539C164.152 28.9466 164.301 28.2549 164.499 27.6129C165.397 24.4028 165.696 21.7855 160.566 21.7855H151.253L145.127 44.2061H150.555L152.448 37.3417H156.332C161.462 37.3417 162.558 34.7736 163.404 31.5143C163.604 30.823 163.803 30.1313 163.953 29.539ZM158.524 29.539C158.225 30.5761 157.926 31.712 157.977 31.5143C157.479 33.0945 156.782 33.2913 155.587 33.2913H153.595L155.636 25.834H157.629C158.824 25.834 159.471 25.9821 159.073 27.6111C158.829 28.2349 158.645 28.8804 158.523 29.539H158.524Z" fill="white"/>
<path d="M139.198 44.8485L136.759 32.3042C136.745 32.216 136.751 32.1257 136.777 32.0401C136.803 31.9546 136.848 31.876 136.908 31.8103L146.17 21.1434C146.27 21.0445 146.22 20.9456 146.07 20.9456H137.904C137.722 20.9587 137.548 21.0278 137.406 21.1434L134.217 23.8103C134.117 23.9092 134.018 23.8595 134.067 23.7115L134.715 21.2422C134.727 21.2096 134.732 21.1743 134.728 21.1395C134.724 21.1047 134.712 21.0714 134.692 21.0423C134.673 21.0133 134.647 20.9893 134.616 20.9726C134.585 20.9558 134.551 20.9467 134.516 20.9461H127.744C127.562 20.9592 127.388 21.0283 127.246 21.1438L126.3 22.0328C126.2 22.1317 126.101 22.1809 126.001 22.0328C125.204 20.8969 123.261 20.8969 122.116 20.8969H110.811C110.629 20.91 110.455 20.979 110.313 21.0946L108.919 22.576C108.819 22.6748 108.72 22.724 108.62 22.6252C108.62 22.6252 107.624 20.156 102.444 20.1068C98.5097 20.0575 96.5663 21.44 96.5663 21.44C96.4168 21.5389 96.4169 21.44 96.5166 21.2919L96.6164 21.1438C96.7162 20.9957 96.6164 20.8969 96.467 20.8969H89.7939C89.6164 20.8928 89.4422 20.9446 89.2958 21.0449L85.2118 23.86C85.0623 23.9589 84.9625 23.9092 84.9625 23.7611L84.614 21.193C84.6049 21.1084 84.5636 21.0305 84.4988 20.9754C84.4339 20.9203 84.3504 20.8922 84.2654 20.8969H77.9404C77.7602 20.9189 77.5886 20.987 77.4424 21.0946L74.9509 23.9092C74.8511 24.0081 74.8014 24.0081 74.9012 23.86L76.1465 21.1438C76.1962 20.9957 76.1465 20.8969 75.997 20.8969H68.9758C68.7934 20.91 68.6195 20.979 68.4778 21.0946L65.7384 23.9097C65.6386 24.0085 65.5393 24.0085 65.5393 23.8108L65.6887 21.1935C65.6941 21.1214 65.671 21.0501 65.6246 20.9948C65.5781 20.9395 65.5118 20.9045 65.4399 20.8973H60.0632C59.8808 20.9104 59.7069 20.9795 59.5651 21.0951L56.8239 23.7607C56.7241 23.8595 56.6248 23.8099 56.6248 23.6618L56.8239 21.1926C56.8292 21.1204 56.8062 21.0491 56.7596 20.9937C56.713 20.9384 56.6466 20.9035 56.5747 20.8964H31.2743C31.0919 20.9095 30.918 20.9786 30.7763 21.0942L28.7345 23.2672C28.6347 23.3661 28.5354 23.3661 28.4852 23.1683L28.2861 21.1434C28.2807 21.0661 28.2474 20.9935 28.1924 20.939C28.1374 20.8845 28.0645 20.8519 27.9872 20.8472H20.8156C20.6333 20.8602 20.4594 20.9291 20.3176 21.0445L14.2414 27.7613C14.1106 27.8972 14.0237 28.0693 13.9922 28.2553L8.01485 50.1341C8.00224 50.1668 7.9977 50.202 8.0016 50.2368C8.00551 50.2716 8.01776 50.305 8.0373 50.334C8.05684 50.3631 8.0831 50.387 8.11385 50.4038C8.14461 50.4205 8.17895 50.4296 8.21397 50.4303H12.8448C13.0222 50.4343 13.1965 50.3825 13.3428 50.2822L16.9785 47.7638C17.128 47.6649 17.2278 47.7146 17.2278 47.8626L17.4788 50.1341C17.4842 50.2113 17.5175 50.284 17.5725 50.3385C17.6275 50.393 17.7005 50.4256 17.7778 50.4303H23.2561C23.4385 50.4171 23.6124 50.3481 23.7541 50.2325L25.2482 48.9485C25.348 48.8496 25.4474 48.8993 25.3977 49.0473L25.0988 50.1797C25.0862 50.2123 25.0816 50.2476 25.0855 50.2824C25.0895 50.3172 25.1017 50.3505 25.1212 50.3796C25.1408 50.4087 25.167 50.4326 25.1978 50.4493C25.2286 50.4661 25.2629 50.4752 25.2979 50.4758H37.0019C37.1793 50.4799 37.3536 50.4281 37.5 50.3277L41.2363 47.7104C41.3858 47.6116 41.4856 47.6612 41.4355 47.8093L41.235 50.1341C41.2296 50.2062 41.2527 50.2776 41.2993 50.3329C41.3459 50.3883 41.4122 50.4232 41.4842 50.4303H46.861C47.0528 50.4276 47.2408 50.3766 47.4078 50.2822L51.3934 47.7123C51.5428 47.6134 51.6426 47.6631 51.5925 47.8604L51.3934 50.1797C51.388 50.2518 51.4111 50.3232 51.4577 50.3785C51.5043 50.4338 51.5706 50.4688 51.6426 50.4758H57.0194C57.1968 50.4799 57.371 50.4281 57.5174 50.3277L64.5897 45.3893C64.7462 45.2779 64.8673 45.1237 64.9382 44.9451L71.5125 30.8703C71.5621 30.7222 71.6619 30.7222 71.6619 30.8703L73.0066 41.0929C73.0148 41.2754 72.9981 41.4581 72.9569 41.6361L70.7688 50.1341C70.7562 50.1668 70.7517 50.202 70.7556 50.2368C70.7595 50.2716 70.7717 50.305 70.7913 50.334C70.8108 50.3631 70.8371 50.387 70.8678 50.4038C70.8986 50.4205 70.9329 50.4296 70.968 50.4303H77.2433C77.4257 50.4171 77.5996 50.3481 77.7413 50.2325L82.0245 46.8743C82.1243 46.7754 82.3234 46.7262 82.373 46.9235C82.373 46.9235 83.17 50.3806 88.8971 50.3309C91.1793 50.3076 93.414 49.677 95.3716 48.5037C95.521 48.4545 95.7202 48.306 95.8696 48.2568L98.558 46.7754C98.7074 46.6766 98.7571 46.7754 98.7074 46.9235L97.8121 50.1797C97.7995 50.2123 97.7949 50.2476 97.7988 50.2824C97.8027 50.3172 97.815 50.3505 97.8345 50.3796C97.8541 50.4087 97.8803 50.4326 97.9111 50.4493C97.9418 50.4661 97.9762 50.4752 98.0112 50.4758H103.241C103.418 50.4799 103.592 50.4281 103.739 50.3277L107.424 47.7597C107.574 47.6608 107.623 47.7105 107.574 47.8585L106.926 50.228C106.914 50.2606 106.909 50.2959 106.913 50.3307C106.917 50.3655 106.929 50.3988 106.949 50.4279C106.968 50.457 106.994 50.4809 107.025 50.4976C107.056 50.5144 107.09 50.5235 107.125 50.5241H112.753C112.935 50.511 113.109 50.4419 113.251 50.3264L114.745 49.0915C114.845 48.9927 114.944 49.0423 114.895 49.1904L114.596 50.2275C114.583 50.2602 114.579 50.2954 114.582 50.3302C114.586 50.365 114.599 50.3984 114.618 50.4274C114.638 50.4565 114.664 50.4804 114.695 50.4972C114.725 50.5139 114.76 50.523 114.795 50.5237H120.075C120.257 50.5105 120.431 50.4415 120.573 50.3259L123.86 47.7578C123.883 47.7356 123.912 47.7201 123.944 47.7131C123.975 47.706 124.008 47.7077 124.039 47.7178C124.069 47.728 124.097 47.7462 124.118 47.7707C124.139 47.7952 124.153 47.8249 124.159 47.8567L124.607 50.2261C124.631 50.3035 124.676 50.3725 124.738 50.4249C124.8 50.4774 124.875 50.5111 124.956 50.5223H132.227C132.409 50.5092 132.583 50.4401 132.725 50.3246L138.851 45.3861C139.149 45.1939 139.249 44.9961 139.198 44.8485ZM24.8997 44.206L23.5527 31.4157L20.0683 44.206H15.2384L21.3656 21.7854H27.4395L28.6347 33.4894L31.8243 21.7854H36.6543L30.5275 44.206H24.8997ZM64.2944 44.206H58.7659L59.5629 32.6501L54.0845 44.206H48.6061L50.0004 25.8845H42.827L41.4842 30.8229H47.8589L46.7653 34.8723H40.3884L38.9439 40.2058H45.319L44.2254 44.2552H32.4198L38.496 21.7854H55.7281L54.8814 32.8474L60.3101 21.8834L60.3598 21.7845H64.643V21.8834L64.0962 32.8469L69.2747 21.7854H74.7531L64.2944 44.206ZM85.9094 35.1193L83.4192 44.1568H77.9905L80.4807 35.1193L78.7374 21.7854H83.668L84.716 29.6869L90.0472 21.7854H94.9779L85.9094 35.1193ZM89.6458 40.4527L93.6301 25.8348C95.6222 19.2173 109.966 19.3645 108.372 25.8348L104.386 40.4527C102.394 47.0703 88.0505 46.9222 89.6444 40.4527H89.6458ZM120.126 44.206H114.297V44.1568L116.24 37.0453C116.738 35.317 116.09 35.1193 114.845 35.1193H113.003L110.512 44.206H105.135L111.259 21.7854H121.718C126.848 21.7854 125.802 24.3535 124.908 27.6128C124.211 30.2301 123.814 32.4523 120.923 33.1932C123.414 33.7364 122.567 35.4651 121.67 38.7737L120.126 44.206ZM132.178 44.206L130.186 34.1815H130.136L127.397 44.206H121.967L128.093 21.7854H133.522L131.33 29.8847L138.302 21.7854H144.228L135.612 31.8098H135.662L138.103 44.2037L132.178 44.206Z" fill="#181818"/>
<path d="M157.577 25.8347H155.585L153.543 33.292H155.535C156.73 33.292 157.478 33.1439 157.926 31.5149C157.876 31.7127 158.175 30.6259 158.473 29.5397C158.772 28.5026 159.071 27.3666 159.02 27.5644C159.421 25.9828 158.773 25.8347 157.577 25.8347Z" fill="#181818"/>
<path d="M171.466 27.3163L168.277 38.9711C167.58 41.4895 171.215 41.4895 171.913 38.9711L175.102 27.3163C175.75 24.7974 172.114 24.7974 171.466 27.3163Z" fill="#181818"/>
<path d="M117.781 25.8344H115.54L114.096 31.1678H116.337C117.583 31.1678 118.329 31.0197 118.778 29.2418C118.778 29.2418 119.325 27.2168 119.226 27.5627C119.624 25.9824 118.977 25.8344 117.781 25.8344Z" fill="#181818"/>
<path d="M98.7596 27.3163L95.57 38.9711C94.8729 41.4895 98.5086 41.4895 99.2057 38.9711L102.395 27.3163C103.092 24.7974 99.4568 24.7974 98.7596 27.3163Z" fill="#181818"/>
<path d="M212.857 20.8965H198.812C198.61 20.927 198.421 21.0125 198.265 21.1434L197.468 21.9335C197.319 22.0324 197.269 22.2794 197.12 21.9335C195.923 20.5014 193.981 19.9583 191.49 20.007C190.544 20.007 187.357 19.9578 184.519 21.9331C183.667 22.5248 182.925 23.2609 182.327 24.1079C182.227 24.256 182.128 24.3549 182.128 24.0587C182.178 22.8239 181.034 19.9123 175.056 20.0093C172.615 19.9104 167.735 20.5525 165.991 24.2068C165.942 24.3549 165.892 24.3549 165.892 24.2068C166.091 21.7376 164.597 20.8486 161.26 20.8486H150.901C150.718 20.8618 150.545 20.9308 150.403 21.0464L144.177 27.7117C144.046 27.8476 143.959 28.0197 143.928 28.2057L137.951 50.0348C137.938 50.0675 137.933 50.1027 137.937 50.1375C137.941 50.1723 137.954 50.2057 137.973 50.2348C137.993 50.2638 138.019 50.2877 138.05 50.3045C138.08 50.3213 138.115 50.3303 138.15 50.331H143.877C144.051 50.3113 144.22 50.2608 144.375 50.182L151.149 45.2436C151.292 45.1298 151.396 44.9746 151.448 44.7993L151.946 43.0223C151.995 42.8742 152.095 42.7261 152.294 42.7753C152.892 42.8245 155.183 42.5775 155.93 42.2322C156.079 42.1829 156.129 42.2814 156.079 42.4791L155.482 44.8002C153.99 50.4285 162.055 50.3301 162.055 50.3301C166.936 50.3301 169.625 49.8362 170.771 47.4658C170.82 47.3177 170.82 47.3177 170.87 47.4658C170.87 47.4658 170.721 48.6018 172.763 49.4908C174.506 50.2317 179.137 51.1207 183.72 49.1449C184.068 48.9968 190.543 45.3917 190.543 45.3917C190.692 45.2928 190.742 45.3917 190.742 45.5398L189.497 50.0831C189.484 50.1158 189.48 50.151 189.484 50.1858C189.487 50.2206 189.5 50.254 189.519 50.2831C189.539 50.3121 189.565 50.336 189.596 50.3528C189.627 50.3696 189.661 50.3786 189.696 50.3793H194.975C195.153 50.3834 195.327 50.3316 195.473 50.2312L202.645 45.2928C202.788 45.179 202.892 45.0238 202.944 44.8485L207.028 29.9836C207.098 29.8177 207.2 29.6669 207.327 29.5394L211.262 26.8724C211.405 26.7586 211.509 26.6035 211.561 26.4281L213.005 21.1425C213.106 21.045 213.006 20.8965 212.857 20.8965ZM156.329 37.2924H152.445L150.552 44.1568H145.124L151.249 21.7362H160.563C165.692 21.7362 165.393 24.3043 164.497 27.5636C164.298 28.2549 164.149 28.8969 163.95 29.4897C163.784 30.1362 163.602 30.7784 163.404 31.4158C162.556 34.7247 161.459 37.2924 156.329 37.2924ZM177.046 40.4528C175.054 47.0703 160.71 46.9231 162.304 40.4528L166.288 25.8349C168.281 19.2174 182.624 19.3646 181.03 25.8349L177.046 40.4528ZM190.792 29.292L191.29 27.4156C191.837 25.3414 189.397 24.6502 188.302 26.3293C186.011 30.2306 196.768 31.8605 193.481 40.2063C190.991 46.873 176.697 47.1697 178.341 40.4533L179.287 36.9962H184.716L184.219 38.8712C183.673 40.9454 186.56 41.2912 187.706 39.6121C189.947 35.76 180.233 32.9454 182.329 26.4263C182.883 25.0036 183.833 23.77 185.068 22.8722C189.8 19.514 198.515 20.4522 197.22 25.7857C197.22 25.7857 196.573 28.1551 196.274 29.2427L190.795 29.292H190.792ZM210.763 25.8349H207.128L202.149 44.1568H196.72L201.701 25.8353H198.065L199.159 21.7859H211.813L210.763 25.8349Z" fill="#181818"/>
</svg>
