<svg width="150" height="70" viewBox="0 0 150 70" fill="none" xmlns="http://www.w3.org/2000/svg">
<path d="M54.2166 40.8961C55.1447 39.1045 56.1614 37.366 57.1133 35.5922C57.7455 34.4077 57.6689 34.2527 56.4862 33.7171C55.5407 35.1754 54.6657 36.6698 53.6429 38.0506C52.5846 39.4911 51.018 40.2832 49.4517 41.039C49.4161 40.9974 49.3808 40.9558 49.3449 40.9202C49.5226 40.6759 49.706 40.4376 49.8773 40.1939C50.3029 39.5807 50.5571 38.8961 50.4214 38.152C50.3264 37.6401 50.4862 37.3485 50.888 37.0625C53.1465 35.4435 55.2213 33.6157 56.9178 31.3952C58.7803 28.9612 60.1931 26.3058 60.5894 23.21C61.1564 18.7634 58.869 15.3464 54.6775 14.3348C52.9631 13.9176 51.2189 13.9119 49.487 14.1975C45.0771 14.906 40.8976 16.3999 36.913 18.3767C32.4971 20.567 28.5071 23.4007 24.9954 26.913C22.7369 29.169 20.8633 31.6691 19.6101 34.6159C18.8433 36.417 18.1121 38.2331 17.4167 40.063C16.9378 41.3189 16.3882 42.5809 16.14 43.8905C15.7437 45.9442 16.1632 47.879 17.7063 49.4266C18.5222 50.2425 19.5742 50.564 20.6742 50.7483C23.1571 51.1648 25.5805 50.7244 27.9808 50.1649C30.381 49.6054 32.5975 48.5754 34.7912 47.486C35.4409 47.1645 36.1153 46.9027 36.7713 46.611C36.7713 46.9084 36.6823 47.0755 36.5939 47.242C35.3169 49.5994 34.0224 51.9448 32.7692 54.3139C32.3198 55.1597 32.184 55.058 33.2243 55.6235C33.3546 55.4272 33.4964 55.2308 33.6143 55.0224C35.24 52.1649 36.8717 49.3078 38.4739 46.4385C38.7396 45.962 39.065 45.8314 39.5968 45.7955C40.8563 45.7065 42.1273 45.581 43.3567 45.3132C46.2537 44.6822 48.7658 43.1763 51.2309 41.5988C51.6864 41.3069 52.1355 41.0092 52.6853 40.6463C52.6262 40.9796 52.5963 41.182 52.555 41.3844C52.4428 41.9439 52.295 42.4976 52.2241 43.0628C52.1002 44.0811 52.7622 44.9144 53.6665 44.9561C54.045 44.9739 54.2106 44.7836 54.2992 44.4442C54.3879 44.1049 54.1928 44.0036 53.915 43.9559C53.4182 43.8727 53.306 43.5156 53.4243 43.1108C53.655 42.3664 53.8619 41.5982 54.2166 40.9142M43.3923 42.7238C45.2783 41.4197 47.1401 40.1339 48.9492 38.884C48.7833 40.3541 45.1362 42.9561 43.3923 42.7238ZM42.3457 34.0856C40.6135 34.0681 38.8995 34.1631 37.2324 34.6632C36.3161 34.9368 35.5241 35.3895 35.0512 36.2708C35.5298 36.8774 35.7012 36.9136 36.2923 36.5085C37.3389 35.7882 38.5327 35.5089 39.7566 35.3479C42.2157 35.0264 44.6277 35.2824 46.9685 36.1098C47.6541 36.3474 48.2869 36.6695 48.8253 37.3421C46.549 39.3183 43.9361 40.7293 41.4237 42.3423C41.6719 42.009 41.9144 41.6697 42.1686 41.3364C42.8247 40.4494 43.4927 39.5684 44.137 38.6813C44.5686 38.092 44.5451 38.0087 43.9301 37.6456C43.7708 37.5506 43.5992 37.4727 43.386 37.3717C43.0147 37.881 42.6444 38.3911 42.2751 38.9018C41.4828 39.9969 40.6555 41.0683 39.9105 42.1936C38.6923 44.0449 36.9899 45.2474 35.0153 46.1345C32.3376 47.337 29.6891 48.6349 26.822 49.3192C24.7055 49.825 22.53 50.0811 20.3487 49.676C18.2797 49.2897 17.4403 48.3667 17.2687 46.2654C17.1565 44.8843 17.3929 43.5328 17.7657 42.2057C17.801 42.0684 17.8954 41.9493 18.0432 41.6579C18.1614 43.1937 18.717 44.3722 19.5332 45.4498C20.9698 47.343 22.885 48.0156 25.1785 47.7716C25.5543 47.7292 25.9274 47.6654 26.2959 47.5807C26.8811 47.4558 26.9755 47.3548 27.2183 46.6406C26.4437 46.706 25.6987 46.7594 24.9541 46.8309C23.139 47.0092 21.5962 46.4083 20.3134 45.1464C19.6155 44.462 19.3796 43.5512 19.2907 42.6047C19.0132 39.7116 19.8523 37.2236 21.8562 35.0864C24.8476 31.8953 28.099 29.0143 31.8233 26.7284C33.7389 25.5557 35.7962 24.6032 37.8296 23.6326C38.4974 23.3114 39.278 23.2462 40.0109 23.0614C40.0758 23.0436 40.1409 23.008 40.3125 22.9365C39.4789 22.5136 38.7396 22.4539 37.9533 22.7042C35.0334 23.6389 32.4202 25.157 29.9256 26.9069C27.0818 28.9049 24.4068 31.1327 21.9274 33.5681C21.7675 33.7291 21.5847 33.8657 21.4071 34.0147C21.3893 34.0328 21.3419 34.0147 21.2533 34.0147C22.0097 32.5507 22.8669 31.1989 23.8954 29.955C27.6855 25.3886 32.3026 21.924 37.6879 19.4716C40.2893 18.2808 42.8485 16.995 45.639 16.2805C48.3053 15.5961 51.0008 15.0779 53.7732 15.3162C55.6888 15.4833 57.4324 16.0663 58.5616 17.7572C59.7738 19.5669 59.9451 21.5907 59.5371 23.6803C58.964 26.615 57.4918 29.0972 55.4997 31.2284C53.8441 33.0019 52.0175 34.6156 50.2679 36.3064C49.9485 36.6159 49.718 36.6279 49.316 36.348C47.2177 34.9072 44.8998 34.1098 42.3403 34.0799M83.7035 41.825C81.5633 42.2177 79.4173 42.2952 77.2713 41.8905C76.0833 41.6643 74.9483 41.825 73.8311 42.2892C72.8672 42.6819 71.8745 42.9974 70.8813 43.3132C70.3611 43.48 70.2368 43.3249 70.3194 42.7775C70.479 41.7116 71.1353 40.9914 71.9451 40.3902C74.4102 38.5688 76.6687 36.5205 78.5722 34.104C79.5476 32.8659 80.3574 31.5503 80.5113 29.9252C80.5586 29.3949 80.4105 28.9546 79.9496 28.6391C79.5002 28.3357 79.0925 28.5679 78.8029 28.824C77.9159 29.6154 76.9703 30.3833 76.2606 31.3238C74.8304 33.217 73.4647 35.1633 72.2232 37.1814C70.7806 39.5331 68.8298 41.134 66.2109 41.9197C65.8301 42.0324 65.437 42.0985 65.0403 42.1167C64.4552 42.1465 64.2718 41.8844 64.4491 41.3367C64.5191 41.1189 64.6165 40.9108 64.739 40.7175C65.1175 40.1221 65.5132 39.5451 65.8975 38.9558C66.1517 38.5688 66.2525 38.1698 66.016 37.7174C65.8148 37.3364 65.6673 36.9259 65.4779 36.5386C65.3718 36.3185 65.2593 36.0862 65.0997 35.9134C64.1478 34.8719 63.0249 34.741 61.7949 35.6042C59.2885 37.3542 57.8993 39.8606 57.2077 42.7893C56.9299 43.9737 57.5977 44.6168 58.8156 44.4204C59.915 44.2476 60.9377 43.8666 61.8302 43.1702C62.2443 42.849 62.6642 42.5332 63.1428 42.1704C63.1962 42.2593 63.2315 42.3308 63.2789 42.3963C64.2603 43.7119 65.3244 43.9559 66.796 43.2176C67.3223 42.9558 67.8426 42.6762 68.3689 42.4201C68.5577 42.3248 68.7646 42.2593 69.0548 42.1465C68.9836 42.4681 68.948 42.6704 68.8946 42.8668C68.5698 44.0576 69.2556 44.9621 70.485 44.8372C71.0349 44.7836 71.6203 44.6291 72.1107 44.3667C74.1798 43.2598 76.3674 43.1995 78.6313 43.3783C80.0205 43.4857 81.4272 43.4266 82.8168 43.3249C83.6088 43.2655 84.2709 42.8369 84.6313 41.8905C84.2769 41.8549 83.9813 41.7716 83.7153 41.825M79.1633 30.193C78.1466 33.1039 76.2787 35.3482 73.7602 37.0686C75.4628 34.6934 76.9169 32.1279 79.1633 30.193ZM63.1133 40.1402C62.073 41.5095 60.6247 42.3369 59.1172 43.0749C59.0165 43.1229 58.8982 43.1346 58.786 43.1585C58.7149 43.1705 58.6443 43.1585 58.4908 43.1585C58.514 42.9322 58.514 42.7296 58.5613 42.5392C59.0934 40.545 60.0157 38.783 61.588 37.4139C62.1143 36.9555 62.6934 36.6044 63.4146 36.5866C63.9647 36.5745 64.2718 36.8541 64.2718 37.4139C64.2718 38.4853 63.7162 39.3367 63.1076 40.1399M130.452 32.9669C131.203 33.3244 131.534 34.0386 131.286 34.6876L128.578 41.9677L125.617 34.8538C125.155 33.765 125.593 33.2583 126.284 32.9847V32.8599H122.264V32.9847C122.909 33.4254 123.181 33.8896 123.553 34.7884L127.597 44.7359L127.118 45.825C126.722 46.7063 126.054 47.0809 125.368 47.0809C124.724 47.0993 123.973 46.6647 123.636 46.2419H123.53L123.051 47.587C123.595 48.0518 124.198 48.2361 124.718 48.2361C125.865 48.2361 126.822 47.3732 127.55 45.4682L131.676 34.5564C131.865 34.0742 132.261 33.318 133.012 32.9609V32.8538H130.446V32.9609L130.452 32.9669ZM121.615 43.73V43.6048C121.094 43.3967 120.864 42.7416 120.864 42.1164V27.5322H120.74C119.947 27.8238 118.741 28.2464 117.949 28.538V28.6451C118.493 29.1096 118.848 29.5026 118.848 30.4488V42.1164C118.848 42.7474 118.641 43.3961 118.121 43.6048V43.73H121.62H121.615ZM116.424 43.73V43.6048C115.904 43.3967 115.673 42.7416 115.673 42.1164V32.675H115.59C114.757 32.9669 113.445 33.4073 112.777 33.6637V33.7707C113.297 34.2352 113.652 34.6276 113.652 35.5744V42.1224C113.652 42.7534 113.445 43.4028 112.924 43.6106V43.736H116.424V43.73ZM114.568 30.4907C115.277 30.4907 115.88 29.9013 115.88 29.1274C115.88 28.4129 115.277 27.806 114.568 27.806C114.215 27.8051 113.877 27.9437 113.626 28.1915C113.502 28.314 113.404 28.4597 113.336 28.6203C113.268 28.7809 113.233 28.9532 113.232 29.1274C113.232 29.9013 113.817 30.4907 114.568 30.4907ZM105.399 43.0571C104.234 43.0571 103.584 42.2593 103.584 41.2296C103.584 40.1999 104.128 39.1521 106.102 38.2949L108.331 37.372V41.6344C107.728 42.3251 106.788 43.0628 105.393 43.0628M112.209 42.2416C111.937 42.7893 111.606 42.9974 111.228 42.9974C110.666 42.9974 110.312 42.6409 110.312 41.6106V36.9317C110.312 34.348 109.188 32.5028 106.35 32.5028C103.809 32.5028 102.39 34.4967 102.39 36.3839H102.496C102.496 34.9971 103.809 33.4016 105.724 33.4016C107.829 33.4016 108.331 35.0146 108.331 36.3598V37.1998L105.228 38.3127C102.792 39.1934 101.787 40.2654 101.787 41.6045C101.787 42.944 102.827 43.8727 104.412 43.8727C105.996 43.8727 107.374 43.0333 108.349 41.7952V41.8606C108.556 43.2894 109.413 43.8727 110.329 43.8727C111.245 43.8727 111.872 43.4082 112.268 42.3013L112.227 42.2355H112.209V42.2416ZM90.431 28.7462H92.9492C96.1592 28.7462 98.2814 31.1989 98.2814 36.1517C98.2814 41.1042 96.1119 43.432 92.9018 43.432H90.425V28.7465H90.431V28.7462ZM87.534 28.4545V28.5797C88.0543 28.7878 88.3264 29.4369 88.3264 30.0678V42.1107C88.3264 42.7416 88.0543 43.3904 87.534 43.5988V43.7237H92.9492C97.2408 43.7237 100.658 40.5332 100.658 36.1695C100.658 31.5325 97.3 28.4485 92.9905 28.4485H87.534V28.4545Z" fill="black"/>
</svg>
