<svg width="2644" height="178" viewBox="0 0 2644 178" fill="none" xmlns="http://www.w3.org/2000/svg">
<path d="M13.5254 21.9297V159H0.742188V1.51953H16.3184L102.471 139.02V1.51953H115.254V159H99.6777L13.5254 21.9297ZM251.357 146.109V159H141.465V1.51953H251.357V14.4102H154.463V70.2695H240.615V83.1602H154.463V146.109H251.357ZM467.383 1.51953L422.588 159H408.408L370.488 25.0449L332.461 159H318.281L273.486 1.51953H286.914L325.371 137.301L363.721 1.73438V1.51953H377.148V1.73438L415.498 137.301L453.955 1.51953H467.383ZM598.33 86.168L541.289 1.51953H556.758L604.668 72.8477L652.578 1.51953H667.939L611.006 86.168V159H598.33V86.168ZM796.631 146.109V159H686.738V1.51953H796.631V14.4102H699.736V70.2695H785.889V83.1602H699.736V146.109H796.631ZM938.428 159L919.844 109.586H850.342L831.758 159H818.223L877.197 1.51953H892.988L951.963 159H938.428ZM855.176 96.9102H915.01L885.039 16.7734L855.176 96.9102ZM1078.94 42.7695C1078.94 49.6445 1077.32 56.0898 1074.1 62.1055C1070.95 68.1211 1066.58 73.0267 1061 76.8223C1055.48 80.6178 1049.39 82.9095 1042.73 83.6973L1086.03 159H1071.31L1028.12 84.0195H982.471V159H969.688V1.51953H1037.69C1043.27 1.51953 1048.61 2.62956 1053.69 4.84961C1058.78 6.99805 1063.14 9.93424 1066.8 13.6582C1070.52 17.3105 1073.46 21.679 1075.61 26.7637C1077.83 31.8483 1078.94 37.1836 1078.94 42.7695ZM982.471 71.2363H1037.69C1042.84 71.2363 1047.6 69.9831 1051.97 67.4766C1056.34 64.8984 1059.78 61.4251 1062.29 57.0566C1064.86 52.6882 1066.15 47.9258 1066.15 42.7695C1066.15 37.6133 1064.86 32.8509 1062.29 28.4824C1059.78 24.1139 1056.34 20.6764 1051.97 18.1699C1047.6 15.5918 1042.84 14.3027 1037.69 14.3027H982.471V71.2363ZM1131.36 145.035V157.604C1131.36 161.614 1130.35 165.445 1128.35 169.098C1126.34 172.607 1123.62 175.436 1120.19 177.584L1117.07 172.857C1118.43 171.783 1119.25 171.031 1119.54 170.602C1120.4 169.384 1121.01 168.668 1121.37 168.453C1121.51 168.382 1121.9 167.665 1122.55 166.305C1122.91 165.66 1123.16 165.016 1123.3 164.371C1123.52 163.727 1123.66 163.154 1123.73 162.652C1123.87 161.793 1123.91 161.292 1123.84 161.148C1123.84 161.148 1123.84 160.755 1123.84 159.967C1123.84 159.967 1123.8 159.752 1123.73 159.322L1123.62 159H1114.81V153.844V145.035H1131.36ZM1237.92 21.9297V159H1225.14V1.51953H1240.71L1326.87 139.02V1.51953H1339.65V159H1324.07L1237.92 21.9297ZM1475.75 146.109V159H1365.86V1.51953H1475.75V14.4102H1378.86V70.2695H1465.01V83.1602H1378.86V146.109H1475.75ZM1691.78 1.51953L1646.98 159H1632.8L1594.88 25.0449L1556.86 159H1542.68L1497.88 1.51953H1511.31L1549.77 137.301L1588.12 1.73438V1.51953H1601.54V1.73438L1639.89 137.301L1678.35 1.51953H1691.78ZM1821.65 147.828C1827.74 147.828 1833.36 146.467 1838.52 143.746C1843.67 141.025 1847.75 137.337 1850.76 132.682C1853.77 127.955 1855.27 122.835 1855.27 117.32C1855.27 114.098 1854.59 111.018 1853.23 108.082C1851.87 105.074 1850.05 102.496 1847.75 100.348C1845.53 98.1276 1843.13 96.2298 1840.56 94.6543C1837.98 93.0788 1835.29 91.7897 1832.5 90.7871C1829.92 89.9277 1825.84 88.7103 1820.25 87.1348C1817.96 86.4902 1816.21 85.9889 1814.99 85.6309C1813.84 85.2728 1812.2 84.7715 1810.05 84.127C1807.9 83.4108 1806.22 82.8021 1805 82.3008C1803.78 81.7995 1802.21 81.1549 1800.27 80.3672C1798.34 79.5078 1796.73 78.6842 1795.44 77.8965C1794.22 77.1087 1792.79 76.1777 1791.14 75.1035C1789.57 73.9577 1788.17 72.8118 1786.95 71.666C1785.81 70.4486 1784.59 69.0879 1783.3 67.584C1782.08 66.0801 1780.97 64.4688 1779.97 62.75C1776.75 57.3073 1775.14 50.8978 1775.14 43.5215C1775.14 37.6491 1776.35 32.0273 1778.79 26.6562C1781.3 21.2852 1784.63 16.666 1788.78 12.7988C1792.93 8.93164 1797.87 5.85221 1803.6 3.56055C1809.33 1.26888 1815.35 0.123047 1821.65 0.123047C1829.46 0.123047 1836.73 1.8418 1843.46 5.2793C1850.26 8.64518 1855.81 13.2643 1860.11 19.1367C1864.4 25.0091 1866.98 31.4902 1867.84 38.5801L1855.27 42.4473C1855.06 37.0762 1853.41 32.1348 1850.33 27.623C1847.32 23.1113 1843.28 19.5664 1838.19 16.9883C1833.11 14.3385 1827.59 13.0137 1821.65 13.0137C1815.56 13.0137 1809.94 14.3743 1804.79 17.0957C1799.63 19.8171 1795.55 23.541 1792.54 28.2676C1789.53 32.9225 1788.03 38.0072 1788.03 43.5215C1788.03 48.5345 1789.07 52.7598 1791.14 56.1973C1792 57.7728 1793.04 59.2409 1794.26 60.6016C1795.55 61.8906 1796.76 63.0365 1797.91 64.0391C1799.13 65.0417 1800.63 66.0085 1802.42 66.9395C1804.21 67.8704 1805.75 68.6582 1807.04 69.3027C1808.33 69.8757 1810.08 70.556 1812.3 71.3438C1814.6 72.0599 1816.39 72.6328 1817.68 73.0625C1819.04 73.4206 1821.04 73.9577 1823.69 74.6738C1829.42 76.2493 1833.79 77.5742 1836.8 78.6484C1846.32 82.0143 1853.91 87.2064 1859.57 94.2246C1865.3 101.243 1868.16 108.941 1868.16 117.32C1868.16 123.193 1866.91 128.814 1864.4 134.186C1861.97 139.557 1858.68 144.176 1854.52 148.043C1850.37 151.91 1845.43 154.99 1839.7 157.281C1833.97 159.573 1827.95 160.719 1821.65 160.719C1809.4 160.719 1798.52 157.46 1788.99 150.943C1779.47 144.355 1772.85 135.618 1769.12 124.732L1781.47 120.973C1784.41 129.137 1789.5 135.654 1796.73 140.523C1803.96 145.393 1812.27 147.828 1821.65 147.828ZM1958.08 141.275L2010.18 1.51953H2027.15V159H2014.37V27.0859L1964.95 159H1951.2L1901.89 27.0859V159H1889V1.51953H1905.98L1958.08 141.275ZM2105.67 3.13086C2112.62 1.19727 2119.71 0.230469 2126.94 0.230469C2134.25 0.230469 2141.37 1.19727 2148.32 3.13086C2155.27 5.06445 2161.68 7.75 2167.55 11.1875C2173.42 14.625 2178.83 18.8145 2183.77 23.7559C2188.71 28.6973 2192.9 34.1042 2196.34 39.9766C2199.78 45.849 2202.46 52.2585 2204.39 59.2051C2206.33 66.1517 2207.29 73.2773 2207.29 80.582C2207.29 87.8151 2206.33 94.9049 2204.39 101.852C2202.46 108.798 2199.78 115.208 2196.34 121.08C2192.9 126.881 2188.71 132.288 2183.77 137.301C2178.83 142.242 2173.42 146.432 2167.55 149.869C2161.68 153.307 2155.27 155.992 2148.32 157.926C2141.37 159.859 2134.25 160.826 2126.94 160.826C2119.71 160.826 2112.62 159.859 2105.67 157.926C2098.73 155.992 2092.32 153.307 2086.45 149.869C2080.64 146.432 2075.24 142.242 2070.22 137.301C2065.28 132.288 2061.09 126.881 2057.66 121.08C2054.22 115.208 2051.53 108.798 2049.6 101.852C2047.67 94.9049 2046.7 87.8151 2046.7 80.582C2046.7 73.2773 2047.67 66.1517 2049.6 59.2051C2051.53 52.2585 2054.22 45.849 2057.66 39.9766C2061.09 34.1042 2065.28 28.6973 2070.22 23.7559C2075.24 18.8145 2080.64 14.625 2086.45 11.1875C2092.32 7.75 2098.73 5.06445 2105.67 3.13086ZM2109.11 145.572C2114.98 147.148 2120.96 147.936 2127.05 147.936C2133.14 147.936 2139.08 147.148 2144.88 145.572C2150.68 143.925 2156.05 141.669 2161 138.805C2165.94 135.868 2170.49 132.324 2174.64 128.17C2178.79 124.016 2182.3 119.469 2185.17 114.527C2188.1 109.586 2190.36 104.215 2191.93 98.4141C2193.58 92.5417 2194.4 86.5618 2194.4 80.4746C2194.4 74.3874 2193.58 68.4434 2191.93 62.6426C2190.36 56.8418 2188.1 51.4707 2185.17 46.5293C2182.3 41.5879 2178.79 37.0404 2174.64 32.8867C2170.49 28.7331 2165.94 25.224 2161 22.3594C2156.05 19.4232 2150.68 17.1673 2144.88 15.5918C2139.08 13.9447 2133.14 13.1211 2127.05 13.1211C2120.96 13.1211 2114.98 13.9447 2109.11 15.5918C2103.31 17.1673 2097.94 19.4232 2093 22.3594C2088.06 25.224 2083.51 28.7331 2079.36 32.8867C2075.2 37.0404 2071.66 41.5879 2068.72 46.5293C2065.86 51.4707 2063.6 56.8418 2061.95 62.6426C2060.38 68.4434 2059.59 74.3874 2059.59 80.4746C2059.59 86.5618 2060.38 92.5417 2061.95 98.4141C2063.6 104.215 2065.86 109.586 2068.72 114.527C2071.66 119.469 2075.2 124.016 2079.36 128.17C2083.51 132.324 2088.06 135.868 2093 138.805C2097.94 141.669 2103.31 143.925 2109.11 145.572ZM2276.9 3.13086C2283.85 1.19727 2290.94 0.230469 2298.17 0.230469C2305.48 0.230469 2312.6 1.19727 2319.55 3.13086C2326.5 5.06445 2332.91 7.75 2338.78 11.1875C2344.65 14.625 2350.06 18.8145 2355 23.7559C2359.94 28.6973 2364.13 34.1042 2367.57 39.9766C2371.01 45.849 2373.69 52.2585 2375.62 59.2051C2377.56 66.1517 2378.53 73.2773 2378.53 80.582C2378.53 87.8151 2377.56 94.9049 2375.62 101.852C2373.69 108.798 2371.01 115.208 2367.57 121.08C2364.13 126.881 2359.94 132.288 2355 137.301C2350.06 142.242 2344.65 146.432 2338.78 149.869C2332.91 153.307 2326.5 155.992 2319.55 157.926C2312.6 159.859 2305.48 160.826 2298.17 160.826C2290.94 160.826 2283.85 159.859 2276.9 157.926C2269.96 155.992 2263.55 153.307 2257.68 149.869C2251.88 146.432 2246.47 142.242 2241.46 137.301C2236.51 132.288 2232.32 126.881 2228.89 121.08C2225.45 115.208 2222.76 108.798 2220.83 101.852C2218.9 94.9049 2217.93 87.8151 2217.93 80.582C2217.93 73.2773 2218.9 66.1517 2220.83 59.2051C2222.76 52.2585 2225.45 45.849 2228.89 39.9766C2232.32 34.1042 2236.51 28.6973 2241.46 23.7559C2246.47 18.8145 2251.88 14.625 2257.68 11.1875C2263.55 7.75 2269.96 5.06445 2276.9 3.13086ZM2280.34 145.572C2286.21 147.148 2292.19 147.936 2298.28 147.936C2304.37 147.936 2310.31 147.148 2316.11 145.572C2321.91 143.925 2327.29 141.669 2332.23 138.805C2337.17 135.868 2341.72 132.324 2345.87 128.17C2350.02 124.016 2353.53 119.469 2356.4 114.527C2359.33 109.586 2361.59 104.215 2363.16 98.4141C2364.81 92.5417 2365.63 86.5618 2365.63 80.4746C2365.63 74.3874 2364.81 68.4434 2363.16 62.6426C2361.59 56.8418 2359.33 51.4707 2356.4 46.5293C2353.53 41.5879 2350.02 37.0404 2345.87 32.8867C2341.72 28.7331 2337.17 25.224 2332.23 22.3594C2327.29 19.4232 2321.91 17.1673 2316.11 15.5918C2310.31 13.9447 2304.37 13.1211 2298.28 13.1211C2292.19 13.1211 2286.21 13.9447 2280.34 15.5918C2274.54 17.1673 2269.17 19.4232 2264.23 22.3594C2259.29 25.224 2254.74 28.7331 2250.59 32.8867C2246.43 37.0404 2242.89 41.5879 2239.95 46.5293C2237.09 51.4707 2234.83 56.8418 2233.18 62.6426C2231.61 68.4434 2230.82 74.3874 2230.82 80.4746C2230.82 86.5618 2231.61 92.5417 2233.18 98.4141C2234.83 104.215 2237.09 109.586 2239.95 114.527C2242.89 119.469 2246.43 124.016 2250.59 128.17C2254.74 132.324 2259.29 135.868 2264.23 138.805C2269.17 141.669 2274.54 143.925 2280.34 145.572ZM2393.13 14.3027V1.51953H2509.37V14.3027H2457.59V159H2444.8V14.3027H2393.13ZM2630.97 68.873V1.51953H2643.86V159H2630.97V81.7637H2542.24V159H2529.24V1.51953H2542.24V68.873H2630.97Z" fill="white"/>
</svg>
