<svg width="120" height="70" viewBox="0 0 120 70" fill="none" xmlns="http://www.w3.org/2000/svg">
<path d="M41.6147 27.3683H38.3738V17.8478H41.1706C43.1576 17.8478 44.4644 18.7222 44.4644 20.3309C44.4644 21.0512 44.1241 21.8359 43.3143 22.2731V22.3123C44.7648 22.814 44.9868 24.0359 44.9868 24.5768C44.9868 26.5709 43.4311 27.3683 41.6147 27.3683ZM41.2233 19.3654H40.0732V21.707H41.3414C41.9422 21.707 42.7791 21.5654 42.7791 20.5229C42.7776 19.584 41.9407 19.3654 41.2233 19.3654ZM41.4966 23.1741H40.0718V25.8506H41.5094C42.2283 25.8506 43.2744 25.7091 43.2872 24.4872C43.2872 23.3409 42.2938 23.1741 41.4966 23.1741Z" fill="black"/>
<path d="M51.6489 23.8047L53.8708 27.3683H51.8325L49.8853 24.0233H48.6954V27.3683H46.9958V17.8478H49.7672C51.3486 17.8478 51.9891 18.0285 52.5512 18.4013C53.4011 18.9674 53.8836 19.9329 53.8836 20.9741C53.8836 22.3376 53.0339 23.4698 51.6489 23.8047ZM51.5179 19.7003C51.1251 19.4425 50.6297 19.3654 49.9365 19.3654H48.6954V22.6725H50.133C51.6617 22.6725 52.1983 21.8359 52.1983 21.0133C52.1983 20.4598 51.9492 19.9834 51.5179 19.7003Z" fill="black"/>
<path d="M55.8535 27.3683V17.8478H57.6043V27.3683H55.8535Z" fill="black"/>
<path d="M63.461 19.3654V27.3683H61.7103V19.3654H59.5938V17.8478H65.5661V19.3654H63.461Z" fill="black"/>
<path d="M67.5515 27.3683V17.8478H69.3022V27.3683H67.5515Z" fill="black"/>
<path d="M74.4776 27.5485C72.3212 27.5485 71.3404 26.3518 71.2366 24.6156H72.9873C73.0784 25.7352 73.8882 26.0828 74.4648 26.0828C75.2618 26.0828 75.9023 25.4648 75.9023 24.7053C75.9023 23.6893 75.0526 23.4315 73.837 22.9817C73.0799 22.7238 71.4059 22.1703 71.4059 20.3696C71.4059 18.6825 72.9475 17.6665 74.5033 17.6665C75.4056 17.6665 76.3195 18.0014 76.8816 18.6572C77.3513 19.2107 77.4439 19.7643 77.4824 20.2659H75.7444C75.6662 19.7769 75.3658 19.1337 74.4505 19.1337C73.7317 19.1337 73.1567 19.6479 73.1567 20.3304C73.1567 21.2048 73.7716 21.3982 75.3387 22.0035C76.9856 22.6341 77.6517 23.5604 77.6517 24.7053C77.6532 26.1458 76.6468 27.5485 74.4776 27.5485Z" fill="black"/>
<path d="M85.2994 27.3683V23.2638H81.3141V27.3683H79.5632V17.8478H81.3141V21.7462H85.2994V17.8478H87.0502V27.3683H85.2994Z" fill="black"/>
<path d="M88.7576 33.1324H90.8291V53.6477H88.9595V53.8692H104.217V46.1555H104.112C103.743 54.2041 94.3524 53.6477 94.3524 53.6477L94.4046 53.6562V43.2983C96.239 43.2983 98.7328 43.0363 99.1013 47.7431H99.1662V38.6911H99.1013C98.6282 43.0349 96.1937 43.0657 94.4046 43.0657V33.0918V33.1717C97.9293 33.1717 101.79 32.4837 103.288 39.9858H103.373V32.9237H88.7576V33.1324Z" fill="black"/>
<path d="M89.1856 33.1296V32.9237H84.8377V33.1296H86.761V48.4576C86.6904 52.3054 83.8761 54.0696 81.7056 53.991C77.7235 53.8482 77.2659 50.1083 77.2659 49.3376V33.1296H79.1709V32.9237H71.7615V33.1296H73.7271L73.7215 47.4614C73.7215 51.3035 75.6885 54.2671 81.4331 54.2671C85.2853 54.2671 87.0533 51.092 87.0138 48.4591V33.1296H89.1856Z" fill="black"/>
<path d="M70.2717 45.2533H71.8872V45.0459H65.2446V45.2533H66.9505V49.8955C66.9505 52.0437 66.0171 54.0053 63.06 54.0628C60.9334 54.0922 59.7655 52.897 59.1428 51.2422C58.4693 49.471 58.2206 47.613 58.2206 43.4023C58.2206 40.7021 58.4693 36.6946 59.4026 34.894C59.8432 34.0519 60.6481 32.5624 63.0078 32.5708C65.9676 32.582 67.6904 34.9809 68.9627 40.0044H69.0262V32.3074H68.9585C68.3357 33.7885 65.9902 33.064 65.9902 33.064C64.6938 32.6576 64.1234 32.3676 62.981 32.3676C59.3235 32.3676 54.2908 36.0557 54.2908 43.6644C54.2908 49.8788 58.0512 54.2674 63.1871 54.2674C65.3137 54.2674 66.6116 52.7302 68.4261 52.7302C68.9965 52.7302 70.0429 53.0847 70.2251 53.9843H70.2689L70.2717 45.2533Z" fill="black"/>
<path d="M48.4798 43.2843C48.4798 44.7668 48.3625 49.5029 47.1157 51.857C46.3361 53.3689 44.9862 54.0065 43.4003 54.0065C41.816 54.0065 40.4646 53.3675 39.6865 51.857C38.4395 49.5029 38.3224 44.7653 38.3224 43.2843C38.3224 41.8017 38.4395 37.21 39.6865 34.769C40.4406 33.2571 41.816 32.6195 43.4003 32.6195C44.9847 32.6195 46.3616 33.2585 47.1157 34.769C48.3625 37.21 48.4798 41.8017 48.4798 43.2843ZM52.4929 43.2843C52.4929 36.7168 47.7398 32.4149 43.4017 32.4149C39.0637 32.4149 34.3105 36.7168 34.3105 43.2843C34.3105 49.8518 39.2204 54.2111 43.4017 54.2111C47.5831 54.2111 52.4929 49.8518 52.4929 43.2843Z" fill="black"/>
<path d="M32.3552 32.9265V33.1268H34.3139L29.4928 49.1358L23.6693 33.1268H25.3525V32.9265H18.3301V33.1268H20.2577L28.1543 53.9826H28.2672L34.5525 33.1268H36.233V32.9265H32.3552Z" fill="black"/>
</svg>
