<svg width="225" height="50" viewBox="0 0 225 50" fill="none" xmlns="http://www.w3.org/2000/svg">
<path d="M110.338 0H97.3335V9.54229H110.338V0Z" fill="url(#paint0_linear_340_250)"/>
<path d="M110.299 15.8804H97.4331V48.4774H110.299V15.8804Z" fill="url(#paint1_linear_340_250)"/>
<path d="M86.3286 0H73.4629V48.4776H86.3286V0Z" fill="url(#paint2_linear_340_250)"/>
<path d="M121.553 0V48.4776H134.13V26.9154L159.165 48.4776H172.926V48.189L145.185 23.6617L172.06 3.16418V2.89552H157.025L134.13 20.5473V0H121.553Z" fill="url(#paint3_linear_340_250)"/>
<path d="M44.3881 6.01946H49.0348V30.6762C48.9254 38.5866 42.4378 43.3826 35.5224 43.3826C28.607 43.3826 22.1293 38.5866 22.0199 30.6762V0.0493164H0L4.20895 6.01946H8.90547V30.2384C8.90547 44.3876 22.7662 50.0394 35.5721 49.9996C48.3781 49.9598 62.2487 44.3876 62.2487 30.2384V0.0493164H40.1791L44.3881 6.01946Z" fill="url(#paint4_linear_340_250)"/>
<path d="M183.432 21.512L183.492 21.0145C184.487 14.7757 189.373 8.23834 198.159 8.23834C206.577 8.23834 211.811 15.5518 212.348 21.0145V21.512H183.432ZM217.582 8.57665C212.776 3.94978 205.562 1.3428 198.209 1.50201C189.582 1.67116 182.288 4.34779 177.184 9.25326C174.98 11.3843 173.239 13.946 172.068 16.7791C170.897 19.6122 170.321 22.6559 170.378 25.7209C170.305 29.2651 171.08 32.7754 172.638 35.9598C174.195 39.1442 176.491 41.9108 179.333 44.0294C185.014 48.2085 190.129 49.91 198.507 49.91C200.692 49.928 202.875 49.7683 205.034 49.4324C215.194 47.7408 221.462 42.1985 223.86 36.1289L212.915 36.0791C211.243 39.293 206.248 42.8055 198.368 42.8055C194.529 42.8569 190.819 41.4191 188.018 38.7938C185.216 36.1686 183.541 32.5601 183.343 28.7259H224.825C225.263 20.1886 222.467 13.2533 217.612 8.57665" fill="url(#paint5_linear_340_250)"/>
<defs>
<linearGradient id="paint0_linear_340_250" x1="103.836" y1="0" x2="103.836" y2="9.54229" gradientUnits="userSpaceOnUse">
<stop stop-color="#9CA6E3"/>
<stop offset="1" stop-color="#3E4CAB"/>
</linearGradient>
<linearGradient id="paint1_linear_340_250" x1="103.866" y1="15.8804" x2="103.866" y2="48.4774" gradientUnits="userSpaceOnUse">
<stop stop-color="#9CA6E3"/>
<stop offset="1" stop-color="#3E4CAB"/>
</linearGradient>
<linearGradient id="paint2_linear_340_250" x1="79.8957" y1="0" x2="79.8957" y2="48.4776" gradientUnits="userSpaceOnUse">
<stop stop-color="#9CA6E3"/>
<stop offset="1" stop-color="#3E4CAB"/>
</linearGradient>
<linearGradient id="paint3_linear_340_250" x1="147.239" y1="0" x2="147.239" y2="48.4776" gradientUnits="userSpaceOnUse">
<stop stop-color="#9CA6E3"/>
<stop offset="1" stop-color="#3E4CAB"/>
</linearGradient>
<linearGradient id="paint4_linear_340_250" x1="31.1244" y1="0.0493164" x2="31.1244" y2="49.9998" gradientUnits="userSpaceOnUse">
<stop stop-color="#9CA6E3"/>
<stop offset="1" stop-color="#3E4CAB"/>
</linearGradient>
<linearGradient id="paint5_linear_340_250" x1="197.622" y1="1.49512" x2="197.622" y2="49.9113" gradientUnits="userSpaceOnUse">
<stop stop-color="#9CA6E3"/>
<stop offset="1" stop-color="#3E4CAB"/>
</linearGradient>
</defs>
</svg>
