<svg width="168" height="50" viewBox="0 0 168 50" fill="none" xmlns="http://www.w3.org/2000/svg">
<path d="M19.233 0H27.7237L47.0559 49.7836H38.4263L33.9429 37.8808H12.7757L8.36174 49.7836H0L19.233 0ZM31.3144 30.9375L23.3097 9.80994L15.3745 30.9375H31.3144Z" fill="url(#paint0_linear_340_264)"/>
<path d="M58.7505 0H51.3311V8.49069H58.7505V0Z" fill="url(#paint1_linear_340_264)"/>
<path d="M83.1317 20.3737C81.3063 20.3695 79.5322 20.9771 78.0928 22.0996C76.4021 23.497 75.1346 25.3381 74.4327 27.4162C73.4323 30.3 72.9651 33.3418 73.0539 36.3929V49.7836H65.5254V13.9462H73.0539V20.7903C73.9366 18.6071 75.4844 16.7573 77.4778 15.5035C79.4242 14.1511 81.7337 13.4181 84.1037 13.4006C84.6807 13.3924 85.2575 13.4256 85.8296 13.4998C86.125 13.5525 86.423 13.5889 86.7224 13.6089V20.7903C85.5472 20.5041 84.3412 20.3641 83.1317 20.3737Z" fill="url(#paint2_linear_340_264)"/>
<path d="M113.365 14.4322H102.662V8.42128C104.98 8.44857 107.291 8.17177 109.536 7.59798C111.111 7.20433 112.509 6.29256 113.504 5.00913C114.498 3.51219 115.101 1.7901 115.259 0H121.409V49.7836H113.395L113.365 14.4322Z" fill="url(#paint3_linear_340_264)"/>
<path d="M138.152 46.8773C135.161 44.6574 132.877 41.6188 131.576 38.1287C130.008 33.9247 129.251 29.4618 129.344 24.976C129.257 20.5036 130.014 16.0549 131.576 11.8631C132.861 8.36429 135.148 5.32149 138.152 3.11451C141.196 1.01296 144.83 -0.067271 148.527 0.0296746C152.236 -0.0770956 155.882 1.00374 158.933 3.11451C161.925 5.32089 164.216 8.34526 165.529 11.8234C167.124 16.021 167.895 20.4866 167.8 24.976C167.893 29.4782 167.122 33.9565 165.529 38.1684C164.227 41.6554 161.943 44.6907 158.952 46.907C155.904 49.0222 152.256 50.1035 148.547 49.9918C144.844 50.0926 141.207 49.0007 138.172 46.8773M156.889 38.1981C158.873 34.9943 159.805 30.5803 159.805 24.976C159.805 19.3718 158.814 14.9677 156.889 11.754C156.075 10.2631 154.866 9.02533 153.394 8.17667C151.923 7.32802 150.246 6.90126 148.547 6.94324C146.864 6.90354 145.203 7.33237 143.749 8.18185C142.295 9.03132 141.106 10.268 140.315 11.754C138.39 14.9677 137.428 19.3751 137.428 24.976C137.428 30.577 138.39 34.9943 140.315 38.2279C141.109 39.709 142.3 40.9403 143.754 41.7845C145.207 42.6286 146.867 43.0525 148.547 43.0089C150.246 43.0531 151.924 42.6272 153.396 41.7784C154.868 40.9295 156.077 39.6905 156.889 38.1981Z" fill="url(#paint4_linear_340_264)"/>
<path d="M58.8 13.9463H51.2715V49.7837H58.8V13.9463Z" fill="url(#paint5_linear_340_264)"/>
<defs>
<linearGradient id="paint0_linear_340_264" x1="23.5279" y1="0" x2="23.5279" y2="49.7836" gradientUnits="userSpaceOnUse">
<stop stop-color="#9CA6E3"/>
<stop offset="1" stop-color="#3E4CAB"/>
</linearGradient>
<linearGradient id="paint1_linear_340_264" x1="55.0408" y1="0" x2="55.0408" y2="8.49069" gradientUnits="userSpaceOnUse">
<stop stop-color="#9CA6E3"/>
<stop offset="1" stop-color="#3E4CAB"/>
</linearGradient>
<linearGradient id="paint2_linear_340_264" x1="76.1239" y1="13.3994" x2="76.1239" y2="49.7836" gradientUnits="userSpaceOnUse">
<stop stop-color="#9CA6E3"/>
<stop offset="1" stop-color="#3E4CAB"/>
</linearGradient>
<linearGradient id="paint3_linear_340_264" x1="112.036" y1="0" x2="112.036" y2="49.7836" gradientUnits="userSpaceOnUse">
<stop stop-color="#9CA6E3"/>
<stop offset="1" stop-color="#3E4CAB"/>
</linearGradient>
<linearGradient id="paint4_linear_340_264" x1="148.572" y1="0.0224609" x2="148.572" y2="49.9997" gradientUnits="userSpaceOnUse">
<stop stop-color="#9CA6E3"/>
<stop offset="1" stop-color="#3E4CAB"/>
</linearGradient>
<linearGradient id="paint5_linear_340_264" x1="55.0358" y1="13.9463" x2="55.0358" y2="49.7837" gradientUnits="userSpaceOnUse">
<stop stop-color="#9CA6E3"/>
<stop offset="1" stop-color="#3E4CAB"/>
</linearGradient>
</defs>
</svg>
