<svg width="226" height="50" viewBox="0 0 226 50" fill="none" xmlns="http://www.w3.org/2000/svg">
<path d="M111.17 0H98.1655V9.54229H111.17V0Z" fill="white"/>
<path d="M111.131 15.8804H98.2651V48.4774H111.131V15.8804Z" fill="white"/>
<path d="M87.1606 0H74.2949V48.4776H87.1606V0Z" fill="white"/>
<path d="M122.385 0V48.4776H134.962V26.9154L159.997 48.4776H173.758V48.189L146.017 23.6617L172.892 3.16418V2.89552H157.857L134.962 20.5473V0H122.385Z" fill="white"/>
<path d="M45.2201 6.01946H49.8668V30.6762C49.7574 38.5866 43.2698 43.3826 36.3544 43.3826C29.439 43.3826 22.9614 38.5866 22.8519 30.6762V0.0493164H0.832031L5.04098 6.01946H9.7375V30.2384C9.7375 44.3876 23.5982 50.0394 36.4042 49.9996C49.2101 49.9598 63.0808 44.3876 63.0808 30.2384V0.0493164H41.0111L45.2201 6.01946Z" fill="white"/>
<path d="M184.264 21.512L184.324 21.0145C185.319 14.7757 190.205 8.23834 198.991 8.23834C207.409 8.23834 212.643 15.5518 213.18 21.0145V21.512H184.264ZM218.414 8.57665C213.608 3.94978 206.394 1.3428 199.041 1.50201C190.414 1.67116 183.12 4.34779 178.016 9.25326C175.812 11.3843 174.071 13.946 172.9 16.7791C171.729 19.6122 171.154 22.6559 171.21 25.7209C171.137 29.2651 171.912 32.7754 173.47 35.9598C175.027 39.1442 177.323 41.9108 180.165 44.0294C185.847 48.2085 190.961 49.91 199.339 49.91C201.524 49.928 203.707 49.7683 205.866 49.4324C216.026 47.7408 222.294 42.1985 224.692 36.1289L213.747 36.0791C212.075 39.293 207.08 42.8055 199.2 42.8055C195.361 42.8569 191.651 41.4191 188.85 38.7938C186.048 36.1686 184.373 32.5601 184.175 28.7259H225.657C226.095 20.1886 223.299 13.2533 218.444 8.57665" fill="white"/>
</svg>
