<svg width="169" height="50" viewBox="0 0 169 50" fill="none" xmlns="http://www.w3.org/2000/svg">
<path d="M19.9354 0H28.4261L47.7583 49.7836H39.1287L34.6453 37.8808H13.4781L9.06413 49.7836H0.702393L19.9354 0ZM32.0168 30.9375L24.0121 9.80994L16.0769 30.9375H32.0168Z" fill="white"/>
<path d="M59.4529 0H52.0334V8.49069H59.4529V0Z" fill="white"/>
<path d="M83.8341 20.3737C82.0087 20.3695 80.2346 20.9771 78.7952 22.0996C77.1045 23.497 75.837 25.3381 75.1351 27.4162C74.1347 30.3 73.6675 33.3418 73.7563 36.3929V49.7836H66.2278V13.9462H73.7563V20.7903C74.639 18.6071 76.1868 16.7573 78.1802 15.5035C80.1266 14.1511 82.4361 13.4181 84.8061 13.4006C85.3831 13.3924 85.9598 13.4256 86.532 13.4998C86.8274 13.5525 87.1254 13.5889 87.4247 13.6089V20.7903C86.2496 20.5041 85.0436 20.3641 83.8341 20.3737Z" fill="white"/>
<path d="M114.067 14.4322H103.365V8.42128C105.682 8.44857 107.993 8.17177 110.238 7.59798C111.814 7.20433 113.211 6.29256 114.206 5.00913C115.2 3.51219 115.804 1.7901 115.962 0H122.111V49.7836H114.097L114.067 14.4322Z" fill="white"/>
<path d="M138.855 46.8773C135.864 44.6574 133.579 41.6188 132.278 38.1287C130.711 33.9247 129.953 29.4618 130.046 24.976C129.959 20.5036 130.716 16.0549 132.278 11.8631C133.564 8.36429 135.851 5.32149 138.855 3.11451C141.899 1.01296 145.532 -0.067271 149.23 0.0296746C152.938 -0.0770956 156.584 1.00374 159.635 3.11451C162.627 5.32089 164.918 8.34526 166.231 11.8234C167.826 16.021 168.598 20.4866 168.503 24.976C168.595 29.4782 167.824 33.9565 166.231 38.1684C164.929 41.6554 162.645 44.6907 159.655 46.907C156.606 49.0222 152.959 50.1035 149.25 49.9918C145.547 50.0926 141.91 49.0007 138.874 46.8773M157.592 38.1981C159.575 34.9943 160.508 30.5803 160.508 24.976C160.508 19.3718 159.516 14.9677 157.592 11.754C156.777 10.2631 155.568 9.02533 154.097 8.17667C152.625 7.32802 150.948 6.90126 149.25 6.94324C147.566 6.90354 145.905 7.33237 144.452 8.18185C142.998 9.03132 141.809 10.268 141.017 11.754C139.093 14.9677 138.131 19.3751 138.131 24.976C138.131 30.577 139.093 34.9943 141.017 38.2279C141.812 39.709 143.003 40.9403 144.456 41.7845C145.91 42.6286 147.569 43.0525 149.25 43.0089C150.948 43.0531 152.626 42.6272 154.098 41.7784C155.57 40.9295 156.779 39.6905 157.592 38.1981Z" fill="white"/>
<path d="M59.5024 13.9463H51.9739V49.7837H59.5024V13.9463Z" fill="white"/>
</svg>
