<svg width="72" height="66" viewBox="0 0 72 66" fill="none" xmlns="http://www.w3.org/2000/svg">
<path d="M7.5 13V44.3027C8.09164 44.3027 8.65909 44.0686 9.07744 43.6519C9.49579 43.2351 9.73077 42.6699 9.73077 42.0806V15.2221H63.2492H63.2603V43.6916C63.2603 44.6209 63.0765 45.5411 62.7194 46.3997C62.3623 47.2582 61.839 48.0383 61.1792 48.6953C60.5194 49.3523 59.7361 49.8734 58.8741 50.2289C58.0121 50.5843 57.0882 50.7671 56.1553 50.7668H9.73077C9.13913 50.7668 8.57168 51.0009 8.15333 51.4176C7.73498 51.8344 7.5 52.3996 7.5 52.9889H56.1553C58.6309 52.9889 61.0051 52.0094 62.7559 50.2659C64.5066 48.5224 65.4905 46.1576 65.4911 43.6916V13H65.48H7.50893H7.5Z" fill="#190A0A"/>
<path d="M19.0175 24.1152H45.4142C45.7071 24.1152 45.9972 24.0577 46.2678 23.946C46.5385 23.8343 46.7845 23.6707 46.9916 23.4643C47.1988 23.258 47.363 23.013 47.4751 22.7434C47.5872 22.4738 47.645 22.1849 47.645 21.8931H18.9595C18.5065 21.8926 18.058 21.9837 17.6413 22.161C17.2247 22.3383 16.8485 22.598 16.5356 22.9244C16.2228 23.2508 15.9796 23.6372 15.8211 24.0599C15.6626 24.4827 15.5919 24.9332 15.6134 25.384C15.6981 27.1817 17.2574 28.5594 19.0621 28.5594H54.1298C54.583 28.5599 55.0317 28.4687 55.4485 28.2912C55.8653 28.1138 56.2416 27.8539 56.5545 27.5272C56.8674 27.2006 57.1105 26.814 57.2688 26.391C57.4272 25.9679 57.4977 25.5172 57.4759 25.0662C57.3911 23.2708 55.8318 21.8931 54.0272 21.8931H52.1088C51.5171 21.8931 50.9497 22.1272 50.5313 22.5439C50.113 22.9606 49.878 23.5258 49.878 24.1152H54.1165C54.272 24.1145 54.4259 24.1463 54.5684 24.2084C54.7109 24.2705 54.8387 24.3616 54.9438 24.4759C55.0488 24.5901 55.1287 24.725 55.1783 24.8718C55.2279 25.0186 55.2462 25.1742 55.2319 25.3284C55.1966 25.6108 55.0577 25.8701 54.8418 26.0564C54.6259 26.2427 54.3484 26.3427 54.0629 26.3373H18.9506C18.7951 26.3379 18.6411 26.3062 18.4987 26.2441C18.3562 26.1819 18.2282 26.0908 18.1232 25.9766C18.0182 25.8623 17.9383 25.7275 17.8887 25.5806C17.8391 25.4338 17.8209 25.2783 17.8352 25.124C17.8707 24.8393 18.0115 24.5781 18.2302 24.3915C18.4489 24.2049 18.7296 24.1063 19.0175 24.1152Z" fill="#190A0A"/>
<path d="M19.0667 44.1004H54.1299C54.5829 44.1009 55.0314 44.0097 55.4481 43.8324C55.8647 43.6552 56.2409 43.3954 56.5538 43.069C56.8666 42.7426 57.1098 42.3563 57.2683 41.9335C57.4268 41.5107 57.4975 41.0603 57.476 40.6095C57.3912 38.814 55.8319 37.4341 54.0273 37.4341H18.9596C18.5064 37.4336 18.0577 37.5248 17.6409 37.7022C17.2241 37.8796 16.8478 38.1396 16.5349 38.4662C16.222 38.7929 15.9789 39.1795 15.8205 39.6025C15.6622 40.0255 15.5917 40.4762 15.6135 40.9272C15.7027 42.7227 17.262 44.1004 19.0667 44.1004ZM17.8487 40.6672C17.8839 40.3849 18.0229 40.1256 18.2388 39.9393C18.4546 39.753 18.732 39.6529 19.0176 39.6584H54.1299C54.2856 39.6577 54.4398 39.6895 54.5824 39.7518C54.7251 39.814 54.8531 39.9053 54.9581 40.0198C55.0632 40.1343 55.1431 40.2695 55.1925 40.4166C55.242 40.5637 55.2599 40.7195 55.2452 40.8739C55.21 41.156 55.071 41.4151 54.8551 41.601C54.6392 41.787 54.3617 41.8865 54.0764 41.8805H18.9641C18.8086 41.8812 18.6546 41.8494 18.5122 41.7873C18.3697 41.7252 18.2417 41.6341 18.1367 41.5198C18.0317 41.4056 17.9518 41.2707 17.9022 41.1239C17.8526 40.977 17.8344 40.8215 17.8487 40.6672Z" fill="#190A0A"/>
</svg>
