<svg width="72" height="66" viewBox="0 0 72 66" fill="none" xmlns="http://www.w3.org/2000/svg">
<path d="M34.3928 2V6.42857H36.6071V4.21429C36.6071 3.62702 36.3738 3.06381 35.9585 2.64855C35.5432 2.23329 34.9801 2 34.3928 2Z" fill="#190A0A"/>
<path d="M36.6071 63.9999V59.5713H34.3928V61.7856C34.3928 62.3728 34.6261 62.9361 35.0413 63.3513C35.4566 63.7666 36.0198 63.9999 36.6071 63.9999Z" fill="#190A0A"/>
<path d="M4.5 34.1074H8.92857V31.8931H6.71429C6.12702 31.8931 5.56376 32.1264 5.1485 32.5416C4.73324 32.9569 4.5 33.5201 4.5 34.1074Z" fill="#190A0A"/>
<path d="M66.5001 31.8931H62.0715V34.1074H64.2858C64.5766 34.1074 64.8645 34.0501 65.1332 33.9388C65.4018 33.8275 65.6459 33.6644 65.8515 33.4588C66.0571 33.2532 66.2203 33.0091 66.3315 32.7404C66.4428 32.4718 66.5001 32.1839 66.5001 31.8931Z" fill="#190A0A"/>
<path d="M14.3734 55.7077L15.9388 54.1422L17.5044 52.5767L15.9388 51.0112L14.3734 52.5767C13.9583 52.992 13.7251 53.5551 13.7251 54.1422C13.7251 54.7294 13.9583 55.2925 14.3734 55.7077Z" fill="#190A0A"/>
<path d="M56.6376 10.2969L55.0721 11.8646L53.5066 13.4301L55.0721 14.9956L56.6376 13.4301C56.8435 13.2244 57.0068 12.9802 57.1182 12.7114C57.2296 12.4426 57.287 12.1545 57.287 11.8635C57.287 11.5725 57.2296 11.2844 57.1182 11.0155C57.0068 10.7467 56.8435 10.5025 56.6376 10.2969Z" fill="#190A0A"/>
<path d="M12.7969 11.8649L14.3624 13.4304L15.9279 14.9959L17.4934 13.4304L15.9235 11.8649C15.5084 11.4511 14.9462 11.2187 14.3602 11.2188C13.7741 11.2188 13.2119 11.4511 12.7969 11.8649Z" fill="#190A0A"/>
<path d="M58.2031 54.1373L56.6376 52.5718L55.0721 51.0063L53.5066 52.5718L55.0721 54.1373C55.4873 54.5525 56.0505 54.7857 56.6376 54.7857C57.2248 54.7857 57.7878 54.5525 58.2031 54.1373Z" fill="#190A0A"/>
<path d="M33.288 26.4302H31.0737V38.9365H33.288V26.4302Z" fill="#190A0A"/>
<path d="M37.7164 31.6271H34.395C34.395 32.2144 34.6284 32.7776 35.0436 33.1928C35.4589 33.6081 36.022 33.8414 36.6093 33.8414H37.7164V38.9342H39.9307V26.4302H37.7164V31.6271Z" fill="#190A0A"/>
<path d="M26.2487 31.7775C25.9719 31.6889 25.6575 31.6092 25.3254 31.5251C24.3777 31.2859 23.0778 30.956 22.6239 30.3227C22.5511 30.1734 22.5133 30.0094 22.5133 29.8433C22.5133 29.6772 22.5511 29.5132 22.6239 29.3639C22.8896 28.8192 23.6027 28.6797 24.154 28.6598C25.6243 28.6044 26.2155 29.3683 26.4458 29.8798H28.7664C28.545 28.6398 27.2983 26.337 24.0809 26.4477C21.8799 26.5296 20.981 27.6988 20.6466 28.3874C20.1395 29.4215 20.217 30.7456 20.8326 31.6092C21.7471 32.9001 23.503 33.343 24.7807 33.6729C25.0796 33.746 25.3586 33.8168 25.569 33.8943C26.0783 34.056 26.6761 34.4258 26.6429 35.2561C26.6163 35.885 26.2531 36.3234 25.5623 36.5581C25.0663 36.7264 24.0123 36.8836 23.2085 36.3699C22.9635 36.2227 22.7276 36.0608 22.5022 35.885C22.2038 35.6542 21.9353 35.3871 21.7028 35.0901C21.4641 34.7557 21.2467 34.4066 21.0518 34.0449C20.6068 34.4244 20.3301 34.9646 20.2819 35.5475C20.2338 36.1304 20.4182 36.7086 20.795 37.156C21.1495 37.5788 21.5687 37.9428 22.0371 38.2343C22.7842 38.6964 23.6478 38.9353 24.526 38.923C25.1276 38.9248 25.7256 38.8306 26.2975 38.644C27.8475 38.117 28.8129 36.8726 28.8749 35.3381C28.9236 33.6796 27.9249 32.3133 26.2487 31.7775Z" fill="#190A0A"/>
<path d="M50.8848 36.5186L48.9982 33.5182C50.2692 33.0001 50.9911 31.7468 50.9911 29.9444C50.9911 28.5848 50.4464 27.781 49.9902 27.3448C49.3222 26.7448 48.4523 26.419 47.5545 26.4325H42.1494V38.9344H44.3637V33.7862H46.5514L49.0071 37.69L50.1762 39.5699C50.4231 39.4161 50.6374 39.2152 50.8066 38.9786C50.9759 38.742 51.0969 38.4744 51.1627 38.1911C51.2285 37.9077 51.2378 37.6141 51.1901 37.3272C51.1425 37.0402 51.0387 36.7655 50.8848 36.5186ZM44.3593 28.6468H47.6054C47.9213 28.6423 48.2281 28.7525 48.469 28.9568C48.6727 29.1561 48.7768 29.4882 48.7768 29.9444C48.7768 31.4457 48.1346 31.5697 47.5345 31.5697H44.3593V28.6468Z" fill="#190A0A"/>
<path d="M56.6863 37.2136C55.8885 41.2263 53.9675 44.9299 51.1467 47.8932C48.3259 50.8566 44.7214 52.9578 40.7528 53.9523C36.7843 54.9468 32.615 54.7937 28.7301 53.5108C24.8452 52.2278 21.4045 49.8679 18.8087 46.7056C16.2129 43.5433 14.5686 39.7087 14.0673 35.6483C13.5661 31.5879 14.2284 27.4686 15.9772 23.7699C17.726 20.0713 20.4893 16.9454 23.9456 14.7561C27.4018 12.5669 31.4088 11.4044 35.5001 11.4039C40.4707 11.4126 45.2871 13.1307 49.1411 16.2698C52.9951 19.409 55.6521 23.7782 56.6664 28.6443L57.1092 30.8143C57.3942 30.7564 57.665 30.643 57.9061 30.4805C58.1472 30.318 58.354 30.1095 58.5146 29.8671C58.6752 29.6247 58.7865 29.353 58.8421 29.0676C58.8977 28.7822 58.8965 28.4886 58.8386 28.2036C57.6515 22.4255 54.362 17.2935 49.6074 13.8021C44.8527 10.3107 38.9715 8.70836 33.103 9.30547C27.2344 9.90258 21.7963 12.6567 17.8423 17.0342C13.8883 21.4116 11.6999 27.1009 11.7009 32.9998C11.7036 38.9089 13.9032 44.6059 17.8723 48.9836C21.8414 53.3613 27.2963 56.1068 33.1769 56.6866C39.0575 57.2664 44.9436 55.639 49.6912 52.1207C54.4387 48.6024 57.7086 43.4446 58.8652 37.6498V37.6365L59.2925 35.4798C59.0093 35.4206 58.7173 35.4181 58.4332 35.4724C58.149 35.5266 57.8784 35.6366 57.637 35.7959C57.3955 35.9552 57.1881 36.1607 57.0264 36.4006C56.8648 36.6405 56.7522 36.91 56.6951 37.1936L56.6863 37.2136Z" fill="#190A0A"/>
</svg>
