<svg width="72" height="66" viewBox="0 0 72 66" fill="none" xmlns="http://www.w3.org/2000/svg">
<path d="M11.6297 48.4637L10.5 46.5296L17.0186 42.8177L12.1742 40.7676C11.767 40.5963 11.4198 40.3107 11.1755 39.9462C10.9313 39.5817 10.8008 39.1545 10.8004 38.7175C10.7993 38.4176 10.8609 38.1207 10.9812 37.8453L19.4679 41.4145L30.0671 35.3736C30.0852 35.3736 30.1033 35.3736 30.1124 35.3468C30.4387 35.1809 30.8005 35.0945 31.1675 35.0947C31.5597 35.0956 31.9449 35.1973 32.2853 35.3898C32.6256 35.5822 32.9092 35.8588 33.1084 36.1923C33.1102 36.1981 33.1102 36.2043 33.1084 36.2101L20.5977 43.3486L19.4882 52.401C18.8943 52.3285 18.3539 52.0264 17.9853 51.5609C17.6168 51.0955 17.4503 50.5047 17.5224 49.9182L18.1506 44.7495L11.6297 48.4637Z" fill="#190A0A"/>
<path d="M17.0209 23.1846L10.5022 19.4637L11.6319 17.5296L18.1528 21.2528L17.5247 16.0818C17.4532 15.4957 17.62 14.9055 17.9884 14.4405C18.3569 13.9756 18.897 13.6737 19.4904 13.6012L20.5999 22.6425L35.3679 31.0659V14.2214L27.993 8.756C28.2034 8.47895 28.4763 8.25408 28.7901 8.0992C29.1038 7.94432 29.4498 7.86369 29.8006 7.86369C30.2893 7.86465 30.7647 8.0211 31.1563 8.30985L35.3724 11.4329V4H37.6319V11.4352L41.8572 8.31208C42.3366 7.95709 42.9392 7.80467 43.5324 7.88834C44.1256 7.97201 44.6609 8.28492 45.0205 8.75823L37.6342 14.2236V31.0682L52.4046 22.6425L53.5049 13.599C54.0554 13.6674 54.5619 13.9317 54.9292 14.3424C55.2965 14.7531 55.4994 15.2819 55.5 15.8298C55.5 15.9101 55.5 15.9993 55.4819 16.0885L54.8538 21.2595L61.3725 17.5363L62.5022 19.4704L55.9812 23.1913L60.837 25.2258C61.1102 25.3406 61.3579 25.5075 61.5658 25.7169C61.7737 25.9263 61.9376 26.1741 62.0485 26.4461C62.1593 26.7181 62.2147 27.0091 62.2115 27.3022C62.2083 27.5954 62.1466 27.8851 62.0299 28.1548L53.5434 24.5855L38.7752 33.0067L53.5434 41.4301L62.0299 37.8608C62.152 38.1358 62.2144 38.4329 62.213 38.7331C62.2123 39.1703 62.0816 39.5978 61.837 39.9622C61.5923 40.3267 61.2446 40.6122 60.837 40.7831L55.9926 42.8332L62.5135 46.5452L61.3837 48.4793L54.8538 44.7495L55.4819 49.9182C55.5508 50.5058 55.3817 51.0965 55.0114 51.5616C54.641 52.0267 54.0995 52.3284 53.5049 52.401L52.4046 43.3575L37.6252 34.9341V51.7719L45.0114 57.2373C44.8347 57.4734 44.6123 57.6724 44.357 57.8229C44.1017 57.9733 43.8187 58.0722 43.5244 58.1137C43.23 58.1552 42.9303 58.1385 42.6425 58.0647C42.3548 57.9908 42.0847 57.8612 41.8482 57.6835L37.6229 54.5604V61.9933H35.3634V54.5671L31.1472 57.6901C30.6678 58.0451 30.0651 58.1976 29.4719 58.1139C28.8787 58.0302 28.3435 57.7173 27.9839 57.244L35.3589 51.7786V33.6425L19.4701 24.5788L10.9834 28.1481C10.8631 27.8727 10.8016 27.5758 10.8027 27.2758C10.8018 26.8377 10.9317 26.409 11.176 26.0432C11.4203 25.6775 11.7683 25.3908 12.1765 25.2191L17.0209 23.1846Z" fill="#190A0A"/>
</svg>
