<svg width="72" height="66" viewBox="0 0 72 66" fill="none" xmlns="http://www.w3.org/2000/svg">
<path d="M63.9986 34.0712C62.7114 34.0712 61.4354 33.871 59.6196 35.9432C59.0485 36.5957 58.4796 37.2527 57.9242 37.885C52.6417 44.0185 47.7697 49.6187 37.0352 49.6187C26.3008 49.6187 21.3106 43.8272 16.0281 37.6937C14.6562 36.1052 13.233 34.474 11.7562 32.9552C13.2374 31.4297 14.6562 29.8255 16.0215 28.2302C16.0215 28.2302 16.0214 28.2302 16.037 28.2302C21.3195 22.0967 26.3097 16.3052 37.0442 16.3052C42.4159 16.3052 46.3398 17.752 49.5967 19.9615C52.8871 22.2115 55.4078 25.1545 58.0513 28.2302C58.0513 28.2302 58.0513 28.2302 58.0692 28.2302C59.7757 30.226 60.6925 31.8797 64.032 31.8797C64.0209 31.8797 64.0186 31.8797 64.0141 31.8662C64.0097 31.8527 63.954 31.81 63.8982 31.7492C63.8425 31.6885 57.2527 24.3085 55.3699 22.351C53.1722 20.0385 50.595 18.1264 47.7519 16.699C44.8206 15.2927 41.3518 14.4287 37.0442 14.4287C32.248 14.4287 28.1077 15.4817 24.3645 17.7722C18.0247 21.6175 14.2569 28.0817 8.9856 32.9485C14.2547 37.8175 18.0291 44.2795 24.3645 48.127C30.2604 52.1027 41.2938 52.5775 47.8434 49.1552C54.9082 45.742 58.725 39.2935 64.0075 34.0802L64.032 34.0577" fill="#190A0A"/>
<path d="M36.5001 45.562C34.0368 45.562 31.6289 44.8252 29.5807 43.4449C27.5326 42.0646 25.9364 40.1028 24.9937 37.8074C24.0511 35.512 23.8044 32.9863 24.285 30.5496C24.7655 28.1128 25.9517 25.8745 27.6935 24.1177C29.4353 22.3609 31.6545 21.1646 34.0704 20.6799C36.4863 20.1952 38.9904 20.4439 41.2661 21.3947C43.5419 22.3455 45.487 23.9555 46.8555 26.0213C48.224 28.0871 48.9545 30.5158 48.9545 33.0002C48.9509 36.3307 47.6377 39.5238 45.3028 41.8788C42.9679 44.2338 39.8021 45.5584 36.5001 45.562ZM36.5001 22.6885C34.478 22.6885 32.5014 23.2933 30.8201 24.4263C29.1388 25.5594 27.8285 27.1699 27.0547 29.0541C26.2809 30.9383 26.0784 33.0117 26.4729 35.012C26.8674 37.0122 27.8411 38.8496 29.2709 40.2917C30.7007 41.7339 32.5224 42.716 34.5055 43.1138C36.4887 43.5117 38.5444 43.3075 40.4125 42.527C42.2806 41.7466 43.8773 40.4249 45.0007 38.7291C46.1241 37.0334 46.7237 35.0397 46.7237 33.0002C46.7207 30.2663 45.6426 27.6452 43.726 25.712C41.8093 23.7788 39.2106 22.6915 36.5001 22.6885Z" fill="#190A0A"/>
<path d="M36.5 40.5103C35.0273 40.5103 33.5876 40.0698 32.3631 39.2445C31.1386 38.4192 30.1842 37.2463 29.6206 35.8739C29.057 34.5015 28.9095 32.9914 29.1968 31.5345C29.4841 30.0776 30.1934 28.7394 31.2347 27.689C32.2761 26.6387 33.6029 25.9234 35.0473 25.6336C36.4918 25.3438 37.989 25.4925 39.3496 26.061C40.7102 26.6294 41.8732 27.5921 42.6914 28.8272C43.5096 30.0622 43.9463 31.5143 43.9463 32.9998C43.9445 34.9911 43.1595 36.9004 41.7635 38.3085C40.3674 39.7166 38.4744 40.5085 36.5 40.5103ZM36.5 27.7415C35.4684 27.7415 34.46 28.0501 33.6022 28.6282C32.7445 29.2064 32.076 30.0281 31.6813 30.9894C31.2866 31.9508 31.1834 33.0086 31.3848 34.0291C31.5863 35.0496 32.0833 35.9869 32.8129 36.7225C33.5426 37.4581 34.472 37.959 35.4839 38.1617C36.4957 38.3644 37.5445 38.2599 38.4975 37.8614C39.4505 37.4629 40.2649 36.7883 40.8377 35.923C41.4105 35.0576 41.716 34.0403 41.7155 32.9998C41.7138 31.6053 41.1637 30.2686 40.1859 29.2828C39.2081 28.297 37.8825 27.7427 36.5 27.7415Z" fill="#190A0A"/>
<path d="M16.4231 6H7.5V17.25H9.73077V8.25H16.4231C17.0147 8.25 17.5822 8.01295 18.0005 7.59099C18.4189 7.16903 18.6538 6.59674 18.6538 6H16.4231Z" fill="#190A0A"/>
<path d="M65.5 15V6H54.3462V8.25H63.2693V15C63.2693 15.5967 63.5044 16.169 63.9227 16.591C64.3411 17.0129 64.9084 17.25 65.5 17.25V15Z" fill="#190A0A"/>
<path d="M56.577 60H65.5V48.75H63.2693V57.75H56.577C55.9853 57.75 55.418 57.9871 54.9996 58.409C54.5813 58.831 54.3462 59.4033 54.3462 60H56.577Z" fill="#190A0A"/>
<path d="M7.5 51V60H18.6538V57.75H9.73077V51C9.73077 50.4033 9.49579 49.831 9.07744 49.409C8.65909 48.9871 8.09164 48.75 7.5 48.75V51Z" fill="#190A0A"/>
</svg>
