<svg width="92" height="208" viewBox="0 0 92 208" fill="none" xmlns="http://www.w3.org/2000/svg">
<path d="M92 198L92 46C89.8 46 88 44.2 88 42C88 39.8 89.8 38 92 38V10C86.5 10 82 5.5 82 0L10 0C10 5.5 5.5 10 0 10V38C2.2 38 4 39.8 4 42C4 44.2 2.2 46 0 46L0 198C5.5 198 10 202.5 10 208H82C82 202.5 86.5 198 92 198ZM8 42C8 40.9 8.9 40 10 40C11.1 40 12 40.9 12 42C12 43.1 11.1 44 10 44C8.9 44 8 43.1 8 42ZM15 42C15 40.9 15.9 40 17 40C18.1 40 19 40.9 19 42C19 43.1 18.1 44 17 44C15.9 44 15 43.1 15 42ZM22 42C22 40.9 22.9 40 24 40C25.1 40 26 40.9 26 42C26 43.1 25.1 44 24 44C22.9 44 22 43.1 22 42ZM29 42C29 40.9 29.9 40 31 40C32.1 40 33 40.9 33 42C33 43.1 32.1 44 31 44C29.9 44 29 43.1 29 42ZM36 42C36 40.9 36.9 40 38 40C39.1 40 40 40.9 40 42C40 43.1 39.1 44 38 44C36.9 44 36 43.1 36 42ZM43 42C43 40.9 43.9 40 45 40C46.1 40 47 40.9 47 42C47 43.1 46.1 44 45 44C43.9 44 43 43.1 43 42ZM50 42C50 40.9 50.9 40 52 40C53.1 40 54 40.9 54 42C54 43.1 53.1 44 52 44C50.9 44 50 43.1 50 42ZM57 42C57 40.9 57.9 40 59 40C60.1 40 61 40.9 61 42C61 43.1 60.1 44 59 44C57.9 44 57 43.1 57 42ZM64 42C64 40.9 64.9 40 66 40C67.1 40 68 40.9 68 42C68 43.1 67.1 44 66 44C64.9 44 64 43.1 64 42ZM71 42C71 40.9 71.9 40 73 40C74.1 40 75 40.9 75 42C75 43.1 74.1 44 73 44C71.9 44 71 43.1 71 42ZM78 42C78 40.9 78.9 40 80 40C81.1 40 82 40.9 82 42C82 43.1 81.1 44 80 44C78.9 44 78 43.1 78 42Z" fill="url(#paint0_linear_498_111)"/>
<path d="M45.4 26.6V18.1H42.1V26.6H45.4Z" fill="white"/>
<path d="M39.2 26.6V14H35.9V26.6H39.2Z" fill="white"/>
<path d="M45.4 16.4V14H42.1V16.4H45.4Z" fill="white"/>
<path d="M61.4 14.8H57.5L51.6 19.3V14H48.3V26.6H51.6V21L58.1 26.6H61.7V26.5L54.5 20.1L61.4 14.8Z" fill="white"/>
<path d="M28.3 15.5H29.5V21.9C29.5 24 27.8 25.2 26 25.2C24.2 25.2 22.5 24 22.5 21.9V14H16.8L17.9 15.5H19.1V21.8C19.1 25.5 22.7 26.9 26 26.9C29.3 26.9 32.9 25.4 32.9 21.8V14H27.2L28.3 15.5Z" fill="white"/>
<path d="M73.2 16.2001C72 15.0001 70.1 14.3001 68.2 14.4001C66 14.4001 64.1 15.1001 62.7 16.4001C61.5 17.5001 60.9 19.1001 60.9 20.7001C60.9 22.3001 61.7 24.3001 63.2 25.4001C64.7 26.5001 66 26.9001 68.2 26.9001C68.8 26.9001 69.4 26.9001 69.9 26.8001C72.5 26.4001 74.2 24.9001 74.8 23.3001H72C71.6 24.1001 70.3 25.0001 68.2 25.0001C66.1 25.0001 64.4 23.2001 64.3 21.3001H75.1C75.2 19.1001 74.5 17.3001 73.2 16.1001V16.2001ZM64.4 19.6001V19.5001C64.7 17.9001 65.9 16.2001 68.2 16.2001C70.5 16.2001 71.7 18.1001 71.9 19.5001V19.6001H64.4Z" fill="white"/>
<path d="M41.955 79.16C42.465 76.28 43.695 73.94 45.645 72.14C47.595 70.37 50.04 69.395 52.98 69.215V75.155C51.27 75.305 49.83 76.025 48.66 77.315C47.52 78.635 46.95 80.21 46.95 82.04C46.95 83.78 47.325 85.19 48.075 86.27C48.855 87.35 49.86 87.89 51.09 87.89C53.1 87.89 54.465 86.585 55.185 83.975L56.67 78.665C57.39 76.115 58.455 74.105 59.865 72.635C61.275 71.195 63.3 70.475 65.94 70.475C68.16 70.475 70.065 71.27 71.655 72.86C73.245 74.45 74.25 76.55 74.67 79.16H78.81V84.2H74.67C74.25 86.96 73.2 89.18 71.52 90.86C69.87 92.57 67.755 93.515 65.175 93.695V87.755C66.435 87.545 67.47 86.9 68.28 85.82C69.12 84.77 69.54 83.405 69.54 81.725C69.54 80.135 69.225 78.89 68.595 77.99C67.965 77.09 67.095 76.64 65.985 76.64C65.055 76.64 64.305 76.94 63.735 77.54C63.195 78.17 62.76 79.085 62.43 80.285L60.945 85.595C60.195 88.265 59.1 90.335 57.66 91.805C56.22 93.275 54.075 94.01 51.225 94.01C48.645 94.01 46.515 93.125 44.835 91.355C43.155 89.615 42.15 87.23 41.82 84.2H37.32V79.16H41.955ZM46.995 97.0408L56.76 108.651C58.26 110.421 59.625 111.711 60.855 112.521C62.115 113.331 63.375 113.736 64.635 113.736C66.105 113.736 67.29 113.256 68.19 112.296C69.09 111.366 69.54 110.121 69.54 108.561C69.54 106.731 68.88 105.321 67.56 104.331C66.27 103.341 64.545 102.936 62.385 103.116V97.3108C62.655 97.2808 63.06 97.2658 63.6 97.2658C65.79 97.2658 67.725 97.7458 69.405 98.7058C71.115 99.6958 72.435 101.046 73.365 102.756C74.325 104.496 74.805 106.431 74.805 108.561C74.805 110.811 74.37 112.791 73.5 114.501C72.66 116.211 71.46 117.531 69.9 118.461C68.37 119.421 66.615 119.901 64.635 119.901C62.595 119.901 60.615 119.286 58.695 118.056C56.805 116.826 54.81 114.891 52.71 112.251L47.31 105.636L47.31 119.856H42L42 97.0408H46.995ZM41.64 136.549C41.64 133.849 42.315 131.524 43.665 129.574C45.045 127.624 46.98 126.124 49.47 125.074C51.99 124.054 54.915 123.544 58.245 123.544C61.545 123.544 64.44 124.054 66.93 125.074C69.45 126.124 71.385 127.624 72.735 129.574C74.115 131.524 74.805 133.849 74.805 136.549C74.805 139.249 74.115 141.589 72.735 143.569C71.385 145.549 69.465 147.049 66.975 148.069C64.485 149.119 61.575 149.644 58.245 149.644C54.915 149.644 51.99 149.119 49.47 148.069C46.98 147.049 45.045 145.549 43.665 143.569C42.315 141.589 41.64 139.249 41.64 136.549ZM46.95 136.549C46.95 138.799 47.94 140.509 49.92 141.679C51.93 142.879 54.705 143.479 58.245 143.479C61.755 143.479 64.515 142.879 66.525 141.679C68.535 140.509 69.54 138.799 69.54 136.549C69.54 134.329 68.535 132.619 66.525 131.419C64.545 130.249 61.785 129.664 58.245 129.664C54.705 129.664 51.93 130.249 49.92 131.419C47.94 132.619 46.95 134.329 46.95 136.549ZM41.64 166.124C41.64 163.424 42.315 161.099 43.665 159.149C45.045 157.199 46.98 155.699 49.47 154.649C51.99 153.629 54.915 153.119 58.245 153.119C61.545 153.119 64.44 153.629 66.93 154.649C69.45 155.699 71.385 157.199 72.735 159.149C74.115 161.099 74.805 163.424 74.805 166.124C74.805 168.824 74.115 171.164 72.735 173.144C71.385 175.124 69.465 176.624 66.975 177.644C64.485 178.694 61.575 179.219 58.245 179.219C54.915 179.219 51.99 178.694 49.47 177.644C46.98 176.624 45.045 175.124 43.665 173.144C42.315 171.164 41.64 168.824 41.64 166.124ZM46.95 166.124C46.95 168.374 47.94 170.084 49.92 171.254C51.93 172.454 54.705 173.054 58.245 173.054C61.755 173.054 64.515 172.454 66.525 171.254C68.535 170.084 69.54 168.374 69.54 166.124C69.54 163.904 68.535 162.194 66.525 160.994C64.545 159.824 61.785 159.239 58.245 159.239C54.705 159.239 51.93 159.824 49.92 160.994C47.94 162.194 46.95 163.904 46.95 166.124Z" fill="white"/>
<path d="M14.2 110.9C14.2 109.167 14.5917 107.6 15.375 106.2C16.175 104.817 17.275 103.733 18.675 102.95C20.0917 102.167 21.675 101.775 23.425 101.775C25.175 101.775 26.75 102.167 28.15 102.95C29.55 103.733 30.6417 104.817 31.425 106.2C32.225 107.6 32.625 109.167 32.625 110.9C32.625 112.617 32.225 114.167 31.425 115.55C30.6417 116.933 29.55 118.017 28.15 118.8C26.75 119.583 25.175 119.975 23.425 119.975C21.675 119.975 20.0917 119.583 18.675 118.8C17.275 118.017 16.175 116.933 15.375 115.55C14.5917 114.167 14.2 112.617 14.2 110.9ZM17.15 110.9C17.15 111.983 17.4167 112.95 17.95 113.8C18.5 114.667 19.25 115.342 20.2 115.825C21.15 116.308 22.225 116.55 23.425 116.55C24.6084 116.55 25.675 116.308 26.625 115.825C27.5917 115.342 28.3417 114.667 28.875 113.8C29.425 112.95 29.7 111.983 29.7 110.9C29.7 109.817 29.425 108.842 28.875 107.975C28.3417 107.108 27.5917 106.425 26.625 105.925C25.675 105.442 24.6084 105.2 23.425 105.2C22.225 105.2 21.15 105.442 20.2 105.925C19.25 106.408 18.5 107.083 17.95 107.95C17.4167 108.817 17.15 109.8 17.15 110.9ZM32.425 122.376V134.476H29.5V125.726H25.2L25.2 132.801H22.25L22.25 125.726H14.4V122.376H32.425ZM32.425 136.487L32.425 148.587H29.5V139.837H25.2V146.912H22.25V139.837H14.4V136.487H32.425Z" fill="white"/>
<defs>
<linearGradient id="paint0_linear_498_111" x1="0" y1="104" x2="92" y2="104" gradientUnits="userSpaceOnUse">
<stop stop-color="#FF7595"/>
<stop offset="1" stop-color="#E0004D"/>
</linearGradient>
</defs>
</svg>
