<svg width="208" height="92" viewBox="0 0 208 92" fill="none" xmlns="http://www.w3.org/2000/svg">
<path d="M198 0H46C46 2.2 44.2 4 42 4C39.8 4 38 2.2 38 0H10C10 5.5 5.5 10 0 10V82C5.5 82 10 86.5 10 92H38C38 89.8 39.8 88 42 88C44.2 88 46 89.8 46 92H198C198 86.5 202.5 82 208 82V10C202.5 10 198 5.5 198 0ZM42 84C40.9 84 40 83.1 40 82C40 80.9 40.9 80 42 80C43.1 80 44 80.9 44 82C44 83.1 43.1 84 42 84ZM42 77C40.9 77 40 76.1 40 75C40 73.9 40.9 73 42 73C43.1 73 44 73.9 44 75C44 76.1 43.1 77 42 77ZM42 70C40.9 70 40 69.1 40 68C40 66.9 40.9 66 42 66C43.1 66 44 66.9 44 68C44 69.1 43.1 70 42 70ZM42 63C40.9 63 40 62.1 40 61C40 59.9 40.9 59 42 59C43.1 59 44 59.9 44 61C44 62.1 43.1 63 42 63ZM42 56C40.9 56 40 55.1 40 54C40 52.9 40.9 52 42 52C43.1 52 44 52.9 44 54C44 55.1 43.1 56 42 56ZM42 49C40.9 49 40 48.1 40 47C40 45.9 40.9 45 42 45C43.1 45 44 45.9 44 47C44 48.1 43.1 49 42 49ZM42 42C40.9 42 40 41.1 40 40C40 38.9 40.9 38 42 38C43.1 38 44 38.9 44 40C44 41.1 43.1 42 42 42ZM42 35C40.9 35 40 34.1 40 33C40 31.9 40.9 31 42 31C43.1 31 44 31.9 44 33C44 34.1 43.1 35 42 35ZM42 28C40.9 28 40 27.1 40 26C40 24.9 40.9 24 42 24C43.1 24 44 24.9 44 26C44 27.1 43.1 28 42 28ZM42 21C40.9 21 40 20.1 40 19C40 17.9 40.9 17 42 17C43.1 17 44 17.9 44 19C44 20.1 43.1 21 42 21ZM42 14C40.9 14 40 13.1 40 12C40 10.9 40.9 10 42 10C43.1 10 44 10.9 44 12C44 13.1 43.1 14 42 14Z" fill="url(#paint0_linear_477_1730)"/>
<path d="M26.6 46.6001H18.1V49.9001H26.6V46.6001Z" fill="white"/>
<path d="M26.6 52.8H14V56.1001H26.6V52.8Z" fill="white"/>
<path d="M16.4 46.6001H14V49.9001H16.4V46.6001Z" fill="white"/>
<path d="M14.8 30.6001V34.5001L19.3 40.4001H14V43.7001H26.6V40.4001H21L26.6 33.9001V30.3H26.5L20.1 37.5001L14.8 30.6001Z" fill="white"/>
<path d="M15.5 63.7001V62.5001H21.9C24 62.5001 25.2 64.2001 25.2 66.0001C25.2 67.8001 24 69.5001 21.9 69.5001H14V75.2001L15.5 74.1001V72.9001H21.8C25.5 72.9001 26.9 69.3001 26.9 66.0001C26.9 62.7001 25.4 59.1001 21.8 59.1001H14V64.8001L15.5 63.7001Z" fill="white"/>
<path d="M16.2 18.8C15 20 14.3 21.9 14.4 23.8C14.4 26 15.1 27.9 16.4 29.3C17.5 30.5 19.1 31.1001 20.7 31.1001C22.3 31.1001 24.3 30.3 25.4 28.8C26.5 27.3 26.9 26 26.9 23.8C26.9 23.2 26.9 22.6001 26.8 22.1001C26.4 19.5001 24.9 17.8001 23.3 17.2001V20.0001C24.1 20.4001 25 21.7 25 23.8C25 25.9 23.2 27.6001 21.3 27.7001V16.9C19.1 16.8 17.3 17.5 16.1 18.8H16.2ZM19.6 27.6001H19.5C17.9 27.3001 16.2 26.1 16.2 23.8C16.2 21.5 18.1 20.3001 19.5 20.1001H19.6V27.6001Z" fill="white"/>
<defs>
<linearGradient id="paint0_linear_477_1730" x1="104" y1="92" x2="104" y2="0" gradientUnits="userSpaceOnUse">
<stop stop-color="#FF7595"/>
<stop offset="1" stop-color="#E0004D"/>
</linearGradient>
</defs>
</svg>
