<svg width="26" height="27" viewBox="0 0 26 27" fill="none" xmlns="http://www.w3.org/2000/svg">
<path d="M4.3335 6.28456L13.314 3.6637L22.2859 6.28456V11.6593C22.2859 17.3086 18.6706 22.3239 13.311 24.1097C7.94995 22.324 4.3335 17.3075 4.3335 11.6568V6.28456Z" stroke="#040000" stroke-width="0.917728" stroke-linejoin="round"/>
<path d="M15.9333 9.27199C17.1694 10.5081 17.1694 12.5154 15.9333 13.7567C15.553 14.137 15.104 14.3959 14.6286 14.5438V19.3655H12.1396V14.5438C11.6589 14.3959 11.2099 14.1317 10.8348 13.7567C9.59347 12.5154 9.59347 10.5133 10.8348 9.27199C11.2151 8.89166 11.6641 8.63283 12.1396 8.48492V11.3268H14.6286V8.48492C15.1092 8.63283 15.5582 8.89695 15.9333 9.27199Z" stroke="#040000" stroke-width="0.917728" stroke-linecap="round" stroke-linejoin="round"/>
</svg>
