<?xml version="1.0" encoding="utf-8"?>
<!-- Generator: Adobe Illustrator 28.0.0, SVG Export Plug-In . SVG Version: 6.00 Build 0)  -->
<svg version="1.1" id="图层_1" xmlns="http://www.w3.org/2000/svg" xmlns:xlink="http://www.w3.org/1999/xlink" x="0px" y="0px"
	 viewBox="0 0 75 75" style="enable-background:new 0 0 75 75;" xml:space="preserve">
<style type="text/css">
	.st0{fill:#040000;}
</style>
<g>
	<path class="st0" d="M19.9,38.6c0.7,0.1,1.4,0.1,2.1,0.1c0.7,0.1,1.3-0.5,1.3-1.3c0-4,0-8.1,0-12.1c0-0.6,0.1-1.3,0.2-1.9
		c0.2-1.5,0.6-2.9,1.3-4.2c0.9-1.8,2.1-3.4,3.7-4.7c1.1-0.9,2.2-1.6,3.5-2.2c1.5-0.6,3-1,4.6-1.2c0.9-0.1,1.7,0,2.6,0
		c1,0,1.9,0.3,2.8,0.5c3.2,1,5.8,2.9,7.7,5.7c1.6,2.4,2.5,5,2.5,7.9c0,0.8,0,1.7,0,2.5c0,0.7,0.6,1.2,1.2,1.2c0.5,0,1,0,1.5,0
		c1,0.1,2,1,2,2c0.1,0.9,0,1.8,0.1,2.7c0,0.2,0,0.4-0.1,0.6c-0.3,1-0.9,1.6-1.9,1.8c-0.4,0.1-0.4,0.1-0.4-0.3c0-1.1,0-2.2,0-3.4
		c0-0.4-0.2-0.7-0.5-0.8c-0.9-0.5-1.8,0.1-1.8,1.1c0,2.1,0,4.1,0,6.2c0,0.8-0.1,1.6-0.3,2.3c-0.5,2.1-1.6,3.8-3.1,5.3
		c-1.3,1.2-2.7,2-4.3,2.5c-1,0.3-2,0.4-3,0.4c-0.1,0-0.2-0.1-0.3-0.2c-0.7-1.6-2.4-2.5-4.1-2.1c-1.8,0.4-3.1,2.1-2.8,3.9
		c0.2,1.3,0.9,2.3,2.1,2.8c0.5,0.3,1.1,0.4,1.7,0.2c0.6-0.1,0.9-0.7,0.9-1.3c-0.1-0.5-0.6-1-1.2-1c-0.7,0-1.1-0.4-1.2-1.1
		c-0.1-0.6,0.4-1.2,1.1-1.3c0.6-0.1,1.2,0.4,1.3,1c0,0.2,0,0.3,0.1,0.5c0.2,0.5,0.6,0.8,1.2,0.8c1,0,2.1-0.1,3.1-0.2
		c1.1-0.1,2.2-0.4,3.2-0.9c2.2-1,4.1-2.4,5.5-4.4c1.6-2.2,2.4-4.6,2.5-7.3c0-0.4,0-0.4,0.4-0.4c0.1,0,0.2,0,0.4-0.1
		c1.3-0.2,2.3-0.8,3.1-1.8c0.7-0.9,1-2,1-3.2c0-1,0-2-0.1-3c-0.2-1.4-1-2.5-2.3-3.2c-0.7-0.4-1.6-0.6-2.4-0.7
		c0.2-4.8-1.1-9-4.4-12.5c-3.2-3.5-7.3-5.4-12.1-5.4c-4.4-0.1-8.4,1.4-11.6,4.4c-3.9,3.6-5.6,8.2-5.4,13.5c-0.2,0-0.4,0.1-0.6,0.1
		c-1,0.1-1.9,0.5-2.6,1.1c-1,0.9-1.6,2-1.6,3.3c0,1.2-0.1,2.4,0.1,3.6C16.6,36.6,18.2,38.3,19.9,38.6z M18.6,31.2
		c0-0.9,0.9-1.8,1.7-2c0.2,0,0.4-0.1,0.7-0.1c0,0.1,0,0.2,0,0.4c0,2.2,0,4.3,0,6.5c0,0.4,0,0.4-0.4,0.3c-1.1-0.2-1.7-0.8-2-1.8
		c-0.1-0.2-0.1-0.4-0.1-0.6C18.6,33,18.6,32.1,18.6,31.2z"/>
	<path class="st0" d="M19.8,62.2c0-1.4,0-2.8,0-4.2c0-0.4-0.1-0.8-0.5-1c-0.4-0.3-0.8-0.3-1.2-0.2c-0.4,0.2-0.7,0.5-0.7,1
		c0,2.5,0,4.9,0,7.4c0,0.1,0,0.2,0,0.3c0.3,0.9,1.3,1.1,2,0.4c2.2-2.2,4.4-4.4,6.5-6.6c0.2-0.2,0.3-0.2,0.5-0.2c11.7,0,23.3,0,35,0
		c0.3,0,0.7,0,1-0.1c2.7-0.5,3.9-2.7,3.9-4.8c0-10.9,0.2-33.8,0.1-34.4c-0.4-2.2-2.2-3.8-4.5-3.9c-2.1-0.1-4.1,0-6.2,0
		c-0.8,0-1.4,0.8-1.1,1.6c0.2,0.4,0.5,0.8,1.2,0.7c1.9,0,3.8,0,5.6,0c0.3,0,0.5,0,0.8,0.1c1.2,0.3,1.9,1.2,1.9,2.5
		c0,11,0,22.1,0,33.1c0,0.2,0,0.5-0.1,0.7c-0.3,1.2-1.2,1.9-2.5,1.9c-9.5,0-19,0-28.5,0c-2.4,0-4.7,0-7.1,0c-0.4,0-0.8,0.1-1.1,0.4"
		/>
	<path class="st0" d="M13.9,56.7c-0.3-0.1-0.9-0.1-1.3-0.3c-0.9-0.5-1.2-1.3-1.2-2.3c0-9.7,0-19.4,0-29.1c0-1.5,0-3,0-4.5
		c0-0.9,0.8-1.9,1.7-2c0.6-0.1,1.2-0.1,1.8-0.1c1.7,0,3.3,0,5,0c0.3,0,0.6-0.2,0.8-0.4c0.3-0.4,0.3-0.8,0.1-1.3
		c-0.2-0.4-0.6-0.7-1.1-0.7c-1.9,0-3.9,0-5.8,0c-0.3,0-0.6,0-0.8,0.1c-1.3,0.2-2.3,0.8-3.1,1.9c-0.6,0.7-1,1.6-1,2.6
		c0,5.6,0,11.2,0,16.9s0,11.4,0,17.1c0,0.2,0,0.4,0.1,0.6c0.3,1.3,1,2.3,2.1,3.1c0.7,0.5,1.5,0.7,2.3,0.8c0.5,0,1-0.2,1.2-0.5
		s0.3-0.7,0.1-1.1C14.6,57,14.3,56.8,13.9,56.7z"/>
	<path class="st0" d="M38,36.7c2.9,0,6-1.3,6-4.4v-6.8h-5l0.9,1.3h1v5.6c0,1.8-1.5,2.9-3,2.9c-1.6,0-3-1.1-3-2.9v-6.9h-5l0.9,1.3
		c0,0,0.7,0,1,0v5.5C32,35.4,35.1,36.7,38,36.7z"/>
</g>
<g>
	<path class="st0" d="M13.7,56.7c-0.3-0.1-0.9-0.1-1.3-0.3c-0.9-0.5-1.2-1.3-1.2-2.3c0-9.7,0-19.4,0-29.1c0-1.5,0-3,0-4.5
		c0-0.9,0.8-1.9,1.7-2c0.6-0.1,1.2-0.1,1.8-0.1c1.7,0,3.3,0,5,0c0.3,0,0.6-0.2,0.8-0.4c0.3-0.4,0.3-0.8,0.1-1.3
		C20.4,16.3,20,16,19.5,16c-1.9,0-3.9,0-5.8,0c-0.3,0-0.6,0-0.8,0.1c-1.3,0.2-2.3,0.8-3.1,1.9c-0.6,0.7-1,1.6-1,2.6
		c0,5.6,0,11.2,0,16.9s0,11.4,0,17.1c0,0.2,0,0.4,0.1,0.6c0.3,1.3,1,2.3,2.1,3.1c0.7,0.5,1.5,0.7,2.3,0.8c0.5,0,1-0.2,1.2-0.5
		c0.2-0.3,0.3-0.7,0.1-1.1C14.4,57,14.1,56.8,13.7,56.7z"/>
</g>
<path class="st0" d="M17.6,54.1"/>
</svg>
