<?xml version="1.0" encoding="utf-8"?>
<!-- Generator: Adobe Illustrator 28.0.0, SVG Export Plug-In . SVG Version: 6.00 Build 0)  -->
<svg version="1.1" id="图层_1" xmlns="http://www.w3.org/2000/svg" xmlns:xlink="http://www.w3.org/1999/xlink" x="0px" y="0px"
	 viewBox="0 0 75 75" style="enable-background:new 0 0 75 75;" xml:space="preserve">
<style type="text/css">
	.st0{fill:#060001;}
</style>
<g>
	<path class="st0" d="M64.9,31c0-1.8-0.9-3.2-1.3-3.6l0,0c-0.5-0.8-1.1-1.6-1.9-2.2c-0.7-0.6-1.5-0.4-1.8,0.4c-0.2,0.5,0,1,0.6,1.4
		c0.4,0.3,0.7,0.7,1.1,1.1c-0.8,0.7-1.6,1.4-2.4,2.1c0-0.2,0-0.4,0-0.5c0-2.9,0-5.8,0-8.7c0-0.4-0.1-0.9-0.2-1.3
		c-0.6-2.5-2.8-4.2-5.5-4.2c-10.2,0-20.5,0-30.7,0c-0.3,0-0.7,0-1,0.1c-2.7,0.5-4.6,2.7-4.7,5.5c0,0.9,0,1.9,0,2.8
		c0,1.6,0,3.2,0,4.8c0,0.9,1,1.5,1.7,1c0.4-0.2,0.5-0.6,0.5-1c0-2.5,0-5.1,0-7.6c0-0.2,0-0.5,0.1-0.7c0.3-1.4,1.7-2.6,3.1-2.6
		c10.4,0,20.7,0,31.1,0c0.3,0,0.5,0,0.8,0.1c1.4,0.2,2.6,1.7,2.6,3.1c0,2.9,0,5.8,0,8.7c0,0.9,0.3,1.3,1.3,1.4
		c-6.7,5.8-13.4,11.6-20.1,17.3C30.4,41.7,22.7,35,14.9,28.2c0.5-0.5,0.9-0.9,1.3-1.3c0.5-0.5,0.6-1.2,0.2-1.6
		c-0.4-0.5-1.2-0.5-1.6,0c-0.5,0.6-1.1,1.1-1.6,1.7c-0.9,1.2-1.5,2.5-1.5,4c0,9.6,0,19.2,0,28.8c0,0.4,0.1,0.9,0.2,1.3
		c0.6,2.5,2.9,4.2,5.5,4.2c13.9,0,27.8,0,41.7,0c0.5,0,0.9-0.1,1.4-0.1c2.5-0.5,4.4-2.7,4.4-5.3C64.9,50.3,64.9,40.6,64.9,31
		C64.9,31,64.9,31,64.9,31z M62.5,30.2c0,10.1,0,19.9-0.1,29.6c0,0.5-0.2,1-0.3,1.5c-0.6-0.5-1.1-0.8-1.6-1.2
		c-2-1.5-3.9-2.9-5.9-4.4s-3.9-2.9-5.9-4.4c-1.1-0.8-2.2-1.7-3.3-2.5c-0.7-0.5-1.6-0.1-1.8,0.7c-0.1,0.4,0.1,0.8,0.4,1
		c3.1,2.3,6.3,4.7,9.4,7c2.2,1.7,4.5,3.4,6.7,5c0.1,0,0.1,0.1,0.3,0.2c-0.4,0.1-0.7,0.2-1,0.2c-0.1,0-0.2,0-0.2,0
		c-14.1,0-28.1,0-42.2,0c-0.1,0-0.3,0-0.5,0c0.5-0.4,0.9-0.8,1.3-1.1c1.1-0.9,2.2-1.7,3.2-2.6c1.3-1,2.6-2.1,3.9-3.1
		c1.1-0.8,2.1-1.7,3.2-2.5c1.3-1,2.6-2.1,3.9-3.1c0.4-0.3,0.6-0.6,0.5-1.1s-0.5-0.9-1-0.9s-0.8,0.3-1.2,0.6
		c-1.5,1.2-3.1,2.4-4.6,3.7c-1.3,1-2.6,2.1-3.9,3.1s-2.6,2-3.9,3.1c-1.1,0.8-2.1,1.7-3.2,2.5c-0.1,0.1-0.2,0.2-0.3,0.2
		c-0.5-0.6-0.7-1.2-0.7-2c0-9.7,0-19.4,0-29.1c0-0.2,0-0.3,0.1-0.6c1,0.8,1.9,1.6,2.8,2.4c0.9,0.8,1.9,1.6,2.8,2.4
		c0.7,0.6,1.5,1.3,2.2,1.9c1,0.8,1.9,1.7,2.9,2.5c0.7,0.6,1.5,1.3,2.2,1.9c0.9,0.8,1.9,1.6,2.8,2.4c0.7,0.6,1.5,1.3,2.2,1.9
		c0.9,0.8,1.9,1.6,2.8,2.4c0.7,0.6,1.5,1.3,2.2,1.9c0.3,0.2,0.5,0.4,0.8,0.6c0.4,0.3,0.9,0.2,1.2-0.1c0.7-0.6,1.4-1.2,2.1-1.8
		c1-0.8,1.9-1.6,2.9-2.5c0.8-0.7,1.5-1.3,2.3-2c0.9-0.8,1.9-1.6,2.8-2.4c0.7-0.6,1.5-1.3,2.2-1.9c1-0.8,1.9-1.6,2.9-2.5
		c0.7-0.6,1.5-1.3,2.2-1.9c1-0.8,1.9-1.7,2.9-2.5c0.8-0.7,1.5-1.3,2.3-2c0.4-0.3,0.7-0.6,1.2-1C62.5,29.9,62.5,30,62.5,30.2z"/>
	<path class="st0" d="M32.4,14.7c0.5-0.4,1-0.8,1.5-1.2c1.3-1,2.6-2.1,3.9-3.1c0.2-0.1,0.3-0.2,0.5,0c0.6,0.5,1.3,1,1.9,1.6
		c1.2,1,2.5,2,3.7,3c0.4,0.3,0.8,0.3,1.2,0.1c0.4-0.2,0.6-0.5,0.6-1c0-0.3-0.1-0.6-0.4-0.8c-0.8-0.6-1.5-1.3-2.3-1.9
		c-1.4-1.1-2.8-2.3-4.2-3.4c-0.4-0.3-1-0.3-1.4,0c-0.4,0.3-0.7,0.6-1.1,0.9c-1.2,0.9-2.4,1.9-3.6,2.8c-0.6,0.5-1.2,1-1.8,1.4
		c-0.4,0.3-0.6,0.9-0.4,1.3S31.7,15.2,32.4,14.7z"/>
	<path class="st0" d="M30.2,25.1l1,1.4c0,0,0.7,0,1.1,0V32c0,3.2,3.1,4.5,6,4.5c2.9,0,6-1.3,6-4.5v-6.8h-5l1,1.4h1V32
		c0,1.8-1.5,2.9-3.1,2.9c-1.6,0-3-1.1-3.1-2.9v-6.9H30.2z"/>
</g>
</svg>
