<?xml version="1.0" encoding="utf-8"?>
<!-- Generator: Adobe Illustrator 28.0.0, SVG Export Plug-In . SVG Version: 6.00 Build 0)  -->
<svg version="1.1" id="图层_1" xmlns="http://www.w3.org/2000/svg" xmlns:xlink="http://www.w3.org/1999/xlink" x="0px" y="0px"
	 viewBox="0 0 75 75" style="enable-background:new 0 0 75 75;" xml:space="preserve">
<style type="text/css">
	.st0{fill:#060001;stroke:#040000;stroke-width:0.4;stroke-miterlimit:10;}
	.st1{fill:#060001;}
</style>
<g>
	<g>
		<path class="st0" d="M66.7,21c0-0.2,0-0.5-0.1-0.7c-0.4-1.4-1.5-2.2-2.9-2.2c-11.5,0-23.1,0-34.6,0c-0.2,0-0.5,0-0.7,0.1
			c-1.4,0.2-2.5,1.4-2.5,2.9c0,7.1,0,14.1,0,21.2c0,0.2,0,0.5,0.1,0.7c0.4,1.4,1.5,2.3,3,2.3c6.9,0,13.7,0,20.6,0
			c0.2,0,0.4,0.1,0.5,0.2c1.2,1.3,2.5,2.5,3.8,3.8c1.2,1.2,2.3,2.3,3.5,3.5c0.3,0.3,0.6,0.4,0.9,0.3c0.5-0.2,0.8-0.5,0.8-1
			c0-2.1,0-4.2,0-6.4c0-0.1,0-0.2,0-0.4c0.1,0,0.2,0,0.4,0c1.4,0,2.8,0,4.2,0c0.2,0,0.5,0,0.7-0.1c1.4-0.1,2.5-1.4,2.5-2.9
			C66.7,35.2,66.7,28.1,66.7,21z M64.8,42.3c0,0.6-0.4,1-1,1c-1.9,0-3.7,0-5.6,0c-0.7,0-1.1,0.4-1.1,1.1c0,1.6,0,3.3,0,4.9
			c0,0.1,0,0.2,0,0.4c-0.6-0.6-1.1-1.1-1.6-1.6c-1.5-1.5-3-2.9-4.4-4.4c-0.3-0.3-0.6-0.4-0.9-0.4c-7,0-14.1,0-21.1,0
			c-0.6,0-1.1-0.5-1.1-1.1c0-7.1,0-14.1,0-21.2c0-0.6,0.5-1.1,1.1-1.1c11.6,0,23.2,0,34.8,0c0.7,0,1,0.4,1,1
			C64.8,28.1,64.8,35.2,64.8,42.3z"/>
		<path class="st0" d="M27.6,62.1c-0.1-0.9-0.2-1.8-0.3-2.8c-0.1-1.1-0.3-2.2-0.3-3.3c0-0.6-0.5-1.1-1.2-1.1c-2.9,0-5.8,0-8.7,0
			c-0.6,0-1.1-0.5-1.1-1.1c0-3.2,0-6.3,0-9.5c0-0.7-0.4-1.1-1.1-1.1c-1.5,0-3,0-4.5,0c-0.1,0-0.2,0-0.3,0c0-0.1,0-0.1,0.1-0.2
			c0.7-1.5,1.3-3,2-4.4c1-2.2,2-4.4,3-6.6c0.2-0.4,0.3-0.9,0.3-1.4c0-0.5-0.1-1.1-0.1-1.6c0-0.8,0-1.7,0-2.5c0-0.7,0.1-1.4,0.3-2
			c0.4-1.8,1-3.5,2-5.1c1.2-1.9,2.6-3.6,4.4-5c1.4-1.1,3-2,4.7-2.7c2.2-0.9,4.6-1.4,7-1.6c1.7-0.1,3.5,0,5.2,0.4
			c1.9,0.4,3.6,1.1,5.2,2.1c1.4,0.8,2.6,1.8,3.8,3c0.4,0.4,1,0.4,1.3,0c0.4-0.4,0.5-1-0.1-1.4c-0.8-0.7-1.6-1.4-2.4-2.1
			c-3.4-2.6-7.3-3.7-11.6-3.9c-0.5,0-1,0-1.5,0.1c-1,0.1-2,0.2-3,0.3c-1.5,0.3-3,0.7-4.4,1.3c-2.2,0.9-4.2,2.1-6,3.6
			c-1,0.9-1.9,1.8-2.7,2.9c-1.1,1.3-1.9,2.8-2.6,4.4c-0.9,2.2-1.4,4.5-1.4,6.8c0,0.8,0.1,1.6,0.1,2.4c0,0.5,0.1,1-0.2,1.5
			c-0.3,0.6-0.6,1.3-0.9,1.9c-0.9,2-1.8,4-2.7,6c-0.4,1-0.9,1.9-1.3,2.9c-0.4,0.9-0.2,1.7,0.4,2.3c0.4,0.4,1,0.5,1.6,0.5
			c1.1,0,2.2,0,3.3,0c0.1,0,0.2,0,0.3,0c0,0.2,0,0.3,0,0.4c0,2.7,0,5.5,0,8.2c0,0.5,0.1,1,0.4,1.5c0.6,1,1.5,1.5,2.6,1.5
			c2.5,0,5.1,0,7.6,0c0.1,0,0.2,0,0.4,0c0,0.3,0,0.6,0.1,0.8c0.1,0.7,0.2,1.4,0.2,2.1c0.1,0.7,0.1,1.4,0.2,2.1c0.1,1,0.2,2,0.3,2.9
			c0,0.3,0.1,0.7,0.1,1c0.1,0.5,0.7,0.8,1.2,0.7c0.5-0.2,0.8-0.6,0.7-1.2C27.9,64.3,27.7,63.2,27.6,62.1z"/>
		<path class="st0" d="M49.3,60.2c-0.2-1.2-0.4-2.4-0.5-3.6c-0.1-1-0.2-2-0.3-3c0-0.4,0-0.9-0.1-1.3c-0.1-1.2,0-2.4,0.2-3.7
			c0.1-0.3,0-0.6-0.1-0.8c-0.1-0.3-0.6-0.6-0.9-0.5c-0.4,0.1-0.7,0.4-0.9,0.8c-0.3,1.1-0.3,2.2-0.2,3.4c0,0.8,0,1.6,0,2.4
			c0.1,0.9,0.2,1.9,0.3,2.8c0.1,0.8,0.2,1.7,0.3,2.5c0.2,1,0.3,2.1,0.5,3.1c0.2,1.2,0.5,2.4,0.7,3.7c0.1,0.5,0.6,0.9,1.1,0.7
			c0.6-0.2,0.9-0.6,0.8-1.2C50,63.7,49.6,62,49.3,60.2z"/>
	</g>
	<path class="st1" d="M38.6,26.2l1,1.4c0,0,0.7,0,1.1,0V33c0,3.2,3.1,4.5,6,4.5c2.9,0,6-1.3,6-4.5v-6.8h-5l1,1.4h1v5.6
		c0,1.8-1.5,2.9-3.1,2.9s-3-1.1-3.1-2.9v-6.9H38.6z"/>
</g>
</svg>
