<?xml version="1.0" encoding="utf-8"?>
<!-- Generator: Adobe Illustrator 28.1.0, SVG Export Plug-In . SVG Version: 6.00 Build 0)  -->
<svg version="1.1" id="图层_1" xmlns="http://www.w3.org/2000/svg" xmlns:xlink="http://www.w3.org/1999/xlink" x="0px" y="0px"
	 viewBox="0 0 368 356" style="enable-background:new 0 0 368 356;" xml:space="preserve">
<style type="text/css">
	.st0{fill:#FFFFFF;}
</style>
<g>
	<path class="st0" d="M91.8,172.6c1,5,2.8,12.7,6.2,21.6c3.1,8.5,7.2,16.5,11.9,24.2c6.2,10.1,13.5,19.2,22,27.4
		c7.8,7.6,16.4,13.9,25.6,19.7c8.6,5.3,17.1,10.8,25.7,16.2c0.5,0.3,0.9,0.7,1.6,0.2c11.2-7.3,22.7-14.1,33.7-21.6
		c20.8-14.2,36.3-33,47.2-55.7c4.9-10.2,8.3-20.9,10.6-32c2-9.7,2.8-19.5,2.8-29.4c0-10,0-20,0-30c0-1-0.3-1.4-1.2-1.7
		c-7.8-2.6-15-6.4-21.5-11.4c-2.9-2.3-5.8-4.7-8.3-7.4c-5.2-5.6-8.3-11.4-14.6-23c-0.3-0.5-0.5-0.9-0.6-1.1c-4.6,0-8.3,0-10.4,0
		c-39.2-0.1-58.8,0-60.2,0c-1.6,0-3.8,0-5.3,0c-1.6-0.1-4.4-0.4-7.1-2.3c-1-0.7-2.3-1.6-3.2-3.4c-0.7-1.3-0.9-2.8-0.8-4.5
		c53.1,0,89,0,90.4-0.1c0.1,0,0.7-0.1,1.4,0.1c2.4,0.6,3.6,2.3,4.4,4.5c2.4,7.5,6.3,14.2,11.4,20.3c7.9,9.2,17.5,15.7,29.1,19.4
		c1,0.3,2,0.6,3,1c1.3,0.4,2.2,1.1,2.9,2.1c0.8,1.1,0.9,2.4,0.9,3.1c0.1,2.8-0.3,23-1,50.7c-1.1,12.4-3.5,22.4-5.6,29.6
		c-0.6,2-2.1,6.6-4.4,12.4c-3.3,8.1-7.3,16-12,23.5c-4.6,7.3-9.8,14.2-15.5,20.7c-6.6,7.4-13,12.8-19.3,18c0,0-12.2,10-44.6,29.3
		c-0.5,0.3-1.6,1-3.1,0.9c-0.9,0-1.7-0.3-2.6-0.8c-5.6-3.5-11.1-7.1-16.7-10.7c-6.2-3.9-12.5-7.7-18.6-11.9c-3.6-2.5-7.1-5-10.5-7.7
		c-3.9-3.1-7.5-6.4-11.1-9.8c-2.1-2-4.1-4-6-6.2c-2.6-2.8-5-5.8-7.4-8.8c-3.2-4-6.1-8.2-8.8-12.6c-3.1-4.9-5.9-9.9-8.4-15.1
		c-2.9-6-5.4-12.2-7.4-18.6c-1.8-5.6-3.4-11.2-4.4-17c-0.3-1.6-1.1-5.8-1.8-11.6c-1-8.7-1.1-15.4-1.2-20.9
		c-0.1-9.8-0.1-21.1,0.1-33.8c0-2.7,2-4.5,4.4-5.1c5.8-1.6,11.2-4,16.3-7.1c2.6-1.6,5.2-3.3,7.5-5.3c2.3-2,4.6-4.1,6.6-6.5
		c2.7-3,5-6.3,7.1-9.8c0.5-0.8,1-1.5,1.3-2.4c1.2-2.9,3.3-4.6,6.4-5.1c0.8-0.1,1.5-0.1,2.3,0c1.3,0.2,2.6,0.6,3.8,1.1
		c0.4,0.2,0.5,0.3,0.3,0.8c-2.9,7.2-6.6,13.9-11.6,19.9c-7.3,8.8-16.1,15.8-26.7,20.4c-2.2,0.9-4.4,1.8-6.7,2.6
		c-0.7,0.2-0.9,0.5-0.9,1.1c0,12.2,0.1,24.5,0.1,36.7C89.5,158.2,90.5,166,91.8,172.6z"/>
	<path class="st0" d="M136.5,161c3.2,0.7,5.6,2.7,7.8,5c8,8,15.9,15.9,23.9,23.9c0.8,0.8,1.1,0.8,1.9,0c17.9-18,35.9-35.9,53.8-53.8
		c0.4-0.4,0.8-0.9,1.2-1.3c3.8-4.3,10-5.1,14.8-2c0.8,0.5,0.4,0.8,0,1.2c-4,4.2-8,8.4-12,12.5c-18.2,18.2-36.4,36.3-54.5,54.6
		c-2.7,2.7-6.1,2.5-8.6,0c-10.7-10.9-21.6-21.7-32.4-32.5c-1.4-1.4-2.9-2.8-4.1-4.4c-0.4-0.5-0.6-0.6,0.1-1.1
		c1.8-1.2,3.7-1.7,5.8-2.1C135,160.9,135.7,160.9,136.5,161z"/>
</g>
</svg>
