<?xml version="1.0" encoding="utf-8"?>
<!-- Generator: Adobe Illustrator 28.1.0, SVG Export Plug-In . SVG Version: 6.00 Build 0)  -->
<svg version="1.1" id="图层_1" xmlns="http://www.w3.org/2000/svg" xmlns:xlink="http://www.w3.org/1999/xlink" x="0px" y="0px"
	 viewBox="0 0 368 356" style="enable-background:new 0 0 368 356;" xml:space="preserve">
<style type="text/css">
	.st0{fill:#FFFFFF;}
</style>
<g>
	<path class="st0" d="M149.8,293.5c-0.5-4.4,2.3-8.4,6.9-9.7c1.4-0.4,2.8-0.6,4.2-0.7c2.2-0.1,4.5-0.1,6.7-0.1c31.8,0,63.6,0,95.3,0
		c8.9,0,16.1-6.3,17.3-15.1c1.3-8.7,2.7-17.4,4-26.1c1.3-8.3,2.5-16.6,3.8-24.8c1.3-8.6,2.7-17.2,4-25.9c1.2-8.1,2.6-16.3,3.7-24.4
		c1.3-9.5-5.8-18.4-15.4-19.3c-0.8-0.1-1.6-0.1-2.4-0.1c-23.7,0-47.3,0-71,0c-0.3,0-0.7,0-1.1,0c0-0.4,0-0.8,0-1.1
		c0-16.3,0.1-32.6,0-48.8c-0.1-12.4-6.1-21.2-17.3-26.5c-2.3-1.1-4.7-1.6-7.1-2c-0.8-0.1-0.9,0.3-1.1,0.8
		c-12.1,27.2-24.2,54.5-36.3,81.7c-2,4.5-4,8.9-5.9,13.4c-0.2,0.6-0.4,1.2-0.4,1.9c0,41.9,0,83.8,0,125.7c0,0.3,0,0.7,0,1.2
		c-0.3,0-0.6,0-0.9,0c-11.7,0-23.4,0-35.2,0c-14.7,0-27.7-11-30.3-25.4c-0.2-1.1-0.3-2.3-0.3-3.4c0-25,0-50,0-75
		c0-4.3,0.9-8.3,2.6-12.1c4.4-9.6,11.6-16,21.9-18.6c2.1-0.5,4.4-0.7,6.6-0.7c8.9-0.1,17.7,0,26.6,0c0.6,0,0.9-0.2,1.1-0.8
		c14.5-32.8,29.1-65.6,43.7-98.4c0.1-0.3,0.2-0.5,0.4-0.8c21.3-1.4,37.4,12.8,41.4,30.3c0.7,3,1,6,1,9.1c0,12.7,0,25.5,0,38.2
		c0,0.3,0,0.6,0,1.1c0.4,0,0.8,0,1.1,0c20.3,0,40.6-0.1,60.9,0c11.5,0.1,19.9,5.3,25.2,15.5c2.8,5.3,3.4,11.1,2.5,17
		c-1.1,7.2-2.2,14.4-3.3,21.6c-1.1,7.2-2.2,14.4-3.3,21.6c-1.1,7.2-2.2,14.4-3.3,21.6c-1.1,7.2-2.2,14.5-3.3,21.7
		c-0.8,5-1.5,10-2.3,15c-1.9,11.3-11.7,20.6-23,22.1c-1.5,0.2-3.1,0.3-4.6,0.3c-37.2,0-74.5,0-111.7,0
		C150.6,293.5,150.2,293.5,149.8,293.5z M127.1,168.6c-0.2,0-0.4,0-0.6,0c-8.2,0-16.4,0-24.6,0c-1.1,0-2.2,0.1-3.3,0.3
		c-6.5,1.3-11.2,5.1-14.5,10.7c-1.6,2.7-2.8,5.6-2.8,8.8c0,25.3,0,50.7,0,76c0,0.6,0,1.2,0.2,1.8c2,9.9,10.4,16.8,20.4,16.8
		c8.1,0,16.2,0,24.3,0c0.3,0,0.6,0,0.9,0C127.1,244.8,127.1,206.8,127.1,168.6z"/>
</g>
</svg>
