<?xml version="1.0" encoding="utf-8"?>
<!-- Generator: Adobe Illustrator 28.1.0, SVG Export Plug-In . SVG Version: 6.00 Build 0)  -->
<svg version="1.1" id="图层_1" xmlns="http://www.w3.org/2000/svg" xmlns:xlink="http://www.w3.org/1999/xlink" x="0px" y="0px"
	 viewBox="0 0 368 356" style="enable-background:new 0 0 368 356;" xml:space="preserve">
<style type="text/css">
	.st0{fill:#FFFFFF;}
</style>
<g>
	<path class="st0" d="M301.8,173.2c-1.5-67.4-59.6-120.5-128.1-114.6c-64.7,5.5-115,63.7-106.7,131.8
		c7.6,61.9,60.4,102.3,112.4,103.3c0.1-2.7-0.6-5.1-2.2-7.3c-2.1-2.8-5.1-4.1-8.4-4.8c-3.7-0.8-7.4-1.4-11.1-2.4
		c-21-5.4-38.7-16.2-53.1-32.3c-16.8-18.9-25.7-41-26.9-66.3c-0.4-9,0.3-18,2.2-26.8c5.6-25.6,18.9-46.5,39.6-62.4
		C136.7,78.1,156.3,71,178,69.7c9.2-0.5,18.3,0.1,27.3,1.9c20.1,4.1,37.7,13.2,52.4,27.5c20,19.4,30.9,43,32.6,70.8
		c0.7,10.5-0.3,21-2.8,31.2c-4.2,17.3-12.3,32.7-24.3,45.9c-15.6,17.3-34.8,28.3-57.6,33.1c-2.4,0.5-4.7,1.1-6.8,2.5
		c-3.7,2.5-5.4,6.1-5.4,10.7C251.8,289.4,303.3,239.2,301.8,173.2z"/>
	<path class="st0" d="M228.4,218.1c-1.6-0.8-3.1-1.2-4.7-1.4c-4.3-0.7-8.1,0.3-11.2,3.6c-0.3,0.4-0.7,0.7-1,1
		c-2.6,2.4-5.4,4.5-8.5,6.2c-7.4,3.9-15.2,5.1-23.5,4.3c-7.9-0.8-14.9-3.8-21-8.9c-1.5-1.2-2.8-2.6-4.3-3.9c-2-1.7-4.3-2.7-6.9-3
		c-2.7-0.2-5.1,0.4-7.6,2c10.6,16.7,25.5,25.5,45.2,25.3C203.9,243.1,218.3,234.2,228.4,218.1z"/>
	<path class="st0" d="M158.8,153.4c0.2,0.4,0.4,0.8,0.6,1.1c2.9,3.8,8.8,5.2,13.3,3.1c-0.5-1.4-0.9-2.8-1.5-4.2
		c-2.2-5.7-5.1-10.9-9.6-15.2c-9.4-9.1-22.9-9.6-32.8-1c-4,3.5-6.9,7.9-9.1,12.7c-1.2,2.5-2.2,5.1-2.9,7.8c0.2,0.1,0.3,0.1,0.4,0.1
		c3,0.5,5.9,0.4,8.6-0.8c2.3-1,4.2-2.4,5.4-4.8c1.1-2.1,2.6-4.1,4.3-5.8c5.5-5.4,12.8-5.4,18.2,0
		C155.9,148.5,157.5,150.9,158.8,153.4z"/>
	<path class="st0" d="M204.9,156.9c2.2-1,4-2.4,5.2-4.6c1.1-2.2,2.6-4.1,4.3-5.8c5.5-5.3,12.7-5.3,18.2,0c2,1.9,3.5,4.1,4.7,6.6
		c0.8,1.7,2.1,2.9,3.6,3.9c3.3,2.1,6.8,2.1,10.5,0.7c-0.7-1.9-1.3-3.8-2.1-5.6c-2.4-5.7-5.6-11-10.4-15.1
		c-8.5-7.3-20.4-7.9-29.4-1.4c-3,2.2-5.5,4.8-7.5,7.9c-3,4.4-5.1,9.1-6.5,14.2c0.2,0.1,0.3,0.1,0.4,0.1
		C199.1,158.3,202.1,158.2,204.9,156.9z"/>
</g>
</svg>
