<svg width="1920" height="2311" viewBox="0 0 1920 2311" fill="none" xmlns="http://www.w3.org/2000/svg">
<g clip-path="url(#clip0_108_548)">
<path d="M358.108 -575C53.1235 -450.517 -206.297 177.712 150.677 492.156C253.613 582.829 329.859 620.036 858.742 628.999C1387.63 637.962 1230.69 1024.85 1171.05 1168.26C1111.41 1311.66 1306.02 1447.6 1406.46 1508.84C1506.9 1570.09 1585.37 1828.52 1332.7 1977.9C1080.03 2127.28 730.052 2000.3 453.84 1916.65C177.628 1833 11.2734 1886.77 -108 2004.78" stroke="#C4C4E3" stroke-width="10" stroke-linecap="round" stroke-linejoin="round" stroke-dasharray="20 20"/>
<g filter="url(#filter0_f_108_548)">
<circle cx="1497" cy="1749" r="28" fill="#C4C4E3"/>
</g>
<g filter="url(#filter1_f_108_548)">
<circle cx="1002" cy="644" r="28" fill="#C4C4E3"/>
</g>
<g filter="url(#filter2_f_108_548)">
<circle cx="1170" cy="1198" r="28" fill="#C4C4E3"/>
</g>
</g>
<defs>
<filter id="filter0_f_108_548" x="1459" y="1711" width="76" height="76" filterUnits="userSpaceOnUse" color-interpolation-filters="sRGB">
<feFlood flood-opacity="0" result="BackgroundImageFix"/>
<feBlend mode="normal" in="SourceGraphic" in2="BackgroundImageFix" result="shape"/>
<feGaussianBlur stdDeviation="5" result="effect1_foregroundBlur_108_548"/>
</filter>
<filter id="filter1_f_108_548" x="964" y="606" width="76" height="76" filterUnits="userSpaceOnUse" color-interpolation-filters="sRGB">
<feFlood flood-opacity="0" result="BackgroundImageFix"/>
<feBlend mode="normal" in="SourceGraphic" in2="BackgroundImageFix" result="shape"/>
<feGaussianBlur stdDeviation="5" result="effect1_foregroundBlur_108_548"/>
</filter>
<filter id="filter2_f_108_548" x="1132" y="1160" width="76" height="76" filterUnits="userSpaceOnUse" color-interpolation-filters="sRGB">
<feFlood flood-opacity="0" result="BackgroundImageFix"/>
<feBlend mode="normal" in="SourceGraphic" in2="BackgroundImageFix" result="shape"/>
<feGaussianBlur stdDeviation="5" result="effect1_foregroundBlur_108_548"/>
</filter>
<clipPath id="clip0_108_548">
<rect width="1920" height="2311" fill="white"/>
</clipPath>
</defs>
</svg>
