<svg width="459" height="77" viewBox="0 0 459 77" fill="none" xmlns="http://www.w3.org/2000/svg">
<g clip-path="url(#clip0_2_6719)">
<path d="M31.2693 15.699C35.1548 10.8506 39.0403 6.01068 42.9257 1.16231C43.196 0.832889 43.7281 1.07784 43.6437 1.50017C42.9088 5.24204 42.174 8.98391 41.4476 12.7258C41.3969 12.9876 41.608 13.2241 41.8699 13.2157C43.4832 13.1228 45.0965 13.0214 46.7098 12.9285C47.073 12.9032 47.2757 13.3255 47.0477 13.6042C43.4916 17.7853 39.9272 21.958 36.3711 26.1391C36.0924 26.4685 35.5602 26.1897 35.6616 25.7758C36.4387 22.7266 37.2073 19.6689 37.9844 16.6197C38.052 16.3578 37.8408 16.096 37.5705 16.1129C35.5856 16.1973 33.5922 16.2818 31.6072 16.3747C31.2524 16.3916 31.0497 15.9862 31.2693 15.7074V15.699Z" fill="#190A0A"/>
</g>
<path d="M23.9754 42.4653H32.1654V43.7973H25.4514V48.0273H30.9414V49.3593H25.4514V55.4433H23.9754V42.4653ZM36.1244 55.5873C35.1884 55.5873 34.4264 55.3473 33.8384 54.8673C33.2624 54.3873 32.9744 53.7453 32.9744 52.9413C32.9744 52.1493 33.2444 51.5133 33.7844 51.0333C34.3364 50.5413 35.1104 50.2293 36.1064 50.0973L38.3384 49.8093C38.9504 49.7133 39.2564 49.4253 39.2564 48.9453C39.2564 48.4173 39.0464 47.9913 38.6264 47.6673C38.2064 47.3313 37.6364 47.1633 36.9164 47.1633C36.2324 47.1633 35.6744 47.3253 35.2424 47.6493C34.8104 47.9733 34.5704 48.4353 34.5224 49.0353H33.1004C33.1964 48.0993 33.5864 47.3553 34.2704 46.8033C34.9544 46.2393 35.8364 45.9573 36.9164 45.9573C37.6484 45.9573 38.2964 46.0953 38.8604 46.3713C39.4244 46.6353 39.8624 47.0013 40.1744 47.4693C40.4864 47.9373 40.6424 48.4713 40.6424 49.0713V53.5893C40.6424 53.8773 40.6964 54.0693 40.8044 54.1653C40.9244 54.2613 41.0924 54.3093 41.3084 54.3093C41.4044 54.3093 41.5004 54.2973 41.5964 54.2733V55.4433C41.3804 55.5033 41.1764 55.5333 40.9844 55.5333C40.4804 55.5333 40.0784 55.3953 39.7784 55.1193C39.4904 54.8433 39.3404 54.4173 39.3284 53.8413C39.0764 54.3693 38.6564 54.7953 38.0684 55.1193C37.4804 55.4313 36.8324 55.5873 36.1244 55.5873ZM36.2864 54.3993C37.2224 54.3993 37.9544 54.1173 38.4824 53.5533C39.0104 52.9893 39.2744 52.2093 39.2744 51.2133V50.7453L36.2864 51.2133C35.0264 51.4173 34.3964 51.9873 34.3964 52.9233C34.3964 53.3793 34.5704 53.7393 34.9184 54.0033C35.2664 54.2673 35.7224 54.3993 36.2864 54.3993ZM46.1382 55.5873C45.4062 55.5873 44.7582 55.4493 44.1942 55.1733C43.6302 54.8853 43.1862 54.5013 42.8622 54.0213C42.5502 53.5413 42.3762 53.0013 42.3402 52.4013H43.7262C43.7622 52.9533 43.9962 53.4153 44.4282 53.7873C44.8602 54.1593 45.4302 54.3453 46.1382 54.3453C46.7502 54.3453 47.2482 54.2013 47.6322 53.9133C48.0162 53.6253 48.2082 53.2773 48.2082 52.8693C48.2082 52.4733 48.0822 52.1613 47.8302 51.9333C47.5782 51.7053 47.2242 51.5313 46.7682 51.4113L45.0762 50.9613C44.3562 50.7693 43.7862 50.4873 43.3662 50.1153C42.9582 49.7433 42.7542 49.1973 42.7542 48.4773C42.7542 47.9973 42.8862 47.5653 43.1502 47.1813C43.4262 46.7973 43.8042 46.4973 44.2842 46.2813C44.7642 46.0653 45.3162 45.9573 45.9402 45.9573C46.8882 45.9573 47.6802 46.2093 48.3162 46.7133C48.9522 47.2053 49.3362 47.8713 49.4682 48.7113H48.0642C48.0042 48.2433 47.7762 47.8713 47.3802 47.5953C46.9962 47.3073 46.5162 47.1633 45.9402 47.1633C45.4002 47.1633 44.9682 47.2833 44.6442 47.5233C44.3322 47.7513 44.1762 48.0693 44.1762 48.4773C44.1762 48.7893 44.2842 49.0533 44.5002 49.2693C44.7282 49.4733 45.0402 49.6233 45.4362 49.7193L47.1282 50.1513C47.9322 50.3553 48.5502 50.6493 48.9822 51.0333C49.4262 51.4173 49.6482 52.0293 49.6482 52.8693C49.6482 53.6853 49.3242 54.3453 48.6762 54.8493C48.0402 55.3413 47.1942 55.5873 46.1382 55.5873ZM55.8399 47.3073H53.4099V52.8333C53.4099 53.3373 53.5299 53.7153 53.7699 53.9673C54.0099 54.2073 54.3579 54.3273 54.8139 54.3273C55.0299 54.3273 55.2339 54.3093 55.4259 54.2733C55.6299 54.2373 55.7679 54.2073 55.8399 54.1833V55.4433C55.7559 55.4673 55.6059 55.4973 55.3899 55.5333C55.1739 55.5693 54.9579 55.5873 54.7419 55.5873C53.8899 55.5873 53.2239 55.3653 52.7439 54.9213C52.2759 54.4653 52.0419 53.7873 52.0419 52.8873V47.3073H50.2599V46.1013H52.0419V43.2393H53.4099V46.1013H55.8399V47.3073ZM17.199 62.4653H19.017L23.265 71.9693C23.589 72.6893 23.829 73.3253 23.985 73.8773C24.141 73.3253 24.381 72.6893 24.705 71.9693L28.953 62.4653H30.717V75.4433H29.241V66.8933C29.241 66.0893 29.265 65.3993 29.313 64.8233C29.109 65.3753 28.845 66.0113 28.521 66.7313L24.633 75.4433H23.301L19.395 66.7313C19.071 66.0113 18.807 65.3753 18.603 64.8233C18.651 65.4113 18.675 66.1013 18.675 66.8933V75.4433H17.199V62.4653ZM37.1509 75.5873C36.2749 75.5873 35.4889 75.3833 34.7929 74.9753C34.1089 74.5553 33.5689 73.9793 33.1729 73.2473C32.7889 72.5153 32.5969 71.6873 32.5969 70.7633C32.5969 69.8393 32.7889 69.0173 33.1729 68.2973C33.5689 67.5653 34.1089 66.9953 34.7929 66.5873C35.4889 66.1673 36.2749 65.9573 37.1509 65.9573C38.0269 65.9573 38.8069 66.1613 39.4909 66.5693C40.1869 66.9773 40.7329 67.5473 41.1289 68.2793C41.5249 69.0113 41.7229 69.8393 41.7229 70.7633C41.7229 71.6873 41.5249 72.5213 41.1289 73.2653C40.7449 73.9973 40.2049 74.5673 39.5089 74.9753C38.8129 75.3833 38.0269 75.5873 37.1509 75.5873ZM37.1509 74.3453C37.7629 74.3453 38.3029 74.1953 38.7709 73.8953C39.2509 73.5833 39.6229 73.1573 39.8869 72.6173C40.1629 72.0653 40.3009 71.4473 40.3009 70.7633C40.3009 70.0793 40.1629 69.4673 39.8869 68.9273C39.6229 68.3873 39.2509 67.9673 38.7709 67.6673C38.2909 67.3553 37.7509 67.1993 37.1509 67.1993C36.5389 67.1993 35.9929 67.3553 35.5129 67.6673C35.0449 67.9673 34.6789 68.3873 34.4149 68.9273C34.1629 69.4673 34.0369 70.0793 34.0369 70.7633C34.0369 71.4593 34.1629 72.0773 34.4149 72.6173C34.6789 73.1573 35.0449 73.5833 35.5129 73.8953C35.9929 74.1953 36.5389 74.3453 37.1509 74.3453ZM47.432 75.5873C46.508 75.5873 45.71 75.3773 45.038 74.9573C44.366 74.5373 43.856 73.9613 43.508 73.2293C43.16 72.4973 42.986 71.6753 42.986 70.7633C42.986 69.8513 43.16 69.0353 43.508 68.3153C43.856 67.5833 44.366 67.0073 45.038 66.5873C45.71 66.1673 46.508 65.9573 47.432 65.9573C48.044 65.9573 48.638 66.1073 49.214 66.4073C49.79 66.6953 50.222 67.0673 50.51 67.5233V62.3213H51.896V75.4433H50.51V74.0213C50.306 74.4653 49.916 74.8373 49.34 75.1373C48.764 75.4373 48.128 75.5873 47.432 75.5873ZM47.54 74.3453C48.464 74.3453 49.214 74.0213 49.79 73.3733C50.366 72.7133 50.654 71.8433 50.654 70.7633C50.654 69.6953 50.366 68.8373 49.79 68.1893C49.214 67.5293 48.464 67.1993 47.54 67.1993C46.604 67.1993 45.848 67.5293 45.272 68.1893C44.708 68.8373 44.426 69.6953 44.426 70.7633C44.426 71.8313 44.708 72.6953 45.272 73.3553C45.848 74.0153 46.604 74.3453 47.54 74.3453ZM53.7438 70.7633C53.7438 69.8633 53.9238 69.0473 54.2838 68.3153C54.6558 67.5833 55.1778 67.0073 55.8498 66.5873C56.5218 66.1673 57.3078 65.9573 58.2078 65.9573C59.0358 65.9573 59.7678 66.1493 60.4038 66.5333C61.0398 66.9053 61.5258 67.4213 61.8618 68.0813C62.2098 68.7293 62.3838 69.4613 62.3838 70.2773C62.3838 70.4573 62.3718 70.6793 62.3478 70.9433H55.1478C55.1838 71.9993 55.4778 72.8333 56.0298 73.4453C56.5938 74.0573 57.3318 74.3633 58.2438 74.3633C58.9518 74.3633 59.5578 74.2013 60.0618 73.8773C60.5658 73.5413 60.8718 73.0793 60.9798 72.4913H62.3118C62.1438 73.4753 61.6878 74.2373 60.9438 74.7773C60.1998 75.3173 59.2998 75.5873 58.2438 75.5873C57.3438 75.5873 56.5518 75.3773 55.8678 74.9573C55.1958 74.5373 54.6738 73.9613 54.3018 73.2293C53.9298 72.4973 53.7438 71.6753 53.7438 70.7633ZM60.9078 69.7733C60.8478 68.9933 60.5778 68.3633 60.0978 67.8833C59.6298 67.3913 58.9998 67.1453 58.2078 67.1453C57.4158 67.1453 56.7558 67.3793 56.2278 67.8473C55.7118 68.3153 55.3818 68.9573 55.2378 69.7733H60.9078Z" fill="#190A0A"/>
<path d="M179.476 4.09717C179.338 3.68012 179.093 3.34327 179.093 3.34327C178.882 3.05454 178.246 2.23648 176.153 2.06003C175.127 1.97181 173.588 2.01191 171.804 2.4049C170.281 2.74175 168.701 3.42347 167.724 3.89667C166.07 4.69067 163.578 6.15035 160.98 9.33439C160.345 10.1124 159.587 11.1951 158.895 12.5585C158.39 13.6413 157.788 14.7882 157.706 16.8494C157.69 17.2103 157.706 17.4749 157.731 17.6835C157.747 17.8519 157.779 18.1246 157.845 18.4213C158.529 17.4749 159.416 16.3441 160.622 15.0929C161.721 13.954 163.44 12.1896 166.144 10.5535C167.553 9.70332 169.646 8.62861 172.382 7.86669C172.301 7.90679 172.228 7.94689 172.146 7.98699C169.581 9.31835 166.983 11.0427 164.458 13.2964C163.489 14.1947 162.479 15.2293 161.453 16.4082C160.035 18.0444 158.887 19.6404 157.967 21.0921C157.177 22.3031 156.949 22.7442 156.949 22.7442C156.753 23.1372 156.525 23.6826 156.362 24.3884C156.362 24.4525 156.354 24.5327 156.362 24.637C156.362 24.6851 156.37 24.7413 156.395 24.8135C156.395 24.8135 156.436 24.9498 156.533 25.0621C156.721 25.2786 157.283 25.3588 157.584 25.1102C157.763 24.9578 157.771 24.7493 157.828 24.4525C157.926 23.9312 158.097 23.5944 158.439 22.9207C158.626 22.5517 158.952 22.0545 159.539 21.5412C160.459 21.6695 161.135 21.6936 161.583 21.6936C161.697 21.6936 161.795 21.6936 161.811 21.6936C162.137 21.6936 162.715 21.6615 163.456 21.5492C164.279 21.4209 165.508 21.1482 166.917 20.4986C167.561 20.2018 167.903 19.8088 167.821 19.5923C167.74 19.3597 167.211 19.3437 167.129 19.3437C166.877 19.3597 166.6 19.3757 166.307 19.3677C165.842 19.3597 165.427 19.3116 165.061 19.2474C166.755 19.079 168.041 18.6299 168.856 18.285C169.727 17.916 170.656 17.3947 171.397 16.5205C171.535 16.3601 172.138 15.6463 171.959 15.4218C171.877 15.3175 171.666 15.3496 171.486 15.3897C170.965 15.6704 170.175 16.0233 169.149 16.2077C168.139 16.3922 167.284 16.3441 166.698 16.2719C170.289 15.1571 172.879 13.6172 174.516 12.4703C176.341 11.1951 177.644 9.94393 178.597 8.3078C178.597 8.3078 180.038 5.8135 179.468 4.11321L179.476 4.09717Z" fill="#190A0A"/>
<path d="M139.593 42.4654H141.285L147.099 51.5734C147.555 52.2694 147.927 52.8994 148.215 53.4634C148.155 52.8274 148.125 52.0954 148.125 51.2674V42.4654H149.601V55.4434H147.909L142.095 46.3534C141.639 45.6574 141.267 45.0274 140.979 44.4634C141.039 45.0994 141.069 45.8314 141.069 46.6594V55.4434H139.593V42.4654ZM156.029 55.5874C155.153 55.5874 154.367 55.3834 153.671 54.9754C152.987 54.5554 152.447 53.9794 152.051 53.2474C151.667 52.5154 151.475 51.6874 151.475 50.7634C151.475 49.8394 151.667 49.0174 152.051 48.2974C152.447 47.5654 152.987 46.9954 153.671 46.5874C154.367 46.1674 155.153 45.9574 156.029 45.9574C156.905 45.9574 157.685 46.1614 158.369 46.5694C159.065 46.9774 159.611 47.5474 160.007 48.2794C160.403 49.0114 160.601 49.8394 160.601 50.7634C160.601 51.6874 160.403 52.5214 160.007 53.2654C159.623 53.9974 159.083 54.5674 158.387 54.9754C157.691 55.3834 156.905 55.5874 156.029 55.5874ZM156.029 54.3454C156.641 54.3454 157.181 54.1954 157.649 53.8954C158.129 53.5834 158.501 53.1574 158.765 52.6174C159.041 52.0654 159.179 51.4474 159.179 50.7634C159.179 50.0794 159.041 49.4674 158.765 48.9274C158.501 48.3874 158.129 47.9674 157.649 47.6674C157.169 47.3554 156.629 47.1994 156.029 47.1994C155.417 47.1994 154.871 47.3554 154.391 47.6674C153.923 47.9674 153.557 48.3874 153.293 48.9274C153.041 49.4674 152.915 50.0794 152.915 50.7634C152.915 51.4594 153.041 52.0774 153.293 52.6174C153.557 53.1574 153.923 53.5834 154.391 53.8954C154.871 54.1954 155.417 54.3454 156.029 54.3454ZM167.607 47.3434C167.547 47.3194 167.427 47.2954 167.247 47.2714C167.067 47.2354 166.863 47.2174 166.635 47.2174C166.119 47.2174 165.645 47.3914 165.213 47.7394C164.793 48.0874 164.457 48.6154 164.205 49.3234C163.965 50.0194 163.845 50.8654 163.845 51.8614V55.4434H162.459V46.1014H163.845V48.0274C164.073 47.4394 164.463 46.9474 165.015 46.5514C165.579 46.1554 166.173 45.9574 166.797 45.9574C167.109 45.9574 167.319 45.9694 167.427 45.9934C167.547 46.0174 167.607 46.0294 167.607 46.0294V47.3434ZM169.015 46.1014H170.401V47.9554C170.641 47.3314 171.001 46.8454 171.481 46.4974C171.961 46.1374 172.549 45.9574 173.245 45.9574C174.037 45.9574 174.709 46.1374 175.261 46.4974C175.825 46.8454 176.185 47.3314 176.341 47.9554C176.605 47.3554 177.001 46.8754 177.529 46.5154C178.069 46.1434 178.669 45.9574 179.329 45.9574C180.337 45.9574 181.129 46.2454 181.705 46.8214C182.293 47.3974 182.587 48.1894 182.587 49.1974V55.4434H181.201V49.4494C181.201 48.7654 181.009 48.2194 180.625 47.8114C180.253 47.4034 179.731 47.1994 179.059 47.1994C178.255 47.1994 177.625 47.5294 177.169 48.1894C176.713 48.8494 176.485 49.7134 176.485 50.7814V55.4434H175.099V49.4494C175.099 48.7654 174.913 48.2194 174.541 47.8114C174.169 47.4034 173.653 47.1994 172.993 47.1994C172.177 47.1994 171.541 47.5294 171.085 48.1894C170.629 48.8494 170.401 49.7134 170.401 50.7814V55.4434H169.015V46.1014ZM187.443 55.5874C186.507 55.5874 185.745 55.3474 185.157 54.8674C184.581 54.3874 184.293 53.7454 184.293 52.9414C184.293 52.1494 184.563 51.5134 185.103 51.0334C185.655 50.5414 186.429 50.2294 187.425 50.0974L189.657 49.8094C190.269 49.7134 190.575 49.4254 190.575 48.9454C190.575 48.4174 190.365 47.9914 189.945 47.6674C189.525 47.3314 188.955 47.1634 188.235 47.1634C187.551 47.1634 186.993 47.3254 186.561 47.6494C186.129 47.9734 185.889 48.4354 185.841 49.0354H184.419C184.515 48.0994 184.905 47.3554 185.589 46.8034C186.273 46.2394 187.155 45.9574 188.235 45.9574C188.967 45.9574 189.615 46.0954 190.179 46.3714C190.743 46.6354 191.181 47.0014 191.493 47.4694C191.805 47.9374 191.961 48.4714 191.961 49.0714V53.5894C191.961 53.8774 192.015 54.0694 192.123 54.1654C192.243 54.2614 192.411 54.3094 192.627 54.3094C192.723 54.3094 192.819 54.2974 192.915 54.2734V55.4434C192.699 55.5034 192.495 55.5334 192.303 55.5334C191.799 55.5334 191.397 55.3954 191.097 55.1194C190.809 54.8434 190.659 54.4174 190.647 53.8414C190.395 54.3694 189.975 54.7954 189.387 55.1194C188.799 55.4314 188.151 55.5874 187.443 55.5874ZM187.605 54.3994C188.541 54.3994 189.273 54.1174 189.801 53.5534C190.329 52.9894 190.593 52.2094 190.593 51.2134V50.7454L187.605 51.2134C186.345 51.4174 185.715 51.9874 185.715 52.9234C185.715 53.3794 185.889 53.7394 186.237 54.0034C186.585 54.2674 187.041 54.3994 187.605 54.3994ZM194.433 42.3214H195.819V55.4434H194.433V42.3214ZM145.412 62.4654H147.23L151.478 71.9694C151.802 72.6894 152.042 73.3254 152.198 73.8774C152.354 73.3254 152.594 72.6894 152.918 71.9694L157.166 62.4654H158.93V75.4434H157.454V66.8934C157.454 66.0894 157.478 65.3994 157.526 64.8234C157.322 65.3754 157.058 66.0114 156.734 66.7314L152.846 75.4434H151.514L147.608 66.7314C147.284 66.0114 147.02 65.3754 146.816 64.8234C146.864 65.4114 146.888 66.1014 146.888 66.8934V75.4434H145.412V62.4654ZM165.363 75.5874C164.487 75.5874 163.701 75.3834 163.005 74.9754C162.321 74.5554 161.781 73.9794 161.385 73.2474C161.001 72.5154 160.809 71.6874 160.809 70.7634C160.809 69.8394 161.001 69.0174 161.385 68.2974C161.781 67.5654 162.321 66.9954 163.005 66.5874C163.701 66.1674 164.487 65.9574 165.363 65.9574C166.239 65.9574 167.019 66.1614 167.703 66.5694C168.399 66.9774 168.945 67.5474 169.341 68.2794C169.737 69.0114 169.935 69.8394 169.935 70.7634C169.935 71.6874 169.737 72.5214 169.341 73.2654C168.957 73.9974 168.417 74.5674 167.721 74.9754C167.025 75.3834 166.239 75.5874 165.363 75.5874ZM165.363 74.3454C165.975 74.3454 166.515 74.1954 166.983 73.8954C167.463 73.5834 167.835 73.1574 168.099 72.6174C168.375 72.0654 168.513 71.4474 168.513 70.7634C168.513 70.0794 168.375 69.4674 168.099 68.9274C167.835 68.3874 167.463 67.9674 166.983 67.6674C166.503 67.3554 165.963 67.1994 165.363 67.1994C164.751 67.1994 164.205 67.3554 163.725 67.6674C163.257 67.9674 162.891 68.3874 162.627 68.9274C162.375 69.4674 162.249 70.0794 162.249 70.7634C162.249 71.4594 162.375 72.0774 162.627 72.6174C162.891 73.1574 163.257 73.5834 163.725 73.8954C164.205 74.1954 164.751 74.3454 165.363 74.3454ZM175.645 75.5874C174.721 75.5874 173.923 75.3774 173.251 74.9574C172.579 74.5374 172.069 73.9614 171.721 73.2294C171.373 72.4974 171.199 71.6754 171.199 70.7634C171.199 69.8514 171.373 69.0354 171.721 68.3154C172.069 67.5834 172.579 67.0074 173.251 66.5874C173.923 66.1674 174.721 65.9574 175.645 65.9574C176.257 65.9574 176.851 66.1074 177.427 66.4074C178.003 66.6954 178.435 67.0674 178.723 67.5234V62.3214H180.109V75.4434H178.723V74.0214C178.519 74.4654 178.129 74.8374 177.553 75.1374C176.977 75.4374 176.341 75.5874 175.645 75.5874ZM175.753 74.3454C176.677 74.3454 177.427 74.0214 178.003 73.3734C178.579 72.7134 178.867 71.8434 178.867 70.7634C178.867 69.6954 178.579 68.8374 178.003 68.1894C177.427 67.5294 176.677 67.1994 175.753 67.1994C174.817 67.1994 174.061 67.5294 173.485 68.1894C172.921 68.8374 172.639 69.6954 172.639 70.7634C172.639 71.8314 172.921 72.6954 173.485 73.3554C174.061 74.0154 174.817 74.3454 175.753 74.3454ZM181.956 70.7634C181.956 69.8634 182.136 69.0474 182.496 68.3154C182.868 67.5834 183.39 67.0074 184.062 66.5874C184.734 66.1674 185.52 65.9574 186.42 65.9574C187.248 65.9574 187.98 66.1494 188.616 66.5334C189.252 66.9054 189.738 67.4214 190.074 68.0814C190.422 68.7294 190.596 69.4614 190.596 70.2774C190.596 70.4574 190.584 70.6794 190.56 70.9434H183.36C183.396 71.9994 183.69 72.8334 184.242 73.4454C184.806 74.0574 185.544 74.3634 186.456 74.3634C187.164 74.3634 187.77 74.2014 188.274 73.8774C188.778 73.5414 189.084 73.0794 189.192 72.4914H190.524C190.356 73.4754 189.9 74.2374 189.156 74.7774C188.412 75.3174 187.512 75.5874 186.456 75.5874C185.556 75.5874 184.764 75.3774 184.08 74.9574C183.408 74.5374 182.886 73.9614 182.514 73.2294C182.142 72.4974 181.956 71.6754 181.956 70.7634ZM189.12 69.7734C189.06 68.9934 188.79 68.3634 188.31 67.8834C187.842 67.3914 187.212 67.1454 186.42 67.1454C185.628 67.1454 184.968 67.3794 184.44 67.8474C183.924 68.3154 183.594 68.9574 183.45 69.7734H189.12Z" fill="#190A0A"/>
<path d="M289.775 4.04212H284.182C283.859 4.04212 283.597 4.42242 283.597 4.89154V22.7031C283.597 23.1722 283.859 23.5525 284.182 23.5525H289.775C290.099 23.5525 290.361 23.1722 290.361 22.7031V4.89154C290.361 4.42242 290.099 4.04212 289.775 4.04212Z" fill="#190A0A"/>
<path d="M300.582 4.04212H294.989C294.665 4.04212 294.403 4.42242 294.403 4.89154V22.7031C294.403 23.1722 294.665 23.5525 294.989 23.5525H300.582C300.905 23.5525 301.167 23.1722 301.167 22.7031V4.89154C301.167 4.42242 300.905 4.04212 300.582 4.04212Z" fill="#190A0A"/>
<path d="M311.389 4.04212H305.795C305.472 4.04212 305.21 4.42242 305.21 4.89154V22.7031C305.21 23.1722 305.472 23.5525 305.795 23.5525H311.389C311.712 23.5525 311.974 23.1722 311.974 22.7031V4.89154C311.974 4.42242 311.712 4.04212 311.389 4.04212Z" fill="#190A0A"/>
<path d="M289.037 42.4654H290.513V55.4434H289.037V49.2334H282.017V55.4434H280.541V42.4654H282.017V47.9014H289.037V42.4654ZM293.036 46.1014H294.422V55.4434H293.036V46.1014ZM294.566 42.3214V44.2114H292.928V42.3214H294.566ZM300.864 58.9534C299.58 58.9534 298.572 58.6834 297.84 58.1434C297.108 57.6154 296.688 56.8414 296.58 55.8214H297.984C298.056 56.4334 298.338 56.9074 298.83 57.2434C299.322 57.5794 300 57.7474 300.864 57.7474C301.788 57.7474 302.496 57.5134 302.988 57.0454C303.48 56.5774 303.726 55.9054 303.726 55.0294V53.6794C303.51 54.0874 303.12 54.4174 302.556 54.6694C302.004 54.9094 301.38 55.0294 300.684 55.0294C299.772 55.0294 298.98 54.8374 298.308 54.4534C297.648 54.0574 297.144 53.5174 296.796 52.8334C296.448 52.1494 296.274 51.3754 296.274 50.5114C296.274 49.6474 296.448 48.8734 296.796 48.1894C297.144 47.4934 297.642 46.9474 298.29 46.5514C298.95 46.1554 299.736 45.9574 300.648 45.9574C301.272 45.9574 301.866 46.0954 302.43 46.3714C303.006 46.6474 303.438 47.0014 303.726 47.4334V46.1014H305.112V54.9214C305.112 56.2174 304.74 57.2134 303.996 57.9094C303.264 58.6054 302.22 58.9534 300.864 58.9534ZM300.774 53.7874C301.698 53.7874 302.436 53.4934 302.988 52.9054C303.552 52.3054 303.834 51.5074 303.834 50.5114C303.834 49.5154 303.552 48.7174 302.988 48.1174C302.436 47.5054 301.698 47.1994 300.774 47.1994C299.85 47.1994 299.106 47.5054 298.542 48.1174C297.99 48.7174 297.714 49.5154 297.714 50.5114C297.714 51.5074 297.99 52.3054 298.542 52.9054C299.106 53.4934 299.85 53.7874 300.774 53.7874ZM307.538 42.3214H308.924V47.9554C309.284 47.3314 309.746 46.8454 310.31 46.4974C310.886 46.1374 311.516 45.9574 312.2 45.9574C312.836 45.9574 313.406 46.0954 313.91 46.3714C314.414 46.6354 314.804 47.0194 315.08 47.5234C315.368 48.0154 315.512 48.5854 315.512 49.2334V55.4434H314.126V49.4494C314.126 48.7894 313.928 48.2554 313.532 47.8474C313.136 47.4274 312.602 47.2174 311.93 47.2174C311.018 47.2174 310.286 47.5894 309.734 48.3334C309.194 49.0774 308.924 50.0794 308.924 51.3394V55.4434H307.538V42.3214ZM275.681 62.4654H277.499L281.747 71.9694C282.071 72.6894 282.311 73.3254 282.467 73.8774C282.623 73.3254 282.863 72.6894 283.187 71.9694L287.435 62.4654H289.199V75.4434H287.723V66.8934C287.723 66.0894 287.747 65.3994 287.795 64.8234C287.591 65.3754 287.327 66.0114 287.003 66.7314L283.115 75.4434H281.783L277.877 66.7314C277.553 66.0114 277.289 65.3754 277.085 64.8234C277.133 65.4114 277.157 66.1014 277.157 66.8934V75.4434H275.681V62.4654ZM295.633 75.5874C294.757 75.5874 293.971 75.3834 293.275 74.9754C292.591 74.5554 292.051 73.9794 291.655 73.2474C291.271 72.5154 291.079 71.6874 291.079 70.7634C291.079 69.8394 291.271 69.0174 291.655 68.2974C292.051 67.5654 292.591 66.9954 293.275 66.5874C293.971 66.1674 294.757 65.9574 295.633 65.9574C296.509 65.9574 297.289 66.1614 297.973 66.5694C298.669 66.9774 299.215 67.5474 299.611 68.2794C300.007 69.0114 300.205 69.8394 300.205 70.7634C300.205 71.6874 300.007 72.5214 299.611 73.2654C299.227 73.9974 298.687 74.5674 297.991 74.9754C297.295 75.3834 296.509 75.5874 295.633 75.5874ZM295.633 74.3454C296.245 74.3454 296.785 74.1954 297.253 73.8954C297.733 73.5834 298.105 73.1574 298.369 72.6174C298.645 72.0654 298.783 71.4474 298.783 70.7634C298.783 70.0794 298.645 69.4674 298.369 68.9274C298.105 68.3874 297.733 67.9674 297.253 67.6674C296.773 67.3554 296.233 67.1994 295.633 67.1994C295.021 67.1994 294.475 67.3554 293.995 67.6674C293.527 67.9674 293.161 68.3874 292.897 68.9274C292.645 69.4674 292.519 70.0794 292.519 70.7634C292.519 71.4594 292.645 72.0774 292.897 72.6174C293.161 73.1574 293.527 73.5834 293.995 73.8954C294.475 74.1954 295.021 74.3454 295.633 74.3454ZM305.914 75.5874C304.99 75.5874 304.192 75.3774 303.52 74.9574C302.848 74.5374 302.338 73.9614 301.99 73.2294C301.642 72.4974 301.468 71.6754 301.468 70.7634C301.468 69.8514 301.642 69.0354 301.99 68.3154C302.338 67.5834 302.848 67.0074 303.52 66.5874C304.192 66.1674 304.99 65.9574 305.914 65.9574C306.526 65.9574 307.12 66.1074 307.696 66.4074C308.272 66.6954 308.704 67.0674 308.992 67.5234V62.3214H310.378V75.4434H308.992V74.0214C308.788 74.4654 308.398 74.8374 307.822 75.1374C307.246 75.4374 306.61 75.5874 305.914 75.5874ZM306.022 74.3454C306.946 74.3454 307.696 74.0214 308.272 73.3734C308.848 72.7134 309.136 71.8434 309.136 70.7634C309.136 69.6954 308.848 68.8374 308.272 68.1894C307.696 67.5294 306.946 67.1994 306.022 67.1994C305.086 67.1994 304.33 67.5294 303.754 68.1894C303.19 68.8374 302.908 69.6954 302.908 70.7634C302.908 71.8314 303.19 72.6954 303.754 73.3554C304.33 74.0154 305.086 74.3454 306.022 74.3454ZM312.226 70.7634C312.226 69.8634 312.406 69.0474 312.766 68.3154C313.138 67.5834 313.66 67.0074 314.332 66.5874C315.004 66.1674 315.79 65.9574 316.69 65.9574C317.518 65.9574 318.25 66.1494 318.886 66.5334C319.522 66.9054 320.008 67.4214 320.344 68.0814C320.692 68.7294 320.866 69.4614 320.866 70.2774C320.866 70.4574 320.854 70.6794 320.83 70.9434H313.63C313.666 71.9994 313.96 72.8334 314.512 73.4454C315.076 74.0574 315.814 74.3634 316.726 74.3634C317.434 74.3634 318.04 74.2014 318.544 73.8774C319.048 73.5414 319.354 73.0794 319.462 72.4914H320.794C320.626 73.4754 320.17 74.2374 319.426 74.7774C318.682 75.3174 317.782 75.5874 316.726 75.5874C315.826 75.5874 315.034 75.3774 314.35 74.9574C313.678 74.5374 313.156 73.9614 312.784 73.2294C312.412 72.4974 312.226 71.6754 312.226 70.7634ZM319.39 69.7734C319.33 68.9934 319.06 68.3634 318.58 67.8834C318.112 67.3914 317.482 67.1454 316.69 67.1454C315.898 67.1454 315.238 67.3794 314.71 67.8474C314.194 68.3154 313.864 68.9574 313.72 69.7734H319.39Z" fill="#190A0A"/>
<path d="M402.379 21.2307C401.253 21.2307 400.223 21.0084 399.289 20.5637C398.37 20.1191 397.629 19.4818 397.066 18.6518C396.518 17.8218 396.206 16.8584 396.132 15.7616H398.689C398.733 16.3544 398.919 16.8954 399.245 17.3845C399.586 17.8588 400.03 18.2368 400.579 18.5184C401.127 18.8 401.727 18.9408 402.379 18.9408C403.343 18.9408 404.114 18.7333 404.692 18.3183C405.284 17.9033 405.581 17.3475 405.581 16.6509C405.581 15.5393 404.877 14.7759 403.469 14.3609L400.712 13.5606C399.482 13.2197 398.511 12.7158 397.8 12.0488C397.103 11.367 396.755 10.3962 396.755 9.13636C396.755 8.30636 396.984 7.56528 397.444 6.91314C397.918 6.26099 398.57 5.75706 399.4 5.40134C400.23 5.0308 401.179 4.84554 402.246 4.84554C403.891 4.84554 405.24 5.26054 406.292 6.09054C407.345 6.92055 407.923 8.04698 408.026 9.46985H405.47C405.351 8.77324 405.003 8.21002 404.425 7.78019C403.862 7.33555 403.135 7.11323 402.246 7.11323C401.357 7.11323 400.66 7.29108 400.156 7.6468C399.652 8.00252 399.4 8.49163 399.4 9.11413C399.4 9.63288 399.571 10.0553 399.912 10.3814C400.253 10.6926 400.742 10.9372 401.379 11.115L404.18 11.9154C405.455 12.2711 406.448 12.7973 407.159 13.4939C407.871 14.1905 408.227 15.2206 408.227 16.5842C408.227 17.5031 407.982 18.3183 407.493 19.0297C407.019 19.7263 406.337 20.2673 405.448 20.6527C404.573 21.038 403.55 21.2307 402.379 21.2307ZM420.757 5.02339H423.336V21.0529H420.757V13.8051H413.064V21.0529H410.486V5.02339H413.064V11.5152H420.757V5.02339ZM426.4 5.02339H433.114C434.7 5.02339 435.952 5.44581 436.871 6.29063C437.79 7.13546 438.25 8.29154 438.25 9.75887C438.25 10.6778 438.02 11.5004 437.56 12.2266C437.116 12.9381 436.493 13.4717 435.693 13.8274C436.256 14.0793 436.686 14.4276 436.982 14.8723C437.294 15.3021 437.531 15.8801 437.694 16.6064L438.227 19.2076C438.376 20.0079 438.583 20.623 438.85 21.0529H436.071C435.834 20.6971 435.678 20.2451 435.604 19.6967L435.159 17.14C434.996 16.1914 434.618 15.5096 434.026 15.0946C433.447 14.6796 432.558 14.4721 431.358 14.4721H428.979V21.0529H426.4V5.02339ZM432.781 12.1822C433.67 12.1822 434.359 11.9747 434.848 11.5597C435.352 11.1299 435.604 10.5296 435.604 9.75887C435.604 8.98815 435.352 8.38788 434.848 7.95805C434.359 7.52823 433.67 7.31332 432.781 7.31332H428.979V12.1822H432.781Z" fill="#190A0A"/>
<path d="M405.806 56.598C404.942 56.598 404.15 56.43 403.43 56.094C402.71 55.746 402.122 55.254 401.666 54.618C401.21 53.97 400.946 53.22 400.874 52.368H402.368C402.404 52.92 402.578 53.418 402.89 53.862C403.202 54.294 403.61 54.636 404.114 54.888C404.63 55.14 405.194 55.266 405.806 55.266C406.742 55.266 407.492 55.062 408.056 54.654C408.632 54.234 408.92 53.682 408.92 52.998C408.92 51.906 408.254 51.162 406.922 50.766L404.42 50.028C403.484 49.764 402.746 49.38 402.206 48.876C401.666 48.36 401.396 47.628 401.396 46.68C401.396 46.02 401.576 45.438 401.936 44.934C402.308 44.43 402.818 44.04 403.466 43.764C404.126 43.476 404.882 43.332 405.734 43.332C406.97 43.332 407.996 43.65 408.812 44.286C409.628 44.922 410.09 45.786 410.198 46.878H408.704C408.584 46.194 408.266 45.654 407.75 45.258C407.234 44.862 406.562 44.664 405.734 44.664C404.858 44.664 404.168 44.844 403.664 45.204C403.172 45.552 402.926 46.044 402.926 46.68C402.926 47.196 403.088 47.61 403.412 47.922C403.748 48.222 404.222 48.462 404.834 48.642L407.354 49.38C408.326 49.656 409.082 50.07 409.622 50.622C410.162 51.174 410.432 51.966 410.432 52.998C410.432 53.718 410.24 54.354 409.856 54.906C409.472 55.446 408.932 55.866 408.236 56.166C407.54 56.454 406.73 56.598 405.806 56.598ZM420.958 43.476H422.434V56.454H420.958V50.244H413.938V56.454H412.462V43.476H413.938V48.912H420.958V43.476ZM425.188 43.476H430.336C431.608 43.476 432.604 43.806 433.324 44.466C434.044 45.114 434.404 46.02 434.404 47.184C434.404 47.988 434.212 48.678 433.828 49.254C433.444 49.818 432.892 50.232 432.172 50.496C432.676 50.688 433.054 50.964 433.306 51.324C433.57 51.672 433.768 52.182 433.9 52.854L434.332 55.068C434.404 55.38 434.47 55.644 434.53 55.86C434.59 56.064 434.68 56.262 434.8 56.454H433.252C433.084 56.214 432.958 55.872 432.874 55.428L432.478 53.178C432.334 52.35 432.004 51.762 431.488 51.414C430.984 51.054 430.192 50.874 429.112 50.874H426.664V56.454H425.188V43.476ZM430.228 49.542C431.056 49.542 431.704 49.332 432.172 48.912C432.652 48.492 432.892 47.916 432.892 47.184C432.892 46.44 432.652 45.858 432.172 45.438C431.704 45.018 431.056 44.808 430.228 44.808H426.664V49.542H430.228ZM395.666 63.476H397.484L401.732 72.98C402.056 73.7 402.296 74.336 402.452 74.888C402.608 74.336 402.848 73.7 403.172 72.98L407.42 63.476H409.184V76.454H407.708V67.904C407.708 67.1 407.732 66.41 407.78 65.834C407.576 66.386 407.312 67.022 406.988 67.742L403.1 76.454H401.768L397.862 67.742C397.538 67.022 397.274 66.386 397.07 65.834C397.118 66.422 397.142 67.112 397.142 67.904V76.454H395.666V63.476ZM415.618 76.598C414.742 76.598 413.956 76.394 413.26 75.986C412.576 75.566 412.036 74.99 411.64 74.258C411.256 73.526 411.064 72.698 411.064 71.774C411.064 70.85 411.256 70.028 411.64 69.308C412.036 68.576 412.576 68.006 413.26 67.598C413.956 67.178 414.742 66.968 415.618 66.968C416.494 66.968 417.274 67.172 417.958 67.58C418.654 67.988 419.2 68.558 419.596 69.29C419.992 70.022 420.19 70.85 420.19 71.774C420.19 72.698 419.992 73.532 419.596 74.276C419.212 75.008 418.672 75.578 417.976 75.986C417.28 76.394 416.494 76.598 415.618 76.598ZM415.618 75.356C416.23 75.356 416.77 75.206 417.238 74.906C417.718 74.594 418.09 74.168 418.354 73.628C418.63 73.076 418.768 72.458 418.768 71.774C418.768 71.09 418.63 70.478 418.354 69.938C418.09 69.398 417.718 68.978 417.238 68.678C416.758 68.366 416.218 68.21 415.618 68.21C415.006 68.21 414.46 68.366 413.98 68.678C413.512 68.978 413.146 69.398 412.882 69.938C412.63 70.478 412.504 71.09 412.504 71.774C412.504 72.47 412.63 73.088 412.882 73.628C413.146 74.168 413.512 74.594 413.98 74.906C414.46 75.206 415.006 75.356 415.618 75.356ZM425.899 76.598C424.975 76.598 424.177 76.388 423.505 75.968C422.833 75.548 422.323 74.972 421.975 74.24C421.627 73.508 421.453 72.686 421.453 71.774C421.453 70.862 421.627 70.046 421.975 69.326C422.323 68.594 422.833 68.018 423.505 67.598C424.177 67.178 424.975 66.968 425.899 66.968C426.511 66.968 427.105 67.118 427.681 67.418C428.257 67.706 428.689 68.078 428.977 68.534V63.332H430.363V76.454H428.977V75.032C428.773 75.476 428.383 75.848 427.807 76.148C427.231 76.448 426.595 76.598 425.899 76.598ZM426.007 75.356C426.931 75.356 427.681 75.032 428.257 74.384C428.833 73.724 429.121 72.854 429.121 71.774C429.121 70.706 428.833 69.848 428.257 69.2C427.681 68.54 426.931 68.21 426.007 68.21C425.071 68.21 424.315 68.54 423.739 69.2C423.175 69.848 422.893 70.706 422.893 71.774C422.893 72.842 423.175 73.706 423.739 74.366C424.315 75.026 425.071 75.356 426.007 75.356ZM432.211 71.774C432.211 70.874 432.391 70.058 432.751 69.326C433.123 68.594 433.645 68.018 434.317 67.598C434.989 67.178 435.775 66.968 436.675 66.968C437.503 66.968 438.235 67.16 438.871 67.544C439.507 67.916 439.993 68.432 440.329 69.092C440.677 69.74 440.851 70.472 440.851 71.288C440.851 71.468 440.839 71.69 440.815 71.954H433.615C433.651 73.01 433.945 73.844 434.497 74.456C435.061 75.068 435.799 75.374 436.711 75.374C437.419 75.374 438.025 75.212 438.529 74.888C439.033 74.552 439.339 74.09 439.447 73.502H440.779C440.611 74.486 440.155 75.248 439.411 75.788C438.667 76.328 437.767 76.598 436.711 76.598C435.811 76.598 435.019 76.388 434.335 75.968C433.663 75.548 433.141 74.972 432.769 74.24C432.397 73.508 432.211 72.686 432.211 71.774ZM439.375 70.784C439.315 70.004 439.045 69.374 438.565 68.894C438.097 68.402 437.467 68.156 436.675 68.156C435.883 68.156 435.223 68.39 434.695 68.858C434.179 69.326 433.849 69.968 433.705 70.784H439.375Z" fill="#190A0A"/>
<defs>
<clipPath id="clip0_2_6719">
<rect width="46.785" height="25.2639" fill="white" transform="translate(16.019 1.01053)"/>
</clipPath>
</defs>
</svg>
