<svg width="80" height="80" viewBox="0 0 80 80" fill="none" xmlns="http://www.w3.org/2000/svg">
<path d="M50 2C38.005 10.1649 28 30.563 28 40.7574C28 48.9222 32.4774 53 38.005 53C43.5327 53 48.0008 48.9223 48.0008 42.8056C48.0008 32.6019 38.005 22.3981 50 2ZM45.7161 42.8056C45.7161 47.3626 42.4732 50.6699 38.005 50.6699C33.1683 50.6699 30.2848 46.9679 30.2848 40.7574C30.2848 36.1159 32.6709 28.8342 36.5033 21.7404C38.5301 18.0009 40.8149 14.5621 43.2194 11.6118C40.3819 21.2424 42.3903 28.3832 44.0946 34.4247C44.9699 37.5252 45.7161 40.203 45.7161 42.8056Z" fill="#6C6AB4"/>
<path d="M55 38C55 38.5565 55.257 39.0565 55.6701 39.4113C56.0832 39.7742 56.6524 40 57.2858 40H70V38H55Z" fill="#6C6AB4"/>
<path d="M54.9873 43.5338C55.1405 42.104 53.8862 40.8443 52.4255 40.999C54.2178 49.9466 46.9579 58.82 37.5523 58.7054C26.8735 58.7983 19.4103 47.7059 23.5798 38H7.32717C6.0416 38 5 39.0306 5 40.3027H20.4551C18.1936 50.8225 26.6546 61.1257 37.5523 60.9988C47.2488 61.0081 55.1343 53.1376 54.9873 43.5338Z" fill="#6C6AB4"/>
</svg>
