<svg width="113" height="113" viewBox="0 0 113 113" fill="none" xmlns="http://www.w3.org/2000/svg">
<circle cx="56.5" cy="56.5" r="55.685" fill="white" stroke="#645757" stroke-width="1.63"/>
<mask id="mask0_2_6758" style="mask-type:alpha" maskUnits="userSpaceOnUse" x="2" y="2" width="109" height="109">
<circle cx="56.5" cy="56.5" r="54.5" fill="#D9D9D9"/>
</mask>
<g mask="url(#mask0_2_6758)">
<path d="M30.0005 124H80.0005L73.1823 82H38.5232L30.0005 124Z" fill="url(#paint0_linear_2_6758)"/>
<path d="M79.7952 -72.0243C80.9995 -71.1585 81.1698 -70.4684 81.1698 -70.4684C82.0239 -67.8795 82.0091 -63.0518 82.6681 -53.0496C83.3271 -43.0473 81.1801 -17.6223 81.1801 -17.6223C80.2461 -0.383326 81.7917 21.8633 82.8781 39.8033C83.9645 57.7432 82.2343 67.0088 80.17 72.2044C77.8799 77.9733 71.2632 82.7807 71.2632 82.7807L39.9628 82.6847C39.9628 82.6847 33.3758 77.8368 31.1193 72.0539C29.087 66.8458 27.4154 57.5698 28.6101 39.6368C29.8065 21.7039 31.4885 -0.532889 30.6604 -17.7772C30.6604 -17.7772 28.6694 -43.215 29.3897 -53.213C30.1101 -63.211 30.1249 -68.0387 30.9949 -70.6223C30.9949 -70.6223 31.1694 -71.3114 32.379 -72.1698C32.379 -72.1698 33.4777 -81.2787 43.9721 -85.5828C47.5802 -87.0632 52.215 -87.1283 54.5217 -87.0488C55.1648 -87.0261 56.5803 -87.0235 57.2907 -87.0403C59.7841 -87.1033 64.7011 -87.002 68.2828 -85.5082C78.7507 -81.1398 79.7935 -72.0243 79.7935 -72.0243L79.7952 -72.0243Z" fill="#D3D0FF"/>
<path d="M32.1579 -72.5358C32.1579 -72.5358 35.6839 -75.1206 38.5732 -79.4258C40.6538 -82.5305 43.4281 -84.765 43.4281 -84.765C43.4281 -84.765 47.4077 -87.7735 55.7903 -87.3589C55.7903 -87.3589 48.7923 -88.0315 43.7755 -85.9758C33.253 -81.6579 32.1579 -72.5358 32.1579 -72.5358ZM32.1579 -72.5358C30.9433 -71.6713 30.7694 -70.9844 30.7694 -70.9844C29.8932 -68.3915 29.8783 -63.5529 29.1603 -53.5343C28.4422 -43.5156 30.435 -18.0142 30.435 -18.0142C31.2683 -0.728399 29.5811 21.5601 28.3773 39.5361C27.1826 57.5121 28.8544 66.8055 30.8914 72.0302C33.1527 77.8253 39.7581 82.6842 39.7581 82.6842L63.7247 82.7577L64.8643 82.7612" stroke="#3F3636" stroke-width="1.63" stroke-linecap="round" stroke-linejoin="round"/>
<path d="M79.6818 -72.39C79.6818 -72.39 76.1717 -74.9965 73.3089 -79.3193C71.2474 -82.4368 68.4868 -84.6882 68.4868 -84.6882C68.4868 -84.6882 63.9198 -87.7229 55.5348 -87.3597C55.5348 -87.3597 63.1428 -87.9876 68.1469 -85.9011C78.6427 -81.5187 79.6818 -72.39 79.6818 -72.39C80.8911 -71.5181 81.0608 -70.8302 81.0608 -70.8302C81.9211 -68.2319 81.9062 -63.3934 82.5628 -53.3705C83.2194 -43.3476 81.0702 -17.8589 81.0702 -17.8589C80.1308 -0.578571 81.6813 21.7199 82.7748 39.7029C83.8592 57.6858 82.1304 66.9688 80.0614 72.1809C77.7645 77.9621 71.1295 82.7803 71.1295 82.7803L47.1629 82.7068L46.0233 82.7033" fill="#D3D0FF"/>
<path d="M79.6818 -72.39C79.6818 -72.39 76.1717 -74.9965 73.3089 -79.3193C71.2474 -82.4368 68.4868 -84.6882 68.4868 -84.6882C68.4868 -84.6882 63.9198 -87.7229 55.5348 -87.3597C55.5348 -87.3597 63.1428 -87.9876 68.1469 -85.9011C78.6427 -81.5187 79.6818 -72.39 79.6818 -72.39ZM79.6818 -72.39C80.8911 -71.5181 81.0608 -70.8302 81.0608 -70.8302C81.9211 -68.2319 81.9062 -63.3934 82.5628 -53.3705C83.2194 -43.3476 81.0702 -17.8589 81.0702 -17.8589C80.1308 -0.578569 81.6813 21.7199 82.7748 39.7029C83.8592 57.6859 82.1304 66.9688 80.0614 72.1809C77.7645 77.9621 71.1295 82.7803 71.1295 82.7803L47.1629 82.7068L46.0233 82.7033" stroke="#3F3636" stroke-width="1.63" stroke-linecap="round" stroke-linejoin="round"/>
<path d="M67.5359 76.798C67.5359 76.798 72.5765 66.9645 73.3397 45.1886C74.0343 25.14 71.6074 -9.25304 71.6074 -9.25304C71.6074 -9.25304 69.4133 -39.9011 68.6296 -52.7281C67.8027 -66.2063 67.2631 -81.9356 67.2737 -85.3904C67.2737 -85.3904 66.0674 -87.203 55.7934 -87.2345C47.2287 -87.2608 43.7686 -85.562 43.7686 -85.562C43.758 -82.1072 43.3658 -66.2813 42.4562 -52.7993C41.5466 -39.3174 39.2118 -9.34338 39.2118 -9.34338C39.2118 -9.34338 36.5649 25.0341 37.1456 45.0867C37.7661 66.8667 42.7553 76.7311 42.7553 76.7311" fill="url(#paint1_linear_2_6758)"/>
<path d="M67.5359 76.798C67.5359 76.798 72.5765 66.9645 73.3397 45.1886C74.0343 25.14 71.6074 -9.25304 71.6074 -9.25304C71.6074 -9.25304 69.4133 -39.9011 68.6296 -52.7281C67.8027 -66.2063 67.2631 -81.9356 67.2737 -85.3904C67.2737 -85.3904 66.0674 -87.203 55.7934 -87.2345C47.2287 -87.2608 43.7686 -85.562 43.7686 -85.562C43.758 -82.1072 43.3658 -66.2813 42.4562 -52.7993C41.5466 -39.3174 39.2118 -9.34338 39.2118 -9.34338C39.2118 -9.34338 36.5649 25.0341 37.1456 45.0867C37.7661 66.8667 42.7553 76.7311 42.7553 76.7311" stroke="#3F3636" stroke-width="1.63" stroke-linecap="round" stroke-linejoin="round"/>
<path d="M32.6547 75.2281C36.7099 77.0584 55.033 77.1236 55.033 77.1236L55.2953 77.1245C55.2953 77.1245 73.6094 77.1806 77.6848 75.3662" stroke="#3F3636" stroke-width="1.63" stroke-linecap="round" stroke-linejoin="round"/>
<path d="M56.5693 20.578C56.5693 20.578 56.5784 20.578 56.5874 20.5781C56.5874 20.5781 56.5874 20.5781 56.5965 20.5781L56.6055 20.5781L56.6055 20.5962C56.6055 20.5962 56.6055 20.5962 56.6054 20.6052C56.6054 20.6052 56.6054 20.6143 56.6054 20.6233C56.6054 20.6233 56.6054 20.6233 56.6053 20.6324C56.6053 20.6324 56.6053 20.6414 56.6053 20.6505C56.6053 20.6505 56.6053 20.6505 56.6053 20.6595L56.6052 20.6776C56.6052 20.6776 56.6052 20.6776 56.6052 20.6866C56.6052 20.6866 56.6051 20.6957 56.6051 20.7047C56.6051 20.7047 56.6051 20.7047 56.6051 20.7138C56.6051 20.7138 56.6051 20.7138 56.6051 20.7228C56.6051 20.7228 56.6051 20.7228 56.605 20.7319C56.605 20.7319 56.605 20.7319 56.605 20.7409C56.605 20.7409 56.605 20.7409 56.596 20.7409L56.5869 20.7408C56.5869 20.7408 56.5869 20.7408 56.5869 20.7499C56.5869 20.7499 56.5869 20.7499 56.5778 20.7499C56.5778 20.7499 56.5688 20.7498 56.5598 20.7498C56.5598 20.7498 56.5507 20.7498 56.5417 20.7497C56.5417 20.7497 56.5326 20.7497 56.5236 20.7497C56.5236 20.7497 56.5236 20.7497 56.5145 20.7497C56.5145 20.7497 56.5055 20.7496 56.4964 20.7496L56.4784 20.7496C56.4784 20.7496 56.4693 20.7495 56.4603 20.7495C56.4603 20.7495 56.4603 20.7495 56.4512 20.7495C56.4512 20.7495 56.4512 20.7495 56.4422 20.7494C56.4422 20.7494 56.4422 20.7494 56.4331 20.7494L56.4241 20.7494L56.4241 20.7313C56.4241 20.7313 56.4241 20.7313 56.4242 20.7223C56.4242 20.7223 56.4242 20.7223 56.4242 20.7132C56.4242 20.7132 56.4242 20.7132 56.4242 20.7042C56.4242 20.7042 56.4242 20.7042 56.4243 20.6951C56.4243 20.6951 56.4243 20.6861 56.4243 20.677C56.4243 20.677 56.4243 20.668 56.4244 20.6589C56.4244 20.6589 56.4244 20.659 56.4244 20.6499C56.4244 20.6499 56.4244 20.6409 56.4244 20.6318L56.4245 20.6047C56.4245 20.6047 56.4246 20.5956 56.4246 20.5866C56.4246 20.5866 56.4246 20.5866 56.4246 20.5776C56.4246 20.5776 56.4246 20.5776 56.4246 20.5685L56.4247 20.5504C56.4247 20.5504 56.4247 20.5504 56.4247 20.5414C56.4247 20.5414 56.4247 20.5414 56.4248 20.5323C56.4248 20.5323 56.4248 20.5323 56.4248 20.5233C56.4248 20.5233 56.4248 20.5142 56.4339 20.5052C56.4339 20.5052 56.4429 20.5053 56.452 20.4962C56.452 20.4962 56.452 20.4962 56.461 20.4963C56.461 20.4963 56.4701 20.4963 56.4791 20.4963C56.4791 20.4963 56.4882 20.4963 56.4972 20.4964C56.4972 20.4964 56.5063 20.4964 56.5153 20.4964C56.5153 20.4964 56.5153 20.4964 56.5244 20.4965L56.5334 20.4965C56.5334 20.4965 56.5334 20.4965 56.5424 20.4965C56.5424 20.4965 56.5515 20.4965 56.5605 20.4966L56.5786 20.4966L56.5693 20.578Z" fill="#3F3636"/>
<path d="M57.6939 20.5779C57.6939 20.5779 57.7029 20.5779 57.712 20.578L57.73 20.578L57.73 20.5871L57.7391 20.5871C57.7391 20.5871 57.7391 20.5871 57.739 20.5961C57.739 20.5961 57.739 20.5961 57.7481 20.5962L57.7571 20.5962L57.7571 20.6143C57.7571 20.6143 57.7571 20.6143 57.757 20.6233C57.757 20.6233 57.757 20.6233 57.757 20.6324C57.757 20.6324 57.757 20.6324 57.757 20.6414C57.757 20.6414 57.757 20.6505 57.7569 20.6595C57.7569 20.6595 57.7569 20.6776 57.7568 20.6866L57.7568 20.7138L57.7567 20.7409C57.7567 20.7409 57.7567 20.7499 57.7566 20.759C57.7566 20.759 57.7566 20.759 57.7566 20.768C57.7566 20.768 57.7566 20.7771 57.7565 20.7861C57.7565 20.7861 57.7565 20.7952 57.7565 20.8042C57.7565 20.8042 57.7565 20.8042 57.7565 20.8133C57.7565 20.8133 57.7565 20.8133 57.7564 20.8223C57.7564 20.8223 57.7564 20.8223 57.7564 20.8313C57.7564 20.8313 57.7474 20.8313 57.7383 20.8403L57.7292 20.8403C57.7292 20.8403 57.7292 20.8403 57.7292 20.8493C57.7292 20.8493 57.7292 20.8493 57.7202 20.8493L57.7021 20.8493C57.7021 20.8493 57.693 20.8492 57.684 20.8492C57.684 20.8492 57.684 20.8492 57.675 20.8492C57.675 20.8492 57.6659 20.8491 57.6569 20.8491C57.6569 20.8491 57.6569 20.8491 57.6478 20.8491C57.6478 20.8491 57.6478 20.8491 57.6388 20.8491C57.6388 20.8491 57.6297 20.849 57.6207 20.849L57.6026 20.849C57.6026 20.849 57.5936 20.8489 57.5845 20.8489L57.5755 20.8489L57.5755 20.8308C57.5755 20.8308 57.5755 20.8308 57.5756 20.8217C57.5756 20.8217 57.5756 20.8217 57.5756 20.8127C57.5756 20.8127 57.5756 20.8127 57.5756 20.8037C57.5756 20.8037 57.5756 20.8037 57.5756 20.7946C57.5756 20.7946 57.5757 20.7856 57.5757 20.7765C57.5757 20.7765 57.5757 20.7765 57.5757 20.7675C57.5757 20.7675 57.5757 20.7584 57.5758 20.7494L57.5758 20.7313C57.5758 20.7313 57.5758 20.7313 57.5759 20.7223C57.5759 20.7223 57.5759 20.7132 57.5759 20.7042L57.576 20.6861L57.585 20.6861C57.585 20.6861 57.585 20.6861 57.585 20.6771C57.585 20.6771 57.5851 20.659 57.5942 20.65C57.5942 20.65 57.5942 20.65 57.6032 20.65L57.6123 20.65C57.6123 20.65 57.6123 20.65 57.6123 20.641L57.6304 20.641L57.6304 20.632L57.6485 20.632C57.6485 20.632 57.6575 20.6321 57.6666 20.6321C57.6666 20.6321 57.6666 20.6321 57.6756 20.6321C57.6756 20.6321 57.6847 20.6322 57.6937 20.6322C57.6937 20.6322 57.6937 20.6322 57.7028 20.6322C57.7028 20.6322 57.7028 20.6322 57.7118 20.6322C57.7118 20.6322 57.7208 20.6323 57.7299 20.6323L57.748 20.6323L57.6939 20.5779Z" fill="#3F3636"/>
<path d="M53.1573 20.5544C53.1573 20.5544 53.1573 20.5544 53.1483 20.5544C53.1483 20.5544 53.1392 20.5544 53.1302 20.5544L53.1121 20.5543C53.1121 20.5543 53.1031 20.5543 53.094 20.5543L53.0759 20.5542L53.0759 20.5632L53.0668 20.5632C53.0668 20.5632 53.0578 20.5813 53.0487 20.5812L53.0397 20.5812L53.0396 20.5993C53.0396 20.5993 53.0396 20.5993 53.0396 20.6083C53.0396 20.6083 53.0395 20.6174 53.0395 20.6264C53.0395 20.6264 53.0395 20.6264 53.0395 20.6355C53.0395 20.6355 53.0395 20.6445 53.0394 20.6536C53.0394 20.6536 53.0394 20.6626 53.0394 20.6717C53.0394 20.6717 53.0394 20.6807 53.0393 20.6897C53.0393 20.6897 53.0393 20.7078 53.0392 20.7169L53.0392 20.735C53.0392 20.735 53.0392 20.735 53.0392 20.744C53.0392 20.744 53.0391 20.7621 53.0391 20.7711C53.0391 20.7711 53.0391 20.7711 53.039 20.7802C53.039 20.7802 53.039 20.7892 53.039 20.7983C53.039 20.7983 53.039 20.7983 53.039 20.8073C53.039 20.8073 53.039 20.8073 53.0389 20.8164C53.0389 20.8164 53.0389 20.8164 53.0389 20.8254L53.0389 20.8344C53.0389 20.8344 53.0389 20.8344 53.0479 20.8345L53.057 20.8345C53.057 20.8345 53.057 20.8345 53.0569 20.8435L53.075 20.8436L53.075 20.8527L53.0931 20.8527C53.0931 20.8527 53.1021 20.8527 53.1112 20.8528C53.1112 20.8528 53.1112 20.8528 53.1202 20.8528C53.1202 20.8528 53.1293 20.8528 53.1383 20.8528C53.1383 20.8528 53.1383 20.8528 53.1474 20.8529C53.1474 20.8529 53.1474 20.8529 53.1564 20.8529C53.1564 20.8529 53.1654 20.8529 53.1745 20.853L53.1926 20.853C53.1926 20.853 53.2016 20.853 53.2107 20.8531C53.2107 20.8531 53.2107 20.8531 53.2197 20.8531C53.2197 20.8531 53.2197 20.8531 53.2288 20.8531L53.2378 20.8531L53.2378 20.8351C53.2378 20.8351 53.2378 20.8351 53.2379 20.826C53.2379 20.826 53.2379 20.826 53.2379 20.817C53.2379 20.817 53.2379 20.817 53.2379 20.8079C53.2379 20.8079 53.2379 20.8079 53.238 20.7989C53.238 20.7989 53.238 20.7898 53.238 20.7808C53.238 20.7808 53.238 20.7808 53.238 20.7717C53.238 20.7717 53.238 20.7718 53.2381 20.7627C53.2381 20.7627 53.2381 20.7537 53.2381 20.7446L53.2382 20.7175C53.2382 20.7175 53.2382 20.7084 53.2383 20.6994C53.2383 20.6994 53.2383 20.6994 53.2383 20.6904C53.2383 20.6904 53.2383 20.6904 53.2383 20.6813C53.2383 20.6813 53.2383 20.6723 53.2384 20.6632L53.2384 20.6451L53.2294 20.6451C53.2294 20.6451 53.2294 20.6451 53.2294 20.6361C53.2294 20.6361 53.2295 20.618 53.2205 20.6089L53.2205 20.5999C53.2205 20.5999 53.2205 20.5999 53.2114 20.5998L53.2024 20.5998C53.2024 20.5998 53.2024 20.5998 53.2024 20.5908L53.1843 20.5907L53.1844 20.5817L53.1663 20.5816C53.1663 20.5816 53.1572 20.5816 53.1482 20.5815C53.1482 20.5815 53.1482 20.5815 53.1391 20.5815C53.1391 20.5815 53.1301 20.5815 53.1211 20.5815C53.1211 20.5815 53.1211 20.5815 53.112 20.5814L53.1573 20.5544Z" fill="#3F3636"/>
<path d="M54.2624 20.5614C54.2624 20.5614 54.2624 20.5614 54.2533 20.5613C54.2533 20.5613 54.2443 20.5613 54.2352 20.5613L54.2171 20.5612C54.2171 20.5612 54.2081 20.5612 54.1991 20.5612L54.19 20.5612L54.1899 20.5792C54.1899 20.5792 54.1899 20.5792 54.1899 20.5883C54.1899 20.5883 54.1899 20.5973 54.1899 20.6064C54.1899 20.6064 54.1899 20.6064 54.1898 20.6154C54.1898 20.6154 54.1898 20.6245 54.1898 20.6335C54.1898 20.6335 54.1898 20.6335 54.1898 20.6426C54.1898 20.6426 54.1898 20.6426 54.1897 20.6516C54.1897 20.6516 54.1897 20.6606 54.1897 20.6697L54.1896 20.6968C54.1896 20.6968 54.1896 20.7059 54.1895 20.7149L54.1895 20.733C54.1895 20.733 54.1895 20.733 54.1894 20.742C54.1894 20.742 54.1894 20.7511 54.1894 20.7601C54.1894 20.7601 54.1894 20.7601 54.1894 20.7692C54.1894 20.7692 54.1894 20.7692 54.1893 20.7782C54.1893 20.7782 54.1893 20.7782 54.1893 20.7873C54.1893 20.7873 54.1893 20.7873 54.1893 20.7963L54.1893 20.8053C54.1893 20.8053 54.1893 20.8053 54.1983 20.8054L54.2073 20.8054C54.2073 20.8054 54.2073 20.8054 54.2073 20.8144C54.2073 20.8144 54.2073 20.8144 54.2164 20.8145C54.2164 20.8145 54.2254 20.8145 54.2344 20.8145C54.2344 20.8145 54.2435 20.8146 54.2525 20.8146C54.2525 20.8146 54.2616 20.8146 54.2706 20.8146C54.2706 20.8146 54.2706 20.8146 54.2797 20.8147C54.2797 20.8147 54.2887 20.8147 54.2978 20.8147L54.3159 20.8148C54.3159 20.8148 54.3249 20.8148 54.3339 20.8148C54.3339 20.8148 54.3339 20.8148 54.343 20.8149C54.343 20.8149 54.343 20.8149 54.352 20.8149C54.352 20.8149 54.352 20.8149 54.3611 20.8149L54.3701 20.8149L54.3702 20.7969C54.3702 20.7969 54.3702 20.7969 54.3702 20.7878C54.3702 20.7878 54.3702 20.7878 54.3702 20.7788C54.3702 20.7788 54.3702 20.7788 54.3703 20.7697C54.3703 20.7697 54.3703 20.7697 54.3703 20.7607C54.3703 20.7607 54.3703 20.7516 54.3703 20.7426C54.3703 20.7426 54.3704 20.7245 54.3704 20.7155C54.3704 20.7155 54.3704 20.7155 54.3705 20.7064C54.3705 20.7064 54.3705 20.6883 54.3705 20.6793L54.3706 20.6521C54.3706 20.6521 54.3706 20.6431 54.3707 20.6341C54.3707 20.6341 54.3707 20.6341 54.3707 20.625L54.3708 20.6069C54.3708 20.6069 54.3708 20.5979 54.3708 20.5888C54.3708 20.5888 54.3708 20.5888 54.3708 20.5798C54.3708 20.5798 54.3708 20.5798 54.3709 20.5708C54.3709 20.5708 54.3709 20.5617 54.3709 20.5527C54.3709 20.5527 54.3709 20.5527 54.3709 20.5436C54.3709 20.5436 54.371 20.5346 54.362 20.5255C54.362 20.5255 54.362 20.5255 54.3529 20.5255C54.3529 20.5255 54.3439 20.5255 54.3348 20.5254C54.3348 20.5254 54.3258 20.5254 54.3167 20.5254C54.3167 20.5254 54.3077 20.5253 54.2987 20.5253C54.2987 20.5253 54.2986 20.5253 54.2896 20.5253L54.2624 20.5614Z" fill="#3F3636"/>
<path d="M55.1435 20.8065C55.1435 20.8065 55.1435 20.8065 55.1434 20.8155C55.1434 20.8155 55.1434 20.8155 55.1434 20.8245L55.1434 20.8426C55.1434 20.8426 55.1433 20.8517 55.1433 20.8607C55.1433 20.8607 55.1433 20.8607 55.1433 20.8698L55.1432 20.8878L55.1432 20.9059L55.1522 20.906C55.1522 20.906 55.1522 20.915 55.1522 20.9241C55.1522 20.9241 55.1522 20.9241 55.1521 20.9331C55.1521 20.9331 55.1521 20.9331 55.1612 20.9331C55.1612 20.9331 55.1612 20.9331 55.1702 20.9332L55.1883 20.9332L55.1883 20.9422C55.1883 20.9422 55.1883 20.9422 55.1973 20.9423C55.1973 20.9423 55.2064 20.9423 55.2154 20.9423C55.2154 20.9423 55.2154 20.9423 55.2245 20.9424C55.2245 20.9424 55.2335 20.9424 55.2425 20.9424L55.2516 20.9424C55.2516 20.9424 55.2606 20.9425 55.2697 20.9425L55.2878 20.9426C55.2878 20.9426 55.2968 20.9426 55.3059 20.9426C55.3059 20.9426 55.3058 20.9426 55.3149 20.9426C55.3149 20.9426 55.3149 20.9426 55.3239 20.9427C55.3239 20.9427 55.3239 20.9427 55.333 20.9427C55.333 20.9427 55.333 20.9427 55.342 20.9427L55.3511 20.9427L55.3511 20.9247C55.3511 20.9247 55.3511 20.9247 55.3512 20.9156C55.3512 20.9156 55.3512 20.9156 55.3512 20.9066C55.3512 20.9066 55.3512 20.9066 55.3512 20.8975C55.3512 20.8975 55.3512 20.8975 55.3512 20.8885C55.3512 20.8885 55.3512 20.8885 55.3513 20.8794C55.3513 20.8794 55.3513 20.8704 55.3513 20.8614C55.3513 20.8614 55.3514 20.8523 55.3514 20.8433C55.3514 20.8433 55.3514 20.8433 55.3514 20.8342L55.3515 20.8161C55.3515 20.8161 55.3515 20.8161 55.3515 20.8071C55.3515 20.8071 55.3515 20.789 55.3516 20.78C55.3516 20.78 55.3516 20.78 55.3516 20.7709C55.3516 20.7709 55.3516 20.7709 55.3516 20.7619L55.3517 20.7438C55.3517 20.7438 55.3517 20.7347 55.3517 20.7257C55.3517 20.7257 55.3517 20.7257 55.3518 20.7166C55.3518 20.7166 55.3518 20.7076 55.3428 20.6985C55.3428 20.6985 55.3428 20.6985 55.3428 20.6895C55.3428 20.6895 55.3428 20.6895 55.3428 20.6804L55.3429 20.6714C55.3429 20.6714 55.3429 20.6714 55.3338 20.6714C55.3338 20.6714 55.3338 20.6714 55.3248 20.6713C55.3248 20.6713 55.3248 20.6713 55.3157 20.6713C55.3157 20.6713 55.3157 20.6713 55.3067 20.6713C55.3067 20.6713 55.2976 20.6713 55.2886 20.6712C55.2886 20.6712 55.2795 20.6712 55.2705 20.6712C55.2705 20.6712 55.2615 20.6712 55.2524 20.6711C55.2524 20.6711 55.2524 20.6711 55.2434 20.6711L55.2343 20.6711C55.2343 20.6711 55.2343 20.6711 55.2253 20.671C55.2253 20.671 55.2162 20.671 55.2072 20.671L55.1891 20.6709C55.1891 20.6709 55.1801 20.6709 55.171 20.6709C55.171 20.6709 55.171 20.6709 55.162 20.6709L55.1529 20.6708C55.1529 20.6708 55.1529 20.6708 55.1529 20.6799C55.1529 20.6799 55.1529 20.6799 55.1529 20.6889C55.1529 20.6889 55.1529 20.6889 55.1529 20.698C55.1529 20.698 55.1528 20.707 55.1437 20.716L55.1437 20.7341C55.1437 20.7341 55.1437 20.7341 55.1437 20.7431L55.1436 20.7612C55.1436 20.7612 55.1436 20.7612 55.1436 20.7703C55.1436 20.7703 55.1436 20.7703 55.1436 20.7793C55.1436 20.7793 55.1436 20.7793 55.1435 20.7884L55.1435 20.8065Z" fill="#3F3636"/>
<path fill-rule="evenodd" clip-rule="evenodd" d="M56.7504 16.3101L56.7504 16.301L56.7413 16.301L56.7414 16.2919L56.7323 16.2829L56.7233 16.2738L56.7143 16.2738L56.7143 16.2647L56.7053 16.2647L56.6962 16.2556L56.6872 16.2556L56.6782 16.2556L56.6691 16.2555L56.6601 16.2555L56.3345 16.2545L56.4254 16.092L56.4345 16.0739L56.4346 16.0649L56.4346 16.0559L56.4437 16.0468L56.4437 16.0287L56.4437 16.0197L56.4438 16.0107L56.4347 16.0106L56.4348 16.0016L56.4348 15.9925L56.4348 15.9835L56.4258 15.9835L56.4258 15.9744L56.4258 15.9654L56.4168 15.9654L56.4168 15.9563L56.4078 15.9563L56.4078 15.9472L56.3987 15.9472L56.3988 15.9382L56.3897 15.9381L56.3807 15.9291L56.3717 15.929L56.3626 15.929L56.3626 15.92L56.3536 15.9199L56.3446 15.9199L56.3355 15.9199L56.3265 15.9199L56.3174 15.9198L56.3084 15.9198L56.2993 15.9198L56.2903 15.9197L56.2903 15.9288L56.2812 15.9288L56.2722 15.9287L56.2722 15.9378L56.2631 15.9377L56.2541 15.9377L56.254 15.9468L56.245 15.9467L56.245 15.9558L56.2359 15.9558L56.2359 15.9648L56.2359 15.9738L56.2268 15.9738L56.0722 16.2537L55.5657 16.2522L55.6748 16.0716L55.8203 15.8188L56.1369 15.8198L56.1459 15.8198L56.1549 15.8198L56.164 15.8199L56.1731 15.8109L56.1821 15.8109L56.1911 15.8109L56.1912 15.8019L56.2002 15.8019L56.2093 15.8019L56.2093 15.7929L56.2183 15.7929L56.2184 15.7839L56.2274 15.7839L56.2274 15.7748L56.2365 15.7749L56.2365 15.7658L56.2365 15.7568L56.2456 15.7568L56.2456 15.7478L56.2456 15.7387L56.2547 15.7297L56.2548 15.6845L56.2549 15.6755L56.2458 15.6754L56.2458 15.6664L56.2459 15.6573L56.2369 15.6483L56.2369 15.6392L56.2279 15.6392L56.2279 15.6301L56.2188 15.6301L56.2189 15.6211L56.2098 15.621L56.2098 15.612L56.2008 15.612L56.2008 15.6029L56.1918 15.6029L56.1827 15.6029L56.1828 15.5938L56.1737 15.5938L56.1647 15.5938L56.1556 15.5937L56.1466 15.5937L56.1375 15.5937L55.9567 15.5931L56.1203 15.3042L56.1204 15.2952L56.1294 15.2952L56.1295 15.2862L56.1295 15.2771L56.1295 15.2681L56.1206 15.2138L56.1206 15.2047L56.1116 15.1957L56.1117 15.1866L56.1026 15.1866L56.1027 15.1776L56.0936 15.1775L56.0846 15.1775L56.0846 15.1685L56.0756 15.1684L56.0665 15.1684L56.0665 15.1594L56.0575 15.1593L56.0484 15.1593L56.0394 15.1593L56.0304 15.1592L56.0213 15.1592L56.0123 15.1592L55.9941 15.1682L55.9851 15.1681L55.9851 15.1772L55.976 15.1772L55.976 15.1862L55.967 15.1862L55.9669 15.1952L55.9579 15.1952L55.9579 15.2042L55.9488 15.2042L55.7851 15.4931L55.6952 15.3301L55.6862 15.33L55.6862 15.321L55.6772 15.3119L55.6772 15.3029L55.6681 15.3028L55.6591 15.2938L55.6501 15.2937L55.6501 15.2847L55.6411 15.2847L55.632 15.2846L55.6321 15.2756L55.623 15.2756L55.614 15.2755L55.6049 15.2755L55.5959 15.2755L55.5868 15.2755L55.5778 15.2754L55.5687 15.2754L55.5597 15.2754L55.5506 15.2844L55.5416 15.2844L55.5325 15.2843L55.5325 15.2934L55.5235 15.2933L55.5234 15.3024L55.5144 15.3024L55.5144 15.3114L55.5053 15.3114L55.5053 15.3204L55.4963 15.3204L55.4962 15.3294L55.4962 15.3385L55.4872 15.3385L55.4871 15.3475L55.4871 15.3565L55.478 15.3656L55.478 15.3746L55.478 15.3837L55.4779 15.3927L55.4779 15.4017L55.4779 15.4108L55.4869 15.4108L55.4869 15.4199L55.4869 15.4289L55.4868 15.4379L55.4959 15.438L55.6488 15.7188L55.4488 16.0619L55.4033 16.1522L55.3583 16.0616L55.1514 15.7173L55.315 15.4465L55.315 15.4374L55.3241 15.4374L55.3241 15.4284L55.3241 15.4194L55.3241 15.4103L55.3332 15.4103L55.3332 15.4013L55.3332 15.3923L55.3333 15.3832L55.3333 15.3742L55.3333 15.3651L55.3243 15.3651L55.3243 15.356L55.3243 15.347L55.3244 15.338L55.3153 15.3379L55.3153 15.3289L55.3154 15.3198L55.3063 15.3198L55.3064 15.3108L55.2973 15.3107L55.2973 15.3017L55.2883 15.3017L55.2883 15.2926L55.2793 15.2926L55.2703 15.2835L55.2612 15.2835L55.2522 15.2835L55.2522 15.2744L55.2432 15.2744L55.2341 15.2744L55.2251 15.2743L55.216 15.2743L55.207 15.2743L55.1979 15.2743L55.1889 15.2742L55.1799 15.2742L55.1798 15.2833L55.1708 15.2832L55.1617 15.2832L55.1617 15.2922L55.1527 15.2922L55.1436 15.2922L55.1436 15.3012L55.1345 15.3012L55.1345 15.3102L55.1255 15.3193L55.1164 15.3283L55.0254 15.4908L54.8635 15.2009L54.8545 15.2009L54.8545 15.1918L54.8455 15.1918L54.8455 15.1827L54.8365 15.1827L54.8365 15.1737L54.8274 15.1736L54.8275 15.1646L54.8184 15.1646L54.8094 15.1645L54.8094 15.1555L54.8004 15.1555L54.7913 15.1554L54.7823 15.1554L54.7732 15.1554L54.7642 15.1554L54.7551 15.1553L54.7461 15.1553L54.7461 15.1643L54.737 15.1643L54.728 15.1643L54.728 15.1733L54.7189 15.1733L54.7099 15.1733L54.7098 15.1823L54.7008 15.1823L54.7008 15.1913L54.6917 15.2004L54.6917 15.2094L54.6826 15.2094L54.6826 15.2184L54.6826 15.2275L54.6825 15.2636L54.6824 15.2727L54.6824 15.2817L54.6824 15.2908L54.6914 15.2908L54.6914 15.2998L54.8533 15.5898L54.6724 15.5892L54.6634 15.5892L54.6543 15.5891L54.6453 15.5891L54.6362 15.5891L54.6272 15.5981L54.6181 15.5981L54.6091 15.598L54.6091 15.6071L54.6 15.6071L54.6 15.6161L54.5909 15.6161L54.5819 15.6251L54.5818 15.6341L54.5728 15.6341L54.5728 15.6432L54.5637 15.6431L54.5637 15.6522L54.5637 15.6612L54.5546 15.6702L54.5546 15.6793L54.5544 15.7245L54.5544 15.7335L54.5635 15.7336L54.5634 15.7426L54.5634 15.7517L54.5724 15.7517L54.5724 15.7607L54.5724 15.7698L54.5814 15.7698L54.5814 15.7788L54.5904 15.7789L54.5904 15.7879L54.5995 15.7879L54.5994 15.797L54.6085 15.797L54.6175 15.797L54.6175 15.8061L54.6265 15.8061L54.6356 15.8061L54.6355 15.8152L54.6446 15.8152L54.6536 15.8152L54.6627 15.8153L54.6717 15.8153L54.9883 15.8163L55.1322 16.0699L55.2311 16.2511L54.7337 16.2496L54.6348 16.0684L54.5808 15.9688L54.5718 15.9687L54.5718 15.9597L54.5628 15.9506L54.5628 15.9416L54.5538 15.9416L54.5448 15.9325L54.5357 15.9324L54.5357 15.9234L54.5267 15.9234L54.5176 15.9234L54.5177 15.9143L54.5086 15.9143L54.4996 15.9143L54.4905 15.9142L54.4815 15.9142L54.4725 15.9142L54.4634 15.9141L54.4544 15.9141L54.4453 15.9141L54.4362 15.9231L54.4272 15.9231L54.4182 15.923L54.4181 15.9321L54.4091 15.9321L54.4091 15.9411L54.4 15.9411L54.4 15.9501L54.391 15.9501L54.3909 15.9591L54.3819 15.9591L54.3818 15.9682L54.3818 15.9772L54.3728 15.9772L54.3727 15.9862L54.3727 15.9953L54.3637 16.0043L54.3636 16.0133L54.3636 16.0224L54.3635 16.0405L54.3635 16.0495L54.3726 16.0495L54.3725 16.0586L54.3725 16.0676L54.3815 16.0857L54.4714 16.2488L54.1458 16.2478L54.1368 16.2478L54.1278 16.2477L54.1187 16.2477L54.1097 16.2477L54.1006 16.2477L54.1006 16.2567L54.0916 16.2567L54.0825 16.2657L54.0734 16.2657L54.0734 16.2747L54.0644 16.2747L54.0643 16.2837L54.0553 16.2927L54.0552 16.3018L54.055 16.3741L54.055 16.3832L54.055 16.3922L54.064 16.3923L54.064 16.4013L54.073 16.4104L54.082 16.4104L54.082 16.4194L54.0911 16.4195L54.091 16.4285L54.1001 16.4285L54.1091 16.4286L54.1091 16.4376L54.1181 16.4376L54.1272 16.4377L54.1362 16.4377L54.1453 16.4377L54.4708 16.4387L54.3799 16.6012L54.3799 16.6103L54.3708 16.6103L54.3708 16.6193L54.3708 16.6283L54.3617 16.6283L54.3617 16.6374L54.3617 16.6464L54.3617 16.6554L54.3616 16.6645L54.3616 16.6735L54.3616 16.6826L54.3706 16.6826L54.3706 16.6917L54.3706 16.7007L54.3705 16.7097L54.3796 16.7098L54.3795 16.7188L54.3886 16.7279L54.3885 16.7369L54.3976 16.737L54.3975 16.746L54.4066 16.746L54.4066 16.7551L54.4156 16.7551L54.4247 16.7551L54.4246 16.7642L54.4337 16.7642L54.4427 16.7642L54.4518 16.7643L54.4517 16.7733L54.4608 16.7733L54.4698 16.7733L54.4789 16.7734L54.4879 16.7734L54.497 16.7734L54.506 16.7735L54.506 16.7644L54.5151 16.7644L54.5241 16.7645L54.5332 16.7555L54.5422 16.7555L54.5423 16.7464L54.5513 16.7465L54.5604 16.7375L54.5604 16.7284L54.5694 16.7284L54.5695 16.7194L54.5785 16.7194L54.7331 16.4395L55.2305 16.4411L54.985 16.8744L54.6685 16.8734L54.6594 16.8734L54.6504 16.8734L54.6414 16.8734L54.6323 16.8733L54.6232 16.8824L54.6142 16.8823L54.6051 16.8823L54.6051 16.8913L54.5961 16.8913L54.596 16.9004L54.587 16.9003L54.5779 16.9093L54.5779 16.9184L54.5689 16.9184L54.5688 16.9274L54.5598 16.9274L54.5598 16.9364L54.5597 16.9455L54.5507 16.9545L54.5506 16.9635L54.5506 16.9816L54.5505 16.9907L54.5505 16.9997L54.5505 17.0087L54.5505 17.0178L54.5595 17.0178L54.5595 17.0269L54.5595 17.0359L54.5685 17.045L54.5684 17.054L54.5775 17.054L54.5775 17.0631L54.5865 17.0631L54.5865 17.0722L54.5955 17.0722L54.5955 17.0812L54.6045 17.0813L54.6136 17.0813L54.6136 17.0903L54.6226 17.0904L54.6316 17.0904L54.6316 17.0994L54.6407 17.0995L54.6497 17.0995L54.6587 17.0995L54.6678 17.0995L54.8487 17.1001L54.685 17.389L54.6759 17.398L54.6759 17.4071L54.6759 17.4161L54.6758 17.4252L54.6847 17.4795L54.6847 17.4885L54.6937 17.4885L54.6937 17.4976L54.7027 17.5066L54.7118 17.5067L54.7117 17.5157L54.7208 17.5157L54.7207 17.5248L54.7298 17.5248L54.7388 17.5248L54.7479 17.5249L54.7479 17.5339L54.7569 17.5339L54.7659 17.534L54.775 17.534L54.784 17.534L54.7931 17.525L54.8112 17.5251L54.8112 17.516L54.8203 17.516L54.8293 17.5161L54.8293 17.507L54.8384 17.5071L54.8384 17.498L54.8474 17.498L54.8475 17.489L54.8565 17.48L55.0202 17.2001L55.1101 17.3632L55.1192 17.3632L55.1192 17.3723L55.1282 17.3813L55.1372 17.3904L55.1462 17.3904L55.1462 17.3995L55.1552 17.3995L55.1643 17.4086L55.1733 17.4086L55.1823 17.4086L55.1823 17.4177L55.1914 17.4177L55.2004 17.4177L55.2095 17.4178L55.2185 17.4178L55.2275 17.4178L55.2366 17.4178L55.2366 17.4088L55.2457 17.4088L55.2547 17.4088L55.2638 17.4089L55.2638 17.3998L55.2728 17.3999L55.2819 17.3908L55.2909 17.3909L55.291 17.3818L55.3 17.3819L55.3 17.3728L55.3091 17.3638L55.3091 17.3547L55.3182 17.3548L55.3182 17.3457L55.3182 17.3367L55.3183 17.3276L55.3273 17.3186L55.3274 17.3096L55.3274 17.3005L55.3274 17.2915L55.3274 17.2825L55.3184 17.2824L55.3184 17.2734L55.3185 17.2643L55.3185 17.2553L55.3094 17.2553L55.3095 17.2462L55.1475 16.9744L55.4021 16.5411L55.6449 16.9759L55.4904 17.2468L55.4903 17.2558L55.4813 17.2558L55.4812 17.2648L55.4812 17.2739L55.4722 17.2739L55.4722 17.2829L55.4721 17.2919L55.4721 17.301L55.4721 17.31L55.472 17.3191L55.472 17.3281L55.4811 17.3281L55.481 17.3372L55.481 17.3462L55.481 17.3553L55.49 17.3553L55.49 17.3643L55.49 17.3734L55.499 17.3734L55.499 17.3825L55.508 17.3825L55.508 17.3915L55.517 17.3916L55.517 17.4006L55.5261 17.4006L55.5351 17.4007L55.5351 17.4097L55.5441 17.4097L55.5532 17.4098L55.5622 17.4188L55.5712 17.4189L55.5803 17.4189L55.5893 17.4189L55.5984 17.4189L55.6074 17.419L55.6164 17.419L55.6165 17.41L55.6255 17.41L55.6345 17.41L55.6436 17.401L55.6527 17.401L55.6527 17.392L55.6617 17.392L55.6618 17.383L55.6708 17.383L55.6708 17.3739L55.6799 17.374L55.6799 17.3649L55.689 17.365L55.7799 17.2024L55.9418 17.4833L55.9418 17.4923L55.9508 17.4924L55.9508 17.5014L55.9599 17.5014L55.9598 17.5105L55.9689 17.5105L55.9689 17.5196L55.9779 17.5196L55.9869 17.5287L55.996 17.5287L56.005 17.5287L56.005 17.5378L56.014 17.5378L56.0231 17.5378L56.0321 17.5378L56.0412 17.5379L56.0502 17.5379L56.0502 17.5289L56.0593 17.5289L56.0683 17.5289L56.0774 17.5199L56.0864 17.5199L56.0864 17.5109L56.0955 17.5109L56.0955 17.5019L56.1046 17.5019L56.1046 17.4928L56.1136 17.4929L56.1137 17.4838L56.1137 17.4748L56.1227 17.4748L56.1228 17.4658L56.1229 17.4296L56.1229 17.4206L56.1229 17.4115L56.123 17.4025L56.1139 17.4024L56.1139 17.3934L55.952 17.1035L56.1329 17.104L56.142 17.1041L56.151 17.1041L56.16 17.1041L56.1691 17.1041L56.1691 17.0951L56.1782 17.0951L56.1872 17.0952L56.1872 17.0861L56.1963 17.0861L56.2053 17.0862L56.2054 17.0771L56.2144 17.0772L56.2144 17.0681L56.2235 17.0681L56.2235 17.0591L56.2325 17.0591L56.2326 17.0501L56.2326 17.041L56.2416 17.0411L56.2417 17.032L56.2417 17.023L56.2417 17.0139L56.2508 17.014L56.2508 17.0049L56.2508 16.9959L56.2509 16.9868L56.2509 16.9687L56.2509 16.9597L56.2419 16.9597L56.2419 16.9506L56.2419 16.9416L56.2329 16.9325L56.233 16.9235L56.2239 16.9234L56.2239 16.9144L56.2149 16.9144L56.2149 16.9053L56.2059 16.9053L56.2059 16.8963L56.1969 16.8962L56.1969 16.8872L56.1878 16.8871L56.1788 16.8871L56.1698 16.878L56.1607 16.878L56.1517 16.878L56.1427 16.878L56.1336 16.8779L55.8171 16.877L55.5652 16.4421L56.0716 16.4436L56.2245 16.7245L56.2336 16.7245L56.2335 16.7335L56.2425 16.7426L56.2516 16.7517L56.2606 16.7517L56.2606 16.7608L56.2696 16.7608L56.2786 16.7699L56.2877 16.7699L56.2967 16.7699L56.2967 16.779L56.3058 16.779L56.3148 16.779L56.3238 16.779L56.3329 16.7791L56.3419 16.7791L56.351 16.7791L56.351 16.7701L56.36 16.7701L56.3691 16.7701L56.3781 16.7702L56.3782 16.7611L56.3872 16.7611L56.3963 16.7521L56.4053 16.7522L56.4053 16.7431L56.4144 16.7431L56.4144 16.7341L56.4144 16.7251L56.4235 16.7251L56.4235 16.716L56.4326 16.7161L56.4326 16.707L56.4326 16.698L56.4326 16.6889L56.4417 16.6799L56.4417 16.6709L56.4418 16.6618L56.4418 16.6528L56.4418 16.6437L56.4328 16.6437L56.4328 16.6347L56.4328 16.6256L56.4329 16.6166L56.4238 16.6165L56.4239 16.6075L56.3339 16.4444L56.6595 16.4454L56.6685 16.4455L56.6776 16.4455L56.6866 16.4455L56.6957 16.4455L56.6957 16.4365L56.7047 16.4365L56.7138 16.4366L56.7138 16.4275L56.7229 16.4275L56.7229 16.4185L56.7319 16.4185L56.732 16.4095L56.741 16.4095L56.741 16.4005L56.7501 16.4005L56.7501 16.3914L56.7501 16.3824L56.7504 16.3101Z" fill="#3F3636"/>
<path d="M56.3722 37.9439L56.1823 37.9434L56.1858 36.8038L56.3757 36.8044L56.3741 37.3109L56.9077 37.3125L56.9093 36.806L57.0992 36.8066L57.0957 37.9462L56.9058 37.9456L56.9073 37.4572L56.3737 37.4556L56.3722 37.9439Z" fill="#3F3636"/>
<path d="M55.7349 37.9395C55.7349 37.9395 55.7442 37.8762 55.7714 37.8582C55.7986 37.8402 55.8258 37.8222 55.8529 37.8223C55.88 37.8224 55.9162 37.8315 55.9342 37.8587C55.9522 37.8859 55.9702 37.9131 55.9701 37.9402C55.97 37.9764 55.9609 38.0035 55.9337 38.0215C55.9065 38.0395 55.8793 38.0575 55.8522 38.0574C55.825 38.0574 55.7889 38.0482 55.7709 38.021C55.7529 37.9938 55.7349 37.9666 55.7349 37.9395ZM55.9465 36.8006L55.9437 37.705L55.7538 37.7044L55.7565 36.8L55.9465 36.8006Z" fill="#3F3636"/>
<path d="M55.4564 36.9182C55.5375 37.0088 55.5824 37.1175 55.582 37.2532C55.5816 37.3888 55.536 37.5063 55.4543 37.5874C55.3727 37.6776 55.2731 37.7135 55.1464 37.7131C55.0741 37.7129 55.0108 37.6946 54.9567 37.6673C54.9025 37.6309 54.8574 37.5946 54.8304 37.5403L54.8299 37.7031L54.64 37.7025L54.6428 36.78C54.6432 36.6534 54.6797 36.545 54.7614 36.4729C54.843 36.4008 54.9426 36.3558 55.0783 36.3563C55.2139 36.3567 55.3133 36.3841 55.3945 36.4477C55.4757 36.5022 55.5207 36.5837 55.5295 36.6832L55.3395 36.6827C55.3216 36.6374 55.2946 36.6011 55.2495 36.5648C55.2043 36.5375 55.1411 36.5192 55.0778 36.5191C55.0145 36.5189 54.9511 36.5458 54.9057 36.5909C54.8603 36.636 54.833 36.6992 54.8327 36.7896L54.8322 36.9705C54.8595 36.9163 54.9048 36.8712 54.9592 36.8352C55.0136 36.7992 55.0769 36.7813 55.1493 36.7816C55.2669 36.7819 55.3662 36.8274 55.4564 36.9182ZM54.9134 37.025C54.859 37.0791 54.8316 37.1514 54.8313 37.2509C54.831 37.3504 54.858 37.4137 54.9121 37.4682C54.9662 37.5226 55.0294 37.5499 55.1017 37.5502C55.1741 37.5504 55.2375 37.5234 55.2919 37.4693C55.3463 37.4152 55.3737 37.343 55.374 37.2525C55.3742 37.1621 55.3474 37.0806 55.2933 37.0262C55.2392 36.9718 55.1759 36.9444 55.1036 36.9442C55.0312 36.944 54.9678 36.9709 54.9134 37.025Z" fill="#3F3636"/>
<path d="M54.2129 38.0077L54.2143 37.5555C54.1506 37.6638 54.0601 37.7087 53.9244 37.7083C53.8249 37.708 53.7346 37.6716 53.6715 37.6081C53.6084 37.5446 53.5725 37.445 53.5729 37.3274L53.5745 36.7938L53.7644 36.7944L53.7629 37.3008C53.7626 37.3822 53.7805 37.4456 53.8256 37.491C53.8616 37.5363 53.9249 37.5546 53.9882 37.5548C54.0515 37.555 54.1149 37.5371 54.1512 37.492C54.1965 37.4469 54.2148 37.3836 54.2151 37.3022L54.2166 36.7958L54.4065 36.7963L54.4028 38.0082L54.2129 38.0077Z" fill="#3F3636"/>
<path d="M57.0179 24.0809L57.0144 25.2204L56.3451 25.2184L56.3456 25.0737L56.834 25.0752L56.835 24.7315L56.4552 24.7303L56.4556 24.5856L56.8354 24.5868L56.837 24.0803L57.0269 24.0809L57.0179 24.0809Z" fill="#3F3636"/>
<path d="M56.1136 24.1946C56.1947 24.2853 56.2396 24.394 56.2392 24.5297C56.2388 24.6653 56.1932 24.7828 56.1116 24.8639C56.0299 24.9541 55.9303 24.99 55.8037 24.9896C55.7313 24.9894 55.6681 24.9711 55.6139 24.9438C55.5597 24.9074 55.5146 24.8711 55.4877 24.8168L55.4872 24.9796L55.2973 24.979L55.3 24.0746L55.4899 24.0752L55.4894 24.247C55.5167 24.1928 55.5621 24.1477 55.6164 24.1117C55.6708 24.0757 55.7342 24.0578 55.8065 24.058C55.9241 24.0584 56.0235 24.1039 56.1136 24.1946ZM55.5706 24.3106C55.5162 24.3646 55.4888 24.4369 55.4885 24.5364C55.4882 24.6268 55.5152 24.6993 55.5693 24.7537C55.6234 24.8081 55.6866 24.8355 55.7589 24.8357C55.8313 24.8359 55.8947 24.809 55.9491 24.7549C56.0035 24.7008 56.0309 24.6285 56.0312 24.5381C56.0314 24.4476 56.0046 24.3661 55.9505 24.3117C55.8964 24.2573 55.8331 24.23 55.7608 24.2297C55.6884 24.2295 55.6251 24.2565 55.5706 24.3106Z" fill="#3F3636"/>
<path d="M55.0943 24.7257C55.0941 24.798 55.0577 24.8703 54.9943 24.9153C54.9308 24.9693 54.8403 24.9962 54.7408 24.9959C54.6413 24.9956 54.5509 24.9682 54.4878 24.9137C54.4247 24.8593 54.3978 24.7868 54.389 24.6964L54.5789 24.6969C54.5789 24.6969 54.5967 24.7784 54.6238 24.8056C54.6508 24.8328 54.687 24.842 54.7413 24.8422C54.7955 24.8423 54.8317 24.8334 54.8589 24.8063C54.8861 24.7793 54.9043 24.7522 54.9044 24.716C54.9045 24.6799 54.8865 24.6527 54.8504 24.6254C54.8143 24.6072 54.7692 24.589 54.7149 24.5798C54.6607 24.5706 54.6065 24.5614 54.5613 24.5431C54.5161 24.5249 54.4619 24.5067 54.4259 24.4613C54.3898 24.425 54.3719 24.3707 54.3721 24.3074C54.3723 24.226 54.4087 24.1628 54.4722 24.1178C54.5356 24.0728 54.6261 24.0459 54.7256 24.0462C54.8251 24.0465 54.9154 24.0739 54.9786 24.1194C55.0418 24.1738 55.0777 24.2372 55.0865 24.3367L54.8966 24.3362C54.8966 24.3362 54.8787 24.2547 54.8517 24.2275C54.8246 24.2003 54.7794 24.1911 54.7342 24.191C54.689 24.1908 54.6437 24.1997 54.6165 24.2268C54.5893 24.2538 54.5711 24.2809 54.571 24.3171C54.5709 24.3532 54.5889 24.3804 54.625 24.4077C54.6611 24.4259 54.7063 24.4441 54.7605 24.4533C54.8148 24.4625 54.86 24.4717 54.9142 24.49C54.9684 24.5082 55.0135 24.5264 55.0496 24.5627C55.0857 24.599 55.1036 24.6443 55.1034 24.7076L55.0943 24.7257Z" fill="#3F3636"/>
<path d="M53.7394 24.8213L53.9564 24.822L53.9579 24.3246C53.958 24.2884 53.9581 24.2703 53.931 24.2522C53.913 24.234 53.8859 24.2339 53.8497 24.2338L53.7321 24.2335L53.7326 24.0797L53.8773 24.0802C54.0491 24.0807 54.1393 24.1624 54.1388 24.3342L54.1373 24.8316L54.2458 24.8319L54.2453 24.9857L54.1368 24.9854L54.1361 25.2115L53.9462 25.2109L53.9469 24.9848L53.7298 24.9841L53.7303 24.8304L53.7394 24.8213Z" fill="#3F3636"/>
<path d="M56.146 40.1422L56.2636 40.1426C56.4084 40.143 56.5262 40.0259 56.5267 39.8811L56.529 39.1395C56.5294 38.9946 56.4123 38.8769 56.2675 38.8764L56.1499 38.876C56.0051 38.8756 55.8873 38.9927 55.8868 39.1375L55.8846 39.8791C55.8841 40.024 56.0012 40.1418 56.146 40.1422Z" fill="#3F3636"/>
<path d="M55.2505 40.1394L55.3681 40.1398C55.5129 40.1402 55.6307 40.0231 55.6312 39.8783L55.6335 39.1367C55.6339 38.9918 55.5168 38.874 55.372 38.8736L55.2544 38.8732C55.1096 38.8728 54.9918 38.9899 54.9913 39.1347L54.989 39.8763C54.9886 40.0212 55.1057 40.139 55.2505 40.1394Z" fill="#3F3636"/>
<path d="M54.397 40.1368L54.5146 40.1371C54.6594 40.1376 54.7772 40.0205 54.7777 39.8757L54.7799 39.1341C54.7804 38.9892 54.6633 38.8714 54.5185 38.871L54.4009 38.8706C54.256 38.8702 54.1382 38.9872 54.1378 39.1321L54.1355 39.8737C54.1351 40.0185 54.2522 40.1363 54.397 40.1368Z" fill="#3F3636"/>
<path d="M56.171 26.9627C55.7807 27.4499 55.3903 27.9371 54.9908 28.4242C54.9636 28.4603 54.9094 28.424 54.9186 28.3878C54.9921 28.0082 55.0656 27.6376 55.1391 27.258C55.1392 27.2309 55.1212 27.2037 55.094 27.2126C54.9312 27.2212 54.7684 27.2297 54.6056 27.2383C54.5694 27.2381 54.5514 27.2019 54.5696 27.1748C54.9326 26.7599 55.2866 26.3359 55.6497 25.921C55.6769 25.8849 55.7311 25.9213 55.7219 25.9574L55.4839 26.8792C55.4839 26.8792 55.5019 26.9335 55.529 26.9336C55.728 26.9342 55.927 26.9167 56.126 26.9083C56.1622 26.9084 56.1801 26.9446 56.162 26.9717L56.171 26.9627Z" fill="#3F3636"/>
<path d="M54.1472 34.2122L54.1831 34.2937C54.2011 34.3209 54.2732 34.4115 54.4902 34.4303C54.5987 34.4397 54.7615 34.4311 54.9425 34.3955C55.1054 34.3598 55.2684 34.288 55.3681 34.2431C55.5401 34.1622 55.8029 34.0093 56.0753 33.6664C56.1388 33.5852 56.2206 33.4679 56.2934 33.3234C56.348 33.206 56.4117 33.0886 56.4214 32.8716C56.4215 32.8354 56.4216 32.8083 56.4216 32.7812C56.4217 32.7631 56.4218 32.7359 56.4128 32.6997C56.3402 32.799 56.2494 32.9163 56.1224 33.0516C56.0044 33.1688 55.823 33.3581 55.5421 33.5291C55.3971 33.6191 55.1797 33.736 54.8901 33.8075C54.8901 33.8075 54.9081 33.8075 54.9172 33.7985C55.189 33.6546 55.4608 33.4746 55.7238 33.2403C55.8236 33.1411 55.9325 33.0329 56.0414 32.9156C56.1866 32.7443 56.3138 32.5728 56.4047 32.4193C56.4865 32.293 56.5137 32.2478 56.5137 32.2478C56.5319 32.2027 56.5593 32.1485 56.5776 32.0762C56.5776 32.0762 56.5776 32.0581 56.5776 32.0491C56.5776 32.0491 56.5777 32.04 56.5777 32.031C56.5777 32.031 56.5778 32.0129 56.5597 32.0038C56.5417 31.9766 56.4784 31.9764 56.4512 32.0035C56.433 32.0215 56.433 32.0396 56.4238 32.0757C56.4146 32.13 56.3964 32.1661 56.36 32.2383C56.3418 32.2744 56.3055 32.3286 56.242 32.3827C56.1426 32.3643 56.0793 32.3641 56.025 32.3639C56.0159 32.3639 56.0069 32.3639 55.9979 32.3638C55.9617 32.3637 55.9074 32.3635 55.826 32.3814C55.7355 32.3902 55.6088 32.4259 55.4639 32.4888C55.4004 32.5248 55.3642 32.5609 55.3731 32.588C55.373 32.6151 55.4364 32.6153 55.4454 32.6154C55.4725 32.6154 55.4997 32.6155 55.5268 32.6156C55.572 32.6158 55.6172 32.6159 55.6534 32.625C55.4724 32.6426 55.3457 32.6874 55.2551 32.7233C55.1646 32.7592 55.0649 32.8132 54.9923 32.9124C54.9741 32.9305 54.9106 33.0026 54.9286 33.0298C54.9286 33.0389 54.9557 33.0299 54.9738 33.0299C55.0282 33.003 55.1097 32.9671 55.2183 32.9403C55.3269 32.9225 55.4173 32.9228 55.4715 32.941C55.1004 33.0575 54.8285 33.2194 54.6563 33.3365C54.466 33.4715 54.3299 33.6068 54.2299 33.7783C54.2299 33.7783 54.0754 34.0401 54.1381 34.2212L54.1472 34.2122Z" fill="#3F3636"/>
<path d="M57.4749 31.4262L57.285 31.4256L57.2885 30.2861L57.4784 30.2867L58.0366 31.1385L58.0392 30.2884L58.2291 30.289L58.2256 31.4285L58.0357 31.4279L57.4775 30.5761L57.4749 31.4262Z" fill="#3F3636"/>
<path d="M56.6546 30.2662C56.7903 30.2666 56.8987 30.3122 56.9798 30.3938C57.061 30.4754 57.1058 30.5932 57.1054 30.7288C57.105 30.8645 57.0594 30.9819 56.9687 31.063C56.878 31.1532 56.7694 31.189 56.6428 31.1886C56.5161 31.1883 56.3987 31.1427 56.3176 31.061C56.2274 30.9794 56.1825 30.8616 56.1829 30.726C56.1834 30.5903 56.2289 30.4729 56.3196 30.3918C56.4103 30.3016 56.519 30.2658 56.6546 30.2662ZM56.464 30.5098C56.4095 30.5639 56.3822 30.6362 56.3819 30.7356C56.3816 30.8351 56.4085 30.9076 56.4626 30.962C56.5167 31.0164 56.5799 31.0438 56.6522 31.044C56.7246 31.0442 56.788 31.0173 56.8424 30.9632C56.8969 30.9091 56.9242 30.8368 56.9245 30.7373C56.9248 30.6378 56.8979 30.5654 56.8529 30.511C56.7988 30.4566 56.7446 30.4293 56.6632 30.429C56.5818 30.4288 56.5274 30.4557 56.473 30.5098L56.464 30.5098Z" fill="#3F3636"/>
<path d="M55.8104 31.1856L55.8109 31.0318C55.7562 31.1492 55.6656 31.2032 55.539 31.2028L55.5396 31.0129L55.5848 31.013C55.6572 31.0133 55.7115 30.9954 55.7478 30.9593C55.7841 30.9232 55.8023 30.86 55.8026 30.7695L55.8041 30.2902L55.994 30.2908L55.9912 31.1952L55.8013 31.1946L55.8104 31.1856Z" fill="#3F3636"/>
<path d="M55.1771 31.1836L55.1775 31.0389C55.1139 31.1473 55.0233 31.1922 54.8876 31.1918C54.8153 31.1916 54.752 31.1733 54.6979 31.146C54.6437 31.1096 54.5986 31.0643 54.5717 31.0009C54.5353 31.0641 54.499 31.1092 54.4356 31.1452C54.3722 31.1812 54.3179 31.1991 54.2455 31.1989C54.137 31.1985 54.0557 31.1621 53.9926 31.0986C53.9295 31.0351 53.8936 30.9355 53.894 30.8179L53.8956 30.2843L54.0855 30.2849L54.084 30.7914C54.0837 30.8728 54.1016 30.9361 54.1467 30.9815C54.1827 31.0268 54.246 31.0451 54.3093 31.0453C54.3726 31.0455 54.436 31.0276 54.4723 30.9825C54.5086 30.9374 54.5359 30.8742 54.5362 30.7928L54.5377 30.2863L54.7186 30.2869L54.717 30.7933C54.7168 30.8747 54.7347 30.9381 54.7798 30.9834C54.8158 31.0288 54.879 31.0471 54.9424 31.0472C55.0057 31.0474 55.069 31.0295 55.1053 30.9844C55.1507 30.9394 55.169 30.8761 55.1692 30.7947L55.1708 30.2882L55.3607 30.2888L55.3579 31.1932L55.168 31.1926L55.1771 31.1836Z" fill="#3F3636"/>
<path d="M53.6063 30.393C53.6874 30.4837 53.7323 30.5924 53.7319 30.728C53.7315 30.8637 53.6859 30.9811 53.6042 31.0623C53.5226 31.1525 53.423 31.1883 53.2964 31.1879C53.224 31.1877 53.1607 31.1694 53.1066 31.1421C53.0524 31.1058 53.0073 31.0695 52.9803 31.0151L52.9798 31.1779L52.7899 31.1773L52.7927 30.2729L52.9826 30.2735L52.9821 30.4454C53.0094 30.3912 53.0547 30.3461 53.1091 30.3101C53.1635 30.2741 53.2269 30.2562 53.2992 30.2564C53.4168 30.2568 53.5161 30.3023 53.6063 30.393ZM53.0723 30.5089C53.0179 30.563 52.9906 30.6353 52.9903 30.7348C52.9899 30.8343 53.0169 30.8977 53.071 30.9521C53.1251 31.0065 53.1883 31.0339 53.2606 31.0341C53.333 31.0343 53.3964 31.0074 53.4508 30.9533C53.5053 30.8992 53.5326 30.8269 53.5329 30.7365C53.5332 30.646 53.5063 30.5645 53.4522 30.5101C53.3981 30.4557 53.3349 30.4284 53.2625 30.4281C53.1902 30.4279 53.1268 30.4548 53.0723 30.5089Z" fill="#3F3636"/>
<path d="M52.5565 30.2712L52.5527 31.4831L52.3628 31.4825L52.3665 30.2706L52.5565 30.2712Z" fill="#3F3636"/>
<path d="M53.2671 48.0117C53.2668 48.1202 53.357 48.2019 53.4565 48.2022L55.3286 48.208C55.9526 48.2099 56.5767 48.2118 57.2007 48.2137C57.3092 48.214 57.3909 48.1329 57.3912 48.0244C57.3915 47.9158 57.3013 47.8342 57.2019 47.8339L55.3298 47.8281C54.7057 47.8262 54.0817 47.8243 53.4576 47.8224C53.3491 47.822 53.2675 47.9032 53.2671 48.0117Z" fill="#3F3636"/>
<path d="M53.272 46.4528C53.2717 46.5613 53.3619 46.643 53.4614 46.6433L55.3335 46.6491C55.9575 46.651 56.5815 46.6529 57.2056 46.6548C57.3141 46.6551 57.3958 46.574 57.3961 46.4655C57.3964 46.3569 57.3062 46.2753 57.2067 46.275L55.3346 46.2692C54.7106 46.2673 54.0866 46.2654 53.4625 46.2635C53.354 46.2631 53.2724 46.3443 53.272 46.4528Z" fill="#3F3636"/>
<path d="M53.2813 43.3606C53.281 43.4691 53.3712 43.5508 53.4706 43.5511L55.3428 43.5568C55.9668 43.5588 56.5908 43.5607 57.2149 43.5626C57.3234 43.5629 57.405 43.4818 57.4054 43.3732C57.4057 43.2647 57.3155 43.183 57.216 43.1827L55.3439 43.177C54.7199 43.1751 54.0958 43.1732 53.4718 43.1713C53.3633 43.1709 53.2816 43.2521 53.2813 43.3606Z" fill="#3F3636"/>
<path d="M53.2769 44.9083C53.2766 45.0168 53.3668 45.0985 53.4662 45.0988L55.3384 45.1045C55.9624 45.1064 56.5864 45.1083 57.2105 45.1103C57.319 45.1106 57.4006 45.0294 57.401 44.9209C57.4013 44.8124 57.3111 44.7307 57.2116 44.7304C56.5876 44.7285 55.9636 44.7266 55.3395 44.7247L53.4674 44.7189C53.3589 44.7186 53.2772 44.7997 53.2769 44.9083Z" fill="#3F3636"/>
<path d="M53.2481 54.2158C53.2478 54.3243 53.338 54.406 53.4374 54.4063L55.3095 54.4121C55.9336 54.414 56.5576 54.4159 57.1817 54.4178C57.2902 54.4181 57.3718 54.337 57.3722 54.2285C57.3725 54.1199 57.2823 54.0383 57.1828 54.038L55.3107 54.0322C54.6867 54.0303 54.0626 54.0284 53.4386 54.0265C53.3301 54.0261 53.2484 54.1073 53.2481 54.2158Z" fill="#3F3636"/>
<path d="M53.253 52.6585C53.2527 52.767 53.3428 52.8487 53.4423 52.849L55.3144 52.8548C55.9385 52.8567 56.5625 52.8586 57.1865 52.8605C57.2951 52.8608 57.3767 52.7797 57.377 52.6712C57.3774 52.5626 57.2872 52.481 57.1877 52.4807L55.3156 52.4749C54.6916 52.473 54.0675 52.4711 53.4435 52.4692C53.335 52.4688 53.2533 52.55 53.253 52.6585Z" fill="#3F3636"/>
<path d="M53.2383 57.308C53.238 57.4166 53.3282 57.4982 53.4277 57.4986L55.2998 57.5043C55.9238 57.5062 56.5478 57.5081 57.1719 57.51C57.2804 57.5104 57.3621 57.4202 57.3624 57.3207C57.3627 57.2122 57.2725 57.1305 57.1731 57.1302L55.3009 57.1244C54.6769 57.1225 54.0529 57.1206 53.4288 57.1187C53.3203 57.1184 53.2387 57.1995 53.2383 57.308Z" fill="#3F3636"/>
<path d="M53.2623 49.5567C53.2619 49.6652 53.3521 49.7469 53.4516 49.7472C54.0756 49.7491 54.6997 49.751 55.3237 49.753L57.1958 49.7587C57.3043 49.759 57.386 49.6779 57.3863 49.5694C57.3867 49.4608 57.2965 49.3792 57.197 49.3788C56.5729 49.3769 55.9489 49.375 55.3249 49.3731L53.4528 49.3674C53.3442 49.367 53.2626 49.4482 53.2623 49.5567Z" fill="#3F3636"/>
<path d="M53.2432 55.7603C53.2429 55.8688 53.3331 55.9505 53.4326 55.9508L55.3047 55.9566C55.9287 55.9585 56.5527 55.9604 57.1768 55.9623C57.2853 55.9626 57.3669 55.8815 57.3673 55.773C57.3676 55.6644 57.2774 55.5828 57.1779 55.5825L55.3058 55.5767C54.6818 55.5748 54.0578 55.5729 53.4337 55.571C53.3252 55.5706 53.2436 55.6518 53.2432 55.7603Z" fill="#3F3636"/>
<path d="M53.2574 51.1124C53.257 51.221 53.3472 51.3026 53.4467 51.3029L55.3188 51.3087C55.9429 51.3106 56.5669 51.3125 57.1909 51.3144C57.2995 51.3148 57.3811 51.2336 57.3814 51.1251C57.3818 51.0165 57.2916 50.9349 57.1921 50.9346C56.5681 50.9327 55.944 50.9307 55.32 50.9288L53.4479 50.9231C53.3393 50.9228 53.2577 51.0039 53.2574 51.1124Z" fill="#3F3636"/>
<path d="M54.7349 60.0307L54.9881 60.0314L54.9861 60.6736L55.6283 60.6755L55.6302 60.0334L55.8835 60.0342L55.8789 61.5174L55.6257 61.5166L55.6276 60.8835L54.9855 60.8816L54.9835 61.5146L54.7303 61.5139L54.7349 60.0307Z" fill="#3F3636"/>
<path d="M53.6869 60.6334C53.5783 60.6602 53.4968 60.7052 53.4423 60.7774C53.3788 60.8586 53.3423 60.958 53.3419 61.0755C53.3415 61.1931 53.3864 61.3018 53.4766 61.3834C53.5668 61.4651 53.6933 61.5107 53.8651 61.5113L54.3535 61.5128L54.358 60.0386L54.1048 60.0378L54.103 60.6166L53.9764 60.6162L53.6074 60.0363L53.2908 60.0353L53.6869 60.6334ZM54.1024 60.8246L54.101 61.2859L53.8658 61.2852C53.6849 61.2846 53.5947 61.212 53.5952 61.0492C53.5954 60.9768 53.6137 60.9226 53.6591 60.8775C53.7044 60.8415 53.7678 60.8146 53.8582 60.8148L54.0934 60.8156L54.1024 60.8246Z" fill="#3F3636"/>
<path d="M56.7657 60.029C56.9195 60.0295 57.0369 60.066 57.1362 60.1387C57.2355 60.2113 57.2804 60.3109 57.28 60.4376L57.2799 60.4737L57.0176 60.4729L57.0177 60.4458C57.0178 60.3915 56.9908 60.3462 56.9548 60.3099C56.9187 60.2737 56.8555 60.2554 56.7741 60.2551C56.6927 60.2549 56.6293 60.2728 56.584 60.3178C56.5386 60.3539 56.5204 60.3991 56.5202 60.4533C56.5201 60.5076 56.529 60.5438 56.556 60.571C56.5831 60.5982 56.6101 60.6254 56.6553 60.6346C56.7005 60.6528 56.7457 60.662 56.7999 60.6712C56.8542 60.6804 56.9084 60.6987 56.9626 60.717C57.0168 60.7352 57.071 60.7535 57.1161 60.7807C57.1613 60.808 57.2064 60.8534 57.2424 60.9077C57.2693 60.9621 57.2872 61.0345 57.287 61.1068C57.2866 61.2335 57.241 61.3418 57.1503 61.423C57.0596 61.5041 56.942 61.5399 56.7973 61.5395C56.6526 61.539 56.5351 61.5025 56.4539 61.4389C56.3637 61.3663 56.3187 61.2757 56.301 61.1581L56.3011 61.1219L56.5724 61.1227L56.5724 61.1499C56.5722 61.1951 56.5992 61.2404 56.6443 61.2677C56.6895 61.304 56.7437 61.3222 56.807 61.3224C56.8703 61.3226 56.9336 61.3047 56.979 61.2687C57.0243 61.2327 57.0425 61.1875 57.0428 61.1151C57.0429 61.0699 57.034 61.0337 57.0069 61.0065C56.9799 60.9793 56.9528 60.9521 56.9076 60.9429C56.8625 60.9247 56.8173 60.9155 56.7631 60.8972C56.7088 60.888 56.6546 60.8698 56.6004 60.8515C56.5462 60.8332 56.492 60.815 56.4468 60.7877C56.3927 60.7604 56.3566 60.7151 56.3206 60.6607C56.2937 60.6064 56.2758 60.543 56.276 60.4616C56.2764 60.344 56.3219 60.2356 56.4126 60.1545C56.5033 60.0644 56.621 60.0195 56.7748 60.02L56.7657 60.029Z" fill="#3F3636"/>
</g>
<defs>
<linearGradient id="paint0_linear_2_6758" x1="55.0005" y1="82" x2="55.0005" y2="124" gradientUnits="userSpaceOnUse">
<stop stop-color="#BBDEFF"/>
<stop offset="1" stop-color="white"/>
</linearGradient>
<linearGradient id="paint1_linear_2_6758" x1="54.8167" y1="46.3774" x2="8.47642" y2="-5.76499" gradientUnits="userSpaceOnUse">
<stop stop-color="#F4F3FF"/>
<stop offset="1" stop-color="#BAB7EB"/>
</linearGradient>
</defs>
</svg>
