<svg width="113" height="113" viewBox="0 0 113 113" fill="none" xmlns="http://www.w3.org/2000/svg">
<circle cx="56.5" cy="56.5" r="55.685" stroke="#645757" stroke-width="1.63"/>
<mask id="mask0_2_6749" style="mask-type:alpha" maskUnits="userSpaceOnUse" x="1" y="0" width="112" height="112">
<circle cx="57" cy="56" r="56" fill="#D9D9D9"/>
</mask>
<g mask="url(#mask0_2_6749)">
</g>
<g clip-path="url(#clip0_2_6749)">
<path d="M46.1348 45.248C46.1348 45.248 50.4576 49.8016 50.6845 54.2605C50.9114 58.7194 50.4449 62.8266 50.4449 62.8266L55.5422 62.8242L55.7305 51.3088L52.2555 48.4994L46.1372 45.2498L46.1348 45.248Z" fill="white" stroke="#3F3636" stroke-width="1.62942" stroke-linecap="round" stroke-linejoin="round"/>
<path d="M52.2527 48.4977C52.2527 48.4977 55.0491 52.7161 55.6422 64.4802C56.0637 72.868 55.2953 84.1912 55.2953 84.1912L60.4212 83.3859L63.977 63.079L60.9426 51.7857L52.2569 48.497L52.2527 48.4977Z" fill="white" stroke="#3F3636" stroke-width="1.62942" stroke-linecap="round" stroke-linejoin="round"/>
<path d="M62.3821 63.4195C62.2836 79.3816 59.8548 81.8175 59.8548 81.8175C59.8548 81.8175 56.0539 84.7374 54.1994 84.7573L55.7379 97.8025C55.7379 97.8025 61.5758 99.1498 62.8067 97.5827C64.0377 96.0156 66.8946 76.4356 66.9654 68.242C67.0403 59.5046 64.4225 55.6701 68.3008 50.7098C72.1791 45.7494 76.8025 42.7264 78.7311 41.5254C80.6598 40.3243 82.9044 39.0664 80.8915 36.2407C80.8915 36.2407 78.5629 32.6517 78.0309 30.6144C78.0309 30.6144 45.2471 21.5753 33.5648 22.1991C33.5648 22.1991 32.0848 22.4155 31.1115 24.4968C30.1383 26.5781 29.1685 28.4334 29.8209 29.4438C30.4733 30.4543 31.9749 33.3075 33.8496 35.7754C35.7244 38.2433 39.9963 42.1409 46.1405 45.245C52.2848 48.3491 62.4587 52.2854 62.3887 63.4207L62.3821 63.4195Z" fill="white" stroke="#3F3636" stroke-width="1.62942" stroke-linecap="round" stroke-linejoin="round"/>
<path d="M39.8809 22.3964C39.8809 22.3964 39.1936 29.1642 34.2932 36.3418" stroke="#3F3636" stroke-width="1.62942" stroke-linecap="round" stroke-linejoin="round"/>
</g>
<defs>
<clipPath id="clip0_2_6749">
<rect width="71" height="69" fill="white" transform="translate(44.6387 4.62573) rotate(36.6805)"/>
</clipPath>
</defs>
</svg>
