<svg width="113" height="113" viewBox="0 0 113 113" fill="none" xmlns="http://www.w3.org/2000/svg">
<g clip-path="url(#clip0_2_7230)">
<path d="M56.6307 17.9316C34.7287 17.9316 16.9097 35.7506 16.9097 57.6526C16.9097 79.5546 34.7287 97.3736 56.6307 97.3736C78.5327 97.3736 96.3517 79.5546 96.3517 57.6526C96.3517 35.7506 78.5327 17.9316 56.6307 17.9316ZM87.5071 38.8424H73.9009C72.0954 31.8859 69.3872 26.3691 66.1125 22.7522C75.1223 25.2067 82.7455 31.0599 87.5071 38.8424ZM56.6307 21.4895C62.0944 21.4895 67.2807 28.21 70.2132 38.8424H43.0481C45.9806 28.2218 51.1906 21.4895 56.6307 21.4895ZM47.1724 22.7463C43.8919 26.3632 41.1659 31.8859 39.3663 38.8483H25.7543C30.5217 31.054 38.1508 25.1949 47.1724 22.7463ZM25.7543 76.4629H39.3604C41.1659 83.4194 43.8978 88.9421 47.1842 92.559C38.1626 90.1162 30.5217 84.2572 25.7543 76.4629ZM56.6307 93.8157C51.2201 93.8157 45.9865 87.0599 43.054 76.457H70.2132C67.2748 87.0658 62.0472 93.8157 56.6307 93.8157ZM66.0771 92.559C69.3636 88.9362 72.0954 83.4194 73.9009 76.4629H87.5071C82.7396 84.2572 75.1046 90.1103 66.0771 92.559ZM23.8544 72.905C21.6889 68.2673 20.4735 63.1045 20.4735 57.6585C20.4735 52.2125 21.6889 47.0438 23.8544 42.4121H89.4129C91.5783 47.0497 92.7938 52.2125 92.7938 57.6585C92.7938 63.1045 91.5783 68.2732 89.4129 72.905H23.8544ZM58.6309 44.2412H45.839V71.07H49.3969V47.7991H58.8846C61.8524 47.7991 64.2244 50.4011 63.8291 53.4457C63.5045 55.9592 61.2447 57.7765 58.7076 57.7765H55.3562C53.3914 57.7765 51.7983 59.3696 51.7983 61.3344H58.8846C63.8704 61.3344 67.8708 57.0449 67.3929 51.9647C66.968 47.5336 63.0797 44.2412 58.6309 44.2412Z" fill="#190A0A"/>
</g>
<defs>
<clipPath id="clip0_2_7230">
<rect width="79.442" height="79.442" fill="white" transform="translate(16.9106 17.9312)"/>
</clipPath>
</defs>
</svg>
