<svg width="113" height="113" viewBox="0 0 113 113" fill="none" xmlns="http://www.w3.org/2000/svg">
<g clip-path="url(#clip0_2_7242)">
<path d="M58.1903 30.226L58.1957 30.2206V20.3644H68.0198C68.9315 20.3644 69.7461 19.9928 70.3288 19.4057C70.9222 18.8295 71.2891 18.0108 71.2891 17.1006H41.8331V20.3644H54.921V33.8184L54.9318 57.9794L54.9426 63.1822C56.7337 63.1714 58.1849 61.7226 58.2011 59.9291C58.2011 59.9183 58.1903 33.4898 58.1903 33.4898C75.8154 34.357 89.8097 49.1951 89.281 67.1085C88.7954 83.8263 75.3784 97.7111 58.6813 98.756C39.6751 99.957 23.8304 84.855 23.8304 66.139C23.8304 49.7929 35.9257 36.1935 51.6517 33.8237V30.533C33.4494 33.0213 19.536 49.1466 20.6258 68.2342C21.64 86.1368 36.0713 100.759 53.9877 102.014C75.0008 103.474 92.5719 86.8262 92.5719 66.1444C92.5611 46.8468 77.2882 31.0662 58.1903 30.226ZM68.5053 80.3632L70.8143 78.058L65.8403 73.0922L60.7313 68.0079C60.1379 67.4155 59.3179 67.0493 58.4223 67.0493C57.5268 67.0493 56.7067 67.4209 56.1133 68.0079L60.7421 72.6183L68.5053 80.3632Z" fill="#190A0A"/>
</g>
<defs>
<clipPath id="clip0_2_7242">
<rect width="72" height="85" fill="white" transform="translate(20.5615 17.1011)"/>
</clipPath>
</defs>
</svg>
