<svg width="113" height="113" viewBox="0 0 113 113" fill="none" xmlns="http://www.w3.org/2000/svg">
<g clip-path="url(#clip0_2_7253)">
<path d="M56.9125 21.2705C35.1934 21.2705 17.5278 38.9361 17.5278 60.6493C17.5278 82.3625 35.1934 100.028 56.9125 100.028C78.6257 100.028 96.2913 82.3625 96.2913 60.6493C96.2913 38.9361 78.6257 21.2705 56.9125 21.2705ZM56.9125 96.5056C51.6553 96.5056 46.8997 90.3515 44.0026 81.1175C48.0679 80.4036 52.4283 80.026 56.9125 80.026C61.3968 80.026 65.7571 80.4095 69.8224 81.1175C66.9195 90.3456 62.1638 96.5056 56.9125 96.5056ZM56.9125 76.4976C52.1037 76.4976 47.4189 76.9224 43.0467 77.713C41.9139 73.099 41.2117 67.8949 41.0878 62.4194H72.7372C72.6133 67.9008 71.9111 73.099 70.7783 77.713C66.4002 76.9224 61.7154 76.4976 56.9125 76.4976ZM56.9125 24.7989C62.1697 24.7989 66.9254 30.9529 69.8224 40.1811C65.7512 40.895 61.3909 41.2785 56.9125 41.2785C52.4342 41.2785 48.0738 40.895 44.0026 40.1811C46.8997 30.9529 51.6494 24.7989 56.9125 24.7989ZM56.9125 44.8069C61.7154 44.8069 66.4002 44.3821 70.7783 43.5914C71.917 48.2055 72.6133 53.4096 72.7372 58.891H41.0819C41.2058 53.4096 41.9021 48.2114 43.0408 43.5914C47.4248 44.3821 52.1096 44.8069 56.9125 44.8069ZM37.5594 58.8851H21.1034C21.4692 51.3976 24.1421 44.5119 28.4257 38.9125C31.6473 40.5528 35.4235 41.8803 39.5655 42.8598C38.3855 47.6922 37.6774 53.1087 37.5594 58.8851ZM37.5594 62.4135C37.6774 68.1899 38.3855 73.6064 39.5596 78.4329C35.4235 79.4123 31.6414 80.7399 28.4198 82.3802C24.1421 76.7808 21.4633 69.8951 21.1034 62.4135H37.5594ZM76.2597 62.4135H92.7157C92.3499 69.8951 89.677 76.7808 85.3993 82.3802C82.1777 80.7399 78.3956 79.4123 74.2595 78.4388C75.4336 73.6123 76.1417 68.1958 76.2597 62.4135ZM76.2597 58.8851C76.1417 53.1087 75.4336 47.6922 74.2595 42.8598C78.3956 41.8803 82.1777 40.5587 85.3993 38.9184C89.677 44.5119 92.3499 51.4035 92.7157 58.8851H76.2597ZM83.0451 36.1452C80.2011 37.5141 76.9146 38.6293 73.3272 39.4671C71.5925 33.85 69.1852 29.23 66.3058 26.0557C72.7962 27.8199 78.5667 31.3719 83.0451 36.1452ZM47.5192 26.0557C44.6398 29.2359 42.2325 33.8559 40.4978 39.4671C36.9104 38.6293 33.6239 37.5082 30.78 36.1452C35.2524 31.3719 41.017 27.8199 47.5192 26.0557ZM30.7741 85.1592C33.618 83.7904 36.9045 82.6752 40.4919 81.8315C42.2266 87.4486 44.6339 92.0685 47.5133 95.2488C41.017 93.4846 35.2524 89.9326 30.7741 85.1592ZM66.2999 95.2488C69.1793 92.0685 71.5866 87.4486 73.3213 81.8374C76.9087 82.6752 80.1952 83.7963 83.0391 85.1592C78.5667 89.9326 72.7962 93.4846 66.2999 95.2488Z" fill="#190A0A"/>
</g>
<defs>
<clipPath id="clip0_2_7253">
<rect width="78.7635" height="78.7635" fill="white" transform="translate(17.5278 21.2705)"/>
</clipPath>
</defs>
</svg>
