<svg width="116" height="128" viewBox="0 0 116 128" fill="none" xmlns="http://www.w3.org/2000/svg">
<path d="M28.68 54.32C29.2133 51.9733 29.6933 49.84 30.12 47.92C30.5467 45.8933 31.0267 43.8667 31.56 41.84C32.2 39.7067 32.84 37.36 33.48 34.8C32.52 35.76 31.4533 36.8267 30.28 38C29.1067 39.0667 27.88 40.08 26.6 41.04L13.64 51.44L5.32 39.44L39.72 11.76H55.72L31.4 126H13.32L28.68 54.32Z" fill="#EC0051"/>
<path d="M31.5 63.1702C31.5 61.4194 33.1342 60 35.15 60H100.85C102.866 60 104.5 61.4194 104.5 63.1702V108.83C104.5 110.581 102.866 112 100.85 112H35.15C33.1342 112 31.5 110.581 31.5 108.83V63.1702Z" fill="white" stroke="#040000" stroke-width="2" stroke-linejoin="round"/>
<path d="M31.5 69H104.5H31.5Z" fill="white"/>
<path d="M31.5 69H104.5" stroke="#040000" stroke-width="2" stroke-linecap="round" stroke-linejoin="round"/>
<path d="M83.4812 90.6289C83.4812 99.2508 76.4827 106.258 67.8712 106.258C59.2597 106.258 52.2612 99.2508 52.2612 90.6289C52.2612 82.0069 59.2597 75 67.8712 75C76.4827 75 83.4812 82.0069 83.4812 90.6289Z" stroke="black" stroke-width="2" stroke-linecap="round" stroke-linejoin="round"/>
<path d="M60.62 95.06L62.06 93.86C62.86 95.42 64.1 96.3 65.72 96.48V91.34C63.54 90.88 61.3 90.26 61.3 87.58C61.3 85.28 63.24 83.72 65.72 83.52V81.62H67.18V83.54C69.24 83.78 70.8 84.8 71.54 86.28L70.16 87.44C69.54 86.22 68.56 85.38 67.18 85.14V89.9C69.38 90.36 71.64 91.02 71.64 93.84C71.64 96.24 69.7 97.82 67.18 98.1V100.04H65.72V98.12C63.44 97.92 61.52 96.78 60.62 95.06ZM63.06 87.46C63.06 88.78 64.24 89.26 65.72 89.58V85.1C64.18 85.26 63.06 86.14 63.06 87.46ZM69.88 93.96C69.88 92.54 68.68 92.02 67.18 91.66V96.48C68.72 96.28 69.88 95.46 69.88 93.96Z" fill="black"/>
</svg>
