<svg width="116" height="128" viewBox="0 0 116 128" fill="none" xmlns="http://www.w3.org/2000/svg">
<path d="M0.84 126L3.56 112.88L33.96 79.92C37.5867 76.08 40.8933 72.4 43.88 68.88C46.8667 65.2533 49.48 61.7333 51.72 58.32C53.96 54.9067 55.6667 51.4933 56.84 48.08C58.12 44.6667 58.76 41.2533 58.76 37.84C58.76 34 57.8533 31.0667 56.04 29.04C54.3333 27.0133 51.7733 26 48.36 26C46.12 26 43.88 26.48 41.64 27.44C39.5067 28.4 37.3733 29.68 35.24 31.28C33.1067 32.7733 30.92 34.48 28.68 36.4L21.64 23.76C25.9067 19.4933 30.5467 16.1867 35.56 13.84C40.5733 11.3867 46.0667 10.16 52.04 10.16C57.3733 10.16 61.9067 11.2267 65.64 13.36C69.3733 15.3867 72.2533 18.2133 74.28 21.84C76.3067 25.36 77.32 29.5733 77.32 34.48C77.32 40.6667 76.0933 46.5867 73.64 52.24C71.1867 57.8933 67.7733 63.4933 63.4 69.04C59.0267 74.5867 53.9067 80.2933 48.04 86.16L25.8 109.52V110.16H64.04L60.68 126H0.84Z" fill="#EC0051"/>
<path d="M55.0264 80.4159C53.0956 81.0982 47.468 85.5928 45.9703 87.6571L73.1737 102.639C75.0804 104.081 81.6611 107.297 87.2842 105.181C87.2842 105.181 97.9058 109.192 103.139 113.244L113.482 96.9831C110.585 95.7533 70.1698 79.5748 67.2342 79.0987C64.2985 78.6226 56.9607 79.735 55.0264 80.4159Z" fill="white"/>
<path d="M45.9703 87.6571C47.468 85.5928 53.0956 81.0982 55.0264 80.4159C56.9607 79.735 64.2985 78.6226 67.2342 79.0987C70.1698 79.5748 110.585 95.7533 113.482 96.9831M103.139 113.244C97.9058 109.192 87.2842 105.181 87.2842 105.181C81.6611 107.297 75.0804 104.081 73.1737 102.639C71.267 101.197 66.1137 98.3947 66.1137 98.3947" stroke="black" stroke-width="1.5" stroke-miterlimit="10" stroke-linecap="round"/>
<path d="M46.0686 97.1151C46.0686 97.1151 44.2863 97.6348 43.6483 97.9702C43.0102 98.3056 42.6096 98.9205 42.7416 99.8418C42.8737 100.763 44.6954 101.498 46.3762 100.661C48.057 99.8236 48.4928 100.148 48.4928 100.148L48.0571 97.9765L46.0686 97.1151Z" fill="white" stroke="black" stroke-width="1.5" stroke-miterlimit="10" stroke-linecap="round"/>
<path d="M45.7064 93.9449C45.7064 93.9449 44.2806 95.5466 43.8603 96.2637C43.4387 96.9842 43.4237 97.8295 44.1114 98.6504C44.8026 99.4726 47.0355 99.075 48.1714 97.2286C49.3073 95.3823 49.9316 95.4298 49.9316 95.4298L48.1768 93.5717L45.7064 93.9449Z" fill="white" stroke="black" stroke-width="1.5" stroke-miterlimit="10" stroke-linecap="round"/>
<path d="M89.9698 51.8381C89.3707 50.4904 88.2553 49.9876 87.6031 49.7373L71.7741 43.6601C71.1254 43.411 69.9567 43.0368 68.6096 43.6373C67.1443 44.2905 66.5104 45.3805 65.9522 46.8447C58.2838 66.9406 50.6154 87.0366 42.9436 107.131C42.3675 108.632 42.1052 109.927 41.9723 110.845C41.7429 112.463 41.5843 113.692 42.2183 114.959C42.2798 115.085 42.3487 115.201 42.4167 115.31C42.7806 115.893 43.3348 116.337 43.9767 116.583L59.4609 122.528C60.0413 122.751 60.6774 122.819 61.2827 122.671C61.4641 122.626 61.6509 122.569 61.8441 122.494C63.1652 121.981 63.8701 120.962 64.7803 119.601C65.299 118.832 65.9689 117.689 66.5437 116.192C74.294 96.1275 82.0443 76.063 89.7913 55.9972C90.3529 54.5343 90.6147 53.3014 89.963 51.8355L89.9698 51.8381Z" fill="white" stroke="black" stroke-width="1.5" stroke-miterlimit="10" stroke-linecap="round" stroke-linejoin="round"/>
<path d="M88.7588 51.6183C88.3482 50.6291 87.5741 50.2256 86.9473 49.9849L71.776 44.1602C71.1492 43.9196 70.3039 43.7014 69.3369 44.1616C68.1864 44.7091 67.679 45.5625 67.1522 46.9444L44.3185 106.75C43.9889 107.609 43.929 107.94 43.8328 108.561C43.6765 109.593 43.7679 110.653 44.1774 111.586C44.3079 111.881 44.4717 112.176 44.6774 112.44C45.5329 113.529 47.3303 114.282 47.3303 114.282L58.1823 118.449C58.1823 118.449 60.0199 119.087 61.3864 118.855C61.716 118.797 62.0387 118.688 62.3294 118.555C63.2584 118.136 64.0341 117.413 64.6097 116.538C64.9572 116.014 65.13 115.729 65.461 114.867L88.5167 55.1468C89.0467 53.7662 89.2427 52.7971 88.7556 51.617L88.7588 51.6183Z" fill="white" stroke="black" stroke-miterlimit="10" stroke-linecap="round"/>
<path d="M59.7678 102.892L56.8144 101.759C56.7993 101.753 56.7607 101.817 56.7281 101.902L56.374 102.824C56.3414 102.909 56.3272 102.982 56.3423 102.988L59.2958 104.122C59.3108 104.128 59.3495 104.064 59.3821 103.979L59.7362 103.057C59.7688 102.972 59.7829 102.898 59.7678 102.892Z" fill="black"/>
<path d="M58.3655 106.542L55.4121 105.408C55.397 105.402 55.3583 105.466 55.3258 105.551L54.9717 106.473C54.9391 106.558 54.9249 106.632 54.94 106.638L57.8934 107.771C57.9085 107.777 57.9471 107.713 57.9797 107.628L58.3338 106.706C58.3664 106.621 58.3806 106.548 58.3655 106.542Z" fill="black"/>
<path d="M56.9641 110.192L54.0107 109.058C53.9956 109.053 53.957 109.117 53.9244 109.202L53.5703 110.124C53.5377 110.209 53.5235 110.282 53.5386 110.288L56.492 111.422C56.5071 111.428 56.5458 111.364 56.5784 111.279L56.9325 110.356C56.965 110.272 56.9792 110.198 56.9641 110.192Z" fill="black"/>
<path d="M70.657 88.5698C70.8255 88.0698 70.9073 87.6933 70.9385 87.5406C71.0241 87.1342 71.0668 86.931 71.0688 86.6298C71.069 86.3436 71.0669 86.0329 70.8984 85.6349C70.7581 85.3065 70.575 85.0794 70.5246 85.0169C70.5246 85.0169 70.3215 84.7703 70.0305 84.5487C68.7042 83.5337 65.9042 82.541 65.9042 82.541C65.9042 82.541 65.241 82.2786 64.7727 82.1105C64.1004 81.872 63.6045 81.7248 63.4033 81.6671C62.8673 81.5123 62.5986 81.4366 62.2147 81.3755C61.8457 81.3162 61.4536 81.2558 60.9822 81.3101C60.5922 81.3565 60.3409 81.46 60.2713 81.4882C60.1492 81.5512 59.9712 81.6475 59.7769 81.7965C59.1307 82.2857 58.8543 82.8933 58.3336 84.066C58.0344 84.7433 57.8698 85.2331 57.7538 85.5964C57.7003 85.7562 57.5757 86.1319 57.4723 86.6256C57.3868 87.032 57.344 87.2352 57.342 87.5364C57.3418 87.8226 57.344 88.1333 57.5124 88.5313C57.6528 88.8597 57.8359 89.0868 57.8863 89.1493C57.8863 89.1493 58.0894 89.3959 58.3804 89.6175C59.7066 90.6326 62.5066 91.6252 62.5066 91.6252C62.5066 91.6252 63.1698 91.8877 63.6381 92.0557C64.3105 92.2942 64.8063 92.4415 65.0075 92.4991C65.5436 92.6539 65.8122 92.7296 66.1962 92.7907C66.5652 92.8501 66.9573 92.9104 67.4287 92.8561C67.8187 92.8097 68.0699 92.7062 68.1395 92.678C68.1395 92.678 68.4111 92.5626 68.634 92.3698C69.6553 91.4952 70.3423 89.4098 70.3423 89.4098C70.3423 89.4098 70.5416 88.9216 70.6557 88.5732L70.657 88.5698Z" stroke="#E61051" stroke-miterlimit="10"/>
<path d="M61.2974 94.6002L61.2222 94.5713C61.2165 94.5691 61.2102 94.572 61.208 94.5776L60.7185 95.8525C60.7163 95.8582 60.7192 95.8645 60.7248 95.8667L60.8 95.8956C60.8057 95.8977 60.812 95.8949 60.8142 95.8893L61.3037 94.6144C61.3059 94.6087 61.303 94.6024 61.2974 94.6002Z" fill="black"/>
<path d="M61.0133 94.5731L60.9397 94.6059C60.9342 94.6083 60.9317 94.6148 60.9341 94.6204L61.0977 94.9884C61.1002 94.9939 61.1067 94.9964 61.1122 94.994L61.1858 94.9612C61.1913 94.9587 61.1938 94.9522 61.1914 94.9467L61.0278 94.5786C61.0253 94.5731 61.0188 94.5706 61.0133 94.5731Z" fill="black"/>
<path d="M61.0712 94.9076L61.1039 94.9812C61.1064 94.9867 61.1129 94.9892 61.1184 94.9867L61.4863 94.8228C61.4918 94.8203 61.4943 94.8138 61.4918 94.8083L61.4591 94.7347C61.4567 94.7291 61.4502 94.7266 61.4446 94.7291L61.0768 94.8931C61.0712 94.8955 61.0688 94.902 61.0712 94.9076Z" fill="black"/>
<path d="M60.963 95.5553L60.9302 95.4817C60.9278 95.4762 60.9213 95.4737 60.9158 95.4762L60.5479 95.6402C60.5424 95.6427 60.5399 95.6492 60.5424 95.6547L60.5751 95.7283C60.5776 95.7338 60.5841 95.7363 60.5896 95.7339L60.9574 95.5698C60.9629 95.5673 60.9654 95.5609 60.963 95.5553Z" fill="black"/>
<path d="M61.0092 95.8898L61.0827 95.857C61.0883 95.8545 61.0908 95.848 61.0883 95.8425L60.9248 95.4745C60.9223 95.4689 60.9158 95.4664 60.9103 95.4689L60.8367 95.5017C60.8312 95.5042 60.8287 95.5106 60.8311 95.5162L60.9947 95.8842C60.9971 95.8898 61.0036 95.8923 61.0092 95.8898Z" fill="black"/>
<path d="M60.6053 94.669L60.5427 94.7197C60.538 94.7235 60.5373 94.7304 60.5411 94.7351L61.3991 95.7961C61.4029 95.8008 61.4098 95.8016 61.4145 95.7978L61.4771 95.7471C61.4818 95.7433 61.4825 95.7363 61.4787 95.7316L60.6207 94.6706C60.6169 94.6659 60.61 94.6651 60.6053 94.669Z" fill="black"/>
<path d="M60.4422 94.8982L60.4338 94.9783C60.4331 94.9844 60.4375 94.9898 60.4435 94.9904L60.8441 95.0325C60.8501 95.0331 60.8555 95.0287 60.8561 95.0227L60.8646 94.9426C60.8652 94.9366 60.8609 94.9312 60.8548 94.9305L60.4543 94.8885C60.4483 94.8878 60.4429 94.8922 60.4422 94.8982Z" fill="black"/>
<path d="M60.7674 95.0178L60.8475 95.0262C60.8535 95.0268 60.8589 95.0225 60.8595 95.0164L60.9018 94.6159C60.9024 94.6099 60.898 94.6045 60.892 94.6038L60.8119 94.5954C60.8059 94.5948 60.8005 94.5992 60.7998 94.6052L60.7576 95.0057C60.757 95.0118 60.7613 95.0172 60.7674 95.0178Z" fill="black"/>
<path d="M61.2619 95.4412L61.1818 95.4328C61.1758 95.4322 61.1704 95.4365 61.1697 95.4426L61.1275 95.8431C61.1269 95.8491 61.1313 95.8545 61.1373 95.8551L61.2174 95.8635C61.2234 95.8642 61.2288 95.8598 61.2295 95.8538L61.2717 95.4533C61.2723 95.4472 61.268 95.4418 61.2619 95.4412Z" fill="black"/>
<path d="M61.593 95.5715L61.6014 95.4914C61.602 95.4854 61.5976 95.48 61.5916 95.4793L61.1911 95.4374C61.185 95.4367 61.1796 95.4411 61.179 95.4472L61.1706 95.5273C61.1699 95.5333 61.1743 95.5387 61.1804 95.5393L61.5809 95.5813C61.5869 95.5819 61.5923 95.5775 61.593 95.5715Z" fill="black"/>
<path d="M60.3129 95.2983L60.3254 95.3778C60.3264 95.3838 60.332 95.3879 60.338 95.387L61.6857 95.173C61.6916 95.172 61.6957 95.1664 61.6948 95.1604L61.6822 95.0808C61.6813 95.0749 61.6757 95.0708 61.6697 95.0717L60.322 95.2857C60.316 95.2867 60.3119 95.2923 60.3129 95.2983Z" fill="black"/>
<path d="M60.4279 95.5663L60.4931 95.6137C60.498 95.6172 60.5048 95.6161 60.5084 95.6112L60.7451 95.2854C60.7486 95.2805 60.7475 95.2736 60.7426 95.27L60.6775 95.2227C60.6726 95.2191 60.6657 95.2202 60.6621 95.2251L60.4255 95.5509C60.4219 95.5559 60.423 95.5627 60.4279 95.5663Z" fill="black"/>
<path d="M60.703 95.3358L60.7504 95.2706C60.7539 95.2657 60.7529 95.2588 60.748 95.2553L60.4223 95.0184C60.4174 95.0148 60.4105 95.0159 60.4069 95.0208L60.3596 95.086C60.356 95.0909 60.3571 95.0978 60.362 95.1013L60.6877 95.3382C60.6926 95.3418 60.6995 95.3407 60.703 95.3358Z" fill="black"/>
<path d="M61.3194 95.1144L61.2721 95.1796C61.2685 95.1845 61.2696 95.1914 61.2745 95.1949L61.6002 95.4318C61.6052 95.4353 61.612 95.4342 61.6156 95.4293L61.6629 95.3642C61.6665 95.3592 61.6654 95.3524 61.6605 95.3488L61.3347 95.112C61.3298 95.1084 61.323 95.1095 61.3194 95.1144Z" fill="black"/>
<path d="M61.5877 94.8985L61.5226 94.8512C61.5176 94.8476 61.5108 94.8487 61.5072 94.8536L61.2706 95.1795C61.267 95.1844 61.2681 95.1913 61.273 95.1948L61.3381 95.2422C61.343 95.2458 61.3499 95.2447 61.3535 95.2398L61.5901 94.9139C61.5937 94.909 61.5926 94.9021 61.5877 94.8985Z" fill="black"/>
<path d="M76.3325 56.5827L75.9873 56.4502L75.6527 57.3218L75.9979 57.4543L76.3325 56.5827Z" fill="black"/>
<path d="M76.9751 56.8298L76.6299 56.6973L76.1325 57.9927L76.4778 58.1252L76.9751 56.8298Z" fill="black"/>
<path d="M75.9321 57.6257L75.5869 57.4932L75.4898 57.7461L75.835 57.8786L75.9321 57.6257Z" fill="black"/>
<path d="M73.8733 57.0274L73.8707 57.0342L74.2736 57.1889L75.0659 56.9519L74.8546 57.5022L75.1892 57.6306L75.6865 56.3352L75.3519 56.2068L75.1315 56.781L74.6827 55.9498L74.3174 55.8096L74.3148 55.8164L74.8003 56.7558L73.8733 57.0274Z" fill="black"/>
<path d="M77.3103 58.2607L77.1874 58.2135L77.4406 57.5538C77.522 57.3419 77.7481 57.2836 77.9325 57.3544C78.1168 57.4252 78.2424 57.6185 78.1645 57.8317L77.8509 58.6486L78.4381 58.8741L78.3871 58.6702L78.2642 58.623L78.5122 57.977C78.6579 57.5976 78.3469 57.3057 78.0041 57.178C77.6627 57.0469 77.2362 57.0557 77.0918 57.4317L76.7822 58.2383L77.3694 58.4638L77.3184 58.2599L77.3103 58.2607Z" fill="black"/>
<path d="M72.7187 56.4149C72.8012 56.5878 72.9648 56.733 73.1621 56.8008C73.3921 56.8853 73.6143 56.8882 73.8021 56.8073C73.9696 56.7383 74.088 56.6034 74.1523 56.4359C74.2271 56.2411 74.2134 56.0319 74.1009 55.8554C73.994 55.6849 73.8745 55.588 73.6492 55.5015C73.5843 55.4766 73.5283 55.4591 73.4698 55.4483C73.183 55.3892 72.9579 55.4754 72.8314 55.6111L73.125 55.7238C73.2022 55.6554 73.3708 55.6143 73.5825 55.6955C73.8181 55.786 73.9022 56.0261 73.8376 56.2249L72.7314 55.8002C72.6332 56.0252 72.6341 56.2373 72.7166 56.4102L72.7187 56.4149ZM73.7628 56.4197L73.7576 56.4334C73.666 56.5904 73.4693 56.7149 73.2337 56.6244C72.9981 56.534 72.9432 56.2893 72.9859 56.1371L72.9912 56.1235L73.7628 56.4197Z" fill="black"/>
<path d="M80.0026 88.2799C80.0026 88.2799 78.6373 88.5401 75.2425 87.974C71.8457 87.4032 63.8032 85.0449 60.7824 86.6578C57.7617 88.2707 61.0453 90.555 61.5078 90.7992C61.9716 91.04 63.7411 91.9821 65.6767 92.2978C67.6144 92.6182 70.0913 92.4319 71.6472 92.8488C73.2031 93.2657 75.5473 93.7618 77.9965 95.7806C83.412 100.236 86.0515 101.963 88.9437 101.195" fill="white"/>
<path d="M80.0026 88.2799C80.0026 88.2799 78.6373 88.5401 75.2425 87.974C71.8457 87.4032 63.8032 85.0449 60.7824 86.6578C57.7617 88.2707 61.0453 90.555 61.5078 90.7992C61.9716 91.04 63.7411 91.9821 65.6767 92.2978C67.6144 92.6182 70.0913 92.4319 71.6472 92.8488C73.2031 93.2657 75.5473 93.7618 77.9965 95.7806C83.412 100.236 86.0515 101.963 88.9437 101.195" stroke="black" stroke-width="1.5" stroke-miterlimit="10" stroke-linecap="round"/>
<path d="M45.6412 89.7075C44.5674 92.0248 44.613 95.6816 44.9738 96.3848C45.3311 97.0868 47.1931 98.3389 47.8498 95.9243C48.5066 93.5097 48.242 90.8825 47.4883 89.9068" fill="white"/>
<path d="M45.6412 89.7075C44.5674 92.0248 44.613 95.6816 44.9738 96.3848C45.3311 97.0868 47.1931 98.3389 47.8498 95.9243C48.5066 93.5097 48.242 90.8825 47.4883 89.9068" stroke="black" stroke-width="1.5" stroke-miterlimit="10" stroke-linecap="round"/>
<path d="M45.9632 87.7058C44.8894 90.0231 45.3937 93.6482 45.7511 94.3502C46.1084 95.0521 47.9704 96.3042 48.6271 93.8896C49.2839 91.475 49.0193 88.8478 48.2656 87.8721" fill="white"/>
<path d="M45.9632 87.7058C44.8894 90.0231 45.3937 93.6482 45.7511 94.3502C46.1084 95.0521 47.9704 96.3042 48.6271 93.8896C49.2839 91.475 49.0193 88.8478 48.2656 87.8721" stroke="black" stroke-width="1.5" stroke-miterlimit="10" stroke-linecap="round"/>
</svg>
