<svg width="116" height="128" viewBox="0 0 116 128" fill="none" xmlns="http://www.w3.org/2000/svg">
<path d="M30.88 127.6C25.9733 127.6 21.6533 127.173 17.92 126.32C14.1867 125.467 10.6133 124.133 7.2 122.32V105.2C10.6133 107.547 14.4 109.307 18.56 110.48C22.8267 111.653 26.8267 112.24 30.56 112.24C34.08 112.24 37.1733 111.707 39.84 110.64C42.6133 109.573 44.96 108.08 46.88 106.16C48.9067 104.24 50.4 101.947 51.36 99.28C52.32 96.5067 52.8 93.4667 52.8 90.16C52.8 86.8533 52.16 84.0267 50.88 81.68C49.7067 79.3333 47.84 77.5733 45.28 76.4C42.72 75.2267 39.4133 74.64 35.36 74.64H28.32L31.36 59.76H37.44C41.0667 59.76 44.3733 59.28 47.36 58.32C50.4533 57.2533 53.12 55.76 55.36 53.84C57.6 51.8133 59.3067 49.4133 60.48 46.64C61.76 43.76 62.4 40.6133 62.4 37.2C62.4 33.5733 61.44 30.7467 59.52 28.72C57.7067 26.6933 54.9333 25.68 51.2 25.68C47.7867 25.68 44.4267 26.3733 41.12 27.76C37.92 29.1467 34.6667 30.96 31.36 33.2L25.92 19.92C30.1867 16.72 34.6133 14.32 39.2 12.72C43.7867 11.0133 49.0133 10.16 54.88 10.16C60.2133 10.16 64.8 11.0667 68.64 12.88C72.5867 14.6933 75.6267 17.3067 77.76 20.72C79.8933 24.1333 80.96 28.3467 80.96 33.36C80.96 38.5867 79.8933 43.4933 77.76 48.08C75.7333 52.56 72.7467 56.4 68.8 59.6C64.96 62.6933 60.3733 64.9867 55.04 66.48L54.88 66.96C59.7867 68.24 63.7333 70.8 66.72 74.64C69.8133 78.3733 71.36 83.3867 71.36 89.68C71.36 94.8 70.5067 99.6533 68.8 104.24C67.0933 108.72 64.48 112.72 60.96 116.24C57.5467 119.76 53.3333 122.533 48.32 124.56C43.3067 126.587 37.4933 127.6 30.88 127.6Z" fill="#EC0051"/>
<g clip-path="url(#clip0_6927_1534)">
<path d="M89.3616 50.0166H56.9541V112.679H101.065C100.541 112.679 101.065 81.9881 101.065 81.9881V61.7646L89.3616 50.0166Z" fill="white"/>
<path d="M64.1426 66.808L65.6466 65.528C66.3026 66.632 67.1346 67.24 68.2386 67.416V63.896C66.4946 63.56 64.7186 63.032 64.7186 60.776C64.7186 58.872 66.2226 57.608 68.2386 57.384V55.848H69.7586V57.384C71.3746 57.592 72.7026 58.36 73.3266 59.448L71.9346 60.76C71.4226 59.88 70.6866 59.288 69.7586 59.08V62.344C71.5186 62.68 73.3586 63.208 73.3586 65.576C73.3586 67.56 71.7906 68.856 69.7586 69.128V70.696H68.2386V69.144C66.4306 68.952 64.9266 68.104 64.1426 66.808ZM66.5746 60.632C66.5746 61.48 67.2786 61.816 68.2386 62.056V59.032C67.2466 59.208 66.5746 59.752 66.5746 60.632ZM71.4866 65.72C71.4866 64.808 70.7506 64.44 69.7586 64.2V67.4C70.7506 67.24 71.4866 66.728 71.4866 65.72Z" fill="black"/>
<path opacity="0.2" d="M101.065 61.7646H89.3613V50.0166L101.065 61.7646Z" fill="#EC0051"/>
<path d="M101.065 61.7646H89.3613V50.0166L101.065 61.7646Z" stroke="black" stroke-width="2" stroke-linecap="round" stroke-linejoin="round"/>
<path d="M92.4894 112.679H56.9541V50.0166H89.3616" stroke="black" stroke-width="2" stroke-linecap="round" stroke-linejoin="round"/>
<path d="M101.045 61.7646V102.456" stroke="black" stroke-width="2" stroke-linecap="round" stroke-linejoin="round"/>
<path d="M64.7227 74.1709H75.3772" stroke="black" stroke-width="2" stroke-linecap="round" stroke-linejoin="round"/>
<path d="M64.7227 78.8252H85.4062" stroke="black" stroke-width="2" stroke-linecap="round" stroke-linejoin="round"/>
<path d="M105.848 112.984H52.1514V77.1709L79.0096 92.9839L105.848 77.1709V112.984Z" fill="white" stroke="black" stroke-width="2" stroke-linecap="round" stroke-linejoin="round"/>
<path d="M52.1514 112.984L76.6891 95.0771" stroke="black" stroke-width="2" stroke-linecap="round" stroke-linejoin="round"/>
<path d="M105.848 112.984L81.3105 95.0771" stroke="black" stroke-width="2" stroke-linecap="round" stroke-linejoin="round"/>
</g>
<defs>
<clipPath id="clip0_6927_1534">
<rect width="55.7143" height="65" fill="white" transform="translate(51.1426 49)"/>
</clipPath>
</defs>
</svg>
