<svg width="116" height="128" viewBox="0 0 116 128" fill="none" xmlns="http://www.w3.org/2000/svg">
<path d="M34.52 126L39.64 101.84H1.08L4.12 87.44L57.88 11.28H76.28L60.44 86.64H72.12L68.92 101.84H57.08L51.96 126H34.52ZM19.64 86.64H42.84L50.36 52.08C50.7867 50.16 51.2667 48.1867 51.8 46.16C52.3333 44.0267 52.8667 41.9467 53.4 39.92C54.04 37.8933 54.52 36.1333 54.84 34.64H54.36C53.2933 36.56 52.28 38.32 51.32 39.92C50.4667 41.4133 49.6133 42.8 48.76 44.08C47.9067 45.36 47.1067 46.5867 46.36 47.76L19.64 86.64Z" fill="#EC0051"/>
<g clip-path="url(#clip0_6927_1549)">
<path d="M53.7398 107.933H44.6162V58.6289H82.8018C86.874 58.6289 90.1897 61.9716 90.1897 66.1273V70.4186H100.359C101.427 70.4186 102.384 71.0962 102.74 72.1351L108.326 88.2613C111.218 88.3968 113.51 90.7909 113.51 93.727V107.933H53.7398Z" fill="white"/>
<path d="M101.827 114.393C105.33 114.393 108.169 111.511 108.169 107.956C108.169 104.401 105.33 101.52 101.827 101.52C98.3248 101.52 95.4854 104.401 95.4854 107.956C95.4854 111.511 98.3248 114.393 101.827 114.393Z" fill="white"/>
<path d="M67.2026 107.956C67.2026 111.502 64.3542 114.393 60.8606 114.393C57.3669 114.393 54.5186 111.502 54.5186 107.956C54.5186 104.41 57.3669 101.52 60.8606 101.52C64.3542 101.52 67.2026 104.41 67.2026 107.956Z" fill="white"/>
<path d="M94.8619 107.934H67.6914" stroke="black" stroke-width="2" stroke-linecap="round" stroke-linejoin="round"/>
<path d="M44.6152 98.2891V107.933H53.7388" stroke="black" stroke-width="2" stroke-linecap="round" stroke-linejoin="round"/>
<path d="M101.827 114.393C105.33 114.393 108.169 111.511 108.169 107.956C108.169 104.401 105.33 101.52 101.827 101.52C98.3248 101.52 95.4854 104.401 95.4854 107.956C95.4854 111.511 98.3248 114.393 101.827 114.393Z" stroke="black" stroke-width="2" stroke-linecap="round" stroke-linejoin="round"/>
<path d="M67.2016 107.956C67.2016 111.502 64.3533 114.393 60.8596 114.393C57.3659 114.393 54.5176 111.502 54.5176 107.956C54.5176 104.41 57.3659 101.52 60.8596 101.52C64.3533 101.52 67.2016 104.41 67.2016 107.956Z" stroke="black" stroke-width="2" stroke-linecap="round" stroke-linejoin="round"/>
<path d="M90.167 70.4189H100.336C101.405 70.4189 102.361 71.0965 102.717 72.1355L108.303 88.2616C111.196 88.3971 113.488 90.7912 113.488 93.7274V107.934H108.792" stroke="black" stroke-width="2" stroke-linecap="round" stroke-linejoin="round"/>
<path d="M104.275 76.6523H96.6426V88.2614H108.281" stroke="black" stroke-width="2" stroke-linecap="round" stroke-linejoin="round"/>
<path d="M34.5127 58.6289H82.801C86.8732 58.6289 90.1889 61.9716 90.1889 66.1273V107.753" stroke="black" stroke-width="2" stroke-linecap="round" stroke-linejoin="round"/>
<path d="M36.9824 66.127H49.4439" stroke="black" stroke-width="2" stroke-linecap="round" stroke-linejoin="round"/>
<path d="M39.4307 73.6035H51.9144" stroke="black" stroke-width="2" stroke-linecap="round" stroke-linejoin="round"/>
<path d="M44.6152 98.2898V92.0335V73.7617" stroke="black" stroke-width="2" stroke-linecap="round" stroke-linejoin="round"/>
<path d="M44.6152 93.5918H90.1665" stroke="black" stroke-width="2" stroke-linecap="round" stroke-linejoin="round"/>
</g>
<defs>
<clipPath id="clip0_6927_1549">
<rect width="81.2" height="58" fill="white" transform="translate(33.4004 57.5)"/>
</clipPath>
</defs>
</svg>
