<svg width="81" height="45" viewBox="0 0 81 45" fill="none" xmlns="http://www.w3.org/2000/svg">
<path d="M72.8588 0.25H8.14158C3.89374 0.25 0.450195 3.69355 0.450195 7.94138V37.0586C0.450195 41.3065 3.89374 44.75 8.14158 44.75H72.8588C77.1066 44.75 80.5502 41.3065 80.5502 37.0586V7.94138C80.5502 3.69355 77.1066 0.25 72.8588 0.25Z" fill="#FFB3C7"/>
<path d="M73.0638 26.32C72.8134 26.321 72.5657 26.3713 72.3347 26.4681C72.1037 26.5649 71.8942 26.7063 71.7179 26.8842C71.5417 27.0621 71.4022 27.273 71.3076 27.5048C71.213 27.7367 71.165 27.9849 71.1664 28.2353C71.165 28.4857 71.213 28.734 71.3076 28.9658C71.4022 29.1976 71.5417 29.4086 71.7179 29.5865C71.8942 29.7644 72.1037 29.9057 72.3347 30.0025C72.5657 30.0993 72.8134 30.1497 73.0638 30.1506C74.1105 30.1506 74.9613 29.2926 74.9613 28.2353C74.9627 27.9849 74.9147 27.7367 74.8201 27.5048C74.7255 27.273 74.586 27.0621 74.4098 26.8842C74.2335 26.7063 74.0239 26.5649 73.793 26.4681C73.562 26.3713 73.3143 26.321 73.0638 26.32ZM66.8196 24.8408C66.8196 23.3919 65.5932 22.2189 64.0802 22.2189C62.5672 22.2189 61.3408 23.3937 61.3408 24.8408C61.3408 26.288 62.569 27.461 64.082 27.461C65.595 27.461 66.8196 26.288 66.8196 24.8408ZM66.8303 19.7447H69.8527V29.9352H66.8303V29.2837C65.9491 29.892 64.9035 30.2173 63.8328 30.2164C60.8904 30.2164 58.5052 27.8099 58.5052 24.8408C58.5052 21.8718 60.8904 19.4652 63.8328 19.4652C64.9453 19.4652 65.9759 19.8088 66.8303 20.398V19.7447ZM42.6365 21.0726V19.7465H39.5411V29.9352H42.6436V25.1773C42.6436 23.5717 44.3667 22.7102 45.5628 22.7102H45.5984V19.7465C44.3702 19.7465 43.2435 20.2769 42.6365 21.0726ZM34.9256 24.8408C34.9256 23.3919 33.6991 22.2189 32.1861 22.2189C30.6731 22.2189 29.4467 23.3937 29.4467 24.8408C29.4467 26.288 30.6749 27.461 32.1879 27.461C33.7009 27.461 34.9256 26.288 34.9256 24.8408ZM34.9362 19.7447H37.9605V29.9352H34.9362V29.2837C34.0818 29.8711 33.0512 30.2164 31.9387 30.2164C28.9964 30.2164 26.6112 27.8099 26.6112 24.8408C26.6112 21.8718 28.9964 19.4652 31.9387 19.4652C33.0512 19.4652 34.0818 19.8088 34.9362 20.398V19.7447ZM53.1332 19.4724C51.9263 19.4724 50.7836 19.8497 50.0182 20.8928V19.7465H47.0082V29.9352H50.0556V24.581C50.0556 23.0324 51.0844 22.2723 52.3251 22.2723C53.6529 22.2723 54.4183 23.0733 54.4183 24.5596V29.9352H57.4372V23.456C57.4372 21.085 55.5682 19.4724 53.1332 19.4724ZM22.2075 29.9352H25.3723V15.2057H22.2075V29.9352ZM8.30566 29.9388H11.6574V15.2021H8.30744L8.30566 29.9388ZM20.0287 15.2021C20.0287 18.3919 18.797 21.3609 16.6005 23.5664L21.232 29.9388H17.0935L12.0615 23.0146L13.3609 22.032C14.4187 21.2364 15.2757 20.2045 15.8636 19.0186C16.4514 17.8327 16.7538 16.5257 16.7464 15.2021H20.0252H20.0287Z" fill="#0A0B09"/>
</svg>
