<svg width="69" height="12" viewBox="0 0 69 12" fill="none" xmlns="http://www.w3.org/2000/svg">
<path d="M5.60969 1.20126C5.73254 0.823156 6.26746 0.823156 6.39031 1.20126L7.25494 3.86232C7.30989 4.03141 7.46746 4.1459 7.64526 4.1459H10.4433C10.8408 4.1459 11.0061 4.65464 10.6845 4.88832L8.42085 6.53294C8.27701 6.63745 8.21683 6.82269 8.27177 6.99178L9.1364 9.65284C9.25925 10.0309 8.82649 10.3454 8.50486 10.1117L6.24123 8.46706C6.09739 8.36255 5.90261 8.36255 5.75877 8.46706L3.49514 10.1117C3.17351 10.3454 2.74075 10.0309 2.8636 9.65284L3.72823 6.99178C3.78317 6.82269 3.72299 6.63745 3.57915 6.53294L1.31552 4.88832C0.99388 4.65464 1.15918 4.1459 1.55674 4.1459H4.35474C4.53254 4.1459 4.69011 4.03141 4.74506 3.86232L5.60969 1.20126Z" fill="#E0004D"/>
<path d="M19.6617 1.20126C19.7845 0.823156 20.3195 0.823156 20.4423 1.20126L21.3069 3.86232C21.3619 4.03141 21.5195 4.1459 21.6973 4.1459H24.4953C24.8928 4.1459 25.0581 4.65464 24.7365 4.88832L22.4729 6.53294C22.329 6.63745 22.2688 6.82269 22.3238 6.99178L23.1884 9.65284C23.3113 10.0309 22.8785 10.3454 22.5569 10.1117L20.2932 8.46706C20.1494 8.36255 19.9546 8.36255 19.8108 8.46706L17.5471 10.1117C17.2255 10.3454 16.7928 10.0309 16.9156 9.65284L17.7802 6.99178C17.8352 6.82269 17.775 6.63745 17.6311 6.53294L15.3675 4.88832C15.0459 4.65464 15.2112 4.1459 15.6087 4.1459H18.4067C18.5845 4.1459 18.7421 4.03141 18.7971 3.86232L19.6617 1.20126Z" fill="#E0004D"/>
<path d="M33.7137 1.20126C33.8365 0.823156 34.3715 0.823156 34.4943 1.20126L35.3589 3.86232C35.4139 4.03141 35.5715 4.1459 35.7493 4.1459H38.5473C38.9448 4.1459 39.1101 4.65464 38.7885 4.88832L36.5249 6.53294C36.381 6.63745 36.3208 6.82269 36.3758 6.99178L37.2404 9.65284C37.3633 10.0309 36.9305 10.3454 36.6089 10.1117L34.3452 8.46706C34.2014 8.36255 34.0066 8.36255 33.8628 8.46706L31.5991 10.1117C31.2775 10.3454 30.8448 10.0309 30.9676 9.65284L31.8322 6.99178C31.8872 6.82269 31.827 6.63745 31.6831 6.53294L29.4195 4.88832C29.0979 4.65464 29.2632 4.1459 29.6607 4.1459H32.4587C32.6365 4.1459 32.7941 4.03141 32.8491 3.86232L33.7137 1.20126Z" fill="#E0004D"/>
<path d="M47.7657 1.20126C47.8885 0.823156 48.4235 0.823156 48.5463 1.20126L49.4109 3.86232C49.4659 4.03141 49.6235 4.1459 49.8013 4.1459H52.5993C52.9968 4.1459 53.1621 4.65464 52.8405 4.88832L50.5769 6.53294C50.433 6.63745 50.3728 6.82269 50.4278 6.99178L51.2924 9.65284C51.4153 10.0309 50.9825 10.3454 50.6609 10.1117L48.3972 8.46706C48.2534 8.36255 48.0586 8.36255 47.9148 8.46706L45.6511 10.1117C45.3295 10.3454 44.8968 10.0309 45.0196 9.65284L45.8842 6.99178C45.9392 6.82269 45.879 6.63745 45.7352 6.53294L43.4715 4.88832C43.1499 4.65464 43.3152 4.1459 43.7127 4.1459H46.5107C46.6885 4.1459 46.8461 4.03141 46.9011 3.86232L47.7657 1.20126Z" fill="#E0004D"/>
<path d="M61.8177 1.20126C61.9405 0.823156 62.4755 0.823156 62.5983 1.20126L63.463 3.86232C63.5179 4.03141 63.6755 4.1459 63.8533 4.1459H66.6513C67.0488 4.1459 67.2141 4.65464 66.8925 4.88832L64.6289 6.53294C64.485 6.63745 64.4248 6.82269 64.4798 6.99178L65.3444 9.65284C65.4673 10.0309 65.0345 10.3454 64.7129 10.1117L62.4492 8.46706C62.3054 8.36255 62.1106 8.36255 61.9668 8.46706L59.7032 10.1117C59.3815 10.3454 58.9488 10.0309 59.0716 9.65284L59.9362 6.99178C59.9912 6.82269 59.931 6.63745 59.7872 6.53294L57.5235 4.88832C57.2019 4.65464 57.3672 4.1459 57.7648 4.1459H60.5628C60.7405 4.1459 60.8981 4.03141 60.9531 3.86232L61.8177 1.20126Z" fill="#E0004D"/>
</svg>
