<?xml version="1.0" encoding="UTF-8"?>
<svg id="_图层_2" data-name="图层 2" xmlns="http://www.w3.org/2000/svg" xmlns:xlink="http://www.w3.org/1999/xlink" viewBox="0 0 142.43 142.43">
  <defs>
    <style>
      .cls-1 {
        fill: url(#_未命名的渐变_7-22);
      }

      .cls-2 {
        fill: url(#_未命名的渐变_7-17);
      }

      .cls-3 {
        fill: url(#_未命名的渐变_7-2);
      }

      .cls-4 {
        fill: url(#_未命名的渐变_7-10);
      }

      .cls-5 {
        fill: url(#_未命名的渐变_7-5);
      }

      .cls-6 {
        fill: url(#_未命名的渐变_7-24);
      }

      .cls-7 {
        fill: url(#_未命名的渐变_7-6);
      }

      .cls-8 {
        fill: url(#_未命名的渐变_7-13);
      }

      .cls-9 {
        fill: url(#_未命名的渐变_7-7);
      }

      .cls-10 {
        fill: url(#_未命名的渐变_7-20);
      }

      .cls-11 {
        fill: url(#_未命名的渐变_7-19);
      }

      .cls-12 {
        fill: url(#_未命名的渐变_7-16);
      }

      .cls-13 {
        fill: url(#_未命名的渐变_7-23);
      }

      .cls-14 {
        fill: url(#_未命名的渐变_7-4);
      }

      .cls-15 {
        fill: url(#_未命名的渐变_7);
      }

      .cls-16 {
        fill: url(#_未命名的渐变_7-21);
      }

      .cls-17 {
        fill: url(#_未命名的渐变_7-25);
      }

      .cls-18 {
        fill: url(#_未命名的渐变_7-14);
      }

      .cls-19 {
        fill: url(#_未命名的渐变_7-8);
      }

      .cls-20 {
        fill: url(#_未命名的渐变_7-18);
      }

      .cls-21 {
        fill: url(#_未命名的渐变_7-11);
      }

      .cls-22 {
        fill: url(#_未命名的渐变_7-15);
      }

      .cls-23 {
        fill: url(#_未命名的渐变_7-9);
      }

      .cls-24 {
        fill: url(#_未命名的渐变_7-12);
      }

      .cls-25 {
        fill: url(#_未命名的渐变_7-3);
      }
    </style>
    <linearGradient id="_未命名的渐变_7" data-name="未命名的渐变 7" x1="0" y1="71.21" x2="142.43" y2="71.21" gradientUnits="userSpaceOnUse">
      <stop offset="0" stop-color="#fff"/>
      <stop offset="1" stop-color="#ecdac1"/>
    </linearGradient>
    <linearGradient id="_未命名的渐变_7-2" data-name="未命名的渐变 7" x1="127.83" y1="59.77" x2="141.77" y2="59.77" xlink:href="#_未命名的渐变_7"/>
    <linearGradient id="_未命名的渐变_7-3" data-name="未命名的渐变 7" x1="124.74" y1="47.38" x2="138.06" y2="47.38" xlink:href="#_未命名的渐变_7"/>
    <linearGradient id="_未命名的渐变_7-4" data-name="未命名的渐变 7" x1="30.88" y1="17.56" x2="39.44" y2="17.56" xlink:href="#_未命名的渐变_7"/>
    <linearGradient id="_未命名的渐变_7-5" data-name="未命名的渐变 7" x1="127.55" y1="84.55" x2="141.41" y2="84.55" xlink:href="#_未命名的渐变_7"/>
    <linearGradient id="_未命名的渐变_7-6" data-name="未命名的渐变 7" x1="123.81" y1="97.71" x2="136.91" y2="97.71" xlink:href="#_未命名的渐变_7"/>
    <linearGradient id="_未命名的渐变_7-7" data-name="未命名的渐变 7" x1="57.9" y1="7.77" x2="61.63" y2="7.77" xlink:href="#_未命名的渐变_7"/>
    <linearGradient id="_未命名的渐变_7-8" data-name="未命名的渐变 7" x1="44.29" y1="11.17" x2="50.47" y2="11.17" xlink:href="#_未命名的渐变_7"/>
    <linearGradient id="_未命名的渐变_7-9" data-name="未命名的渐变 7" x1="118.09" y1="108.87" x2="129.91" y2="108.87" xlink:href="#_未命名的渐变_7"/>
    <linearGradient id="_未命名的渐变_7-10" data-name="未命名的渐变 7" x1="104.44" y1="18.57" x2="113.29" y2="18.57" xlink:href="#_未命名的渐变_7"/>
    <linearGradient id="_未命名的渐变_7-11" data-name="未命名的渐变 7" x1="94.37" y1="12.21" x2="101.05" y2="12.21" xlink:href="#_未命名的渐变_7"/>
    <linearGradient id="_未命名的渐变_7-12" data-name="未命名的渐变 7" x1="119" y1="35.16" x2="131.01" y2="35.16" xlink:href="#_未命名的渐变_7"/>
    <linearGradient id="_未命名的渐变_7-13" data-name="未命名的渐变 7" x1="55.98" y1="134.48" x2="60.06" y2="134.48" xlink:href="#_未命名的渐变_7"/>
    <linearGradient id="_未命名的渐变_7-14" data-name="未命名的渐变 7" x1="92.09" y1="131.4" x2="98.28" y2="131.4" xlink:href="#_未命名的渐变_7"/>
    <linearGradient id="_未命名的渐变_7-15" data-name="未命名的渐变 7" x1="103.13" y1="125.01" x2="111.69" y2="125.01" xlink:href="#_未命名的渐变_7"/>
    <linearGradient id="_未命名的渐变_7-16" data-name="未命名的渐变 7" x1="80.93" y1="134.8" x2="84.67" y2="134.8" xlink:href="#_未命名的渐变_7"/>
    <linearGradient id="_未命名的渐变_7-17" data-name="未命名的渐变 7" x1="82.51" y1="8.09" x2="86.58" y2="8.09" xlink:href="#_未命名的渐变_7"/>
    <linearGradient id="_未命名的渐变_7-18" data-name="未命名的渐变 7" x1="41.52" y1="130.36" x2="48.2" y2="130.36" xlink:href="#_未命名的渐变_7"/>
    <linearGradient id="_未命名的渐变_7-19" data-name="未命名的渐变 7" x1=".8" y1="82.8" x2="14.74" y2="82.8" xlink:href="#_未命名的渐变_7"/>
    <linearGradient id="_未命名的渐变_7-20" data-name="未命名的渐变 7" x1="4.51" y1="95.19" x2="17.82" y2="95.19" xlink:href="#_未命名的渐变_7"/>
    <linearGradient id="_未命名的渐变_7-21" data-name="未命名的渐变 7" x1="11.56" y1="107.41" x2="23.57" y2="107.41" xlink:href="#_未命名的渐变_7"/>
    <linearGradient id="_未命名的渐变_7-22" data-name="未命名的渐变 7" x1="29.28" y1="124" x2="38.13" y2="124" xlink:href="#_未命名的渐变_7"/>
    <linearGradient id="_未命名的渐变_7-23" data-name="未命名的渐变 7" x1="1.15" y1="58.02" x2="15.02" y2="58.02" xlink:href="#_未命名的渐变_7"/>
    <linearGradient id="_未命名的渐变_7-24" data-name="未命名的渐变 7" x1="5.66" y1="44.86" x2="18.76" y2="44.86" xlink:href="#_未命名的渐变_7"/>
    <linearGradient id="_未命名的渐变_7-25" data-name="未命名的渐变 7" x1="12.66" y1="33.7" x2="24.48" y2="33.7" xlink:href="#_未命名的渐变_7"/>
  </defs>
  <g id="_图层_1-2" data-name="图层 1">
    <g>
      <path class="cls-15" d="M140.31,69.28c-11.5.62-23.01,1.03-34.51,1.26-10.45.24-20.9.29-31.36.43,7.69-1.32,15.38-2.62,23.12-3.68,8.77-1.26,17.56-2.4,26.39-3.33.07,0,.14-.02.21-.04.88-.21,1.42-1.09,1.21-1.96-.21-.88-1.09-1.42-1.97-1.21-8.63,2.05-17.31,3.89-26,5.61-7.99,1.62-16.02,3.01-24.05,4.36,7.55-2.95,15.11-5.89,22.76-8.59,8.3-2.98,16.65-5.85,25.07-8.52.06-.02.14-.05.2-.08.82-.38,1.17-1.35.79-2.16-.38-.82-1.35-1.17-2.16-.79-8.01,3.73-16.1,7.26-24.24,10.67-7.51,3.2-15.11,6.17-22.72,9.12,6.81-4.56,13.64-9.1,20.6-13.44,7.5-4.72,15.06-9.35,22.75-13.79.06-.03.12-.08.17-.12.72-.55.85-1.57.31-2.29-.55-.72-1.57-.85-2.29-.31-7.05,5.39-14.22,10.6-21.46,15.71-6.53,4.66-13.19,9.12-19.86,13.56,7.53-7.55,15.08-15.09,22.85-22.39,8.35-7.92,16.81-15.73,25.47-23.34.06-.06.13-.13.19-.19.77-.88.69-2.22-.19-3-.88-.77-2.22-.69-3,.2-7.61,8.66-15.42,17.12-23.34,25.47-7.21,7.68-14.65,15.14-22.11,22.58,4.55-6.44,9.12-12.87,13.88-19.16,5.31-7.09,10.72-14.12,16.31-21.01.04-.05.09-.12.12-.17.47-.77.23-1.77-.54-2.25-.77-.47-1.78-.23-2.25.53-4.65,7.56-9.48,14.99-14.41,22.35-4.5,6.8-9.2,13.45-13.92,20.1,3.25-7.43,6.53-14.85,10.02-22.17,3.76-7.98,7.63-15.91,11.7-23.75.03-.06.06-.13.08-.19.31-.84-.13-1.78-.97-2.09-.84-.31-1.78.13-2.08.97-3.03,8.3-6.25,16.52-9.59,24.68-3.03,7.54-6.29,14.97-9.57,22.4,1.7-7.98,3.33-15.98,5.11-23.94,1.91-8.65,3.95-17.28,6.15-25.87.01-.05.02-.11.03-.16.12-.85-.46-1.63-1.31-1.75-.84-.12-1.63.46-1.75,1.31-1.26,8.78-2.69,17.53-4.24,26.24-1.38,7.84-2.9,15.66-4.36,23.49-.01-10.61,0-21.22.33-31.83.3-11.5.76-23.01,1.5-34.51,0-.09,0-.18,0-.27-.08-1.17-1.08-2.06-2.25-1.98-1.17.08-2.06,1.08-1.98,2.25.74,11.5,1.2,23.01,1.5,34.51.33,10.53.35,21.06.33,31.58-1.34-7.76-2.64-15.53-3.73-23.34-1.26-8.77-2.4-17.56-3.33-26.39,0-.06-.02-.14-.04-.21-.21-.88-1.09-1.42-1.97-1.21-.88.21-1.42,1.09-1.21,1.97,2.05,8.63,3.89,17.31,5.61,26,1.63,7.99,3.01,16.02,4.37,24.06-2.95-7.55-5.89-15.12-8.59-22.77-2.98-8.3-5.86-16.65-8.52-25.07-.02-.06-.05-.13-.08-.2-.38-.81-1.35-1.17-2.16-.79-.82.38-1.17,1.35-.79,2.16,3.73,8.01,7.26,16.1,10.67,24.23,3.18,7.47,6.14,15.04,9.07,22.61-4.44-6.84-8.94-13.65-13.31-20.54-4.77-7.46-9.42-15-13.94-22.64-.03-.05-.06-.1-.09-.14-.51-.69-1.48-.83-2.16-.31-.68.51-.82,1.48-.31,2.16,5.32,7.1,10.49,14.29,15.56,21.56,4.57,6.52,9.02,13.12,13.53,19.69-7.51-7.49-15.01-15-22.27-22.74-7.92-8.35-15.73-16.81-23.34-25.47-.06-.07-.13-.13-.2-.2-.88-.77-2.22-.69-2.99.2-.77.88-.69,2.22.19,2.99,8.66,7.61,17.12,15.42,25.47,23.34,7.68,7.21,15.13,14.64,22.56,22.09-6.43-4.54-12.85-9.11-19.14-13.87-7.09-5.31-14.12-10.72-21.01-16.3-.05-.04-.12-.09-.17-.12-.77-.47-1.77-.23-2.25.54-.47.77-.23,1.77.53,2.25,7.56,4.65,14.99,9.48,22.35,14.42,6.8,4.5,13.46,9.2,20.1,13.92-7.43-3.25-14.85-6.53-22.17-10.02-7.98-3.76-15.91-7.63-23.75-11.7-.06-.03-.13-.06-.19-.09-.84-.31-1.78.13-2.08.97-.31.84.13,1.78.97,2.08,8.3,3.03,16.51,6.26,24.68,9.59,7.53,3.03,14.96,6.29,22.38,9.56-7.98-1.7-15.97-3.33-23.93-5.11-8.65-1.9-17.28-3.94-25.87-6.15-.05-.01-.11-.03-.16-.03-.85-.12-1.63.46-1.75,1.31-.12.85.46,1.63,1.31,1.75,8.78,1.26,17.53,2.69,26.25,4.25,7.85,1.38,15.67,2.9,23.51,4.36-10.62.01-21.23,0-31.85-.33-11.5-.3-23.01-.76-34.51-1.5-.09,0-.19,0-.27,0-1.17.08-2.05,1.09-1.98,2.26.08,1.17,1.08,2.05,2.25,1.98,11.5-.74,23.01-1.2,34.51-1.5,10.44-.33,20.89-.35,31.33-.33-7.7,1.22-15.4,2.49-23.11,3.62-8.76,1.31-17.54,2.5-26.36,3.52-.06,0-.11.02-.17.03-.83.19-1.35,1.02-1.17,1.85.19.83,1.02,1.36,1.85,1.17,8.65-1.97,17.33-3.76,26.03-5.43,7.9-1.54,15.82-2.93,23.73-4.38-7.49,2.81-14.97,5.68-22.49,8.41-8.28,3.04-16.61,5.94-25,8.7-.05.02-.1.04-.15.06-.78.35-1.12,1.26-.77,2.04.35.78,1.26,1.12,2.04.77,8.04-3.65,16.15-7.14,24.3-10.5,7.45-3.1,14.95-6.06,22.43-9.08-6.8,4.41-13.56,8.88-20.41,13.23-7.46,4.77-15,9.43-22.64,13.94-.05.03-.09.06-.14.09-.68.51-.82,1.48-.31,2.16.51.69,1.48.83,2.17.31,7.1-5.32,14.29-10.5,21.56-15.56,6.47-4.53,13.01-8.95,19.53-13.42-7.55,7.36-15.05,14.79-22.67,22.07-8.3,7.97-16.72,15.82-25.3,23.51-.05.05-.1.1-.16.15-.74.83-.67,2.1.16,2.84.82.74,2.1.67,2.84-.15,7.69-8.58,15.54-17,23.51-25.3,7.15-7.49,14.43-14.84,21.66-22.25-4.53,6.23-9.01,12.49-13.61,18.67-5.26,7.13-10.64,14.17-16.15,21.12-.03.04-.07.09-.1.13-.46.72-.24,1.68.48,2.13.72.46,1.68.24,2.13-.48,4.73-7.51,9.59-14.91,14.57-22.24,4.5-6.68,9.12-13.27,13.69-19.89-3.32,7.29-6.57,14.61-9.97,21.86-3.71,8-7.54,15.95-11.53,23.83-.02.05-.05.1-.07.15-.3.8.1,1.68.9,1.98.8.3,1.68-.1,1.98-.9,3.11-8.27,6.37-16.46,9.76-24.61,3.09-7.5,6.33-14.95,9.5-22.42-1.58,8-3.19,15.99-5.04,23.94-1.96,8.64-4.04,17.26-6.33,25.83-.02.07-.03.14-.04.21-.12.89.51,1.72,1.4,1.83.89.12,1.72-.51,1.84-1.4,1.17-8.8,2.56-17.55,4.06-26.28,1.31-7.86,2.85-15.67,4.42-23.47-.14,10.61-.18,21.22-.43,31.83-.23,11.51-.64,23.01-1.26,34.52,0,.07,0,.14,0,.22.06,1.11,1.01,1.96,2.12,1.9,1.11-.06,1.96-1,1.9-2.11-.63-11.51-1.03-23.01-1.26-34.52-.24-10.35-.29-20.71-.42-31.07,1.2,7.61,2.46,15.22,3.58,22.85,1.32,8.76,2.5,17.54,3.51,26.35,0,.06.02.12.03.17.19.83,1.02,1.36,1.85,1.17.83-.19,1.35-1.02,1.17-1.85-1.97-8.65-3.76-17.33-5.43-26.03-1.53-7.89-2.92-15.82-4.38-23.73,2.81,7.5,5.68,14.97,8.41,22.49,3.03,8.28,5.94,16.61,8.69,25,.02.05.04.11.06.16.35.77,1.26,1.12,2.04.77.77-.35,1.12-1.27.77-2.04-3.65-8.04-7.14-16.15-10.5-24.3-3.12-7.5-6.1-15.05-9.14-22.58,4.54,6.78,9.05,13.57,13.37,20.49,4.72,7.5,9.35,15.06,13.79,22.75.04.06.08.12.12.17.55.72,1.57.85,2.29.3.72-.55.85-1.57.3-2.29-5.39-7.05-10.6-14.22-15.71-21.46-4.62-6.48-9.05-13.09-13.46-19.71,7.4,7.6,14.87,15.13,22.2,22.8,7.97,8.29,15.82,16.72,23.51,25.3.05.05.1.1.16.15.82.74,2.09.67,2.84-.15.74-.82.67-2.1-.16-2.84-8.58-7.69-17-15.54-25.3-23.51-7.5-7.16-14.86-14.45-22.28-21.69,6.24,4.53,12.51,9.03,18.7,13.64,7.13,5.26,14.17,10.64,21.12,16.15.04.04.09.07.14.1.72.46,1.68.24,2.13-.49.46-.72.24-1.68-.48-2.13-7.51-4.72-14.92-9.59-22.24-14.57-6.67-4.49-13.25-9.11-19.87-13.68,7.28,3.31,14.59,6.57,21.84,9.95,8,3.71,15.95,7.54,23.83,11.53.05.02.1.05.15.07.8.3,1.68-.1,1.99-.9.3-.79-.1-1.68-.9-1.98-8.26-3.11-16.46-6.37-24.6-9.76-7.51-3.1-14.96-6.33-22.44-9.5,8,1.58,16,3.19,23.95,5.04,8.64,1.96,17.26,4.04,25.83,6.33.06.02.14.03.21.04.89.12,1.72-.51,1.84-1.4.12-.89-.51-1.72-1.4-1.84-8.8-1.17-17.55-2.56-26.29-4.06-7.85-1.31-15.65-2.85-23.45-4.42,10.6.14,21.21.18,31.81.43,11.5.23,23.01.63,34.51,1.26.07,0,.15,0,.22,0,1.11-.06,1.96-1.01,1.9-2.12-.06-1.11-1.01-1.96-2.12-1.9Z"/>
      <path class="cls-3" d="M140.2,61.16c.14,0,.28-.03.42-.07.86-.27,1.34-1.18,1.08-2.04-.27-.86-1.18-1.34-2.04-1.07l-11.82,3.66,12.37-.47Z"/>
      <path class="cls-25" d="M136.82,47.51c.13-.03.27-.09.4-.15.79-.44,1.08-1.43.65-2.22-.43-.79-1.42-1.08-2.21-.64l-10.9,5.98,12.07-2.96Z"/>
      <path class="cls-14" d="M39.44,23.56l-5.46-11.1c-.06-.12-.14-.25-.24-.35-.59-.68-1.63-.75-2.3-.15-.68.59-.75,1.62-.15,2.3l8.15,9.3Z"/>
      <path class="cls-5" d="M139.89,83.32l-12.34-.81,11.71,3.99c.13.04.27.08.42.09.9.06,1.67-.62,1.74-1.52.06-.9-.62-1.68-1.52-1.74Z"/>
      <path class="cls-7" d="M135.74,97.85l-11.93-3.48,10.63,6.44c.12.07.25.13.39.17.87.25,1.77-.24,2.03-1.11.25-.87-.25-1.77-1.11-2.02Z"/>
      <path class="cls-9" d="M61.63,14.74l-.47-12.37c0-.13-.03-.28-.07-.42-.27-.86-1.18-1.34-2.04-1.08-.86.27-1.34,1.18-1.07,2.04l3.66,11.82Z"/>
      <path class="cls-19" d="M50.47,17.82l-2.96-12.07c-.04-.13-.09-.27-.16-.39-.43-.79-1.42-1.08-2.22-.64-.79.43-1.08,1.42-.64,2.21l5.98,10.9Z"/>
      <path class="cls-23" d="M129.04,110.22l-10.95-5.78,9.08,8.42c.1.09.22.18.35.25.8.42,1.78.11,2.2-.68.42-.8.12-1.79-.68-2.21Z"/>
      <path class="cls-4" d="M113.1,15.05c.42-.8.11-1.79-.68-2.21-.8-.42-1.79-.11-2.21.68l-5.77,10.95,8.42-9.08c.09-.1.18-.22.25-.35Z"/>
      <path class="cls-21" d="M100.98,7.74c.25-.87-.25-1.77-1.11-2.02-.86-.25-1.77.24-2.02,1.11l-3.48,11.93,6.44-10.63c.07-.12.13-.25.17-.39Z"/>
      <path class="cls-24" d="M130.1,33.98c.12-.06.25-.14.36-.24.68-.59.74-1.62.15-2.3-.59-.68-1.62-.74-2.3-.15l-9.3,8.15,11.1-5.46Z"/>
      <path class="cls-8" d="M55.99,139.68c-.06.9.62,1.68,1.52,1.73.9.06,1.67-.62,1.74-1.52l.81-12.34-3.99,11.71c-.04.13-.08.27-.09.42Z"/>
      <path class="cls-18" d="M92.09,124.74l2.96,12.07c.03.13.09.27.15.4.44.79,1.43,1.08,2.22.65.79-.44,1.08-1.42.64-2.21l-5.98-10.9Z"/>
      <path class="cls-22" d="M103.13,119l5.46,11.1c.06.12.14.25.24.36.59.68,1.62.74,2.3.15.68-.59.75-1.63.15-2.3l-8.15-9.3Z"/>
      <path class="cls-12" d="M80.93,127.83l.47,12.37c0,.14.03.29.07.42.27.86,1.18,1.34,2.04,1.08.86-.27,1.34-1.18,1.08-2.04l-3.66-11.82Z"/>
      <path class="cls-2" d="M86.58,2.89c.06-.9-.62-1.68-1.52-1.73-.9-.06-1.68.62-1.74,1.52l-.81,12.34,3.99-11.71c.04-.13.07-.28.08-.42Z"/>
      <path class="cls-20" d="M41.59,134.82c-.25.87.24,1.77,1.11,2.03.87.25,1.77-.25,2.02-1.11l3.48-11.93-6.44,10.63c-.07.12-.13.25-.17.39Z"/>
      <path class="cls-11" d="M2.37,81.41c-.14,0-.29.03-.42.07-.86.27-1.34,1.18-1.08,2.04.27.86,1.18,1.34,2.04,1.08l11.82-3.66-12.37.47Z"/>
      <path class="cls-10" d="M5.75,95.06c-.13.04-.27.09-.4.16-.79.43-1.08,1.42-.64,2.21.43.79,1.42,1.08,2.22.64l10.9-5.98-12.07,2.96Z"/>
      <path class="cls-16" d="M12.47,108.59c-.12.06-.25.14-.35.24-.68.59-.75,1.63-.15,2.3.59.68,1.62.75,2.3.15l9.3-8.15-11.1,5.46Z"/>
      <path class="cls-1" d="M29.47,127.52c-.42.8-.12,1.79.68,2.21.8.42,1.78.11,2.2-.68l5.77-10.96-8.41,9.08c-.09.1-.18.22-.25.35Z"/>
      <path class="cls-13" d="M2.68,59.25l12.34.81-11.71-3.98c-.13-.04-.28-.07-.42-.08-.9-.06-1.68.62-1.74,1.52-.06.9.62,1.68,1.52,1.73Z"/>
      <path class="cls-6" d="M6.83,44.72l11.93,3.48-10.63-6.44c-.12-.07-.25-.13-.39-.17-.87-.25-1.77.25-2.02,1.11-.25.86.24,1.77,1.11,2.02Z"/>
      <path class="cls-17" d="M13.53,32.35l10.95,5.77-9.08-8.42c-.1-.09-.22-.18-.35-.25-.8-.42-1.79-.12-2.21.68-.42.8-.11,1.79.68,2.21Z"/>
    </g>
  </g>
</svg>