<svg width="62" height="44" viewBox="0 0 62 44" fill="none" xmlns="http://www.w3.org/2000/svg">
<g clip-path="url(#clip0_6228_2289)">
<mask id="path-1-inside-1_6228_2289" fill="white">
<path fill-rule="evenodd" clip-rule="evenodd" d="M10.277 37.0227C9.86535 37.0227 9.53223 36.6909 9.53223 36.281V13.0147C9.53223 11.2454 9.77191 8.70477 10.9121 6.65634C12.0415 4.6268 13.8492 3.48459 16.1526 3.3376C16.1628 3.32124 16.1725 3.30443 16.182 3.28795L16.1821 3.28792L16.1821 3.28786L16.1821 3.2878C16.1891 3.27581 16.1959 3.26399 16.2027 3.25264L16.203 3.25223C16.7326 2.36602 17.9733 0.289869 22.5388 0.018855C25.4813 -0.156455 28.4699 0.895403 30.9534 2.97889C33.5203 5.13241 35.1428 8.1531 35.5387 11.4364C35.9718 11.766 38.4583 13.6422 41.4262 15.5027C41.5941 15.6079 41.7133 15.7764 41.7566 15.9693C41.8 16.1621 41.7634 16.3644 41.6564 16.5316C39.1702 20.3763 37.483 29.8363 37.4667 29.932C37.4247 30.1734 37.2636 30.3784 37.0402 30.4795C36.9941 30.4998 32.3386 32.6547 29.3798 37.8695C29.243 38.1109 28.9898 38.2457 28.7311 38.2457H28.7271C28.6025 38.2457 28.4766 38.2147 28.3615 38.15C28.004 37.9491 27.8767 37.496 28.0798 37.1399C28.2671 36.8099 28.4602 36.4915 28.6579 36.1844C26.3708 34.9224 26.1567 31.0579 26.0606 28.7971C24.4851 29.9105 22.9016 30.6133 22.2252 30.6133L22.2265 30.6147C21.5099 30.6147 20.239 29.9974 19.1258 29.2974L19.1309 29.4427C19.1715 30.6361 19.2135 31.87 18.8898 33.0365C18.7246 33.6312 18.5337 34.1801 18.3035 34.7154C17.8607 35.7484 16.604 37.1401 15.1903 37.1401V37.1414C15.0779 37.1414 14.9642 37.132 14.8491 37.1131C14.4428 37.047 14.1679 36.6654 14.2343 36.2609C14.3006 35.8563 14.6839 35.5825 15.0901 35.6486C15.6927 35.7457 16.6067 34.8975 16.9331 34.1329C17.1362 33.6582 17.3068 33.17 17.4531 32.64C17.7157 31.6924 17.6779 30.575 17.6414 29.4939L17.6413 29.4926L17.6389 29.4184V29.4184L17.6389 29.4183C17.6274 29.0652 17.6156 28.702 17.6156 28.3517C17.6156 28.3103 17.619 28.2696 17.6255 28.2301C16.5484 27.3639 15.1934 26.0335 14.5959 24.4627C14.5609 24.3706 14.5278 24.2746 14.4964 24.175L14.4675 24.1753L14.4688 24.1766C13.1905 24.1766 12.1234 23.1706 12.0666 21.8868L11.9718 19.7494C11.9165 18.4985 12.8395 17.4247 14.0659 17.2679C14.1477 15.7304 14.2791 14.5694 14.2926 14.4538C14.34 14.0466 14.7083 13.7553 15.1173 13.8012C15.4265 13.8368 15.6691 14.0553 15.7492 14.3357C16.7501 13.6309 18.2195 12.3279 18.9557 10.3838C18.9679 10.3518 18.982 10.321 18.998 10.2917C18.716 9.78462 18.4466 9.24724 18.192 8.67776C18.0254 8.30422 18.1934 7.86459 18.5698 7.69872C18.9449 7.53285 19.3863 7.70007 19.5529 8.07496C21.5408 12.5224 24.6892 15.4245 28.9127 16.7042C31.2352 17.4082 33.2404 17.4018 34.1438 17.3487V13.0147C34.1438 9.57053 32.6312 6.32595 29.9933 4.11436C27.8037 2.2763 25.1875 1.34851 22.6268 1.5009C18.8487 1.72475 17.9252 3.27017 17.4824 4.01322L17.4805 4.01644C17.2723 4.36381 17.0136 4.79541 16.483 4.80885C11.7314 4.93696 11.0218 10.0061 11.0218 13.016V36.2837C11.0218 36.6936 10.6887 37.0254 10.277 37.0254V37.0227ZM29.5175 34.9524C31.0886 32.8699 32.8179 31.4126 34.154 30.4763C34.1473 30.4361 34.1438 30.3949 34.1438 30.3528V18.8358C33.9322 18.847 33.6789 18.8552 33.3895 18.8552L33.3882 18.8538C33.0734 18.8538 32.7158 18.8442 32.3227 18.8186C32.4297 19.1079 32.4818 19.4224 32.467 19.7491L32.3723 21.8865C32.3154 23.1703 31.2483 24.1763 29.97 24.1763L29.9676 24.1763C29.5564 25.5046 28.512 26.7697 27.3053 27.8213C27.4369 27.9482 27.5223 28.1231 27.5314 28.3194L27.5423 28.5797L27.5426 28.5872C27.6211 30.4291 27.781 34.1777 29.5175 34.9524ZM35.6333 29.5391C35.8012 29.4443 35.9464 29.3665 36.0652 29.305C36.3929 27.5572 37.8445 20.2779 40.0193 16.3698C38.2082 15.2088 36.6226 14.0823 35.6333 13.359V29.5391ZM30.2825 22.6373C30.5032 21.1096 30.4763 19.7006 30.4173 18.8017C30.7615 18.9452 30.9968 19.2915 30.9788 19.683L30.884 21.8204C30.8667 22.1997 30.6192 22.5145 30.2825 22.6373ZM14.0088 18.8058C13.6714 18.9522 13.4419 19.2946 13.4586 19.6819L13.5534 21.8194C13.5711 22.205 13.828 22.5244 14.1747 22.6424C14.0152 21.4575 13.9833 20.0849 14.0088 18.8058ZM15.9894 23.9367C15.345 22.2437 15.451 18.5513 15.6299 16.1648C16.4187 15.7338 18.6437 14.348 19.9438 11.8188C22.5603 15.6179 25.9034 17.3423 28.4794 18.1229C28.6119 18.163 28.7435 18.2011 28.8739 18.2371C28.9518 18.9482 29.1382 21.2569 28.5991 23.543C27.9424 26.3331 23.1365 29.103 22.2292 29.1313C21.9733 29.1219 20.7397 28.658 19.2068 27.5643C17.5805 26.4032 16.4376 25.1154 15.9894 23.9367ZM46.9414 29.2348C46.8547 29.2348 46.7667 29.22 46.6814 29.1876C46.2955 29.0447 46.1005 28.6172 46.244 28.2342C49.1635 20.4289 48.3361 12.6829 48.1411 11.213L45.0605 8.41076C44.7571 8.13431 44.7355 7.66502 45.0131 7.36295C45.2907 7.06088 45.7619 7.0393 46.0653 7.31575L49.3436 10.2974C49.4669 10.4093 49.5495 10.5603 49.5765 10.7248C49.6361 11.089 51.0052 19.7587 47.6401 28.7521C47.5291 29.0501 47.2447 29.2348 46.9427 29.2348H46.9414ZM34.6419 40.5033C34.7245 40.533 34.8085 40.5465 34.8924 40.5465L34.8938 40.5478C35.1998 40.5478 35.4869 40.359 35.5952 40.0556C35.6007 40.0394 36.206 38.3928 37.6887 37.5662C38.0476 37.3653 38.1749 36.9135 37.9745 36.5561C37.7727 36.1988 37.3191 36.072 36.9602 36.2716C34.9967 37.3666 34.2249 39.4663 34.1924 39.5553C34.0529 39.941 34.2546 40.3657 34.6419 40.5033Z"/>
</mask>
<path fill-rule="evenodd" clip-rule="evenodd" d="M10.277 37.0227C9.86535 37.0227 9.53223 36.6909 9.53223 36.281V13.0147C9.53223 11.2454 9.77191 8.70477 10.9121 6.65634C12.0415 4.6268 13.8492 3.48459 16.1526 3.3376C16.1628 3.32124 16.1725 3.30443 16.182 3.28795L16.1821 3.28792L16.1821 3.28786L16.1821 3.2878C16.1891 3.27581 16.1959 3.26399 16.2027 3.25264L16.203 3.25223C16.7326 2.36602 17.9733 0.289869 22.5388 0.018855C25.4813 -0.156455 28.4699 0.895403 30.9534 2.97889C33.5203 5.13241 35.1428 8.1531 35.5387 11.4364C35.9718 11.766 38.4583 13.6422 41.4262 15.5027C41.5941 15.6079 41.7133 15.7764 41.7566 15.9693C41.8 16.1621 41.7634 16.3644 41.6564 16.5316C39.1702 20.3763 37.483 29.8363 37.4667 29.932C37.4247 30.1734 37.2636 30.3784 37.0402 30.4795C36.9941 30.4998 32.3386 32.6547 29.3798 37.8695C29.243 38.1109 28.9898 38.2457 28.7311 38.2457H28.7271C28.6025 38.2457 28.4766 38.2147 28.3615 38.15C28.004 37.9491 27.8767 37.496 28.0798 37.1399C28.2671 36.8099 28.4602 36.4915 28.6579 36.1844C26.3708 34.9224 26.1567 31.0579 26.0606 28.7971C24.4851 29.9105 22.9016 30.6133 22.2252 30.6133L22.2265 30.6147C21.5099 30.6147 20.239 29.9974 19.1258 29.2974L19.1309 29.4427C19.1715 30.6361 19.2135 31.87 18.8898 33.0365C18.7246 33.6312 18.5337 34.1801 18.3035 34.7154C17.8607 35.7484 16.604 37.1401 15.1903 37.1401V37.1414C15.0779 37.1414 14.9642 37.132 14.8491 37.1131C14.4428 37.047 14.1679 36.6654 14.2343 36.2609C14.3006 35.8563 14.6839 35.5825 15.0901 35.6486C15.6927 35.7457 16.6067 34.8975 16.9331 34.1329C17.1362 33.6582 17.3068 33.17 17.4531 32.64C17.7157 31.6924 17.6779 30.575 17.6414 29.4939L17.6413 29.4926L17.6389 29.4184V29.4184L17.6389 29.4183C17.6274 29.0652 17.6156 28.702 17.6156 28.3517C17.6156 28.3103 17.619 28.2696 17.6255 28.2301C16.5484 27.3639 15.1934 26.0335 14.5959 24.4627C14.5609 24.3706 14.5278 24.2746 14.4964 24.175L14.4675 24.1753L14.4688 24.1766C13.1905 24.1766 12.1234 23.1706 12.0666 21.8868L11.9718 19.7494C11.9165 18.4985 12.8395 17.4247 14.0659 17.2679C14.1477 15.7304 14.2791 14.5694 14.2926 14.4538C14.34 14.0466 14.7083 13.7553 15.1173 13.8012C15.4265 13.8368 15.6691 14.0553 15.7492 14.3357C16.7501 13.6309 18.2195 12.3279 18.9557 10.3838C18.9679 10.3518 18.982 10.321 18.998 10.2917C18.716 9.78462 18.4466 9.24724 18.192 8.67776C18.0254 8.30422 18.1934 7.86459 18.5698 7.69872C18.9449 7.53285 19.3863 7.70007 19.5529 8.07496C21.5408 12.5224 24.6892 15.4245 28.9127 16.7042C31.2352 17.4082 33.2404 17.4018 34.1438 17.3487V13.0147C34.1438 9.57053 32.6312 6.32595 29.9933 4.11436C27.8037 2.2763 25.1875 1.34851 22.6268 1.5009C18.8487 1.72475 17.9252 3.27017 17.4824 4.01322L17.4805 4.01644C17.2723 4.36381 17.0136 4.79541 16.483 4.80885C11.7314 4.93696 11.0218 10.0061 11.0218 13.016V36.2837C11.0218 36.6936 10.6887 37.0254 10.277 37.0254V37.0227ZM29.5175 34.9524C31.0886 32.8699 32.8179 31.4126 34.154 30.4763C34.1473 30.4361 34.1438 30.3949 34.1438 30.3528V18.8358C33.9322 18.847 33.6789 18.8552 33.3895 18.8552L33.3882 18.8538C33.0734 18.8538 32.7158 18.8442 32.3227 18.8186C32.4297 19.1079 32.4818 19.4224 32.467 19.7491L32.3723 21.8865C32.3154 23.1703 31.2483 24.1763 29.97 24.1763L29.9676 24.1763C29.5564 25.5046 28.512 26.7697 27.3053 27.8213C27.4369 27.9482 27.5223 28.1231 27.5314 28.3194L27.5423 28.5797L27.5426 28.5872C27.6211 30.4291 27.781 34.1777 29.5175 34.9524ZM35.6333 29.5391C35.8012 29.4443 35.9464 29.3665 36.0652 29.305C36.3929 27.5572 37.8445 20.2779 40.0193 16.3698C38.2082 15.2088 36.6226 14.0823 35.6333 13.359V29.5391ZM30.2825 22.6373C30.5032 21.1096 30.4763 19.7006 30.4173 18.8017C30.7615 18.9452 30.9968 19.2915 30.9788 19.683L30.884 21.8204C30.8667 22.1997 30.6192 22.5145 30.2825 22.6373ZM14.0088 18.8058C13.6714 18.9522 13.4419 19.2946 13.4586 19.6819L13.5534 21.8194C13.5711 22.205 13.828 22.5244 14.1747 22.6424C14.0152 21.4575 13.9833 20.0849 14.0088 18.8058ZM15.9894 23.9367C15.345 22.2437 15.451 18.5513 15.6299 16.1648C16.4187 15.7338 18.6437 14.348 19.9438 11.8188C22.5603 15.6179 25.9034 17.3423 28.4794 18.1229C28.6119 18.163 28.7435 18.2011 28.8739 18.2371C28.9518 18.9482 29.1382 21.2569 28.5991 23.543C27.9424 26.3331 23.1365 29.103 22.2292 29.1313C21.9733 29.1219 20.7397 28.658 19.2068 27.5643C17.5805 26.4032 16.4376 25.1154 15.9894 23.9367ZM46.9414 29.2348C46.8547 29.2348 46.7667 29.22 46.6814 29.1876C46.2955 29.0447 46.1005 28.6172 46.244 28.2342C49.1635 20.4289 48.3361 12.6829 48.1411 11.213L45.0605 8.41076C44.7571 8.13431 44.7355 7.66502 45.0131 7.36295C45.2907 7.06088 45.7619 7.0393 46.0653 7.31575L49.3436 10.2974C49.4669 10.4093 49.5495 10.5603 49.5765 10.7248C49.6361 11.089 51.0052 19.7587 47.6401 28.7521C47.5291 29.0501 47.2447 29.2348 46.9427 29.2348H46.9414ZM34.6419 40.5033C34.7245 40.533 34.8085 40.5465 34.8924 40.5465L34.8938 40.5478C35.1998 40.5478 35.4869 40.359 35.5952 40.0556C35.6007 40.0394 36.206 38.3928 37.6887 37.5662C38.0476 37.3653 38.1749 36.9135 37.9745 36.5561C37.7727 36.1988 37.3191 36.072 36.9602 36.2716C34.9967 37.3666 34.2249 39.4663 34.1924 39.5553C34.0529 39.941 34.2546 40.3657 34.6419 40.5033Z" fill="black"/>
<path d="M10.277 37.0227H10.527V36.7727H10.277V37.0227ZM10.9121 6.65634L11.1305 6.77793L11.1306 6.7779L10.9121 6.65634ZM16.1526 3.3376L16.1685 3.58709L16.297 3.5789L16.3649 3.46958L16.1526 3.3376ZM16.182 3.28795L15.9666 3.16119L15.9656 3.16283L16.182 3.28795ZM16.1821 3.28792L16.3975 3.41468L16.3985 3.41308L16.1821 3.28792ZM16.1821 3.2878L16.3985 3.41296L16.3986 3.41294L16.1821 3.2878ZM16.2027 3.25264L16.4169 3.38165L16.4173 3.38088L16.2027 3.25264ZM16.203 3.25223L15.9884 3.12399L15.9884 3.124L16.203 3.25223ZM22.5388 0.018855L22.5536 0.268416L22.5536 0.268413L22.5388 0.018855ZM30.9534 2.97889L31.1141 2.78736L31.1141 2.78736L30.9534 2.97889ZM35.5387 11.4364L35.2904 11.4663L35.3031 11.5713L35.3873 11.6354L35.5387 11.4364ZM41.4262 15.5027L41.2934 15.7145L41.2935 15.7146L41.4262 15.5027ZM41.7566 15.9693L41.5127 16.0241V16.0241L41.7566 15.9693ZM41.6564 16.5316L41.8664 16.6674L41.867 16.6664L41.6564 16.5316ZM37.4667 29.932L37.713 29.9749L37.7132 29.9738L37.4667 29.932ZM37.0402 30.4795L37.1407 30.7084L37.1432 30.7073L37.0402 30.4795ZM29.3798 37.8695L29.1623 37.7461L29.1623 37.7463L29.3798 37.8695ZM28.3615 38.15L28.484 37.9321L28.4839 37.9321L28.3615 38.15ZM28.0798 37.1399L28.2969 37.2638L28.2972 37.2633L28.0798 37.1399ZM28.6579 36.1844L28.8681 36.3197L29.0129 36.0947L28.7786 35.9655L28.6579 36.1844ZM26.0606 28.7971L26.3103 28.7864L26.2909 28.3282L25.9163 28.5929L26.0606 28.7971ZM22.2252 30.6133V30.3633H21.6204L22.0487 30.7904L22.2252 30.6133ZM22.2265 30.6147V30.8647H22.8313L22.4031 30.4377L22.2265 30.6147ZM19.1258 29.2974L19.2588 29.0858L18.8593 28.8345L18.8759 29.3062L19.1258 29.2974ZM19.1309 29.4427L19.3807 29.4342L19.3807 29.4339L19.1309 29.4427ZM18.8898 33.0365L19.1307 33.1034L19.1307 33.1033L18.8898 33.0365ZM18.3035 34.7154L18.0738 34.6167L18.0737 34.6169L18.3035 34.7154ZM15.1903 37.1401V36.8901H14.9403V37.1401H15.1903ZM15.1903 37.1414V37.3914H15.4403V37.1414H15.1903ZM14.8491 37.1131L14.8895 36.8664L14.8892 36.8664L14.8491 37.1131ZM14.2343 36.2609L13.9876 36.2204H13.9876L14.2343 36.2609ZM15.0901 35.6486L15.05 35.8954L15.0503 35.8954L15.0901 35.6486ZM16.9331 34.1329L16.7033 34.0345L16.7032 34.0347L16.9331 34.1329ZM17.4531 32.64L17.2122 32.5733L17.2121 32.5735L17.4531 32.64ZM17.6414 29.4939L17.3915 29.5023L17.3915 29.5024L17.6414 29.4939ZM17.6413 29.4926L17.3914 29.5007L17.3915 29.501L17.6413 29.4926ZM17.6389 29.4184H17.3888L17.389 29.4265L17.6389 29.4184ZM17.6389 29.4184H17.8893L17.8885 29.4045L17.6389 29.4184ZM17.6389 29.4183L17.389 29.4264L17.3893 29.4322L17.6389 29.4183ZM17.6255 28.2301L17.8722 28.2708L17.896 28.1268L17.7822 28.0353L17.6255 28.2301ZM14.5959 24.4627L14.3623 24.5515L14.5959 24.4627ZM14.4964 24.175L14.7349 24.0999L14.6793 23.9233L14.4941 23.925L14.4964 24.175ZM14.4675 24.1753L14.4652 23.9253L13.8668 23.9308L14.2912 24.3526L14.4675 24.1753ZM14.4688 24.1766V24.4266H15.0749L14.6451 23.9993L14.4688 24.1766ZM12.0666 21.8868L12.3163 21.8757L12.3163 21.8757L12.0666 21.8868ZM11.9718 19.7494L11.722 19.7604L11.722 19.7605L11.9718 19.7494ZM14.0659 17.2679L14.0976 17.5158L14.3045 17.4894L14.3156 17.2811L14.0659 17.2679ZM14.2926 14.4538L14.5409 14.483L14.5409 14.4827L14.2926 14.4538ZM15.1173 13.8012L15.146 13.5528L15.1451 13.5527L15.1173 13.8012ZM15.7492 14.3357L15.5088 14.4043L15.6054 14.7427L15.8931 14.5401L15.7492 14.3357ZM18.9557 10.3838L19.1895 10.4724L19.1896 10.4723L18.9557 10.3838ZM18.998 10.2917L19.2176 10.4111L19.2832 10.2903L19.2164 10.1702L18.998 10.2917ZM18.192 8.67776L17.9637 8.77957L17.9638 8.77978L18.192 8.67776ZM18.5698 7.69872L18.6706 7.9275L18.6709 7.92737L18.5698 7.69872ZM19.5529 8.07496L19.3244 8.17647L19.3247 8.17698L19.5529 8.07496ZM28.9127 16.7042L28.9853 16.465L28.9852 16.465L28.9127 16.7042ZM34.1438 17.3487L34.1584 17.5983L34.3938 17.5845V17.3487H34.1438ZM29.9933 4.11436L29.8326 4.30584L29.8327 4.30593L29.9933 4.11436ZM22.6268 1.5009L22.6416 1.75046L22.6416 1.75045L22.6268 1.5009ZM17.4824 4.01322L17.6969 4.1417L17.6972 4.1412L17.4824 4.01322ZM17.4805 4.01644L17.6949 4.14496L17.6949 4.14492L17.4805 4.01644ZM16.483 4.80885L16.4767 4.55893L16.4763 4.55894L16.483 4.80885ZM10.277 37.0254H10.027V37.2754H10.277V37.0254ZM34.154 30.4763L34.2975 30.681L34.4267 30.5905L34.4006 30.4349L34.154 30.4763ZM29.5175 34.9524L29.4156 35.1807L29.5972 35.2617L29.717 35.1029L29.5175 34.9524ZM34.1438 18.8358H34.3938V18.5722L34.1305 18.5861L34.1438 18.8358ZM33.3895 18.8552L33.213 19.0322L33.2862 19.1052H33.3895V18.8552ZM33.3882 18.8538L33.5647 18.6768L33.4915 18.6038H33.3882V18.8538ZM32.3227 18.8186L32.339 18.5691L31.9547 18.5441L32.0882 18.9053L32.3227 18.8186ZM32.467 19.7491L32.2173 19.7378L32.2173 19.738L32.467 19.7491ZM32.3723 21.8865L32.1225 21.8755L32.1225 21.8755L32.3723 21.8865ZM29.97 24.1763L29.9698 24.4263H29.97V24.1763ZM29.9676 24.1763L29.9678 23.9263L29.7833 23.9262L29.7288 24.1024L29.9676 24.1763ZM27.3053 27.8213L27.141 27.6328L26.9354 27.812L27.1318 28.0013L27.3053 27.8213ZM27.5314 28.3194L27.7812 28.309L27.7812 28.3078L27.5314 28.3194ZM27.5423 28.5797L27.2925 28.5901L27.2925 28.5904L27.5423 28.5797ZM27.5426 28.5872L27.7924 28.5765L27.7924 28.5765L27.5426 28.5872ZM36.0652 29.305L36.1801 29.527L36.2884 29.4709L36.3109 29.351L36.0652 29.305ZM35.6333 29.5391H35.3833V29.9674L35.7563 29.7568L35.6333 29.5391ZM40.0193 16.3698L40.2377 16.4914L40.3519 16.2861L40.1542 16.1593L40.0193 16.3698ZM35.6333 13.359L35.7809 13.1572L35.3833 12.8666V13.359H35.6333ZM30.4173 18.8017L30.5134 18.5709L30.1414 18.4159L30.1678 18.8181L30.4173 18.8017ZM30.2825 22.6373L30.0351 22.6015L29.9753 23.0154L30.3681 22.8722L30.2825 22.6373ZM30.9788 19.683L30.7291 19.6716L30.7291 19.6719L30.9788 19.683ZM30.884 21.8204L31.1338 21.8319L31.1338 21.8315L30.884 21.8204ZM13.4586 19.6819L13.2088 19.6927L13.2089 19.693L13.4586 19.6819ZM14.0088 18.8058L14.2588 18.8108L14.2666 18.4214L13.9093 18.5765L14.0088 18.8058ZM13.5534 21.8194L13.3037 21.8305L13.3037 21.8308L13.5534 21.8194ZM14.1747 22.6424L14.0942 22.8791L14.4764 23.0092L14.4225 22.6091L14.1747 22.6424ZM15.6299 16.1648L15.51 15.9454L15.3907 16.0105L15.3806 16.1461L15.6299 16.1648ZM15.9894 23.9367L16.223 23.8479L16.223 23.8478L15.9894 23.9367ZM19.9438 11.8188L20.1497 11.677L19.9126 11.3327L19.7215 11.7045L19.9438 11.8188ZM28.4794 18.1229L28.4069 18.3622L28.4069 18.3622L28.4794 18.1229ZM28.8739 18.2371L29.1224 18.2099L29.104 18.0413L28.9405 17.9961L28.8739 18.2371ZM28.5991 23.543L28.3558 23.4856L28.3558 23.4857L28.5991 23.543ZM22.2292 29.1313L22.22 29.3811L22.2285 29.3814L22.237 29.3812L22.2292 29.1313ZM19.2068 27.5643L19.0615 27.7678L19.0616 27.7678L19.2068 27.5643ZM46.6814 29.1876L46.7701 28.9539L46.7682 28.9532L46.6814 29.1876ZM46.244 28.2342L46.4781 28.322L46.4782 28.3218L46.244 28.2342ZM48.1411 11.213L48.389 11.1801L48.377 11.0896L48.3094 11.0281L48.1411 11.213ZM45.0605 8.41076L44.8921 8.59554L44.8923 8.5957L45.0605 8.41076ZM45.0131 7.36295L45.1972 7.53211L45.0131 7.36295ZM46.0653 7.31575L45.8969 7.50053L45.897 7.5007L46.0653 7.31575ZM49.3436 10.2974L49.1754 10.4823L49.1755 10.4824L49.3436 10.2974ZM49.5765 10.7248L49.8233 10.6845L49.8232 10.6842L49.5765 10.7248ZM47.6401 28.7521L47.406 28.6645L47.4058 28.6648L47.6401 28.7521ZM34.8924 40.5465L35.0688 40.3693L34.9957 40.2965H34.8924V40.5465ZM34.6419 40.5033L34.7264 40.268L34.7256 40.2677L34.6419 40.5033ZM34.8938 40.5478L34.7174 40.7249L34.7906 40.7978H34.8938V40.5478ZM35.5952 40.0556L35.8307 40.1397L35.8323 40.1349L35.5952 40.0556ZM37.6887 37.5662L37.8105 37.7845L37.8109 37.7843L37.6887 37.5662ZM37.9745 36.5561L38.1925 36.4338L38.1922 36.4332L37.9745 36.5561ZM36.9602 36.2716L36.8387 36.0531L36.8385 36.0533L36.9602 36.2716ZM34.1924 39.5553L33.9575 39.4695L33.9573 39.4703L34.1924 39.5553ZM9.28223 36.281C9.28223 36.83 9.72825 37.2727 10.277 37.2727V36.7727C10.0024 36.7727 9.78223 36.5519 9.78223 36.281H9.28223ZM9.28223 13.0147V36.281H9.78223V13.0147H9.28223ZM10.6937 6.53476C9.52216 8.63942 9.28223 11.2319 9.28223 13.0147H9.78223C9.78223 11.2589 10.0217 8.77011 11.1305 6.77793L10.6937 6.53476ZM16.1367 3.08811C13.7481 3.24054 11.8642 4.43122 10.6936 6.53478L11.1306 6.7779C12.2187 4.82238 13.9504 3.72864 16.1685 3.58709L16.1367 3.08811ZM15.9656 3.16283C15.9557 3.17989 15.948 3.19322 15.9403 3.20562L16.3649 3.46958C16.3776 3.44926 16.3893 3.42897 16.3985 3.41306L15.9656 3.16283ZM15.9666 3.16117L15.9666 3.16119L16.3975 3.4147L16.3975 3.41468L15.9666 3.16117ZM15.9657 3.16271L15.9656 3.16277L16.3985 3.41308L16.3985 3.41302L15.9657 3.16271ZM15.9657 3.16265L15.9657 3.16271L16.3985 3.41302L16.3985 3.41296L15.9657 3.16265ZM15.9886 3.12363C15.9804 3.13724 15.9724 3.15106 15.9657 3.16267L16.3986 3.41294C16.4057 3.40056 16.4114 3.39073 16.4169 3.38165L15.9886 3.12363ZM15.9884 3.124L15.9881 3.12441L16.4173 3.38088L16.4176 3.38047L15.9884 3.124ZM22.5239 -0.230706C20.2037 -0.0929703 18.7055 0.505276 17.7139 1.20011C16.7221 1.8952 16.2574 2.67375 15.9884 3.12399L16.4176 3.38048C16.6781 2.9445 17.0986 2.24187 18.0009 1.60958C18.9035 0.97703 20.3084 0.401694 22.5536 0.268416L22.5239 -0.230706ZM31.1141 2.78736C28.587 0.667304 25.5369 -0.410208 22.5239 -0.230702L22.5536 0.268413C25.4257 0.0972992 28.3528 1.1235 30.7927 3.17042L31.1141 2.78736ZM35.7869 11.4065C35.3834 8.06037 33.7298 4.98182 31.1141 2.78736L30.7927 3.17041C33.3108 5.283 34.9022 8.24584 35.2904 11.4663L35.7869 11.4065ZM41.559 15.2909C38.6004 13.4362 36.1208 11.5652 35.69 11.2374L35.3873 11.6354C35.8229 11.9668 38.3162 13.8482 41.2934 15.7145L41.559 15.2909ZM42.0005 15.9145C41.9426 15.6566 41.7834 15.4315 41.5589 15.2908L41.2935 15.7146C41.4048 15.7843 41.484 15.8963 41.5127 16.0241L42.0005 15.9145ZM41.867 16.6664C42.0094 16.4438 42.0587 16.1735 42.0005 15.9145L41.5127 16.0241C41.5412 16.1508 41.5174 16.285 41.4458 16.3969L41.867 16.6664ZM37.7132 29.9738C37.7132 29.9739 37.7132 29.9738 37.7133 29.9732C37.7134 29.9728 37.7135 29.9721 37.7136 29.9713C37.7139 29.9696 37.7143 29.9673 37.7148 29.9644C37.7159 29.9586 37.7173 29.9506 37.7192 29.9403C37.7228 29.9198 37.7281 29.8906 37.735 29.8531C37.7488 29.7782 37.7688 29.6704 37.795 29.5333C37.8473 29.2591 37.924 28.868 38.0234 28.3893C38.2221 27.4316 38.5114 26.1239 38.8775 24.6999C39.6127 21.8401 40.6481 18.5513 41.8664 16.6674L41.4465 16.3959C40.1786 18.3566 39.1272 21.7202 38.3932 24.5754C37.6564 27.4413 37.2292 29.8373 37.2202 29.8902L37.7132 29.9738ZM37.1432 30.7073C37.4407 30.5726 37.6566 30.2993 37.713 29.9749L37.2204 29.8892C37.1929 30.0475 37.0865 30.1841 36.9371 30.2518L37.1432 30.7073ZM29.5972 37.9929C31.0563 35.4213 32.9347 33.6027 34.4554 32.4242C35.2154 31.8351 35.885 31.4069 36.3662 31.1252C36.6067 30.9843 36.8001 30.8802 36.9339 30.8111C37.0691 30.7412 37.1417 30.708 37.1407 30.7084L36.9396 30.2506C36.8711 30.2807 32.1592 32.4642 29.1623 37.7461L29.5972 37.9929ZM28.7311 38.4957C29.0751 38.4957 29.4139 38.3165 29.5973 37.9927L29.1623 37.7463C29.0721 37.9053 28.9044 37.9957 28.7311 37.9957V38.4957ZM28.7271 38.4957H28.7311V37.9957H28.7271V38.4957ZM28.2389 38.3679C28.3926 38.4543 28.5609 38.4957 28.7271 38.4957V37.9957C28.6441 37.9957 28.5606 37.9751 28.484 37.9321L28.2389 38.3679ZM27.8627 37.016C27.5902 37.4935 27.7616 38.0996 28.239 38.3679L28.4839 37.9321C28.2464 37.7985 28.1631 37.4984 28.2969 37.2638L27.8627 37.016ZM28.4476 36.0491C28.2475 36.36 28.052 36.6824 27.8624 37.0166L28.2972 37.2633C28.4821 36.9375 28.6728 36.623 28.8681 36.3197L28.4476 36.0491ZM25.8108 28.8077C25.8588 29.9366 25.9367 31.4917 26.2951 32.9259C26.6516 34.3527 27.3004 35.7209 28.5371 36.4033L28.7786 35.9655C27.7282 35.3859 27.1265 34.1908 26.7801 32.8047C26.4357 31.4259 26.3585 29.9183 26.3103 28.7864L25.8108 28.8077ZM22.2252 30.8633C22.6229 30.8633 23.2315 30.6654 23.9111 30.3494C24.6032 30.0277 25.4059 29.5659 26.2048 29.0012L25.9163 28.5929C25.1397 29.1417 24.363 29.588 23.7004 29.896C23.0253 30.2099 22.5039 30.3633 22.2252 30.3633V30.8633ZM22.4031 30.4377L22.4017 30.4363L22.0487 30.7904L22.05 30.7917L22.4031 30.4377ZM18.9927 29.509C19.5565 29.8636 20.1634 30.1992 20.7237 30.4472C21.275 30.6911 21.8126 30.8647 22.2265 30.8647V30.3647C21.9238 30.3647 21.4677 30.2296 20.926 29.9899C20.3934 29.7542 19.8082 29.4312 19.2588 29.0858L18.9927 29.509ZM19.3807 29.4339L19.3756 29.2886L18.8759 29.3062L18.881 29.4515L19.3807 29.4339ZM19.1307 33.1033C19.4664 31.8936 19.4211 30.6205 19.3807 29.4342L18.881 29.4512C18.9219 30.6517 18.9606 31.8464 18.6489 32.9697L19.1307 33.1033ZM18.5332 34.8142C18.7682 34.2676 18.9627 33.708 19.1307 33.1034L18.649 32.9696C18.4865 33.5544 18.2992 34.0925 18.0738 34.6167L18.5332 34.8142ZM15.1903 37.3901C15.9792 37.3901 16.7031 37.0033 17.2754 36.5034C17.8489 36.0026 18.2966 35.366 18.5333 34.8139L18.0737 34.6169C17.8676 35.0978 17.4655 35.6736 16.9465 36.1268C16.4265 36.581 15.8151 36.8901 15.1903 36.8901V37.3901ZM15.4403 37.1414V37.1401H14.9403V37.1414H15.4403ZM14.8086 37.3598C14.9366 37.3808 15.0639 37.3914 15.1903 37.3914V36.8914C15.092 36.8914 14.9918 36.8832 14.8895 36.8664L14.8086 37.3598ZM13.9876 36.2204C13.8988 36.7619 14.2668 37.2717 14.8089 37.3599L14.8892 36.8664C14.6188 36.8224 14.4371 36.5689 14.481 36.3013L13.9876 36.2204ZM15.1302 35.4019C14.5891 35.3138 14.0765 35.6784 13.9876 36.2204L14.481 36.3013C14.5248 36.0341 14.7786 35.8512 15.05 35.8954L15.1302 35.4019ZM16.7032 34.0347C16.5573 34.3765 16.2726 34.7496 15.9525 35.0241C15.7934 35.1605 15.6329 35.2662 15.4851 35.3317C15.3351 35.3982 15.2159 35.4157 15.1299 35.4018L15.0503 35.8954C15.2656 35.9301 15.4866 35.878 15.6877 35.7888C15.891 35.6987 16.0923 35.5628 16.2779 35.4037C16.6471 35.0872 16.9826 34.6538 17.163 34.231L16.7032 34.0347ZM17.2121 32.5735C17.0687 33.0931 16.9018 33.5706 16.7033 34.0345L17.1629 34.2312C17.3707 33.7458 17.545 33.2469 17.6941 32.7065L17.2121 32.5735ZM17.3915 29.5024C17.4284 30.5936 17.4625 31.6698 17.2122 32.5733L17.694 32.7068C17.9688 31.7151 17.9274 30.5564 17.8912 29.4855L17.3915 29.5024ZM17.3915 29.501L17.3915 29.5023L17.8912 29.4855L17.8912 29.4841L17.3915 29.501ZM17.389 29.4265L17.3914 29.5007L17.8912 29.4844L17.8888 29.4103L17.389 29.4265ZM17.3889 29.4184V29.4184H17.8889V29.4184H17.3889ZM17.3893 29.4322L17.3893 29.4322L17.8885 29.4045L17.8885 29.4044L17.3893 29.4322ZM17.3656 28.3517C17.3656 28.7068 17.3776 29.0741 17.389 29.4264L17.8888 29.4102C17.8772 29.0563 17.8656 28.6972 17.8656 28.3517H17.3656ZM17.3789 28.1893C17.3701 28.2423 17.3656 28.2966 17.3656 28.3517H17.8656C17.8656 28.324 17.8679 28.297 17.8722 28.2708L17.3789 28.1893ZM14.3623 24.5515C14.984 26.1863 16.3825 27.5512 17.4689 28.4249L17.7822 28.0353C16.7144 27.1766 15.4027 25.8806 14.8296 24.3738L14.3623 24.5515ZM14.258 24.2501C14.2906 24.3539 14.3254 24.4545 14.3623 24.5515L14.8296 24.3738C14.7965 24.2867 14.7649 24.1953 14.7349 24.0999L14.258 24.2501ZM14.4697 24.4253L14.4987 24.425L14.4941 23.925L14.4652 23.9253L14.4697 24.4253ZM14.6451 23.9993L14.6437 23.998L14.2912 24.3526L14.2926 24.3539L14.6451 23.9993ZM11.8168 21.8979C11.8797 23.3169 13.0583 24.4266 14.4688 24.4266V23.9266C13.3226 23.9266 12.3672 23.0243 12.3163 21.8757L11.8168 21.8979ZM11.722 19.7605L11.8168 21.8979L12.3163 21.8757L12.2215 19.7383L11.722 19.7605ZM14.0342 17.0199C12.6806 17.193 11.661 18.3778 11.722 19.7604L12.2215 19.7383C12.1721 18.6191 12.9984 17.6564 14.0976 17.5158L14.0342 17.0199ZM14.0443 14.4247C14.0304 14.5438 13.8984 15.7103 13.8163 17.2546L14.3156 17.2811C14.3969 15.7504 14.5278 14.595 14.5409 14.483L14.0443 14.4247ZM15.1451 13.5527C14.6004 13.4916 14.1077 13.8799 14.0443 14.4249L14.5409 14.4827C14.5723 14.2133 14.8162 14.019 15.0894 14.0496L15.1451 13.5527ZM15.9896 14.2671C15.8826 13.8921 15.5584 13.6004 15.146 13.5528L15.0886 14.0495C15.2946 14.0733 15.4557 14.2184 15.5088 14.4043L15.9896 14.2671ZM18.722 10.2953C18.0109 12.1731 16.5867 13.4402 15.6053 14.1313L15.8931 14.5401C16.9136 13.8216 18.4282 12.4828 19.1895 10.4724L18.722 10.2953ZM18.7783 10.1723C18.757 10.2116 18.7381 10.2526 18.7219 10.2954L19.1896 10.4723C19.1977 10.4509 19.2071 10.4305 19.2176 10.4111L18.7783 10.1723ZM17.9638 8.77978C18.2212 9.35579 18.4939 9.89966 18.7795 10.4132L19.2164 10.1702C18.9381 9.66958 18.6719 9.1387 18.4202 8.57574L17.9638 8.77978ZM18.469 7.46995C17.9654 7.69184 17.7409 8.27994 17.9637 8.77957L18.4203 8.57595C18.31 8.32849 18.4213 8.03734 18.6706 7.9275L18.469 7.46995ZM19.7814 7.97346C19.5581 7.47094 18.9683 7.24915 18.4687 7.47008L18.6709 7.92737C18.9215 7.81656 19.2146 7.9292 19.3244 8.17647L19.7814 7.97346ZM28.9852 16.465C24.8387 15.2086 21.7429 12.362 19.7811 7.97295L19.3247 8.17698C21.3387 12.6829 24.5396 15.6404 28.8402 16.9435L28.9852 16.465ZM34.1291 17.0992C33.2442 17.1511 31.2706 17.1577 28.9853 16.465L28.8402 16.9435C31.1998 17.6587 33.2365 17.6524 34.1584 17.5983L34.1291 17.0992ZM33.8938 13.0147V17.3487H34.3938V13.0147H33.8938ZM29.8327 4.30593C32.4138 6.46998 33.8938 9.64438 33.8938 13.0147H34.3938C34.3938 9.49668 32.8485 6.18193 30.1539 3.92278L29.8327 4.30593ZM22.6416 1.75045C25.131 1.60231 27.6858 2.50379 29.8326 4.30584L30.154 3.92288C27.9215 2.04881 25.2439 1.09471 22.6119 1.25134L22.6416 1.75045ZM17.6972 4.1412C17.914 3.77736 18.2323 3.24535 18.9428 2.77018C19.6557 2.29346 20.7852 1.86045 22.6416 1.75046L22.612 1.25133C20.6903 1.3652 19.469 1.81683 18.6649 2.35455C17.8585 2.89381 17.4936 3.50603 17.2676 3.88523L17.6972 4.1412ZM17.6949 4.14492L17.6969 4.1417L17.2679 3.88473L17.266 3.88795L17.6949 4.14492ZM16.4894 5.05877C17.1769 5.04135 17.5006 4.46919 17.6949 4.14496L17.266 3.88791C17.044 4.25843 16.8502 4.54947 16.4767 4.55893L16.4894 5.05877ZM11.2718 13.016C11.2718 11.5231 11.4489 9.54707 12.1972 7.93713C12.57 7.13524 13.0804 6.43287 13.7732 5.92341C14.4638 5.41561 15.3488 5.08952 16.4898 5.05876L16.4763 4.55894C15.2414 4.59224 14.2559 4.94783 13.477 5.52059C12.7004 6.09169 12.1425 6.86874 11.7438 7.72639C10.9494 9.43553 10.7718 11.499 10.7718 13.016H11.2718ZM11.2718 36.2837V13.016H10.7718V36.2837H11.2718ZM10.277 37.2754C10.8258 37.2754 11.2718 36.8327 11.2718 36.2837H10.7718C10.7718 36.5546 10.5516 36.7754 10.277 36.7754V37.2754ZM10.027 37.0227V37.0254H10.527V37.0227H10.027ZM34.0105 30.2716C32.6582 31.2193 30.9082 32.6939 29.3179 34.8018L29.717 35.1029C31.2691 33.0458 32.9777 31.6059 34.2975 30.681L34.0105 30.2716ZM33.8938 30.3528C33.8938 30.4088 33.8984 30.4639 33.9075 30.5177L34.4006 30.4349C34.3961 30.4084 34.3938 30.381 34.3938 30.3528H33.8938ZM33.8938 18.8358V30.3528H34.3938V18.8358H33.8938ZM33.3895 19.1052C33.6836 19.1052 33.9413 19.0969 34.157 19.0854L34.1305 18.5861C33.9231 18.5971 33.6742 18.6052 33.3895 18.6052V19.1052ZM33.2116 19.0308L33.213 19.0322L33.5661 18.6781L33.5647 18.6768L33.2116 19.0308ZM32.3065 19.0681C32.7053 19.0941 33.0684 19.1038 33.3882 19.1038V18.6038C33.0785 18.6038 32.7263 18.5944 32.339 18.5691L32.3065 19.0681ZM32.7168 19.7604C32.7331 19.3996 32.6755 19.0518 32.5572 18.7319L32.0882 18.9053C32.1838 19.1639 32.2305 19.4451 32.2173 19.7378L32.7168 19.7604ZM32.622 21.8976L32.7168 19.7602L32.2173 19.738L32.1225 21.8755L32.622 21.8976ZM29.97 24.4263C31.3805 24.4263 32.5591 23.3166 32.622 21.8976L32.1225 21.8755C32.0716 23.024 31.1162 23.9263 29.97 23.9263V24.4263ZM29.9674 24.4263L29.9698 24.4263L29.9702 23.9263L29.9678 23.9263L29.9674 24.4263ZM27.4695 28.0098C28.6909 26.9454 29.7753 25.6431 30.2064 24.2503L29.7288 24.1024C29.3376 25.3661 28.3331 26.594 27.141 27.6328L27.4695 28.0098ZM27.7812 28.3078C27.769 28.0446 27.6542 27.8104 27.4787 27.6413L27.1318 28.0013C27.2197 28.086 27.2757 28.2015 27.2817 28.331L27.7812 28.3078ZM27.7921 28.5693L27.7812 28.309L27.2817 28.3298L27.2925 28.5901L27.7921 28.5693ZM27.7924 28.5765L27.792 28.569L27.2925 28.5904L27.2928 28.5979L27.7924 28.5765ZM29.6193 34.724C29.2541 34.5611 28.9534 34.2335 28.708 33.7725C28.4629 33.3121 28.2838 32.7385 28.1529 32.1184C27.891 30.8776 27.8318 29.5004 27.7924 28.5765L27.2928 28.5978C27.332 29.5159 27.3919 30.934 27.6637 32.2216C27.7996 32.8657 27.991 33.4896 28.2667 34.0075C28.5421 34.5248 28.9125 34.9562 29.4156 35.1807L29.6193 34.724ZM35.9502 29.0829C35.8289 29.1458 35.681 29.225 35.5104 29.3214L35.7563 29.7568C35.9214 29.6635 36.0639 29.5871 36.1801 29.527L35.9502 29.0829ZM39.8008 16.2482C38.6976 18.2308 37.7847 21.0528 37.1081 23.5829C36.4301 26.1182 35.9839 28.3818 35.8195 29.2589L36.3109 29.351C36.4741 28.4804 36.9176 26.2304 37.5911 23.7121C38.2659 21.1886 39.1662 18.4169 40.2377 16.4914L39.8008 16.2482ZM35.4858 13.5609C36.4776 14.286 38.0676 15.4156 39.8843 16.5803L40.1542 16.1593C38.3487 15.0019 36.7675 13.8786 35.7809 13.1572L35.4858 13.5609ZM35.8833 29.5391V13.359H35.3833V29.5391H35.8833ZM30.1678 18.8181C30.2262 19.7062 30.2525 21.0967 30.0351 22.6015L30.5299 22.673C30.754 21.1225 30.7265 19.6949 30.6667 18.7853L30.1678 18.8181ZM31.2286 19.6945C31.2516 19.1937 30.9507 18.7531 30.5134 18.5709L30.3211 19.0325C30.5724 19.1372 30.7421 19.3893 30.7291 19.6716L31.2286 19.6945ZM31.1338 21.8315L31.2286 19.6941L30.7291 19.6719L30.6343 21.8094L31.1338 21.8315ZM30.3681 22.8722C30.7957 22.7163 31.1116 22.3159 31.1338 21.8319L30.6343 21.809C30.6217 22.0834 30.4426 22.3128 30.1969 22.4024L30.3681 22.8722ZM13.7084 19.6712C13.6963 19.3913 13.8621 19.142 14.1084 19.0351L13.9093 18.5765C13.4807 18.7624 13.1875 19.1978 13.2088 19.6927L13.7084 19.6712ZM13.8032 21.8083L13.7084 19.6709L13.2089 19.693L13.3037 21.8305L13.8032 21.8083ZM14.2553 22.4058C14.0017 22.3195 13.8159 22.0864 13.8031 21.8079L13.3037 21.8308C13.3263 22.3236 13.6544 22.7294 14.0942 22.8791L14.2553 22.4058ZM13.7589 18.8008C13.7333 20.0856 13.7649 21.4726 13.927 22.6758L14.4225 22.6091C14.2654 21.4423 14.2334 20.0842 14.2588 18.8108L13.7589 18.8008ZM15.3806 16.1461C15.2908 17.3441 15.219 18.8725 15.251 20.3163C15.2827 21.7503 15.4168 23.1352 15.7557 24.0257L16.223 23.8478C15.9175 23.0452 15.7825 21.7374 15.7508 20.3053C15.7194 18.883 15.7901 17.3719 15.8792 16.1834L15.3806 16.1461ZM19.7215 11.7045C18.4551 14.1681 16.2819 15.5237 15.51 15.9454L15.7497 16.3842C16.5555 15.944 18.8323 14.528 20.1662 11.9331L19.7215 11.7045ZM28.5519 17.8836C26.0171 17.1156 22.7272 15.4193 20.1497 11.677L19.7379 11.9606C22.3935 15.8164 25.7897 17.5691 28.4069 18.3622L28.5519 17.8836ZM28.9405 17.9961C28.812 17.9606 28.6824 17.9232 28.5519 17.8836L28.4069 18.3622C28.5414 18.4029 28.6749 18.4415 28.8073 18.4781L28.9405 17.9961ZM28.8425 23.6003C29.3914 21.2726 29.2013 18.9302 29.1224 18.2099L28.6254 18.2643C28.7022 18.9662 28.885 21.2412 28.3558 23.4856L28.8425 23.6003ZM22.237 29.3812C22.3951 29.3762 22.6026 29.3163 22.8258 29.231C23.0568 29.1427 23.3305 29.0169 23.6307 28.8601C24.2312 28.5466 24.9488 28.1033 25.6579 27.573C26.3665 27.0431 27.0721 26.422 27.6445 25.7516C28.215 25.0834 28.6656 24.3516 28.8425 23.6003L28.3558 23.4857C28.2043 24.1294 27.8079 24.7902 27.2642 25.4269C26.7225 26.0615 26.0468 26.6578 25.3584 27.1726C24.6704 27.6871 23.9755 28.116 23.3992 28.4169C23.1109 28.5675 22.8553 28.6844 22.6473 28.764C22.4313 28.8465 22.2903 28.8793 22.2214 28.8814L22.237 29.3812ZM19.0616 27.7678C19.8399 28.3231 20.5441 28.7199 21.0892 28.98C21.3616 29.11 21.596 29.2067 21.7815 29.2721C21.9564 29.3337 22.1139 29.3772 22.22 29.3811L22.2385 28.8815C22.2387 28.8815 22.2368 28.8814 22.2322 28.8809C22.2278 28.8803 22.2217 28.8794 22.2138 28.878C22.1979 28.8752 22.1771 28.8707 22.151 28.864C22.0986 28.8505 22.0307 28.8297 21.9477 28.8005C21.782 28.7421 21.5642 28.6526 21.3045 28.5288C20.7856 28.2811 20.1065 27.8991 19.352 27.3608L19.0616 27.7678ZM15.7557 24.0256C16.2289 25.2701 17.4167 26.5935 19.0615 27.7678L19.3521 27.3608C17.7443 26.213 16.6462 24.9607 16.223 23.8479L15.7557 24.0256ZM46.5927 29.4214C46.7079 29.4651 46.8261 29.4848 46.9414 29.4848V28.9848C46.8833 28.9848 46.8255 28.9749 46.7701 28.9539L46.5927 29.4214ZM46.0099 28.1465C45.8177 28.6594 46.0791 29.2312 46.5945 29.4221L46.7682 28.9532C46.5118 28.8582 46.3833 28.575 46.4781 28.322L46.0099 28.1465ZM47.8933 11.2459C48.0865 12.7022 48.9078 20.3991 46.0098 28.1466L46.4782 28.3218C49.4193 20.4587 48.5858 12.6636 48.389 11.1801L47.8933 11.2459ZM44.8923 8.5957L47.9729 11.398L48.3094 11.0281L45.2287 8.22583L44.8923 8.5957ZM44.829 7.19379C44.4573 7.59825 44.4868 8.2262 44.8921 8.59554L45.2289 8.22599C45.0275 8.04243 45.0136 7.7318 45.1972 7.53211L44.829 7.19379ZM46.2337 7.13098C45.8283 6.76153 45.1995 6.79065 44.829 7.19379L45.1972 7.53211C45.3819 7.33111 45.6956 7.31708 45.8969 7.50053L46.2337 7.13098ZM49.5118 10.1124L46.2335 7.1308L45.897 7.5007L49.1754 10.4823L49.5118 10.1124ZM49.8232 10.6842C49.7869 10.4637 49.6764 10.2619 49.5117 10.1123L49.1755 10.4824C49.2573 10.5567 49.312 10.6569 49.3299 10.7655L49.8232 10.6842ZM47.8743 28.8397C51.2625 19.7843 49.885 11.0618 49.8233 10.6845L49.3298 10.7652C49.3872 11.1161 50.7478 19.7331 47.406 28.6645L47.8743 28.8397ZM46.9427 29.4848C47.3451 29.4848 47.7255 29.239 47.8744 28.8394L47.4058 28.6648C47.3327 28.8612 47.1444 28.9848 46.9427 28.9848V29.4848ZM46.9414 29.4848H46.9427V28.9848H46.9414V29.4848ZM34.8924 40.2965C34.8357 40.2965 34.7805 40.2874 34.7264 40.268L34.5574 40.7386C34.6686 40.7785 34.7813 40.7965 34.8924 40.7965V40.2965ZM35.0702 40.3706L35.0688 40.3693L34.716 40.7236L34.7174 40.7249L35.0702 40.3706ZM35.3598 39.9715C35.2885 40.1714 35.0986 40.2978 34.8938 40.2978V40.7978C35.3011 40.7978 35.6854 40.5466 35.8307 40.1396L35.3598 39.9715ZM37.567 37.3478C36.7779 37.7877 36.2289 38.4414 35.8786 38.9782C35.5285 39.5148 35.3669 39.9501 35.3582 39.9762L35.8323 40.1349C35.829 40.1449 35.9728 39.7488 36.2974 39.2514C36.6218 38.7542 37.1168 38.1713 37.8105 37.7845L37.567 37.3478ZM37.7564 36.6784C37.8891 36.915 37.8052 37.2144 37.5666 37.3481L37.8109 37.7843C38.29 37.5161 38.4607 36.912 38.1925 36.4338L37.7564 36.6784ZM37.0817 36.4901C37.321 36.357 37.6229 36.442 37.7568 36.679L38.1922 36.4332C37.9225 35.9556 37.3171 35.787 36.8387 36.0531L37.0817 36.4901ZM34.4272 39.641C34.4568 39.5599 35.2029 37.5378 37.082 36.4899L36.8385 36.0533C34.7905 37.1954 33.9929 39.3726 33.9575 39.4695L34.4272 39.641ZM34.7256 40.2677C34.4682 40.1763 34.3354 39.8948 34.4275 39.6403L33.9573 39.4703C33.7703 39.9871 34.0411 40.5552 34.5583 40.7389L34.7256 40.2677Z" fill="white" mask="url(#path-1-inside-1_6228_2289)"/>
<mask id="path-3-inside-2_6228_2289" fill="white">
<path fill-rule="evenodd" clip-rule="evenodd" d="M44.4281 32.3476C44.4226 32.3109 44.4195 32.2734 44.4191 32.2352L44.4109 31.6554C44.4055 31.2009 44.7711 30.8287 45.2275 30.8233C45.6852 30.8166 46.0576 31.1834 46.063 31.6378L46.0711 32.2177C46.0716 32.2602 46.0689 32.302 46.0631 32.3428L47.5225 33.7228H48.1747C48.631 33.7268 48.9993 34.0963 48.998 34.5494C48.9966 35.0025 48.6269 35.3693 48.1719 35.3693V35.3707H47.4241L46.0647 36.6701C46.0647 37.1764 46.0658 37.2711 46.066 37.2897L46.066 37.2935C46.0728 37.7479 45.7072 38.1215 45.2522 38.1282H45.24L45.2413 38.1269C44.7904 38.1269 44.4221 37.7668 44.4153 37.3164C44.4153 37.3164 44.4126 37.2571 44.4126 36.6448C44.4126 36.6412 44.4126 36.6375 44.4127 36.6338L43.2004 35.3706H42.3624H42.3597C41.9047 35.3706 41.535 35.0038 41.5337 34.5494C41.5337 34.0949 41.9007 33.7254 42.357 33.7241H43.0793L44.4281 32.3476ZM45.3693 35.2936L44.4999 34.5141L45.3138 33.7535L46.1344 34.4993L45.3693 35.2936Z"/>
</mask>
<path fill-rule="evenodd" clip-rule="evenodd" d="M44.4281 32.3476C44.4226 32.3109 44.4195 32.2734 44.4191 32.2352L44.4109 31.6554C44.4055 31.2009 44.7711 30.8287 45.2275 30.8233C45.6852 30.8166 46.0576 31.1834 46.063 31.6378L46.0711 32.2177C46.0716 32.2602 46.0689 32.302 46.0631 32.3428L47.5225 33.7228H48.1747C48.631 33.7268 48.9993 34.0963 48.998 34.5494C48.9966 35.0025 48.6269 35.3693 48.1719 35.3693V35.3707H47.4241L46.0647 36.6701C46.0647 37.1764 46.0658 37.2711 46.066 37.2897L46.066 37.2935C46.0728 37.7479 45.7072 38.1215 45.2522 38.1282H45.24L45.2413 38.1269C44.7904 38.1269 44.4221 37.7668 44.4153 37.3164C44.4153 37.3164 44.4126 37.2571 44.4126 36.6448C44.4126 36.6412 44.4126 36.6375 44.4127 36.6338L43.2004 35.3706H42.3624H42.3597C41.9047 35.3706 41.535 35.0038 41.5337 34.5494C41.5337 34.0949 41.9007 33.7254 42.357 33.7241H43.0793L44.4281 32.3476ZM45.3693 35.2936L44.4999 34.5141L45.3138 33.7535L46.1344 34.4993L45.3693 35.2936Z" fill="black"/>
<path d="M44.4191 32.2352L44.669 32.2322L44.669 32.2317L44.4191 32.2352ZM44.4281 32.3476L44.6066 32.5226L44.6937 32.4337L44.6753 32.3106L44.4281 32.3476ZM44.4109 31.6554L44.161 31.6584L44.161 31.6589L44.4109 31.6554ZM45.2275 30.8233L45.2304 31.0733L45.2312 31.0733L45.2275 30.8233ZM46.063 31.6378L45.813 31.6408L45.813 31.6414L46.063 31.6378ZM46.0711 32.2177L46.3211 32.2147L46.3211 32.2142L46.0711 32.2177ZM46.0631 32.3428L45.8156 32.3079L45.7976 32.4357L45.8914 32.5244L46.0631 32.3428ZM47.5225 33.7228L47.3508 33.9044L47.423 33.9728H47.5225V33.7228ZM48.1747 33.7228L48.1769 33.4728H48.1747V33.7228ZM48.998 34.5494L48.748 34.5487V34.5487L48.998 34.5494ZM48.1719 35.3693V35.1193H47.9219V35.3693H48.1719ZM48.1719 35.3707V35.6207H48.4219V35.3707H48.1719ZM47.4241 35.3707V35.1207H47.3238L47.2513 35.19L47.4241 35.3707ZM46.0647 36.6701L45.8919 36.4893L45.8146 36.5632L45.8147 36.6701L46.0647 36.6701ZM46.066 37.2897L46.316 37.2873L46.316 37.2868L46.066 37.2897ZM46.066 37.2935L45.816 37.2958L45.816 37.2972L46.066 37.2935ZM45.2522 38.1282V38.3782L45.2559 38.3782L45.2522 38.1282ZM45.24 38.1282L45.0639 37.9508L44.6332 38.3782H45.24V38.1282ZM45.2413 38.1269L45.4175 38.3043L45.8481 37.8769H45.2413V38.1269ZM44.4153 37.3164L44.6654 37.3126L44.665 37.305L44.4153 37.3164ZM44.4127 36.6338L44.6626 36.6371L44.664 36.5347L44.593 36.4607L44.4127 36.6338ZM43.2004 35.3706L43.3807 35.1975L43.3069 35.1206H43.2004V35.3706ZM41.5337 34.5494H41.2837L41.2837 34.5501L41.5337 34.5494ZM42.357 33.7241V33.4741L42.3563 33.4741L42.357 33.7241ZM43.0793 33.7241V33.9741H43.1844L43.2579 33.899L43.0793 33.7241ZM44.4999 34.5141L44.3292 34.3315L44.1297 34.5179L44.333 34.7002L44.4999 34.5141ZM45.3693 35.2936L45.2024 35.4797L45.382 35.6407L45.5493 35.467L45.3693 35.2936ZM45.3138 33.7535L45.4819 33.5685L45.3114 33.4136L45.1431 33.5709L45.3138 33.7535ZM46.1344 34.4993L46.3144 34.6727L46.493 34.4873L46.3025 34.3143L46.1344 34.4993ZM44.1691 32.2383C44.1697 32.2878 44.1737 32.3367 44.1808 32.3846L44.6753 32.3106C44.6715 32.2851 44.6694 32.259 44.669 32.2322L44.1691 32.2383ZM44.161 31.6589L44.1691 32.2388L44.669 32.2317L44.6609 31.6519L44.161 31.6589ZM45.2245 30.5734C44.6313 30.5804 44.1539 31.0646 44.161 31.6584L44.6609 31.6524C44.6572 31.3372 44.9109 31.0771 45.2304 31.0733L45.2245 30.5734ZM46.313 31.6349C46.3059 31.0431 45.8209 30.5646 45.2238 30.5734L45.2312 31.0733C45.5495 31.0686 45.8092 31.3237 45.813 31.6408L46.313 31.6349ZM46.3211 32.2142L46.313 31.6343L45.813 31.6414L45.8211 32.2212L46.3211 32.2142ZM46.3107 32.3776C46.3182 32.3243 46.3218 32.2699 46.3211 32.2147L45.8211 32.2207C45.8215 32.2505 45.8196 32.2796 45.8156 32.3079L46.3107 32.3776ZM45.8914 32.5244L47.3508 33.9044L47.6943 33.5411L46.2349 32.1611L45.8914 32.5244ZM47.5225 33.9728H48.1747V33.4728H47.5225V33.9728ZM48.1724 33.9728C48.4932 33.9756 48.7489 34.235 48.748 34.5487L49.248 34.5502C49.2497 33.9577 48.7688 33.478 48.1769 33.4728L48.1724 33.9728ZM48.748 34.5487C48.747 34.8629 48.4902 35.1193 48.1719 35.1193V35.6193C48.7636 35.6193 49.2462 35.1421 49.248 34.5502L48.748 34.5487ZM47.9219 35.3693V35.3707H48.4219V35.3693H47.9219ZM48.1719 35.1207H47.4241V35.6207H48.1719V35.1207ZM47.2513 35.19L45.8919 36.4893L46.2374 36.8508L47.5968 35.5514L47.2513 35.19ZM46.316 37.2868C46.3158 37.2698 46.3147 37.1764 46.3147 36.6701L45.8147 36.6701C45.8147 37.1764 45.8158 37.2723 45.816 37.2925L46.316 37.2868ZM46.316 37.2911L46.316 37.2873L45.816 37.292L45.816 37.2958L46.316 37.2911ZM45.2559 38.3782C45.8476 38.3694 46.3248 37.8836 46.316 37.2898L45.816 37.2972C45.8207 37.6123 45.5667 37.8735 45.2485 37.8782L45.2559 38.3782ZM45.24 38.3782H45.2522V37.8782H45.24V38.3782ZM45.0652 37.9494L45.0639 37.9508L45.4161 38.3056L45.4175 38.3043L45.0652 37.9494ZM44.1653 37.3202C44.1742 37.9084 44.655 38.3769 45.2413 38.3769V37.8769C44.9258 37.8769 44.67 37.6253 44.6653 37.3126L44.1653 37.3202ZM44.1626 36.6448C44.1626 36.9512 44.1633 37.1198 44.164 37.2121C44.1643 37.2582 44.1646 37.2856 44.1649 37.3018C44.1651 37.3099 44.1652 37.3154 44.1653 37.3192C44.1653 37.3212 44.1654 37.3227 44.1654 37.3241C44.1654 37.3248 44.1655 37.3254 44.1655 37.326C44.1655 37.3263 44.1655 37.3266 44.1655 37.3269C44.1655 37.3271 44.1655 37.3272 44.1655 37.3274C44.1656 37.3274 44.1656 37.3275 44.1656 37.3276C44.1656 37.3276 44.1656 37.3277 44.1656 37.3277C44.1656 37.3278 44.1656 37.3278 44.4153 37.3164C44.665 37.305 44.6651 37.305 44.6651 37.3051C44.6651 37.3051 44.6651 37.3052 44.6651 37.3052C44.6651 37.3053 44.6651 37.3054 44.6651 37.3054C44.6651 37.3056 44.6651 37.3057 44.6651 37.3058C44.6651 37.306 44.6651 37.3063 44.6651 37.3064C44.6651 37.3068 44.6651 37.307 44.6651 37.3071C44.6651 37.3073 44.6651 37.307 44.6651 37.3061C44.6651 37.3043 44.665 37.3004 44.6648 37.2934C44.6646 37.2793 44.6643 37.2536 44.6639 37.2083C44.6633 37.1179 44.6626 36.9507 44.6626 36.6448H44.1626ZM44.1627 36.6306C44.1626 36.6353 44.1626 36.6401 44.1626 36.6448H44.6626C44.6626 36.6423 44.6626 36.6397 44.6626 36.6371L44.1627 36.6306ZM44.593 36.4607L43.3807 35.1975L43.02 35.5437L44.2323 36.807L44.593 36.4607ZM42.3624 35.6206H43.2004V35.1206H42.3624V35.6206ZM42.3597 35.6206H42.3624V35.1206H42.3597V35.6206ZM41.2837 34.5501C41.2855 35.1432 41.7678 35.6206 42.3597 35.6206V35.1206C42.0417 35.1206 41.7846 34.8645 41.7837 34.5486L41.2837 34.5501ZM42.3563 33.4741C41.7619 33.4758 41.2837 33.9573 41.2837 34.5494H41.7837C41.7837 34.2325 42.0394 33.975 42.3577 33.9741L42.3563 33.4741ZM43.0793 33.4741H42.357V33.9741H43.0793V33.4741ZM43.2579 33.899L44.6066 32.5226L44.2495 32.1727L42.9008 33.5491L43.2579 33.899ZM44.333 34.7002L45.2024 35.4797L45.5362 35.1074L44.6668 34.328L44.333 34.7002ZM45.1431 33.5709L44.3292 34.3315L44.6706 34.6968L45.4844 33.9362L45.1431 33.5709ZM46.3025 34.3143L45.4819 33.5685L45.1456 33.9385L45.9662 34.6843L46.3025 34.3143ZM45.5493 35.467L46.3144 34.6727L45.9543 34.3258L45.1892 35.1201L45.5493 35.467Z" fill="white" mask="url(#path-3-inside-2_6228_2289)"/>
<mask id="path-5-inside-3_6228_2289" fill="white">
<path fill-rule="evenodd" clip-rule="evenodd" d="M42.6364 42.1453H43.0197H43.021C43.4029 42.1453 43.7157 41.8351 43.7157 41.4548C43.7157 41.0746 43.4056 40.763 43.0224 40.7604H42.7001L41.7757 39.8067L41.7733 39.5913C41.7693 39.2137 41.4592 38.9062 41.0719 38.9062C40.8864 38.9076 40.713 38.9818 40.583 39.1139C40.453 39.2461 40.3826 39.42 40.3853 39.6048L40.3876 39.8104L39.3916 40.7565H39.102C38.7188 40.7578 38.4087 41.068 38.4087 41.4496C38.41 41.8299 38.7215 42.1401 39.1061 42.1401H39.4746L40.3631 43.0032C40.3634 43.2359 40.3643 43.3171 40.3643 43.3171C40.3697 43.6934 40.6811 43.9995 41.0589 43.9995H41.0684C41.4516 43.9941 41.759 43.6799 41.7536 43.2942C41.7527 43.2773 41.7524 43.2102 41.7523 43.0629L42.6364 42.1453ZM41.0785 41.7637L40.7156 41.4117L41.0744 41.0706L41.4116 41.4185L41.0785 41.7637Z"/>
</mask>
<path fill-rule="evenodd" clip-rule="evenodd" d="M42.6364 42.1453H43.0197H43.021C43.4029 42.1453 43.7157 41.8351 43.7157 41.4548C43.7157 41.0746 43.4056 40.763 43.0224 40.7604H42.7001L41.7757 39.8067L41.7733 39.5913C41.7693 39.2137 41.4592 38.9062 41.0719 38.9062C40.8864 38.9076 40.713 38.9818 40.583 39.1139C40.453 39.2461 40.3826 39.42 40.3853 39.6048L40.3876 39.8104L39.3916 40.7565H39.102C38.7188 40.7578 38.4087 41.068 38.4087 41.4496C38.41 41.8299 38.7215 42.1401 39.1061 42.1401H39.4746L40.3631 43.0032C40.3634 43.2359 40.3643 43.3171 40.3643 43.3171C40.3697 43.6934 40.6811 43.9995 41.0589 43.9995H41.0684C41.4516 43.9941 41.759 43.6799 41.7536 43.2942C41.7527 43.2773 41.7524 43.2102 41.7523 43.0629L42.6364 42.1453ZM41.0785 41.7637L40.7156 41.4117L41.0744 41.0706L41.4116 41.4185L41.0785 41.7637Z" fill="black"/>
<path d="M42.6364 42.1453V41.8953H42.5301L42.4563 41.9718L42.6364 42.1453ZM43.0224 40.7604L43.0241 40.5104H43.0224V40.7604ZM42.7001 40.7604L42.5206 40.9344L42.5943 41.0104H42.7001V40.7604ZM41.7757 39.8067L41.5257 39.8095L41.5269 39.9091L41.5962 39.9807L41.7757 39.8067ZM41.7733 39.5913L41.5233 39.594L41.5233 39.5941L41.7733 39.5913ZM41.0719 38.9062V38.6562L41.0701 38.6563L41.0719 38.9062ZM40.583 39.1139L40.4048 38.9386L40.4048 38.9386L40.583 39.1139ZM40.3853 39.6048L40.6353 39.602L40.6353 39.6011L40.3853 39.6048ZM40.3876 39.8104L40.5598 39.9916L40.6388 39.9166L40.6376 39.8076L40.3876 39.8104ZM39.3916 40.7565V41.0065H39.4914L39.5638 40.9377L39.3916 40.7565ZM39.102 40.7565V40.5065L39.1011 40.5065L39.102 40.7565ZM38.4087 41.4496H38.1587L38.1587 41.4505L38.4087 41.4496ZM39.4746 42.1401L39.6488 41.9608L39.576 41.8901H39.4746V42.1401ZM40.3631 43.0032L40.6131 43.0028L40.6129 42.8973L40.5373 42.8239L40.3631 43.0032ZM40.3643 43.3171L40.1143 43.3197L40.1143 43.3207L40.3643 43.3171ZM41.0684 43.9995V44.2495L41.0719 44.2495L41.0684 43.9995ZM41.7536 43.2942L42.0038 43.2907L42.0033 43.281L41.7536 43.2942ZM41.7523 43.0629L41.5723 42.8895L41.5022 42.9622L41.5023 43.0631L41.7523 43.0629ZM40.7156 41.4117L40.5433 41.2306L40.3546 41.4099L40.5415 41.5912L40.7156 41.4117ZM41.0785 41.7637L40.9044 41.9432L41.0844 42.1177L41.2584 41.9373L41.0785 41.7637ZM41.0744 41.0706L41.254 40.8966L41.0816 40.7188L40.9022 40.8894L41.0744 41.0706ZM41.4116 41.4185L41.5915 41.5921L41.7594 41.4181L41.5911 41.2445L41.4116 41.4185ZM42.6364 42.3953H43.0197V41.8953H42.6364V42.3953ZM43.0197 42.3953H43.021V41.8953H43.0197V42.3953ZM43.021 42.3953C43.5394 42.3953 43.9657 41.9748 43.9657 41.4548H43.4657C43.4657 41.6955 43.2664 41.8953 43.021 41.8953V42.3953ZM43.9657 41.4548C43.9657 40.9361 43.5437 40.514 43.0241 40.5104L43.0206 41.0103C43.2675 41.0121 43.4657 41.213 43.4657 41.4548H43.9657ZM43.0224 40.5104H42.7001V41.0104H43.0224V40.5104ZM41.5962 39.9807L42.5206 40.9344L42.8797 40.5863L41.9552 39.6327L41.5962 39.9807ZM42.0257 39.8039L42.0233 39.5885L41.5233 39.5941L41.5257 39.8095L42.0257 39.8039ZM42.0233 39.5886C42.0178 39.0721 41.5943 38.6562 41.0719 38.6562V39.1562C41.3241 39.1562 41.5208 39.3553 41.5233 39.594L42.0233 39.5886ZM41.0701 38.6563C40.8175 38.6581 40.5809 38.7596 40.4048 38.9386L40.7613 39.2892C40.8452 39.2039 40.9553 39.1571 41.0737 39.1562L41.0701 38.6563ZM40.4048 38.9386C40.2285 39.1179 40.1317 39.3561 40.1354 39.6085L40.6353 39.6011C40.6336 39.484 40.6776 39.3743 40.7613 39.2892L40.4048 38.9386ZM40.1353 39.6076L40.1376 39.8132L40.6376 39.8076L40.6353 39.602L40.1353 39.6076ZM39.5638 40.9377L40.5598 39.9916L40.2154 39.6291L39.2194 40.5752L39.5638 40.9377ZM39.3916 40.5065H39.102V41.0065H39.3916V40.5065ZM39.1011 40.5065C38.581 40.5083 38.1587 40.9294 38.1587 41.4496H38.6587C38.6587 41.2066 38.8565 41.0073 39.1029 41.0065L39.1011 40.5065ZM38.1587 41.4505C38.1605 41.9696 38.5849 42.3901 39.1061 42.3901V41.8901C38.8581 41.8901 38.6595 41.6902 38.6587 41.4487L38.1587 41.4505ZM39.1061 42.3901H39.4746V41.8901H39.1061V42.3901ZM40.5373 42.8239L39.6488 41.9608L39.3004 42.3194L40.1889 43.1825L40.5373 42.8239ZM40.1131 43.0036C40.1133 43.1202 40.1136 43.199 40.1138 43.2487C40.1139 43.2736 40.1141 43.2912 40.1141 43.3027C40.1142 43.3084 40.1142 43.3126 40.1142 43.3154C40.1142 43.3168 40.1143 43.3178 40.1143 43.3185C40.1143 43.3189 40.1143 43.3191 40.1143 43.3193C40.1143 43.3194 40.1143 43.3195 40.1143 43.3196C40.1143 43.3196 40.1143 43.3196 40.1143 43.3196C40.1143 43.3196 40.1143 43.3197 40.1143 43.3197C40.1143 43.3197 40.1143 43.3197 40.1143 43.3197C40.1143 43.3197 40.1143 43.3197 40.3643 43.3171C40.6143 43.3146 40.6143 43.3146 40.6143 43.3146C40.6143 43.3146 40.6143 43.3146 40.6143 43.3146C40.6143 43.3146 40.6143 43.3146 40.6143 43.3146C40.6143 43.3146 40.6143 43.3146 40.6143 43.3146C40.6142 43.3146 40.6142 43.3145 40.6142 43.3145C40.6142 43.3143 40.6142 43.3141 40.6142 43.3138C40.6142 43.3132 40.6142 43.3123 40.6142 43.311C40.6142 43.3085 40.6142 43.3045 40.6141 43.299C40.614 43.2879 40.6139 43.2707 40.6138 43.2462C40.6136 43.1971 40.6133 43.1189 40.6131 43.0028L40.1131 43.0036ZM40.1143 43.3207C40.1217 43.8344 40.5452 44.2495 41.0589 44.2495V43.7495C40.817 43.7495 40.6177 43.5524 40.6142 43.3135L40.1143 43.3207ZM41.0589 44.2495H41.0684V43.7495H41.0589V44.2495ZM41.0719 44.2495C41.5929 44.2421 42.0109 43.8148 42.0036 43.2907L41.5036 43.2977C41.5071 43.545 41.3104 43.7461 41.0649 43.7495L41.0719 44.2495ZM42.0033 43.281C42.0033 43.2822 42.0032 43.2792 42.003 43.2681C42.0029 43.2582 42.0028 43.2444 42.0027 43.2261C42.0025 43.1894 42.0024 43.1364 42.0023 43.0628L41.5023 43.0631C41.5024 43.2047 41.5026 43.2819 41.504 43.3074L42.0033 43.281ZM42.4563 41.9718L41.5723 42.8895L41.9324 43.2364L42.8164 42.3187L42.4563 41.9718ZM40.5415 41.5912L40.9044 41.9432L41.2525 41.5842L40.8896 41.2323L40.5415 41.5912ZM40.9022 40.8894L40.5433 41.2306L40.8878 41.5929L41.2467 41.2517L40.9022 40.8894ZM41.5911 41.2445L41.254 40.8966L40.8949 41.2445L41.2321 41.5925L41.5911 41.2445ZM41.2584 41.9373L41.5915 41.5921L41.2317 41.2449L40.8986 41.5901L41.2584 41.9373Z" fill="white" mask="url(#path-5-inside-3_6228_2289)"/>
</g>
<defs>
<clipPath id="clip0_6228_2289">
<rect width="61.6" height="44" fill="white"/>
</clipPath>
</defs>
</svg>
