<svg width="62" height="44" viewBox="0 0 62 44" fill="none" xmlns="http://www.w3.org/2000/svg">
<path d="M27.3018 34.1365H21.3713L17.377 30.0802V12.1471L21.3713 8.09082H27.3018H33.2324L37.2267 12.1471V30.0802L33.2324 34.1365H27.3018Z" stroke="black" stroke-miterlimit="10"/>
<path d="M27.304 39.7995H18.8763L13.2002 34.0352V8.55133L18.8763 2.78711H27.304H35.7317L41.4078 8.55133V34.0352L35.7317 39.7995H27.304Z" stroke="black" stroke-miterlimit="10"/>
<path d="M13.2002 8.36682L17.372 12.0108M37.1883 12.0108L41.3602 8.36682M33.0165 7.84626L35.6239 2.64062M21.5439 7.84626L18.9365 2.64062M17.372 30.2305L13.2002 33.8744M21.5439 34.395L18.9365 39.6006M33.0165 34.395L35.6239 39.6006M37.1883 30.2305L40.8387 33.8744" stroke="black" stroke-linecap="round" stroke-linejoin="round"/>
<path d="M47.9309 19.1805C48.1448 19.1805 48.3088 18.9908 48.3088 18.7286L48.3018 17.0739L48.9577 16.6876L50.7405 15.4848L50.6192 17.6642V18.4371L49.2075 19.2536C48.9793 19.3849 48.9078 19.6253 49.0219 19.8147C49.1433 20.0408 49.3715 20.0698 49.5924 19.9388L50.6192 19.341V20.6604C50.6192 20.9301 50.7904 21.1198 51.0399 21.1198C51.3037 21.1198 51.4607 20.9301 51.4607 20.6604V19.341L52.4801 19.9388C52.7013 20.0701 52.9295 20.0408 53.0579 19.8222C53.172 19.6253 53.0935 19.3849 52.8653 19.2536L51.4607 18.4371V17.6642L51.3393 15.4845L53.1221 16.6801L53.778 17.0664L53.7637 18.7286C53.7637 18.9911 53.928 19.1805 54.1489 19.1805C54.4053 19.1805 54.541 18.9836 54.541 18.7286V17.5258L55.6676 18.1893C55.8958 18.3205 56.1309 18.2695 56.2523 18.0362C56.3807 17.8176 56.3092 17.5622 56.0881 17.4384L54.9618 16.775L55.9813 16.17C56.2024 16.0388 56.2952 15.8201 56.1669 15.6015C56.0528 15.4046 55.8246 15.3464 55.5964 15.4848L54.1988 16.3231L53.5428 15.9368L51.6316 14.9598L53.5428 13.9832L54.1988 13.5894L55.5964 14.4276C55.8173 14.566 56.0598 14.5079 56.1738 14.3181C56.2949 14.0923 56.2024 13.8734 55.9813 13.7424L54.9688 13.1375L56.0884 12.4812C56.3165 12.3428 56.3877 12.1095 56.2523 11.8762C56.1309 11.6576 55.8958 11.5919 55.6676 11.7304L54.541 12.3938L54.5337 11.1839C54.5337 10.9288 54.4053 10.7316 54.1489 10.7391C53.9277 10.7391 53.7637 10.9214 53.7637 11.1839L53.778 12.8454L53.1221 13.2317L51.3393 14.4273L51.4607 12.2476V11.475L52.8653 10.6588C53.0935 10.5276 53.172 10.2869 53.0579 10.0974C52.9295 9.87162 52.7013 9.84239 52.4801 9.97364L51.4607 10.5714V9.25174C51.4607 8.98207 51.3037 8.7998 51.0399 8.7998C50.7904 8.7998 50.6192 8.98207 50.6192 9.25174V10.5714L49.5924 9.97364C49.3715 9.84954 49.1433 9.87162 49.0219 10.0974C48.9078 10.2872 48.9793 10.5276 49.2075 10.6588L50.6192 11.4753V12.2479L50.7405 14.4351L48.9577 13.232L48.3018 12.8386L48.3088 11.1839C48.3088 10.9214 48.1448 10.7391 47.9309 10.7391C47.6745 10.7391 47.5388 10.9288 47.5388 11.1839L47.5318 12.3866L46.4122 11.7304C46.1913 11.5991 45.9489 11.6576 45.8275 11.8762C45.6921 12.1095 45.7706 12.3499 45.9918 12.4812L47.111 13.1375L46.0985 13.7424C45.8774 13.8737 45.7776 14.0852 45.906 14.3185C46.0131 14.5079 46.2625 14.566 46.4837 14.4276L47.881 13.5965L48.537 13.9829L50.4482 14.9598L48.537 15.9364L47.881 16.3231L46.4834 15.4845C46.2552 15.3461 46.0201 15.4046 45.913 15.594C45.7919 15.8273 45.8774 16.0388 46.0985 16.17L47.111 16.775L45.9915 17.4384C45.7706 17.5622 45.6994 17.8173 45.8275 18.0362C45.9559 18.2695 46.191 18.313 46.4122 18.1893L47.5318 17.5258L47.5388 18.7286C47.5388 18.9836 47.6742 19.1805 47.9312 19.1805H47.9309Z" fill="black"/>
<path d="M3.85799 36.7478C4.02137 36.7478 4.14663 36.6123 4.14663 36.425L4.14128 35.2431L4.64234 34.9671L6.00421 34.108L5.91148 35.6647V36.2168L4.83314 36.8C4.65884 36.8938 4.60423 37.0655 4.69138 37.2008C4.7841 37.3623 4.95841 37.383 5.12713 37.2894L5.91148 36.8624V37.8049C5.91148 37.9975 6.04232 38.133 6.23289 38.133C6.43438 38.133 6.5543 37.9975 6.5543 37.8049V36.8624L7.33307 37.2894C7.50203 37.3832 7.67633 37.3623 7.7744 37.2061C7.86155 37.0655 7.80159 36.8938 7.62729 36.8L6.5543 36.2168V35.6647L6.46157 34.1078L7.82344 34.9618L8.3245 35.2377L8.31357 36.425C8.31357 36.6125 8.43907 36.7478 8.60779 36.7478C8.80371 36.7478 8.90736 36.6072 8.90736 36.425V35.5659L9.76794 36.0398C9.94224 36.1335 10.1219 36.0971 10.2146 35.9305C10.3127 35.7743 10.2581 35.5919 10.0891 35.5035L9.22877 35.0296L10.0075 34.5975C10.1765 34.5037 10.2474 34.3475 10.1493 34.1913C10.0622 34.0507 9.88786 34.0092 9.71355 34.108L8.64591 34.7068L8.14485 34.4308L6.68491 33.733L8.14485 33.0354L8.64591 32.7541L9.71355 33.3529C9.88228 33.4517 10.0675 33.4102 10.1547 33.2747C10.2471 33.1134 10.1765 32.957 10.0075 32.8634L9.23411 32.4313L10.0893 31.9626C10.2636 31.8637 10.318 31.6971 10.2146 31.5305C10.1219 31.3743 9.94224 31.3274 9.76794 31.4263L8.90736 31.9001L8.90178 31.0359C8.90178 30.8537 8.80371 30.7129 8.60779 30.7182C8.43884 30.7182 8.31357 30.8484 8.31357 31.0359L8.3245 32.2227L7.82344 32.4987L6.46157 33.3527L6.5543 31.7957V31.2439L7.62729 30.6609C7.80159 30.5671 7.86155 30.3952 7.7744 30.2599C7.67633 30.0986 7.50203 30.0777 7.33307 30.1715L6.5543 30.5985V29.6558C6.5543 29.4632 6.43438 29.333 6.23289 29.333C6.04232 29.333 5.91148 29.4632 5.91148 29.6558V30.5985L5.12713 30.1715C4.95841 30.0828 4.7841 30.0986 4.69138 30.2599C4.60423 30.3954 4.65884 30.5671 4.83314 30.6609L5.91148 31.2441V31.7959L6.00421 33.3582L4.64234 32.4989L4.14128 32.2178L4.14663 31.0359C4.14663 30.8484 4.02137 30.7182 3.85799 30.7182C3.66207 30.7182 3.55842 30.8537 3.55842 31.0359L3.55308 31.895L2.69784 31.4263C2.52912 31.3325 2.3439 31.3743 2.25117 31.5305C2.14775 31.6971 2.20771 31.8688 2.37667 31.9626L3.23167 32.4313L2.45824 32.8634C2.28928 32.9572 2.21306 33.1083 2.31113 33.2749C2.39293 33.4102 2.5835 33.4517 2.75246 33.3529L3.81987 32.7593L4.32093 33.0352L5.78087 33.733L4.32093 34.4306L3.81987 34.7068L2.75223 34.1078C2.57793 34.0089 2.39828 34.0507 2.31647 34.186C2.22398 34.3526 2.28928 34.5037 2.45824 34.5975L3.23167 35.0296L2.37643 35.5035C2.20771 35.5919 2.15333 35.774 2.25117 35.9305C2.34924 36.0971 2.52889 36.1282 2.69784 36.0398L3.55308 35.5659L3.55842 36.425C3.55842 36.6072 3.66184 36.7478 3.85822 36.7478H3.85799Z" fill="black"/>
</svg>
