<svg width="44" height="42" viewBox="0 0 44 42" fill="none" xmlns="http://www.w3.org/2000/svg">
<path d="M40.427 8.21838H35.9622C37.3243 7.04805 37.9818 5.2949 37.5041 3.63575C37.1635 2.46072 36.3216 1.51129 35.125 0.966079C33.9709 0.444365 32.6182 0.355063 31.3223 0.726373C30.2297 1.03658 28.6027 2.16461 26.3466 4.17157C26.0487 4.43948 25.7554 4.70268 25.4858 4.95179C25.3155 4.42067 24.8142 4.03526 24.223 4.03526H20.2027C19.5736 4.03526 19.0439 4.47708 18.9115 5.06459C18.6041 4.77788 18.273 4.47708 17.9277 4.16687C15.6669 2.16461 14.0399 1.03658 12.952 0.726373C11.6514 0.355063 10.2986 0.444365 9.1446 0.970779C7.94797 1.51599 7.10135 2.46542 6.76554 3.64045C6.28784 5.2996 6.94527 7.04805 8.30743 8.22308H3.56824C2.14932 8.22308 1 9.36991 1 10.7753V14.6905C1 16.0629 2.09257 17.1862 3.45946 17.2426V38.9854C3.45946 40.372 4.59459 41.5 5.98986 41.5H37.7264C39.1216 41.5 40.2568 40.372 40.2568 38.9854V17.2426H40.4318C41.8507 17.2426 43 16.0958 43 14.6905V10.7753C43 9.36521 41.8459 8.21838 40.427 8.21838ZM41.4865 14.6905C41.4865 15.2686 41.0135 15.7386 40.4318 15.7386H27.2027V9.72242H40.4318C41.0135 9.72242 41.4865 10.1924 41.4865 10.7706V14.6905ZM2.51351 10.7753C2.51351 10.1971 2.98649 9.72712 3.56824 9.72712H16.7027V15.7433H3.56824C2.98649 15.7433 2.51351 15.2733 2.51351 14.6952V10.7753ZM20.3919 5.53931H24.0338V8.21838H20.3919V5.53931ZM25.6892 14.5166V15.7386H18.2162V9.72242H25.6892V14.5166ZM31.7385 2.17401C32.6892 1.90141 33.6682 1.96251 34.4959 2.33852C35.2858 2.70043 35.8392 3.30674 36.052 4.05406C36.5108 5.63801 35.3189 7.37706 33.3939 7.92227C32.2304 8.25128 29.3878 7.85647 27.0277 7.40996L31.6061 6.17382C32.0081 6.06572 32.2493 5.65211 32.1358 5.2526C32.027 4.85309 31.6108 4.61338 31.2088 4.72618L26.602 5.97172C28.3709 4.34077 30.575 2.50302 31.7385 2.17401ZM8.21757 4.05406C8.43514 3.30674 8.98851 2.69573 9.77365 2.33852C10.2608 2.11761 10.7953 2.00481 11.3486 2.00481C11.7412 2.00481 12.1385 2.06121 12.5311 2.17401C13.7135 2.51242 15.9743 4.41127 17.7574 6.05632L12.8338 4.72148C12.4318 4.61338 12.0155 4.84839 11.9068 5.2479C11.798 5.64741 12.0345 6.06102 12.4365 6.16912L17.1095 7.43346C15.3878 7.75307 13.4392 8.04448 12.077 8.04448C11.5899 8.04448 11.1784 8.00688 10.8757 7.92227C8.95068 7.37706 7.75878 5.63801 8.21757 4.05406ZM4.97297 38.9854V17.2426H17.6486V39.9913H5.98514C5.42703 39.9913 4.97297 39.54 4.97297 38.9854ZM19.1622 17.2426H24.7432V39.9913H19.1622V17.2426ZM38.7432 38.9854C38.7432 39.54 38.2892 39.996 37.7264 39.996H26.2568V17.2473H38.7432V38.9854Z" fill="#DEB581" stroke="#DEB581"/>
</svg>
