<svg width="654" height="72" viewBox="0 0 654 72" fill="none" xmlns="http://www.w3.org/2000/svg">
<path d="M64.5319 68.848C64.7239 68.848 64.8199 69.04 64.8199 69.424C64.8199 69.808 64.7239 70 64.5319 70C63.3799 70 61.5879 69.936 59.1559 69.808C56.4679 69.68 54.3239 69.616 52.7239 69.616C51.0599 69.616 49.0119 69.68 46.5799 69.808C44.2759 69.936 42.5799 70 41.4919 70C41.2359 70 41.1079 69.808 41.1079 69.424C41.1079 69.04 41.2359 68.848 41.4919 68.848C43.4119 68.848 44.7879 68.656 45.6199 68.272C46.4519 67.824 46.8679 67.056 46.8679 65.968C46.8679 65.008 46.4839 63.664 45.7159 61.936L37.2679 41.68H22.0999L15.5719 57.616C14.5479 60.048 14.0359 62 14.0359 63.472C14.0359 65.328 14.7719 66.704 16.2439 67.6C17.7159 68.432 19.9879 68.848 23.0599 68.848C23.3159 68.848 23.4439 69.04 23.4439 69.424C23.4439 69.808 23.2839 70 22.9639 70C22.1319 70 20.3079 69.936 17.4919 69.808C14.2919 69.68 11.8599 69.616 10.1959 69.616C8.65988 69.616 6.86788 69.68 4.81988 69.808C3.02788 69.936 1.55588 70 0.403875 70C0.147875 70 0.019875 69.808 0.019875 69.424C0.019875 69.04 0.147875 68.848 0.403875 68.848C2.32388 68.848 4.40388 67.824 6.64388 65.776C8.94788 63.664 10.9319 60.72 12.5959 56.944L32.8519 9.136C32.8519 8.944 33.0759 8.848 33.5239 8.848C34.0999 8.848 34.5159 8.976 34.7719 9.232L56.2759 61.936C57.2359 64.176 57.9399 65.68 58.3879 66.448C58.8999 67.216 59.6039 67.824 60.4999 68.272C61.3959 68.656 62.7399 68.848 64.5319 68.848ZM23.2519 38.992H36.2119L29.6839 23.344L23.2519 38.992ZM90.9004 70C90.7084 70 90.6124 69.808 90.6124 69.424C90.6124 69.04 90.7084 68.848 90.9004 68.848C92.8844 68.848 94.3244 68.688 95.2204 68.368C96.1164 68.048 96.7244 67.44 97.0444 66.544C97.3644 65.584 97.5244 64.144 97.5244 62.224V17.776C97.5244 15.856 97.3324 14.448 96.9484 13.552C96.6284 12.656 95.9884 12.048 95.0284 11.728C94.1324 11.344 92.7564 11.152 90.9004 11.152C90.7084 11.152 90.6124 10.96 90.6124 10.576C90.6124 10.192 90.7084 10 90.9004 10L95.6044 10.096C98.2924 10.224 100.532 10.288 102.324 10.288C104.82 10.288 107.604 10.16 110.676 9.904C112.852 9.776 114.292 9.712 114.996 9.712C121.78 9.712 127.284 11.088 131.508 13.84C135.796 16.592 137.94 20.56 137.94 25.744C137.94 29.968 136.788 33.52 134.484 36.4C132.18 39.28 129.3 41.424 125.844 42.832C122.388 44.176 118.932 44.848 115.476 44.848C113.556 44.848 112.052 44.688 110.964 44.368C110.836 44.368 110.772 44.144 110.772 43.696C110.772 43.376 110.804 43.088 110.868 42.832C110.996 42.512 111.124 42.384 111.252 42.448C112.084 42.704 113.108 42.832 114.324 42.832C117.908 42.832 120.852 41.584 123.156 39.088C125.524 36.528 126.708 32.72 126.708 27.664C126.708 24.4 126.068 21.584 124.788 19.216C123.508 16.784 121.844 14.928 119.796 13.648C117.812 12.368 115.7 11.728 113.46 11.728C111.22 11.728 109.716 12.144 108.948 12.976C108.244 13.744 107.86 15.408 107.796 17.968L107.892 62.224C107.892 64.144 108.052 65.552 108.372 66.448C108.756 67.344 109.364 67.984 110.196 68.368C111.092 68.688 112.468 68.848 114.324 68.848C114.516 68.848 114.612 69.04 114.612 69.424C114.676 69.808 114.58 70 114.324 70C112.276 70 110.676 69.968 109.524 69.904L102.612 69.808L95.7964 69.904C94.5804 69.968 92.9484 70 90.9004 70ZM174.015 63.952C174.207 63.952 174.399 64.048 174.591 64.24C174.783 64.432 174.815 64.592 174.687 64.72C172.639 66.96 170.303 68.592 167.679 69.616C165.055 70.64 162.367 71.152 159.615 71.152C155.775 71.152 152.511 70.288 149.823 68.56C147.135 66.832 145.119 64.56 143.775 61.744C142.431 58.928 141.759 55.92 141.759 52.72C141.759 49.264 142.655 45.936 144.447 42.736C146.239 39.472 148.767 36.816 152.031 34.768C155.359 32.72 159.167 31.696 163.455 31.696C166.335 31.696 168.575 32.144 170.175 33.04C171.839 33.936 172.767 35.216 172.959 36.88C173.215 39.696 171.231 42.32 167.007 44.752C162.783 47.184 157.567 48.944 151.359 50.032C151.615 54.96 152.895 59.024 155.199 62.224C157.567 65.36 160.767 66.928 164.799 66.928C166.335 66.928 167.903 66.704 169.503 66.256C171.103 65.744 172.543 64.976 173.823 63.952H174.015ZM158.463 34.288C156.223 34.288 154.463 35.632 153.183 38.32C151.967 40.944 151.359 44.336 151.359 48.496C159.103 46.704 162.847 43.504 162.591 38.896C162.591 37.488 162.207 36.368 161.439 35.536C160.735 34.704 159.743 34.288 158.463 34.288ZM210.482 36.88C210.482 37.968 209.97 39.152 208.946 40.432C207.922 41.648 206.802 42.256 205.586 42.256C204.946 42.256 204.37 42.16 203.858 41.968C203.41 41.712 202.834 41.392 202.13 41.008C201.682 40.752 201.234 40.528 200.786 40.336C200.402 40.144 200.018 40.048 199.634 40.048C198.418 40.048 197.266 41.616 196.178 44.752C195.154 47.824 194.322 51.6 193.682 56.08C193.106 60.496 192.786 64.496 192.722 68.08V68.848C192.722 70.128 190.898 70.768 187.25 70.768C185.01 70.768 183.826 70.512 183.698 70V67.792C183.826 66 183.89 64.368 183.89 62.896L183.986 41.488C183.986 38.352 183.154 36.784 181.49 36.784C180.018 36.784 178.29 38.064 176.306 40.624C176.178 40.752 176.05 40.816 175.922 40.816C175.666 40.816 175.442 40.72 175.25 40.528C175.058 40.272 175.058 40.016 175.25 39.76C177.17 37.072 179.026 35.12 180.818 33.904C182.61 32.688 184.498 32.08 186.482 32.08C188.722 32.08 190.322 32.784 191.282 34.192C192.242 35.536 192.786 37.584 192.914 40.336L192.818 50.608C193.65 44.912 194.898 40.4 196.562 37.072C198.226 33.68 200.402 31.984 203.09 31.984C204.69 31.984 206.322 32.496 207.986 33.52C209.65 34.48 210.482 35.6 210.482 36.88ZM226.889 71.056C223.753 71.056 220.937 70.384 218.441 69.04C216.009 67.696 214.761 66.064 214.697 64.144C214.697 62.864 215.081 61.904 215.849 61.264C216.617 60.56 217.609 60.208 218.825 60.208C219.977 60.208 220.969 60.528 221.801 61.168C222.633 61.744 223.593 62.64 224.681 63.856C225.961 65.2 227.049 66.192 227.945 66.832C228.905 67.472 230.057 67.792 231.401 67.792C232.617 67.792 233.449 67.536 233.897 67.024C234.409 66.448 234.665 65.552 234.665 64.336C234.665 62.032 233.865 60.112 232.265 58.576C230.665 56.976 228.297 55.184 225.161 53.2C222.985 51.792 221.289 50.608 220.073 49.648C218.857 48.688 217.801 47.568 216.905 46.288C216.073 45.008 215.657 43.536 215.657 41.872C215.657 40.272 216.233 38.704 217.385 37.168C218.537 35.632 220.137 34.384 222.185 33.424C224.297 32.464 226.697 31.984 229.385 31.984C232.777 31.984 235.529 32.528 237.641 33.616C239.753 34.64 240.841 36.016 240.905 37.744C241.033 38.96 240.681 39.92 239.849 40.624C239.081 41.328 238.153 41.68 237.065 41.68C235.529 41.68 234.345 41.392 233.513 40.816C232.745 40.24 231.945 39.344 231.113 38.128C230.281 36.976 229.481 36.112 228.713 35.536C228.009 34.96 226.953 34.672 225.545 34.672C224.393 34.672 223.561 34.96 223.049 35.536C222.537 36.112 222.281 36.816 222.281 37.648C222.281 39.632 223.049 41.36 224.585 42.832C226.121 44.24 228.393 45.904 231.401 47.824C234.729 49.936 237.225 51.856 238.889 53.584C240.553 55.248 241.385 57.264 241.385 59.632C241.321 61.36 240.713 63.12 239.561 64.912C238.409 66.64 236.745 68.112 234.569 69.328C232.393 70.48 229.833 71.056 226.889 71.056ZM264.515 71.344C260.803 71.344 257.603 70.48 254.915 68.752C252.291 66.96 250.307 64.592 248.963 61.648C247.619 58.704 246.947 55.472 246.947 51.952C246.947 47.984 247.779 44.464 249.443 41.392C251.107 38.32 253.411 35.952 256.355 34.288C259.363 32.56 262.723 31.696 266.435 31.696C272.067 31.696 276.451 33.488 279.587 37.072C282.723 40.656 284.291 45.296 284.291 50.992C284.291 55.28 283.363 58.96 281.507 62.032C279.651 65.104 277.219 67.44 274.211 69.04C271.203 70.576 267.971 71.344 264.515 71.344ZM267.683 68.944C269.987 68.944 271.715 67.728 272.867 65.296C274.019 62.8 274.595 59.376 274.595 55.024C274.595 51.312 274.083 47.856 273.059 44.656C272.099 41.392 270.755 38.8 269.027 36.88C267.299 34.96 265.411 34 263.363 34C261.251 34 259.587 35.12 258.371 37.36C257.155 39.6 256.547 42.928 256.547 47.344C256.547 51.184 257.059 54.768 258.083 58.096C259.107 61.36 260.451 63.984 262.115 65.968C263.843 67.952 265.699 68.944 267.683 68.944ZM335.413 62.416C335.669 62.416 335.893 62.544 336.085 62.8C336.277 62.992 336.309 63.184 336.181 63.376C334.261 66 332.501 67.92 330.901 69.136C329.301 70.288 327.509 70.864 325.525 70.864C323.221 70.864 321.557 70.096 320.533 68.56C319.509 66.96 319.029 64.592 319.093 61.456L319.285 46.192C319.285 40.176 317.749 37.168 314.677 37.168C312.629 37.168 310.773 38.32 309.109 40.624C307.445 42.928 306.101 46.352 305.077 50.896C304.117 55.376 303.605 60.72 303.541 66.928V68.848C303.541 69.424 303.061 69.872 302.101 70.192C301.205 70.576 299.829 70.768 297.973 70.768C295.733 70.768 294.549 70.512 294.421 70V67.792C294.549 66 294.613 64.368 294.613 62.896L294.805 41.488C294.805 38.352 293.973 36.784 292.309 36.784C290.901 36.784 289.141 38.064 287.029 40.624C286.965 40.688 286.869 40.72 286.741 40.72C286.485 40.72 286.261 40.624 286.069 40.432C285.877 40.176 285.845 39.952 285.973 39.76C287.893 37.072 289.749 35.12 291.541 33.904C293.333 32.688 295.221 32.08 297.205 32.08C299.445 32.08 301.045 32.784 302.005 34.192C303.029 35.536 303.573 37.584 303.637 40.336V49.168C304.981 43.6 306.965 39.312 309.589 36.304C312.213 33.232 315.317 31.696 318.901 31.696C325.045 31.696 328.117 35.92 328.117 44.368L328.021 61.456C327.957 64.464 328.693 65.968 330.229 65.968C330.933 65.968 331.637 65.68 332.341 65.104C333.109 64.528 334.005 63.696 335.029 62.608L335.413 62.416ZM380.892 62.608C380.956 62.544 381.052 62.512 381.18 62.512C381.372 62.512 381.564 62.64 381.756 62.896C381.948 63.088 382.012 63.248 381.948 63.376C380.156 65.872 378.428 67.76 376.764 69.04C375.1 70.256 373.404 70.864 371.676 70.864C369.372 70.864 367.644 70.096 366.492 68.56C365.34 67.024 364.764 64.656 364.764 61.456V54.928C363.036 60.048 360.604 64.048 357.468 66.928C354.332 69.808 351.004 71.248 347.484 71.248C344.86 71.248 342.716 70.384 341.052 68.656C339.452 66.864 338.652 64.144 338.652 60.496C338.652 56.272 339.804 51.92 342.108 47.44C344.412 42.896 347.356 39.152 350.94 36.208C354.588 33.2 358.3 31.696 362.076 31.696C363.42 31.696 364.796 31.92 366.204 32.368C367.676 32.752 368.988 33.36 370.14 34.192C371.356 33.232 372.252 32.144 372.828 30.928C372.956 30.8 373.084 30.736 373.212 30.736C373.404 30.736 373.596 30.8 373.788 30.928C374.044 31.056 374.14 31.152 374.076 31.216L373.884 61.456C373.82 62.928 373.948 64.048 374.268 64.816C374.652 65.584 375.196 65.968 375.9 65.968C376.54 65.968 377.308 65.68 378.204 65.104C379.1 64.464 379.996 63.632 380.892 62.608ZM352.956 64.24C355.068 64.24 357.02 63.216 358.812 61.168C360.668 59.12 362.108 56.624 363.132 53.68C364.22 50.672 364.764 47.92 364.764 45.424C364.764 42.608 364.092 40.4 362.748 38.8C361.468 37.2 359.708 36.4 357.468 36.4C354.204 36.4 351.644 38 349.788 41.2C347.932 44.336 347.004 48.432 347.004 53.488C347.068 57.264 347.644 60.016 348.732 61.744C349.82 63.408 351.228 64.24 352.956 64.24ZM394.386 70.864C392.082 70.864 390.418 70.096 389.394 68.56C388.37 66.96 387.89 64.592 387.954 61.456L388.242 13.456C388.306 11.408 388.114 9.936 387.666 9.04C387.218 8.08 386.45 7.6 385.362 7.6C384.21 7.6 382.802 8.016 381.138 8.848H380.946C380.626 8.848 380.434 8.688 380.37 8.368C380.242 7.984 380.306 7.76 380.562 7.696L395.634 0.399998H395.826C396.082 0.399998 396.338 0.495996 396.594 0.687994C396.85 0.879995 396.978 1.04 396.978 1.168L396.882 61.456C396.754 64.464 397.49 65.968 399.09 65.968C399.73 65.968 400.434 65.68 401.202 65.104C402.034 64.528 402.962 63.696 403.986 62.608C404.114 62.48 404.242 62.416 404.37 62.416C404.562 62.416 404.722 62.544 404.85 62.8C405.042 62.992 405.106 63.184 405.042 63.376C403.122 66 401.362 67.92 399.762 69.136C398.162 70.288 396.37 70.864 394.386 70.864ZM443.456 70C443.264 70 443.168 69.808 443.168 69.424C443.168 69.04 443.232 68.848 443.36 68.848C446.048 68.848 448 68.688 449.216 68.368C450.496 68.048 451.36 67.44 451.808 66.544C452.256 65.584 452.48 64.144 452.48 62.224V17.776C452.544 15.536 452.256 14.064 451.616 13.36C450.976 12.592 449.76 12.208 447.968 12.208H446.72C444.544 12.208 442.4 12.912 440.288 14.32C438.176 15.664 436.384 17.488 434.912 19.792C433.44 22.032 432.544 24.496 432.224 27.184C432.224 27.312 432.064 27.376 431.744 27.376C431.552 27.376 431.36 27.344 431.168 27.28C431.04 27.152 431.008 27.056 431.072 26.992C431.392 24.56 431.872 18.192 432.512 7.888C432.512 7.696 432.672 7.6 432.992 7.6C433.184 7.6 433.344 7.632 433.472 7.696C433.664 7.76 433.76 7.856 433.76 7.984C433.76 9.328 435.2 10 438.08 10C443.264 10.192 449.76 10.288 457.568 10.288C461.088 10.288 465.024 10.224 469.376 10.096L476.096 10C478.208 10 479.744 9.84 480.704 9.51999C481.664 9.2 482.272 8.56 482.528 7.6C482.656 7.408 482.88 7.344 483.2 7.408C483.584 7.408 483.744 7.536 483.68 7.792C483.488 10.608 483.296 14.16 483.104 18.448C482.912 22.672 482.848 25.52 482.912 26.992C482.912 27.184 482.72 27.28 482.336 27.28C481.824 27.28 481.568 27.152 481.568 26.896C481.568 24.272 480.96 21.84 479.744 19.6C478.592 17.36 476.96 15.568 474.848 14.224C472.8 12.88 470.56 12.208 468.128 12.208H466.88C465.6 12.208 464.672 12.368 464.096 12.688C463.584 13.008 463.264 13.552 463.136 14.32C463.008 15.024 462.912 16.24 462.848 17.968L462.944 62.224C462.944 64.208 463.136 65.648 463.52 66.544C463.968 67.44 464.8 68.048 466.016 68.368C467.232 68.688 469.216 68.848 471.968 68.848C472.16 68.848 472.256 69.04 472.256 69.424C472.256 69.808 472.16 70 471.968 70C469.6 70 467.744 69.968 466.4 69.904L457.664 69.808L449.408 69.904C448 69.968 446.016 70 443.456 70ZM499.077 71.344C495.365 71.344 492.165 70.48 489.477 68.752C486.853 66.96 484.869 64.592 483.525 61.648C482.181 58.704 481.509 55.472 481.509 51.952C481.509 47.984 482.341 44.464 484.005 41.392C485.669 38.32 487.973 35.952 490.917 34.288C493.925 32.56 497.285 31.696 500.997 31.696C506.629 31.696 511.013 33.488 514.149 37.072C517.285 40.656 518.853 45.296 518.853 50.992C518.853 55.28 517.925 58.96 516.069 62.032C514.213 65.104 511.781 67.44 508.773 69.04C505.765 70.576 502.533 71.344 499.077 71.344ZM502.245 68.944C504.549 68.944 506.277 67.728 507.429 65.296C508.581 62.8 509.157 59.376 509.157 55.024C509.157 51.312 508.645 47.856 507.621 44.656C506.661 41.392 505.317 38.8 503.589 36.88C501.861 34.96 499.973 34 497.925 34C495.813 34 494.149 35.12 492.933 37.36C491.717 39.6 491.109 42.928 491.109 47.344C491.109 51.184 491.621 54.768 492.645 58.096C493.669 61.36 495.013 63.984 496.677 65.968C498.405 67.952 500.261 68.944 502.245 68.944ZM569.592 62.32C569.656 62.256 569.752 62.224 569.88 62.224C570.136 62.224 570.36 62.352 570.552 62.608C570.808 62.8 570.84 62.992 570.648 63.184C568.664 65.936 566.776 67.92 564.984 69.136C563.256 70.288 561.4 70.864 559.416 70.864C557.176 70.864 555.544 70.192 554.52 68.848C553.496 67.44 552.952 65.36 552.888 62.608V54.448C551.544 59.824 549.56 63.984 546.936 66.928C544.376 69.808 541.304 71.248 537.72 71.248C534.648 71.248 532.312 70.192 530.712 68.08C529.176 65.968 528.44 62.8 528.504 58.576L528.888 41.488C528.952 38.48 528.184 36.976 526.584 36.976C525.944 36.976 525.272 37.232 524.568 37.744C523.928 38.256 523 39.12 521.784 40.336C521.656 40.464 521.56 40.528 521.496 40.528C521.24 40.528 521.016 40.432 520.824 40.24C520.632 39.984 520.568 39.76 520.632 39.568C522.616 36.944 524.376 35.056 525.912 33.904C527.512 32.688 529.272 32.08 531.192 32.08C533.368 32.08 535.032 32.848 536.184 34.384C537.336 35.92 537.848 38.288 537.72 41.488L537.432 56.752C537.368 62.768 538.872 65.776 541.944 65.776C543.864 65.776 545.624 64.72 547.224 62.608C548.888 60.432 550.232 57.232 551.256 53.008C552.28 48.784 552.856 43.76 552.984 37.936V34.096C552.984 33.52 553.464 33.072 554.424 32.752C555.384 32.368 556.792 32.176 558.648 32.176C560.824 32.176 562.008 32.432 562.2 32.944V35.152C562.072 36.944 562.008 38.576 562.008 40.048L561.912 61.456C561.912 64.592 562.712 66.16 564.312 66.16C565.72 66.16 567.48 64.88 569.592 62.32ZM590.493 71.248C586.461 71.248 583.069 70.256 580.317 68.272C577.629 66.288 575.645 63.728 574.365 60.592C573.085 57.392 572.541 54.064 572.733 50.608C572.797 47.216 573.789 44.08 575.709 41.2C577.629 38.256 580.125 35.952 583.197 34.288C586.269 32.56 589.405 31.696 592.605 31.696C595.357 31.696 597.853 32.24 600.093 33.328C602.333 34.416 603.581 36.016 603.837 38.128C603.965 39.472 603.613 40.528 602.781 41.296C602.013 42.064 600.797 42.448 599.133 42.448C597.405 42.448 596.125 42.064 595.293 41.296C594.461 40.528 593.725 39.472 593.085 38.128C592.445 36.912 591.805 35.984 591.165 35.344C590.525 34.704 589.629 34.384 588.477 34.384C586.429 34.384 584.797 35.472 583.581 37.648C582.429 39.824 581.853 42.736 581.853 46.384C581.853 52.272 583.037 57.104 585.405 60.88C587.837 64.656 591.357 66.544 595.965 66.544C599.293 66.544 601.917 65.776 603.837 64.24H603.933C604.125 64.24 604.317 64.368 604.509 64.624C604.765 64.816 604.829 65.008 604.701 65.2C602.717 67.44 600.541 69.008 598.173 69.904C595.805 70.8 593.245 71.248 590.493 71.248ZM652.419 62.512C652.483 62.448 652.579 62.416 652.707 62.416C652.963 62.416 653.155 62.544 653.283 62.8C653.475 62.992 653.539 63.184 653.475 63.376C651.491 66 649.699 67.92 648.099 69.136C646.563 70.288 644.803 70.864 642.819 70.864C640.579 70.864 638.915 70.096 637.827 68.56C636.803 66.96 636.323 64.592 636.387 61.456L636.483 46.192C636.483 40.176 635.011 37.168 632.067 37.168C630.019 37.168 628.163 38.352 626.499 40.72C624.835 43.024 623.491 46.48 622.467 51.088C621.507 55.632 620.995 61.072 620.931 67.408V68.848C620.931 69.424 620.451 69.872 619.491 70.192C618.531 70.576 617.123 70.768 615.267 70.768C613.027 70.768 611.843 70.512 611.715 70V67.792C611.843 66 611.907 64.368 611.907 62.896L612.291 13.456C612.355 11.408 612.131 9.904 611.619 8.944C611.171 7.984 610.403 7.504 609.315 7.504C608.291 7.504 606.883 7.952 605.091 8.848H604.995C604.739 8.848 604.547 8.688 604.419 8.368C604.227 8.048 604.259 7.824 604.515 7.696L619.683 0.399998H619.875C620.131 0.399998 620.387 0.495996 620.643 0.687994C620.899 0.879995 621.027 1.04 621.027 1.168L620.931 48.688C622.275 43.248 624.259 39.056 626.883 36.112C629.507 33.168 632.611 31.696 636.195 31.696C642.403 31.696 645.507 35.92 645.507 44.368L645.315 61.456C645.187 64.464 645.923 65.968 647.523 65.968C648.739 65.968 650.371 64.816 652.419 62.512Z" fill="url(#paint0_radial_6479_2888)"/>
<path d="M64.5319 68.848C64.7239 68.848 64.8199 69.04 64.8199 69.424C64.8199 69.808 64.7239 70 64.5319 70C63.3799 70 61.5879 69.936 59.1559 69.808C56.4679 69.68 54.3239 69.616 52.7239 69.616C51.0599 69.616 49.0119 69.68 46.5799 69.808C44.2759 69.936 42.5799 70 41.4919 70C41.2359 70 41.1079 69.808 41.1079 69.424C41.1079 69.04 41.2359 68.848 41.4919 68.848C43.4119 68.848 44.7879 68.656 45.6199 68.272C46.4519 67.824 46.8679 67.056 46.8679 65.968C46.8679 65.008 46.4839 63.664 45.7159 61.936L37.2679 41.68H22.0999L15.5719 57.616C14.5479 60.048 14.0359 62 14.0359 63.472C14.0359 65.328 14.7719 66.704 16.2439 67.6C17.7159 68.432 19.9879 68.848 23.0599 68.848C23.3159 68.848 23.4439 69.04 23.4439 69.424C23.4439 69.808 23.2839 70 22.9639 70C22.1319 70 20.3079 69.936 17.4919 69.808C14.2919 69.68 11.8599 69.616 10.1959 69.616C8.65988 69.616 6.86788 69.68 4.81988 69.808C3.02788 69.936 1.55588 70 0.403875 70C0.147875 70 0.019875 69.808 0.019875 69.424C0.019875 69.04 0.147875 68.848 0.403875 68.848C2.32388 68.848 4.40388 67.824 6.64388 65.776C8.94788 63.664 10.9319 60.72 12.5959 56.944L32.8519 9.136C32.8519 8.944 33.0759 8.848 33.5239 8.848C34.0999 8.848 34.5159 8.976 34.7719 9.232L56.2759 61.936C57.2359 64.176 57.9399 65.68 58.3879 66.448C58.8999 67.216 59.6039 67.824 60.4999 68.272C61.3959 68.656 62.7399 68.848 64.5319 68.848ZM23.2519 38.992H36.2119L29.6839 23.344L23.2519 38.992ZM90.9004 70C90.7084 70 90.6124 69.808 90.6124 69.424C90.6124 69.04 90.7084 68.848 90.9004 68.848C92.8844 68.848 94.3244 68.688 95.2204 68.368C96.1164 68.048 96.7244 67.44 97.0444 66.544C97.3644 65.584 97.5244 64.144 97.5244 62.224V17.776C97.5244 15.856 97.3324 14.448 96.9484 13.552C96.6284 12.656 95.9884 12.048 95.0284 11.728C94.1324 11.344 92.7564 11.152 90.9004 11.152C90.7084 11.152 90.6124 10.96 90.6124 10.576C90.6124 10.192 90.7084 10 90.9004 10L95.6044 10.096C98.2924 10.224 100.532 10.288 102.324 10.288C104.82 10.288 107.604 10.16 110.676 9.904C112.852 9.776 114.292 9.712 114.996 9.712C121.78 9.712 127.284 11.088 131.508 13.84C135.796 16.592 137.94 20.56 137.94 25.744C137.94 29.968 136.788 33.52 134.484 36.4C132.18 39.28 129.3 41.424 125.844 42.832C122.388 44.176 118.932 44.848 115.476 44.848C113.556 44.848 112.052 44.688 110.964 44.368C110.836 44.368 110.772 44.144 110.772 43.696C110.772 43.376 110.804 43.088 110.868 42.832C110.996 42.512 111.124 42.384 111.252 42.448C112.084 42.704 113.108 42.832 114.324 42.832C117.908 42.832 120.852 41.584 123.156 39.088C125.524 36.528 126.708 32.72 126.708 27.664C126.708 24.4 126.068 21.584 124.788 19.216C123.508 16.784 121.844 14.928 119.796 13.648C117.812 12.368 115.7 11.728 113.46 11.728C111.22 11.728 109.716 12.144 108.948 12.976C108.244 13.744 107.86 15.408 107.796 17.968L107.892 62.224C107.892 64.144 108.052 65.552 108.372 66.448C108.756 67.344 109.364 67.984 110.196 68.368C111.092 68.688 112.468 68.848 114.324 68.848C114.516 68.848 114.612 69.04 114.612 69.424C114.676 69.808 114.58 70 114.324 70C112.276 70 110.676 69.968 109.524 69.904L102.612 69.808L95.7964 69.904C94.5804 69.968 92.9484 70 90.9004 70ZM174.015 63.952C174.207 63.952 174.399 64.048 174.591 64.24C174.783 64.432 174.815 64.592 174.687 64.72C172.639 66.96 170.303 68.592 167.679 69.616C165.055 70.64 162.367 71.152 159.615 71.152C155.775 71.152 152.511 70.288 149.823 68.56C147.135 66.832 145.119 64.56 143.775 61.744C142.431 58.928 141.759 55.92 141.759 52.72C141.759 49.264 142.655 45.936 144.447 42.736C146.239 39.472 148.767 36.816 152.031 34.768C155.359 32.72 159.167 31.696 163.455 31.696C166.335 31.696 168.575 32.144 170.175 33.04C171.839 33.936 172.767 35.216 172.959 36.88C173.215 39.696 171.231 42.32 167.007 44.752C162.783 47.184 157.567 48.944 151.359 50.032C151.615 54.96 152.895 59.024 155.199 62.224C157.567 65.36 160.767 66.928 164.799 66.928C166.335 66.928 167.903 66.704 169.503 66.256C171.103 65.744 172.543 64.976 173.823 63.952H174.015ZM158.463 34.288C156.223 34.288 154.463 35.632 153.183 38.32C151.967 40.944 151.359 44.336 151.359 48.496C159.103 46.704 162.847 43.504 162.591 38.896C162.591 37.488 162.207 36.368 161.439 35.536C160.735 34.704 159.743 34.288 158.463 34.288ZM210.482 36.88C210.482 37.968 209.97 39.152 208.946 40.432C207.922 41.648 206.802 42.256 205.586 42.256C204.946 42.256 204.37 42.16 203.858 41.968C203.41 41.712 202.834 41.392 202.13 41.008C201.682 40.752 201.234 40.528 200.786 40.336C200.402 40.144 200.018 40.048 199.634 40.048C198.418 40.048 197.266 41.616 196.178 44.752C195.154 47.824 194.322 51.6 193.682 56.08C193.106 60.496 192.786 64.496 192.722 68.08V68.848C192.722 70.128 190.898 70.768 187.25 70.768C185.01 70.768 183.826 70.512 183.698 70V67.792C183.826 66 183.89 64.368 183.89 62.896L183.986 41.488C183.986 38.352 183.154 36.784 181.49 36.784C180.018 36.784 178.29 38.064 176.306 40.624C176.178 40.752 176.05 40.816 175.922 40.816C175.666 40.816 175.442 40.72 175.25 40.528C175.058 40.272 175.058 40.016 175.25 39.76C177.17 37.072 179.026 35.12 180.818 33.904C182.61 32.688 184.498 32.08 186.482 32.08C188.722 32.08 190.322 32.784 191.282 34.192C192.242 35.536 192.786 37.584 192.914 40.336L192.818 50.608C193.65 44.912 194.898 40.4 196.562 37.072C198.226 33.68 200.402 31.984 203.09 31.984C204.69 31.984 206.322 32.496 207.986 33.52C209.65 34.48 210.482 35.6 210.482 36.88ZM226.889 71.056C223.753 71.056 220.937 70.384 218.441 69.04C216.009 67.696 214.761 66.064 214.697 64.144C214.697 62.864 215.081 61.904 215.849 61.264C216.617 60.56 217.609 60.208 218.825 60.208C219.977 60.208 220.969 60.528 221.801 61.168C222.633 61.744 223.593 62.64 224.681 63.856C225.961 65.2 227.049 66.192 227.945 66.832C228.905 67.472 230.057 67.792 231.401 67.792C232.617 67.792 233.449 67.536 233.897 67.024C234.409 66.448 234.665 65.552 234.665 64.336C234.665 62.032 233.865 60.112 232.265 58.576C230.665 56.976 228.297 55.184 225.161 53.2C222.985 51.792 221.289 50.608 220.073 49.648C218.857 48.688 217.801 47.568 216.905 46.288C216.073 45.008 215.657 43.536 215.657 41.872C215.657 40.272 216.233 38.704 217.385 37.168C218.537 35.632 220.137 34.384 222.185 33.424C224.297 32.464 226.697 31.984 229.385 31.984C232.777 31.984 235.529 32.528 237.641 33.616C239.753 34.64 240.841 36.016 240.905 37.744C241.033 38.96 240.681 39.92 239.849 40.624C239.081 41.328 238.153 41.68 237.065 41.68C235.529 41.68 234.345 41.392 233.513 40.816C232.745 40.24 231.945 39.344 231.113 38.128C230.281 36.976 229.481 36.112 228.713 35.536C228.009 34.96 226.953 34.672 225.545 34.672C224.393 34.672 223.561 34.96 223.049 35.536C222.537 36.112 222.281 36.816 222.281 37.648C222.281 39.632 223.049 41.36 224.585 42.832C226.121 44.24 228.393 45.904 231.401 47.824C234.729 49.936 237.225 51.856 238.889 53.584C240.553 55.248 241.385 57.264 241.385 59.632C241.321 61.36 240.713 63.12 239.561 64.912C238.409 66.64 236.745 68.112 234.569 69.328C232.393 70.48 229.833 71.056 226.889 71.056ZM264.515 71.344C260.803 71.344 257.603 70.48 254.915 68.752C252.291 66.96 250.307 64.592 248.963 61.648C247.619 58.704 246.947 55.472 246.947 51.952C246.947 47.984 247.779 44.464 249.443 41.392C251.107 38.32 253.411 35.952 256.355 34.288C259.363 32.56 262.723 31.696 266.435 31.696C272.067 31.696 276.451 33.488 279.587 37.072C282.723 40.656 284.291 45.296 284.291 50.992C284.291 55.28 283.363 58.96 281.507 62.032C279.651 65.104 277.219 67.44 274.211 69.04C271.203 70.576 267.971 71.344 264.515 71.344ZM267.683 68.944C269.987 68.944 271.715 67.728 272.867 65.296C274.019 62.8 274.595 59.376 274.595 55.024C274.595 51.312 274.083 47.856 273.059 44.656C272.099 41.392 270.755 38.8 269.027 36.88C267.299 34.96 265.411 34 263.363 34C261.251 34 259.587 35.12 258.371 37.36C257.155 39.6 256.547 42.928 256.547 47.344C256.547 51.184 257.059 54.768 258.083 58.096C259.107 61.36 260.451 63.984 262.115 65.968C263.843 67.952 265.699 68.944 267.683 68.944ZM335.413 62.416C335.669 62.416 335.893 62.544 336.085 62.8C336.277 62.992 336.309 63.184 336.181 63.376C334.261 66 332.501 67.92 330.901 69.136C329.301 70.288 327.509 70.864 325.525 70.864C323.221 70.864 321.557 70.096 320.533 68.56C319.509 66.96 319.029 64.592 319.093 61.456L319.285 46.192C319.285 40.176 317.749 37.168 314.677 37.168C312.629 37.168 310.773 38.32 309.109 40.624C307.445 42.928 306.101 46.352 305.077 50.896C304.117 55.376 303.605 60.72 303.541 66.928V68.848C303.541 69.424 303.061 69.872 302.101 70.192C301.205 70.576 299.829 70.768 297.973 70.768C295.733 70.768 294.549 70.512 294.421 70V67.792C294.549 66 294.613 64.368 294.613 62.896L294.805 41.488C294.805 38.352 293.973 36.784 292.309 36.784C290.901 36.784 289.141 38.064 287.029 40.624C286.965 40.688 286.869 40.72 286.741 40.72C286.485 40.72 286.261 40.624 286.069 40.432C285.877 40.176 285.845 39.952 285.973 39.76C287.893 37.072 289.749 35.12 291.541 33.904C293.333 32.688 295.221 32.08 297.205 32.08C299.445 32.08 301.045 32.784 302.005 34.192C303.029 35.536 303.573 37.584 303.637 40.336V49.168C304.981 43.6 306.965 39.312 309.589 36.304C312.213 33.232 315.317 31.696 318.901 31.696C325.045 31.696 328.117 35.92 328.117 44.368L328.021 61.456C327.957 64.464 328.693 65.968 330.229 65.968C330.933 65.968 331.637 65.68 332.341 65.104C333.109 64.528 334.005 63.696 335.029 62.608L335.413 62.416ZM380.892 62.608C380.956 62.544 381.052 62.512 381.18 62.512C381.372 62.512 381.564 62.64 381.756 62.896C381.948 63.088 382.012 63.248 381.948 63.376C380.156 65.872 378.428 67.76 376.764 69.04C375.1 70.256 373.404 70.864 371.676 70.864C369.372 70.864 367.644 70.096 366.492 68.56C365.34 67.024 364.764 64.656 364.764 61.456V54.928C363.036 60.048 360.604 64.048 357.468 66.928C354.332 69.808 351.004 71.248 347.484 71.248C344.86 71.248 342.716 70.384 341.052 68.656C339.452 66.864 338.652 64.144 338.652 60.496C338.652 56.272 339.804 51.92 342.108 47.44C344.412 42.896 347.356 39.152 350.94 36.208C354.588 33.2 358.3 31.696 362.076 31.696C363.42 31.696 364.796 31.92 366.204 32.368C367.676 32.752 368.988 33.36 370.14 34.192C371.356 33.232 372.252 32.144 372.828 30.928C372.956 30.8 373.084 30.736 373.212 30.736C373.404 30.736 373.596 30.8 373.788 30.928C374.044 31.056 374.14 31.152 374.076 31.216L373.884 61.456C373.82 62.928 373.948 64.048 374.268 64.816C374.652 65.584 375.196 65.968 375.9 65.968C376.54 65.968 377.308 65.68 378.204 65.104C379.1 64.464 379.996 63.632 380.892 62.608ZM352.956 64.24C355.068 64.24 357.02 63.216 358.812 61.168C360.668 59.12 362.108 56.624 363.132 53.68C364.22 50.672 364.764 47.92 364.764 45.424C364.764 42.608 364.092 40.4 362.748 38.8C361.468 37.2 359.708 36.4 357.468 36.4C354.204 36.4 351.644 38 349.788 41.2C347.932 44.336 347.004 48.432 347.004 53.488C347.068 57.264 347.644 60.016 348.732 61.744C349.82 63.408 351.228 64.24 352.956 64.24ZM394.386 70.864C392.082 70.864 390.418 70.096 389.394 68.56C388.37 66.96 387.89 64.592 387.954 61.456L388.242 13.456C388.306 11.408 388.114 9.936 387.666 9.04C387.218 8.08 386.45 7.6 385.362 7.6C384.21 7.6 382.802 8.016 381.138 8.848H380.946C380.626 8.848 380.434 8.688 380.37 8.368C380.242 7.984 380.306 7.76 380.562 7.696L395.634 0.399998H395.826C396.082 0.399998 396.338 0.495996 396.594 0.687994C396.85 0.879995 396.978 1.04 396.978 1.168L396.882 61.456C396.754 64.464 397.49 65.968 399.09 65.968C399.73 65.968 400.434 65.68 401.202 65.104C402.034 64.528 402.962 63.696 403.986 62.608C404.114 62.48 404.242 62.416 404.37 62.416C404.562 62.416 404.722 62.544 404.85 62.8C405.042 62.992 405.106 63.184 405.042 63.376C403.122 66 401.362 67.92 399.762 69.136C398.162 70.288 396.37 70.864 394.386 70.864ZM443.456 70C443.264 70 443.168 69.808 443.168 69.424C443.168 69.04 443.232 68.848 443.36 68.848C446.048 68.848 448 68.688 449.216 68.368C450.496 68.048 451.36 67.44 451.808 66.544C452.256 65.584 452.48 64.144 452.48 62.224V17.776C452.544 15.536 452.256 14.064 451.616 13.36C450.976 12.592 449.76 12.208 447.968 12.208H446.72C444.544 12.208 442.4 12.912 440.288 14.32C438.176 15.664 436.384 17.488 434.912 19.792C433.44 22.032 432.544 24.496 432.224 27.184C432.224 27.312 432.064 27.376 431.744 27.376C431.552 27.376 431.36 27.344 431.168 27.28C431.04 27.152 431.008 27.056 431.072 26.992C431.392 24.56 431.872 18.192 432.512 7.888C432.512 7.696 432.672 7.6 432.992 7.6C433.184 7.6 433.344 7.632 433.472 7.696C433.664 7.76 433.76 7.856 433.76 7.984C433.76 9.328 435.2 10 438.08 10C443.264 10.192 449.76 10.288 457.568 10.288C461.088 10.288 465.024 10.224 469.376 10.096L476.096 10C478.208 10 479.744 9.84 480.704 9.51999C481.664 9.2 482.272 8.56 482.528 7.6C482.656 7.408 482.88 7.344 483.2 7.408C483.584 7.408 483.744 7.536 483.68 7.792C483.488 10.608 483.296 14.16 483.104 18.448C482.912 22.672 482.848 25.52 482.912 26.992C482.912 27.184 482.72 27.28 482.336 27.28C481.824 27.28 481.568 27.152 481.568 26.896C481.568 24.272 480.96 21.84 479.744 19.6C478.592 17.36 476.96 15.568 474.848 14.224C472.8 12.88 470.56 12.208 468.128 12.208H466.88C465.6 12.208 464.672 12.368 464.096 12.688C463.584 13.008 463.264 13.552 463.136 14.32C463.008 15.024 462.912 16.24 462.848 17.968L462.944 62.224C462.944 64.208 463.136 65.648 463.52 66.544C463.968 67.44 464.8 68.048 466.016 68.368C467.232 68.688 469.216 68.848 471.968 68.848C472.16 68.848 472.256 69.04 472.256 69.424C472.256 69.808 472.16 70 471.968 70C469.6 70 467.744 69.968 466.4 69.904L457.664 69.808L449.408 69.904C448 69.968 446.016 70 443.456 70ZM499.077 71.344C495.365 71.344 492.165 70.48 489.477 68.752C486.853 66.96 484.869 64.592 483.525 61.648C482.181 58.704 481.509 55.472 481.509 51.952C481.509 47.984 482.341 44.464 484.005 41.392C485.669 38.32 487.973 35.952 490.917 34.288C493.925 32.56 497.285 31.696 500.997 31.696C506.629 31.696 511.013 33.488 514.149 37.072C517.285 40.656 518.853 45.296 518.853 50.992C518.853 55.28 517.925 58.96 516.069 62.032C514.213 65.104 511.781 67.44 508.773 69.04C505.765 70.576 502.533 71.344 499.077 71.344ZM502.245 68.944C504.549 68.944 506.277 67.728 507.429 65.296C508.581 62.8 509.157 59.376 509.157 55.024C509.157 51.312 508.645 47.856 507.621 44.656C506.661 41.392 505.317 38.8 503.589 36.88C501.861 34.96 499.973 34 497.925 34C495.813 34 494.149 35.12 492.933 37.36C491.717 39.6 491.109 42.928 491.109 47.344C491.109 51.184 491.621 54.768 492.645 58.096C493.669 61.36 495.013 63.984 496.677 65.968C498.405 67.952 500.261 68.944 502.245 68.944ZM569.592 62.32C569.656 62.256 569.752 62.224 569.88 62.224C570.136 62.224 570.36 62.352 570.552 62.608C570.808 62.8 570.84 62.992 570.648 63.184C568.664 65.936 566.776 67.92 564.984 69.136C563.256 70.288 561.4 70.864 559.416 70.864C557.176 70.864 555.544 70.192 554.52 68.848C553.496 67.44 552.952 65.36 552.888 62.608V54.448C551.544 59.824 549.56 63.984 546.936 66.928C544.376 69.808 541.304 71.248 537.72 71.248C534.648 71.248 532.312 70.192 530.712 68.08C529.176 65.968 528.44 62.8 528.504 58.576L528.888 41.488C528.952 38.48 528.184 36.976 526.584 36.976C525.944 36.976 525.272 37.232 524.568 37.744C523.928 38.256 523 39.12 521.784 40.336C521.656 40.464 521.56 40.528 521.496 40.528C521.24 40.528 521.016 40.432 520.824 40.24C520.632 39.984 520.568 39.76 520.632 39.568C522.616 36.944 524.376 35.056 525.912 33.904C527.512 32.688 529.272 32.08 531.192 32.08C533.368 32.08 535.032 32.848 536.184 34.384C537.336 35.92 537.848 38.288 537.72 41.488L537.432 56.752C537.368 62.768 538.872 65.776 541.944 65.776C543.864 65.776 545.624 64.72 547.224 62.608C548.888 60.432 550.232 57.232 551.256 53.008C552.28 48.784 552.856 43.76 552.984 37.936V34.096C552.984 33.52 553.464 33.072 554.424 32.752C555.384 32.368 556.792 32.176 558.648 32.176C560.824 32.176 562.008 32.432 562.2 32.944V35.152C562.072 36.944 562.008 38.576 562.008 40.048L561.912 61.456C561.912 64.592 562.712 66.16 564.312 66.16C565.72 66.16 567.48 64.88 569.592 62.32ZM590.493 71.248C586.461 71.248 583.069 70.256 580.317 68.272C577.629 66.288 575.645 63.728 574.365 60.592C573.085 57.392 572.541 54.064 572.733 50.608C572.797 47.216 573.789 44.08 575.709 41.2C577.629 38.256 580.125 35.952 583.197 34.288C586.269 32.56 589.405 31.696 592.605 31.696C595.357 31.696 597.853 32.24 600.093 33.328C602.333 34.416 603.581 36.016 603.837 38.128C603.965 39.472 603.613 40.528 602.781 41.296C602.013 42.064 600.797 42.448 599.133 42.448C597.405 42.448 596.125 42.064 595.293 41.296C594.461 40.528 593.725 39.472 593.085 38.128C592.445 36.912 591.805 35.984 591.165 35.344C590.525 34.704 589.629 34.384 588.477 34.384C586.429 34.384 584.797 35.472 583.581 37.648C582.429 39.824 581.853 42.736 581.853 46.384C581.853 52.272 583.037 57.104 585.405 60.88C587.837 64.656 591.357 66.544 595.965 66.544C599.293 66.544 601.917 65.776 603.837 64.24H603.933C604.125 64.24 604.317 64.368 604.509 64.624C604.765 64.816 604.829 65.008 604.701 65.2C602.717 67.44 600.541 69.008 598.173 69.904C595.805 70.8 593.245 71.248 590.493 71.248ZM652.419 62.512C652.483 62.448 652.579 62.416 652.707 62.416C652.963 62.416 653.155 62.544 653.283 62.8C653.475 62.992 653.539 63.184 653.475 63.376C651.491 66 649.699 67.92 648.099 69.136C646.563 70.288 644.803 70.864 642.819 70.864C640.579 70.864 638.915 70.096 637.827 68.56C636.803 66.96 636.323 64.592 636.387 61.456L636.483 46.192C636.483 40.176 635.011 37.168 632.067 37.168C630.019 37.168 628.163 38.352 626.499 40.72C624.835 43.024 623.491 46.48 622.467 51.088C621.507 55.632 620.995 61.072 620.931 67.408V68.848C620.931 69.424 620.451 69.872 619.491 70.192C618.531 70.576 617.123 70.768 615.267 70.768C613.027 70.768 611.843 70.512 611.715 70V67.792C611.843 66 611.907 64.368 611.907 62.896L612.291 13.456C612.355 11.408 612.131 9.904 611.619 8.944C611.171 7.984 610.403 7.504 609.315 7.504C608.291 7.504 606.883 7.952 605.091 8.848H604.995C604.739 8.848 604.547 8.688 604.419 8.368C604.227 8.048 604.259 7.824 604.515 7.696L619.683 0.399998H619.875C620.131 0.399998 620.387 0.495996 620.643 0.687994C620.899 0.879995 621.027 1.04 621.027 1.168L620.931 48.688C622.275 43.248 624.259 39.056 626.883 36.112C629.507 33.168 632.611 31.696 636.195 31.696C642.403 31.696 645.507 35.92 645.507 44.368L645.315 61.456C645.187 64.464 645.923 65.968 647.523 65.968C648.739 65.968 650.371 64.816 652.419 62.512Z" fill="#FFFBA7" fill-opacity="0.18"/>
<defs>
<radialGradient id="paint0_radial_6479_2888" cx="0" cy="0" r="1" gradientUnits="userSpaceOnUse" gradientTransform="translate(327.729 31.7758) rotate(-90) scale(64.8114 364.285)">
<stop stop-color="#E1C595"/>
<stop offset="1" stop-color="#A96C2D"/>
</radialGradient>
</defs>
</svg>
