<svg width="418" height="49" viewBox="0 0 418 49" fill="none" xmlns="http://www.w3.org/2000/svg">
<path d="M34.2878 34.424C34.3838 34.424 34.4318 34.52 34.4318 34.712C34.4318 34.904 34.3838 35 34.2878 35L29.5838 34.952L25.9358 35C25.5838 35 25.3598 34.952 25.2638 34.856C25.1998 34.76 25.1678 34.504 25.1678 34.088V31.976C23.6318 33.256 22.0798 34.184 20.5118 34.76C18.9758 35.304 17.2958 35.576 15.4718 35.576C13.1998 35.576 11.1678 35.192 9.37581 34.424C7.58381 33.656 6.17581 32.552 5.15181 31.112C4.12781 29.672 3.61581 27.992 3.61581 26.072V8.888C3.61581 7.96 3.51981 7.272 3.32781 6.824C3.16781 6.344 2.86381 6.024 2.41581 5.864C1.96781 5.672 1.29581 5.576 0.399813 5.576C0.303813 5.576 0.255813 5.48 0.255813 5.288C0.255813 5.096 0.303813 5 0.399813 5L2.75181 5.048C4.09581 5.112 5.23181 5.144 6.15981 5.144C6.99181 5.144 8.14381 5.112 9.61581 5.048L12.0158 5C12.1438 5 12.2078 5.096 12.2078 5.288C12.2398 5.48 12.2078 5.576 12.1118 5.576C11.1518 5.576 10.4318 5.672 9.95181 5.864C9.50381 6.056 9.19981 6.376 9.03981 6.824C8.91181 7.272 8.83181 7.992 8.79981 8.984V24.392C8.76781 27.368 9.50381 29.688 11.0078 31.352C12.5118 32.984 14.6078 33.8 17.2958 33.8C18.6718 33.8 19.9838 33.56 21.2318 33.08C22.4798 32.568 23.7918 31.736 25.1678 30.584L25.1198 8.984C25.1518 7.608 24.9598 6.696 24.5438 6.248C24.1278 5.8 23.2638 5.576 21.9518 5.576C21.8558 5.576 21.8078 5.48 21.8078 5.288C21.8078 5.096 21.8398 5 21.9038 5L24.3038 5.048C25.7118 5.112 26.8638 5.144 27.7598 5.144C28.5598 5.144 29.6958 5.112 31.1678 5.048L33.5678 5C33.6958 5 33.7598 5.096 33.7598 5.288C33.7918 5.48 33.7598 5.576 33.6638 5.576C32.7038 5.576 31.9838 5.672 31.5038 5.864C31.0558 6.024 30.7518 6.328 30.5918 6.776C30.4318 7.224 30.3518 7.928 30.3518 8.888V31.112C30.3518 32.072 30.4478 32.792 30.6398 33.272C30.8318 33.72 31.1998 34.024 31.7438 34.184C32.2878 34.344 33.1358 34.424 34.2878 34.424ZM42.8026 35.432C41.6506 35.432 40.8186 35.048 40.3066 34.28C39.7946 33.48 39.5546 32.296 39.5866 30.728L39.7306 6.728C39.7626 5.704 39.6666 4.968 39.4426 4.52C39.2186 4.04 38.8346 3.8 38.2906 3.8C37.7146 3.8 37.0106 4.008 36.1786 4.424H36.0826C35.9226 4.424 35.8266 4.344 35.7946 4.184C35.7306 3.992 35.7626 3.88 35.8906 3.848L43.4266 0.199999H43.5226C43.6506 0.199999 43.7786 0.247998 43.9066 0.343997C44.0346 0.439998 44.0986 0.519999 44.0986 0.584L44.0506 30.728C43.9866 32.232 44.3546 32.984 45.1546 32.984C45.4746 32.984 45.8266 32.84 46.2106 32.552C46.6266 32.264 47.0906 31.848 47.6026 31.304C47.6666 31.24 47.7306 31.208 47.7946 31.208C47.8906 31.208 47.9706 31.272 48.0346 31.4C48.1306 31.496 48.1626 31.592 48.1306 31.688C47.1706 33 46.2906 33.96 45.4906 34.568C44.6906 35.144 43.7946 35.432 42.8026 35.432ZM55.9433 35.432C54.7913 35.432 53.9433 35.048 53.3993 34.28C52.8873 33.48 52.6633 32.296 52.7273 30.728L52.9193 20.744C52.9513 19.176 52.5353 18.392 51.6713 18.392C50.9673 18.392 50.0873 19.032 49.0313 20.312C48.9993 20.344 48.9513 20.36 48.8873 20.36C48.7913 20.36 48.6953 20.312 48.5993 20.216C48.4713 20.088 48.4393 19.976 48.5033 19.88C49.4633 18.536 50.3913 17.56 51.2873 16.952C52.2153 16.344 53.1593 16.04 54.1193 16.04C56.2953 16.04 57.3833 17.416 57.3833 20.168L57.1913 30.728C57.1273 32.232 57.4953 32.984 58.2953 32.984C58.6153 32.984 58.9353 32.856 59.2553 32.6C59.6073 32.344 60.0873 31.912 60.6953 31.304C60.7593 31.24 60.8233 31.208 60.8873 31.208C61.0153 31.208 61.1113 31.272 61.1753 31.4C61.2713 31.496 61.3033 31.592 61.2713 31.688C60.3113 33 59.4313 33.96 58.6313 34.568C57.8313 35.144 56.9353 35.432 55.9433 35.432ZM54.6473 11.24C53.7193 11.24 52.9993 10.984 52.4873 10.472C51.9753 9.96 51.7193 9.24 51.7193 8.312C51.7193 7.48 51.9753 6.824 52.4873 6.344C53.0313 5.832 53.7513 5.576 54.6473 5.576C55.5433 5.576 56.2313 5.816 56.7113 6.296C57.1913 6.776 57.4313 7.448 57.4313 8.312C57.4313 9.24 57.1913 9.96 56.7113 10.472C56.2313 10.984 55.5433 11.24 54.6473 11.24ZM84.0121 31.304C84.1401 31.304 84.2361 31.368 84.3001 31.496C84.3961 31.624 84.4121 31.72 84.3481 31.784C83.3881 33.032 82.5241 33.96 81.7561 34.568C80.9881 35.144 80.2361 35.432 79.5001 35.432C78.5721 35.432 77.7081 35.208 76.9081 34.76C76.1401 34.28 75.2281 33.432 74.1721 32.216L70.1881 27.608C69.8361 27.224 69.5641 26.952 69.3721 26.792C69.1801 26.632 68.9561 26.536 68.7001 26.504V34.424C68.7001 34.712 68.4601 34.936 67.9801 35.096C67.5001 35.288 66.7961 35.384 65.8681 35.384C64.7481 35.384 64.1561 35.256 64.0921 35V33.896C64.1561 33 64.1881 32.184 64.1881 31.448L64.3801 6.728C64.4121 5.704 64.3161 4.968 64.0921 4.52C63.8681 4.04 63.4841 3.8 62.9401 3.8C62.3641 3.8 61.6601 4.008 60.8281 4.424H60.7321C60.6041 4.424 60.5081 4.344 60.4441 4.184C60.3481 4.024 60.3641 3.912 60.4921 3.848L68.0761 0.199999H68.1721C68.2681 0.199999 68.3801 0.247998 68.5081 0.343997C68.6681 0.407998 68.7481 0.487999 68.7481 0.584L68.7001 19.208C69.7881 18.152 70.9881 17.336 72.3001 16.76C73.6441 16.152 75.0201 15.848 76.4281 15.848C77.9321 15.848 78.9721 16.136 79.5481 16.712C80.1561 17.288 80.4921 17.96 80.5561 18.728C80.5881 19.912 79.9641 21.08 78.6841 22.232C77.4041 23.352 75.5641 24.344 73.1641 25.208L77.4841 30.104C78.3481 31.128 79.0521 31.816 79.5961 32.168C80.1721 32.488 80.7321 32.648 81.2761 32.648C82.0441 32.648 82.9241 32.216 83.9161 31.352L84.0121 31.304ZM73.4041 17.912C71.9961 17.912 70.8761 18.584 70.0441 19.928C69.2121 21.24 68.7641 22.984 68.7001 25.16V25.544C71.0041 25.032 72.6841 24.376 73.7401 23.576C74.8281 22.776 75.3721 21.784 75.3721 20.6C75.3721 19.768 75.1961 19.112 74.8441 18.632C74.5241 18.152 74.0441 17.912 73.4041 17.912ZM100.242 31.976C100.338 31.976 100.434 32.024 100.53 32.12C100.626 32.216 100.642 32.296 100.578 32.36C99.5541 33.48 98.3861 34.296 97.0741 34.808C95.7621 35.32 94.4181 35.576 93.0421 35.576C91.1221 35.576 89.4901 35.144 88.1461 34.28C86.8021 33.416 85.7941 32.28 85.1221 30.872C84.4501 29.464 84.1141 27.96 84.1141 26.36C84.1141 24.632 84.5621 22.968 85.4581 21.368C86.3541 19.736 87.6181 18.408 89.2501 17.384C90.9141 16.36 92.8181 15.848 94.9621 15.848C96.4021 15.848 97.5221 16.072 98.3221 16.52C99.1541 16.968 99.6181 17.608 99.7141 18.44C99.8421 19.848 98.8501 21.16 96.7381 22.376C94.6261 23.592 92.0181 24.472 88.9141 25.016C89.0421 27.48 89.6821 29.512 90.8341 31.112C92.0181 32.68 93.6181 33.464 95.6341 33.464C96.4021 33.464 97.1861 33.352 97.9861 33.128C98.7861 32.872 99.5061 32.488 100.146 31.976H100.242ZM92.4661 17.144C91.3461 17.144 90.4661 17.816 89.8261 19.16C89.2181 20.472 88.9141 22.168 88.9141 24.248C92.7861 23.352 94.6581 21.752 94.5301 19.448C94.5301 18.744 94.3381 18.184 93.9541 17.768C93.6021 17.352 93.1061 17.144 92.4661 17.144ZM145.469 34.424C145.533 34.424 145.565 34.52 145.565 34.712C145.565 34.904 145.533 35 145.469 35C144.573 35 143.837 34.984 143.261 34.952L139.661 34.904L136.205 34.952C135.597 34.984 134.765 35 133.709 35C133.645 35 133.597 34.904 133.565 34.712C133.565 34.52 133.613 34.424 133.709 34.424C134.701 34.424 135.405 34.344 135.821 34.184C136.269 34.024 136.557 33.72 136.685 33.272C136.813 32.824 136.877 32.104 136.877 31.112V20.072H123.053V31.112C123.053 32.072 123.133 32.776 123.293 33.224C123.485 33.672 123.805 33.992 124.253 34.184C124.701 34.344 125.405 34.424 126.365 34.424C126.461 34.424 126.509 34.52 126.509 34.712C126.509 34.904 126.461 35 126.365 35C125.309 35 124.493 34.984 123.917 34.952L120.365 34.904L117.053 34.952C116.445 34.984 115.645 35 114.653 35C114.557 35 114.509 34.904 114.509 34.712C114.509 34.52 114.557 34.424 114.653 34.424C115.613 34.424 116.301 34.344 116.717 34.184C117.165 34.024 117.453 33.72 117.581 33.272C117.741 32.824 117.821 32.104 117.821 31.112V8.888C117.853 7.544 117.661 6.664 117.245 6.248C116.829 5.8 115.965 5.576 114.653 5.576C114.557 5.576 114.509 5.48 114.509 5.288C114.509 5.096 114.557 5 114.653 5L116.957 5.048C118.365 5.112 119.501 5.144 120.365 5.144C121.229 5.144 122.397 5.112 123.869 5.048L126.317 5C126.381 5 126.413 5.096 126.413 5.288C126.413 5.48 126.381 5.576 126.317 5.576C125.357 5.576 124.653 5.672 124.205 5.864C123.757 6.056 123.453 6.392 123.293 6.872C123.165 7.32 123.085 8.024 123.053 8.984V18.728H136.829V8.984C136.829 7.608 136.621 6.696 136.205 6.248C135.821 5.8 134.973 5.576 133.661 5.576C133.597 5.576 133.549 5.48 133.517 5.288C133.517 5.096 133.565 5 133.661 5L136.013 5.048C137.421 5.112 138.573 5.144 139.469 5.144C140.333 5.144 141.469 5.112 142.877 5.048L145.325 5C145.421 5 145.469 5.096 145.469 5.288C145.469 5.48 145.421 5.576 145.325 5.576C144.365 5.576 143.661 5.672 143.213 5.864C142.797 6.024 142.509 6.328 142.349 6.776C142.189 7.224 142.077 7.928 142.013 8.888V31.112C142.013 32.04 142.109 32.744 142.301 33.224C142.525 33.672 142.877 33.992 143.357 34.184C143.837 34.344 144.541 34.424 145.469 34.424ZM157.539 35.672C155.683 35.672 154.083 35.24 152.739 34.376C151.427 33.48 150.435 32.296 149.763 30.824C149.091 29.352 148.755 27.736 148.755 25.976C148.755 23.992 149.171 22.232 150.003 20.696C150.835 19.16 151.987 17.976 153.459 17.144C154.963 16.28 156.643 15.848 158.499 15.848C161.315 15.848 163.507 16.744 165.075 18.536C166.643 20.328 167.427 22.648 167.427 25.496C167.427 27.64 166.963 29.48 166.035 31.016C165.107 32.552 163.891 33.72 162.387 34.52C160.883 35.288 159.267 35.672 157.539 35.672ZM159.123 34.472C160.275 34.472 161.139 33.864 161.715 32.648C162.291 31.4 162.579 29.688 162.579 27.512C162.579 25.656 162.323 23.928 161.811 22.328C161.331 20.696 160.659 19.4 159.795 18.44C158.931 17.48 157.987 17 156.963 17C155.907 17 155.075 17.56 154.467 18.68C153.859 19.8 153.555 21.464 153.555 23.672C153.555 25.592 153.811 27.384 154.323 29.048C154.835 30.68 155.507 31.992 156.339 32.984C157.203 33.976 158.131 34.472 159.123 34.472ZM175.084 35.432C173.932 35.432 173.1 35.048 172.588 34.28C172.076 33.48 171.836 32.296 171.868 30.728L172.012 6.728C172.044 5.704 171.948 4.968 171.724 4.52C171.5 4.04 171.116 3.8 170.572 3.8C169.996 3.8 169.292 4.008 168.46 4.424H168.364C168.204 4.424 168.108 4.344 168.076 4.184C168.012 3.992 168.044 3.88 168.172 3.848L175.708 0.199999H175.804C175.932 0.199999 176.06 0.247998 176.188 0.343997C176.316 0.439998 176.38 0.519999 176.38 0.584L176.332 30.728C176.268 32.232 176.636 32.984 177.436 32.984C177.756 32.984 178.108 32.84 178.492 32.552C178.908 32.264 179.372 31.848 179.884 31.304C179.948 31.24 180.012 31.208 180.076 31.208C180.172 31.208 180.252 31.272 180.316 31.4C180.412 31.496 180.444 31.592 180.412 31.688C179.452 33 178.572 33.96 177.772 34.568C176.972 35.144 176.076 35.432 175.084 35.432ZM188.225 35.432C187.073 35.432 186.225 35.048 185.681 34.28C185.169 33.48 184.945 32.296 185.009 30.728L185.201 20.744C185.233 19.176 184.817 18.392 183.953 18.392C183.249 18.392 182.369 19.032 181.313 20.312C181.281 20.344 181.233 20.36 181.169 20.36C181.073 20.36 180.977 20.312 180.881 20.216C180.753 20.088 180.721 19.976 180.785 19.88C181.745 18.536 182.673 17.56 183.569 16.952C184.497 16.344 185.441 16.04 186.401 16.04C188.577 16.04 189.665 17.416 189.665 20.168L189.473 30.728C189.409 32.232 189.777 32.984 190.577 32.984C190.897 32.984 191.217 32.856 191.537 32.6C191.889 32.344 192.369 31.912 192.977 31.304C193.041 31.24 193.105 31.208 193.169 31.208C193.297 31.208 193.393 31.272 193.457 31.4C193.553 31.496 193.585 31.592 193.553 31.688C192.593 33 191.713 33.96 190.913 34.568C190.113 35.144 189.217 35.432 188.225 35.432ZM186.929 11.24C186.001 11.24 185.281 10.984 184.769 10.472C184.257 9.96 184.001 9.24 184.001 8.312C184.001 7.48 184.257 6.824 184.769 6.344C185.313 5.832 186.033 5.576 186.929 5.576C187.825 5.576 188.513 5.816 188.993 6.296C189.473 6.776 189.713 7.448 189.713 8.312C189.713 9.24 189.473 9.96 188.993 10.472C188.513 10.984 187.825 11.24 186.929 11.24ZM217.013 31.208C217.141 31.208 217.237 31.272 217.301 31.4C217.397 31.496 217.413 31.592 217.349 31.688C216.389 33 215.509 33.96 214.709 34.568C213.941 35.144 213.061 35.432 212.069 35.432C210.917 35.432 210.069 35.048 209.525 34.28C209.013 33.48 208.773 32.296 208.805 30.728L208.853 27.416C207.893 29.976 206.741 31.992 205.397 33.464C204.053 34.904 202.485 35.624 200.693 35.624C199.157 35.624 197.829 35.08 196.709 33.992C195.589 32.872 195.029 31.208 195.029 29C195.029 26.76 195.605 24.632 196.757 22.616C197.909 20.568 199.381 18.936 201.173 17.72C202.997 16.472 204.853 15.848 206.741 15.848C207.541 15.848 208.261 15.96 208.901 16.184L208.997 6.728C209.029 5.704 208.933 4.968 208.709 4.52C208.485 4.04 208.101 3.8 207.557 3.8C206.981 3.8 206.277 4.008 205.445 4.424H205.397C205.269 4.424 205.157 4.344 205.061 4.184C204.997 4.024 205.013 3.912 205.109 3.848L212.693 0.199999H212.789C212.917 0.199999 213.045 0.247998 213.173 0.343997C213.301 0.439998 213.365 0.519999 213.365 0.584L213.317 30.728C213.285 31.56 213.365 32.152 213.557 32.504C213.749 32.824 214.021 32.984 214.373 32.984C214.757 32.984 215.125 32.856 215.477 32.6C215.829 32.312 216.277 31.88 216.821 31.304L217.013 31.208ZM202.661 32.264C203.781 32.264 204.773 31.816 205.637 30.92C206.533 30.024 207.253 28.92 207.797 27.608C208.341 26.296 208.693 25.016 208.853 23.768L208.901 21.656C208.709 20.568 208.165 19.72 207.269 19.112C206.405 18.504 205.397 18.2 204.245 18.2C202.581 18.2 201.317 18.872 200.453 20.216C199.589 21.56 199.157 23.416 199.157 25.784C199.157 30.104 200.325 32.264 202.661 32.264ZM239.399 31.304C239.431 31.272 239.479 31.256 239.543 31.256C239.639 31.256 239.735 31.32 239.831 31.448C239.927 31.544 239.959 31.624 239.927 31.688C239.031 32.936 238.167 33.88 237.335 34.52C236.503 35.128 235.655 35.432 234.791 35.432C233.639 35.432 232.775 35.048 232.199 34.28C231.623 33.512 231.335 32.328 231.335 30.728V27.464C230.471 30.024 229.255 32.024 227.687 33.464C226.119 34.904 224.455 35.624 222.695 35.624C221.383 35.624 220.311 35.192 219.479 34.328C218.679 33.432 218.279 32.072 218.279 30.248C218.279 28.136 218.855 25.96 220.007 23.72C221.159 21.448 222.631 19.576 224.423 18.104C226.247 16.6 228.103 15.848 229.991 15.848C230.663 15.848 231.351 15.96 232.055 16.184C232.791 16.376 233.447 16.68 234.023 17.096C234.631 16.616 235.079 16.072 235.367 15.464C235.431 15.4 235.495 15.368 235.559 15.368C235.655 15.368 235.751 15.4 235.847 15.464C235.975 15.528 236.023 15.576 235.991 15.608L235.895 30.728C235.863 31.464 235.927 32.024 236.087 32.408C236.279 32.792 236.551 32.984 236.903 32.984C237.223 32.984 237.607 32.84 238.055 32.552C238.503 32.232 238.951 31.816 239.399 31.304ZM225.431 32.12C226.487 32.12 227.463 31.608 228.359 30.584C229.287 29.56 230.007 28.312 230.519 26.84C231.063 25.336 231.335 23.96 231.335 22.712C231.335 21.304 230.999 20.2 230.327 19.4C229.687 18.6 228.807 18.2 227.687 18.2C226.055 18.2 224.775 19 223.847 20.6C222.919 22.168 222.455 24.216 222.455 26.744C222.487 28.632 222.775 30.008 223.319 30.872C223.863 31.704 224.567 32.12 225.431 32.12ZM257.906 16.088C258.834 16.088 259.442 16.12 259.73 16.184C260.018 16.216 260.178 16.28 260.21 16.376C260.21 17.688 260.178 18.904 260.114 20.024L260.018 38.36C259.954 41.4 259.058 43.848 257.33 45.704C255.602 47.56 253.234 48.488 250.226 48.488C248.914 48.488 247.714 48.328 246.626 48.008C245.57 47.688 244.754 47.24 244.178 46.664C243.602 46.12 243.346 45.512 243.41 44.84C243.41 44.008 243.618 43.384 244.034 42.968C244.45 42.584 244.962 42.392 245.57 42.392C246.306 42.392 246.85 42.568 247.202 42.92C247.586 43.304 247.97 43.896 248.354 44.696C248.77 45.592 249.218 46.28 249.698 46.76C250.21 47.24 251.026 47.48 252.146 47.48C253.202 47.48 254.018 46.904 254.594 45.752C255.17 44.6 255.458 42.52 255.458 39.512L255.506 27.368C254.802 30.024 253.794 32.072 252.482 33.512C251.202 34.92 249.682 35.624 247.922 35.624C246.386 35.624 245.218 35.096 244.418 34.04C243.65 32.984 243.282 31.4 243.314 29.288L243.506 20.744C243.538 19.24 243.154 18.488 242.354 18.488C242.034 18.488 241.682 18.632 241.298 18.92C240.914 19.176 240.45 19.592 239.906 20.168C239.842 20.232 239.778 20.264 239.714 20.264C239.618 20.264 239.538 20.216 239.474 20.12C239.378 19.992 239.346 19.88 239.378 19.784C240.37 18.472 241.25 17.528 242.018 16.952C242.818 16.344 243.698 16.04 244.658 16.04C245.746 16.04 246.578 16.424 247.154 17.192C247.73 17.96 247.986 19.144 247.922 20.744L247.778 28.376C247.746 31.384 248.498 32.888 250.034 32.888C250.962 32.888 251.81 32.376 252.578 31.352C253.378 30.296 254.034 28.776 254.546 26.792C255.09 24.776 255.41 22.392 255.506 19.64L255.554 16.76C255.554 16.568 255.762 16.408 256.178 16.28C256.594 16.152 257.17 16.088 257.906 16.088ZM293.078 35.576C289.526 35.576 286.438 34.888 283.814 33.512C281.222 32.136 279.238 30.248 277.862 27.848C276.486 25.416 275.798 22.696 275.798 19.688C275.798 16.776 276.566 14.168 278.102 11.864C279.638 9.528 281.734 7.72 284.39 6.44C287.046 5.128 290.006 4.472 293.27 4.472C294.774 4.472 296.31 4.616 297.878 4.904C299.446 5.16 300.678 5.48 301.574 5.864C301.83 5.992 301.99 6.12 302.054 6.248C302.118 6.376 302.166 6.616 302.198 6.968L302.582 13.256C302.582 13.384 302.502 13.464 302.342 13.496C302.182 13.528 302.07 13.496 302.006 13.4C300.886 10.968 299.414 9.08 297.59 7.736C295.766 6.36 293.654 5.672 291.254 5.672C288.15 5.672 285.734 6.776 284.006 8.984C282.278 11.16 281.414 14.136 281.414 17.912C281.414 21.208 281.99 24.12 283.142 26.648C284.294 29.176 285.862 31.128 287.846 32.504C289.862 33.88 292.134 34.568 294.662 34.568C295.814 34.568 296.694 34.408 297.302 34.088C297.91 33.736 298.326 33.176 298.55 32.408C298.806 31.608 298.934 30.456 298.934 28.952C298.934 27.384 298.79 26.248 298.502 25.544C298.214 24.84 297.686 24.376 296.918 24.152C296.15 23.928 294.918 23.816 293.222 23.816C293.03 23.816 292.934 23.688 292.934 23.432C292.934 23.336 292.95 23.256 292.982 23.192C293.046 23.096 293.11 23.048 293.174 23.048C295.83 23.208 298.038 23.288 299.798 23.288C301.462 23.288 303.19 23.24 304.982 23.144C305.11 23.144 305.19 23.256 305.222 23.48C305.254 23.704 305.206 23.816 305.078 23.816C304.566 23.784 304.246 23.912 304.118 24.2C303.99 24.488 303.926 25.144 303.926 26.168V29.432C303.926 30.872 303.974 31.88 304.07 32.456C304.166 33.032 304.214 33.432 304.214 33.656C304.214 33.848 304.182 33.976 304.118 34.04C304.086 34.104 303.974 34.168 303.782 34.232C299.686 35.128 296.118 35.576 293.078 35.576ZM314.131 35.432C312.979 35.432 312.131 35.048 311.587 34.28C311.075 33.48 310.851 32.296 310.915 30.728L311.107 20.744C311.139 19.176 310.723 18.392 309.859 18.392C309.155 18.392 308.275 19.032 307.219 20.312C307.187 20.344 307.139 20.36 307.075 20.36C306.979 20.36 306.883 20.312 306.787 20.216C306.659 20.088 306.627 19.976 306.691 19.88C307.651 18.536 308.579 17.56 309.475 16.952C310.403 16.344 311.347 16.04 312.307 16.04C314.483 16.04 315.571 17.416 315.571 20.168L315.379 30.728C315.315 32.232 315.683 32.984 316.483 32.984C316.803 32.984 317.123 32.856 317.443 32.6C317.795 32.344 318.275 31.912 318.883 31.304C318.947 31.24 319.011 31.208 319.075 31.208C319.203 31.208 319.299 31.272 319.363 31.4C319.459 31.496 319.491 31.592 319.459 31.688C318.499 33 317.619 33.96 316.819 34.568C316.019 35.144 315.123 35.432 314.131 35.432ZM312.835 11.24C311.907 11.24 311.187 10.984 310.675 10.472C310.163 9.96 309.907 9.24 309.907 8.312C309.907 7.48 310.163 6.824 310.675 6.344C311.219 5.832 311.939 5.576 312.835 5.576C313.731 5.576 314.419 5.816 314.899 6.296C315.379 6.776 315.619 7.448 315.619 8.312C315.619 9.24 315.379 9.96 314.899 10.472C314.419 10.984 313.731 11.24 312.835 11.24ZM347.768 31.112C347.896 31.112 348.008 31.176 348.104 31.304C348.232 31.4 348.248 31.496 348.152 31.592C346.84 33 345.608 34.024 344.456 34.664C343.304 35.272 342.12 35.576 340.904 35.576C337.48 35.576 335.784 33.88 335.816 30.488L335.864 20.312C335.864 19.608 335.544 19.064 334.904 18.68C334.296 18.296 333.48 18.088 332.456 18.056C331.624 18.024 329.88 18.008 327.224 18.008L327.752 36.008C327.784 36.52 327.8 37.224 327.8 38.12C327.8 40.648 327.592 42.632 327.176 44.072C326.76 45.544 326.104 46.6 325.208 47.24C324.312 47.88 323.112 48.2 321.608 48.2C320.072 48.2 318.824 47.928 317.864 47.384C316.904 46.872 316.408 46.232 316.376 45.464C316.344 44.856 316.52 44.376 316.904 44.024C317.288 43.704 317.784 43.544 318.392 43.544C319.256 43.544 319.864 43.736 320.216 44.12C320.6 44.504 320.936 45.064 321.224 45.8C321.448 46.312 321.64 46.68 321.8 46.904C321.992 47.128 322.264 47.24 322.616 47.24C322.968 47.24 323.192 47 323.288 46.52C323.416 46.072 323.48 45.16 323.48 43.784C323.48 42.376 323.432 40.2 323.336 37.256L322.76 20.312C322.728 19.512 322.616 18.936 322.424 18.584C322.264 18.232 321.976 18.008 321.56 17.912C321.176 17.816 320.504 17.768 319.544 17.768C319.48 17.768 319.416 17.736 319.352 17.672C319.32 17.576 319.304 17.48 319.304 17.384C319.304 17.288 319.32 17.208 319.352 17.144C319.416 17.048 319.48 17 319.544 17C320.664 17 321.448 16.856 321.896 16.568C322.376 16.28 322.616 15.736 322.616 14.936L322.568 13.064C322.568 9.672 322.856 7.048 323.432 5.192C324.008 3.336 324.904 2.04 326.12 1.304C327.368 0.535999 329.08 0.151999 331.256 0.151999C332.824 0.151999 334.072 0.423999 335 0.967998C335.96 1.512 336.44 2.184 336.44 2.984C336.44 3.592 336.232 4.072 335.816 4.424C335.432 4.744 334.92 4.904 334.28 4.904C333.288 4.904 332.6 4.712 332.216 4.328C331.832 3.944 331.48 3.368 331.16 2.6C330.968 2.088 330.776 1.72 330.584 1.496C330.424 1.272 330.136 1.16 329.72 1.16C328.728 1.16 328.024 1.96 327.608 3.56C327.224 5.16 327.032 7.656 327.032 11.048L327.08 13.928L327.176 17C329.576 17 331.576 16.952 333.176 16.856C335.032 16.792 336.456 16.424 337.448 15.752C338.44 15.08 339.064 14.088 339.32 12.776C339.384 12.68 339.56 12.632 339.848 12.632C340.232 12.632 340.424 12.728 340.424 12.92L340.376 16.856C341.688 16.792 343.768 16.664 346.616 16.472C346.744 16.472 346.856 16.536 346.952 16.664C347.048 16.792 347.096 16.92 347.096 17.048C347.064 17.4 346.888 17.8 346.568 18.248C346.28 18.664 345.96 18.856 345.608 18.824C343.688 18.504 341.944 18.312 340.376 18.248L340.28 29.672C340.28 30.792 340.552 31.624 341.096 32.168C341.64 32.68 342.472 32.936 343.592 32.936C344.968 32.936 346.344 32.328 347.72 31.112H347.768ZM367.212 9.56C367.212 10.712 367.516 11.752 368.124 12.68C368.732 13.608 369.468 14.424 370.332 15.128C371.228 15.8 372.428 16.616 373.932 17.576C375.564 18.632 376.844 19.544 377.772 20.312C378.732 21.08 379.548 22.008 380.22 23.096C380.892 24.152 381.228 25.368 381.228 26.744C381.228 29.464 380.268 31.624 378.348 33.224C376.46 34.792 374.012 35.576 371.004 35.576C369.564 35.576 368.028 35.384 366.396 35C364.764 34.584 363.676 34.136 363.132 33.656C362.972 33.56 362.86 33.464 362.796 33.368C362.764 33.24 362.732 33.032 362.7 32.744L362.508 25.112C362.476 24.984 362.54 24.904 362.7 24.872C362.892 24.84 363.02 24.888 363.084 25.016C363.98 26.872 364.812 28.44 365.58 29.72C366.38 30.968 367.34 32.056 368.46 32.984C369.58 33.912 370.844 34.376 372.252 34.376C375.068 34.376 376.476 32.84 376.476 29.768C376.476 28.296 376.14 27 375.468 25.88C374.828 24.76 374.028 23.832 373.068 23.096C372.14 22.328 370.892 21.432 369.324 20.408C367.884 19.48 366.732 18.68 365.868 18.008C365.004 17.304 364.268 16.472 363.66 15.512C363.084 14.552 362.796 13.464 362.796 12.248C362.796 10.52 363.276 9.08 364.236 7.928C365.228 6.744 366.492 5.88 368.028 5.336C369.564 4.76 371.196 4.472 372.924 4.472C374.044 4.472 375.212 4.584 376.428 4.808C377.676 5 378.636 5.24 379.308 5.528C379.596 5.688 379.788 5.848 379.884 6.008C379.98 6.136 380.028 6.296 380.028 6.488V13.544C380.028 13.64 379.948 13.72 379.788 13.784C379.628 13.816 379.516 13.784 379.452 13.688C379.356 13.496 379.004 12.68 378.396 11.24C377.82 9.768 376.924 8.456 375.708 7.304C374.524 6.12 373.164 5.528 371.628 5.528C370.348 5.528 369.292 5.912 368.46 6.68C367.628 7.416 367.212 8.376 367.212 9.56ZM400.711 31.976C400.807 31.976 400.903 32.024 400.999 32.12C401.095 32.216 401.111 32.296 401.047 32.36C400.023 33.48 398.855 34.296 397.543 34.808C396.231 35.32 394.887 35.576 393.511 35.576C391.591 35.576 389.959 35.144 388.615 34.28C387.271 33.416 386.263 32.28 385.591 30.872C384.919 29.464 384.583 27.96 384.583 26.36C384.583 24.632 385.031 22.968 385.927 21.368C386.823 19.736 388.087 18.408 389.719 17.384C391.383 16.36 393.287 15.848 395.431 15.848C396.871 15.848 397.991 16.072 398.791 16.52C399.623 16.968 400.087 17.608 400.183 18.44C400.311 19.848 399.319 21.16 397.207 22.376C395.095 23.592 392.487 24.472 389.383 25.016C389.511 27.48 390.151 29.512 391.303 31.112C392.487 32.68 394.087 33.464 396.103 33.464C396.871 33.464 397.655 33.352 398.455 33.128C399.255 32.872 399.975 32.488 400.615 31.976H400.711ZM392.935 17.144C391.815 17.144 390.935 17.816 390.295 19.16C389.687 20.472 389.383 22.168 389.383 24.248C393.255 23.352 395.127 21.752 394.999 19.448C394.999 18.744 394.807 18.184 394.423 17.768C394.071 17.352 393.575 17.144 392.935 17.144ZM416.88 31.112C416.976 31.112 417.072 31.176 417.168 31.304C417.264 31.4 417.28 31.496 417.216 31.592C415.84 33 414.592 34.024 413.472 34.664C412.352 35.272 411.184 35.576 409.968 35.576C406.512 35.576 404.816 33.88 404.88 30.488L404.928 20.312C404.96 19.288 404.816 18.616 404.496 18.296C404.176 17.944 403.52 17.768 402.528 17.768C402.4 17.768 402.32 17.64 402.288 17.384C402.288 17.128 402.336 17 402.432 17C405.312 17 407.28 15.592 408.336 12.776C408.4 12.68 408.528 12.632 408.72 12.632C408.88 12.632 409.024 12.664 409.152 12.728C409.312 12.792 409.392 12.856 409.392 12.92V16.856C410.704 16.792 412.784 16.664 415.632 16.472C415.792 16.472 415.92 16.536 416.016 16.664C416.112 16.792 416.16 16.92 416.16 17.048C416.128 17.4 415.952 17.8 415.632 18.248C415.344 18.664 415.024 18.856 414.672 18.824C412.656 18.504 410.896 18.312 409.392 18.248L409.344 29.672C409.344 30.792 409.6 31.624 410.112 32.168C410.656 32.68 411.488 32.936 412.608 32.936C414.016 32.936 415.424 32.328 416.832 31.112H416.88Z" fill="url(#paint0_radial_6518_3827)"/>
<path d="M34.2878 34.424C34.3838 34.424 34.4318 34.52 34.4318 34.712C34.4318 34.904 34.3838 35 34.2878 35L29.5838 34.952L25.9358 35C25.5838 35 25.3598 34.952 25.2638 34.856C25.1998 34.76 25.1678 34.504 25.1678 34.088V31.976C23.6318 33.256 22.0798 34.184 20.5118 34.76C18.9758 35.304 17.2958 35.576 15.4718 35.576C13.1998 35.576 11.1678 35.192 9.37581 34.424C7.58381 33.656 6.17581 32.552 5.15181 31.112C4.12781 29.672 3.61581 27.992 3.61581 26.072V8.888C3.61581 7.96 3.51981 7.272 3.32781 6.824C3.16781 6.344 2.86381 6.024 2.41581 5.864C1.96781 5.672 1.29581 5.576 0.399813 5.576C0.303813 5.576 0.255813 5.48 0.255813 5.288C0.255813 5.096 0.303813 5 0.399813 5L2.75181 5.048C4.09581 5.112 5.23181 5.144 6.15981 5.144C6.99181 5.144 8.14381 5.112 9.61581 5.048L12.0158 5C12.1438 5 12.2078 5.096 12.2078 5.288C12.2398 5.48 12.2078 5.576 12.1118 5.576C11.1518 5.576 10.4318 5.672 9.95181 5.864C9.50381 6.056 9.19981 6.376 9.03981 6.824C8.91181 7.272 8.83181 7.992 8.79981 8.984V24.392C8.76781 27.368 9.50381 29.688 11.0078 31.352C12.5118 32.984 14.6078 33.8 17.2958 33.8C18.6718 33.8 19.9838 33.56 21.2318 33.08C22.4798 32.568 23.7918 31.736 25.1678 30.584L25.1198 8.984C25.1518 7.608 24.9598 6.696 24.5438 6.248C24.1278 5.8 23.2638 5.576 21.9518 5.576C21.8558 5.576 21.8078 5.48 21.8078 5.288C21.8078 5.096 21.8398 5 21.9038 5L24.3038 5.048C25.7118 5.112 26.8638 5.144 27.7598 5.144C28.5598 5.144 29.6958 5.112 31.1678 5.048L33.5678 5C33.6958 5 33.7598 5.096 33.7598 5.288C33.7918 5.48 33.7598 5.576 33.6638 5.576C32.7038 5.576 31.9838 5.672 31.5038 5.864C31.0558 6.024 30.7518 6.328 30.5918 6.776C30.4318 7.224 30.3518 7.928 30.3518 8.888V31.112C30.3518 32.072 30.4478 32.792 30.6398 33.272C30.8318 33.72 31.1998 34.024 31.7438 34.184C32.2878 34.344 33.1358 34.424 34.2878 34.424ZM42.8026 35.432C41.6506 35.432 40.8186 35.048 40.3066 34.28C39.7946 33.48 39.5546 32.296 39.5866 30.728L39.7306 6.728C39.7626 5.704 39.6666 4.968 39.4426 4.52C39.2186 4.04 38.8346 3.8 38.2906 3.8C37.7146 3.8 37.0106 4.008 36.1786 4.424H36.0826C35.9226 4.424 35.8266 4.344 35.7946 4.184C35.7306 3.992 35.7626 3.88 35.8906 3.848L43.4266 0.199999H43.5226C43.6506 0.199999 43.7786 0.247998 43.9066 0.343997C44.0346 0.439998 44.0986 0.519999 44.0986 0.584L44.0506 30.728C43.9866 32.232 44.3546 32.984 45.1546 32.984C45.4746 32.984 45.8266 32.84 46.2106 32.552C46.6266 32.264 47.0906 31.848 47.6026 31.304C47.6666 31.24 47.7306 31.208 47.7946 31.208C47.8906 31.208 47.9706 31.272 48.0346 31.4C48.1306 31.496 48.1626 31.592 48.1306 31.688C47.1706 33 46.2906 33.96 45.4906 34.568C44.6906 35.144 43.7946 35.432 42.8026 35.432ZM55.9433 35.432C54.7913 35.432 53.9433 35.048 53.3993 34.28C52.8873 33.48 52.6633 32.296 52.7273 30.728L52.9193 20.744C52.9513 19.176 52.5353 18.392 51.6713 18.392C50.9673 18.392 50.0873 19.032 49.0313 20.312C48.9993 20.344 48.9513 20.36 48.8873 20.36C48.7913 20.36 48.6953 20.312 48.5993 20.216C48.4713 20.088 48.4393 19.976 48.5033 19.88C49.4633 18.536 50.3913 17.56 51.2873 16.952C52.2153 16.344 53.1593 16.04 54.1193 16.04C56.2953 16.04 57.3833 17.416 57.3833 20.168L57.1913 30.728C57.1273 32.232 57.4953 32.984 58.2953 32.984C58.6153 32.984 58.9353 32.856 59.2553 32.6C59.6073 32.344 60.0873 31.912 60.6953 31.304C60.7593 31.24 60.8233 31.208 60.8873 31.208C61.0153 31.208 61.1113 31.272 61.1753 31.4C61.2713 31.496 61.3033 31.592 61.2713 31.688C60.3113 33 59.4313 33.96 58.6313 34.568C57.8313 35.144 56.9353 35.432 55.9433 35.432ZM54.6473 11.24C53.7193 11.24 52.9993 10.984 52.4873 10.472C51.9753 9.96 51.7193 9.24 51.7193 8.312C51.7193 7.48 51.9753 6.824 52.4873 6.344C53.0313 5.832 53.7513 5.576 54.6473 5.576C55.5433 5.576 56.2313 5.816 56.7113 6.296C57.1913 6.776 57.4313 7.448 57.4313 8.312C57.4313 9.24 57.1913 9.96 56.7113 10.472C56.2313 10.984 55.5433 11.24 54.6473 11.24ZM84.0121 31.304C84.1401 31.304 84.2361 31.368 84.3001 31.496C84.3961 31.624 84.4121 31.72 84.3481 31.784C83.3881 33.032 82.5241 33.96 81.7561 34.568C80.9881 35.144 80.2361 35.432 79.5001 35.432C78.5721 35.432 77.7081 35.208 76.9081 34.76C76.1401 34.28 75.2281 33.432 74.1721 32.216L70.1881 27.608C69.8361 27.224 69.5641 26.952 69.3721 26.792C69.1801 26.632 68.9561 26.536 68.7001 26.504V34.424C68.7001 34.712 68.4601 34.936 67.9801 35.096C67.5001 35.288 66.7961 35.384 65.8681 35.384C64.7481 35.384 64.1561 35.256 64.0921 35V33.896C64.1561 33 64.1881 32.184 64.1881 31.448L64.3801 6.728C64.4121 5.704 64.3161 4.968 64.0921 4.52C63.8681 4.04 63.4841 3.8 62.9401 3.8C62.3641 3.8 61.6601 4.008 60.8281 4.424H60.7321C60.6041 4.424 60.5081 4.344 60.4441 4.184C60.3481 4.024 60.3641 3.912 60.4921 3.848L68.0761 0.199999H68.1721C68.2681 0.199999 68.3801 0.247998 68.5081 0.343997C68.6681 0.407998 68.7481 0.487999 68.7481 0.584L68.7001 19.208C69.7881 18.152 70.9881 17.336 72.3001 16.76C73.6441 16.152 75.0201 15.848 76.4281 15.848C77.9321 15.848 78.9721 16.136 79.5481 16.712C80.1561 17.288 80.4921 17.96 80.5561 18.728C80.5881 19.912 79.9641 21.08 78.6841 22.232C77.4041 23.352 75.5641 24.344 73.1641 25.208L77.4841 30.104C78.3481 31.128 79.0521 31.816 79.5961 32.168C80.1721 32.488 80.7321 32.648 81.2761 32.648C82.0441 32.648 82.9241 32.216 83.9161 31.352L84.0121 31.304ZM73.4041 17.912C71.9961 17.912 70.8761 18.584 70.0441 19.928C69.2121 21.24 68.7641 22.984 68.7001 25.16V25.544C71.0041 25.032 72.6841 24.376 73.7401 23.576C74.8281 22.776 75.3721 21.784 75.3721 20.6C75.3721 19.768 75.1961 19.112 74.8441 18.632C74.5241 18.152 74.0441 17.912 73.4041 17.912ZM100.242 31.976C100.338 31.976 100.434 32.024 100.53 32.12C100.626 32.216 100.642 32.296 100.578 32.36C99.5541 33.48 98.3861 34.296 97.0741 34.808C95.7621 35.32 94.4181 35.576 93.0421 35.576C91.1221 35.576 89.4901 35.144 88.1461 34.28C86.8021 33.416 85.7941 32.28 85.1221 30.872C84.4501 29.464 84.1141 27.96 84.1141 26.36C84.1141 24.632 84.5621 22.968 85.4581 21.368C86.3541 19.736 87.6181 18.408 89.2501 17.384C90.9141 16.36 92.8181 15.848 94.9621 15.848C96.4021 15.848 97.5221 16.072 98.3221 16.52C99.1541 16.968 99.6181 17.608 99.7141 18.44C99.8421 19.848 98.8501 21.16 96.7381 22.376C94.6261 23.592 92.0181 24.472 88.9141 25.016C89.0421 27.48 89.6821 29.512 90.8341 31.112C92.0181 32.68 93.6181 33.464 95.6341 33.464C96.4021 33.464 97.1861 33.352 97.9861 33.128C98.7861 32.872 99.5061 32.488 100.146 31.976H100.242ZM92.4661 17.144C91.3461 17.144 90.4661 17.816 89.8261 19.16C89.2181 20.472 88.9141 22.168 88.9141 24.248C92.7861 23.352 94.6581 21.752 94.5301 19.448C94.5301 18.744 94.3381 18.184 93.9541 17.768C93.6021 17.352 93.1061 17.144 92.4661 17.144ZM145.469 34.424C145.533 34.424 145.565 34.52 145.565 34.712C145.565 34.904 145.533 35 145.469 35C144.573 35 143.837 34.984 143.261 34.952L139.661 34.904L136.205 34.952C135.597 34.984 134.765 35 133.709 35C133.645 35 133.597 34.904 133.565 34.712C133.565 34.52 133.613 34.424 133.709 34.424C134.701 34.424 135.405 34.344 135.821 34.184C136.269 34.024 136.557 33.72 136.685 33.272C136.813 32.824 136.877 32.104 136.877 31.112V20.072H123.053V31.112C123.053 32.072 123.133 32.776 123.293 33.224C123.485 33.672 123.805 33.992 124.253 34.184C124.701 34.344 125.405 34.424 126.365 34.424C126.461 34.424 126.509 34.52 126.509 34.712C126.509 34.904 126.461 35 126.365 35C125.309 35 124.493 34.984 123.917 34.952L120.365 34.904L117.053 34.952C116.445 34.984 115.645 35 114.653 35C114.557 35 114.509 34.904 114.509 34.712C114.509 34.52 114.557 34.424 114.653 34.424C115.613 34.424 116.301 34.344 116.717 34.184C117.165 34.024 117.453 33.72 117.581 33.272C117.741 32.824 117.821 32.104 117.821 31.112V8.888C117.853 7.544 117.661 6.664 117.245 6.248C116.829 5.8 115.965 5.576 114.653 5.576C114.557 5.576 114.509 5.48 114.509 5.288C114.509 5.096 114.557 5 114.653 5L116.957 5.048C118.365 5.112 119.501 5.144 120.365 5.144C121.229 5.144 122.397 5.112 123.869 5.048L126.317 5C126.381 5 126.413 5.096 126.413 5.288C126.413 5.48 126.381 5.576 126.317 5.576C125.357 5.576 124.653 5.672 124.205 5.864C123.757 6.056 123.453 6.392 123.293 6.872C123.165 7.32 123.085 8.024 123.053 8.984V18.728H136.829V8.984C136.829 7.608 136.621 6.696 136.205 6.248C135.821 5.8 134.973 5.576 133.661 5.576C133.597 5.576 133.549 5.48 133.517 5.288C133.517 5.096 133.565 5 133.661 5L136.013 5.048C137.421 5.112 138.573 5.144 139.469 5.144C140.333 5.144 141.469 5.112 142.877 5.048L145.325 5C145.421 5 145.469 5.096 145.469 5.288C145.469 5.48 145.421 5.576 145.325 5.576C144.365 5.576 143.661 5.672 143.213 5.864C142.797 6.024 142.509 6.328 142.349 6.776C142.189 7.224 142.077 7.928 142.013 8.888V31.112C142.013 32.04 142.109 32.744 142.301 33.224C142.525 33.672 142.877 33.992 143.357 34.184C143.837 34.344 144.541 34.424 145.469 34.424ZM157.539 35.672C155.683 35.672 154.083 35.24 152.739 34.376C151.427 33.48 150.435 32.296 149.763 30.824C149.091 29.352 148.755 27.736 148.755 25.976C148.755 23.992 149.171 22.232 150.003 20.696C150.835 19.16 151.987 17.976 153.459 17.144C154.963 16.28 156.643 15.848 158.499 15.848C161.315 15.848 163.507 16.744 165.075 18.536C166.643 20.328 167.427 22.648 167.427 25.496C167.427 27.64 166.963 29.48 166.035 31.016C165.107 32.552 163.891 33.72 162.387 34.52C160.883 35.288 159.267 35.672 157.539 35.672ZM159.123 34.472C160.275 34.472 161.139 33.864 161.715 32.648C162.291 31.4 162.579 29.688 162.579 27.512C162.579 25.656 162.323 23.928 161.811 22.328C161.331 20.696 160.659 19.4 159.795 18.44C158.931 17.48 157.987 17 156.963 17C155.907 17 155.075 17.56 154.467 18.68C153.859 19.8 153.555 21.464 153.555 23.672C153.555 25.592 153.811 27.384 154.323 29.048C154.835 30.68 155.507 31.992 156.339 32.984C157.203 33.976 158.131 34.472 159.123 34.472ZM175.084 35.432C173.932 35.432 173.1 35.048 172.588 34.28C172.076 33.48 171.836 32.296 171.868 30.728L172.012 6.728C172.044 5.704 171.948 4.968 171.724 4.52C171.5 4.04 171.116 3.8 170.572 3.8C169.996 3.8 169.292 4.008 168.46 4.424H168.364C168.204 4.424 168.108 4.344 168.076 4.184C168.012 3.992 168.044 3.88 168.172 3.848L175.708 0.199999H175.804C175.932 0.199999 176.06 0.247998 176.188 0.343997C176.316 0.439998 176.38 0.519999 176.38 0.584L176.332 30.728C176.268 32.232 176.636 32.984 177.436 32.984C177.756 32.984 178.108 32.84 178.492 32.552C178.908 32.264 179.372 31.848 179.884 31.304C179.948 31.24 180.012 31.208 180.076 31.208C180.172 31.208 180.252 31.272 180.316 31.4C180.412 31.496 180.444 31.592 180.412 31.688C179.452 33 178.572 33.96 177.772 34.568C176.972 35.144 176.076 35.432 175.084 35.432ZM188.225 35.432C187.073 35.432 186.225 35.048 185.681 34.28C185.169 33.48 184.945 32.296 185.009 30.728L185.201 20.744C185.233 19.176 184.817 18.392 183.953 18.392C183.249 18.392 182.369 19.032 181.313 20.312C181.281 20.344 181.233 20.36 181.169 20.36C181.073 20.36 180.977 20.312 180.881 20.216C180.753 20.088 180.721 19.976 180.785 19.88C181.745 18.536 182.673 17.56 183.569 16.952C184.497 16.344 185.441 16.04 186.401 16.04C188.577 16.04 189.665 17.416 189.665 20.168L189.473 30.728C189.409 32.232 189.777 32.984 190.577 32.984C190.897 32.984 191.217 32.856 191.537 32.6C191.889 32.344 192.369 31.912 192.977 31.304C193.041 31.24 193.105 31.208 193.169 31.208C193.297 31.208 193.393 31.272 193.457 31.4C193.553 31.496 193.585 31.592 193.553 31.688C192.593 33 191.713 33.96 190.913 34.568C190.113 35.144 189.217 35.432 188.225 35.432ZM186.929 11.24C186.001 11.24 185.281 10.984 184.769 10.472C184.257 9.96 184.001 9.24 184.001 8.312C184.001 7.48 184.257 6.824 184.769 6.344C185.313 5.832 186.033 5.576 186.929 5.576C187.825 5.576 188.513 5.816 188.993 6.296C189.473 6.776 189.713 7.448 189.713 8.312C189.713 9.24 189.473 9.96 188.993 10.472C188.513 10.984 187.825 11.24 186.929 11.24ZM217.013 31.208C217.141 31.208 217.237 31.272 217.301 31.4C217.397 31.496 217.413 31.592 217.349 31.688C216.389 33 215.509 33.96 214.709 34.568C213.941 35.144 213.061 35.432 212.069 35.432C210.917 35.432 210.069 35.048 209.525 34.28C209.013 33.48 208.773 32.296 208.805 30.728L208.853 27.416C207.893 29.976 206.741 31.992 205.397 33.464C204.053 34.904 202.485 35.624 200.693 35.624C199.157 35.624 197.829 35.08 196.709 33.992C195.589 32.872 195.029 31.208 195.029 29C195.029 26.76 195.605 24.632 196.757 22.616C197.909 20.568 199.381 18.936 201.173 17.72C202.997 16.472 204.853 15.848 206.741 15.848C207.541 15.848 208.261 15.96 208.901 16.184L208.997 6.728C209.029 5.704 208.933 4.968 208.709 4.52C208.485 4.04 208.101 3.8 207.557 3.8C206.981 3.8 206.277 4.008 205.445 4.424H205.397C205.269 4.424 205.157 4.344 205.061 4.184C204.997 4.024 205.013 3.912 205.109 3.848L212.693 0.199999H212.789C212.917 0.199999 213.045 0.247998 213.173 0.343997C213.301 0.439998 213.365 0.519999 213.365 0.584L213.317 30.728C213.285 31.56 213.365 32.152 213.557 32.504C213.749 32.824 214.021 32.984 214.373 32.984C214.757 32.984 215.125 32.856 215.477 32.6C215.829 32.312 216.277 31.88 216.821 31.304L217.013 31.208ZM202.661 32.264C203.781 32.264 204.773 31.816 205.637 30.92C206.533 30.024 207.253 28.92 207.797 27.608C208.341 26.296 208.693 25.016 208.853 23.768L208.901 21.656C208.709 20.568 208.165 19.72 207.269 19.112C206.405 18.504 205.397 18.2 204.245 18.2C202.581 18.2 201.317 18.872 200.453 20.216C199.589 21.56 199.157 23.416 199.157 25.784C199.157 30.104 200.325 32.264 202.661 32.264ZM239.399 31.304C239.431 31.272 239.479 31.256 239.543 31.256C239.639 31.256 239.735 31.32 239.831 31.448C239.927 31.544 239.959 31.624 239.927 31.688C239.031 32.936 238.167 33.88 237.335 34.52C236.503 35.128 235.655 35.432 234.791 35.432C233.639 35.432 232.775 35.048 232.199 34.28C231.623 33.512 231.335 32.328 231.335 30.728V27.464C230.471 30.024 229.255 32.024 227.687 33.464C226.119 34.904 224.455 35.624 222.695 35.624C221.383 35.624 220.311 35.192 219.479 34.328C218.679 33.432 218.279 32.072 218.279 30.248C218.279 28.136 218.855 25.96 220.007 23.72C221.159 21.448 222.631 19.576 224.423 18.104C226.247 16.6 228.103 15.848 229.991 15.848C230.663 15.848 231.351 15.96 232.055 16.184C232.791 16.376 233.447 16.68 234.023 17.096C234.631 16.616 235.079 16.072 235.367 15.464C235.431 15.4 235.495 15.368 235.559 15.368C235.655 15.368 235.751 15.4 235.847 15.464C235.975 15.528 236.023 15.576 235.991 15.608L235.895 30.728C235.863 31.464 235.927 32.024 236.087 32.408C236.279 32.792 236.551 32.984 236.903 32.984C237.223 32.984 237.607 32.84 238.055 32.552C238.503 32.232 238.951 31.816 239.399 31.304ZM225.431 32.12C226.487 32.12 227.463 31.608 228.359 30.584C229.287 29.56 230.007 28.312 230.519 26.84C231.063 25.336 231.335 23.96 231.335 22.712C231.335 21.304 230.999 20.2 230.327 19.4C229.687 18.6 228.807 18.2 227.687 18.2C226.055 18.2 224.775 19 223.847 20.6C222.919 22.168 222.455 24.216 222.455 26.744C222.487 28.632 222.775 30.008 223.319 30.872C223.863 31.704 224.567 32.12 225.431 32.12ZM257.906 16.088C258.834 16.088 259.442 16.12 259.73 16.184C260.018 16.216 260.178 16.28 260.21 16.376C260.21 17.688 260.178 18.904 260.114 20.024L260.018 38.36C259.954 41.4 259.058 43.848 257.33 45.704C255.602 47.56 253.234 48.488 250.226 48.488C248.914 48.488 247.714 48.328 246.626 48.008C245.57 47.688 244.754 47.24 244.178 46.664C243.602 46.12 243.346 45.512 243.41 44.84C243.41 44.008 243.618 43.384 244.034 42.968C244.45 42.584 244.962 42.392 245.57 42.392C246.306 42.392 246.85 42.568 247.202 42.92C247.586 43.304 247.97 43.896 248.354 44.696C248.77 45.592 249.218 46.28 249.698 46.76C250.21 47.24 251.026 47.48 252.146 47.48C253.202 47.48 254.018 46.904 254.594 45.752C255.17 44.6 255.458 42.52 255.458 39.512L255.506 27.368C254.802 30.024 253.794 32.072 252.482 33.512C251.202 34.92 249.682 35.624 247.922 35.624C246.386 35.624 245.218 35.096 244.418 34.04C243.65 32.984 243.282 31.4 243.314 29.288L243.506 20.744C243.538 19.24 243.154 18.488 242.354 18.488C242.034 18.488 241.682 18.632 241.298 18.92C240.914 19.176 240.45 19.592 239.906 20.168C239.842 20.232 239.778 20.264 239.714 20.264C239.618 20.264 239.538 20.216 239.474 20.12C239.378 19.992 239.346 19.88 239.378 19.784C240.37 18.472 241.25 17.528 242.018 16.952C242.818 16.344 243.698 16.04 244.658 16.04C245.746 16.04 246.578 16.424 247.154 17.192C247.73 17.96 247.986 19.144 247.922 20.744L247.778 28.376C247.746 31.384 248.498 32.888 250.034 32.888C250.962 32.888 251.81 32.376 252.578 31.352C253.378 30.296 254.034 28.776 254.546 26.792C255.09 24.776 255.41 22.392 255.506 19.64L255.554 16.76C255.554 16.568 255.762 16.408 256.178 16.28C256.594 16.152 257.17 16.088 257.906 16.088ZM293.078 35.576C289.526 35.576 286.438 34.888 283.814 33.512C281.222 32.136 279.238 30.248 277.862 27.848C276.486 25.416 275.798 22.696 275.798 19.688C275.798 16.776 276.566 14.168 278.102 11.864C279.638 9.528 281.734 7.72 284.39 6.44C287.046 5.128 290.006 4.472 293.27 4.472C294.774 4.472 296.31 4.616 297.878 4.904C299.446 5.16 300.678 5.48 301.574 5.864C301.83 5.992 301.99 6.12 302.054 6.248C302.118 6.376 302.166 6.616 302.198 6.968L302.582 13.256C302.582 13.384 302.502 13.464 302.342 13.496C302.182 13.528 302.07 13.496 302.006 13.4C300.886 10.968 299.414 9.08 297.59 7.736C295.766 6.36 293.654 5.672 291.254 5.672C288.15 5.672 285.734 6.776 284.006 8.984C282.278 11.16 281.414 14.136 281.414 17.912C281.414 21.208 281.99 24.12 283.142 26.648C284.294 29.176 285.862 31.128 287.846 32.504C289.862 33.88 292.134 34.568 294.662 34.568C295.814 34.568 296.694 34.408 297.302 34.088C297.91 33.736 298.326 33.176 298.55 32.408C298.806 31.608 298.934 30.456 298.934 28.952C298.934 27.384 298.79 26.248 298.502 25.544C298.214 24.84 297.686 24.376 296.918 24.152C296.15 23.928 294.918 23.816 293.222 23.816C293.03 23.816 292.934 23.688 292.934 23.432C292.934 23.336 292.95 23.256 292.982 23.192C293.046 23.096 293.11 23.048 293.174 23.048C295.83 23.208 298.038 23.288 299.798 23.288C301.462 23.288 303.19 23.24 304.982 23.144C305.11 23.144 305.19 23.256 305.222 23.48C305.254 23.704 305.206 23.816 305.078 23.816C304.566 23.784 304.246 23.912 304.118 24.2C303.99 24.488 303.926 25.144 303.926 26.168V29.432C303.926 30.872 303.974 31.88 304.07 32.456C304.166 33.032 304.214 33.432 304.214 33.656C304.214 33.848 304.182 33.976 304.118 34.04C304.086 34.104 303.974 34.168 303.782 34.232C299.686 35.128 296.118 35.576 293.078 35.576ZM314.131 35.432C312.979 35.432 312.131 35.048 311.587 34.28C311.075 33.48 310.851 32.296 310.915 30.728L311.107 20.744C311.139 19.176 310.723 18.392 309.859 18.392C309.155 18.392 308.275 19.032 307.219 20.312C307.187 20.344 307.139 20.36 307.075 20.36C306.979 20.36 306.883 20.312 306.787 20.216C306.659 20.088 306.627 19.976 306.691 19.88C307.651 18.536 308.579 17.56 309.475 16.952C310.403 16.344 311.347 16.04 312.307 16.04C314.483 16.04 315.571 17.416 315.571 20.168L315.379 30.728C315.315 32.232 315.683 32.984 316.483 32.984C316.803 32.984 317.123 32.856 317.443 32.6C317.795 32.344 318.275 31.912 318.883 31.304C318.947 31.24 319.011 31.208 319.075 31.208C319.203 31.208 319.299 31.272 319.363 31.4C319.459 31.496 319.491 31.592 319.459 31.688C318.499 33 317.619 33.96 316.819 34.568C316.019 35.144 315.123 35.432 314.131 35.432ZM312.835 11.24C311.907 11.24 311.187 10.984 310.675 10.472C310.163 9.96 309.907 9.24 309.907 8.312C309.907 7.48 310.163 6.824 310.675 6.344C311.219 5.832 311.939 5.576 312.835 5.576C313.731 5.576 314.419 5.816 314.899 6.296C315.379 6.776 315.619 7.448 315.619 8.312C315.619 9.24 315.379 9.96 314.899 10.472C314.419 10.984 313.731 11.24 312.835 11.24ZM347.768 31.112C347.896 31.112 348.008 31.176 348.104 31.304C348.232 31.4 348.248 31.496 348.152 31.592C346.84 33 345.608 34.024 344.456 34.664C343.304 35.272 342.12 35.576 340.904 35.576C337.48 35.576 335.784 33.88 335.816 30.488L335.864 20.312C335.864 19.608 335.544 19.064 334.904 18.68C334.296 18.296 333.48 18.088 332.456 18.056C331.624 18.024 329.88 18.008 327.224 18.008L327.752 36.008C327.784 36.52 327.8 37.224 327.8 38.12C327.8 40.648 327.592 42.632 327.176 44.072C326.76 45.544 326.104 46.6 325.208 47.24C324.312 47.88 323.112 48.2 321.608 48.2C320.072 48.2 318.824 47.928 317.864 47.384C316.904 46.872 316.408 46.232 316.376 45.464C316.344 44.856 316.52 44.376 316.904 44.024C317.288 43.704 317.784 43.544 318.392 43.544C319.256 43.544 319.864 43.736 320.216 44.12C320.6 44.504 320.936 45.064 321.224 45.8C321.448 46.312 321.64 46.68 321.8 46.904C321.992 47.128 322.264 47.24 322.616 47.24C322.968 47.24 323.192 47 323.288 46.52C323.416 46.072 323.48 45.16 323.48 43.784C323.48 42.376 323.432 40.2 323.336 37.256L322.76 20.312C322.728 19.512 322.616 18.936 322.424 18.584C322.264 18.232 321.976 18.008 321.56 17.912C321.176 17.816 320.504 17.768 319.544 17.768C319.48 17.768 319.416 17.736 319.352 17.672C319.32 17.576 319.304 17.48 319.304 17.384C319.304 17.288 319.32 17.208 319.352 17.144C319.416 17.048 319.48 17 319.544 17C320.664 17 321.448 16.856 321.896 16.568C322.376 16.28 322.616 15.736 322.616 14.936L322.568 13.064C322.568 9.672 322.856 7.048 323.432 5.192C324.008 3.336 324.904 2.04 326.12 1.304C327.368 0.535999 329.08 0.151999 331.256 0.151999C332.824 0.151999 334.072 0.423999 335 0.967998C335.96 1.512 336.44 2.184 336.44 2.984C336.44 3.592 336.232 4.072 335.816 4.424C335.432 4.744 334.92 4.904 334.28 4.904C333.288 4.904 332.6 4.712 332.216 4.328C331.832 3.944 331.48 3.368 331.16 2.6C330.968 2.088 330.776 1.72 330.584 1.496C330.424 1.272 330.136 1.16 329.72 1.16C328.728 1.16 328.024 1.96 327.608 3.56C327.224 5.16 327.032 7.656 327.032 11.048L327.08 13.928L327.176 17C329.576 17 331.576 16.952 333.176 16.856C335.032 16.792 336.456 16.424 337.448 15.752C338.44 15.08 339.064 14.088 339.32 12.776C339.384 12.68 339.56 12.632 339.848 12.632C340.232 12.632 340.424 12.728 340.424 12.92L340.376 16.856C341.688 16.792 343.768 16.664 346.616 16.472C346.744 16.472 346.856 16.536 346.952 16.664C347.048 16.792 347.096 16.92 347.096 17.048C347.064 17.4 346.888 17.8 346.568 18.248C346.28 18.664 345.96 18.856 345.608 18.824C343.688 18.504 341.944 18.312 340.376 18.248L340.28 29.672C340.28 30.792 340.552 31.624 341.096 32.168C341.64 32.68 342.472 32.936 343.592 32.936C344.968 32.936 346.344 32.328 347.72 31.112H347.768ZM367.212 9.56C367.212 10.712 367.516 11.752 368.124 12.68C368.732 13.608 369.468 14.424 370.332 15.128C371.228 15.8 372.428 16.616 373.932 17.576C375.564 18.632 376.844 19.544 377.772 20.312C378.732 21.08 379.548 22.008 380.22 23.096C380.892 24.152 381.228 25.368 381.228 26.744C381.228 29.464 380.268 31.624 378.348 33.224C376.46 34.792 374.012 35.576 371.004 35.576C369.564 35.576 368.028 35.384 366.396 35C364.764 34.584 363.676 34.136 363.132 33.656C362.972 33.56 362.86 33.464 362.796 33.368C362.764 33.24 362.732 33.032 362.7 32.744L362.508 25.112C362.476 24.984 362.54 24.904 362.7 24.872C362.892 24.84 363.02 24.888 363.084 25.016C363.98 26.872 364.812 28.44 365.58 29.72C366.38 30.968 367.34 32.056 368.46 32.984C369.58 33.912 370.844 34.376 372.252 34.376C375.068 34.376 376.476 32.84 376.476 29.768C376.476 28.296 376.14 27 375.468 25.88C374.828 24.76 374.028 23.832 373.068 23.096C372.14 22.328 370.892 21.432 369.324 20.408C367.884 19.48 366.732 18.68 365.868 18.008C365.004 17.304 364.268 16.472 363.66 15.512C363.084 14.552 362.796 13.464 362.796 12.248C362.796 10.52 363.276 9.08 364.236 7.928C365.228 6.744 366.492 5.88 368.028 5.336C369.564 4.76 371.196 4.472 372.924 4.472C374.044 4.472 375.212 4.584 376.428 4.808C377.676 5 378.636 5.24 379.308 5.528C379.596 5.688 379.788 5.848 379.884 6.008C379.98 6.136 380.028 6.296 380.028 6.488V13.544C380.028 13.64 379.948 13.72 379.788 13.784C379.628 13.816 379.516 13.784 379.452 13.688C379.356 13.496 379.004 12.68 378.396 11.24C377.82 9.768 376.924 8.456 375.708 7.304C374.524 6.12 373.164 5.528 371.628 5.528C370.348 5.528 369.292 5.912 368.46 6.68C367.628 7.416 367.212 8.376 367.212 9.56ZM400.711 31.976C400.807 31.976 400.903 32.024 400.999 32.12C401.095 32.216 401.111 32.296 401.047 32.36C400.023 33.48 398.855 34.296 397.543 34.808C396.231 35.32 394.887 35.576 393.511 35.576C391.591 35.576 389.959 35.144 388.615 34.28C387.271 33.416 386.263 32.28 385.591 30.872C384.919 29.464 384.583 27.96 384.583 26.36C384.583 24.632 385.031 22.968 385.927 21.368C386.823 19.736 388.087 18.408 389.719 17.384C391.383 16.36 393.287 15.848 395.431 15.848C396.871 15.848 397.991 16.072 398.791 16.52C399.623 16.968 400.087 17.608 400.183 18.44C400.311 19.848 399.319 21.16 397.207 22.376C395.095 23.592 392.487 24.472 389.383 25.016C389.511 27.48 390.151 29.512 391.303 31.112C392.487 32.68 394.087 33.464 396.103 33.464C396.871 33.464 397.655 33.352 398.455 33.128C399.255 32.872 399.975 32.488 400.615 31.976H400.711ZM392.935 17.144C391.815 17.144 390.935 17.816 390.295 19.16C389.687 20.472 389.383 22.168 389.383 24.248C393.255 23.352 395.127 21.752 394.999 19.448C394.999 18.744 394.807 18.184 394.423 17.768C394.071 17.352 393.575 17.144 392.935 17.144ZM416.88 31.112C416.976 31.112 417.072 31.176 417.168 31.304C417.264 31.4 417.28 31.496 417.216 31.592C415.84 33 414.592 34.024 413.472 34.664C412.352 35.272 411.184 35.576 409.968 35.576C406.512 35.576 404.816 33.88 404.88 30.488L404.928 20.312C404.96 19.288 404.816 18.616 404.496 18.296C404.176 17.944 403.52 17.768 402.528 17.768C402.4 17.768 402.32 17.64 402.288 17.384C402.288 17.128 402.336 17 402.432 17C405.312 17 407.28 15.592 408.336 12.776C408.4 12.68 408.528 12.632 408.72 12.632C408.88 12.632 409.024 12.664 409.152 12.728C409.312 12.792 409.392 12.856 409.392 12.92V16.856C410.704 16.792 412.784 16.664 415.632 16.472C415.792 16.472 415.92 16.536 416.016 16.664C416.112 16.792 416.16 16.92 416.16 17.048C416.128 17.4 415.952 17.8 415.632 18.248C415.344 18.664 415.024 18.856 414.672 18.824C412.656 18.504 410.896 18.312 409.392 18.248L409.344 29.672C409.344 30.792 409.6 31.624 410.112 32.168C410.656 32.68 411.488 32.936 412.608 32.936C414.016 32.936 415.424 32.328 416.832 31.112H416.88Z" fill="#FFFBA7" fill-opacity="0.18"/>
<defs>
<radialGradient id="paint0_radial_6518_3827" cx="0" cy="0" r="1" gradientUnits="userSpaceOnUse" gradientTransform="translate(208.468 16.2633) rotate(-90) scale(33.5231 233.544)">
<stop stop-color="#E1C595"/>
<stop offset="1" stop-color="#A96C2D"/>
</radialGradient>
</defs>
</svg>
