<svg width="64" height="44" viewBox="0 0 64 44" fill="none" xmlns="http://www.w3.org/2000/svg">
<path d="M18.6157 1.81934L20.5049 7.39864" stroke="black" stroke-miterlimit="10" stroke-linecap="round"/>
<path d="M25.2773 0.733398V6.61944" stroke="black" stroke-miterlimit="10" stroke-linecap="round"/>
<path d="M12.6533 4.84082L16.2319 9.52479" stroke="black" stroke-miterlimit="10" stroke-linecap="round"/>
<path d="M32.0988 1.84863L30.0557 7.36991" stroke="black" stroke-miterlimit="10" stroke-linecap="round"/>
<path d="M37.8066 4.93652L34.1655 9.57075" stroke="black" stroke-miterlimit="10" stroke-linecap="round"/>
<path d="M42.3721 9.64551L37.6699 13.2062" stroke="black" stroke-miterlimit="10" stroke-linecap="round"/>
<path d="M45.5326 15.5859L39.9316 17.4637" stroke="black" stroke-miterlimit="10" stroke-linecap="round"/>
<path d="M46.6494 22.3789L40.7446 22.209" stroke="black" stroke-miterlimit="10" stroke-linecap="round"/>
<path d="M45.5347 28.7546L39.9629 26.7939" stroke="black" stroke-miterlimit="10" stroke-linecap="round"/>
<path d="M19.5639 39.9602C19.8305 40.0319 20.1048 39.8739 20.1765 39.6072C20.2482 39.3405 20.0901 39.0662 19.8235 38.9945L19.5639 39.9602ZM10.41 11.9912C10.0101 11.6911 10.01 11.6913 10.0098 11.6915C10.0097 11.6916 10.0095 11.6919 10.0094 11.6921C10.009 11.6926 10.0086 11.6931 10.0081 11.6938C10.0071 11.6951 10.0058 11.6969 10.0042 11.6991C10.0009 11.7035 9.9964 11.7096 9.99068 11.7175C9.97924 11.7332 9.96297 11.7558 9.94232 11.785C9.901 11.8435 9.84208 11.9288 9.76895 12.0397C9.62271 12.2613 9.41945 12.5853 9.18636 13.0015C8.72047 13.8333 8.13377 15.0364 7.64565 16.5285C6.66919 19.5135 6.08347 23.6696 7.66467 28.3181L8.6114 27.9961C7.11748 23.6042 7.66777 19.6773 8.59609 16.8394C9.06036 15.4202 9.61825 14.2768 10.0588 13.4901C10.279 13.097 10.4695 12.7937 10.6036 12.5904C10.6707 12.4888 10.7237 12.4121 10.7592 12.3619C10.7769 12.3367 10.7903 12.3182 10.7989 12.3064C10.8032 12.3004 10.8063 12.2962 10.8082 12.2937C10.8091 12.2925 10.8097 12.2916 10.81 12.2912C10.8102 12.291 10.8102 12.2909 10.8102 12.291C10.8102 12.291 10.8102 12.2911 10.8102 12.2911C10.8101 12.2912 10.81 12.2913 10.41 11.9912ZM7.66467 28.3181C9.24566 32.9661 12.2181 35.8766 14.7882 37.6211C16.0727 38.493 17.2591 39.0755 18.1265 39.4407C18.5605 39.6235 18.9154 39.7521 19.1639 39.8357C19.2882 39.8775 19.3859 39.908 19.4537 39.9284C19.4876 39.9386 19.514 39.9462 19.5325 39.9515C19.5417 39.9541 19.549 39.9562 19.5543 39.9576C19.5569 39.9583 19.559 39.9589 19.5606 39.9594C19.5614 39.9596 19.5621 39.9598 19.5626 39.9599C19.5629 39.96 19.5632 39.9601 19.5633 39.9601C19.5636 39.9602 19.5639 39.9602 19.6937 39.4774C19.8235 38.9945 19.8236 38.9946 19.8238 38.9946C19.8238 38.9946 19.8239 38.9947 19.8239 38.9947C19.824 38.9947 19.8239 38.9946 19.8236 38.9946C19.8232 38.9944 19.8222 38.9942 19.8207 38.9938C19.8178 38.993 19.8129 38.9916 19.806 38.9896C19.7922 38.9857 19.7706 38.9795 19.7417 38.9708C19.6837 38.9533 19.5962 38.9261 19.4826 38.8878C19.2553 38.8114 18.9237 38.6914 18.5146 38.5191C17.6958 38.1744 16.5698 37.6218 15.3498 36.7937C12.9109 35.1382 10.1055 32.3886 8.6114 27.9961L7.66467 28.3181Z" fill="black"/>
<path d="M6.09189 13.4514L11.0543 9.82035L12.0537 16.085L6.09189 13.4514Z" fill="black"/>
<path d="M25.2315 23.17C25.7461 23.17 26.1633 22.7564 26.1633 22.2461C26.1633 21.7359 25.7461 21.3223 25.2315 21.3223C24.717 21.3223 24.2998 21.7359 24.2998 22.2461C24.2998 22.7564 24.717 23.17 25.2315 23.17Z" stroke="black" stroke-miterlimit="10"/>
<path d="M25.2773 11.3018L25.3599 20.2385" stroke="black" stroke-miterlimit="10" stroke-linecap="round"/>
<path d="M35.9723 22.2959H26.8057" stroke="black" stroke-miterlimit="10" stroke-linecap="round"/>
<path d="M24.7158 40.631L27.0478 38.695C28.1258 37.804 28.9618 37.045 28.9618 36.011C28.9618 35.043 28.3348 34.383 27.3668 34.383C26.4208 34.383 25.7718 35.109 25.7718 36.011C25.7718 36.297 25.8378 36.594 25.9478 36.869H24.9578C24.8368 36.528 24.7818 36.264 24.7818 35.956C24.7818 34.548 25.9368 33.481 27.3888 33.481C28.9838 33.481 29.9958 34.493 29.9958 35.945C29.9958 37.287 29.0718 38.211 27.9388 39.124L26.1568 40.576H30.1498V41.5H24.7158V40.631ZM36.3706 35.747H37.2066L38.3946 40.037L39.5936 35.747H40.5836L38.8346 41.5H37.9656L36.7666 37.232L35.5676 41.5H34.6986L32.9496 35.747H33.9726L35.1826 40.026L36.3706 35.747ZM43.7402 41.621C42.1452 41.621 41.0452 40.4 41.0452 38.629C41.0452 36.913 42.1342 35.637 43.6962 35.637C45.3022 35.637 46.1492 36.858 46.1492 38.453V38.783H41.9912C42.0462 39.993 42.7392 40.763 43.7402 40.763C44.5102 40.763 45.0602 40.345 45.2362 39.663L46.1052 39.971C45.7532 40.994 44.8842 41.621 43.7402 41.621ZM43.6852 36.484C42.8492 36.484 42.2222 37.045 42.0462 38.024H45.1482C45.1262 37.21 44.6862 36.484 43.6852 36.484ZM49.6806 41.621C48.0856 41.621 46.9856 40.4 46.9856 38.629C46.9856 36.913 48.0746 35.637 49.6366 35.637C51.2426 35.637 52.0896 36.858 52.0896 38.453V38.783H47.9316C47.9866 39.993 48.6796 40.763 49.6806 40.763C50.4506 40.763 51.0006 40.345 51.1766 39.663L52.0456 39.971C51.6936 40.994 50.8246 41.621 49.6806 41.621ZM49.6256 36.484C48.7896 36.484 48.1626 37.045 47.9866 38.024H51.0886C51.0666 37.21 50.6266 36.484 49.6256 36.484ZM54.3121 33.602V38.431L56.8641 35.747H58.0961L55.8521 38.013L58.2831 41.5H57.1281L55.1481 38.728L54.3121 39.575V41.5H53.3221V33.602H54.3121ZM58.4956 40.279L59.2656 39.718C59.5736 40.389 60.2776 40.796 61.0256 40.796C61.6966 40.796 62.2906 40.51 62.2906 39.883C62.2906 39.256 61.7406 39.168 60.7946 38.97C59.8486 38.761 58.8586 38.552 58.8586 37.375C58.8586 36.352 59.7496 35.637 60.9706 35.637C62.0046 35.637 62.8516 36.143 63.1926 36.825L62.4886 37.386C62.1916 36.814 61.6526 36.451 60.9266 36.451C60.2666 36.451 59.8266 36.781 59.8266 37.298C59.8266 37.837 60.3326 37.936 61.1356 38.112C62.1256 38.343 63.2586 38.541 63.2586 39.795C63.2586 40.895 62.2576 41.621 61.0256 41.621C59.9806 41.621 58.9356 41.17 58.4956 40.279Z" fill="black"/>
</svg>
