<svg width="64" height="44" viewBox="0 0 64 44" fill="none" xmlns="http://www.w3.org/2000/svg">
<path d="M18.6157 1.81934L20.5049 7.39864" stroke="black" stroke-miterlimit="10" stroke-linecap="round"/>
<path d="M25.2773 0.733398V6.61944" stroke="black" stroke-miterlimit="10" stroke-linecap="round"/>
<path d="M12.6533 4.84082L16.2319 9.52479" stroke="black" stroke-miterlimit="10" stroke-linecap="round"/>
<path d="M32.0988 1.84863L30.0557 7.36991" stroke="black" stroke-miterlimit="10" stroke-linecap="round"/>
<path d="M37.8066 4.93652L34.1655 9.57075" stroke="black" stroke-miterlimit="10" stroke-linecap="round"/>
<path d="M42.3721 9.64551L37.6699 13.2062" stroke="black" stroke-miterlimit="10" stroke-linecap="round"/>
<path d="M45.5326 15.5859L39.9316 17.4637" stroke="black" stroke-miterlimit="10" stroke-linecap="round"/>
<path d="M46.6494 22.3789L40.7446 22.209" stroke="black" stroke-miterlimit="10" stroke-linecap="round"/>
<path d="M45.5347 28.7546L39.9629 26.7939" stroke="black" stroke-miterlimit="10" stroke-linecap="round"/>
<path d="M19.5639 39.9602C19.8305 40.0319 20.1048 39.8739 20.1765 39.6072C20.2482 39.3405 20.0901 39.0662 19.8235 38.9945L19.5639 39.9602ZM10.41 11.9912C10.0101 11.6911 10.01 11.6913 10.0098 11.6915C10.0097 11.6916 10.0095 11.6919 10.0094 11.6921C10.009 11.6926 10.0086 11.6931 10.0081 11.6938C10.0071 11.6951 10.0058 11.6969 10.0042 11.6991C10.0009 11.7035 9.9964 11.7096 9.99068 11.7175C9.97924 11.7332 9.96297 11.7558 9.94232 11.785C9.901 11.8435 9.84208 11.9288 9.76895 12.0397C9.62271 12.2613 9.41945 12.5853 9.18636 13.0015C8.72047 13.8333 8.13377 15.0364 7.64565 16.5285C6.66919 19.5135 6.08347 23.6696 7.66467 28.3181L8.6114 27.9961C7.11748 23.6042 7.66777 19.6773 8.59609 16.8394C9.06036 15.4202 9.61825 14.2768 10.0588 13.4901C10.279 13.097 10.4695 12.7937 10.6036 12.5904C10.6707 12.4888 10.7237 12.4121 10.7592 12.3619C10.7769 12.3367 10.7903 12.3182 10.7989 12.3064C10.8032 12.3004 10.8063 12.2962 10.8082 12.2937C10.8091 12.2925 10.8097 12.2916 10.81 12.2912C10.8102 12.291 10.8102 12.2909 10.8102 12.291C10.8102 12.291 10.8102 12.2911 10.8102 12.2911C10.8101 12.2912 10.81 12.2913 10.41 11.9912ZM7.66467 28.3181C9.24566 32.9661 12.2181 35.8766 14.7882 37.6211C16.0727 38.493 17.2591 39.0755 18.1265 39.4407C18.5605 39.6235 18.9154 39.7521 19.1639 39.8357C19.2882 39.8775 19.3859 39.908 19.4537 39.9284C19.4876 39.9386 19.514 39.9462 19.5325 39.9515C19.5417 39.9541 19.549 39.9562 19.5543 39.9576C19.5569 39.9583 19.559 39.9589 19.5606 39.9594C19.5614 39.9596 19.5621 39.9598 19.5626 39.9599C19.5629 39.96 19.5632 39.9601 19.5633 39.9601C19.5636 39.9602 19.5639 39.9602 19.6937 39.4774C19.8235 38.9945 19.8236 38.9946 19.8238 38.9946C19.8238 38.9946 19.8239 38.9946 19.8239 38.9947C19.824 38.9947 19.8239 38.9946 19.8236 38.9946C19.8232 38.9944 19.8222 38.9942 19.8207 38.9938C19.8178 38.993 19.8129 38.9916 19.806 38.9896C19.7922 38.9857 19.7706 38.9795 19.7417 38.9708C19.6837 38.9533 19.5962 38.9261 19.4826 38.8878C19.2553 38.8114 18.9237 38.6914 18.5146 38.5191C17.6958 38.1744 16.5698 37.6218 15.3498 36.7937C12.9109 35.1382 10.1055 32.3886 8.6114 27.9961L7.66467 28.3181Z" fill="black"/>
<path d="M6.09189 13.4514L11.0543 9.82035L12.0537 16.085L6.09189 13.4514Z" fill="black"/>
<path d="M25.2315 23.17C25.7461 23.17 26.1633 22.7564 26.1633 22.2461C26.1633 21.7359 25.7461 21.3223 25.2315 21.3223C24.717 21.3223 24.2998 21.7359 24.2998 22.2461C24.2998 22.7564 24.717 23.17 25.2315 23.17Z" stroke="black" stroke-miterlimit="10"/>
<path d="M25.2773 11.3018L25.3599 20.2385" stroke="black" stroke-miterlimit="10" stroke-linecap="round"/>
<path d="M35.9723 22.2959H26.8057" stroke="black" stroke-miterlimit="10" stroke-linecap="round"/>
<path d="M29.0665 41.5H28.0875V39.443H24.2705V38.618L27.7355 33.602H29.0775V38.563H30.6065V39.443H29.0665V41.5ZM25.3485 38.563H28.0765V34.614L25.3485 38.563ZM36.607 35.747H37.443L38.631 40.037L39.83 35.747H40.82L39.071 41.5H38.202L37.003 37.232L35.804 41.5H34.935L33.186 35.747H34.209L35.419 40.026L36.607 35.747ZM43.9765 41.621C42.3815 41.621 41.2815 40.4 41.2815 38.629C41.2815 36.913 42.3705 35.637 43.9325 35.637C45.5385 35.637 46.3855 36.858 46.3855 38.453V38.783H42.2275C42.2825 39.993 42.9755 40.763 43.9765 40.763C44.7465 40.763 45.2965 40.345 45.4725 39.663L46.3415 39.971C45.9895 40.994 45.1205 41.621 43.9765 41.621ZM43.9215 36.484C43.0855 36.484 42.4585 37.045 42.2825 38.024H45.3845C45.3625 37.21 44.9225 36.484 43.9215 36.484ZM49.917 41.621C48.322 41.621 47.222 40.4 47.222 38.629C47.222 36.913 48.311 35.637 49.873 35.637C51.479 35.637 52.326 36.858 52.326 38.453V38.783H48.168C48.223 39.993 48.916 40.763 49.917 40.763C50.687 40.763 51.237 40.345 51.413 39.663L52.282 39.971C51.93 40.994 51.061 41.621 49.917 41.621ZM49.862 36.484C49.026 36.484 48.399 37.045 48.223 38.024H51.325C51.303 37.21 50.863 36.484 49.862 36.484ZM54.5484 33.602V38.431L57.1004 35.747H58.3324L56.0884 38.013L58.5194 41.5H57.3644L55.3844 38.728L54.5484 39.575V41.5H53.5584V33.602H54.5484ZM58.7319 40.279L59.5019 39.718C59.8099 40.389 60.5139 40.796 61.2619 40.796C61.9329 40.796 62.5269 40.51 62.5269 39.883C62.5269 39.256 61.9769 39.168 61.0309 38.97C60.0849 38.761 59.0949 38.552 59.0949 37.375C59.0949 36.352 59.9859 35.637 61.2069 35.637C62.2409 35.637 63.0879 36.143 63.4289 36.825L62.7249 37.386C62.4279 36.814 61.8889 36.451 61.1629 36.451C60.5029 36.451 60.0629 36.781 60.0629 37.298C60.0629 37.837 60.5689 37.936 61.3719 38.112C62.3619 38.343 63.4949 38.541 63.4949 39.795C63.4949 40.895 62.4939 41.621 61.2619 41.621C60.2169 41.621 59.1719 41.17 58.7319 40.279Z" fill="black"/>
</svg>
