<svg width="70" height="70" viewBox="0 0 70 70" fill="none" xmlns="http://www.w3.org/2000/svg">
<path d="M11.6719 15.5757L35.8501 8.51953L60.0052 15.5757V30.0463C60.0052 45.2558 50.2717 58.7585 35.842 63.5665C21.4085 58.7587 11.6719 45.2529 11.6719 30.0395V15.5757Z" stroke="#DEB581" stroke-width="2.5" stroke-linejoin="round"/>
<path d="M42.9012 23.6171C46.2291 26.945 46.2291 32.3492 42.9012 35.6913C41.8772 36.7152 40.6684 37.4121 39.3884 37.8103V50.792H32.6873V37.8103C31.3931 37.4121 30.1843 36.701 29.1745 35.6913C25.8324 32.3492 25.8324 26.9592 29.1745 23.6171C30.1985 22.5931 31.4073 21.8963 32.6873 21.498V29.1493H39.3884V21.498C40.6826 21.8963 41.8915 22.6073 42.9012 23.6171Z" stroke="#DEB581" stroke-width="2.5" stroke-linecap="round" stroke-linejoin="round"/>
</svg>
