<svg width="200" height="200" viewBox="0 0 200 200" fill="none" xmlns="http://www.w3.org/2000/svg">
<mask id="mask0_6206_1852" style="mask-type:alpha" maskUnits="userSpaceOnUse" x="0" y="0" width="200" height="200">
<path d="M100 200C80.2219 200 60.8879 194.135 44.443 183.147C27.9981 172.159 15.1809 156.541 7.61209 138.268C0.0433281 119.996 -1.937 99.8891 1.92152 80.491C5.78004 61.0929 15.3041 43.2746 29.2894 29.2894C43.2746 15.3041 61.0929 5.78004 80.491 1.92152C99.8891 -1.937 119.996 0.0433281 138.268 7.61209C156.541 15.1809 172.159 27.9981 183.147 44.443C194.135 60.8879 200 80.2219 200 100C199.971 126.513 189.426 151.931 170.679 170.679C151.931 189.426 126.513 199.971 100 200ZM100 2.44709C80.7029 2.44709 61.8392 8.16949 45.7945 18.8906C29.7497 29.6117 17.2446 44.8501 9.86045 62.6785C2.47634 80.5069 0.544931 100.125 4.31049 119.051C8.07605 137.977 17.3694 155.361 31.0154 169.005C44.6613 182.65 62.0469 191.941 80.9735 195.704C99.9001 199.467 119.518 197.533 137.345 190.147C155.173 182.761 170.409 170.254 181.128 154.208C191.847 138.161 197.568 119.297 197.565 100C197.533 74.1352 187.243 49.3391 168.953 31.051C150.662 12.7629 125.865 2.47608 100 2.44709Z" fill="white"/>
<path d="M171.243 139.201C171.034 139.2 170.827 139.146 170.645 139.042C170.462 138.938 170.31 138.789 170.202 138.609C170.094 138.429 170.035 138.224 170.03 138.014C170.024 137.804 170.073 137.597 170.172 137.411C175.107 128.116 178.157 117.937 179.145 107.459C180.133 96.9812 179.041 86.4114 175.931 76.3571C175.847 76.0521 175.885 75.7264 176.037 75.4489C176.189 75.1714 176.443 74.964 176.745 74.8706C177.047 74.7773 177.374 74.8052 177.656 74.9486C177.938 75.092 178.153 75.3396 178.256 75.6388C181.462 85.9999 182.588 96.8928 181.568 107.691C180.549 118.488 177.404 128.978 172.315 138.556C172.211 138.75 172.057 138.913 171.868 139.027C171.68 139.14 171.464 139.2 171.243 139.201Z" fill="white"/>
<path d="M31.2146 143.474C31.0077 143.475 30.8041 143.422 30.6231 143.322C30.442 143.222 30.2895 143.078 30.1798 142.902C24.4526 133.561 20.6523 123.168 19.0026 112.335C17.353 101.503 17.8873 90.4498 20.5743 79.8269C20.6534 79.5138 20.8536 79.2448 21.131 79.0793C21.2684 78.9973 21.4206 78.9432 21.5788 78.9201C21.7371 78.8969 21.8984 78.9051 22.0534 78.9443C22.2085 78.9835 22.3544 79.0528 22.4826 79.1483C22.6109 79.2439 22.7191 79.3638 22.8011 79.5011C22.8831 79.6385 22.9372 79.7906 22.9603 79.9489C22.9835 80.1071 22.9752 80.2684 22.9361 80.4235C20.3284 90.7302 19.809 101.454 21.4085 111.965C23.008 122.475 26.6939 132.559 32.2494 141.624C32.4173 141.897 32.4705 142.226 32.3976 142.538C32.3246 142.85 32.1314 143.121 31.8599 143.292C31.6661 143.412 31.4426 143.475 31.2146 143.474Z" fill="white"/>
<path d="M71.6091 93.3656C72.8265 97.4683 75.6632 100.451 80.6181 100.451C87.2288 100.451 92.2933 93.9621 92.2933 83.9427V83.3461C91.1727 85.4265 89.5003 87.1578 87.46 88.3497C85.4196 89.5417 83.0903 90.1483 80.7277 90.1029C78.8674 90.1167 77.0234 89.7555 75.3059 89.0407C73.5884 88.3259 72.0326 87.2723 70.7314 85.9427C69.4302 84.6131 68.4104 83.0349 67.7329 81.3023C67.0554 79.5698 66.734 77.7184 66.7881 75.8589C66.7583 73.9105 67.121 71.976 67.8544 70.1706C68.5879 68.3653 69.6771 66.726 71.0573 65.3503C72.4375 63.9747 74.0804 62.8909 75.8881 62.1634C77.6959 61.4359 79.6316 61.0796 81.5799 61.1158C92.5368 61.1158 97.4917 70.8552 97.4917 82.7496C97.4917 96.3361 90.2724 105.223 80.4477 105.223C73.0579 105.223 68.7603 101.23 66.922 95.3257L71.6091 93.3656ZM81.5799 85.3792C82.8659 85.3763 84.1384 85.1168 85.3229 84.616C86.5073 84.1151 87.58 83.3829 88.4779 82.4623C89.3758 81.5417 90.0811 80.4511 90.5522 79.2545C91.0234 78.0579 91.2511 76.7794 91.222 75.4937C91.1646 73.6119 90.5548 71.7885 89.4685 70.2508C88.3823 68.7131 86.8676 67.5291 85.1131 66.8461C83.3587 66.1631 81.4421 66.0115 79.6021 66.4101C77.7621 66.8087 76.08 67.7398 74.7654 69.0876C73.4509 70.4353 72.562 72.1401 72.2094 73.9894C71.8568 75.8388 72.0562 77.751 72.7827 79.4879C73.5092 81.2248 74.7307 82.7095 76.295 83.7571C77.8593 84.8046 79.6972 85.3688 81.5799 85.3792Z" fill="white"/>
<path d="M118.395 61.1152C128.524 61.1152 134.66 70.1121 134.66 83.163C134.66 96.2138 128.572 105.223 118.395 105.223C108.217 105.223 102.069 96.1895 102.069 83.163C102.069 70.1364 108.205 61.1152 118.395 61.1152ZM118.395 100.207C125.31 100.207 128.998 93.1824 128.998 83.163C128.998 73.1435 125.346 66.1189 118.395 66.1189C111.443 66.1189 107.779 73.1557 107.779 83.163C107.779 93.1703 111.419 100.207 118.395 100.207Z" fill="white"/>
<path d="M67.0688 115.364H73.6673C79.7545 115.364 83.4068 119.102 83.4068 124.958C83.4068 130.813 79.7545 134.551 73.6673 134.551H67.0688V115.364ZM73.6673 131.191C77.3196 131.191 79.511 128.756 79.511 124.97C79.511 121.184 77.3805 118.749 73.6308 118.749H70.9159V131.191H73.6673Z" fill="white"/>
<path d="M94.8505 115.364L102.033 134.551H98.0524L96.5306 130.436H88.6295L87.0955 134.551H83.1997L90.3582 115.364H94.8505ZM89.8469 127.088H95.2766L92.5496 119.784L89.8469 127.088Z" fill="white"/>
<path d="M113.368 115.364H117.531L110.616 126.747V134.551H106.684V126.747L99.7446 115.364H104.018L108.693 123.144L113.368 115.364Z" fill="white"/>
<path d="M118.918 128.427C119.529 129.361 120.355 130.133 121.328 130.678C122.301 131.223 123.392 131.524 124.506 131.556C126.503 131.556 127.976 130.68 127.976 129.048C127.976 127.417 126.162 127.04 123.277 126.394C120.392 125.749 117.324 124.824 117.324 121.025C117.324 117.227 120.465 115.072 124.446 115.072C125.847 115.006 127.244 115.28 128.516 115.872C129.788 116.463 130.898 117.355 131.75 118.469L129.06 121.001C128.556 120.196 127.856 119.531 127.026 119.069C126.196 118.607 125.262 118.363 124.312 118.359C122.437 118.359 121.159 119.272 121.159 120.66C121.159 122.048 122.546 122.45 125.054 123.01C128.098 123.679 131.835 124.446 131.835 128.647C131.835 132.518 128.427 134.843 124.336 134.843C121.098 134.843 117.738 133.37 116.191 131.045L118.918 128.427Z" fill="white"/>
<path d="M37.4729 154.297C36.8692 154.259 36.2837 154.075 35.7664 153.761C35.2491 153.447 34.8155 153.013 34.5024 152.496C32.6397 149.902 33.285 146.481 36.3164 144.339C39.3478 142.196 42.8905 142.573 44.8384 145.288C45.5335 146.174 45.9113 147.267 45.9113 148.393C45.9113 149.519 45.5335 150.612 44.8384 151.497L42.7809 150.012C43.2341 149.57 43.5082 148.977 43.5509 148.346C43.5936 147.714 43.4018 147.09 43.0123 146.591C41.8922 145.033 39.7861 144.911 37.7651 146.36C35.7442 147.808 35.172 149.866 36.3164 151.449C36.5122 151.741 36.7641 151.991 37.0574 152.185C37.3508 152.379 37.6798 152.513 38.0253 152.578C38.3707 152.644 38.7258 152.64 39.0699 152.568C39.414 152.495 39.7402 152.355 40.0295 152.155L38.3008 149.72L40.0295 148.502L43.1949 152.897L37.7651 156.793L36.5355 154.979L37.4729 154.297Z" fill="white"/>
<path d="M46.2019 158.802L51.0716 153.312L52.9586 154.992L48.0889 160.421C46.7132 161.955 46.8714 163.294 48.0158 164.293C49.1602 165.291 50.4507 165.328 51.8751 163.781L56.7448 158.352L58.6197 160.02L53.7499 165.51C53.3496 166.065 52.8309 166.523 52.2314 166.853C51.632 167.182 50.9667 167.375 50.2839 167.415C49.6011 167.456 48.9178 167.345 48.2833 167.089C47.6489 166.833 47.0793 166.439 46.6158 165.936C46.0601 165.536 45.6006 165.017 45.2709 164.417C44.9412 163.817 44.7495 163.151 44.7099 162.468C44.6702 161.784 44.7836 161.101 45.0417 160.466C45.2998 159.832 45.6961 159.264 46.2019 158.802Z" fill="white"/>
<path d="M67.8717 165.79L65.8508 178.694L63.6351 177.477L64.0855 174.713L59.6906 172.279L57.5479 174.093L55.3809 172.875L65.376 164.365L67.8717 165.79ZM61.4193 170.732L64.4264 172.437L65.2299 167.482L61.4193 170.732Z" fill="white"/>
<path d="M74.7137 182.019L72.2788 181.301L75.8215 169.589L80.6182 171.038C83.3088 171.853 84.6114 173.631 83.8809 176.053C83.6799 176.853 83.2035 177.556 82.5356 178.039C81.8677 178.522 81.0509 178.755 80.2286 178.695L81.7504 184.162L79.0112 183.334L77.6233 178.16L75.992 177.673L74.7137 182.019ZM78.9138 176.346C80.3139 176.772 81.2148 176.346 81.5313 175.347C81.8478 174.349 81.3122 173.46 79.9121 173.034L77.6477 172.352L76.6372 175.664L78.9138 176.346Z" fill="white"/>
<path d="M96.1056 173.728L99.7579 186.28L97.2256 186.085L96.4586 183.394L91.4306 183.005L90.2132 185.549L87.7783 185.354L93.2811 173.509L96.1056 173.728ZM92.3437 180.947L95.789 181.203L94.4255 176.333L92.3437 180.947Z" fill="white"/>
<path d="M116.886 184.441L114.731 184.77L107.828 177.246L109.045 185.598L106.61 185.951L104.821 173.837L107.341 173.472L113.818 180.631L112.6 172.681L115.035 172.34L116.886 184.441Z" fill="white"/>
<path d="M126.101 170.988L129.681 180.411L127.331 181.3L123.752 171.877L120.099 173.241L119.333 171.22L128.865 167.567L129.632 169.588L126.101 170.988Z" fill="white"/>
<path d="M140.017 160.981L141.174 162.808L136.109 166.009L137.57 168.31L141.807 165.644L142.951 167.458L138.715 170.137L140.334 172.693L145.398 169.503L146.555 171.33L139.409 175.846L132.871 165.498L140.017 160.981Z" fill="white"/>
<path d="M150.013 152.191L151.498 153.762L147.152 157.877L149.027 159.849L152.679 156.404L154.152 157.962L150.5 161.407L152.594 163.611L156.94 159.496L158.425 161.066L152.338 166.886L143.926 157.999L150.013 152.191Z" fill="white"/>
<path d="M153.19 148.539L155.625 145.07C156.082 144.409 156.665 143.846 157.34 143.41C158.015 142.975 158.769 142.678 159.56 142.534C160.35 142.39 161.16 142.404 161.945 142.574C162.73 142.743 163.474 143.066 164.135 143.523C164.795 143.981 165.359 144.564 165.794 145.239C166.229 145.914 166.527 146.668 166.67 147.458C166.814 148.248 166.8 149.059 166.631 149.844C166.461 150.629 166.138 151.373 165.681 152.033L163.246 155.491L153.19 148.539ZM163.879 150.816C164.384 149.949 164.543 148.923 164.324 147.943C164.105 146.964 163.525 146.103 162.698 145.533C161.872 144.964 160.86 144.728 159.867 144.872C158.874 145.016 157.972 145.53 157.341 146.311L156.355 147.736L162.881 152.252L163.879 150.816Z" fill="white"/>
<path d="M22.5338 61.7598L24.5425 62.5876L22.2416 68.1148L24.7617 69.1618L26.6852 64.5355L28.6696 65.3634L26.7948 69.9896L29.5949 71.207L31.8837 65.6921L33.8803 66.5199L30.5932 74.275L19.2954 69.5757L22.5338 61.7598Z" fill="white"/>
<path d="M28.488 51.4854L41.2589 54.2124L39.8954 56.3551L37.1562 55.7585L34.4413 60.0074L36.1335 62.2475L34.7943 64.3414L26.9419 53.8959L28.488 51.4854ZM33.0656 58.2056L34.9404 55.2837L30.0707 54.2246L33.0656 58.2056Z" fill="white"/>
<path d="M40.504 49.1473C41.2015 49.2674 41.9176 49.2197 42.5929 49.0079C43.2683 48.7962 43.8835 48.4267 44.3876 47.9299C45.2398 46.9803 45.459 45.909 44.692 45.215C43.925 44.5211 42.9754 45.215 41.4293 46.2864C39.8831 47.3577 38.1178 48.4169 36.3282 46.7855C34.5386 45.1542 34.8917 42.7315 36.5961 40.8566C37.1686 40.1792 37.8952 39.6488 38.715 39.3098C39.5347 38.9709 40.4237 38.8334 41.3075 38.9087L41.4049 41.161C40.8091 41.0572 40.1969 41.103 39.6232 41.2942C39.0495 41.4855 38.5322 41.8162 38.1178 42.2567C37.3022 43.1454 37.1804 44.1315 37.8378 44.6915C38.4953 45.2516 39.2744 44.8011 40.6258 43.8637C42.2449 42.7193 44.2172 41.2827 46.2016 43.0967C48.186 44.9107 47.6382 47.3699 45.8851 49.2934C45.2332 50.0457 44.4156 50.6363 43.4966 51.0187C42.5776 51.4011 41.5823 51.5648 40.5892 51.497L40.504 49.1473Z" fill="white"/>
<path d="M49.1599 29.6684L51.2417 28.0127L52.2887 36.4495L55.381 40.3453L53.4209 41.9036L50.3286 38.0078L42.3423 35.0738L44.485 33.3816L49.9269 35.4147L49.1599 29.6684Z" fill="white"/>
<path d="M70.4296 31.4587L64.2085 24.361L67.7147 32.6152L65.5477 33.5405L60.7632 22.2549L63.965 20.8914L69.9792 27.8064L69.1635 18.6878L72.3166 17.3486L77.1011 28.6221L74.9098 29.5473L71.4035 21.2931L72.1949 30.7039L70.4296 31.4587Z" fill="white"/>
<path d="M83.2352 14.4872C86.5222 13.8297 89.4076 15.9237 90.1258 19.5517C90.8441 23.1796 88.9084 26.211 85.6822 26.8563C82.456 27.5015 79.4855 25.4197 78.7672 21.7918C78.0489 18.1638 79.9238 15.1446 83.2352 14.4872ZM83.6613 16.642C81.7621 17.0194 80.7638 18.8456 81.2264 21.3048C81.689 23.764 83.3447 25.0788 85.2439 24.7014C87.1431 24.324 88.1171 22.4979 87.6788 20.0387C87.2405 17.5794 85.5239 16.2768 83.6613 16.642Z" fill="white"/>
<path d="M104.712 25.189H102.533L96.6769 16.8374L96.7986 25.2742H94.3638L94.1812 13.0999H96.7134L102.204 21.0375L102.082 13.0146H104.517L104.712 25.189Z" fill="white"/>
<path d="M118.747 14.9624L118.382 17.0564L112.49 16.0581L112.015 18.7973L116.958 19.6252L116.605 21.7435L111.662 20.9157L111.151 23.8984L117.055 24.9088L116.69 27.0394L108.363 25.5784L110.408 13.5137L118.747 14.9624Z" fill="white"/>
<path d="M131.07 18.7848L133.59 19.6613L127.028 25.0668L125.409 29.7539L122.974 28.9382L124.618 24.2389L122.816 15.9238L125.397 16.8247L126.614 22.4858L131.07 18.7848Z" fill="white"/>
<path d="M143.28 24.6172L147.505 27.3808C149.721 28.8417 150.268 30.5826 149.124 32.3357C148.827 32.8082 148.393 33.1783 147.879 33.396C147.365 33.6137 146.797 33.6685 146.251 33.5531C146.666 34.0531 146.905 34.6765 146.929 35.3261C146.953 35.9757 146.762 36.615 146.385 37.1446C145.167 38.9342 143.207 39.1533 141.052 37.7289L136.572 34.7949L143.28 24.6172ZM139.738 34.4175L142.051 35.9393C143.086 36.6089 143.986 36.4506 144.486 35.6593C144.985 34.868 144.79 33.9914 143.755 33.3097L141.442 31.7879L139.738 34.4175ZM144.607 31.4105C145.654 32.0922 146.494 32.0801 147.042 31.2644C147.59 30.4487 147.249 29.6695 146.214 28.9878L144.206 27.6729L142.611 30.1078L144.607 31.4105Z" fill="white"/>
<path d="M159.837 37.3633L154.772 49.4159L152.922 47.6628L154.018 45.094L150.365 41.6243L147.857 42.8418L146.043 41.1374L157.767 35.3789L159.837 37.3633ZM152.386 40.6139L154.906 42.9879L156.866 38.386L152.386 40.6139Z" fill="white"/>
<path d="M160.714 53.8836C161.085 54.3906 161.624 54.7488 162.236 54.8938C162.847 55.0389 163.49 54.9613 164.049 54.6749L164.829 57.0246C163.787 57.4326 162.637 57.474 161.568 57.1422C160.5 56.8103 159.576 56.1249 158.948 55.1984C156.964 52.5566 157.609 49.1113 160.568 46.8468C163.526 44.5824 167.056 44.9963 169.09 47.6382C169.801 48.5023 170.198 49.5822 170.215 50.7012C170.233 51.8203 169.871 52.9122 169.187 53.7984L167.117 52.3618C167.551 51.904 167.806 51.3063 167.837 50.6767C167.869 50.0471 167.674 49.4271 167.288 48.9286C166.168 47.4312 164.086 47.3582 162.101 48.8434C160.117 50.3287 159.594 52.3618 160.714 53.8836Z" fill="white"/>
<path d="M170.659 60.7983L177.756 62.5149L179.083 65.1324L172.351 63.3914L168.285 70.8908L166.97 68.2734L169.916 62.7706L167.846 62.2227L164.718 63.8054L163.585 61.5653L174.542 56.0625L175.675 58.2904L170.659 60.7983Z" fill="white"/>
<path d="M99.9987 164.67C87.2082 164.67 74.7049 160.877 64.0699 153.771C53.435 146.665 45.1461 136.565 40.2514 124.748C35.3566 112.931 34.076 99.9284 36.5713 87.3837C39.0666 74.8389 45.2258 63.3158 54.2701 54.2715C63.3143 45.2273 74.8374 39.068 87.3822 36.5727C99.927 34.0774 112.93 35.3581 124.747 40.2528C136.564 45.1475 146.664 53.4365 153.77 64.0714C160.876 74.7063 164.669 87.2096 164.669 100C164.649 117.146 157.83 133.584 145.706 145.707C133.582 157.831 117.144 164.651 99.9987 164.67ZM99.9987 37.7528C87.6892 37.7528 75.6562 41.4031 65.4214 48.2422C55.1866 55.0812 47.2098 64.8017 42.4997 76.1744C37.7896 87.5471 36.5579 100.061 38.9602 112.134C41.3626 124.207 47.2911 135.296 55.9961 143.999C64.701 152.702 75.7914 158.629 87.8647 161.029C99.9379 163.429 112.452 162.195 123.824 157.482C135.195 152.77 144.914 144.791 151.751 134.555C158.588 124.319 162.236 112.285 162.234 99.9758C162.215 83.4771 155.651 67.6598 143.984 55.9946C132.316 44.3293 116.497 37.7689 99.9987 37.7528Z" fill="white"/>
</mask>
<g mask="url(#mask0_6206_1852)">
<rect x="-13" y="-10" width="224" height="210" fill="url(#paint0_linear_6206_1852)"/>
</g>
<defs>
<linearGradient id="paint0_linear_6206_1852" x1="14" y1="-10" x2="211" y2="200" gradientUnits="userSpaceOnUse">
<stop stop-color="#E7BF8D"/>
<stop offset="1" stop-color="#A67750"/>
</linearGradient>
</defs>
</svg>
