<svg width="273" height="122" viewBox="0 0 273 122" fill="none" xmlns="http://www.w3.org/2000/svg">
<g opacity="0.15" filter="url(#filter0_b_21_3077)">
<rect x="1" width="28.1011" height="86.1163" rx="3.67956" fill="#3F3636"/>
</g>
<line x1="4.8125" y1="11.9091" x2="25.0501" y2="11.9091" stroke="#FBFAF4" stroke-width="1.4309"/>
<line x1="4.8125" y1="19.0922" x2="25.0501" y2="19.0922" stroke="#FBFAF4" stroke-width="1.4309"/>
<line x1="4.8125" y1="26.2753" x2="25.0501" y2="26.2753" stroke="#FBFAF4" stroke-width="1.4309"/>
<line x1="4.8125" y1="33.4584" x2="25.0501" y2="33.4584" stroke="#FBFAF4" stroke-width="1.4309"/>
<line x1="4.8125" y1="40.642" x2="25.0501" y2="40.642" stroke="#FBFAF4" stroke-width="1.4309"/>
<line x1="4.8125" y1="47.8251" x2="25.0501" y2="47.8251" stroke="#FBFAF4" stroke-width="1.4309"/>
<line x1="4.8125" y1="55.0082" x2="25.0501" y2="55.0082" stroke="#FBFAF4" stroke-width="1.4309"/>
<line x1="4.8125" y1="62.1918" x2="25.0501" y2="62.1918" stroke="#FBFAF4" stroke-width="1.4309"/>
<line x1="4.8125" y1="69.3749" x2="25.0501" y2="69.3749" stroke="#FBFAF4" stroke-width="1.4309"/>
<line x1="4.8125" y1="76.558" x2="25.0501" y2="76.558" stroke="#FBFAF4" stroke-width="1.4309"/>
<rect x="2.20117" y="93.9795" width="25.6966" height="25.6966" rx="12.8483" fill="#CEB09A"/>
<rect x="1.48572" y="93.264" width="27.1275" height="27.1275" rx="13.5637" stroke="white" stroke-opacity="0.2" stroke-width="1.4309"/>
<g opacity="0.15" filter="url(#filter1_b_21_3077)">
<rect x="50.1426" width="27.1946" height="86.1163" rx="3.67956" fill="#3F3636"/>
</g>
<line x1="53.7129" y1="19.2689" x2="73.9505" y2="19.2689" stroke="#FBFAF4" stroke-width="1.4309"/>
<line x1="53.7129" y1="26.452" x2="73.9505" y2="26.452" stroke="#FBFAF4" stroke-width="1.4309"/>
<line x1="53.7129" y1="33.6356" x2="73.9505" y2="33.6356" stroke="#FBFAF4" stroke-width="1.4309"/>
<line x1="53.7129" y1="40.8182" x2="73.9505" y2="40.8182" stroke="#FBFAF4" stroke-width="1.4309"/>
<line x1="53.7129" y1="48.0018" x2="73.9505" y2="48.0018" stroke="#FBFAF4" stroke-width="1.4309"/>
<line x1="53.7129" y1="55.1854" x2="73.9505" y2="55.1854" stroke="#FBFAF4" stroke-width="1.4309"/>
<line x1="53.7129" y1="62.368" x2="73.9505" y2="62.368" stroke="#FBFAF4" stroke-width="1.4309"/>
<line x1="53.7129" y1="69.5516" x2="73.9505" y2="69.5516" stroke="#FBFAF4" stroke-width="1.4309"/>
<line x1="53.7129" y1="76.7347" x2="73.9505" y2="76.7347" stroke="#FBFAF4" stroke-width="1.4309"/>
<rect x="50.1426" y="93.9795" width="25.6966" height="25.6966" rx="12.8483" fill="#B49075"/>
<rect x="49.4271" y="93.264" width="27.1275" height="27.1275" rx="13.5637" stroke="white" stroke-opacity="0.2" stroke-width="1.4309"/>
<g opacity="0.15" filter="url(#filter2_b_21_3077)">
<rect x="98.3789" width="28.1011" height="86.1163" rx="3.67956" fill="#3F3636"/>
</g>
<line x1="102.617" y1="33.8143" x2="122.855" y2="33.8143" stroke="#FBFAF4" stroke-width="1.4309"/>
<line x1="102.617" y1="40.9974" x2="122.855" y2="40.9974" stroke="#FBFAF4" stroke-width="1.4309"/>
<line x1="102.617" y1="48.1805" x2="122.855" y2="48.1805" stroke="#FBFAF4" stroke-width="1.4309"/>
<line x1="102.617" y1="55.3637" x2="122.855" y2="55.3637" stroke="#FBFAF4" stroke-width="1.4309"/>
<line x1="102.617" y1="62.5472" x2="122.855" y2="62.5472" stroke="#FBFAF4" stroke-width="1.4309"/>
<line x1="102.617" y1="69.7304" x2="122.855" y2="69.7304" stroke="#FBFAF4" stroke-width="1.4309"/>
<line x1="102.617" y1="76.9135" x2="122.855" y2="76.9135" stroke="#FBFAF4" stroke-width="1.4309"/>
<rect x="99.582" y="93.9795" width="25.6966" height="25.6966" rx="12.8483" fill="#A58162"/>
<rect x="98.8666" y="93.264" width="27.1275" height="27.1275" rx="13.5637" stroke="white" stroke-opacity="0.2" stroke-width="1.4309"/>
<g opacity="0.15" filter="url(#filter3_b_21_3077)">
<rect x="147.521" width="28.1011" height="86.1163" rx="3.67956" fill="#3F3636"/>
</g>
<line x1="151.518" y1="48.5355" x2="171.755" y2="48.5355" stroke="#FBFAF4" stroke-width="1.4309"/>
<line x1="151.518" y1="55.7191" x2="171.755" y2="55.7191" stroke="#FBFAF4" stroke-width="1.4309"/>
<line x1="151.518" y1="62.9022" x2="171.755" y2="62.9022" stroke="#FBFAF4" stroke-width="1.4309"/>
<line x1="151.518" y1="70.0853" x2="171.755" y2="70.0853" stroke="#FBFAF4" stroke-width="1.4309"/>
<line x1="151.518" y1="77.2684" x2="171.755" y2="77.2684" stroke="#FBFAF4" stroke-width="1.4309"/>
<rect x="148.725" y="93.9795" width="25.6966" height="25.6966" rx="12.8483" fill="#8F6F53"/>
<rect x="148.009" y="93.264" width="27.1275" height="27.1275" rx="13.5637" stroke="white" stroke-opacity="0.2" stroke-width="1.4309"/>
<g opacity="0.15" filter="url(#filter4_b_21_3077)">
<rect x="196.662" width="28.1011" height="86.1163" rx="3.67956" fill="#3F3636"/>
</g>
<line x1="200.418" y1="63.4906" x2="220.656" y2="63.4906" stroke="#FBFAF4" stroke-width="1.4309"/>
<line x1="200.418" y1="70.6742" x2="220.656" y2="70.6742" stroke="#FBFAF4" stroke-width="1.4309"/>
<line x1="200.418" y1="77.8573" x2="220.656" y2="77.8573" stroke="#FBFAF4" stroke-width="1.4309"/>
<rect x="197.865" y="93.9795" width="25.6966" height="25.6966" rx="12.8483" fill="#8A5F4E"/>
<rect x="197.15" y="93.264" width="27.1275" height="27.1275" rx="13.5637" stroke="white" stroke-opacity="0.2" stroke-width="1.4309"/>
<g opacity="0.15" filter="url(#filter5_b_21_3077)">
<rect x="245.805" width="27.1946" height="86.1163" rx="3.67956" fill="#3F3636"/>
</g>
<line x1="249.318" y1="78.0775" x2="269.556" y2="78.0775" stroke="#FBFAF4" stroke-width="1.4309"/>
<rect x="245.805" y="93.9795" width="25.6966" height="25.6966" rx="12.8483" fill="#785740"/>
<rect x="245.089" y="93.264" width="27.1275" height="27.1275" rx="13.5637" stroke="white" stroke-opacity="0.2" stroke-width="1.4309"/>
<defs>
<filter id="filter0_b_21_3077" x="-4.72359" y="-5.72359" width="39.5487" height="97.5634" filterUnits="userSpaceOnUse" color-interpolation-filters="sRGB">
<feFlood flood-opacity="0" result="BackgroundImageFix"/>
<feGaussianBlur in="BackgroundImageFix" stdDeviation="2.86179"/>
<feComposite in2="SourceAlpha" operator="in" result="effect1_backgroundBlur_21_3077"/>
<feBlend mode="normal" in="SourceGraphic" in2="effect1_backgroundBlur_21_3077" result="shape"/>
</filter>
<filter id="filter1_b_21_3077" x="44.419" y="-5.72359" width="38.6425" height="97.5634" filterUnits="userSpaceOnUse" color-interpolation-filters="sRGB">
<feFlood flood-opacity="0" result="BackgroundImageFix"/>
<feGaussianBlur in="BackgroundImageFix" stdDeviation="2.86179"/>
<feComposite in2="SourceAlpha" operator="in" result="effect1_backgroundBlur_21_3077"/>
<feBlend mode="normal" in="SourceGraphic" in2="effect1_backgroundBlur_21_3077" result="shape"/>
</filter>
<filter id="filter2_b_21_3077" x="92.6553" y="-5.72359" width="39.5487" height="97.5634" filterUnits="userSpaceOnUse" color-interpolation-filters="sRGB">
<feFlood flood-opacity="0" result="BackgroundImageFix"/>
<feGaussianBlur in="BackgroundImageFix" stdDeviation="2.86179"/>
<feComposite in2="SourceAlpha" operator="in" result="effect1_backgroundBlur_21_3077"/>
<feBlend mode="normal" in="SourceGraphic" in2="effect1_backgroundBlur_21_3077" result="shape"/>
</filter>
<filter id="filter3_b_21_3077" x="141.798" y="-5.72359" width="39.5487" height="97.5634" filterUnits="userSpaceOnUse" color-interpolation-filters="sRGB">
<feFlood flood-opacity="0" result="BackgroundImageFix"/>
<feGaussianBlur in="BackgroundImageFix" stdDeviation="2.86179"/>
<feComposite in2="SourceAlpha" operator="in" result="effect1_backgroundBlur_21_3077"/>
<feBlend mode="normal" in="SourceGraphic" in2="effect1_backgroundBlur_21_3077" result="shape"/>
</filter>
<filter id="filter4_b_21_3077" x="190.939" y="-5.72359" width="39.5487" height="97.5634" filterUnits="userSpaceOnUse" color-interpolation-filters="sRGB">
<feFlood flood-opacity="0" result="BackgroundImageFix"/>
<feGaussianBlur in="BackgroundImageFix" stdDeviation="2.86179"/>
<feComposite in2="SourceAlpha" operator="in" result="effect1_backgroundBlur_21_3077"/>
<feBlend mode="normal" in="SourceGraphic" in2="effect1_backgroundBlur_21_3077" result="shape"/>
</filter>
<filter id="filter5_b_21_3077" x="240.081" y="-5.72359" width="38.6425" height="97.5634" filterUnits="userSpaceOnUse" color-interpolation-filters="sRGB">
<feFlood flood-opacity="0" result="BackgroundImageFix"/>
<feGaussianBlur in="BackgroundImageFix" stdDeviation="2.86179"/>
<feComposite in2="SourceAlpha" operator="in" result="effect1_backgroundBlur_21_3077"/>
<feBlend mode="normal" in="SourceGraphic" in2="effect1_backgroundBlur_21_3077" result="shape"/>
</filter>
</defs>
</svg>
