<svg width="750" height="1334" viewBox="0 0 750 1334" fill="none" xmlns="http://www.w3.org/2000/svg">
<path fill-rule="evenodd" clip-rule="evenodd" d="M0 0H750V1334H0V0ZM459.788 733.832H469.452C468.556 732.232 467.276 730.376 466.124 728.904L469.9 727.496C471.564 729.352 473.42 732.04 474.252 733.832H483.852C485.196 731.976 486.86 729.16 487.82 727.368L492.364 728.84C491.148 730.696 489.804 732.36 488.588 733.832H498.508V737.288H481.036V741.128H496.332V744.392H481.036V748.552H500.62V752.072H457.804V748.552H476.428V744.392H461.964V741.128H476.428V737.288H459.788V733.832ZM488.46 755.464L491.276 753.352C493.964 755.016 497.292 757.576 498.828 759.432L495.884 761.8C494.348 760.008 491.148 757.256 488.46 755.464ZM455.884 727.624L460.108 728.904C458.444 733.448 456.332 737.992 453.964 742.28V785.8H449.42V749.64C447.5 752.328 445.58 754.824 443.532 757C443.084 755.976 441.74 753.608 440.972 752.52C446.924 746.504 452.492 737.16 455.884 727.624ZM497.804 768.456C495.82 771.592 493.26 774.472 490.38 776.968C492.044 780.104 494.092 781.832 496.268 781.832C497.676 781.768 498.124 780.424 498.316 776.2C499.276 777.096 500.556 777.8 501.58 778.184C501.004 784.136 499.596 785.8 496.012 785.864C492.364 785.864 489.356 783.56 487.116 779.656C484.3 781.704 481.356 783.496 478.476 784.968C477.9 784.2 476.492 782.536 475.66 781.832C479.052 780.36 482.38 778.376 485.452 776.136C484.3 773.32 483.468 769.992 482.828 766.28H471.948V770.76L479.948 769.672L480.012 773.128L471.948 774.28V781.256C471.948 783.432 471.5 784.456 469.9 785.096C468.428 785.672 465.996 785.672 462.348 785.672C462.156 784.648 461.58 783.112 461.004 782.024C463.628 782.152 466.06 782.152 466.764 782.088C467.468 782.024 467.724 781.896 467.724 781.192V774.856L457.484 776.264L456.972 772.616C459.916 772.296 463.628 771.848 467.724 771.272V766.28H457.292V762.76H467.724V758.344C464.652 758.792 461.58 759.112 458.7 759.304C458.508 758.472 458.06 757.128 457.612 756.36C464.14 755.72 471.948 754.632 476.236 753.288L478.988 756.168C476.94 756.744 474.508 757.256 471.948 757.704V762.76H482.316C481.996 759.88 481.74 756.808 481.676 753.608H485.836C485.9 756.872 486.092 759.944 486.476 762.76H500.94V766.28H486.988C487.436 768.904 488.076 771.272 488.78 773.32C490.828 771.4 492.62 769.352 493.964 767.176L497.804 768.456ZM427.212 780.168H411.276C406.796 780.168 405.964 779.4 405.964 776.008V766.728L435.212 762.888L434.572 758.472L405.964 762.184V752.2L430.924 748.68L430.284 744.264L405.964 747.656V737.736C414.22 736.008 422.028 734.024 428.108 731.592L424.076 727.88C414.22 731.976 396.172 735.432 380.364 737.544C380.876 738.568 381.58 740.488 381.772 741.64C388.044 740.872 394.636 739.848 401.1 738.632V748.36L381.516 751.048L382.22 755.528L401.1 752.904V762.824L379.532 765.64L380.236 770.12L401.1 767.368V775.88C401.1 782.92 403.34 784.776 411.02 784.776H427.34C434.38 784.776 435.98 781.96 436.812 773.128C435.34 772.744 433.356 772.04 432.14 771.144C431.628 778.504 430.988 780.168 427.212 780.168ZM353.804 727.048L357.836 728.584C357.388 729.416 356.876 730.248 356.364 731.08C361.74 737.8 367.692 742.024 373.644 745.288C372.492 746.12 371.084 747.72 370.444 748.936C364.812 745.352 359.372 741.192 353.996 734.408C349.26 740.552 343.052 745.992 336.716 749.576C336.012 748.552 334.796 747.08 333.58 746.184C341.58 742.024 349.516 734.728 353.804 727.048ZM331.66 729.8L334.796 731.656C332.748 736.904 330.252 743.176 327.948 748.168C332.876 753.48 334.092 758.024 334.092 761.992C334.092 765.512 333.324 768.2 331.532 769.48C330.572 770.12 329.356 770.568 328.076 770.76C326.732 770.888 325.004 770.888 323.468 770.824C323.404 769.608 323.02 767.816 322.38 766.6C323.852 766.728 325.26 766.728 326.284 766.664C327.18 766.664 327.884 766.472 328.396 766.024C329.484 765.32 329.868 763.656 329.868 761.544C329.804 758.088 328.588 753.8 323.724 748.68C325.644 744.2 327.628 738.632 329.1 734.344H320.908V785.736H316.684V730.056H330.956L331.66 729.8ZM341.836 766.856L346.06 768.072C343.628 773.128 339.98 778.504 336.716 782.024C335.948 781.32 334.156 780.04 333.068 779.464C336.396 776.2 339.724 771.4 341.836 766.856ZM372.3 763.272H356.62V780.36C356.62 783.048 355.98 784.264 354.188 785.032C352.332 785.8 349.452 785.864 344.78 785.864C344.524 784.584 343.948 782.728 343.18 781.448C346.764 781.576 349.836 781.576 350.732 781.576C351.756 781.512 352.012 781.192 352.012 780.36V763.272H335.308V758.92H352.012V751.176H341.26V746.952H366.348V751.176H356.62V758.92H372.3V763.272ZM360.268 768.136L363.852 766.216C367.436 770.312 371.34 775.752 373.132 779.272L369.42 781.448C367.564 777.8 363.724 772.168 360.268 768.136ZM271.052 741.96V755.336H257.612V741.96H271.052ZM271.052 774.92H257.612V759.56H271.052V774.92ZM268.108 728.264L262.988 727.304C262.54 730.312 261.388 734.6 260.428 737.672H253.26V784.264H257.612V779.208H275.404V737.672H264.78C265.593 735.616 266.442 733.132 267.272 730.699L267.281 730.673C267.437 730.218 267.591 729.765 267.745 729.317C267.867 728.962 267.988 728.611 268.108 728.264ZM306.7 739.912V737.48H287.564C288.652 734.472 289.548 731.4 290.316 728.264L285.772 727.176C283.724 735.944 280.268 744.776 275.98 750.408C277.004 751.048 279.052 752.328 279.884 753.096C282.124 750.088 284.108 746.184 285.9 741.896H302.156C301.324 767.368 300.364 777.096 298.252 779.336C297.612 780.168 296.908 780.296 295.628 780.296C294.156 780.296 290.316 780.296 286.156 779.912C287.052 781.256 287.628 783.176 287.756 784.584C291.34 784.776 294.988 784.904 297.228 784.648C299.404 784.456 300.876 783.88 302.284 782.088C304.844 778.952 305.676 769.096 306.7 739.912ZM292.556 768.776L296.588 766.28C294.54 762.504 290.124 756.36 286.54 751.816L282.828 753.992C286.348 758.6 290.636 764.936 292.556 768.776ZM607.425 643.712V648.064H578.561V643.712H592.256C591.36 641.472 589.505 638.336 587.713 635.968L591.552 634.368C593.536 636.736 595.585 640 596.545 642.112L593.089 643.712H607.425ZM606.912 660.48L603.136 662.592C601.984 659.584 598.977 654.848 596.097 651.392L599.681 649.536C602.56 652.8 605.633 657.408 606.912 660.48ZM589.76 650.944C587.393 656.384 583.745 662.4 580.48 666.304C579.776 665.536 578.113 664.064 577.089 663.424C580.417 659.84 583.617 654.656 585.665 649.664L589.76 650.944ZM604.609 683.392L600.704 686.336C599.36 683.648 597.057 680.32 594.305 676.864C590.657 682.752 586.112 687.616 580.672 691.328C579.969 690.432 578.369 688.704 577.344 687.872C583.104 684.288 587.841 679.36 591.297 673.216C588.865 670.336 586.177 667.456 583.681 664.96L587.136 662.4C589.185 664.448 591.361 666.688 593.536 668.992C594.817 666.176 595.904 663.232 596.801 660.032L601.217 660.928C600.065 665.152 598.465 668.992 596.737 672.576C600.001 676.48 602.881 680.32 604.609 683.392ZM627.201 650.496H616.577C616.523 650.656 616.47 650.816 616.418 650.975L616.333 651.234L616.198 651.647C615.83 652.775 615.471 653.875 615.041 654.976C616.385 661.184 618.368 667.072 620.928 672.192C624 666.24 625.921 659.008 627.201 650.496ZM635.393 650.496H631.808C630.208 661.184 627.649 669.824 623.489 676.8C626.881 682.112 631.169 686.4 636.224 689.024C635.137 689.856 633.664 691.648 632.896 692.8C628.096 689.984 624.065 685.952 620.801 680.896C617.025 685.888 612.225 689.856 606.081 693.056C605.505 692.224 603.776 690.368 602.817 689.536C609.536 686.4 614.529 682.176 618.305 676.672C615.873 672 613.888 666.816 612.353 661.184C611.265 663.296 610.049 665.28 608.833 667.072C608.193 666.176 606.657 664.384 605.633 663.552C610.753 656.576 613.953 645.696 615.873 634.368L620.289 635.008C619.585 638.784 618.817 642.496 617.857 646.016H635.393V650.496ZM558.465 658.88V665.344H531.776V658.88H558.465ZM558.465 676.16H531.585C531.713 674.496 531.776 672.96 531.776 671.424V669.44H558.465V676.16ZM536.065 647.168H570.625V642.688H537.984C538.945 640.384 539.777 637.952 540.481 635.584L535.745 634.432C534.977 637.184 534.017 639.936 532.929 642.688H514.945V647.168H530.88C526.913 655.424 521.153 662.976 513.665 668.032C514.561 668.992 516.033 670.72 516.672 671.744C520.577 668.992 524.033 665.6 527.041 661.952V671.296C527.041 677.376 526.465 684.416 521.153 689.536C522.177 690.24 523.905 692.224 524.481 693.248C528.257 689.728 530.177 684.928 531.009 680.256H558.465V686.912C558.465 687.872 558.081 688.192 556.993 688.256C556.821 688.256 556.59 688.257 556.306 688.259L556.277 688.259H556.276H556.275H556.274H556.273C554.642 688.27 551.337 688.29 547.713 688.128C548.417 689.472 549.121 691.392 549.312 692.8C554.753 692.8 558.337 692.736 560.448 691.968C562.497 691.2 563.137 689.792 563.137 686.912V654.592H532.161C533.569 652.224 534.849 649.664 536.065 647.168ZM462.081 640.512V656.384H457.537V636.928H499.969V656.384H495.233V640.512H462.081ZM492.417 644.352V647.552H464.897V644.352H492.417ZM464.897 654.656V651.456H492.289V654.656H464.897ZM471.745 667.072V662.912H460.225V667.072H471.745ZM460.225 678.464V683.712C461.367 683.592 462.534 683.472 463.72 683.349L463.741 683.347C466.338 683.08 469.026 682.803 471.745 682.496V678.464H460.225ZM471.745 674.88V670.592H460.225V674.88H471.745ZM506.561 662.912H476.353V692.864H471.745V686.336C468.169 686.743 464.606 687.163 461.237 687.561C457.188 688.038 453.419 688.483 450.241 688.832L449.729 684.672C451.521 684.544 453.569 684.352 455.809 684.096V662.912H450.497V658.944H506.561V662.912ZM498.689 670.656H485.313C486.785 674.24 489.025 677.504 491.777 680.256C494.593 677.504 497.025 674.304 498.689 670.656ZM501.569 666.752L504.449 667.904C502.465 674.048 499.137 679.104 495.041 683.072C498.625 685.824 502.913 687.872 507.777 689.088C506.817 689.984 505.537 691.712 504.961 692.8C499.905 691.328 495.489 689.024 491.777 685.952C487.937 688.896 483.585 691.136 479.105 692.672C478.529 691.648 477.377 689.856 476.481 689.024C480.705 687.744 484.865 685.696 488.577 682.944C485.505 679.68 483.073 675.84 481.345 671.488L484.097 670.656H478.081V666.88H500.737L501.569 666.752ZM402.84 636.16H383.384V640.64H394.776C388.44 647.68 378.904 654.912 370.968 658.624C372.056 659.648 373.336 661.248 373.912 662.464C382.872 657.664 393.752 648.832 400.344 640.704C406.936 649.216 417.048 657.472 426.712 662.016C427.352 660.8 428.952 658.816 429.912 657.856C419.8 653.632 408.792 645.056 402.84 636.16ZM402.584 686.784V676.16H420.76V671.936H402.584V662.144H418.264V657.856H382.552V662.144H397.72V671.936H379.8V676.16H397.72V686.784H373.464V691.136H427.544V686.784H402.584ZM315.224 646.272V654.656H310.488V641.856H334.36C333.464 639.808 332.248 637.312 331.16 635.328L336.216 634.048C337.624 636.48 339.224 639.616 340.248 641.856H362.2V654.656H357.272V646.272H315.224ZM345.496 664.64H328.6C327.128 667.136 325.72 669.44 324.312 671.488C328.92 672.96 333.784 674.816 338.584 676.672C341.592 673.472 343.832 669.504 345.496 664.64ZM363.928 664.64H351C349.208 670.336 346.776 675.008 343.512 678.72C351.192 681.984 358.296 685.568 363.16 688.704L359.576 692.864C354.84 689.664 347.672 685.888 339.736 682.432C333.272 687.872 324.312 691.008 312.344 693.056C311.896 691.776 310.36 689.536 309.336 688.32C320.344 686.912 328.6 684.48 334.552 680.192C328.6 677.696 322.392 675.456 316.824 673.664C318.68 671.168 320.728 668.032 322.776 664.64H308.888V660.096H325.272C327.384 656.256 329.24 652.416 330.584 648.96L335.896 649.856C334.616 653.12 332.952 656.64 331.096 660.096H346.648C347.096 658.112 347.48 656 347.8 653.76L353.368 654.272C353.048 656.32 352.664 658.304 352.216 660.096H363.928V664.64ZM255.768 656.384V640.512H288.92V656.384H293.656V636.928H251.224V656.384H255.768ZM286.104 647.552V644.352H258.584V647.552H286.104ZM258.584 651.456V654.656H285.976V651.456H258.584ZM265.432 662.912V667.072H253.912V662.912H265.432ZM253.912 683.712V678.464H265.432V682.496C262.714 682.803 260.025 683.08 257.428 683.347L257.41 683.349C256.223 683.471 255.055 683.592 253.912 683.712ZM265.432 670.592V674.88H253.912V670.592H265.432ZM270.04 662.912H300.248V658.944H244.184V662.912H249.496V684.096C247.256 684.352 245.208 684.544 243.416 684.672L243.928 688.832C247.106 688.483 250.876 688.038 254.924 687.561C258.293 687.163 261.856 686.743 265.432 686.336V692.864H270.04V662.912ZM279 670.656H292.376C290.712 674.304 288.28 677.504 285.464 680.256C282.712 677.504 280.472 674.24 279 670.656ZM298.136 667.904L295.256 666.752L294.424 666.88H271.768V670.656H277.784L275.032 671.488C276.76 675.84 279.192 679.68 282.264 682.944C278.552 685.696 274.392 687.744 270.168 689.024C271.064 689.856 272.216 691.648 272.792 692.672C277.272 691.136 281.624 688.896 285.464 685.952C289.176 689.024 293.592 691.328 298.648 692.8C299.224 691.712 300.504 689.984 301.464 689.088C296.6 687.872 292.312 685.824 288.728 683.072C292.824 679.104 296.152 674.048 298.136 667.904ZM167.792 664.384L164.08 663.104C165.744 658.88 166.896 651.904 167.344 646.784L170.992 647.232C170.608 652.416 169.456 659.712 167.792 664.384ZM173.104 692.864V634.432H177.776V692.864H173.104ZM186.224 656.32L182.64 658.048C181.936 654.976 179.824 649.984 177.968 646.208L181.296 644.672C183.28 648.448 185.456 653.376 186.224 656.32ZM204.976 671.808L208.88 669.824C213.68 676.288 219.824 685.12 222.896 690.24L218.608 692.672C215.792 687.488 209.712 678.464 204.976 671.808ZM203.888 649.088V655.68C203.888 658.24 203.824 660.928 203.568 663.68H213.424V649.088H203.888ZM218.096 663.68H223.6V668.224H202.864C201.2 677.312 196.592 686.528 184.496 693.184C183.792 692.16 182.256 690.368 181.168 689.472C192.368 683.904 196.592 676.032 198.192 668.224H183.216V663.68H198.832C199.088 660.928 199.152 658.24 199.152 655.68V649.088H186.672V644.608H199.152V634.432H203.888V644.608H218.096V663.68ZM113.456 656.384V640.512H146.608V656.384H151.344V636.928H108.912V656.384H113.456ZM143.792 647.552V644.352H116.272V647.552H143.792ZM116.272 651.456V654.656H143.664V651.456H116.272ZM123.12 662.912V667.072H111.6V662.912H123.12ZM111.6 683.712V678.464H123.12V682.496C120.401 682.803 117.713 683.08 115.116 683.347L115.093 683.35L115.042 683.355C113.874 683.475 112.725 683.594 111.6 683.712ZM123.12 670.592V674.88H111.6V670.592H123.12ZM127.728 662.912H157.936V658.944H101.872V662.912H107.184V684.096C104.944 684.352 102.896 684.544 101.104 684.672L101.616 688.832C104.794 688.483 108.563 688.038 112.612 687.561C115.981 687.163 119.544 686.743 123.12 686.336V692.864H127.728V662.912ZM136.688 670.656H150.064C148.4 674.304 145.968 677.504 143.152 680.256C140.4 677.504 138.16 674.24 136.688 670.656ZM155.824 667.904L152.944 666.752L152.112 666.88H129.456V670.656H135.472L132.72 671.488C134.448 675.84 136.88 679.68 139.952 682.944C136.24 685.696 132.08 687.744 127.856 689.024C128.752 689.856 129.904 691.648 130.48 692.672C134.96 691.136 139.312 688.896 143.152 685.952C146.864 689.024 151.28 691.328 156.336 692.8C156.912 691.712 158.192 689.984 159.152 689.088C154.288 687.872 150 685.824 146.416 683.072C150.512 679.104 153.84 674.048 155.824 667.904ZM575.053 595V548.856H603.661V553.592H580.301V568.12H599.373V572.856H580.301V590.264H604.365V595H575.053ZM526.621 571.896C526.621 587.896 537.437 595.512 548.893 595.512C558.621 595.512 566.493 590.008 568.221 580.216H562.781C561.565 586.936 556.317 590.776 548.893 590.776C539.101 590.776 532.061 584.056 532.061 571.896C532.061 559.8 539.101 553.08 548.893 553.08C556.253 553.08 561.821 557.048 562.781 563.768H568.221C566.685 553.912 558.685 548.344 548.893 548.344C537.501 548.344 526.621 555.96 526.621 571.896ZM502.199 595.512C491.767 595.512 484.919 589.24 484.919 579.256V548.856H490.167V579.64C490.167 586.488 494.967 590.776 502.199 590.776C509.495 590.776 514.359 586.488 514.359 579.64V548.856H519.607V579.256C519.607 589.24 512.631 595.512 502.199 595.512ZM441.616 548.856V595H454.992C467.92 595 477.968 586.552 477.968 571.896C477.968 557.304 467.92 548.856 454.992 548.856H441.616ZM472.592 571.896C472.592 584.824 464.016 590.264 454.992 590.264H446.864V553.592H454.992C464.016 553.592 472.592 559.032 472.592 571.896ZM411.712 595.512C398.592 595.512 389.12 585.592 389.12 571.896C389.12 558.264 398.592 548.344 411.712 548.344C424.704 548.344 434.24 558.2 434.24 571.896C434.24 585.656 424.704 595.512 411.712 595.512ZM411.648 590.776C421.632 590.776 428.8 582.84 428.8 571.896C428.8 561.016 421.632 553.08 411.648 553.08C401.728 553.08 394.56 561.016 394.56 571.896C394.56 582.84 401.728 590.776 411.648 590.776ZM350.928 548.856V595H356.176V575.16H364.88C372.688 575.16 375.824 577.592 376.848 583.352L378.256 591.352C378.448 592.44 378.768 593.848 379.6 595H385.104C384.19 593.537 383.798 591.726 383.486 590.285L383.44 590.072L381.904 582.2C381.008 577.528 379.408 575.16 375.76 573.816C380.944 571.96 383.696 567.736 383.696 562.04C383.696 553.784 378.256 548.856 369.232 548.856H350.928ZM378.32 562.04C378.32 567.288 374.736 570.424 368.848 570.424H356.176V553.592H368.848C374.736 553.592 378.32 556.792 378.32 562.04ZM325.18 595V553.592H310.268V548.856H345.212V553.592H330.428V595H325.18ZM268.991 548.856V595H274.239V563.768C274.239 559.096 273.919 555.96 273.919 555.96C273.919 555.96 275.327 558.776 277.887 562.68L298.559 595H304.575V548.856H299.327V580.152C299.327 584.824 299.647 587.96 299.647 587.96C299.647 587.96 298.239 585.144 295.679 581.24L275.007 548.856H268.991ZM253.866 595V548.856H259.114V595H253.866ZM216.055 553.592V595H221.303V553.592H236.087V548.856H201.143V553.592H216.055ZM169.803 595V548.856H198.411V553.592H175.051V568.12H194.123V572.856H175.051V590.264H199.115V595H169.803ZM135.616 548.856V595H164.096V590.2H140.864V548.856H135.616Z" fill="white"/>
</svg>
