<svg width="2204" height="1240" viewBox="0 0 2204 1240" fill="none" xmlns="http://www.w3.org/2000/svg">
<path fill-rule="evenodd" clip-rule="evenodd" d="M0 0H2204V1240H0V0ZM1252.22 691.04H1264.3C1263.18 689.04 1261.58 686.72 1260.14 684.88L1264.86 683.12C1266.94 685.44 1269.26 688.8 1270.3 691.04H1282.3C1283.98 688.72 1286.06 685.2 1287.26 682.96L1292.94 684.8C1291.42 687.12 1289.74 689.2 1288.22 691.04H1300.62V695.36H1278.78V700.16H1297.9V704.24H1278.78V709.44H1303.26V713.84H1249.74V709.44H1273.02V704.24H1254.94V700.16H1273.02V695.36H1252.22V691.04ZM1288.06 718.08L1291.58 715.44C1294.94 717.52 1299.1 720.72 1301.02 723.04L1297.34 726C1295.42 723.76 1291.42 720.32 1288.06 718.08ZM1247.34 683.28L1252.62 684.88C1250.54 690.56 1247.9 696.24 1244.94 701.6V756H1239.26V710.8C1236.86 714.16 1234.46 717.28 1231.9 720C1231.34 718.72 1229.66 715.76 1228.7 714.4C1236.14 706.88 1243.1 695.2 1247.34 683.28ZM1294.94 732.72L1299.74 734.32C1297.26 738.24 1294.06 741.84 1290.46 744.96C1292.54 748.88 1295.1 751.04 1297.82 751.04C1299.58 750.96 1300.14 749.28 1300.38 744C1301.58 745.12 1303.18 746 1304.46 746.48C1303.74 753.92 1301.98 756 1297.5 756.08C1292.94 756.08 1289.18 753.2 1286.38 748.32C1282.86 750.88 1279.18 753.12 1275.58 754.96C1274.86 754 1273.1 751.92 1272.06 751.04C1276.3 749.2 1280.46 746.72 1284.3 743.92C1282.86 740.4 1281.82 736.24 1281.02 731.6H1267.42V737.2L1277.42 735.84L1277.5 740.16L1267.42 741.6V750.32C1267.42 753.04 1266.86 754.32 1264.86 755.12C1263.02 755.84 1259.98 755.84 1255.42 755.84C1255.18 754.56 1254.46 752.64 1253.74 751.28C1257.02 751.44 1260.06 751.44 1260.94 751.36C1261.82 751.28 1262.14 751.12 1262.14 750.24V742.32L1249.34 744.08L1248.7 739.52C1252.38 739.12 1257.02 738.56 1262.14 737.84V731.6H1249.1V727.2H1262.14V721.68C1258.3 722.24 1254.46 722.64 1250.86 722.88C1250.62 721.84 1250.06 720.16 1249.5 719.2C1257.66 718.4 1267.42 717.04 1272.78 715.36L1276.22 718.96C1273.66 719.68 1270.62 720.32 1267.42 720.88V727.2H1280.38C1279.98 723.6 1279.66 719.76 1279.58 715.76H1284.78C1284.86 719.84 1285.1 723.68 1285.58 727.2H1303.66V731.6H1286.22C1286.78 734.88 1287.58 737.84 1288.46 740.4C1291.02 738 1293.26 735.44 1294.94 732.72ZM1211.5 748.96H1191.58C1185.98 748.96 1184.94 748 1184.94 743.76V732.16L1221.5 727.36L1220.7 721.84L1184.94 726.48V714L1216.14 709.6L1215.34 704.08L1184.94 708.32V695.92C1195.26 693.76 1205.02 691.28 1212.62 688.24L1207.58 683.6C1195.26 688.72 1172.7 693.04 1152.94 695.68C1153.58 696.96 1154.46 699.36 1154.7 700.8C1162.54 699.84 1170.78 698.56 1178.86 697.04V709.2L1154.38 712.56L1155.26 718.16L1178.86 714.88V727.28L1151.9 730.8L1152.78 736.4L1178.86 732.96V743.6C1178.86 752.4 1181.66 754.72 1191.26 754.72H1211.66C1220.46 754.72 1222.46 751.2 1223.5 740.16C1221.66 739.68 1219.18 738.8 1217.66 737.68C1217.02 746.88 1216.22 748.96 1211.5 748.96ZM1119.74 682.56L1124.78 684.48C1124.22 685.52 1123.58 686.56 1122.94 687.6C1129.66 696 1137.1 701.28 1144.54 705.36C1143.1 706.4 1141.34 708.4 1140.54 709.92C1133.5 705.44 1126.7 700.24 1119.98 691.76C1114.06 699.44 1106.3 706.24 1098.38 710.72C1097.5 709.44 1095.98 707.6 1094.46 706.48C1104.46 701.28 1114.38 692.16 1119.74 682.56ZM1092.06 686L1095.98 688.32C1093.42 694.88 1090.3 702.72 1087.42 708.96C1093.58 715.6 1095.1 721.28 1095.1 726.24C1095.1 730.64 1094.14 734 1091.9 735.6C1090.7 736.4 1089.18 736.96 1087.58 737.2C1085.9 737.36 1083.74 737.36 1081.82 737.28C1081.74 735.76 1081.26 733.52 1080.46 732C1082.3 732.16 1084.06 732.16 1085.34 732.08C1086.46 732.08 1087.34 731.84 1087.98 731.28C1089.34 730.4 1089.82 728.32 1089.82 725.68C1089.74 721.36 1088.22 716 1082.14 709.6C1084.54 704 1087.02 697.04 1088.86 691.68H1078.62V755.92H1073.34V686.32H1091.18L1092.06 686ZM1104.78 732.32L1110.06 733.84C1107.02 740.16 1102.46 746.88 1098.38 751.28C1097.42 750.4 1095.18 748.8 1093.82 748.08C1097.98 744 1102.14 738 1104.78 732.32ZM1142.86 727.84H1123.26V749.2C1123.26 752.56 1122.46 754.08 1120.22 755.04C1117.9 756 1114.3 756.08 1108.46 756.08C1108.14 754.48 1107.42 752.16 1106.46 750.56C1110.94 750.72 1114.78 750.72 1115.9 750.72C1117.18 750.64 1117.5 750.24 1117.5 749.2V727.84H1096.62V722.4H1117.5V712.72H1104.06V707.44H1135.42V712.72H1123.26V722.4H1142.86V727.84ZM1127.82 733.92L1132.3 731.52C1136.78 736.64 1141.66 743.44 1143.9 747.84L1139.26 750.56C1136.94 746 1132.14 738.96 1127.82 733.92ZM1016.3 701.2V717.92H999.503V701.2H1016.3ZM1016.3 742.4H999.503V723.2H1016.3V742.4ZM1012.62 684.08L1006.22 682.88C1005.66 686.64 1004.22 692 1003.02 695.84H994.062V754.08H999.503V747.76H1021.74V695.84H1008.46C1009.48 693.271 1010.54 690.167 1011.58 687.127L1011.58 687.123C1011.93 686.093 1012.28 685.071 1012.62 684.08ZM1060.86 698.64V695.6H1036.94C1038.3 691.84 1039.42 688 1040.38 684.08L1034.7 682.72C1032.14 693.68 1027.82 704.72 1022.46 711.76L1022.46 711.76C1023.74 712.56 1026.3 714.16 1027.34 715.12C1030.14 711.36 1032.62 706.48 1034.86 701.12H1055.18C1054.14 732.96 1052.94 745.12 1050.3 747.92C1049.5 748.96 1048.62 749.12 1047.02 749.12C1045.18 749.12 1040.38 749.12 1035.18 748.64C1036.3 750.32 1037.02 752.72 1037.18 754.48C1041.66 754.72 1046.22 754.88 1049.02 754.56C1051.74 754.32 1053.58 753.6 1055.34 751.36C1058.54 747.44 1059.58 735.12 1060.86 698.64ZM1043.18 734.72L1048.22 731.6C1045.66 726.88 1040.14 719.2 1035.66 713.52L1031.02 716.24C1035.42 722 1040.78 729.92 1043.18 734.72ZM1436.77 594.64V600.08H1400.69V594.64H1417.81C1416.69 591.84 1414.37 587.92 1412.13 584.96L1416.93 582.96C1419.41 585.92 1421.97 590 1423.17 592.64L1418.85 594.64H1436.77ZM1436.13 615.6L1431.41 618.24C1429.97 614.48 1426.21 608.56 1422.61 604.24L1427.09 601.92C1430.69 606 1434.53 611.76 1436.13 615.6ZM1414.69 603.68C1411.73 610.48 1407.17 618 1403.09 622.88C1402.21 621.92 1400.13 620.08 1398.85 619.28C1403.01 614.8 1407.01 608.32 1409.57 602.08L1414.69 603.68ZM1433.25 644.24L1428.37 647.92C1426.69 644.56 1423.81 640.4 1420.37 636.08C1415.81 643.44 1410.13 649.52 1403.33 654.16C1402.45 653.04 1400.45 650.88 1399.17 649.84C1406.37 645.36 1412.29 639.2 1416.61 631.52C1413.57 627.92 1410.21 624.32 1407.09 621.2L1411.41 618C1413.97 620.56 1416.69 623.36 1419.41 626.24C1421.01 622.72 1422.37 619.04 1423.49 615.04L1429.01 616.16C1427.57 621.44 1425.57 626.24 1423.41 630.72C1427.49 635.6 1431.09 640.4 1433.25 644.24ZM1461.49 603.12H1448.21C1448.05 603.603 1447.89 604.082 1447.74 604.556C1447.28 605.967 1446.83 607.343 1446.29 608.72C1447.97 616.48 1450.45 623.84 1453.65 630.24C1457.49 622.8 1459.89 613.76 1461.49 603.12ZM1471.73 603.12H1467.25C1465.25 616.48 1462.05 627.28 1456.85 636C1461.09 642.64 1466.45 648 1472.77 651.28C1471.41 652.32 1469.57 654.56 1468.61 656C1462.61 652.48 1457.57 647.44 1453.49 641.12C1448.77 647.36 1442.77 652.32 1435.09 656.32C1434.37 655.28 1432.21 652.96 1431.01 651.92C1439.41 648 1445.65 642.72 1450.37 635.84C1447.33 630 1444.85 623.52 1442.93 616.48C1441.57 619.12 1440.05 621.6 1438.53 623.84C1437.73 622.72 1435.81 620.48 1434.53 619.44C1440.93 610.72 1444.93 597.12 1447.33 582.96L1452.85 583.76C1451.97 588.48 1451.01 593.12 1449.81 597.52H1471.73V603.12ZM1375.57 613.6V621.68H1342.21V613.6H1375.57ZM1375.57 635.2H1341.97C1342.13 633.12 1342.21 631.2 1342.21 629.28V626.8H1375.57V635.2ZM1347.57 598.96H1390.77V593.36H1349.97C1351.17 590.48 1352.21 587.44 1353.09 584.48L1347.17 583.04C1346.21 586.48 1345.01 589.92 1343.65 593.36H1321.17V598.96H1341.09C1336.13 609.28 1328.93 618.72 1319.57 625.04C1320.69 626.24 1322.53 628.4 1323.33 629.68C1328.21 626.24 1332.53 622 1336.29 617.44V629.12C1336.29 636.72 1335.57 645.52 1328.93 651.92C1330.21 652.8 1332.37 655.28 1333.09 656.56C1337.81 652.16 1340.21 646.16 1341.25 640.32H1375.57V648.64C1375.57 649.84 1375.09 650.24 1373.73 650.32C1373.51 650.32 1373.21 650.322 1372.85 650.324H1372.85H1372.84H1372.84H1372.84C1370.8 650.337 1366.66 650.363 1362.13 650.16C1363.01 651.84 1363.89 654.24 1364.13 656C1370.93 656 1375.41 655.92 1378.05 654.96C1380.61 654 1381.41 652.24 1381.41 648.64V608.24H1342.69C1344.45 605.28 1346.05 602.08 1347.57 598.96ZM1255.09 590.64V610.48H1249.41V586.16H1302.45V610.48H1296.53V590.64H1255.09ZM1293.01 595.44V599.44H1258.61V595.44H1293.01ZM1258.61 608.32V604.32H1292.85V608.32H1258.61ZM1267.17 623.84V618.64H1252.77V623.84H1267.17ZM1252.77 638.08V644.64C1254.2 644.489 1255.67 644.338 1257.16 644.185C1260.41 643.85 1263.77 643.504 1267.17 643.12V638.08H1252.77ZM1267.17 633.6V628.24H1252.77V633.6H1267.17ZM1310.69 618.64H1272.93V656.08H1267.17V647.92C1262.7 648.429 1258.24 648.954 1254.03 649.451L1254.02 649.452L1253.98 649.457L1253.96 649.46C1248.93 650.053 1244.24 650.605 1240.29 651.04L1239.65 645.84C1241.89 645.68 1244.45 645.44 1247.25 645.12V618.64H1240.61V613.68H1310.69V618.64ZM1300.85 628.32H1284.13C1285.97 632.8 1288.77 636.88 1292.21 640.32C1295.73 636.88 1298.77 632.88 1300.85 628.32ZM1304.45 623.44L1308.05 624.88C1305.57 632.56 1301.41 638.88 1296.29 643.84C1300.77 647.28 1306.13 649.84 1312.21 651.36C1311.01 652.48 1309.41 654.64 1308.69 656C1302.37 654.16 1296.85 651.28 1292.21 647.44C1287.41 651.12 1281.97 653.92 1276.37 655.84C1275.65 654.56 1274.21 652.32 1273.09 651.28C1278.37 649.68 1283.57 647.12 1288.21 643.68C1284.37 639.6 1281.33 634.8 1279.17 629.36L1282.61 628.32H1275.09V623.6H1303.41L1304.45 623.44ZM1181.04 585.2H1156.72V590.8H1170.96C1163.04 599.6 1151.12 608.64 1141.2 613.28C1142.56 614.56 1144.16 616.56 1144.88 618.08C1156.08 612.08 1169.68 601.04 1177.92 590.88C1186.16 601.52 1198.8 611.84 1210.88 617.52C1211.68 616 1213.68 613.52 1214.88 612.32C1202.24 607.04 1188.48 596.32 1181.04 585.2ZM1180.72 648.48V635.2H1203.44V629.92H1180.72V617.68H1200.32V612.32H1155.68V617.68H1174.64V629.92H1152.24V635.2H1174.64V648.48H1144.32V653.92H1211.92V648.48H1180.72ZM1071.52 597.84V608.32H1065.6V592.32H1095.44C1094.32 589.76 1092.8 586.64 1091.44 584.16L1097.76 582.56C1099.52 585.6 1101.52 589.52 1102.8 592.32H1130.24V608.32H1124.08V597.84H1071.52ZM1109.36 620.8H1088.24C1086.4 623.92 1084.64 626.8 1082.88 629.36C1088.64 631.2 1094.72 633.52 1100.72 635.84C1104.48 631.84 1107.28 626.88 1109.36 620.8ZM1132.4 620.8H1116.24C1114 627.92 1110.96 633.76 1106.88 638.4C1116.48 642.48 1125.36 646.96 1131.44 650.88L1126.96 656.08C1121.04 652.08 1112.08 647.36 1102.16 643.04C1094.08 649.84 1082.88 653.76 1067.92 656.32C1067.36 654.72 1065.44 651.92 1064.16 650.4C1077.92 648.64 1088.24 645.6 1095.68 640.24C1088.24 637.12 1080.48 634.32 1073.52 632.08C1075.84 628.96 1078.4 625.04 1080.96 620.8H1063.6V615.12H1084.08C1086.72 610.32 1089.04 605.52 1090.72 601.2L1097.36 602.32C1095.76 606.4 1093.68 610.8 1091.36 615.12H1110.8C1111.36 612.64 1111.84 610 1112.24 607.2L1119.2 607.84C1118.8 610.4 1118.32 612.88 1117.76 615.12H1132.4V620.8ZM997.198 610.48V590.64H1038.64V610.48H1044.56V586.16H991.518V610.48H997.198ZM1035.12 599.44V595.44H1000.72V599.44H1035.12ZM1000.72 604.32V608.32H1034.96V604.32H1000.72ZM1009.28 618.64V623.84H994.878V618.64H1009.28ZM994.878 644.64V638.08H1009.28V643.12C1005.88 643.504 1002.52 643.85 999.267 644.185C997.778 644.338 996.312 644.489 994.878 644.64ZM1009.28 628.24V633.6H994.878V628.24H1009.28ZM1015.04 618.64H1052.8V613.68H982.718V618.64H989.358V645.12C986.558 645.44 983.998 645.68 981.758 645.84L982.398 651.04C986.356 650.605 991.047 650.052 996.085 649.458L996.107 649.455L996.129 649.452L996.142 649.451C1000.35 648.954 1004.81 648.429 1009.28 647.92V656.08H1015.04V618.64ZM1026.24 628.32H1042.96C1040.88 632.88 1037.84 636.88 1034.32 640.32C1030.88 636.88 1028.08 632.8 1026.24 628.32ZM1050.16 624.88L1046.56 623.44L1045.52 623.6H1017.2V628.32H1024.72L1021.28 629.36C1023.44 634.8 1026.48 639.6 1030.32 643.68C1025.68 647.12 1020.48 649.68 1015.2 651.28C1016.32 652.32 1017.76 654.56 1018.48 655.84C1024.08 653.92 1029.52 651.12 1034.32 647.44C1038.96 651.28 1044.48 654.16 1050.8 656C1051.52 654.64 1053.12 652.48 1054.32 651.36C1048.24 649.84 1042.88 647.28 1038.4 643.84C1043.52 638.88 1047.68 632.56 1050.16 624.88ZM887.228 620.48L882.588 618.88C884.668 613.6 886.108 604.88 886.668 598.48L891.228 599.04C890.748 605.52 889.308 614.64 887.228 620.48ZM893.868 656.08V583.04H899.708V656.08H893.868ZM910.268 610.4L905.788 612.56C904.908 608.72 902.268 602.48 899.948 597.76L904.108 595.84C906.588 600.56 909.308 606.72 910.268 610.4ZM933.708 629.76L938.588 627.28C944.588 635.36 952.268 646.4 956.108 652.8L950.748 655.84C947.228 649.36 939.628 638.08 933.708 629.76ZM932.348 601.36V609.6C932.348 612.8 932.268 616.16 931.948 619.6H944.268V601.36H932.348ZM950.108 619.6H956.988V625.28H931.068C928.988 636.64 923.228 648.16 908.108 656.48C907.228 655.2 905.308 652.96 903.948 651.84C917.948 644.88 923.228 635.04 925.228 625.28H906.508V619.6H926.028C926.348 616.16 926.428 612.8 926.428 609.6V601.36H910.828V595.76H926.428V583.04H932.348V595.76H950.108V619.6ZM819.307 610.48V590.64H860.747V610.48H866.667V586.16H813.627V610.48H819.307ZM857.227 599.44V595.44H822.827V599.44H857.227ZM822.827 604.32V608.32H857.067V604.32H822.827ZM831.387 618.64V623.84H816.987V618.64H831.387ZM816.987 644.64V638.08H831.387V643.12C827.987 643.504 824.625 643.85 821.377 644.185C819.887 644.338 818.421 644.489 816.987 644.64ZM831.387 628.24V633.6H816.987V628.24H831.387ZM837.147 618.64H874.907V613.68H804.827V618.64H811.467V645.12C808.667 645.44 806.107 645.68 803.867 645.84L804.507 651.04C808.469 650.605 813.165 650.051 818.209 649.456L818.211 649.456L818.238 649.452L818.251 649.451C822.464 648.954 826.917 648.429 831.387 647.92V656.08H837.147V618.64ZM848.347 628.32H865.067C862.987 632.88 859.947 636.88 856.427 640.32C852.987 636.88 850.187 632.8 848.347 628.32ZM872.267 624.88L868.667 623.44L867.627 623.6H839.307V628.32H846.827L843.387 629.36C845.547 634.8 848.587 639.6 852.427 643.68C847.787 647.12 842.587 649.68 837.307 651.28C838.427 652.32 839.867 654.56 840.587 655.84C846.187 653.92 851.627 651.12 856.427 647.44C861.067 651.28 866.587 654.16 872.907 656C873.627 654.64 875.227 652.48 876.427 651.36C870.347 649.84 864.987 647.28 860.507 643.84C865.627 638.88 869.787 632.56 872.267 624.88ZM1396.3 515V457.32H1432.06V463.24H1402.86V481.4H1426.7V487.32H1402.86V509.08H1432.94V515H1396.3ZM1335.76 486.12C1335.76 506.12 1349.28 515.64 1363.6 515.64C1375.76 515.64 1385.6 508.76 1387.76 496.52H1380.96C1379.44 504.92 1372.88 509.72 1363.6 509.72C1351.36 509.72 1342.56 501.32 1342.56 486.12C1342.56 471 1351.36 462.6 1363.6 462.6C1372.8 462.6 1379.76 467.56 1380.96 475.96H1387.76C1385.84 463.64 1375.84 456.68 1363.6 456.68C1349.36 456.68 1335.76 466.2 1335.76 486.12ZM1305.24 515.64C1292.2 515.64 1283.64 507.8 1283.64 495.32V457.32H1290.2V495.8C1290.2 504.36 1296.2 509.72 1305.24 509.72C1314.36 509.72 1320.44 504.36 1320.44 495.8V457.32H1327V495.32C1327 507.8 1318.28 515.64 1305.24 515.64ZM1229.51 457.32V515H1246.23C1262.39 515 1274.95 504.44 1274.95 486.12C1274.95 467.88 1262.39 457.32 1246.23 457.32H1229.51ZM1268.23 486.12C1268.23 502.28 1257.51 509.08 1246.23 509.08H1236.07V463.24H1246.23C1257.51 463.24 1268.23 470.04 1268.23 486.12ZM1192.13 515.64C1175.73 515.64 1163.89 503.24 1163.89 486.12C1163.89 469.08 1175.73 456.68 1192.13 456.68C1208.37 456.68 1220.29 469 1220.29 486.12C1220.29 503.32 1208.37 515.64 1192.13 515.64ZM1192.05 509.72C1204.53 509.72 1213.49 499.8 1213.49 486.12C1213.49 472.52 1204.53 462.6 1192.05 462.6C1179.65 462.6 1170.69 472.52 1170.69 486.12C1170.69 499.8 1179.65 509.72 1192.05 509.72ZM1116.15 457.32V515H1122.71V490.2H1133.59C1143.35 490.2 1147.27 493.24 1148.55 500.44L1150.31 510.44C1150.55 511.8 1150.95 513.56 1151.99 515H1158.87C1157.73 513.172 1157.24 510.908 1156.85 509.107L1156.79 508.84L1154.87 499C1153.75 493.16 1151.75 490.2 1147.19 488.52C1153.67 486.2 1157.11 480.92 1157.11 473.8C1157.11 463.48 1150.31 457.32 1139.03 457.32H1116.15ZM1150.39 473.8C1150.39 480.36 1145.91 484.28 1138.55 484.28H1122.71V463.24H1138.55C1145.91 463.24 1150.39 467.24 1150.39 473.8ZM1083.96 515V463.24H1065.32V457.32H1109V463.24H1090.52V515H1083.96ZM1013.73 457.32V515H1020.29V475.96C1020.29 470.12 1019.89 466.2 1019.89 466.2C1019.89 466.2 1021.65 469.72 1024.85 474.6L1050.69 515H1058.21V457.32H1051.65V496.44C1051.65 502.28 1052.05 506.2 1052.05 506.2C1052.05 506.2 1050.29 502.68 1047.09 497.8L1021.25 457.32H1013.73ZM994.82 515V457.32H1001.38V515H994.82ZM947.558 463.24V515H954.118V463.24H972.598V457.32H928.918V463.24H947.558ZM889.742 515V457.32H925.502V463.24H896.302V481.4H920.142V487.32H896.302V509.08H926.382V515H889.742ZM847.008 457.32V515H882.608V509H853.568V457.32H847.008Z" fill="white"/>
</svg>
