<svg width="169" height="136" viewBox="0 0 169 136" fill="none" xmlns="http://www.w3.org/2000/svg">
<path d="M23.1159 101.464H24.2039V111.992H30.1239V113H23.1159V101.464ZM33.5389 113.128C32.9949 113.128 32.5096 113.032 32.0829 112.84C31.6669 112.648 31.3416 112.376 31.1069 112.024C30.8723 111.672 30.7549 111.261 30.7549 110.792C30.7549 110.099 30.9949 109.539 31.4749 109.112C31.9549 108.675 32.6323 108.397 33.5069 108.28L35.5869 108.008C35.8749 107.965 36.0883 107.88 36.2269 107.752C36.3763 107.624 36.4509 107.443 36.4509 107.208C36.4509 106.707 36.2483 106.296 35.8429 105.976C35.4483 105.656 34.9096 105.496 34.2269 105.496C33.5656 105.496 33.0323 105.651 32.6269 105.96C32.2323 106.259 32.0083 106.691 31.9549 107.256H30.8989C30.9523 106.712 31.1229 106.237 31.4109 105.832C31.6989 105.427 32.0829 105.117 32.5629 104.904C33.0536 104.68 33.6083 104.568 34.2269 104.568C34.8563 104.568 35.4163 104.685 35.9069 104.92C36.3976 105.144 36.7763 105.459 37.0429 105.864C37.3203 106.259 37.4589 106.707 37.4589 107.208V111.528C37.4589 111.784 37.5123 111.955 37.6189 112.04C37.7256 112.125 37.8749 112.168 38.0669 112.168C38.1523 112.168 38.2376 112.157 38.3229 112.136V113C38.1629 113.043 38.0189 113.064 37.8909 113.064C37.4429 113.064 37.0909 112.941 36.8349 112.696C36.5789 112.44 36.4509 112.035 36.4509 111.48C36.2163 111.981 35.8323 112.381 35.2989 112.68C34.7656 112.979 34.1789 113.128 33.5389 113.128ZM33.6189 112.2C34.5149 112.2 35.2083 111.939 35.6989 111.416C36.2003 110.883 36.4509 110.141 36.4509 109.192V108.728L33.6349 109.16C33.0269 109.256 32.5683 109.437 32.2589 109.704C31.9603 109.971 31.8109 110.333 31.8109 110.792C31.8109 111.229 31.9763 111.576 32.3069 111.832C32.6483 112.077 33.0856 112.2 33.6189 112.2ZM43.6092 113.128C42.9692 113.128 42.3825 112.984 41.8492 112.696C41.3159 112.408 40.9585 112.061 40.7772 111.656V113H39.7692V101.336H40.7772V106.04C41.0439 105.613 41.4439 105.261 41.9772 104.984C42.5105 104.707 43.0545 104.568 43.6092 104.568C44.4412 104.568 45.1505 104.76 45.7372 105.144C46.3345 105.517 46.7879 106.029 47.0972 106.68C47.4065 107.32 47.5612 108.04 47.5612 108.84C47.5612 109.64 47.4065 110.365 47.0972 111.016C46.7985 111.667 46.3505 112.184 45.7532 112.568C45.1559 112.941 44.4412 113.128 43.6092 113.128ZM43.5772 112.2C44.1532 112.2 44.6599 112.061 45.0972 111.784C45.5452 111.507 45.8919 111.112 46.1372 110.6C46.3825 110.088 46.5052 109.501 46.5052 108.84C46.5052 107.837 46.2385 107.032 45.7052 106.424C45.1719 105.805 44.4625 105.496 43.5772 105.496C43.0012 105.496 42.4892 105.635 42.0412 105.912C41.6039 106.189 41.2625 106.584 41.0172 107.096C40.7825 107.597 40.6652 108.179 40.6652 108.84C40.6652 109.512 40.7825 110.104 41.0172 110.616C41.2625 111.117 41.6039 111.507 42.0412 111.784C42.4892 112.061 43.0012 112.2 43.5772 112.2ZM48.8368 107.8H53.4288V108.712H48.8368V107.8ZM55.4128 101.464H62.4368V102.456H56.5008V106.36H61.3648V107.352H56.5008V112.008H62.6128V113H55.4128V101.464ZM64.5327 105.592H62.9167V104.696H64.5327V103.656C64.5327 102.899 64.73 102.328 65.1247 101.944C65.53 101.549 66.0634 101.352 66.7247 101.352C67.098 101.352 67.4394 101.389 67.7487 101.464V102.408C67.4714 102.323 67.13 102.28 66.7247 102.28C66.3834 102.28 66.1007 102.397 65.8767 102.632C65.6527 102.856 65.5407 103.192 65.5407 103.64V104.696H67.7487V105.592H65.5407V113H64.5327V105.592ZM69.6733 105.592H68.0573V104.696H69.6733V103.656C69.6733 102.899 69.8706 102.328 70.2653 101.944C70.6706 101.549 71.204 101.352 71.8653 101.352C72.2386 101.352 72.58 101.389 72.8893 101.464V102.408C72.612 102.323 72.2706 102.28 71.8653 102.28C71.524 102.28 71.2413 102.397 71.0173 102.632C70.7933 102.856 70.6813 103.192 70.6813 103.64V104.696H72.8893V105.592H70.6813V113H69.6733V105.592ZM74.2964 108.824C74.2964 109.869 74.5578 110.696 75.0804 111.304C75.6138 111.901 76.3178 112.2 77.1924 112.2C77.8644 112.2 78.4404 112.04 78.9204 111.72C79.4004 111.4 79.6884 110.963 79.7844 110.408H80.7444C80.6378 110.995 80.4138 111.491 80.0724 111.896C79.7418 112.301 79.3258 112.611 78.8244 112.824C78.3338 113.027 77.7898 113.128 77.1924 113.128C76.4138 113.128 75.7258 112.947 75.1284 112.584C74.5311 112.211 74.0671 111.699 73.7364 111.048C73.4058 110.397 73.2404 109.661 73.2404 108.84C73.2404 108.019 73.4058 107.288 73.7364 106.648C74.0671 105.997 74.5311 105.491 75.1284 105.128C75.7258 104.755 76.4138 104.568 77.1924 104.568C77.9071 104.568 78.5364 104.733 79.0804 105.064C79.6351 105.384 80.0618 105.837 80.3604 106.424C80.6698 107 80.8191 107.656 80.8084 108.392C80.8084 108.541 80.7978 108.707 80.7764 108.888H73.8164V107.992H79.7364C79.7044 107.512 79.5818 107.085 79.3684 106.712C79.1658 106.328 78.8778 106.029 78.5044 105.816C78.1311 105.603 77.6938 105.496 77.1924 105.496C76.5951 105.496 76.0778 105.635 75.6404 105.912C75.2138 106.189 74.8831 106.579 74.6484 107.08C74.4138 107.581 74.2964 108.163 74.2964 108.824ZM85.9744 113.128C85.1851 113.128 84.4864 112.952 83.8784 112.6C83.2811 112.248 82.8171 111.747 82.4864 111.096C82.1558 110.445 81.9904 109.693 81.9904 108.84C81.9904 107.987 82.1558 107.24 82.4864 106.6C82.8171 105.949 83.2811 105.448 83.8784 105.096C84.4864 104.744 85.1851 104.568 85.9744 104.568C86.5611 104.568 87.0944 104.68 87.5744 104.904C88.0544 105.128 88.4544 105.464 88.7744 105.912C89.0944 106.349 89.3024 106.877 89.3984 107.496H88.4064C88.2998 106.899 88.0224 106.419 87.5744 106.056C87.1371 105.683 86.6038 105.496 85.9744 105.496C85.3878 105.496 84.8704 105.635 84.4224 105.912C83.9851 106.189 83.6438 106.584 83.3984 107.096C83.1638 107.597 83.0464 108.179 83.0464 108.84C83.0464 109.853 83.3131 110.669 83.8464 111.288C84.3798 111.896 85.0891 112.2 85.9744 112.2C86.6251 112.2 87.1691 112.024 87.6064 111.672C88.0438 111.309 88.3211 110.787 88.4384 110.104H89.4304C89.2491 111.107 88.8544 111.864 88.2464 112.376C87.6384 112.877 86.8811 113.128 85.9744 113.128ZM93.8981 113.128C93.1727 113.128 92.6127 112.936 92.2181 112.552C91.8234 112.168 91.6261 111.592 91.6261 110.824V105.592H90.0101V104.696H91.6261V102.136H92.6341V104.696H94.8421V105.592H92.6341V110.824C92.6341 111.283 92.7407 111.624 92.9541 111.848C93.1781 112.072 93.4927 112.184 93.8981 112.184C94.2074 112.184 94.5221 112.141 94.8421 112.056V113C94.5007 113.085 94.1861 113.128 93.8981 113.128ZM96.3629 104.696H97.3709V113H96.3629V104.696ZM96.2349 101.48H97.4989V103.048H96.2349V101.48ZM98.6994 104.696H99.7554L102.331 111.88L104.939 104.696H105.947L102.907 113H101.755L98.6994 104.696ZM107.593 108.824C107.593 109.869 107.855 110.696 108.377 111.304C108.911 111.901 109.615 112.2 110.489 112.2C111.161 112.2 111.737 112.04 112.217 111.72C112.697 111.4 112.985 110.963 113.081 110.408H114.041C113.935 110.995 113.711 111.491 113.369 111.896C113.039 112.301 112.623 112.611 112.121 112.824C111.631 113.027 111.087 113.128 110.489 113.128C109.711 113.128 109.023 112.947 108.425 112.584C107.828 112.211 107.364 111.699 107.033 111.048C106.703 110.397 106.537 109.661 106.537 108.84C106.537 108.019 106.703 107.288 107.033 106.648C107.364 105.997 107.828 105.491 108.425 105.128C109.023 104.755 109.711 104.568 110.489 104.568C111.204 104.568 111.833 104.733 112.377 105.064C112.932 105.384 113.359 105.837 113.657 106.424C113.967 107 114.116 107.656 114.105 108.392C114.105 108.541 114.095 108.707 114.073 108.888H107.113V107.992H113.033C113.001 107.512 112.879 107.085 112.665 106.712C112.463 106.328 112.175 106.029 111.801 105.816C111.428 105.603 110.991 105.496 110.489 105.496C109.892 105.496 109.375 105.635 108.937 105.912C108.511 106.189 108.18 106.579 107.945 107.08C107.711 107.581 107.593 108.163 107.593 108.824ZM115.847 104.696H116.855V106.44C117.186 105.853 117.607 105.395 118.119 105.064C118.642 104.733 119.213 104.568 119.831 104.568C120.397 104.568 120.898 104.691 121.335 104.936C121.783 105.171 122.13 105.507 122.375 105.944C122.631 106.381 122.759 106.888 122.759 107.464V113H121.751V107.576C121.751 106.968 121.565 106.472 121.191 106.088C120.829 105.693 120.333 105.496 119.703 105.496C119.138 105.496 118.642 105.656 118.215 105.976C117.789 106.285 117.453 106.733 117.207 107.32C116.973 107.896 116.855 108.573 116.855 109.352V113H115.847V104.696ZM125.468 108.824C125.468 109.869 125.73 110.696 126.252 111.304C126.786 111.901 127.49 112.2 128.364 112.2C129.036 112.2 129.612 112.04 130.092 111.72C130.572 111.4 130.86 110.963 130.956 110.408H131.916C131.81 110.995 131.586 111.491 131.244 111.896C130.914 112.301 130.498 112.611 129.996 112.824C129.506 113.027 128.962 113.128 128.364 113.128C127.586 113.128 126.898 112.947 126.3 112.584C125.703 112.211 125.239 111.699 124.908 111.048C124.578 110.397 124.412 109.661 124.412 108.84C124.412 108.019 124.578 107.288 124.908 106.648C125.239 105.997 125.703 105.491 126.3 105.128C126.898 104.755 127.586 104.568 128.364 104.568C129.079 104.568 129.708 104.733 130.252 105.064C130.807 105.384 131.234 105.837 131.532 106.424C131.842 107 131.991 107.656 131.98 108.392C131.98 108.541 131.97 108.707 131.948 108.888H124.988V107.992H130.908C130.876 107.512 130.754 107.085 130.54 106.712C130.338 106.328 130.05 106.029 129.676 105.816C129.303 105.603 128.866 105.496 128.364 105.496C127.767 105.496 127.25 105.635 126.812 105.912C126.386 106.189 126.055 106.579 125.82 107.08C125.586 107.581 125.468 108.163 125.468 108.824ZM136.282 113.128C135.653 113.128 135.093 113.005 134.602 112.76C134.112 112.515 133.728 112.179 133.45 111.752C133.173 111.325 133.018 110.856 132.986 110.344H134.026C134.058 110.867 134.277 111.309 134.682 111.672C135.088 112.024 135.621 112.2 136.282 112.2C136.869 112.2 137.344 112.061 137.706 111.784C138.08 111.496 138.266 111.155 138.266 110.76C138.266 110.365 138.144 110.061 137.898 109.848C137.664 109.624 137.322 109.448 136.874 109.32L135.322 108.888C134.714 108.717 134.234 108.477 133.882 108.168C133.53 107.848 133.354 107.384 133.354 106.776C133.354 106.349 133.472 105.971 133.706 105.64C133.941 105.299 134.266 105.037 134.682 104.856C135.109 104.664 135.589 104.568 136.122 104.568C136.666 104.568 137.152 104.669 137.578 104.872C138.016 105.064 138.373 105.341 138.65 105.704C138.928 106.067 139.104 106.488 139.178 106.968H138.122C138.069 106.52 137.861 106.163 137.498 105.896C137.136 105.629 136.677 105.496 136.122 105.496C135.6 105.496 135.184 105.613 134.874 105.848C134.565 106.072 134.41 106.381 134.41 106.776C134.41 107.064 134.512 107.315 134.714 107.528C134.928 107.731 135.221 107.88 135.594 107.976L137.162 108.392C137.856 108.573 138.389 108.829 138.762 109.16C139.136 109.491 139.322 110.024 139.322 110.76C139.322 111.24 139.194 111.661 138.938 112.024C138.693 112.376 138.341 112.648 137.882 112.84C137.424 113.032 136.89 113.128 136.282 113.128ZM143.579 113.128C142.95 113.128 142.39 113.005 141.899 112.76C141.409 112.515 141.025 112.179 140.747 111.752C140.47 111.325 140.315 110.856 140.283 110.344H141.323C141.355 110.867 141.574 111.309 141.979 111.672C142.385 112.024 142.918 112.2 143.579 112.2C144.166 112.2 144.641 112.061 145.003 111.784C145.377 111.496 145.563 111.155 145.563 110.76C145.563 110.365 145.441 110.061 145.195 109.848C144.961 109.624 144.619 109.448 144.171 109.32L142.619 108.888C142.011 108.717 141.531 108.477 141.179 108.168C140.827 107.848 140.651 107.384 140.651 106.776C140.651 106.349 140.769 105.971 141.003 105.64C141.238 105.299 141.563 105.037 141.979 104.856C142.406 104.664 142.886 104.568 143.419 104.568C143.963 104.568 144.449 104.669 144.875 104.872C145.313 105.064 145.67 105.341 145.947 105.704C146.225 106.067 146.401 106.488 146.475 106.968H145.419C145.366 106.52 145.158 106.163 144.795 105.896C144.433 105.629 143.974 105.496 143.419 105.496C142.897 105.496 142.481 105.613 142.171 105.848C141.862 106.072 141.707 106.381 141.707 106.776C141.707 107.064 141.809 107.315 142.011 107.528C142.225 107.731 142.518 107.88 142.891 107.976L144.459 108.392C145.153 108.573 145.686 108.829 146.059 109.16C146.433 109.491 146.619 110.024 146.619 110.76C146.619 111.24 146.491 111.661 146.235 112.024C145.99 112.376 145.638 112.648 145.179 112.84C144.721 113.032 144.187 113.128 143.579 113.128ZM50.3088 132.128C49.3275 132.128 48.4155 131.909 47.5728 131.472C46.7408 131.035 46.0688 130.373 45.5568 129.488C45.0448 128.592 44.7888 127.504 44.7888 126.224C44.7888 124.955 45.0448 123.877 45.5568 122.992C46.0795 122.096 46.7568 121.429 47.5888 120.992C48.4315 120.555 49.3381 120.336 50.3088 120.336C51.1088 120.336 51.8448 120.485 52.5168 120.784C53.1888 121.083 53.7435 121.515 54.1808 122.08C54.6288 122.645 54.9168 123.323 55.0448 124.112H53.9408C53.8235 123.237 53.4341 122.555 52.7728 122.064C52.1115 121.573 51.2901 121.328 50.3088 121.328C49.4448 121.328 48.6821 121.52 48.0208 121.904C47.3595 122.288 46.8421 122.848 46.4688 123.584C46.0955 124.32 45.9088 125.2 45.9088 126.224C45.9088 127.248 46.0955 128.133 46.4688 128.88C46.8421 129.616 47.3595 130.176 48.0208 130.56C48.6821 130.944 49.4448 131.136 50.3088 131.136C51.2901 131.136 52.1008 130.896 52.7408 130.416C53.3915 129.936 53.7915 129.264 53.9408 128.4H55.0448C54.9061 129.168 54.6128 129.835 54.1648 130.4C53.7275 130.955 53.1728 131.381 52.5008 131.68C51.8395 131.979 51.1088 132.128 50.3088 132.128ZM57.2027 127.824C57.2027 128.869 57.464 129.696 57.9867 130.304C58.52 130.901 59.224 131.2 60.0987 131.2C60.7707 131.2 61.3467 131.04 61.8267 130.72C62.3067 130.4 62.5947 129.963 62.6907 129.408H63.6507C63.544 129.995 63.32 130.491 62.9787 130.896C62.648 131.301 62.232 131.611 61.7307 131.824C61.24 132.027 60.696 132.128 60.0987 132.128C59.32 132.128 58.632 131.947 58.0347 131.584C57.4374 131.211 56.9734 130.699 56.6427 130.048C56.312 129.397 56.1467 128.661 56.1467 127.84C56.1467 127.019 56.312 126.288 56.6427 125.648C56.9734 124.997 57.4374 124.491 58.0347 124.128C58.632 123.755 59.32 123.568 60.0987 123.568C60.8134 123.568 61.4427 123.733 61.9867 124.064C62.5414 124.384 62.968 124.837 63.2667 125.424C63.576 126 63.7254 126.656 63.7147 127.392C63.7147 127.541 63.704 127.707 63.6827 127.888H56.7227V126.992H62.6427C62.6107 126.512 62.488 126.085 62.2747 125.712C62.072 125.328 61.784 125.029 61.4107 124.816C61.0374 124.603 60.6 124.496 60.0987 124.496C59.5014 124.496 58.984 124.635 58.5467 124.912C58.12 125.189 57.7894 125.579 57.5547 126.08C57.32 126.581 57.2027 127.163 57.2027 127.824ZM69.8887 124.592C69.6327 124.517 69.3394 124.48 69.0087 124.48C68.5394 124.48 68.1074 124.645 67.7127 124.976C67.3287 125.307 67.0247 125.797 66.8007 126.448C66.5767 127.088 66.4647 127.867 66.4647 128.784V132H65.4567V123.696H66.4647V125.456C66.6674 124.912 67.0194 124.464 67.5207 124.112C68.022 123.749 68.5554 123.568 69.1207 123.568C69.4727 123.568 69.7287 123.595 69.8887 123.648V124.592ZM74.1012 132.128C73.3759 132.128 72.8159 131.936 72.4212 131.552C72.0265 131.168 71.8292 130.592 71.8292 129.824V124.592H70.2132V123.696H71.8292V121.136H72.8372V123.696H75.0452V124.592H72.8372V129.824C72.8372 130.283 72.9439 130.624 73.1572 130.848C73.3812 131.072 73.6959 131.184 74.1012 131.184C74.4105 131.184 74.7252 131.141 75.0452 131.056V132C74.7039 132.085 74.3892 132.128 74.1012 132.128ZM76.5661 123.696H77.5741V132H76.5661V123.696ZM76.4381 120.48H77.7021V122.048H76.4381V120.48ZM80.4546 124.592H78.8386V123.696H80.4546V122.656C80.4546 121.899 80.6519 121.328 81.0466 120.944C81.4519 120.549 81.9852 120.352 82.6466 120.352C83.0199 120.352 83.3612 120.389 83.6706 120.464V121.408C83.3932 121.323 83.0519 121.28 82.6466 121.28C82.3052 121.28 82.0226 121.397 81.7986 121.632C81.5746 121.856 81.4626 122.192 81.4626 122.64V123.696H83.6706V124.592H81.4626V132H80.4546V124.592ZM84.8629 123.696H85.8709V132H84.8629V123.696ZM84.7349 120.48H85.9989V122.048H84.7349V120.48ZM91.5994 132.128C90.8101 132.128 90.1114 131.952 89.5034 131.6C88.9061 131.248 88.4421 130.747 88.1114 130.096C87.7808 129.445 87.6154 128.693 87.6154 127.84C87.6154 126.987 87.7808 126.24 88.1114 125.6C88.4421 124.949 88.9061 124.448 89.5034 124.096C90.1114 123.744 90.8101 123.568 91.5994 123.568C92.1861 123.568 92.7194 123.68 93.1994 123.904C93.6794 124.128 94.0794 124.464 94.3994 124.912C94.7194 125.349 94.9274 125.877 95.0234 126.496H94.0314C93.9248 125.899 93.6474 125.419 93.1994 125.056C92.7621 124.683 92.2288 124.496 91.5994 124.496C91.0128 124.496 90.4954 124.635 90.0474 124.912C89.6101 125.189 89.2688 125.584 89.0234 126.096C88.7888 126.597 88.6714 127.179 88.6714 127.84C88.6714 128.853 88.9381 129.669 89.4714 130.288C90.0048 130.896 90.7141 131.2 91.5994 131.2C92.2501 131.2 92.7941 131.024 93.2314 130.672C93.6688 130.309 93.9461 129.787 94.0634 129.104H95.0554C94.8741 130.107 94.4794 130.864 93.8714 131.376C93.2634 131.877 92.5061 132.128 91.5994 132.128ZM98.8671 132.128C98.3231 132.128 97.8377 132.032 97.4111 131.84C96.9951 131.648 96.6697 131.376 96.4351 131.024C96.2004 130.672 96.0831 130.261 96.0831 129.792C96.0831 129.099 96.3231 128.539 96.8031 128.112C97.2831 127.675 97.9604 127.397 98.8351 127.28L100.915 127.008C101.203 126.965 101.416 126.88 101.555 126.752C101.704 126.624 101.779 126.443 101.779 126.208C101.779 125.707 101.576 125.296 101.171 124.976C100.776 124.656 100.238 124.496 99.5551 124.496C98.8937 124.496 98.3604 124.651 97.9551 124.96C97.5604 125.259 97.3364 125.691 97.2831 126.256H96.2271C96.2804 125.712 96.4511 125.237 96.7391 124.832C97.0271 124.427 97.4111 124.117 97.8911 123.904C98.3817 123.68 98.9364 123.568 99.5551 123.568C100.184 123.568 100.744 123.685 101.235 123.92C101.726 124.144 102.104 124.459 102.371 124.864C102.648 125.259 102.787 125.707 102.787 126.208V130.528C102.787 130.784 102.84 130.955 102.947 131.04C103.054 131.125 103.203 131.168 103.395 131.168C103.48 131.168 103.566 131.157 103.651 131.136V132C103.491 132.043 103.347 132.064 103.219 132.064C102.771 132.064 102.419 131.941 102.163 131.696C101.907 131.44 101.779 131.035 101.779 130.48C101.544 130.981 101.16 131.381 100.627 131.68C100.094 131.979 99.5071 132.128 98.8671 132.128ZM98.9471 131.2C99.8431 131.2 100.536 130.939 101.027 130.416C101.528 129.883 101.779 129.141 101.779 128.192V127.728L98.9631 128.16C98.3551 128.256 97.8964 128.437 97.5871 128.704C97.2884 128.971 97.1391 129.333 97.1391 129.792C97.1391 130.229 97.3044 130.576 97.6351 130.832C97.9764 131.077 98.4137 131.2 98.9471 131.2ZM107.773 132.128C107.048 132.128 106.488 131.936 106.093 131.552C105.698 131.168 105.501 130.592 105.501 129.824V124.592H103.885V123.696H105.501V121.136H106.509V123.696H108.717V124.592H106.509V129.824C106.509 130.283 106.616 130.624 106.829 130.848C107.053 131.072 107.368 131.184 107.773 131.184C108.082 131.184 108.397 131.141 108.717 131.056V132C108.376 132.085 108.061 132.128 107.773 132.128ZM110.468 127.824C110.468 128.869 110.73 129.696 111.252 130.304C111.786 130.901 112.49 131.2 113.364 131.2C114.036 131.2 114.612 131.04 115.092 130.72C115.572 130.4 115.86 129.963 115.956 129.408H116.916C116.81 129.995 116.586 130.491 116.244 130.896C115.914 131.301 115.498 131.611 114.996 131.824C114.506 132.027 113.962 132.128 113.364 132.128C112.586 132.128 111.898 131.947 111.3 131.584C110.703 131.211 110.239 130.699 109.908 130.048C109.578 129.397 109.412 128.661 109.412 127.84C109.412 127.019 109.578 126.288 109.908 125.648C110.239 124.997 110.703 124.491 111.3 124.128C111.898 123.755 112.586 123.568 113.364 123.568C114.079 123.568 114.708 123.733 115.252 124.064C115.807 124.384 116.234 124.837 116.532 125.424C116.842 126 116.991 126.656 116.98 127.392C116.98 127.541 116.97 127.707 116.948 127.888H109.988V126.992H115.908C115.876 126.512 115.754 126.085 115.54 125.712C115.338 125.328 115.05 125.029 114.676 124.816C114.303 124.603 113.866 124.496 113.364 124.496C112.767 124.496 112.25 124.635 111.812 124.912C111.386 125.189 111.055 125.579 110.82 126.08C110.586 126.581 110.468 127.163 110.468 127.824ZM121.282 132.128C120.653 132.128 120.093 132.005 119.602 131.76C119.112 131.515 118.728 131.179 118.45 130.752C118.173 130.325 118.018 129.856 117.986 129.344H119.026C119.058 129.867 119.277 130.309 119.682 130.672C120.088 131.024 120.621 131.2 121.282 131.2C121.869 131.2 122.344 131.061 122.706 130.784C123.08 130.496 123.266 130.155 123.266 129.76C123.266 129.365 123.144 129.061 122.898 128.848C122.664 128.624 122.322 128.448 121.874 128.32L120.322 127.888C119.714 127.717 119.234 127.477 118.882 127.168C118.53 126.848 118.354 126.384 118.354 125.776C118.354 125.349 118.472 124.971 118.706 124.64C118.941 124.299 119.266 124.037 119.682 123.856C120.109 123.664 120.589 123.568 121.122 123.568C121.666 123.568 122.152 123.669 122.578 123.872C123.016 124.064 123.373 124.341 123.65 124.704C123.928 125.067 124.104 125.488 124.178 125.968H123.122C123.069 125.52 122.861 125.163 122.498 124.896C122.136 124.629 121.677 124.496 121.122 124.496C120.6 124.496 120.184 124.613 119.874 124.848C119.565 125.072 119.41 125.381 119.41 125.776C119.41 126.064 119.512 126.315 119.714 126.528C119.928 126.731 120.221 126.88 120.594 126.976L122.162 127.392C122.856 127.573 123.389 127.829 123.762 128.16C124.136 128.491 124.322 129.024 124.322 129.76C124.322 130.24 124.194 130.661 123.938 131.024C123.693 131.376 123.341 131.648 122.882 131.84C122.424 132.032 121.89 132.128 121.282 132.128Z" fill="#190A0A"/>
<path d="M65.9874 48.0606C64.924 46.3829 63.5771 44.8469 62.0648 43.4999C59.9853 41.6568 57.6459 40.1681 55.2829 38.7503C53.1798 37.4979 50.8168 36.1273 49.1154 34.3077C48.6428 33.8115 47.603 32.6773 47.0359 30.8577C45.9489 27.3604 46.7996 22.209 50.7459 21.1693C52.3055 20.7439 54.0541 20.9093 55.4719 21.7128C57.2915 22.7525 58.3548 24.8556 58.1421 26.9587V30.5269H68.7994C68.9648 30.5269 68.5868 24.6193 68.5159 24.0522C68.2323 21.9018 67.6888 19.7751 66.5073 17.9556C63.8607 13.9148 58.662 11.9534 54.0541 11.8117C49.9424 11.6699 45.5235 12.8042 42.0026 14.9782C39.6396 16.4432 38.0091 18.759 37.0639 21.382C35.717 25.1628 35.2207 29.5817 36.0242 33.5279C37.2293 39.4828 41.2229 43.6654 46.0907 46.9027C48.3592 48.4151 50.7222 49.7856 52.9198 51.3925C54.9048 52.8339 56.6771 54.3226 57.4569 56.7802C58.5439 60.2775 57.6932 65.4289 53.7469 66.4686C52.1873 66.894 50.4387 66.7286 49.0208 65.9251C47.2013 64.8854 46.1379 62.7823 46.3506 60.6792V57.111H35.6933C35.5279 57.111 35.906 63.0186 35.9769 63.5857C36.2605 65.7361 36.8039 67.8628 37.9854 69.6824C40.632 73.7231 45.8308 75.6845 50.4387 75.8262C54.5504 75.968 58.9692 74.8338 62.4902 72.6598C64.8532 71.1947 66.4837 68.8789 67.4289 66.256C68.7758 62.4751 69.2721 58.0562 68.4686 54.11C68.0197 51.9123 67.1689 49.8801 66.0111 48.0606H65.9874Z" fill="#3F3636"/>
<path d="M143.829 48.0606C142.766 46.3829 141.419 44.8469 139.907 43.4999C137.827 41.6568 135.488 40.1681 133.125 38.7503C131.022 37.4979 128.659 36.1273 126.957 34.3077C126.485 33.8115 125.445 32.6773 124.878 30.8577C123.791 27.3604 124.641 22.209 128.588 21.1693C130.147 20.7439 131.896 20.9093 133.314 21.7128C135.133 22.7525 136.197 24.8556 135.984 26.9587V30.5269H146.641C146.807 30.5269 146.429 24.6193 146.358 24.0522C146.074 21.9018 145.531 19.7751 144.349 17.9556C141.702 13.9148 136.504 11.9534 131.896 11.8117C127.784 11.6699 123.365 12.8042 119.844 14.9782C117.481 16.4432 115.851 18.759 114.906 21.382C113.559 25.1628 113.063 29.5817 113.866 33.5279C115.071 39.4828 119.065 43.6654 123.932 46.9027C126.201 48.4151 128.564 49.7856 130.762 51.3925C132.747 52.8339 134.519 54.3226 135.299 56.7802C136.386 60.2775 135.535 65.4289 131.589 66.4686C130.029 66.894 128.28 66.7286 126.863 65.9251C125.043 64.8854 123.98 62.7823 124.192 60.6792V57.111H113.535C113.37 57.111 113.748 63.0186 113.819 63.5857C114.102 65.7361 114.646 67.8628 115.827 69.6824C118.474 73.7231 123.673 75.6845 128.28 75.8262C132.392 75.968 136.811 74.8338 140.332 72.6598C142.695 71.1947 144.325 68.8789 145.271 66.256C146.618 62.4751 147.114 58.0562 146.31 54.11C145.861 51.9123 145.011 49.8801 143.853 48.0606H143.829Z" fill="#3F3636"/>
<path d="M92.2123 52.2276H97.9782V67.2565H90.4873V76.3542H97.9782H109.155V67.2565V52.2276V47.6906V43.1299H92.2123V52.2276Z" fill="#3F3636"/>
<path d="M91.2033 12.4777H91.1088C81.2076 12.4777 73.1733 20.5121 73.1733 30.4132V58.4151C73.1733 68.1035 80.8768 75.9961 90.4708 76.3269V67.2056C87.0207 66.8748 84.3269 63.9682 84.3269 60.4237V28.3573C84.3269 24.6001 87.3752 21.5518 91.1324 21.5518C94.8896 21.5518 97.938 24.6001 97.938 28.3573V32.3981H109.115V30.3895C109.115 20.4884 101.081 12.4541 91.1796 12.4541L91.2033 12.4777Z" fill="#3F3636"/>
<path d="M146.921 0H146.425V89.7953H146.921V0Z" fill="#3F3636"/>
<path d="M168.71 75.4951H0.981445V76.1568H168.71V75.4951Z" fill="#3F3636"/>
</svg>
