<svg width="221" height="59" viewBox="0 0 221 59" fill="none" xmlns="http://www.w3.org/2000/svg">
<path d="M112.509 31.7584H113.211V38.5486H117.029V39.1987H112.509V31.7584ZM119.232 39.2813C118.881 39.2813 118.568 39.2194 118.293 39.0955C118.024 38.9717 117.814 38.7963 117.663 38.5692C117.512 38.3422 117.436 38.0773 117.436 37.7746C117.436 37.3275 117.591 36.9663 117.9 36.6911C118.21 36.409 118.647 36.2301 119.211 36.1545L120.553 35.979C120.738 35.9515 120.876 35.8965 120.965 35.8139C121.062 35.7314 121.11 35.6144 121.11 35.4631C121.11 35.1397 120.979 34.8748 120.718 34.6685C120.463 34.4621 120.116 34.3589 119.675 34.3589C119.249 34.3589 118.905 34.4586 118.643 34.6581C118.389 34.8508 118.244 35.1294 118.21 35.494H117.529C117.563 35.1432 117.673 34.837 117.859 34.5756C118.045 34.3142 118.293 34.1146 118.602 33.977C118.919 33.8326 119.276 33.7603 119.675 33.7603C120.081 33.7603 120.443 33.836 120.759 33.9874C121.075 34.1318 121.32 34.3348 121.492 34.5962C121.671 34.8508 121.76 35.1397 121.76 35.4631V38.2493C121.76 38.4144 121.794 38.5245 121.863 38.5796C121.932 38.6346 122.028 38.6621 122.152 38.6621C122.207 38.6621 122.262 38.6552 122.317 38.6415V39.1987C122.214 39.2262 122.121 39.24 122.039 39.24C121.75 39.24 121.523 39.1609 121.358 39.0027C121.192 38.8375 121.11 38.5761 121.11 38.2184C120.958 38.5417 120.711 38.7997 120.367 38.9923C120.023 39.185 119.644 39.2813 119.232 39.2813ZM119.283 38.6828C119.861 38.6828 120.308 38.5142 120.625 38.1771C120.948 37.8331 121.11 37.355 121.11 36.7427V36.4434L119.294 36.722C118.901 36.784 118.606 36.9009 118.406 37.0729C118.213 37.2449 118.117 37.4788 118.117 37.7746C118.117 38.0567 118.224 38.2803 118.437 38.4454C118.657 38.6036 118.939 38.6828 119.283 38.6828ZM125.727 39.2813C125.314 39.2813 124.936 39.1884 124.592 39.0027C124.248 38.8169 124.017 38.5933 123.9 38.3319V39.1987H123.25V31.6758H123.9V34.7097C124.072 34.4345 124.33 34.2075 124.674 34.0286C125.018 33.8498 125.369 33.7603 125.727 33.7603C126.263 33.7603 126.721 33.8842 127.099 34.1318C127.484 34.3726 127.777 34.7029 127.976 35.1225C128.176 35.5353 128.276 35.9997 128.276 36.5157C128.276 37.0316 128.176 37.4994 127.976 37.9191C127.784 38.3388 127.495 38.6724 127.11 38.9201C126.724 39.1609 126.263 39.2813 125.727 39.2813ZM125.706 38.6828C126.078 38.6828 126.404 38.5933 126.686 38.4144C126.975 38.2356 127.199 37.981 127.357 37.6508C127.515 37.3206 127.595 36.9422 127.595 36.5157C127.595 35.869 127.423 35.3495 127.079 34.9574C126.735 34.5584 126.277 34.3589 125.706 34.3589C125.335 34.3589 125.004 34.4483 124.715 34.6272C124.433 34.8061 124.213 35.0606 124.055 35.3908C123.904 35.7142 123.828 36.0891 123.828 36.5157C123.828 36.9491 123.904 37.3309 124.055 37.6611C124.213 37.9845 124.433 38.2356 124.715 38.4144C125.004 38.5933 125.335 38.6828 125.706 38.6828ZM129.098 35.8449H132.06V36.4331H129.098V35.8449ZM133.34 31.7584H137.87V32.3982H134.041V34.9161H137.179V35.5559H134.041V38.5589H137.983V39.1987H133.34V31.7584ZM139.222 34.4208H138.179V33.8429H139.222V33.1721C139.222 32.6837 139.349 32.3156 139.604 32.0679C139.865 31.8134 140.209 31.6861 140.636 31.6861C140.876 31.6861 141.096 31.7102 141.296 31.7584V32.3672C141.117 32.3122 140.897 32.2846 140.636 32.2846C140.415 32.2846 140.233 32.3603 140.089 32.5117C139.944 32.6562 139.872 32.8729 139.872 33.1618V33.8429H141.296V34.4208H139.872V39.1987H139.222V34.4208ZM142.537 34.4208H141.495V33.8429H142.537V33.1721C142.537 32.6837 142.665 32.3156 142.919 32.0679C143.181 31.8134 143.525 31.6861 143.951 31.6861C144.192 31.6861 144.412 31.7102 144.612 31.7584V32.3672C144.433 32.3122 144.212 32.2846 143.951 32.2846C143.731 32.2846 143.549 32.3603 143.404 32.5117C143.26 32.6562 143.187 32.8729 143.187 33.1618V33.8429H144.612V34.4208H143.187V39.1987H142.537V34.4208ZM145.519 36.5053C145.519 37.1795 145.688 37.7127 146.025 38.1049C146.369 38.4901 146.823 38.6828 147.387 38.6828C147.82 38.6828 148.192 38.5796 148.501 38.3732C148.811 38.1668 148.997 37.8847 149.059 37.527H149.678C149.609 37.9053 149.465 38.2253 149.244 38.4867C149.031 38.7481 148.763 38.9476 148.439 39.0852C148.123 39.2159 147.772 39.2813 147.387 39.2813C146.885 39.2813 146.441 39.1643 146.056 38.9304C145.67 38.6896 145.371 38.3594 145.158 37.9397C144.945 37.5201 144.838 37.0454 144.838 36.5157C144.838 35.9859 144.945 35.5147 145.158 35.1019C145.371 34.6822 145.67 34.3554 146.056 34.1215C146.441 33.8807 146.885 33.7603 147.387 33.7603C147.848 33.7603 148.254 33.867 148.605 34.0802C148.962 34.2866 149.238 34.579 149.43 34.9574C149.63 35.3289 149.726 35.752 149.719 36.2267C149.719 36.323 149.712 36.4297 149.698 36.5466H145.209V35.9687H149.028C149.007 35.6591 148.928 35.3839 148.79 35.1432C148.66 34.8955 148.474 34.7029 148.233 34.5653C147.992 34.4277 147.71 34.3589 147.387 34.3589C147.002 34.3589 146.668 34.4483 146.386 34.6272C146.111 34.8061 145.897 35.0572 145.746 35.3805C145.595 35.7039 145.519 36.0788 145.519 36.5053ZM153.051 39.2813C152.542 39.2813 152.091 39.1678 151.699 38.9407C151.314 38.7137 151.015 38.3904 150.801 37.9707C150.588 37.551 150.481 37.066 150.481 36.5157C150.481 35.9653 150.588 35.4837 150.801 35.0709C151.015 34.6513 151.314 34.3279 151.699 34.1009C152.091 33.8739 152.542 33.7603 153.051 33.7603C153.429 33.7603 153.773 33.8326 154.083 33.977C154.393 34.1215 154.651 34.3382 154.857 34.6272C155.063 34.9092 155.197 35.2498 155.259 35.6488H154.62C154.551 35.2636 154.372 34.954 154.083 34.7201C153.801 34.4793 153.457 34.3589 153.051 34.3589C152.673 34.3589 152.339 34.4483 152.05 34.6272C151.768 34.8061 151.548 35.0606 151.39 35.3908C151.238 35.7142 151.163 36.0891 151.163 36.5157C151.163 37.1692 151.335 37.6955 151.679 38.0945C152.023 38.4867 152.48 38.6828 153.051 38.6828C153.471 38.6828 153.822 38.5692 154.104 38.3422C154.386 38.1083 154.565 37.7712 154.64 37.3309H155.28C155.163 37.9776 154.909 38.466 154.516 38.7963C154.124 39.1196 153.636 39.2813 153.051 39.2813ZM158.162 39.2813C157.694 39.2813 157.333 39.1575 157.078 38.9098C156.823 38.6621 156.696 38.2906 156.696 37.7953V34.4208H155.654V33.8429H156.696V32.1918H157.346V33.8429H158.77V34.4208H157.346V37.7953C157.346 38.0911 157.415 38.3113 157.553 38.4557C157.697 38.6002 157.9 38.6724 158.162 38.6724C158.361 38.6724 158.564 38.6449 158.77 38.5899V39.1987C158.55 39.2538 158.347 39.2813 158.162 39.2813ZM159.751 33.8429H160.401V39.1987H159.751V33.8429ZM159.669 31.7687H160.484V32.78H159.669V31.7687ZM161.258 33.8429H161.939L163.601 38.4764L165.283 33.8429H165.933L163.972 39.1987H163.229L161.258 33.8429ZM166.995 36.5053C166.995 37.1795 167.163 37.7127 167.5 38.1049C167.844 38.4901 168.298 38.6828 168.862 38.6828C169.296 38.6828 169.667 38.5796 169.977 38.3732C170.286 38.1668 170.472 37.8847 170.534 37.527H171.153C171.085 37.9053 170.94 38.2253 170.72 38.4867C170.507 38.7481 170.238 38.9476 169.915 39.0852C169.599 39.2159 169.248 39.2813 168.862 39.2813C168.36 39.2813 167.916 39.1643 167.531 38.9304C167.146 38.6896 166.847 38.3594 166.633 37.9397C166.42 37.5201 166.313 37.0454 166.313 36.5157C166.313 35.9859 166.42 35.5147 166.633 35.1019C166.847 34.6822 167.146 34.3554 167.531 34.1215C167.916 33.8807 168.36 33.7603 168.862 33.7603C169.323 33.7603 169.729 33.867 170.08 34.0802C170.438 34.2866 170.713 34.579 170.906 34.9574C171.105 35.3289 171.201 35.752 171.195 36.2267C171.195 36.323 171.188 36.4297 171.174 36.5466H166.685V35.9687H170.503C170.483 35.6591 170.403 35.3839 170.266 35.1432C170.135 34.8955 169.949 34.7029 169.709 34.5653C169.468 34.4277 169.186 34.3589 168.862 34.3589C168.477 34.3589 168.143 34.4483 167.861 34.6272C167.586 34.8061 167.373 35.0572 167.222 35.3805C167.07 35.7039 166.995 36.0788 166.995 36.5053ZM172.318 33.8429H172.968V34.9677C173.182 34.5893 173.453 34.2935 173.784 34.0802C174.121 33.867 174.489 33.7603 174.888 33.7603C175.252 33.7603 175.576 33.8395 175.858 33.9977C176.147 34.149 176.37 34.3658 176.529 34.6478C176.694 34.9299 176.776 35.2567 176.776 35.6282V39.1987H176.126V35.7004C176.126 35.3083 176.006 34.9884 175.765 34.7407C175.531 34.4861 175.211 34.3589 174.805 34.3589C174.441 34.3589 174.121 34.4621 173.845 34.6685C173.57 34.868 173.354 35.1569 173.195 35.5353C173.044 35.9068 172.968 36.3437 172.968 36.8459V39.1987H172.318V33.8429ZM178.523 36.5053C178.523 37.1795 178.692 37.7127 179.029 38.1049C179.373 38.4901 179.827 38.6828 180.391 38.6828C180.825 38.6828 181.196 38.5796 181.506 38.3732C181.815 38.1668 182.001 37.8847 182.063 37.527H182.682C182.613 37.9053 182.469 38.2253 182.249 38.4867C182.035 38.7481 181.767 38.9476 181.444 39.0852C181.127 39.2159 180.777 39.2813 180.391 39.2813C179.889 39.2813 179.445 39.1643 179.06 38.9304C178.675 38.6896 178.376 38.3594 178.162 37.9397C177.949 37.5201 177.842 37.0454 177.842 36.5157C177.842 35.9859 177.949 35.5147 178.162 35.1019C178.376 34.6822 178.675 34.3554 179.06 34.1215C179.445 33.8807 179.889 33.7603 180.391 33.7603C180.852 33.7603 181.258 33.867 181.609 34.0802C181.967 34.2866 182.242 34.579 182.435 34.9574C182.634 35.3289 182.73 35.752 182.723 36.2267C182.723 36.323 182.717 36.4297 182.703 36.5466H178.214V35.9687H182.032C182.011 35.6591 181.932 35.3839 181.795 35.1432C181.664 34.8955 181.478 34.7029 181.237 34.5653C180.997 34.4277 180.715 34.3589 180.391 34.3589C180.006 34.3589 179.672 34.4483 179.39 34.6272C179.115 34.8061 178.902 35.0572 178.75 35.3805C178.599 35.7039 178.523 36.0788 178.523 36.5053ZM185.498 39.2813C185.092 39.2813 184.731 39.2022 184.415 39.0439C184.098 38.8857 183.85 38.669 183.672 38.3938C183.493 38.1186 183.393 37.8159 183.372 37.4857H184.043C184.064 37.8228 184.205 38.1083 184.466 38.3422C184.728 38.5692 185.072 38.6828 185.498 38.6828C185.877 38.6828 186.183 38.5933 186.417 38.4144C186.657 38.2287 186.778 38.0085 186.778 37.754C186.778 37.4994 186.699 37.3034 186.54 37.1658C186.389 37.0213 186.169 36.9078 185.88 36.8252L184.879 36.5466C184.487 36.4365 184.177 36.2817 183.95 36.0822C183.723 35.8758 183.61 35.5766 183.61 35.1844C183.61 34.9092 183.685 34.665 183.837 34.4517C183.988 34.2316 184.198 34.063 184.466 33.9461C184.741 33.8223 185.051 33.7603 185.395 33.7603C185.746 33.7603 186.059 33.8257 186.334 33.9564C186.616 34.0802 186.847 34.2591 187.025 34.493C187.204 34.7269 187.318 34.9987 187.366 35.3083H186.685C186.65 35.0193 186.516 34.7889 186.282 34.6169C186.048 34.4449 185.753 34.3589 185.395 34.3589C185.058 34.3589 184.79 34.4345 184.59 34.5859C184.39 34.7304 184.291 34.9299 184.291 35.1844C184.291 35.3702 184.356 35.5319 184.487 35.6695C184.624 35.8002 184.814 35.8965 185.054 35.9584L186.066 36.2267C186.513 36.3437 186.857 36.5088 187.098 36.722C187.338 36.9353 187.459 37.2793 187.459 37.754C187.459 38.0636 187.376 38.3353 187.211 38.5692C187.053 38.7963 186.826 38.9717 186.53 39.0955C186.234 39.2194 185.89 39.2813 185.498 39.2813ZM190.204 39.2813C189.798 39.2813 189.437 39.2022 189.121 39.0439C188.804 38.8857 188.557 38.669 188.378 38.3938C188.199 38.1186 188.099 37.8159 188.079 37.4857H188.749C188.77 37.8228 188.911 38.1083 189.172 38.3422C189.434 38.5692 189.778 38.6828 190.204 38.6828C190.583 38.6828 190.889 38.5933 191.123 38.4144C191.364 38.2287 191.484 38.0085 191.484 37.754C191.484 37.4994 191.405 37.3034 191.247 37.1658C191.095 37.0213 190.875 36.9078 190.586 36.8252L189.585 36.5466C189.193 36.4365 188.883 36.2817 188.656 36.0822C188.429 35.8758 188.316 35.5766 188.316 35.1844C188.316 34.9092 188.392 34.665 188.543 34.4517C188.694 34.2316 188.904 34.063 189.172 33.9461C189.448 33.8223 189.757 33.7603 190.101 33.7603C190.452 33.7603 190.765 33.8257 191.04 33.9564C191.322 34.0802 191.553 34.2591 191.732 34.493C191.911 34.7269 192.024 34.9987 192.072 35.3083H191.391C191.357 35.0193 191.223 34.7889 190.989 34.6169C190.755 34.4449 190.459 34.3589 190.101 34.3589C189.764 34.3589 189.496 34.4345 189.296 34.5859C189.097 34.7304 188.997 34.9299 188.997 35.1844C188.997 35.3702 189.062 35.5319 189.193 35.6695C189.331 35.8002 189.52 35.8965 189.761 35.9584L190.772 36.2267C191.219 36.3437 191.563 36.5088 191.804 36.722C192.045 36.9353 192.165 37.2793 192.165 37.754C192.165 38.0636 192.083 38.3353 191.917 38.5692C191.759 38.7963 191.532 38.9717 191.236 39.0955C190.941 39.2194 190.597 39.2813 190.204 39.2813ZM115.667 51.2813C115.034 51.2813 114.446 51.1403 113.902 50.8582C113.366 50.5761 112.932 50.1496 112.602 49.5786C112.272 49.0007 112.107 48.2989 112.107 47.4734C112.107 46.6547 112.272 45.9599 112.602 45.3888C112.939 44.8109 113.376 44.381 113.913 44.0989C114.456 43.8168 115.041 43.6758 115.667 43.6758C116.183 43.6758 116.658 43.7721 117.091 43.9647C117.524 44.1574 117.882 44.436 118.164 44.8006C118.453 45.1652 118.639 45.6021 118.722 46.1112H118.009C117.934 45.5471 117.683 45.1068 117.256 44.7903C116.83 44.4738 116.3 44.3156 115.667 44.3156C115.11 44.3156 114.618 44.4394 114.191 44.6871C113.765 44.9348 113.431 45.296 113.19 45.7707C112.949 46.2454 112.829 46.8129 112.829 47.4734C112.829 48.1338 112.949 48.7048 113.19 49.1864C113.431 49.6611 113.765 50.0223 114.191 50.27C114.618 50.5176 115.11 50.6415 115.667 50.6415C116.3 50.6415 116.823 50.4867 117.235 50.1771C117.655 49.8675 117.913 49.4341 118.009 48.8768H118.722C118.632 49.3722 118.443 49.8022 118.154 50.1668C117.872 50.5245 117.514 50.7997 117.081 50.9923C116.654 51.185 116.183 51.2813 115.667 51.2813ZM120.113 48.5053C120.113 49.1795 120.282 49.7127 120.619 50.1049C120.963 50.4901 121.417 50.6828 121.981 50.6828C122.415 50.6828 122.786 50.5796 123.096 50.3732C123.405 50.1668 123.591 49.8847 123.653 49.527H124.272C124.203 49.9053 124.059 50.2253 123.839 50.4867C123.625 50.7481 123.357 50.9476 123.034 51.0852C122.717 51.2159 122.366 51.2813 121.981 51.2813C121.479 51.2813 121.035 51.1643 120.65 50.9304C120.265 50.6896 119.965 50.3594 119.752 49.9397C119.539 49.5201 119.432 49.0454 119.432 48.5157C119.432 47.9859 119.539 47.5147 119.752 47.1019C119.965 46.6822 120.265 46.3554 120.65 46.1215C121.035 45.8807 121.479 45.7603 121.981 45.7603C122.442 45.7603 122.848 45.867 123.199 46.0802C123.557 46.2866 123.832 46.579 124.024 46.9574C124.224 47.3289 124.32 47.752 124.313 48.2267C124.313 48.323 124.306 48.4297 124.293 48.5466H119.804V47.9687H123.622C123.601 47.6591 123.522 47.3839 123.385 47.1432C123.254 46.8955 123.068 46.7029 122.827 46.5653C122.587 46.4277 122.304 46.3589 121.981 46.3589C121.596 46.3589 121.262 46.4483 120.98 46.6272C120.705 46.8061 120.492 47.0572 120.34 47.3805C120.189 47.7039 120.113 48.0788 120.113 48.5053ZM128.295 46.4208C128.13 46.3726 127.941 46.3486 127.728 46.3486C127.425 46.3486 127.146 46.4552 126.892 46.6685C126.644 46.8817 126.448 47.1982 126.304 47.6179C126.159 48.0306 126.087 48.5329 126.087 49.1245V51.1987H125.437V45.8429H126.087V46.978C126.218 46.6272 126.445 46.3382 126.768 46.1112C127.091 45.8773 127.435 45.7603 127.8 45.7603C128.027 45.7603 128.192 45.7775 128.295 45.8119V46.4208ZM131.012 51.2813C130.544 51.2813 130.183 51.1575 129.929 50.9098C129.674 50.6621 129.547 50.2906 129.547 49.7953V46.4208H128.505V45.8429H129.547V44.1918H130.197V45.8429H131.621V46.4208H130.197V49.7953C130.197 50.0911 130.266 50.3113 130.403 50.4557C130.548 50.6002 130.751 50.6724 131.012 50.6724C131.212 50.6724 131.415 50.6449 131.621 50.5899V51.1987C131.401 51.2538 131.198 51.2813 131.012 51.2813ZM132.602 45.8429H133.252V51.1987H132.602V45.8429ZM132.52 43.7687H133.335V44.78H132.52V43.7687ZM135.11 46.4208H134.068V45.8429H135.11V45.1721C135.11 44.6837 135.237 44.3156 135.492 44.0679C135.753 43.8134 136.097 43.6861 136.524 43.6861C136.765 43.6861 136.985 43.7102 137.184 43.7584V44.3672C137.005 44.3122 136.785 44.2846 136.524 44.2846C136.304 44.2846 136.121 44.3603 135.977 44.5117C135.832 44.6562 135.76 44.8729 135.76 45.1618V45.8429H137.184V46.4208H135.76V51.1987H135.11V46.4208ZM137.953 45.8429H138.603V51.1987H137.953V45.8429ZM137.871 43.7687H138.686V44.78H137.871V43.7687ZM142.298 51.2813C141.789 51.2813 141.338 51.1678 140.946 50.9407C140.561 50.7137 140.262 50.3904 140.049 49.9707C139.835 49.551 139.729 49.066 139.729 48.5157C139.729 47.9653 139.835 47.4837 140.049 47.0709C140.262 46.6513 140.561 46.3279 140.946 46.1009C141.338 45.8739 141.789 45.7603 142.298 45.7603C142.677 45.7603 143.021 45.8326 143.33 45.977C143.64 46.1215 143.898 46.3382 144.104 46.6272C144.31 46.9092 144.445 47.2498 144.507 47.6488H143.867C143.798 47.2636 143.619 46.954 143.33 46.7201C143.048 46.4793 142.704 46.3589 142.298 46.3589C141.92 46.3589 141.586 46.4483 141.297 46.6272C141.015 46.8061 140.795 47.0606 140.637 47.3908C140.485 47.7142 140.41 48.0891 140.41 48.5157C140.41 49.1692 140.582 49.6955 140.926 50.0945C141.27 50.4867 141.727 50.6828 142.298 50.6828C142.718 50.6828 143.069 50.5692 143.351 50.3422C143.633 50.1083 143.812 49.7712 143.887 49.3309H144.527C144.41 49.9776 144.156 50.466 143.764 50.7963C143.371 51.1196 142.883 51.2813 142.298 51.2813ZM146.986 51.2813C146.635 51.2813 146.322 51.2194 146.046 51.0955C145.778 50.9717 145.568 50.7963 145.417 50.5692C145.266 50.3422 145.19 50.0773 145.19 49.7746C145.19 49.3275 145.345 48.9663 145.654 48.6911C145.964 48.409 146.401 48.2301 146.965 48.1545L148.306 47.979C148.492 47.9515 148.63 47.8965 148.719 47.8139C148.816 47.7314 148.864 47.6144 148.864 47.4631C148.864 47.1397 148.733 46.8748 148.472 46.6685C148.217 46.4621 147.87 46.3589 147.429 46.3589C147.003 46.3589 146.659 46.4586 146.397 46.6581C146.143 46.8508 145.998 47.1294 145.964 47.494H145.283C145.317 47.1432 145.427 46.837 145.613 46.5756C145.799 46.3142 146.046 46.1146 146.356 45.977C146.673 45.8326 147.03 45.7603 147.429 45.7603C147.835 45.7603 148.196 45.836 148.513 45.9874C148.829 46.1318 149.074 46.3348 149.246 46.5962C149.424 46.8508 149.514 47.1397 149.514 47.4631V50.2493C149.514 50.4144 149.548 50.5245 149.617 50.5796C149.686 50.6346 149.782 50.6621 149.906 50.6621C149.961 50.6621 150.016 50.6552 150.071 50.6415V51.1987C149.968 51.2262 149.875 51.24 149.792 51.24C149.504 51.24 149.277 51.1609 149.111 51.0027C148.946 50.8375 148.864 50.5761 148.864 50.2184C148.712 50.5417 148.465 50.7997 148.121 50.9923C147.777 51.185 147.398 51.2813 146.986 51.2813ZM147.037 50.6828C147.615 50.6828 148.062 50.5142 148.379 50.1771C148.702 49.8331 148.864 49.355 148.864 48.7427V48.4434L147.047 48.722C146.655 48.784 146.36 48.9009 146.16 49.0729C145.967 49.2449 145.871 49.4788 145.871 49.7746C145.871 50.0567 145.978 50.2803 146.191 50.4454C146.411 50.6036 146.693 50.6828 147.037 50.6828ZM152.73 51.2813C152.262 51.2813 151.901 51.1575 151.646 50.9098C151.392 50.6621 151.264 50.2906 151.264 49.7953V46.4208H150.222V45.8429H151.264V44.1918H151.914V45.8429H153.339V46.4208H151.914V49.7953C151.914 50.0911 151.983 50.3113 152.121 50.4557C152.265 50.6002 152.468 50.6724 152.73 50.6724C152.929 50.6724 153.132 50.6449 153.339 50.5899V51.1987C153.118 51.2538 152.915 51.2813 152.73 51.2813ZM154.468 48.5053C154.468 49.1795 154.637 49.7127 154.974 50.1049C155.318 50.4901 155.772 50.6828 156.336 50.6828C156.769 50.6828 157.141 50.5796 157.45 50.3732C157.76 50.1668 157.946 49.8847 158.008 49.527H158.627C158.558 49.9053 158.414 50.2253 158.193 50.4867C157.98 50.7481 157.712 50.9476 157.388 51.0852C157.072 51.2159 156.721 51.2813 156.336 51.2813C155.834 51.2813 155.39 51.1643 155.005 50.9304C154.619 50.6896 154.32 50.3594 154.107 49.9397C153.894 49.5201 153.787 49.0454 153.787 48.5157C153.787 47.9859 153.894 47.5147 154.107 47.1019C154.32 46.6822 154.619 46.3554 155.005 46.1215C155.39 45.8807 155.834 45.7603 156.336 45.7603C156.797 45.7603 157.203 45.867 157.554 46.0802C157.911 46.2866 158.186 46.579 158.379 46.9574C158.579 47.3289 158.675 47.752 158.668 48.2267C158.668 48.323 158.661 48.4297 158.647 48.5466H154.158V47.9687H157.977C157.956 47.6591 157.877 47.3839 157.739 47.1432C157.609 46.8955 157.423 46.7029 157.182 46.5653C156.941 46.4277 156.659 46.3589 156.336 46.3589C155.951 46.3589 155.617 46.4483 155.335 46.6272C155.06 46.8061 154.846 47.0572 154.695 47.3805C154.544 47.7039 154.468 48.0788 154.468 48.5053ZM161.443 51.2813C161.037 51.2813 160.676 51.2022 160.359 51.0439C160.043 50.8857 159.795 50.669 159.616 50.3938C159.437 50.1186 159.338 49.8159 159.317 49.4857H159.988C160.008 49.8228 160.149 50.1083 160.411 50.3422C160.672 50.5692 161.016 50.6828 161.443 50.6828C161.821 50.6828 162.127 50.5933 162.361 50.4144C162.602 50.2287 162.722 50.0085 162.722 49.754C162.722 49.4994 162.643 49.3034 162.485 49.1658C162.334 49.0213 162.114 48.9078 161.825 48.8252L160.824 48.5466C160.431 48.4365 160.122 48.2817 159.895 48.0822C159.668 47.8758 159.554 47.5766 159.554 47.1844C159.554 46.9092 159.63 46.665 159.781 46.4517C159.933 46.2316 160.142 46.063 160.411 45.9461C160.686 45.8223 160.996 45.7603 161.34 45.7603C161.69 45.7603 162.003 45.8257 162.279 45.9564C162.561 46.0802 162.791 46.2591 162.97 46.493C163.149 46.7269 163.262 46.9987 163.311 47.3083H162.629C162.595 47.0193 162.461 46.7889 162.227 46.6169C161.993 46.4449 161.697 46.3589 161.34 46.3589C161.002 46.3589 160.734 46.4345 160.535 46.5859C160.335 46.7304 160.235 46.9299 160.235 47.1844C160.235 47.3702 160.301 47.5319 160.431 47.6695C160.569 47.8002 160.758 47.8965 160.999 47.9584L162.01 48.2267C162.457 48.3437 162.801 48.5088 163.042 48.722C163.283 48.9353 163.403 49.2793 163.403 49.754C163.403 50.0636 163.321 50.3353 163.156 50.5692C162.998 50.7963 162.771 50.9717 162.475 51.0955C162.179 51.2194 161.835 51.2813 161.443 51.2813Z" fill="#190A0A"/>
<path d="M41.9265 31.1967C41.2407 30.1146 40.372 29.124 39.3966 28.2552C38.0554 27.0664 36.5465 26.1063 35.0224 25.1918C33.666 24.3841 32.1419 23.5001 31.0446 22.3265C30.7398 22.0065 30.0692 21.2749 29.7034 20.1014C29.0023 17.8457 29.551 14.5232 32.0962 13.8526C33.1021 13.5783 34.2299 13.685 35.1444 14.2031C36.3179 14.8737 37.0037 16.2302 36.8666 17.5866V19.888H43.7402C43.8469 19.888 43.603 16.0778 43.5573 15.712C43.3744 14.3251 43.0239 12.9534 42.2618 11.7799C40.5549 9.17366 37.2019 7.90866 34.2299 7.81722C31.578 7.72577 28.728 8.45735 26.4571 9.85951C24.933 10.8044 23.8814 12.298 23.2717 13.9898C22.403 16.4283 22.0829 19.2784 22.6011 21.8236C23.3784 25.6643 25.9541 28.3619 29.0938 30.4499C30.5569 31.4253 32.0809 32.3093 33.4983 33.3457C34.7786 34.2754 35.9217 35.2355 36.4246 36.8206C37.1257 39.0762 36.577 42.3987 34.0318 43.0693C33.0259 43.3437 31.8981 43.237 30.9836 42.7188C29.8101 42.0482 29.1242 40.6918 29.2614 39.3353V37.034H22.3877C22.2811 37.034 22.5249 40.8442 22.5707 41.21C22.7536 42.5969 23.1041 43.9686 23.8661 45.1421C25.5731 47.7483 28.9261 49.0133 31.8981 49.1047C34.55 49.1962 37.4 48.4646 39.6709 47.0624C41.195 46.1175 42.2466 44.6239 42.8563 42.9322C43.725 40.4936 44.045 37.6436 43.5269 35.0984C43.2373 33.681 42.6886 32.3703 41.9418 31.1967H41.9265Z" fill="#3F3636"/>
<path d="M92.1316 31.1967C91.4458 30.1146 90.577 29.124 89.6016 28.2552C88.2604 27.0664 86.7516 26.1063 85.2275 25.1918C83.8711 24.3841 82.347 23.5001 81.2497 22.3265C80.9448 22.0065 80.2742 21.2749 79.9085 20.1014C79.2074 17.8457 79.7561 14.5232 82.3013 13.8526C83.3072 13.5783 84.435 13.685 85.3495 14.2031C86.523 14.8737 87.2088 16.2302 87.0716 17.5866V19.888H93.9453C94.052 19.888 93.8081 16.0778 93.7624 15.712C93.5795 14.3251 93.229 12.9534 92.4669 11.7799C90.7599 9.17366 87.407 7.90866 84.435 7.81722C81.7831 7.72577 78.933 8.45735 76.6621 9.85951C75.1381 10.8044 74.0864 12.298 73.4768 13.9898C72.6081 16.4283 72.288 19.2784 72.8062 21.8236C73.5835 25.6643 76.1592 28.3619 79.2988 30.4499C80.762 31.4253 82.286 32.3093 83.7034 33.3457C84.9837 34.2754 86.1267 35.2355 86.6297 36.8206C87.3308 39.0762 86.7821 42.3987 84.2369 43.0693C83.231 43.3437 82.1031 43.237 81.1887 42.7188C80.0151 42.0482 79.3293 40.6918 79.4665 39.3353V37.034H72.5928C72.4861 37.034 72.73 40.8442 72.7757 41.21C72.9586 42.5969 73.3091 43.9686 74.0712 45.1421C75.7782 47.7483 79.1312 49.0133 82.1031 49.1047C84.7551 49.1962 87.6051 48.4646 89.876 47.0624C91.4 46.1175 92.4517 44.6239 93.0613 42.9322C93.9301 40.4936 94.2501 37.6436 93.7319 35.0984C93.4424 33.681 92.8937 32.3703 92.1469 31.1967H92.1316Z" fill="#3F3636"/>
<path d="M58.8421 33.8843H62.5609V43.5775H57.7295V49.4453H62.5609H69.7698V43.5775V33.8843V30.9581V28.0166H58.8421V33.8843Z" fill="#3F3636"/>
<path d="M58.1903 8.24668H58.1293C51.7434 8.24668 46.5615 13.4286 46.5615 19.8145V37.8749C46.5615 44.1237 51.5301 49.2141 57.7178 49.4275V43.5445C55.4927 43.3312 53.7552 41.4565 53.7552 39.1704V18.4885C53.7552 16.0652 55.7213 14.0992 58.1446 14.0992C60.5679 14.0992 62.534 16.0652 62.534 18.4885V21.0947H69.7429V19.7993C69.7429 13.4133 64.561 8.23145 58.1751 8.23145L58.1903 8.24668Z" fill="#3F3636"/>
<path d="M94.1267 0.19873H93.8066V58.114H94.1267V0.19873Z" fill="#3F3636"/>
<path d="M108.18 48.8911H0V49.3179H108.18V48.8911Z" fill="#3F3636"/>
</svg>
