<svg width="168" height="169" viewBox="0 0 168 169" fill="none" xmlns="http://www.w3.org/2000/svg">
<path d="M166.626 59.668C168.697 66.684 160.814 75.176 160.997 82.157C161.186 89.38 169.436 97.463 167.78 104.327C166.099 111.289 155.042 114.713 151.649 120.965C148.256 127.217 151.396 138.373 146.475 143.565C141.623 148.689 130.364 146.147 124.209 149.916C118.258 153.557 115.427 164.8 108.422 166.873C101.417 168.946 92.9376 161.052 85.9656 161.236C78.7536 161.425 70.6826 169.688 63.8296 168.029C56.8776 166.346 53.4576 155.272 47.2166 151.873C40.9756 148.474 29.8356 151.62 24.6456 146.691C19.5296 141.832 22.0666 130.556 18.3046 124.391C14.6686 118.433 3.44256 115.597 1.37156 108.582C-0.699444 101.567 7.18356 93.074 7.00156 86.092C6.81256 78.869 -1.43744 70.786 0.218556 63.923C1.89956 56.964 12.9566 53.539 16.3506 47.288C19.7446 41.037 16.6036 29.88 21.5246 24.688C26.3766 19.564 37.6336 22.105 43.7906 18.337C49.7396 14.696 52.5726 3.45298 59.5776 1.37898C66.5826 -0.695019 75.0615 7.19998 82.0325 7.01798C89.2445 6.82898 97.3156 -1.43402 104.17 0.224981C111.121 1.90698 114.541 12.981 120.783 16.381C127.025 19.781 138.164 16.634 143.354 21.563C148.47 26.421 145.932 37.697 149.695 43.863C153.331 49.816 164.557 52.653 166.626 59.668Z" fill="#E0004D"/>
<path d="M164.742 60.225C166.763 67.072 158.853 75.393 159.032 82.207C159.216 89.257 167.485 97.168 165.869 103.866C164.23 110.66 153.234 113.924 149.922 120.025C146.61 126.126 149.852 137.142 145.05 142.215C140.315 147.215 129.19 144.564 123.182 148.241C117.376 151.795 114.7 162.968 107.864 164.992C101.028 167.016 92.7181 159.092 85.9161 159.273C78.8771 159.458 70.9781 167.739 64.2901 166.12C57.5051 164.478 54.2471 153.466 48.1551 150.149C42.0631 146.832 31.0631 150.079 25.9991 145.269C21.0071 140.527 23.6531 129.385 19.9811 123.369C16.4321 117.553 5.28114 114.874 3.25714 108.027C1.23314 101.18 9.14514 92.859 8.96714 86.046C8.78314 78.996 0.513143 71.085 2.12914 64.386C3.76914 57.592 14.7641 54.329 18.0771 48.228C21.3901 42.127 18.1461 31.111 22.9491 26.038C27.6841 21.038 38.8091 23.689 44.8171 20.011C50.6231 16.457 53.2991 5.28502 60.1341 3.26202C66.9691 1.23902 75.2801 9.16202 82.0831 8.98102C89.1221 8.79602 97.0211 0.514024 103.709 2.13302C110.493 3.77602 113.752 14.787 119.844 18.105C125.936 21.423 136.936 18.174 142 22.985C146.992 27.727 144.346 38.869 148.017 44.885C151.566 50.7 162.722 53.378 164.742 60.225Z" fill="#F7F7F9"/>
<path d="M39.8815 61.787C39.2362 62.3179 38.4458 62.642 37.6135 62.717C36.7035 62.7811 35.793 62.598 34.9785 62.187L27.2705 58.561L28.1705 56.635L35.9285 60.284C36.2751 60.4729 36.6582 60.5851 37.0519 60.613C37.4456 60.641 37.8407 60.584 38.2105 60.446C38.942 60.1249 39.5205 59.5327 39.8245 58.794C40.2034 58.0799 40.2933 57.2475 40.0755 56.469C39.9483 56.0944 39.7417 55.7517 39.4696 55.4645C39.1976 55.1773 38.8667 54.9523 38.4995 54.805L30.7405 51.156L31.6405 49.23L39.3495 52.856C40.1875 53.2212 40.9093 53.8092 41.4365 54.556C41.9068 55.2499 42.1606 56.0677 42.1655 56.906C42.1621 57.8393 41.9453 58.7594 41.5315 59.596C41.1564 60.4429 40.5919 61.1925 39.8815 61.787Z" fill="#E0004D"/>
<path d="M33.8486 45.8101L37.2596 41.4501C37.9066 40.5249 38.8915 39.8913 40.0016 39.6861C40.5315 39.6151 41.0704 39.6573 41.5827 39.81C42.0951 39.9628 42.5691 40.2225 42.9736 40.5721C43.5477 41.0074 43.9976 41.5856 44.2786 42.2491C44.5434 42.8918 44.6177 43.5972 44.4926 44.2811C44.3462 45.0445 44.011 45.7593 43.5176 46.3601L41.4176 49.0461L45.5546 52.2931L44.2446 53.9681L33.8486 45.8101ZM42.4596 43.7101C42.4337 43.426 42.3469 43.1508 42.2053 42.9032C42.0636 42.6556 41.8704 42.4414 41.6386 42.2751C41.4247 42.0908 41.173 41.9558 40.9012 41.8796C40.6294 41.8034 40.3441 41.7879 40.0656 41.8341C39.461 41.9678 38.9292 42.325 38.5766 42.8341L36.6446 45.3041L39.9316 47.8841L41.8636 45.4141C42.2743 44.9444 42.4878 44.3333 42.4596 43.7101Z" fill="#E0004D"/>
<path d="M47.9488 33.533L44.6778 36.014L43.5498 34.522L51.7858 28.276L52.9138 29.768L49.6428 32.249L56.4878 41.302L54.7948 42.586L47.9488 33.533Z" fill="#E0004D"/>
<path d="M61.1442 37.378C60.0025 37.269 58.9136 36.8445 57.9992 36.152C57.0462 35.4086 56.287 34.4458 55.7863 33.3458C55.2855 32.2457 55.058 31.0409 55.1232 29.834C55.205 28.6915 55.6009 27.5937 56.2672 26.662C56.9718 25.7127 57.9053 24.9573 58.9807 24.4663C60.0562 23.9753 61.2384 23.7647 62.4172 23.854C63.5562 23.9625 64.643 24.3841 65.5572 25.072C66.5113 25.8165 67.2715 26.7805 67.7729 27.8819C68.2743 28.9833 68.5022 30.1896 68.4372 31.398C68.3582 32.5426 67.9644 33.6431 67.2992 34.578C66.5945 35.5275 65.6608 36.2829 64.5853 36.7739C63.5097 37.265 62.3272 37.4755 61.1482 37.386L61.1442 37.378ZM65.6102 33.525C66.0487 32.8578 66.295 32.0829 66.3222 31.285C66.3384 30.4188 66.1605 29.56 65.8017 28.7715C65.4428 27.9829 64.912 27.2847 64.2482 26.728C63.6288 26.2267 62.8838 25.9047 62.0942 25.797C61.299 25.6935 60.4908 25.8213 59.7662 26.165C59.0293 26.4898 58.4003 27.0182 57.9532 27.688C57.5107 28.3552 57.2615 29.1319 57.2332 29.932C57.217 30.7982 57.3949 31.657 57.7538 32.4456C58.1126 33.2341 58.6434 33.9323 59.3072 34.489C59.9259 34.9916 60.6712 35.3138 61.4612 35.42C62.2597 35.5108 63.0679 35.3825 63.799 35.0489C64.5301 34.7152 65.1566 34.1887 65.6112 33.526L65.6102 33.525Z" fill="#E0004D"/>
<path d="M77.2512 32.944C76.1597 32.9171 75.1084 32.5265 74.2642 31.834C73.4215 31.1254 72.8586 30.1399 72.6762 29.054L74.7662 28.796C74.8567 29.2659 75.073 29.7025 75.3922 30.059C75.719 30.4219 76.1316 30.6969 76.5922 30.859C77.0768 31.0356 77.5971 31.0919 78.1082 31.023C78.7831 30.9738 79.4254 30.7135 79.9442 30.279C80.1521 30.1035 80.3118 29.8779 80.4082 29.6234C80.5046 29.369 80.5346 29.0942 80.4952 28.825C80.3832 27.9143 79.7306 27.3607 78.5372 27.164L76.1992 26.79C75.2909 26.6862 74.4226 26.3584 73.6722 25.836C73.3328 25.5585 73.0548 25.2133 72.8559 24.8225C72.6571 24.4317 72.5417 24.0038 72.5172 23.566C72.4563 23.1404 72.4857 22.7068 72.6033 22.2933C72.721 21.8798 72.9244 21.4957 73.2002 21.166C73.8298 20.4286 74.6771 19.9101 75.6202 19.685L75.4072 17.956L77.2432 17.729L77.4552 19.441C78.4732 19.4135 79.4723 19.7186 80.3012 20.31C81.074 20.8921 81.5975 21.7454 81.7662 22.698L79.6762 22.956C79.5193 22.4096 79.1541 21.9467 78.6592 21.667C78.0932 21.3565 77.4391 21.2452 76.8022 21.351C76.1971 21.3907 75.6193 21.6171 75.1482 21.999C74.9674 22.1543 74.8293 22.3532 74.7468 22.5769C74.6644 22.8005 74.6404 23.0415 74.6772 23.277C74.6933 23.4692 74.7501 23.6557 74.8439 23.8241C74.9377 23.9926 75.0663 24.1391 75.2212 24.254C75.6036 24.5069 76.0406 24.6653 76.4962 24.716L78.8672 25.089C79.8038 25.1953 80.6982 25.5369 81.4672 26.082C82.156 26.7362 82.5795 27.6212 82.6568 28.568C82.7341 29.5147 82.4597 30.4568 81.8862 31.214C81.156 32.0294 80.1738 32.5768 79.0962 32.769L79.3242 34.626L77.4882 34.853L77.2512 32.944Z" fill="#E0004D"/>
<path d="M86.0342 23.0599L83.1992 22.952L83.2602 21.3569C83.8739 21.3865 84.4887 21.3357 85.0892 21.2059C85.5078 21.1157 85.8841 20.8879 86.1582 20.5589C86.4379 20.172 86.6154 19.7207 86.6742 19.2469L88.3042 19.3089L87.8042 32.5259L85.6802 32.4449L86.0342 23.0599Z" fill="#E0004D"/>
<path d="M88.9527 30.644L94.4937 27.532C95.1959 27.154 95.8424 26.6805 96.4147 26.125C96.8263 25.7173 97.1102 25.1985 97.2317 24.632C97.3028 24.3428 97.312 24.0418 97.2586 23.7488C97.2051 23.4558 97.0903 23.1775 96.9217 22.932C96.5171 22.4377 95.9451 22.1092 95.3143 22.0087C94.6835 21.9082 94.0378 22.0429 93.4997 22.387C92.9472 22.8342 92.5848 23.4742 92.4857 24.178C92.4568 24.3099 92.4365 24.4435 92.4247 24.578L90.4117 24.178C90.4278 24.0198 90.4522 23.8626 90.4847 23.707C90.6271 22.9045 90.977 22.1533 91.4997 21.528C91.995 20.9457 92.6461 20.5166 93.3767 20.291C94.152 20.0556 94.9744 20.0211 95.7667 20.191C96.5641 20.3309 97.3176 20.656 97.9667 21.14C98.5422 21.5759 98.9797 22.1686 99.2267 22.847C99.4739 23.5538 99.5203 24.3154 99.3607 25.047C99.1895 25.8792 98.7799 26.6436 98.1817 27.247C97.3774 28.0355 96.4542 28.6926 95.4457 29.194L91.9267 31.135L97.9117 32.317L97.5467 34.17L88.5977 32.402L88.9527 30.644Z" fill="#E0004D"/>
<path d="M100.299 34.49C99.7915 33.6194 99.5482 32.6196 99.5995 31.613C99.7671 29.1811 100.758 26.8787 102.408 25.085C103.101 24.3532 103.995 23.8422 104.976 23.616C105.959 23.4474 106.969 23.5679 107.884 23.9629C108.8 24.358 109.58 25.0104 110.131 25.841C110.636 26.7103 110.879 27.7069 110.831 28.711C110.671 31.1507 109.677 33.461 108.015 35.255C107.32 35.9829 106.428 36.4933 105.447 36.724C104.464 36.894 103.453 36.7731 102.538 36.376C101.622 35.979 100.843 35.3231 100.295 34.489L100.299 34.49ZM105.87 34.339C106.838 33.5589 107.576 32.5316 108.007 31.366C108.558 30.2502 108.797 29.0063 108.698 27.766C108.656 27.3083 108.489 26.8711 108.215 26.5024C107.94 26.1337 107.57 25.8478 107.143 25.676C106.73 25.486 106.271 25.4147 105.819 25.4702C105.368 25.5256 104.94 25.7056 104.584 25.99C103.623 26.7747 102.888 27.8021 102.455 28.966C101.905 30.0819 101.663 31.325 101.755 32.566C101.808 33.0176 101.978 33.4474 102.25 33.8119C102.521 34.1765 102.884 34.4629 103.302 34.6422C103.72 34.8215 104.177 34.8873 104.629 34.833C105.08 34.7787 105.509 34.6062 105.872 34.333L105.87 34.339Z" fill="#E0004D"/>
<path d="M112.847 41.246C112.474 40.1603 112.411 38.9926 112.664 37.873C112.93 36.6904 113.495 35.5956 114.304 34.693C115.084 33.7695 116.089 33.0631 117.222 32.642C118.295 32.244 119.457 32.1515 120.58 32.375C121.735 32.6269 122.808 33.1672 123.698 33.9455C124.589 34.7237 125.268 35.7147 125.672 36.826C126.044 37.9095 126.109 39.0747 125.861 40.193C125.578 41.3692 125.016 42.4598 124.221 43.3718C123.427 44.2838 122.423 44.9903 121.297 45.431C120.223 45.8282 119.061 45.9206 117.939 45.698C116.783 45.4466 115.71 44.9064 114.819 44.1278C113.929 43.3493 113.25 42.3578 112.847 41.246ZM118.2 43.73C118.987 43.8535 119.794 43.7581 120.531 43.454C121.326 43.1106 122.033 42.5935 122.602 41.9408C123.171 41.2881 123.587 40.5163 123.819 39.682C124.021 38.909 124.006 38.0953 123.777 37.33C123.532 36.5656 123.083 35.8824 122.479 35.3539C121.875 34.8253 121.138 34.4714 120.348 34.33C119.559 34.2012 118.749 34.2943 118.01 34.599C117.215 34.9424 116.506 35.4595 115.937 36.1124C115.368 36.7653 114.952 37.5374 114.721 38.372C114.52 39.1445 114.535 39.9575 114.765 40.722C115.012 41.4866 115.462 42.1698 116.067 42.6982C116.672 43.2267 117.41 43.5806 118.201 43.722L118.2 43.73Z" fill="#E0004D"/>
<path d="M130.754 41.278L135.812 48.345L134.294 49.435L130.474 44.097L127.586 46.17L130.692 50.51L129.173 51.599L126.067 47.261L121.259 50.713L120.021 48.983L130.754 41.278Z" fill="#E0004D"/>
<path d="M137.117 50.778L140.754 58.673L139.054 59.457L136.308 53.494L133.081 54.984L135.314 59.831L133.614 60.614L131.382 55.768L126.011 58.249L125.12 56.317L137.117 50.778Z" fill="#E0004D"/>
<path d="M28.9051 71.39L33.6831 71.716L31.2541 78.55L34.6821 78.725L29.0991 84.96L30.2991 80.311L26.7041 79.998L28.9051 71.39Z" fill="#E0004D"/>
<path d="M140.956 71.39L136.178 71.716L138.607 78.55L135.179 78.725L140.76 84.959L139.56 80.31L143.155 79.997L140.956 71.39Z" fill="#E0004D"/>
<mask id="mask0_456_5151" style="mask-type:luminance" maskUnits="userSpaceOnUse" x="1" y="1" width="166" height="166">
<path d="M164.747 60.22C166.768 67.067 158.859 75.39 159.037 82.202C159.222 89.252 167.491 97.163 165.875 103.861C164.236 110.661 153.24 113.919 149.928 120.02C146.616 126.121 149.858 137.137 145.055 142.21C140.32 147.21 129.195 144.559 123.187 148.237C117.381 151.79 114.705 162.963 107.87 164.986C101.035 167.009 92.724 159.086 85.921 159.267C78.883 159.452 70.983 167.734 64.295 166.115C57.511 164.472 54.252 153.461 48.16 150.143C42.068 146.825 31.068 150.073 26.005 145.263C21.013 140.521 23.658 129.379 19.987 123.363C16.438 117.548 5.28703 114.868 3.26203 108.023C1.23703 101.178 9.15103 92.853 8.97203 86.041C8.78803 78.991 0.519024 71.08 2.13502 64.382C3.77402 57.588 14.77 54.324 18.082 48.223C21.394 42.122 18.152 31.106 22.954 26.033C27.689 21.033 38.814 23.684 44.822 20.007C50.63 16.453 53.304 5.28004 60.14 3.25604C66.976 1.23204 75.286 9.15604 82.089 8.97504C89.127 8.79004 97.026 0.509041 103.715 2.12804C110.499 3.77004 113.757 14.782 119.848 18.099C125.939 21.416 136.94 18.169 142.004 22.979C146.996 27.721 144.351 38.863 148.022 44.879C151.571 50.694 162.726 53.378 164.747 60.22Z" fill="white"/>
</mask>
<g mask="url(#mask0_456_5151)">
<path d="M71.6723 180.291L112.54 168.422C113.047 160.792 111.24 157.107 111.24 157.107C110.695 139.415 113.169 118.895 113.09 111.014C112.926 94.398 116.475 75.861 113.051 67.192C112.117 64.7621 110.565 62.6174 108.55 60.9692C106.534 59.321 104.124 58.226 101.557 57.792L101.547 57.786C101.371 57.757 101.265 57.747 101.265 57.747C100.748 57.2098 100.191 56.7133 99.5974 56.262C98.2807 55.255 96.7414 54.5791 95.109 54.2913C93.4766 54.0034 91.799 54.1121 90.2173 54.608C90.1547 54.6207 90.0929 54.6374 90.0323 54.658C89.8241 54.7258 89.6204 54.8066 89.4223 54.9L89.4014 54.887C89.4014 54.871 89.3874 54.864 89.3844 54.848C89.1394 54.596 87.6844 53.329 81.5844 52.296C78.4635 51.6863 75.2276 52.1951 72.4444 53.733C72.3914 53.7568 72.3408 53.7856 72.2934 53.819C71.8244 54.0867 71.3838 54.4013 70.9783 54.758C70.9783 54.758 70.9344 54.717 70.8584 54.64C69.9584 53.81 64.0853 48.752 57.8663 53.174C51.7283 57.536 56.5793 72.54 57.5213 75.266C57.6213 75.535 57.6763 75.684 57.6763 75.684C57.6763 75.684 56.3004 79.861 54.8904 84.669C54.8932 84.6774 54.8932 84.6866 54.8904 84.695C54.0174 87.695 53.1344 90.958 52.5574 93.577C52.5532 93.6192 52.5458 93.661 52.5353 93.702C52.4913 93.926 52.4483 94.149 52.4013 94.357C51.0483 101.157 64.1593 115.279 66.8653 123.187C68.0933 126.812 71.8813 158.012 71.6723 180.291Z" fill="#FFBBA9"/>
<path d="M51.9889 95.4351C51.9339 95.4004 51.8912 95.3492 51.867 95.2889C51.8428 95.2286 51.8382 95.1621 51.8539 95.0991C51.8949 94.9341 56.0339 78.5941 58.1619 72.2131C60.4519 65.3451 64.8809 65.1611 68.1129 65.0241C70.9129 64.9081 91.6569 65.7731 92.3299 69.6431C93.0539 73.7731 90.0519 76.6231 82.2899 79.1731C77.6089 80.7121 76.0599 81.2471 75.5599 81.4321L72.3049 87.6231C74.5049 88.6231 88.0609 95.0671 93.4529 104.195C93.476 104.23 93.4919 104.269 93.4994 104.31C93.507 104.351 93.5061 104.393 93.4968 104.434C93.4876 104.475 93.4701 104.513 93.4455 104.547C93.4209 104.581 93.3897 104.609 93.3537 104.631C93.3178 104.652 93.2779 104.666 93.2365 104.671C93.195 104.677 93.1529 104.674 93.1127 104.662C93.0725 104.651 93.035 104.631 93.0026 104.605C92.9701 104.579 92.9433 104.546 92.9239 104.509C87.1759 94.7831 71.9099 88.1181 71.7579 88.0531C71.719 88.036 71.6841 88.0111 71.6553 87.98C71.6265 87.9488 71.6044 87.9121 71.5903 87.8721C71.5762 87.8321 71.5705 87.7896 71.5736 87.7473C71.5766 87.7049 71.5883 87.6637 71.6079 87.6261L74.8999 81.3631L74.8929 81.3421C74.8549 81.2161 74.8299 81.1341 75.1599 80.9681V80.9501C75.1859 80.9441 75.2369 80.9311 75.2389 80.9291H75.2469C75.9009 80.6291 77.6409 80.0541 82.1009 78.5891C91.4089 75.5291 92.1899 72.4041 91.7249 69.7511C91.2169 66.8411 72.8849 65.4441 68.1399 65.6421C64.1799 65.8071 60.7399 66.4301 58.7469 72.4091C56.6259 78.7681 52.4939 95.0861 52.4529 95.2511C52.443 95.2902 52.4254 95.3271 52.4012 95.3594C52.3771 95.3918 52.3467 95.4191 52.312 95.4397C52.2772 95.4603 52.2387 95.4739 52.1987 95.4796C52.1587 95.4854 52.118 95.4831 52.0789 95.4731C52.0469 95.4656 52.0165 95.4527 51.9889 95.4351Z" fill="#29100D"/>
<path d="M80.1635 69.621C79.8014 69.3979 79.4938 69.0965 79.2635 68.739C78.8402 67.9231 78.6519 67.0056 78.7195 66.089C78.719 66.0486 78.7265 66.0085 78.7416 65.971C78.7566 65.9336 78.7789 65.8994 78.8071 65.8705C78.8353 65.8416 78.869 65.8186 78.9061 65.8027C78.9432 65.7868 78.9831 65.7784 79.0235 65.778C79.0639 65.7775 79.104 65.785 79.1414 65.8C79.1789 65.8151 79.2131 65.8373 79.242 65.8656C79.2708 65.8938 79.2939 65.9274 79.3098 65.9646C79.3256 66.0017 79.334 66.0416 79.3345 66.082C79.2733 66.8832 79.4284 67.6861 79.7835 68.407C80.4555 69.468 81.9405 69.699 83.2765 69.829C84.5322 70.0069 85.806 70.0177 87.0645 69.861C87.6667 69.7823 88.2472 69.585 88.7727 69.2805C89.2981 68.976 89.7579 68.5704 90.1255 68.087C90.1476 68.0528 90.1765 68.0234 90.2103 68.0007C90.2441 67.978 90.2822 67.9625 90.3223 67.955C90.3623 67.9475 90.4035 67.9482 90.4433 67.9572C90.483 67.9661 90.5205 67.9831 90.5535 68.007C90.6208 68.0532 90.6671 68.1241 90.6822 68.2043C90.6974 68.2845 90.6802 68.3674 90.6345 68.435C90.2227 68.9891 89.7036 69.4547 89.1082 69.8042C88.5127 70.1536 87.8531 70.3797 87.1685 70.469C85.8558 70.6364 84.5267 70.6269 83.2165 70.441C82.15 70.4014 81.1063 70.1211 80.1635 69.621Z" fill="#29100D"/>
<path d="M67.9658 65.62C67.9196 65.5907 67.882 65.5496 67.8571 65.5009C67.8321 65.4522 67.8206 65.3977 67.8238 65.343C67.9401 63.2694 68.2052 61.2068 68.6168 59.171C68.8535 57.5175 69.4785 55.9435 70.4408 54.578C70.457 54.5577 70.4755 54.5393 70.4958 54.523C73.6185 52.3645 77.4443 51.472 81.1998 52.026C87.0768 53.026 89.4998 54.593 89.5918 54.643C89.6582 54.6882 89.7044 54.7575 89.7205 54.8362C89.7366 54.9149 89.7212 54.9968 89.6778 55.0644C89.6343 55.1319 89.5662 55.1799 89.4879 55.1979C89.4097 55.216 89.3274 55.2028 89.2588 55.161L89.2488 55.154C89.1068 55.065 86.6848 53.579 81.0978 52.633C77.5225 52.1305 73.8879 52.9725 70.8978 54.996C70.0152 56.281 69.4416 57.7527 69.2218 59.296C68.8158 61.3024 68.5542 63.3353 68.4388 65.379C68.4357 65.4326 68.4188 65.4844 68.3896 65.5294C68.3604 65.5744 68.3199 65.6109 68.2722 65.6355C68.2246 65.66 68.1713 65.6717 68.1177 65.6693C68.0641 65.667 68.0121 65.6507 67.9668 65.622L67.9658 65.62Z" fill="#29100D"/>
<path d="M72.6069 87.485C72.4777 87.4066 72.3541 87.3194 72.2369 87.224C72.1744 87.171 72.1356 87.0953 72.129 87.0136C72.1223 86.932 72.1483 86.851 72.2014 86.7885C72.2544 86.7261 72.3301 86.6872 72.4118 86.6806C72.4935 86.6739 72.5744 86.7 72.6369 86.753C72.6769 86.783 76.0369 89.494 82.9369 87.135C83.0143 87.1085 83.0991 87.1138 83.1727 87.1498C83.2462 87.1859 83.3024 87.2496 83.3289 87.327C83.3554 87.4045 83.3501 87.4893 83.3141 87.5628C83.2781 87.6363 83.2143 87.6925 83.1369 87.719C77.1119 89.778 73.6859 88.166 72.6069 87.485Z" fill="#29100D"/>
<path d="M83.9897 88.617C81.3897 86.979 82.2827 79.279 82.3217 78.945C82.3347 78.8669 82.3773 78.7967 82.4407 78.7492C82.5041 78.7017 82.5834 78.6804 82.662 78.6898C82.7407 78.6992 82.8127 78.7385 82.8631 78.7997C82.9135 78.8608 82.9385 78.939 82.9327 79.018C82.6747 81.173 82.4327 86.909 84.3107 88.093C84.3507 88.118 84.3917 88.141 84.4327 88.162C86.2187 89.056 90.5607 89.696 93.0377 88.619C93.3894 88.4981 93.7094 88.2993 93.9736 88.0375C94.2378 87.7757 94.4395 87.4576 94.5637 87.107C95.4367 84.168 100.802 60.207 101.302 57.971C99.8491 56.6378 98.1028 55.6654 96.2044 55.1328C94.306 54.6001 92.3089 54.5221 90.3747 54.905C84.7557 55.852 82.8747 66.157 82.8547 66.26C82.8405 66.3405 82.7949 66.4121 82.728 66.459C82.661 66.5058 82.5782 66.5242 82.4977 66.51C82.4172 66.4958 82.3456 66.4502 82.2987 66.3833C82.2519 66.3163 82.2335 66.2335 82.2477 66.153C82.3267 65.71 84.2257 55.316 90.2727 54.296C92.3319 53.8899 94.4584 53.983 96.4741 54.5676C98.4899 55.1522 100.336 56.2112 101.859 57.656C101.895 57.6925 101.921 57.7375 101.935 57.7868C101.949 57.8361 101.95 57.8881 101.939 57.938C101.7 59.009 96.0697 84.193 95.1537 87.282C95.0052 87.7196 94.7595 88.1178 94.4352 88.4469C94.1108 88.776 93.7161 89.0273 93.2807 89.182C90.6057 90.345 86.0887 89.682 84.1567 88.711C84.0994 88.6827 84.0436 88.6513 83.9897 88.617Z" fill="#29100D"/>
<path d="M96.7286 90.0191C95.8821 89.4937 95.1491 88.8046 94.5726 87.9921C94.5334 87.9233 94.5222 87.842 94.5414 87.7651C94.5606 87.6882 94.6086 87.6217 94.6755 87.5794C94.7425 87.537 94.8232 87.5221 94.9008 87.5377C94.9785 87.5533 95.0472 87.5982 95.0926 87.6631C95.8085 88.678 96.7878 89.4783 97.9249 89.9779C99.062 90.4775 100.314 90.6573 101.546 90.4981C105.858 90.0181 111.701 76.0071 111.76 75.8661C111.791 75.7915 111.851 75.7323 111.926 75.7011C112 75.6698 112.084 75.6691 112.16 75.6991C112.197 75.7144 112.231 75.7369 112.259 75.7654C112.287 75.7938 112.31 75.8276 112.325 75.8648C112.341 75.9019 112.348 75.9418 112.348 75.982C112.348 76.0222 112.34 76.062 112.325 76.0991C112.081 76.6911 106.283 90.5881 101.611 91.1081C99.9063 91.3208 98.1809 90.936 96.7286 90.0191Z" fill="#29100D"/>
<path d="M38.3994 156.251C36.9494 149.532 35.2994 142.534 30.8584 137.296C38.1974 137.996 45.6144 138.181 52.8364 139.669C60.0584 141.157 67.2214 144.099 72.2944 149.458C83.0304 160.802 78.1164 176.534 64.0294 181.995C48.4724 188.023 40.8064 167.41 38.3994 156.251Z" fill="#CACAE5"/>
<mask id="mask1_456_5151" style="mask-type:luminance" maskUnits="userSpaceOnUse" x="30" y="137" width="49" height="47">
<path d="M38.3994 156.251C36.9494 149.532 35.2994 142.534 30.8584 137.296C38.1974 137.996 45.6144 138.181 52.8364 139.669C60.0584 141.157 67.2214 144.099 72.2944 149.458C83.0304 160.802 78.1164 176.534 64.0294 181.995C48.4724 188.023 40.8064 167.41 38.3994 156.251Z" fill="white"/>
</mask>
<g mask="url(#mask1_456_5151)">
<path d="M77.7766 188.578C77.7054 188.578 77.6355 188.559 77.5746 188.522C77.5137 188.484 77.4642 188.431 77.4316 188.368C65.8417 165.64 47.715 146.901 25.3846 134.562C25.2957 134.511 25.2306 134.426 25.2034 134.327C25.1762 134.228 25.1891 134.123 25.2394 134.033C25.2897 133.944 25.3733 133.877 25.472 133.849C25.5707 133.821 25.6766 133.833 25.7667 133.882C48.2291 146.293 66.4625 165.144 78.1196 188.007C78.1508 188.066 78.1661 188.133 78.164 188.2C78.162 188.267 78.1427 188.332 78.108 188.39C78.0733 188.447 78.0244 188.495 77.966 188.528C77.9076 188.561 77.8417 188.578 77.7746 188.578H77.7766Z" fill="black"/>
<path d="M51.5992 153.502H51.5682C51.5173 153.498 51.4676 153.484 51.4221 153.461C51.3766 153.438 51.3361 153.406 51.3029 153.367C51.2697 153.328 51.2446 153.283 51.2288 153.235C51.2131 153.186 51.2071 153.135 51.2112 153.084C51.7091 146.71 50.4341 140.322 47.5272 134.627C47.4801 134.535 47.4715 134.428 47.5032 134.33C47.5349 134.232 47.6043 134.15 47.6962 134.103C47.7881 134.056 47.8949 134.047 47.9932 134.079C48.0915 134.111 48.1731 134.18 48.2202 134.272C51.1929 140.095 52.4963 146.627 51.9862 153.145C51.9779 153.242 51.9337 153.333 51.862 153.399C51.7904 153.465 51.6966 153.502 51.5992 153.502Z" fill="black"/>
<path d="M59.8444 162.19C59.75 162.189 59.6592 162.153 59.5894 162.09C59.5113 162.022 59.4634 161.926 59.4561 161.823C59.4487 161.72 59.4827 161.618 59.5504 161.54C61.0754 159.777 61.6204 157.34 62.0854 154.79C62.9654 149.969 63.7364 145.054 64.3764 140.181C64.4824 139.365 64.3854 138.881 64.0764 138.694C64.0324 138.668 63.994 138.633 63.9634 138.592C63.9328 138.551 63.9107 138.504 63.8981 138.454C63.8856 138.405 63.883 138.353 63.8904 138.302C63.8978 138.252 63.9152 138.203 63.9414 138.159C63.9677 138.115 64.0024 138.077 64.0435 138.046C64.0846 138.015 64.1313 137.993 64.181 137.981C64.2306 137.968 64.2823 137.965 64.333 137.973C64.3837 137.98 64.4324 137.998 64.4764 138.024C65.3764 138.559 65.2034 139.856 65.1484 140.283C64.5064 145.168 63.7334 150.096 62.8484 154.931C62.3634 157.591 61.7904 160.138 60.1354 162.051C60.0998 162.094 60.0554 162.128 60.0052 162.152C59.9549 162.176 59.9001 162.189 59.8444 162.19Z" fill="black"/>
<path d="M64.9578 168.724C64.8783 168.724 64.8007 168.7 64.7355 168.654C64.6702 168.609 64.6204 168.545 64.5927 168.47C64.565 168.396 64.5608 168.315 64.5807 168.238C64.6006 168.161 64.6435 168.092 64.7038 168.04C70.7843 162.723 74.9483 155.556 76.5548 147.64C76.5635 147.589 76.5825 147.539 76.6107 147.496C76.6388 147.452 76.6754 147.414 76.7184 147.384C76.7614 147.355 76.8099 147.334 76.861 147.324C76.9121 147.314 76.9647 147.314 77.0158 147.324C77.0669 147.334 77.1154 147.355 77.1583 147.385C77.2013 147.414 77.2379 147.452 77.266 147.496C77.2941 147.54 77.3131 147.589 77.3218 147.64C77.3305 147.692 77.3288 147.744 77.3168 147.795C75.6779 155.88 71.4263 163.202 65.2168 168.633C65.1445 168.694 65.0524 168.726 64.9578 168.724Z" fill="black"/>
<path d="M46.4887 160.746C43.3621 160.758 40.2696 160.096 37.4217 158.806C37.3313 158.761 37.2619 158.682 37.2283 158.587C37.1946 158.492 37.1993 158.387 37.2413 158.295C37.2833 158.203 37.3594 158.131 37.4535 158.094C37.5476 158.057 37.6523 158.058 37.7457 158.097C40.6408 159.393 43.7876 160.03 46.9588 159.962C50.1301 159.894 53.2467 159.123 56.0837 157.704C56.1292 157.681 56.1789 157.667 56.2299 157.663C56.2809 157.659 56.3322 157.665 56.3809 157.68C56.4295 157.696 56.4746 157.721 56.5135 157.755C56.5524 157.788 56.5844 157.828 56.6077 157.874C56.6309 157.919 56.6449 157.969 56.649 158.02C56.653 158.071 56.647 158.122 56.6312 158.171C56.6154 158.22 56.5902 158.265 56.557 158.304C56.5238 158.343 56.4832 158.375 56.4377 158.398C53.3532 159.955 49.9439 160.76 46.4887 160.746Z" fill="black"/>
<path d="M46.8455 170.378C44.841 170.379 42.8416 170.176 40.8785 169.771C40.8283 169.761 40.7807 169.74 40.7383 169.712C40.6959 169.683 40.6596 169.646 40.6315 169.603C40.6034 169.56 40.5839 169.512 40.5743 169.462C40.5647 169.412 40.5651 169.36 40.5755 169.31C40.5858 169.26 40.606 169.212 40.6348 169.17C40.6636 169.127 40.7004 169.091 40.7432 169.063C40.786 169.035 40.8339 169.015 40.8843 169.006C40.9346 168.996 40.9863 168.997 41.0365 169.007C48.4881 170.518 56.2354 169.079 62.6475 164.993C62.7345 164.937 62.84 164.919 62.9408 164.941C63.0416 164.963 63.1294 165.024 63.185 165.111C63.2405 165.198 63.2593 165.304 63.237 165.405C63.2148 165.506 63.1535 165.593 63.0665 165.649C58.2211 168.74 52.5928 170.381 46.8455 170.378Z" fill="black"/>
<path d="M38.5314 148.342C37.1448 148.344 35.7662 148.134 34.4434 147.718C34.3449 147.687 34.2627 147.618 34.215 147.526C34.1672 147.435 34.1579 147.328 34.1889 147.229C34.2199 147.131 34.2888 147.049 34.3804 147.001C34.472 146.953 34.5789 146.944 34.6774 146.975C37.7453 147.928 41.0574 147.715 43.9774 146.375C44.0701 146.338 44.1737 146.338 44.2665 146.374C44.3594 146.411 44.4346 146.482 44.4766 146.573C44.5185 146.664 44.5241 146.767 44.492 146.862C44.46 146.957 44.3928 147.035 44.3044 147.082C42.4939 147.915 40.5242 148.345 38.5314 148.342Z" fill="black"/>
<path d="M67.9913 152.899C68.2955 152.89 68.5843 152.763 68.7964 152.545C69.0084 152.326 69.1271 152.034 69.1271 151.729C69.1271 151.425 69.0084 151.133 68.7964 150.914C68.5843 150.696 68.2955 150.569 67.9913 150.56C67.687 150.569 67.3982 150.696 67.1861 150.914C66.9741 151.133 66.8555 151.425 66.8555 151.729C66.8555 152.034 66.9741 152.326 67.1861 152.545C67.3982 152.763 67.687 152.89 67.9913 152.899Z" fill="black"/>
<path d="M56.3783 144.507L56.2923 144.594C56.0836 144.815 55.9694 145.109 55.9738 145.413C55.9781 145.717 56.1008 146.007 56.3158 146.223C56.5307 146.438 56.821 146.56 57.1251 146.565C57.4291 146.57 57.723 146.456 57.9443 146.247L58.0303 146.161C58.2338 145.939 58.3438 145.647 58.3373 145.345C58.3308 145.044 58.2083 144.757 57.9954 144.544C57.7825 144.331 57.4955 144.208 57.1943 144.201C56.893 144.194 56.6007 144.304 56.3783 144.507Z" fill="black"/>
<path d="M46.5001 156.178C46.8043 156.169 47.0931 156.042 47.3052 155.824C47.5172 155.605 47.6359 155.313 47.6359 155.008C47.6359 154.704 47.5172 154.412 47.3052 154.193C47.0931 153.975 46.8043 153.848 46.5001 153.839C46.1958 153.848 45.907 153.975 45.6949 154.193C45.4829 154.412 45.3643 154.704 45.3643 155.008C45.3643 155.313 45.4829 155.605 45.6949 155.824C45.907 156.042 46.1958 156.169 46.5001 156.178Z" fill="black"/>
<path d="M43.9151 141.923C44.2193 141.914 44.5082 141.787 44.7202 141.569C44.9323 141.35 45.0509 141.058 45.0509 140.753C45.0509 140.449 44.9323 140.157 44.7202 139.938C44.5082 139.72 44.2193 139.593 43.9151 139.584C43.6108 139.593 43.322 139.72 43.11 139.938C42.8979 140.157 42.7793 140.449 42.7793 140.753C42.7793 141.058 42.8979 141.35 43.11 141.569C43.322 141.787 43.6108 141.914 43.9151 141.923Z" fill="black"/>
</g>
<path d="M132.104 158.288C133.796 150.448 135.716 142.288 140.904 136.173C132.341 136.993 123.689 137.205 115.263 138.942C106.837 140.679 98.4794 144.11 92.5634 150.362C80.0374 163.596 85.7694 181.952 102.206 188.323C120.349 195.357 129.293 171.307 132.104 158.288Z" fill="#CACAE5"/>
<mask id="mask2_456_5151" style="mask-type:luminance" maskUnits="userSpaceOnUse" x="85" y="136" width="56" height="54">
<path d="M132.104 158.288C133.796 150.448 135.716 142.288 140.904 136.173C132.341 136.993 123.689 137.205 115.263 138.942C106.837 140.679 98.4794 144.11 92.5634 150.362C80.0374 163.596 85.7694 181.952 102.206 188.323C120.349 195.357 129.293 171.307 132.104 158.288Z" fill="white"/>
</mask>
<g mask="url(#mask2_456_5151)">
<path d="M86.1593 196C86.2418 195.999 86.3226 195.976 86.3931 195.933C86.4636 195.89 86.521 195.829 86.5593 195.756C100.081 169.238 121.231 147.373 147.285 132.978C147.337 132.949 147.383 132.91 147.42 132.863C147.457 132.816 147.484 132.762 147.5 132.705C147.516 132.647 147.521 132.587 147.514 132.528C147.507 132.469 147.488 132.411 147.459 132.359C147.43 132.307 147.39 132.262 147.343 132.225C147.297 132.188 147.243 132.161 147.185 132.145C147.128 132.128 147.068 132.124 147.009 132.131C146.95 132.138 146.892 132.157 146.84 132.186C120.633 146.666 99.359 168.659 85.7583 195.334C85.7224 195.403 85.7048 195.48 85.7073 195.558C85.7097 195.636 85.732 195.712 85.7721 195.779C85.8122 195.846 85.8688 195.901 85.9364 195.94C86.004 195.978 86.0804 195.999 86.1583 196H86.1593Z" fill="black"/>
<path d="M116.699 155.078H116.736C116.856 155.068 116.968 155.011 117.046 154.919C117.124 154.827 117.163 154.708 117.153 154.588C116.573 147.151 118.061 139.699 121.453 133.055C121.481 133.002 121.499 132.944 121.504 132.884C121.51 132.824 121.504 132.763 121.486 132.706C121.468 132.648 121.438 132.595 121.399 132.549C121.361 132.503 121.313 132.465 121.259 132.438C121.206 132.41 121.147 132.394 121.087 132.389C121.027 132.384 120.967 132.392 120.91 132.411C120.852 132.43 120.8 132.46 120.754 132.499C120.709 132.539 120.672 132.587 120.645 132.641C117.177 139.434 115.656 147.055 116.251 154.659C116.26 154.772 116.31 154.878 116.393 154.956C116.476 155.033 116.586 155.077 116.699 155.078Z" fill="black"/>
<path d="M107.082 165.216C107.193 165.217 107.3 165.178 107.382 165.105C107.428 165.066 107.465 165.018 107.492 164.965C107.519 164.912 107.535 164.854 107.539 164.794C107.543 164.734 107.536 164.675 107.517 164.618C107.498 164.561 107.468 164.509 107.428 164.464C105.648 162.406 105.013 159.564 104.47 156.589C103.443 150.964 102.544 145.229 101.798 139.544C101.673 138.592 101.787 138.024 102.146 137.809C102.198 137.778 102.243 137.738 102.278 137.69C102.314 137.642 102.34 137.588 102.355 137.53C102.369 137.472 102.373 137.411 102.364 137.352C102.355 137.293 102.335 137.236 102.304 137.185C102.274 137.134 102.233 137.089 102.186 137.053C102.138 137.017 102.083 136.991 102.025 136.977C101.967 136.962 101.907 136.959 101.848 136.968C101.789 136.976 101.732 136.996 101.68 137.027C100.634 137.653 100.832 139.165 100.896 139.663C101.646 145.363 102.547 151.112 103.576 156.753C104.143 159.853 104.811 162.828 106.741 165.061C106.784 165.109 106.837 165.148 106.895 165.175C106.954 165.202 107.018 165.216 107.082 165.216Z" fill="black"/>
<path d="M101.116 172.841C101.21 172.842 101.301 172.814 101.378 172.761C101.454 172.708 101.513 172.633 101.546 172.546C101.579 172.458 101.584 172.363 101.561 172.273C101.537 172.183 101.487 172.102 101.416 172.041C94.3215 165.837 89.463 157.473 87.5895 148.236C87.5776 148.177 87.5544 148.122 87.5211 148.072C87.4878 148.023 87.4451 147.98 87.3953 147.947C87.3456 147.914 87.2899 147.891 87.2313 147.88C87.1727 147.868 87.1125 147.869 87.054 147.88C86.9955 147.892 86.9399 147.915 86.8903 147.949C86.8408 147.982 86.7983 148.025 86.7653 148.075C86.7323 148.124 86.7094 148.18 86.6979 148.239C86.6865 148.297 86.6866 148.357 86.6984 148.416C88.6123 157.85 93.5748 166.392 100.821 172.728C100.903 172.8 101.008 172.841 101.116 172.841Z" fill="black"/>
<path d="M122.664 163.532C126.312 163.546 129.92 162.775 133.242 161.269C133.352 161.219 133.437 161.127 133.479 161.014C133.521 160.901 133.516 160.776 133.466 160.667C133.416 160.557 133.325 160.472 133.212 160.43C133.099 160.388 132.974 160.393 132.864 160.443C129.486 161.955 125.813 162.699 122.113 162.619C118.412 162.539 114.775 161.639 111.464 159.983C111.357 159.928 111.232 159.918 111.118 159.955C111.003 159.992 110.908 160.074 110.853 160.181C110.799 160.288 110.789 160.413 110.826 160.527C110.863 160.642 110.944 160.737 111.051 160.792C114.652 162.609 118.631 163.548 122.664 163.532Z" fill="black"/>
<path d="M131.948 149.06C133.566 149.062 135.174 148.817 136.718 148.333C136.833 148.297 136.929 148.216 136.985 148.109C137.04 148.002 137.051 147.877 137.015 147.762C136.979 147.647 136.898 147.551 136.791 147.495C136.684 147.439 136.559 147.429 136.444 147.465C132.865 148.577 129.001 148.328 125.595 146.765C125.486 146.72 125.365 146.719 125.256 146.762C125.147 146.805 125.058 146.888 125.009 146.995C124.96 147.101 124.953 147.222 124.991 147.333C125.029 147.444 125.109 147.536 125.213 147.59C127.325 148.561 129.623 149.063 131.948 149.06Z" fill="black"/>
<path d="M97.5761 154.378C97.2206 154.368 96.8829 154.22 96.6349 153.965C96.3868 153.711 96.248 153.369 96.248 153.013C96.248 152.658 96.3868 152.316 96.6349 152.061C96.8829 151.807 97.2206 151.659 97.5761 151.649C97.9316 151.659 98.2693 151.807 98.5173 152.061C98.7654 152.316 98.9042 152.658 98.9042 153.013C98.9042 153.369 98.7654 153.711 98.5173 153.965C98.2693 154.22 97.9316 154.368 97.5761 154.378Z" fill="black"/>
<path d="M111.125 144.586L111.225 144.686C111.472 144.943 111.608 145.287 111.604 145.644C111.6 146 111.457 146.341 111.205 146.593C110.953 146.845 110.613 146.989 110.256 146.993C109.9 146.997 109.556 146.862 109.298 146.616L109.198 146.516C108.952 146.259 108.816 145.915 108.819 145.558C108.823 145.202 108.966 144.861 109.218 144.609C109.47 144.357 109.811 144.213 110.167 144.209C110.523 144.204 110.867 144.34 111.125 144.586Z" fill="black"/>
<path d="M122.646 158.209C122.291 158.199 121.953 158.051 121.705 157.796C121.457 157.542 121.318 157.2 121.318 156.844C121.318 156.489 121.457 156.147 121.705 155.892C121.953 155.637 122.291 155.489 122.646 155.48C123.002 155.489 123.34 155.637 123.588 155.892C123.836 156.147 123.974 156.489 123.974 156.844C123.974 157.2 123.836 157.542 123.588 157.796C123.34 158.051 123.002 158.199 122.646 158.209Z" fill="black"/>
<path d="M125.667 141.571C125.311 141.561 124.974 141.413 124.726 141.158C124.478 140.904 124.339 140.562 124.339 140.206C124.339 139.851 124.478 139.509 124.726 139.254C124.974 139 125.311 138.852 125.667 138.842C126.022 138.852 126.36 139 126.608 139.254C126.856 139.509 126.995 139.851 126.995 140.206C126.995 140.562 126.856 140.904 126.608 141.158C126.36 141.413 126.022 141.561 125.667 141.571Z" fill="black"/>
</g>
</g>
</svg>
