<svg width="169" height="175" viewBox="0 0 169 175" fill="none" xmlns="http://www.w3.org/2000/svg">
<path d="M167.618 61.7921C169.701 69.0571 161.771 77.8521 161.954 85.0811C162.145 92.5621 170.444 100.932 168.778 108.04C167.087 115.249 155.964 118.796 152.55 125.27C149.136 131.744 152.296 143.297 147.35 148.679C142.47 153.985 131.144 151.353 124.95 155.256C118.965 159.027 116.116 170.67 109.069 172.818C102.022 174.966 93.4921 166.789 86.4801 166.979C79.2251 167.179 71.1061 175.732 64.2111 174.014C57.2181 172.272 53.7791 160.803 47.5001 157.283C41.2211 153.763 30.0141 157.021 24.7941 151.916C19.6491 146.884 22.2011 135.207 18.4161 128.822C14.7571 122.65 3.46506 119.714 1.38306 112.449C-0.698939 105.184 7.23008 96.3891 7.04508 89.1601C6.85508 81.6791 -1.44492 73.3081 0.22208 66.2011C1.91308 58.9921 13.0361 55.4451 16.4491 48.9701C19.8621 42.4951 16.7041 30.9431 21.6541 25.5611C26.5341 20.2551 37.8611 22.8871 44.0541 18.9841C50.0391 15.2131 52.8881 3.57005 59.9331 1.42205C66.9781 -0.725945 75.5111 7.45106 82.5231 7.26106C89.7781 7.06106 97.8971 -1.49194 104.79 0.226056C111.784 1.96806 115.224 13.4361 121.502 16.9571C127.78 20.4781 138.987 17.2191 144.202 22.3241C149.349 27.3561 146.797 39.0331 150.581 45.4181C154.242 51.5901 165.536 54.5221 167.618 61.7921Z" fill="#E0004D"/>
<path d="M165.724 62.3691C167.757 69.4601 159.801 78.0791 159.98 85.1341C160.167 92.4341 168.48 100.627 166.859 107.564C165.21 114.601 154.149 117.98 150.817 124.298C147.485 130.616 150.747 142.025 145.917 147.278C141.154 152.456 129.963 149.711 123.917 153.52C118.076 157.2 115.385 168.77 108.509 170.866C101.633 172.962 93.2725 164.758 86.4285 164.944C79.3485 165.135 71.4015 173.711 64.6735 172.035C57.8495 170.335 54.5735 158.935 48.4425 155.496C42.3115 152.057 31.2495 155.424 26.1555 150.443C21.1335 145.532 23.7945 133.994 20.1015 127.763C16.5315 121.741 5.30951 118.963 3.27651 111.877C1.24351 104.791 9.20053 96.1671 9.02053 89.1121C8.83553 81.8121 0.520516 73.6191 2.14352 66.6821C3.79252 59.6451 14.8535 56.2661 18.1855 49.9481C21.5175 43.6301 18.2555 32.2211 23.0855 26.9681C27.8485 21.7901 39.0395 24.5351 45.0855 20.7271C50.9275 17.0461 53.6175 5.47606 60.4955 3.38006C67.3735 1.28406 75.7315 9.48806 82.5755 9.30206C89.6555 9.11106 97.6015 0.535055 104.331 2.21005C111.155 3.91005 114.431 15.3101 120.561 18.7511C126.691 22.1921 137.754 18.8231 142.849 23.8041C147.871 28.7151 145.21 40.2531 148.903 46.4841C152.47 52.5041 163.691 55.2791 165.724 62.3691Z" fill="#F7F7F9"/>
<path d="M26.8613 63.0941L27.6613 61.0521L38.2033 65.4431L40.6033 59.3311L42.3803 60.0721L39.1803 68.2281L26.8613 63.0941Z" fill="#E0004D"/>
<path d="M32.0325 51.259L34.0075 52.404L32.9155 54.404L30.9395 53.261L32.0325 51.259ZM34.3585 55.134L35.3415 53.334L43.6775 58.164L42.6945 59.97L34.3585 55.134Z" fill="#E0004D"/>
<path d="M36.4473 50.6281L37.7473 49.0491L38.9983 50.1431C38.7479 49.5988 38.6504 48.9966 38.7162 48.4011C38.7942 47.7846 39.0527 47.205 39.4593 46.7351C39.8816 46.1836 40.4501 45.7616 41.1003 45.5171C41.6833 45.3134 42.3222 45.3414 42.8853 45.5951C42.6314 44.9801 42.5511 44.3073 42.653 43.6498C42.7549 42.9923 43.0351 42.3754 43.4633 41.8661C43.7319 41.5028 44.0712 41.1977 44.4608 40.9689C44.8503 40.7402 45.2822 40.5926 45.7303 40.5351C46.1681 40.4988 46.6086 40.5563 47.0225 40.7037C47.4363 40.8512 47.814 41.0852 48.1302 41.3901L53.0482 45.6901L51.7483 47.2691L47.2103 43.3001C46.8219 42.9221 46.3002 42.7123 45.7582 42.7161C45.4956 42.7345 45.2402 42.8103 45.0101 42.9382C44.78 43.0661 44.5806 43.2428 44.4262 43.4561C44.2037 43.7106 44.0488 44.017 43.9757 44.3471C43.9027 44.6773 43.9138 45.0204 44.0082 45.3451C44.2479 46.1315 44.7199 46.827 45.3622 47.3401L49.0453 50.5591L47.7452 52.1381L43.2053 48.1701C42.8186 47.7923 42.2999 47.5799 41.7592 47.5781C41.4976 47.5944 41.2428 47.6687 41.0134 47.7954C40.7839 47.9222 40.5854 48.0983 40.4323 48.3111C40.2092 48.5676 40.0536 48.8756 39.9795 49.2074C39.9055 49.5391 39.9154 49.8841 40.0082 50.2111C40.2424 51.0002 40.7133 51.6983 41.3572 52.2111L45.0392 55.4301L43.7393 57.0091L36.4473 50.6281Z" fill="#E0004D"/>
<path d="M47.2937 33.3661L48.7147 35.1861L46.9767 36.6271L45.5537 34.8061L47.2937 33.3661ZM48.0537 37.8551L49.6197 36.5551L55.6127 44.2381L54.0467 45.5381L48.0537 37.8551Z" fill="#E0004D"/>
<path d="M56.46 33.7981L54.5229 35.1221L57.1759 39.2571C57.2705 39.4307 57.3989 39.5835 57.5535 39.7066C57.708 39.8298 57.8857 39.9207 58.076 39.9742C58.2563 40.0097 58.4422 40.0067 58.6213 39.9651C58.8004 39.9236 58.9687 39.8445 59.115 39.7331C59.379 39.5378 59.6195 39.3126 59.8319 39.0621L60.7979 40.5621C60.6954 40.6928 60.5805 40.8134 60.455 40.9221C60.2836 41.0767 60.1018 41.2194 59.9109 41.3492C59.2401 41.8641 58.3949 42.097 57.555 41.9981C57.1406 41.9126 56.75 41.7373 56.4105 41.4848C56.0711 41.2322 55.791 40.9084 55.5899 40.5361L52.8449 36.2581L51.4319 37.2232L50.4959 35.7652L51.9109 34.8011L50.3359 32.3441L52.0099 31.2021L53.585 33.6572L55.5219 32.3372L56.46 33.7981Z" fill="#E0004D"/>
<path d="M57.7696 33.6771C57.7705 32.8399 58.0049 32.0195 58.4466 31.3082C58.9269 30.5532 59.6176 29.9553 60.4336 29.5882C61.1964 29.1939 62.0569 29.0283 62.9116 29.1111C63.6845 29.1958 64.4163 29.5025 65.0186 29.9941C65.6357 30.5005 66.1252 31.1448 66.4476 31.8752C66.5469 32.0938 66.6549 32.3635 66.7716 32.6842L60.3266 35.7842C60.6731 36.4729 61.2596 37.011 61.9756 37.2972C62.3073 37.4112 62.6589 37.4559 63.0086 37.4285C63.3583 37.4012 63.6986 37.3024 64.0086 37.1382C64.5089 36.9147 64.9335 36.5506 65.2306 36.0901C65.3628 35.8849 65.4532 35.6556 65.4964 35.4153C65.5397 35.175 65.535 34.9286 65.4826 34.6901L67.2696 33.8322C67.415 34.3025 67.4646 34.7973 67.4155 35.2871C67.3664 35.777 67.2195 36.252 66.9836 36.6842C66.4596 37.606 65.6533 38.3352 64.6836 38.7642C63.8899 39.1719 62.9924 39.3328 62.1066 39.2262C61.2829 39.1183 60.5064 38.78 59.8666 38.2502C59.1991 37.6976 58.67 36.9966 58.3216 36.2031C57.9546 35.4118 57.7662 34.5494 57.7696 33.6771ZM64.1816 32.1252C63.9101 31.576 63.4443 31.1473 62.8746 30.9222C62.5853 30.8216 62.2781 30.7828 61.9729 30.8083C61.6677 30.8338 61.3712 30.923 61.1026 31.0702C60.5393 31.3221 60.0915 31.7769 59.8486 32.3441C59.6104 32.9559 59.5726 33.6275 59.7406 34.2621L64.1816 32.1252Z" fill="#E0004D"/>
<path d="M70.4615 35.7C69.6883 35.4487 69.0088 34.9703 68.5115 34.327C67.971 33.6004 67.5864 32.7699 67.3822 31.8876C67.1779 31.0053 67.1583 30.0903 67.3245 29.2C67.4911 28.4 67.8804 27.6634 68.4475 27.075C69.048 26.4718 69.808 26.0524 70.6385 25.866C71.2047 25.7216 71.7969 25.712 72.3675 25.838C72.8922 25.9446 73.3811 26.1827 73.7885 26.53L72.5985 21.43L74.5505 20.946L77.6945 34.41L75.7415 34.894L75.4525 33.657C75.2975 34.1535 74.9977 34.5922 74.5915 34.917C74.1283 35.3147 73.5766 35.5955 72.9825 35.736C72.1559 35.9645 71.2813 35.952 70.4615 35.7ZM74.5615 32.562C74.9257 31.7796 74.9967 30.8924 74.7615 30.062C74.6093 29.2202 74.1522 28.464 73.4775 27.938C73.1731 27.7144 72.8215 27.5634 72.4498 27.4965C72.078 27.4296 71.6958 27.4486 71.3325 27.552C70.958 27.6311 70.6061 27.7938 70.3033 28.0279C70.0004 28.262 69.7544 28.5615 69.5835 28.904C69.2187 29.6831 69.1476 30.5678 69.3835 31.395C69.5382 32.2354 69.994 32.9906 70.6655 33.519C70.9685 33.7478 71.3206 33.9031 71.6939 33.9725C72.0672 34.0419 72.4515 34.0236 72.8165 33.919C73.191 33.839 73.5425 33.6754 73.8449 33.4404C74.1472 33.2055 74.3926 32.9052 74.5625 32.562H74.5615Z" fill="#E0004D"/>
<path d="M82.189 26.0591L80.489 26.0911L80.459 24.3441L82.153 24.3121L82.136 23.3241C82.1001 22.8982 82.1542 22.4695 82.2948 22.0658C82.4354 21.6622 82.6593 21.2926 82.952 20.9811C83.5587 20.4144 84.364 20.1091 85.194 20.1311C85.6029 20.1184 86.0119 20.1554 86.412 20.2411L86.443 22.0411C86.1112 21.9566 85.7693 21.9183 85.427 21.9271C85.252 21.9273 85.079 21.9635 84.9186 22.0336C84.7583 22.1036 84.614 22.2059 84.495 22.3341C84.3622 22.4863 84.2613 22.6636 84.1981 22.8554C84.1349 23.0472 84.1107 23.2498 84.127 23.4511L84.142 24.2681L86.482 24.2241L86.513 25.9721L84.173 26.0161L84.316 34.1271L82.327 34.1641L82.189 26.0591Z" fill="#E0004D"/>
<path d="M92.2644 26.5601C91.7785 26.5098 91.2901 26.6285 90.8814 26.8961C90.3913 27.2353 90.0061 27.7051 89.7694 28.2521C89.4278 29.0169 89.2247 29.8363 89.1694 30.6721L88.8174 34.3401L86.8174 34.1401L87.7614 24.3291L89.7614 24.5291L89.5814 26.4001C89.8688 25.8311 90.3282 25.3671 90.8944 25.0741C91.4439 24.7565 92.0783 24.6168 92.7104 24.6741C92.8637 24.6881 93.0157 24.7132 93.1654 24.7491C93.243 24.771 93.3218 24.7887 93.4014 24.8021L93.2114 26.7681C92.9057 26.6593 92.5875 26.5894 92.2644 26.5601Z" fill="#E0004D"/>
<path d="M93.9156 27.3571C94.4254 26.7101 95.1112 26.2239 95.8906 25.9571C96.7322 25.6849 97.636 25.6709 98.4856 25.9171C99.3271 26.1123 100.096 26.5435 100.701 27.1601C101.25 27.7308 101.628 28.4436 101.794 29.2181C101.963 30.0069 101.948 30.8242 101.75 31.6061C101.694 31.8401 101.612 32.1192 101.507 32.4442L94.6066 30.6501C94.4552 31.4178 94.5806 32.2142 94.9606 32.8981C95.1448 33.2 95.3879 33.4618 95.6753 33.668C95.9627 33.8741 96.2885 34.0204 96.6336 34.0982C97.1535 34.2511 97.7073 34.2448 98.2236 34.0801C98.4524 34.006 98.6637 33.8862 98.8447 33.7278C99.0257 33.5695 99.1726 33.376 99.2766 33.1591L101.189 33.6591C101.017 34.1139 100.754 34.5285 100.416 34.8771C100.077 35.2256 99.6701 35.5007 99.2206 35.6851C98.2411 36.0594 97.1654 36.0998 96.1606 35.8001C95.2871 35.5949 94.4936 35.1364 93.8796 34.4821C93.3063 33.8598 92.9127 33.0936 92.7406 32.2652C92.5605 31.4083 92.5793 30.5216 92.7956 29.6731C92.9934 28.8279 93.3759 28.037 93.9156 27.3571ZM99.8396 30.3291C99.9652 29.7201 99.8676 29.0862 99.5646 28.5431C99.4043 28.279 99.1915 28.0506 98.9393 27.872C98.6871 27.6935 98.401 27.5686 98.0986 27.5051C97.5146 27.3316 96.886 27.393 96.3466 27.6761C95.7841 27.999 95.3419 28.496 95.0866 29.0921L99.8396 30.3291Z" fill="#E0004D"/>
<path d="M103.925 30.1921C104.547 29.6572 105.311 29.3156 106.125 29.2091C107.004 29.1069 107.894 29.2702 108.68 29.6781C109.47 30.0357 110.144 30.6085 110.624 31.3311C111.056 31.9979 111.296 32.7715 111.317 33.5661C111.338 34.3719 111.173 35.1718 110.834 35.9031C110.734 36.1211 110.605 36.3791 110.441 36.6781L104.001 33.5661C103.71 34.2926 103.686 35.0986 103.933 35.8411C104.058 36.1737 104.248 36.4781 104.492 36.7367C104.736 36.9952 105.029 37.2027 105.354 37.3471C105.835 37.5978 106.379 37.7001 106.919 37.6411C107.156 37.6128 107.385 37.536 107.591 37.4156C107.798 37.2952 107.977 37.1337 108.119 36.9411L109.904 37.8051C109.652 38.2172 109.316 38.5723 108.92 38.8477C108.523 39.1232 108.073 39.313 107.599 39.4051C106.565 39.5815 105.503 39.4117 104.576 38.9221C103.753 38.5493 103.058 37.9441 102.576 37.1811C102.127 36.4599 101.882 35.6305 101.867 34.7811C101.847 33.9069 102.028 33.0398 102.398 32.2471C102.747 31.4567 103.269 30.7545 103.925 30.1921ZM109.194 34.2701C109.429 33.6942 109.45 33.0531 109.253 32.4631C109.144 32.1722 108.978 31.9063 108.763 31.6818C108.548 31.4573 108.29 31.2788 108.005 31.1571C107.466 30.8722 106.837 30.809 106.253 30.9811C105.64 31.1865 105.112 31.5892 104.753 32.1261L109.194 34.2701Z" fill="#E0004D"/>
<path d="M110.578 45.5161C110.459 45.0253 110.443 44.5149 110.533 44.0179C110.623 43.5208 110.816 43.048 111.099 42.6301L112.652 43.9741C112.514 44.1931 112.424 44.4394 112.39 44.6962C112.355 44.953 112.377 45.2143 112.452 45.4621C112.653 46.0628 113.026 46.5915 113.523 46.9831C114.007 47.4617 114.659 47.7323 115.339 47.7371C115.661 47.71 115.972 47.613 116.252 47.4529C116.532 47.2928 116.774 47.0734 116.96 46.8101L117.76 45.8201C117.296 45.9446 116.804 45.9254 116.35 45.7651C115.789 45.5856 115.271 45.2898 114.831 44.8971C114.172 44.3541 113.67 43.6455 113.375 42.8441C113.111 42.0995 113.061 41.2956 113.231 40.5241C113.418 39.697 113.802 38.9271 114.348 38.2791C114.868 37.6107 115.544 37.0799 116.316 36.7331C117.02 36.4232 117.799 36.3293 118.556 36.4631C119.369 36.6193 120.123 36.9972 120.734 37.5551C121.184 37.9369 121.543 38.4128 121.788 38.9491C122.019 39.4297 122.125 39.9608 122.095 40.4931L122.842 39.5761L124.379 40.9071L118.622 47.9791C118.286 48.4475 117.852 48.8369 117.35 49.12C116.847 49.4031 116.289 49.573 115.714 49.6181C114.494 49.6231 113.321 49.1474 112.449 48.2941C111.553 47.5842 110.899 46.6135 110.578 45.5161ZM118.153 44.3811C118.916 44.2567 119.599 43.8366 120.053 43.2121C120.578 42.6218 120.859 41.8537 120.837 41.0641C120.817 40.6926 120.719 40.3295 120.549 39.9985C120.379 39.6676 120.141 39.3761 119.851 39.1431C119.586 38.8893 119.268 38.6973 118.92 38.5808C118.572 38.4643 118.203 38.4261 117.838 38.4691C117.073 38.5974 116.389 39.0198 115.931 39.6461C115.407 40.2317 115.125 40.9951 115.143 41.7811C115.166 42.1532 115.267 42.5165 115.439 42.8471C115.611 43.1778 115.851 43.4684 116.143 43.7001C116.408 43.9541 116.725 44.1468 117.073 44.2644C117.42 44.3821 117.789 44.4219 118.153 44.3811Z" fill="#E0004D"/>
<path d="M125.937 42.7791L127.286 44.3131L120.2 50.9341L118.854 49.3991L125.937 42.7791ZM130.237 41.7331L128.558 43.3011L127.058 41.6011L128.738 40.0331L130.237 41.7331Z" fill="#E0004D"/>
<path d="M127.797 47.6721L126.778 46.2721L128.131 45.2211L129.151 46.6211L129.916 46.0261C130.227 45.7462 130.596 45.5383 130.997 45.4173C131.398 45.2963 131.821 45.2652 132.235 45.3261C133.049 45.5095 133.76 46.0017 134.219 46.6991C134.469 47.0346 134.679 47.3976 134.847 47.7811L133.447 48.8671C133.318 48.5416 133.147 48.2343 132.939 47.9531C132.839 47.8087 132.71 47.6863 132.561 47.5936C132.412 47.5009 132.245 47.4398 132.072 47.4141C131.875 47.3919 131.676 47.4116 131.488 47.4719C131.299 47.5322 131.126 47.6318 130.979 47.7641L130.346 48.2561L131.756 50.1821L130.402 51.2341L128.992 49.3081L122.71 54.1901L121.51 52.5511L127.797 47.6721Z" fill="#E0004D"/>
<path d="M133.612 56.8641L132.443 54.7971L128.288 57.2971C128.112 57.3889 127.955 57.5145 127.827 57.6669C127.7 57.8193 127.603 57.9954 127.543 58.1851C127.498 58.3681 127.491 58.5583 127.521 58.7444C127.551 58.9304 127.618 59.1085 127.718 59.2681C127.89 59.55 128.095 59.8108 128.327 60.0451L126.815 60.9551C126.694 60.8409 126.584 60.7153 126.487 60.5801C126.347 60.3946 126.219 60.1998 126.104 59.9971C125.64 59.2663 125.462 58.39 125.604 57.5361C125.705 57.1223 125.893 56.7349 126.156 56.4002C126.42 56.0655 126.752 55.7913 127.13 55.5961L131.43 53.0121L130.574 51.5021L132.04 50.6221L132.893 52.1311L135.361 50.6481L136.372 52.4371L133.904 53.9201L135.074 55.9881L133.612 56.8641Z" fill="#E0004D"/>
<path d="M127.765 62.4081C127.789 61.7541 127.987 61.1183 128.337 60.5651C128.678 60.0318 129.167 59.6086 129.744 59.3461L130.49 61.2271C130.284 61.3337 130.104 61.4824 129.96 61.6635C129.816 61.8446 129.711 62.054 129.654 62.2781C129.496 62.8124 129.531 63.3853 129.754 63.8961C129.904 64.3272 130.179 64.7043 130.543 64.9801C130.674 65.0885 130.832 65.1598 131 65.1863C131.168 65.2129 131.34 65.1938 131.499 65.1311C131.628 65.0826 131.746 65.0059 131.843 64.9064C131.939 64.807 132.013 64.6874 132.058 64.5561C132.148 64.2337 132.161 63.8943 132.094 63.5661L131.834 61.9101C131.69 61.1753 131.727 60.4167 131.941 59.6991C132.063 59.3689 132.257 59.0699 132.509 58.8235C132.761 58.5772 133.064 58.3896 133.397 58.2741C133.846 58.0787 134.347 58.0365 134.823 58.1541C135.339 58.29 135.809 58.5637 136.183 58.9461C136.633 59.4008 136.982 59.9462 137.206 60.5461C137.588 61.4224 137.673 62.4002 137.446 63.3291C137.338 63.7514 137.146 64.1475 136.881 64.4938C136.617 64.84 136.285 65.1292 135.906 65.3441L135.16 63.4631C135.335 63.363 135.485 63.2251 135.6 63.0593C135.715 62.8936 135.792 62.7042 135.825 62.5051C135.91 62.062 135.863 61.6037 135.69 61.1871C135.565 60.823 135.331 60.5061 135.021 60.2791C134.897 60.1903 134.753 60.1354 134.602 60.12C134.451 60.1046 134.298 60.1291 134.16 60.1911C133.704 60.3831 133.535 60.8731 133.648 61.6591L133.926 63.3081C134.084 64.0722 134.06 64.863 133.856 65.6161C133.595 66.1923 133.146 66.6623 132.582 66.9485C132.019 67.2347 131.374 67.32 130.756 67.1901C130.188 67.0433 129.673 66.7426 129.266 66.3211C128.776 65.8225 128.397 65.2266 128.154 64.5721C127.869 63.8875 127.736 63.1491 127.765 62.4081Z" fill="#E0004D"/>
<path d="M29.0363 74.4991L33.8434 74.8371L31.4003 81.9141L34.8484 82.0961L29.2343 88.5521L30.4344 83.7371L26.8184 83.4121L29.0363 74.4991Z" fill="#E0004D"/>
<path d="M141.753 74.4991L136.946 74.8371L139.389 81.9141L135.941 82.0961L141.555 88.5521L140.355 83.7371L143.971 83.4121L141.753 74.4991Z" fill="#E0004D"/>
<mask id="mask0_456_5304" style="mask-type:luminance" maskUnits="userSpaceOnUse" x="1" y="2" width="167" height="171">
<path d="M165.686 62.931C167.719 70.022 159.763 78.641 159.942 85.696C160.127 92.996 168.442 101.189 166.821 108.126C165.171 115.163 154.111 118.542 150.778 124.86C147.445 131.178 150.709 142.587 145.878 147.84C141.115 153.018 129.924 150.273 123.878 154.081C118.037 157.762 115.346 169.332 108.47 171.428C101.594 173.524 93.2334 165.32 86.3904 165.506C79.3094 165.697 71.3634 174.273 64.6354 172.597C57.8114 170.897 54.5354 159.497 48.4044 156.058C42.2734 152.619 31.2114 155.986 26.1164 151.005C21.0944 146.094 23.7564 134.556 20.0634 128.325C16.4934 122.303 5.27143 119.525 3.23843 112.439C1.20543 105.353 9.16241 96.729 8.98241 89.674C8.79741 82.374 0.482431 74.181 2.10543 67.244C3.75443 60.207 14.8144 56.828 18.1474 50.51C21.4804 44.192 18.2174 32.783 23.0474 27.53C27.8104 22.352 39.0014 25.097 45.0474 21.288C50.8884 17.608 53.5794 6.03805 60.4554 3.94205C67.3314 1.84605 75.6924 10.05 82.5354 9.86405C89.6164 9.67305 97.5624 1.09604 104.29 2.77204C111.116 4.47204 114.39 15.872 120.521 19.313C126.652 22.754 137.714 19.384 142.809 24.366C147.831 29.277 145.169 40.815 148.863 47.046C152.432 53.067 163.653 55.842 165.686 62.931Z" fill="white"/>
</mask>
<g mask="url(#mask0_456_5304)">
<path d="M123.831 72.36C121.593 62.593 111.459 59.439 98.5363 70.622C89.4523 78.477 85.6303 85.341 84.1293 88.868C84.0086 89.154 83.902 89.418 83.8093 89.66C83.7427 89.424 83.664 89.1623 83.5733 88.875C82.4473 85.328 79.2673 78.003 70.6473 69.139C58.7013 56.856 48.3423 59.101 45.3003 68.639C42.2583 78.177 57.0893 85.772 68.0583 87.994C69.917 88.3707 71.6083 88.711 73.1323 89.015C73.3913 89.068 73.6433 89.115 73.8933 89.168C73.9323 89.174 73.9723 89.183 74.0123 89.189C75.1457 89.417 76.1816 89.624 77.1203 89.81L78.8203 90.145C79.5403 90.286 80.1873 90.415 80.7563 90.525C81.8303 90.735 82.6463 90.892 83.2073 91.002C83.2533 91.011 83.3003 91.019 83.3453 91.027C83.2763 91.264 83.2453 91.393 83.2453 91.393C83.2453 91.393 88.4363 90.878 99.5453 89.636C101.513 89.4108 103.464 89.0628 105.388 88.594C115.328 86.195 125.695 80.493 123.831 72.36ZM71.6813 86.96C64.5933 85.525 55.0073 80.617 56.9733 74.46C58.9393 68.303 65.6353 66.848 73.3553 74.785C80.5973 82.233 81.9003 88 82.0653 88.904C82.0803 88.987 82.0863 89.029 82.0863 89.029L81.4763 88.911C80.2223 88.66 77.0253 88.038 71.6813 86.956V86.96ZM96.0263 88.286C94.3436 88.4733 92.8693 88.6363 91.6033 88.775C87.4583 89.229 85.4913 89.422 85.4913 89.422C85.4913 89.422 85.5353 89.222 85.6583 88.852C86.2183 87.185 88.3843 82.052 95.3743 76.004C103.724 68.778 110.274 70.815 111.721 77.128C113.168 83.441 103.207 87.478 96.0263 88.282V88.286Z" fill="#F9DBB2"/>
<path d="M116.882 102.176L106.168 88.576L83.2906 88.8761L77.1566 88.956L74.0776 88.997L64.4167 89.123L48.1646 89.3351L48.0646 97.835L47.8187 118.535L47.7336 125.712L47.2227 127.559L47.6667 131.307L60.3257 130.95L71.6946 130.63L76.3177 130.5L81.5467 130.732L81.5627 130.352L91.0557 130.085L104.445 129.709L105.911 129.667L116.711 120.76L116.882 102.176Z" fill="#E0004D"/>
<path d="M127.665 129.055L105.912 129.667L106.169 88.5801L128.162 88.2941L127.665 129.055Z" fill="#9B023D"/>
<path d="M119.594 88.2102L114.729 88.22L114.817 132.129L119.682 132.119L119.594 88.2102Z" fill="#BA986E"/>
<path d="M135.923 131.405L135.885 131.412C135.875 131.413 135.865 131.415 135.856 131.419H135.842C135.042 131.571 128.556 132.866 124.751 135.37C120.69 138.043 120.613 139.898 118.451 140.05C112.536 140.289 106.656 141.067 100.883 142.372C93.2646 144.265 86.0896 149.897 83.9306 150.049C81.7716 150.201 75.6306 148.47 67.2956 150.055C57.1326 151.989 51.1366 155.932 48.6956 157.855C40.2806 152.083 16.4326 159.299 11.7256 150.067C14.4526 147.167 34.7256 129.125 38.0316 127.64C45.8316 124.14 47.7256 125.706 47.7256 125.706V125.715L47.7126 127.494V127.894V128.047C51.3281 126.688 55.1645 126.014 59.0266 126.057C60.2036 126.072 61.3781 126.17 62.5416 126.349C65.2882 126.723 67.9839 127.406 70.5776 128.384L70.5916 128.39C71.2037 128.633 71.7993 128.916 72.3746 129.237C72.5695 129.345 72.7569 129.466 72.9356 129.599L75.4656 129.516L81.6046 129.316L90.8496 129.016L104.597 128.573L105.918 128.53L107.318 128.485L118.135 128.138L118.345 128.131C121.247 126.772 124.381 125.975 127.581 125.782H127.698C131.085 125.75 134.425 126.931 135.827 131.115C135.834 131.135 135.84 131.153 135.847 131.17C135.87 131.236 135.893 131.305 135.914 131.37L135.923 131.405Z" fill="#FFBBA9"/>
<path d="M136.264 131.311C136.209 131.095 134.81 125.998 127.33 125.411C120.318 124.858 114.754 130.052 113.991 130.801L103.119 132.67C98.5759 129.67 90.4479 131.806 89.8119 131.98C85.8829 132.296 81.9288 132.036 78.0749 131.208C76.0575 130.758 74.1257 129.986 72.3539 128.922C69.9109 127.587 67.3859 126.207 61.3179 125.749C55.0477 125.37 48.7866 126.627 43.1479 129.395C43.065 129.442 43.0035 129.519 42.9763 129.611C42.9491 129.702 42.9583 129.8 43.0019 129.885C43.0226 129.927 43.0515 129.964 43.0869 129.994C43.1223 130.025 43.1634 130.047 43.2078 130.062C43.2523 130.076 43.2991 130.081 43.3455 130.076C43.3919 130.072 43.4369 130.058 43.4779 130.036C48.9987 127.327 55.1287 126.099 61.2669 126.473C67.1869 126.918 69.6459 128.262 72.0239 129.562C73.8535 130.654 75.845 131.449 77.9239 131.916C81.8595 132.762 85.898 133.024 89.9099 132.695C89.9278 132.693 89.9455 132.689 89.9629 132.684C90.0509 132.66 98.7759 130.284 103.048 133.495C103.156 133.576 103.259 133.661 103.359 133.748C99.8849 133.303 95.3989 135.117 94.6829 137.448C94.5406 137.795 94.4787 138.17 94.5019 138.545C94.5251 138.919 94.6328 139.284 94.8169 139.611C94.9154 139.758 95.0361 139.89 95.1749 140C93.7909 140.2 92.3519 140.378 90.9189 140.507L67.3539 142.842C67.2645 142.853 67.1825 142.897 67.1237 142.966C67.0649 143.034 67.0335 143.122 67.0356 143.212C67.0377 143.302 67.0732 143.388 67.1352 143.453C67.1971 143.519 67.2811 143.559 67.3709 143.566C67.3875 143.567 67.4043 143.567 67.4209 143.566L90.9889 141.244C95.9832 140.732 100.935 139.87 105.809 138.665C105.889 138.643 105.959 138.594 106.007 138.527C106.055 138.46 106.079 138.379 106.075 138.296C106.076 137.355 105.883 136.424 105.51 135.56C105.136 134.697 104.589 133.919 103.902 133.276L114.217 131.503C114.289 131.491 114.355 131.456 114.406 131.403C114.464 131.345 120.212 125.586 127.279 126.14C132.11 126.518 134.212 128.86 135.063 130.323C133.228 129.401 131.145 129.094 129.122 129.447C124.734 130.105 124.404 135.303 124.402 135.355C124.399 135.418 124.412 135.481 124.44 135.537C123.43 136.265 122.462 137.05 121.54 137.887C120.865 138.636 120.028 139.222 119.093 139.601C119 139.615 118.916 139.664 118.859 139.739C118.801 139.814 118.776 139.908 118.787 140.001C118.796 140.085 118.835 140.163 118.896 140.221C118.957 140.279 119.037 140.314 119.121 140.319C119.141 140.321 119.16 140.321 119.18 140.319C119.98 140.219 120.829 139.47 121.999 138.436C123.38 137.143 124.903 136.011 126.54 135.063C129.555 133.602 132.73 132.495 136 131.763C136.047 131.753 136.091 131.733 136.13 131.704C136.169 131.676 136.202 131.64 136.226 131.598C136.251 131.555 136.268 131.508 136.274 131.458C136.281 131.409 136.277 131.359 136.264 131.311ZM96.5429 139.803C96.4937 139.769 96.4364 139.749 96.3769 139.745C96.186 139.727 96.0007 139.67 95.8326 139.577C95.6644 139.485 95.5169 139.359 95.3989 139.208C95.2809 138.971 95.2162 138.712 95.2092 138.447C95.2023 138.183 95.2534 137.92 95.3589 137.678C96.0399 135.461 100.975 133.763 104.159 134.65C104.169 134.653 104.18 134.655 104.191 134.656C104.886 135.65 105.286 136.819 105.348 138.03C104.348 138.277 100.807 139.122 96.5419 139.803H96.5429ZM126.207 134.422C125.83 134.629 125.477 134.846 125.134 135.066C125.271 133.993 125.957 130.653 129.221 130.166C131.262 129.801 133.367 130.173 135.159 131.216C132.061 131.934 129.056 133.01 126.207 134.422Z" fill="#472444"/>
<path d="M77.2165 108.302L74.4365 108.363L74.5853 115.448L77.3653 115.387L77.2165 108.302Z" fill="white"/>
<path d="M71.9655 104.967L69.1855 105.028L69.4068 115.564L72.1868 115.503L71.9655 104.967Z" fill="white"/>
<path d="M77.1436 104.851L74.3643 104.912L74.4073 106.964L77.1867 106.902L77.1436 104.851Z" fill="white"/>
<path d="M90.5022 105.24V105.184L87.2552 105.256L82.3882 109.202L82.2942 104.736L79.5762 104.797L79.7971 115.331L82.5152 115.27L82.4152 110.584L87.9232 115.149L90.8952 115.083V115.022L84.7892 109.822L90.5022 105.24Z" fill="white"/>
<path d="M62.9335 106.465L63.9335 106.442L64.0455 111.799C64.0193 112.545 63.7088 113.252 63.1776 113.777C62.6465 114.301 61.935 114.602 61.1889 114.619C60.4428 114.635 59.7186 114.366 59.1649 113.865C58.6111 113.365 58.2696 112.672 58.2105 111.928L58.0715 105.274L53.3135 105.38L54.2495 106.658L55.2495 106.635L55.3605 111.898C55.4245 114.972 58.4455 116.133 61.2125 116.062C63.9795 116.01 66.9495 114.716 66.8855 111.642L66.7485 105.081L61.9915 105.187L62.9335 106.465Z" fill="white"/>
<path d="M100.362 106.206C99.1999 105.191 97.686 104.673 96.1455 104.761C94.4713 104.763 92.8606 105.402 91.6395 106.547C91.1469 107.065 90.7693 107.681 90.5315 108.355C90.2936 109.03 90.2008 109.746 90.2591 110.459C90.3175 111.171 90.5256 111.863 90.87 112.49C91.2144 113.116 91.6872 113.663 92.2575 114.094C93.46 114.977 94.9403 115.398 96.4275 115.279C96.9004 115.273 97.372 115.228 97.8375 115.144C98.7069 115.039 99.5337 114.709 100.236 114.186C100.939 113.663 101.493 112.966 101.844 112.164L99.4795 112.206C99.1411 112.713 98.6749 113.121 98.1281 113.39C97.5813 113.658 96.9733 113.778 96.3655 113.736C95.5337 113.765 94.7232 113.469 94.1052 112.912C93.4872 112.354 93.1101 111.578 93.0535 110.748L102.01 110.548C102.067 109.748 101.949 108.945 101.664 108.196C101.38 107.446 100.936 106.767 100.362 106.206ZM93.0445 109.172L93.0535 109.064C93.1248 108.297 93.4755 107.583 94.0389 107.058C94.6023 106.533 95.3391 106.233 96.1091 106.216C96.879 106.199 97.6284 106.466 98.2147 106.965C98.8009 107.465 99.1831 108.162 99.2885 108.925L99.2975 109.032L93.0445 109.172Z" fill="white"/>
</g>
</svg>
