<svg width="168" height="169" viewBox="0 0 168 169" fill="none" xmlns="http://www.w3.org/2000/svg">
<path d="M166.628 59.714C168.698 66.735 160.816 75.234 160.998 82.22C161.187 89.449 169.437 97.538 167.781 104.407C166.102 111.374 155.044 114.801 151.65 121.058C148.256 127.315 151.397 138.479 146.476 143.68C141.626 148.808 130.367 146.264 124.21 150.035C118.261 153.679 115.428 164.935 108.423 167.005C101.418 169.075 92.9385 161.18 85.9675 161.363C78.7555 161.552 70.6845 169.822 63.8305 168.163C56.8795 166.479 53.4595 155.396 47.2175 151.995C40.9755 148.594 29.8365 151.741 24.6465 146.809C19.5315 141.946 22.0685 130.662 18.3065 124.491C14.6695 118.528 3.44352 115.691 1.37352 108.669C-0.696476 101.647 7.18555 93.149 7.00255 86.161C6.81355 78.932 -1.43647 70.843 0.219533 63.975C1.89953 57.007 12.9575 53.575 16.3505 47.324C19.7435 41.073 16.6035 29.903 21.5245 24.702C26.3765 19.574 37.6355 22.117 43.7905 18.347C49.7415 14.703 52.5725 3.44696 59.5775 1.37596C66.5825 -0.69504 75.0615 7.20096 82.0335 7.01896C89.2455 6.82996 97.3165 -1.44004 104.17 0.218958C111.122 1.90196 114.542 12.985 120.783 16.387C127.024 19.789 138.164 16.641 143.354 21.573C148.47 26.435 145.933 37.719 149.695 43.89C153.331 49.852 164.557 52.693 166.628 59.714Z" fill="#E0004D"/>
<path d="M164.746 60.272C166.767 67.124 158.858 75.452 159.036 82.272C159.221 89.327 167.49 97.245 165.874 103.948C164.233 110.748 153.239 114.014 149.926 120.12C146.613 126.226 149.857 137.251 145.054 142.327C140.319 147.327 129.194 144.678 123.186 148.358C117.38 151.915 114.704 163.096 107.869 165.122C101.034 167.148 92.7231 159.222 85.9201 159.399C78.8811 159.584 70.9821 167.871 64.2941 166.251C57.5101 164.608 54.2511 153.587 48.1591 150.268C42.0671 146.949 31.0671 150.198 26.0031 145.385C21.0111 140.639 23.657 129.485 19.986 123.467C16.437 117.646 5.28606 114.967 3.26106 108.114C1.23606 101.261 9.15008 92.934 8.97108 86.114C8.78708 79.059 0.518047 71.142 2.13405 64.437C3.77305 57.637 14.7691 54.372 18.0811 48.267C21.3931 42.162 18.1511 31.136 22.9531 26.06C27.6881 21.06 38.8131 23.709 44.8211 20.028C50.6281 16.471 53.3031 5.29104 60.1391 3.26604C66.9751 1.24104 75.2851 9.16604 82.0871 8.98904C89.1261 8.80404 97.0251 0.51504 103.714 2.13604C110.498 3.78004 113.756 14.8 119.848 18.121C125.94 21.442 136.94 18.19 142.004 23.004C146.996 27.75 144.351 38.904 148.022 44.922C151.567 50.739 162.722 53.421 164.746 60.272Z" fill="#F7F7F9"/>
<path d="M29.4684 67.5959L28.8935 70.1959L27.4355 69.8739C27.5649 69.3112 27.621 68.7341 27.6025 68.1569C27.5903 67.7538 27.4431 67.3664 27.1844 67.0569C26.8753 66.7329 26.4894 66.4921 26.0625 66.3569L26.3925 64.8569L38.4825 67.5519L38.0535 69.5009L29.4684 67.5959Z" fill="#E0004D"/>
<path d="M38.7087 64.375C37.9077 64.8741 36.9782 65.1281 36.0347 65.106C33.7534 65.0105 31.5726 64.1408 29.8517 62.64C29.1492 62.0076 28.6478 61.1828 28.4097 60.268C28.226 59.3506 28.312 58.3995 28.6573 57.5299C29.0027 56.6603 29.5926 55.9094 30.3557 55.368C31.1547 54.8709 32.0809 54.6163 33.0217 54.635C34.1589 54.6528 35.2819 54.8905 36.3287 55.335C37.397 55.736 38.3787 56.3379 39.2207 57.108C39.9207 57.7423 40.4214 58.5664 40.6617 59.48C40.8488 60.3982 40.7636 61.351 40.4166 62.2215C40.0697 63.092 39.4761 63.8422 38.7087 64.38V64.375ZM38.4177 59.147C37.6237 58.3054 36.6556 57.6473 35.5809 57.2186C34.5063 56.7899 33.351 56.601 32.1957 56.665C31.7681 56.7167 31.3631 56.8855 31.0253 57.1529C30.6876 57.4202 30.4302 57.7757 30.2817 58.18C30.1139 58.5743 30.0589 59.0075 30.1228 59.4313C30.1867 59.855 30.3671 60.2527 30.6437 60.58C31.4431 61.4171 32.4134 62.0723 33.4886 62.5009C34.5638 62.9295 35.7186 63.1216 36.8747 63.064C37.2985 63.0149 37.7005 62.8493 38.0359 62.5856C38.3713 62.3219 38.6271 61.9703 38.7747 61.57C38.9433 61.1731 38.9991 60.7374 38.9361 60.3108C38.8732 59.8842 38.6938 59.4832 38.4177 59.152V59.147Z" fill="#E0004D"/>
<path d="M42.8799 55.234C41.9922 55.5534 41.0305 55.6066 40.113 55.387C37.9018 54.8142 35.9515 53.5058 34.5829 51.677C34.0268 50.912 33.7085 50 33.668 49.055C33.6791 48.1194 33.9616 47.2071 34.4811 46.4289C35.0007 45.6506 35.7351 45.04 36.595 44.671C37.4805 44.3534 38.4391 44.2989 39.355 44.514C40.4646 44.77 41.5144 45.2376 42.447 45.891C43.4073 46.5082 44.2411 47.3027 44.9039 48.232C45.4549 49.0001 45.7723 49.9109 45.8179 50.855C45.8082 51.7914 45.5255 52.7047 45.0043 53.4827C44.4832 54.2607 43.7462 54.8697 42.884 55.235L42.8799 55.234ZM43.689 50.06C43.0887 49.0703 42.2797 48.2235 41.3183 47.5787C40.3569 46.9339 39.2665 46.5068 38.123 46.327C37.694 46.2878 37.2626 46.3679 36.8763 46.5585C36.49 46.7491 36.1639 47.0428 35.934 47.407C35.6884 47.7572 35.5449 48.1686 35.5193 48.5955C35.4937 49.0224 35.587 49.448 35.7889 49.825C36.3954 50.8114 37.207 51.6557 38.1686 52.3007C39.1302 52.9457 40.2192 53.3762 41.3619 53.563C41.786 53.6032 42.213 53.525 42.5953 53.3371C42.9777 53.1493 43.3005 52.8592 43.528 52.499C43.776 52.1464 43.9223 51.7323 43.9507 51.3021C43.9791 50.8719 43.8885 50.4422 43.689 50.06Z" fill="#E0004D"/>
<path d="M43.6348 45.122L47.3838 41.144L48.5708 42.266L44.8188 46.245L43.6348 45.122Z" fill="#E0004D"/>
<path d="M44.7617 34.616L47.8617 32.306C48.7353 31.6362 49.7546 31.1819 50.8367 30.98C51.8727 30.7926 52.9407 30.9093 53.9117 31.316C54.9745 31.8218 55.8967 32.5808 56.5975 33.5263C57.2982 34.4719 57.7561 35.5751 57.9307 36.739C58.0437 37.7896 57.8495 38.8505 57.3717 39.793C56.8674 40.7725 56.1394 41.6194 55.2467 42.265L52.1467 44.576L44.7617 34.616ZM55.5617 39.242C55.9075 38.5934 56.0504 37.8558 55.9717 37.125C55.8573 36.2524 55.5051 35.428 54.9537 34.742C54.46 34.0209 53.777 33.45 52.9797 33.092C52.3046 32.8058 51.5587 32.7298 50.8397 32.874C50.1056 33.0286 49.4152 33.345 48.8187 33.8L47.4167 34.852L52.6917 41.966L54.0977 40.918C54.7048 40.4751 55.2056 39.9026 55.5637 39.242H55.5617Z" fill="#E0004D"/>
<path d="M60.7957 37.783C60.4517 37.7011 60.1313 37.5403 59.8599 37.3135C59.5885 37.0867 59.3734 36.8 59.2317 36.476C59.071 36.1638 58.9813 35.82 58.9688 35.469C58.9564 35.1181 59.0216 34.7688 59.1597 34.446C59.5203 33.6983 60.0981 33.0768 60.8177 32.663L62.4317 31.615C62.8687 31.332 62.9957 30.999 62.8167 30.615C62.7355 30.4394 62.6131 30.2861 62.4599 30.168C62.3067 30.05 62.1272 29.9707 61.9367 29.937C61.458 29.8802 60.9729 29.961 60.5385 30.17C60.104 30.379 59.7381 30.7075 59.4837 31.117C59.3814 31.3154 59.3233 31.5337 59.3134 31.7567C59.3036 31.9798 59.3422 32.2023 59.4267 32.409L57.7647 33.195C57.6113 32.7901 57.5419 32.3583 57.5606 31.9258C57.5793 31.4933 57.6859 31.0691 57.8737 30.679C58.3118 29.8411 59.0287 29.1826 59.9007 28.817C60.7742 28.3456 61.7932 28.2207 62.7547 28.467C63.186 28.5959 63.5835 28.8185 63.9187 29.119C64.2539 29.4195 64.5186 29.7903 64.6937 30.205L66.2017 33.412C66.4017 33.838 66.678 33.9677 67.0307 33.801C67.1182 33.757 67.2012 33.7048 67.2787 33.645L67.9397 35.045C67.7077 35.2277 67.4566 35.3846 67.1907 35.513C66.8234 35.7096 66.399 35.7718 65.9907 35.689C65.7974 35.635 65.6178 35.5404 65.4638 35.4116C65.3098 35.2828 65.1851 35.1227 65.0977 34.942C65.0816 35.4651 64.8896 35.9675 64.5527 36.368C64.1639 36.8479 63.6675 37.2296 63.1037 37.482C62.3951 37.8551 61.5763 37.9619 60.7957 37.783ZM64.0477 34.629C64.2287 33.9651 64.1504 33.2573 63.8287 32.649L63.6887 32.349L61.6667 33.743C60.83 34.303 60.5724 34.9257 60.8937 35.611C60.9604 35.76 61.0617 35.8909 61.1892 35.9928C61.3167 36.0947 61.4667 36.1647 61.6267 36.197C62.0067 36.2718 62.4009 36.2132 62.7427 36.031C63.0489 35.9061 63.3241 35.7159 63.5493 35.4738C63.7745 35.2317 63.9442 34.9434 64.0467 34.629H64.0477Z" fill="#E0004D"/>
<path d="M72.6636 24.491L71.7776 34.705C71.732 35.5041 71.5071 36.2826 71.1196 36.983C70.7135 37.6165 70.0764 38.0667 69.3436 38.238C68.9746 38.3442 68.5916 38.3945 68.2076 38.387L67.7596 36.832C68.0803 36.8462 68.4011 36.8084 68.7097 36.72C68.9037 36.6742 69.0867 36.5903 69.2479 36.473C69.4092 36.3557 69.5454 36.2075 69.6487 36.037C69.8742 35.5479 69.9984 35.0183 70.0137 34.48L70.0267 34.333L64.2646 26.916L66.2457 26.343L70.2537 31.706L70.8536 25.014L72.6636 24.491Z" fill="#E0004D"/>
<path d="M79.9851 31.933C79.0584 31.4613 78.2875 30.7321 77.7651 29.833C77.1703 28.7782 76.8628 27.5858 76.8731 26.375C76.8198 25.2019 77.0753 24.0354 77.6142 22.992C78.104 22.057 78.8456 21.2776 79.7552 20.742C80.673 20.2071 81.7139 19.9197 82.7761 19.908C84.0843 19.8373 85.3778 20.2117 86.4461 20.97C87.4581 21.7173 88.1396 22.8291 88.3462 24.07L86.1822 24.118C86.027 23.3875 85.6061 22.7407 85.0011 22.303C84.36 21.8496 83.5854 21.6242 82.8011 21.663C82.076 21.6691 81.3669 21.8768 80.7531 22.263C80.1421 22.658 79.6591 23.2223 79.3631 23.887C79.0438 24.6516 78.8863 25.4741 78.9006 26.3027C78.9149 27.1312 79.1006 27.9478 79.4461 28.701C79.7686 29.3605 80.2767 29.9114 80.9081 30.286C81.5737 30.667 82.3341 30.8501 83.1001 30.814C83.7223 30.8129 84.335 30.6606 84.8852 30.37C85.3863 30.1026 85.805 29.7036 86.0962 29.216C86.3912 28.7179 86.5476 28.1499 86.5492 27.571L82.5492 27.659L82.5121 25.991L88.3821 25.86L88.5251 32.33L86.7061 32.37L86.6661 30.546C86.3644 31.167 85.8693 31.6734 85.2552 31.989C84.5659 32.3738 83.7914 32.58 83.0022 32.589C81.9576 32.6245 80.9206 32.3991 79.9851 31.933Z" fill="#E0004D"/>
<path d="M96.9897 34.085L95.1536 33.725L95.4436 32.239C95.0534 32.6778 94.5548 33.0065 93.9977 33.192C93.4266 33.3797 92.8162 33.4142 92.2276 33.292C91.8068 33.2264 91.4035 33.0768 91.0417 32.8521C90.6799 32.6273 90.367 32.3321 90.1216 31.984C89.8856 31.6304 89.7252 31.2319 89.6505 30.8134C89.5758 30.3948 89.5885 29.9654 89.6877 29.552L90.8157 23.776L92.6517 24.135L91.6026 29.507C91.4856 30.0002 91.5664 30.5196 91.8276 30.954C91.9621 31.163 92.1398 31.3408 92.3487 31.4755C92.5575 31.6102 92.7928 31.6987 93.0386 31.735C93.3835 31.8151 93.7432 31.8061 94.0836 31.7088C94.4241 31.6115 94.7341 31.4292 94.9847 31.179C95.5962 30.5259 95.9903 29.6993 96.1127 28.813L96.8636 24.961L98.7007 25.321L96.9897 34.085Z" fill="#E0004D"/>
<path d="M98.3809 33.9619C98.205 33.6552 98.1022 33.312 98.0805 32.959C98.0588 32.6061 98.1189 32.2529 98.2559 31.9269C98.3723 31.5959 98.5602 31.2946 98.8063 31.0445C99.0525 30.7944 99.3507 30.6016 99.6798 30.4799C100.47 30.2294 101.318 30.2245 102.112 30.4659L103.98 30.9239C104.485 31.0493 104.814 30.9143 104.969 30.5189C105.042 30.3393 105.07 30.1446 105.05 29.9517C105.031 29.7588 104.965 29.5736 104.858 29.4119C104.572 29.0241 104.181 28.7258 103.731 28.5521C103.281 28.3784 102.792 28.3363 102.319 28.4309C102.104 28.493 101.906 28.6007 101.737 28.7468C101.568 28.8928 101.433 29.0737 101.341 29.2769L99.6318 28.6029C99.8195 28.2133 100.085 27.8663 100.412 27.583C100.738 27.2998 101.12 27.0864 101.532 26.9559C102.442 26.7005 103.412 26.7713 104.276 27.1559C105.218 27.4711 106.007 28.1285 106.488 28.9979C106.69 29.4006 106.801 29.8429 106.813 30.2933C106.825 30.7438 106.737 31.1913 106.556 31.6039L105.264 34.9039C105.092 35.3419 105.187 35.6323 105.55 35.7749C105.642 35.8088 105.737 35.8342 105.834 35.8509L105.27 37.2919C104.978 37.2485 104.692 37.1731 104.417 37.0669C104.022 36.9341 103.686 36.6678 103.467 36.3139C103.373 36.1357 103.319 35.9397 103.307 35.7389C103.295 35.5381 103.325 35.337 103.397 35.1489C103.007 35.4967 102.511 35.7022 101.989 35.7319C101.374 35.7759 100.758 35.6752 100.189 35.4379C99.4286 35.1788 98.7869 34.6549 98.3809 33.9619ZM102.902 34.1699C103.508 33.8459 103.969 33.3032 104.19 32.6519L104.309 32.3519L101.909 31.8329C100.927 31.6069 100.299 31.8463 100.022 32.5509C99.9596 32.7018 99.934 32.8654 99.9472 33.0281C99.9604 33.1908 100.012 33.348 100.098 33.4869C100.305 33.8152 100.618 34.0623 100.986 34.1869C101.287 34.3245 101.615 34.3944 101.946 34.3914C102.277 34.3885 102.603 34.3129 102.902 34.1699Z" fill="#E0004D"/>
<path d="M112.825 33.341C112.432 33.1141 111.974 33.0264 111.525 33.092C110.986 33.1856 110.485 33.428 110.078 33.792C109.505 34.2918 109.029 34.8916 108.672 35.562L107.018 38.462L105.394 37.53L109.82 29.777L111.443 30.709L110.599 32.188C111.057 31.8238 111.619 31.6138 112.205 31.588C112.792 31.5368 113.381 31.664 113.896 31.953C114.021 32.0222 114.141 32.1011 114.255 32.189C114.313 32.2366 114.373 32.281 114.437 32.322L113.55 33.876C113.331 33.6687 113.087 33.489 112.825 33.341Z" fill="#E0004D"/>
<path d="M110.556 39.8369C110.472 39.4928 110.47 39.1339 110.548 38.7884C110.626 38.443 110.783 38.1204 111.007 37.8459C111.211 37.561 111.476 37.3247 111.782 37.154C112.088 36.9834 112.428 36.8826 112.778 36.8589C113.607 36.8406 114.423 37.0743 115.116 37.5289L116.782 38.4949C117.231 38.7563 117.585 38.7193 117.844 38.3839C117.963 38.2314 118.044 38.0523 118.078 37.862C118.113 37.6717 118.102 37.4757 118.044 37.2909C117.898 36.8268 117.601 36.4245 117.201 36.1469C116.83 35.8337 116.365 35.6535 115.88 35.6349C115.658 35.6339 115.437 35.6813 115.235 35.7739C115.032 35.8664 114.852 36.0019 114.707 36.1709L113.253 35.0439C113.543 34.7232 113.895 34.465 114.288 34.2851C114.681 34.1053 115.106 34.0075 115.538 33.9979C116.484 34.0088 117.395 34.3502 118.115 34.9629C118.931 35.53 119.505 36.3824 119.723 37.3519C119.804 37.7952 119.787 38.2508 119.672 38.6865C119.557 39.1222 119.347 39.5273 119.058 39.8729L116.892 42.6729C116.605 43.0449 116.616 43.3499 116.923 43.5889C117.002 43.6472 117.087 43.6978 117.175 43.7399L116.229 44.9649C115.961 44.8408 115.708 44.6879 115.473 44.5089C115.132 44.2698 114.885 43.9199 114.773 43.5189C114.733 43.3219 114.736 43.1186 114.781 42.9226C114.825 42.7266 114.911 42.5423 115.032 42.3819C114.56 42.6059 114.025 42.6633 113.516 42.5449C112.913 42.4149 112.348 42.1447 111.868 41.7559C111.216 41.2931 110.751 40.6125 110.556 39.8369ZM114.837 41.3079C115.51 41.1659 116.104 40.7725 116.496 40.2079L116.696 39.9499L114.539 38.7769C113.661 38.2849 112.991 38.3379 112.529 38.9359C112.427 39.0629 112.356 39.2126 112.323 39.3724C112.29 39.5323 112.295 39.6977 112.339 39.8549C112.445 40.2288 112.677 40.5547 112.995 40.7779C113.245 40.9952 113.54 41.1553 113.858 41.2468C114.176 41.3384 114.511 41.3592 114.838 41.3079H114.837Z" fill="#E0004D"/>
<path d="M122.891 39.075L124.146 40.4669L123.024 41.4819C123.599 41.3654 124.194 41.4023 124.75 41.589C125.32 41.7814 125.83 42.1208 126.226 42.573C126.524 42.8786 126.757 43.2408 126.911 43.6381C127.066 44.0354 127.139 44.4598 127.126 44.8859C127.104 45.3108 126.993 45.7262 126.802 46.1064C126.611 46.4865 126.344 46.8231 126.016 47.0949L121.654 51.0369L120.401 49.644L124.456 45.979C124.846 45.6547 125.092 45.1903 125.142 44.686C125.16 44.4377 125.125 44.1885 125.039 43.955C124.952 43.7215 124.817 43.5091 124.642 43.3319C124.415 43.0606 124.122 42.8517 123.791 42.7248C123.46 42.598 123.102 42.5574 122.751 42.6069C121.872 42.7607 121.062 43.1851 120.434 43.8209L117.528 46.452L116.274 45.059L122.891 39.075Z" fill="#E0004D"/>
<path d="M130.754 51.6239L129.554 49.8239L125.825 52.3159C125.667 52.4071 125.528 52.5287 125.418 52.6735C125.307 52.8183 125.226 52.9836 125.179 53.1599C125.147 53.3282 125.15 53.5012 125.189 53.6681C125.227 53.835 125.299 53.9922 125.401 54.1299C125.577 54.3755 125.781 54.5997 126.01 54.7979L124.653 55.7059C124.534 55.6102 124.424 55.503 124.326 55.3859C124.185 55.226 124.056 55.057 123.938 54.8799C123.467 54.2489 123.252 53.4628 123.338 52.6799C123.412 52.2968 123.567 51.9341 123.794 51.6165C124.021 51.299 124.313 51.0341 124.652 50.8399L128.51 48.2619L127.633 46.9449L128.947 46.0659L129.824 47.3839L132.039 45.9039L133.077 47.4639L130.862 48.9439L132.062 50.7439L130.754 51.6239Z" fill="#E0004D"/>
<path d="M130.837 52.7969C131.597 52.7877 132.343 52.9959 132.987 53.3969C133.681 53.8429 134.229 54.4808 134.566 55.2329C134.932 55.9447 135.092 56.7444 135.027 57.5419C134.962 58.2615 134.693 58.9478 134.253 59.5209C133.808 60.0999 133.231 60.5646 132.57 60.8769C132.374 60.9723 132.132 61.0766 131.844 61.1899L128.966 55.2049C128.343 55.5435 127.864 56.0973 127.619 56.7629C127.52 57.0749 127.484 57.4036 127.513 57.7298C127.541 58.056 127.635 58.3732 127.787 58.6629C127.993 59.1244 128.327 59.5167 128.75 59.7929C128.936 59.9129 129.144 59.9941 129.362 60.0316C129.579 60.0691 129.802 60.062 130.017 60.0109L130.817 61.6699C130.394 61.8111 129.946 61.8633 129.502 61.823C129.058 61.7827 128.626 61.6509 128.235 61.4359C127.389 60.9494 126.72 60.2048 126.327 59.3109C125.949 58.571 125.794 57.7374 125.879 56.9109C125.966 56.1455 126.262 55.4188 126.735 54.8109C127.222 54.1856 127.848 53.6834 128.564 53.3449C129.271 52.9935 130.048 52.8062 130.837 52.7969ZM132.317 58.7689C132.816 58.5037 133.198 58.0634 133.391 57.5329C133.479 57.2614 133.51 56.9749 133.483 56.6909C133.457 56.4068 133.372 56.1312 133.235 55.8809C133.007 55.3616 132.59 54.9482 132.068 54.7239C131.514 54.5081 130.904 54.48 130.332 54.6439L132.317 58.7689Z" fill="#E0004D"/>
<path d="M134.865 61.618C135.614 61.7464 136.31 62.0873 136.871 62.6C137.474 63.1634 137.899 63.8899 138.095 64.691C138.328 65.4566 138.342 66.272 138.135 67.045C137.941 67.7406 137.554 68.3669 137.018 68.851C136.476 69.3417 135.825 69.6956 135.118 69.883C134.907 69.94 134.651 70 134.346 70.06L132.591 63.652C131.919 63.8731 131.35 64.3317 130.991 64.942C130.837 65.231 130.742 65.548 130.712 65.8743C130.681 66.2005 130.717 66.5295 130.815 66.842C130.934 67.3333 131.193 67.7796 131.56 68.127C131.721 68.2791 131.911 68.3968 132.118 68.4732C132.326 68.5495 132.546 68.5828 132.767 68.571L133.255 70.347C132.813 70.4091 132.362 70.379 131.932 70.2585C131.502 70.1381 131.101 69.9299 130.755 69.647C130.007 69.0169 129.481 68.1629 129.255 67.211C129.015 66.4153 129.011 65.5669 129.244 64.769C129.467 64.0303 129.889 63.3673 130.464 62.853C131.055 62.3251 131.762 61.9438 132.527 61.74C133.287 61.5234 134.087 61.4817 134.865 61.618ZM135.249 67.759C135.787 67.5878 136.242 67.2243 136.528 66.738C136.663 66.4862 136.745 66.2096 136.769 65.9252C136.794 65.6407 136.761 65.3542 136.671 65.083C136.54 64.5308 136.204 64.049 135.731 63.735C135.225 63.4237 134.631 63.2863 134.04 63.344L135.249 67.759Z" fill="#E0004D"/>
<path d="M28.9707 77.223L33.5137 75.703L33.8627 82.954L37.0997 81.81L34.3057 89.71L33.6477 84.95L30.2037 86.031L28.9707 77.223Z" fill="#E0004D"/>
<mask id="mask0_456_5379" style="mask-type:luminance" maskUnits="userSpaceOnUse" x="1" y="1" width="166" height="166">
<path d="M164.746 60.266C166.767 67.118 158.857 75.447 159.036 82.266C159.22 89.321 167.489 97.239 165.873 103.942C164.234 110.742 153.238 114.008 149.926 120.114C146.614 126.22 149.856 137.245 145.054 142.321C140.319 147.321 129.194 144.672 123.186 148.353C117.38 151.909 114.704 163.09 107.868 165.115C101.032 167.14 92.722 159.215 85.92 159.392C78.881 159.577 70.9821 167.866 64.2941 166.245C57.5091 164.601 54.251 153.581 48.159 150.261C42.067 146.941 31.067 150.191 26.003 145.378C21.011 140.632 23.657 129.478 19.985 123.46C16.437 117.64 5.28504 114.96 3.26104 108.108C1.23704 101.256 9.14906 92.927 8.97106 86.108C8.78706 79.053 0.517049 71.136 2.13305 64.432C3.77305 57.632 14.768 54.366 18.081 48.26C21.394 42.154 18.1501 31.129 22.9531 26.053C27.6881 21.053 38.813 23.702 44.821 20.022C50.627 16.465 53.3031 5.28401 60.1381 3.25801C66.9731 1.23201 75.285 9.15801 82.087 8.98101C89.126 8.79601 97.0251 0.509005 103.713 2.12901C110.497 3.77201 113.756 14.793 119.848 18.112C125.94 21.431 136.94 18.182 142.004 22.995C146.996 27.741 144.35 38.895 148.021 44.913C151.572 50.734 162.728 53.415 164.746 60.266Z" fill="white"/>
</mask>
<g mask="url(#mask0_456_5379)">
<path d="M85.791 125.496C92.257 131.006 96.541 138.685 99.591 146.621C100.584 149.196 101.467 152.039 100.637 154.671C99.662 157.771 96.576 159.698 93.521 160.78C89.8943 162.004 86.0828 162.589 82.256 162.51C78.9516 162.605 75.6664 161.976 72.631 160.667C69.3188 158.915 66.487 156.378 64.384 153.277C60.705 148.293 58.022 142.419 57.595 136.233C57.242 131.108 59.053 120.425 64.878 118.533C71.606 116.357 80.888 121.316 85.791 125.496Z" fill="#F9AFA0"/>
<path d="M119.063 71.683C117.913 65.2086 114.957 59.1909 110.536 54.3231C106.116 49.4552 100.41 45.9354 94.0755 44.169C87.7415 42.4027 81.0374 42.4617 74.7355 44.3393C68.4336 46.2169 62.7903 49.8367 58.4559 54.7816C54.1215 59.7266 51.2723 65.7954 50.2365 72.289C49.2007 78.7826 50.0205 85.4367 52.6015 91.4847C55.1824 97.5327 59.4196 102.728 64.8246 106.473C70.2297 110.218 76.5828 112.36 83.152 112.652L84.8429 122.33L78.115 123.511L69.024 125.106L71.6239 139.964L80.716 138.364L87.443 137.184L89.579 149.412L104.403 146.812L102.267 134.584L108.993 133.403L118.085 131.803L115.485 116.946L106.393 118.552L99.667 119.733L97.976 110.053C105.325 107.001 111.416 101.539 115.248 94.5659C119.081 87.5925 120.426 79.5225 119.063 71.683ZM65.1339 81.147C64.4637 77.2794 64.9551 73.3 66.5459 69.7116C68.1367 66.1232 70.7555 63.0869 74.0714 60.9865C77.3874 58.8861 81.2516 57.8159 85.1756 57.911C89.0997 58.0062 92.9075 59.2624 96.1177 61.5211C99.328 63.7797 101.797 66.9393 103.212 70.6006C104.627 74.2619 104.924 78.2605 104.068 82.091C103.211 85.9215 101.237 89.4121 98.3973 92.1214C95.5572 94.8308 91.9776 96.6374 88.1109 97.313C82.922 98.2026 77.5919 97.0014 73.2861 93.972C68.9803 90.9426 66.0493 86.3315 65.1339 81.147Z" fill="#CACAE5"/>
<path d="M97.0831 184L108.158 168.836C108.158 168.836 93.6581 166.68 95.4821 158.692C97.3061 150.704 80.934 141.537 80.934 141.537C81.034 141.527 81.1341 141.524 81.2341 141.515C81.3341 141.506 81.453 141.5 81.593 141.491C81.6677 141.479 81.7434 141.474 81.819 141.475C85.372 141.224 98.449 140.146 99.619 137.854C99.7155 137.666 99.7945 137.469 99.855 137.267C99.863 137.267 99.8631 137.267 99.8621 137.259C99.9703 136.957 100.019 136.637 100.005 136.317C100.003 136.27 99.9972 136.223 99.988 136.177C99.9329 135.693 99.6885 135.25 99.308 134.945C99.2595 134.9 99.2073 134.859 99.152 134.822C98.9285 134.653 98.6794 134.52 98.4141 134.43C98.6156 134.412 98.8159 134.382 99.014 134.341C99.099 134.326 99.1821 134.311 99.2731 134.288C100.009 134.145 100.702 133.836 101.301 133.386C101.9 132.935 102.389 132.355 102.731 131.688C102.758 131.619 102.785 131.543 102.804 131.477C102.81 131.461 102.804 131.453 102.813 131.436C102.935 131.045 102.97 130.631 102.913 130.225C102.903 130.125 102.884 130.017 102.867 129.918L102.85 129.818C102.824 129.718 102.781 129.624 102.722 129.54C102.692 129.494 102.658 129.449 102.622 129.407C102.58 129.36 102.535 129.315 102.488 129.273C101.559 128.584 100.491 128.106 99.358 127.873C99.333 127.873 99.3081 127.858 99.2841 127.855C99.0931 127.801 98.902 127.747 98.704 127.696C98.596 127.667 98.482 127.64 98.366 127.613C97.266 127.348 96.047 127.113 94.819 126.907C94.389 126.832 93.959 126.765 93.538 126.707C93.377 126.689 93.207 126.663 93.029 126.638C89.946 126.192 87.149 125.938 86.429 125.884C86.316 125.871 86.253 125.867 86.253 125.867C97.099 124.567 100.907 119.867 100.496 117.509C100.277 116.259 96.3831 115.773 92.7861 115.589C92.7771 115.583 92.778 115.589 92.778 115.589C92.142 115.559 91.522 115.533 90.928 115.519C90.809 115.519 90.683 115.519 90.556 115.513C88.347 115.458 86.6561 115.502 86.6561 115.502L86.728 115.37C87.1528 114.681 87.4952 113.945 87.748 113.176C87.7519 113.161 87.7572 113.147 87.764 113.134C88.1031 112.276 88.1109 111.322 87.7861 110.458C87.2421 109.375 79.6071 109.058 72.7861 109.596C70.0302 109.752 67.2977 110.192 64.632 110.909H64.6091C63.7558 111.115 62.9641 111.523 62.3 112.097C61.266 113.467 60.533 115.039 60.149 116.712C59.919 117.472 59.7191 118.266 59.5491 119.062L59.368 119.925C59.2 120.768 59.053 121.6 58.931 122.388V122.396C58.903 122.596 58.874 122.796 58.845 122.988C58.587 124.764 58.4621 126.209 58.4191 126.778C58.4191 126.818 58.4091 126.859 58.4091 126.898C58.4011 126.998 58.395 127.051 58.395 127.051C58.3903 127.146 58.3871 127.234 58.3851 127.313C58.3771 127.547 58.379 127.719 58.379 127.726C58.388 129.462 54.89 138.835 54.89 138.835C54.43 140.068 53.13 145.104 73.566 164.452C77.753 168.415 82.438 172.588 87.647 176.852L97.0831 184Z" fill="#FFBBA9"/>
<path d="M58.4313 127.245C58.4157 127.247 58.3999 127.247 58.3843 127.245C58.3332 127.24 58.2859 127.216 58.2522 127.177C58.2185 127.138 58.201 127.088 58.2033 127.037C58.2403 126.485 59.1353 113.496 63.1143 111.368C66.5723 109.517 71.6143 109.404 75.2893 109.323C75.8443 109.31 76.3753 109.299 76.8683 109.282C87.6683 108.915 88.0963 110.3 88.2353 110.755C88.7243 112.355 86.8983 115.465 86.8213 115.597C86.7948 115.642 86.7516 115.674 86.7014 115.687C86.6511 115.699 86.5979 115.692 86.5533 115.665C86.5087 115.638 86.4766 115.595 86.4638 115.545C86.4511 115.495 86.4588 115.442 86.4853 115.397C86.5053 115.366 88.3023 112.297 87.8633 110.867C87.7203 110.4 86.3633 109.348 76.8803 109.667C76.3853 109.683 75.8553 109.695 75.2973 109.707C71.6583 109.787 66.6743 109.897 63.2973 111.707C59.5093 113.734 58.5973 126.925 58.5923 127.058C58.5902 127.103 58.5733 127.145 58.5441 127.179C58.5149 127.213 58.4752 127.236 58.4313 127.245Z" fill="#29100D"/>
<path d="M86.2811 126.059C86.2321 126.064 86.1829 126.051 86.1435 126.021C86.1042 125.991 86.0775 125.948 86.0689 125.899C86.0603 125.851 86.0703 125.801 86.0971 125.759C86.1238 125.718 86.1653 125.688 86.2131 125.676C86.2371 125.676 88.6041 125.25 93.1491 123.989C97.6941 122.728 100.349 118.876 100.301 117.521C100.246 116.041 95.3821 115.778 91.1501 115.714C84.4177 115.762 77.6947 116.224 71.0191 117.098L70.9651 117.107C67.0361 117.797 60.8321 125.959 60.7711 126.042C60.7557 126.062 60.7365 126.08 60.7145 126.092C60.6925 126.105 60.6682 126.114 60.643 126.117C60.6177 126.121 60.592 126.119 60.5673 126.113C60.5426 126.107 60.5194 126.095 60.4991 126.08C60.4787 126.065 60.4616 126.045 60.4487 126.023C60.4357 126.001 60.4273 125.977 60.4237 125.952C60.4202 125.927 60.4217 125.901 60.4281 125.876C60.4345 125.852 60.4457 125.828 60.4611 125.808C60.7201 125.465 66.8191 117.44 70.9001 116.724L70.9601 116.714C77.6585 115.837 84.4046 115.373 91.1601 115.326C97.9661 115.426 100.639 116.04 100.694 117.507C100.756 119.136 97.9081 123.073 93.2591 124.364C88.6871 125.631 86.3041 126.052 86.2811 126.059Z" fill="#29100D"/>
<path d="M99.0535 134.534C98.8535 134.57 98.6536 134.598 98.4376 134.622C98.3865 134.626 98.3357 134.611 98.2957 134.579C98.2557 134.547 98.2295 134.501 98.2225 134.45C98.218 134.399 98.2334 134.347 98.2656 134.307C98.2979 134.267 98.3444 134.241 98.3955 134.234C99.11 134.217 99.8129 134.048 100.458 133.74C101.103 133.432 101.675 132.991 102.138 132.446C102.398 132.073 102.578 131.651 102.667 131.205C102.757 130.759 102.753 130.3 102.657 129.856C102.38 128.596 97.2065 127.376 93.6215 126.913C88.7036 126.216 83.7518 125.785 78.7875 125.62C74.2635 125.629 63.9876 132.194 63.8806 132.26C63.8591 132.274 63.8351 132.283 63.81 132.288C63.7849 132.292 63.7591 132.292 63.7342 132.286C63.7093 132.281 63.6857 132.271 63.6648 132.256C63.6439 132.241 63.6262 132.223 63.6126 132.201C63.5857 132.157 63.5767 132.105 63.5875 132.054C63.5983 132.004 63.628 131.96 63.6705 131.931C64.0965 131.658 74.1556 125.231 78.7866 125.231C83.7679 125.397 88.7367 125.831 93.6715 126.531C93.7605 126.542 102.582 127.707 103.037 129.778C103.146 130.275 103.151 130.79 103.05 131.289C102.95 131.789 102.747 132.262 102.454 132.678C102.037 133.196 101.522 133.627 100.939 133.945C100.355 134.264 99.7146 134.464 99.0535 134.534Z" fill="#29100D"/>
<path d="M93.2804 140.252C89.7474 140.872 85.0564 141.452 80.9434 141.733L75.2434 142.128C75.192 142.131 75.1413 142.114 75.1024 142.08C75.0636 142.046 75.0399 141.998 75.0365 141.947C75.033 141.896 75.0501 141.845 75.0841 141.806C75.118 141.767 75.166 141.743 75.2174 141.74L80.9174 141.34C86.3278 141.006 91.703 140.243 96.9925 139.058C98.5515 138.623 99.5415 137.867 99.7815 136.927C99.856 136.594 99.8397 136.247 99.7341 135.923C99.6285 135.599 99.4376 135.309 99.1814 135.084C98.0584 133.996 83.7974 131.478 80.0644 131.994C80.0194 132 79.9744 132.008 79.9264 132.016C76.2654 132.659 65.6605 139.435 65.5525 139.504C65.5091 139.532 65.4565 139.541 65.4062 139.53C65.356 139.519 65.3122 139.488 65.2844 139.445C65.2567 139.402 65.2474 139.349 65.2584 139.299C65.2695 139.248 65.3 139.205 65.3434 139.177C65.7874 138.892 76.1225 132.288 79.8645 131.632C79.9145 131.623 79.9644 131.616 80.0144 131.609C83.5794 131.116 98.1144 133.509 99.4514 134.809C99.7584 135.081 99.9863 135.43 100.111 135.82C100.236 136.211 100.253 136.628 100.16 137.027C99.8864 138.108 98.7994 138.964 97.1004 139.437C96.1394 139.699 94.8194 139.977 93.2804 140.252Z" fill="#29100D"/>
<path d="M85.3719 113.713C84.7752 113.818 84.1706 113.871 83.5649 113.871C82.7492 113.92 81.939 113.71 81.2499 113.271C80.9435 113.043 80.6962 112.745 80.5286 112.402C80.3611 112.058 80.2781 111.68 80.2867 111.298C80.2954 110.916 80.3953 110.542 80.5782 110.207C80.7611 109.872 81.0216 109.585 81.3379 109.371C81.3811 109.344 81.4332 109.334 81.4834 109.344C81.5336 109.354 81.5782 109.382 81.6078 109.424C81.6355 109.467 81.6455 109.52 81.6356 109.57C81.6257 109.621 81.5968 109.665 81.5549 109.695C81.2902 109.874 81.0722 110.114 80.9192 110.394C80.7663 110.675 80.6827 110.988 80.6755 111.307C80.6684 111.627 80.7378 111.943 80.8781 112.23C81.0184 112.517 81.2255 112.766 81.4819 112.957C82.1045 113.344 82.8323 113.527 83.5638 113.48C85.0098 113.477 86.4387 113.167 87.7559 112.57C87.7792 112.559 87.8047 112.553 87.8306 112.552C87.8565 112.551 87.8823 112.555 87.9065 112.564C87.9307 112.574 87.9526 112.588 87.9711 112.606C87.9895 112.624 88.0041 112.646 88.0139 112.67C88.0243 112.693 88.03 112.719 88.0306 112.744C88.0313 112.77 88.0268 112.795 88.0175 112.819C88.0082 112.843 87.9942 112.865 87.9764 112.884C87.9587 112.902 87.9374 112.917 87.9139 112.927C87.1033 113.296 86.2491 113.56 85.3719 113.713Z" fill="#29100D"/>
<path d="M96.5529 120.258C95.4873 120.446 94.3979 120.457 93.3289 120.289C92.7011 120.22 92.1005 119.995 91.5819 119.635C91.2 119.338 90.9175 118.932 90.7721 118.471C90.6268 118.01 90.6254 117.515 90.7682 117.053C90.911 116.591 91.1912 116.183 91.5715 115.884C91.9518 115.585 92.4141 115.409 92.8969 115.38C92.9224 115.378 92.9479 115.382 92.972 115.39C92.9961 115.399 93.0184 115.412 93.0375 115.429C93.0565 115.446 93.0721 115.466 93.0832 115.489C93.0944 115.512 93.1009 115.537 93.1024 115.562C93.1039 115.588 93.1004 115.613 93.092 115.638C93.0837 115.662 93.0706 115.684 93.0537 115.703C93.0367 115.722 93.0162 115.738 92.9933 115.749C92.9703 115.76 92.9454 115.766 92.9199 115.768C92.5164 115.793 92.1301 115.94 91.8124 116.19C91.4946 116.44 91.2605 116.781 91.1411 117.167C91.0217 117.553 91.0226 117.967 91.1439 118.352C91.2652 118.738 91.501 119.078 91.8199 119.326C92.287 119.645 92.8256 119.843 93.3879 119.904C95.7539 120.27 98.1709 119.731 100.158 118.396C100.179 118.382 100.203 118.372 100.228 118.367C100.253 118.361 100.279 118.361 100.304 118.366C100.329 118.371 100.353 118.381 100.374 118.395C100.395 118.409 100.414 118.427 100.428 118.448C100.442 118.469 100.452 118.493 100.457 118.518C100.463 118.543 100.463 118.569 100.458 118.594C100.453 118.619 100.443 118.643 100.429 118.664C100.415 118.685 100.397 118.704 100.376 118.718C99.224 119.494 97.9213 120.019 96.5529 120.258Z" fill="#29100D"/>
<path d="M100.29 131.208C99.3173 131.377 98.3187 131.326 97.3683 131.057C96.4458 130.828 95.6207 130.31 95.0133 129.579C94.7094 129.196 94.5144 128.739 94.4491 128.255C94.3838 127.77 94.4505 127.277 94.6423 126.828C94.6532 126.805 94.6687 126.784 94.6877 126.767C94.7068 126.75 94.729 126.737 94.7531 126.729C94.7772 126.721 94.8027 126.717 94.8282 126.719C94.8536 126.721 94.8785 126.728 94.9013 126.739C94.9465 126.763 94.9809 126.803 94.9975 126.851C95.014 126.9 95.0115 126.952 94.9903 126.999C94.8299 127.383 94.776 127.804 94.8345 128.217C94.8929 128.629 95.0614 129.018 95.3222 129.343C95.8787 130.007 96.6322 130.476 97.4733 130.682C98.3655 130.936 99.3038 130.985 100.218 130.825C101.131 130.664 101.997 130.299 102.749 129.756C102.791 129.727 102.843 129.716 102.893 129.725C102.943 129.734 102.988 129.762 103.018 129.804C103.047 129.845 103.06 129.896 103.052 129.947C103.044 129.997 103.017 130.042 102.976 130.073C102.178 130.649 101.26 131.037 100.29 131.208Z" fill="#29100D"/>
<path d="M97.4133 136.905C96.2077 137.119 94.9683 137.043 93.7983 136.681C92.9943 136.48 92.2848 136.007 91.7913 135.341C91.5387 134.984 91.4186 134.551 91.4517 134.115C91.4847 133.679 91.6689 133.268 91.9724 132.954C91.9915 132.937 92.0137 132.924 92.0378 132.916C92.062 132.907 92.0876 132.904 92.113 132.905C92.1385 132.907 92.1634 132.913 92.1864 132.925C92.2094 132.936 92.2299 132.951 92.2468 132.97C92.2638 132.99 92.2768 133.012 92.2852 133.036C92.2935 133.06 92.297 133.086 92.2955 133.111C92.2939 133.137 92.2874 133.162 92.2762 133.185C92.265 133.208 92.2495 133.228 92.2303 133.245C91.9992 133.498 91.8619 133.823 91.8411 134.165C91.8204 134.508 91.9175 134.847 92.1163 135.126C92.562 135.716 93.1979 136.134 93.9163 136.309C94.8904 136.608 95.9161 136.702 96.9281 136.583C97.9401 136.464 98.9163 136.135 99.7944 135.618C99.8163 135.605 99.8405 135.596 99.8658 135.592C99.8911 135.589 99.9168 135.59 99.9415 135.596C99.9663 135.603 99.9896 135.614 100.01 135.629C100.03 135.645 100.047 135.664 100.06 135.686C100.086 135.73 100.093 135.783 100.081 135.833C100.068 135.882 100.037 135.925 99.9943 135.953C99.1991 136.425 98.3244 136.747 97.4133 136.905Z" fill="#29100D"/>
<path d="M71.6716 80.371L74.7786 79.826L72.2455 65.339L69.8605 65.758C69.8473 66.144 69.7567 66.5234 69.5942 66.8738C69.4317 67.2242 69.2006 67.5385 68.9146 67.798C68.1812 68.3673 67.3131 68.7373 66.3945 68.872L66.7946 71.183L69.9626 70.627L71.6716 80.371Z" fill="#E0004D"/>
<path d="M78.6862 78.3519C79.7279 78.8132 80.8865 78.9421 82.0041 78.7209C83.1366 78.5489 84.1898 78.0358 85.0231 77.2499C85.8397 76.4434 86.4031 75.4161 86.6441 74.2939C87.1706 71.615 86.6854 68.8359 85.2821 66.4939C84.6752 65.5209 83.7968 64.7467 82.7551 64.2669C81.702 63.8362 80.5485 63.7119 79.4278 63.9085C78.3071 64.1051 77.2648 64.6145 76.4211 65.3779C75.6041 66.1842 75.0404 67.2116 74.7991 68.3339C74.2728 71.005 74.7567 73.7763 76.1571 76.1109C76.7657 77.0867 77.6442 77.8651 78.6862 78.3519ZM78.0301 68.2159C78.1709 67.8086 78.4181 67.4464 78.746 67.1669C79.074 66.8874 79.4708 66.7007 79.8952 66.6262C80.3196 66.5517 80.7563 66.5922 81.1598 66.7433C81.5634 66.8945 81.9191 67.1509 82.1901 67.4859C82.8561 68.4932 83.3071 69.627 83.5149 70.8165C83.7228 72.0059 83.683 73.2255 83.3981 74.3989C83.2651 74.812 83.0194 75.1797 82.6887 75.4606C82.3579 75.7415 81.9553 75.9245 81.5261 75.9889C81.1035 76.0752 80.6651 76.0411 80.2609 75.8907C79.8566 75.7403 79.5026 75.4795 79.2391 75.1379C78.5789 74.1264 78.1312 72.9911 77.9233 71.8011C77.7155 70.6112 77.7519 69.3914 78.0301 68.2159Z" fill="#E0004D"/>
<path d="M91.3149 76.137C92.3566 76.5995 93.5157 76.7291 94.6339 76.508C95.7662 76.3359 96.8191 75.8223 97.6519 75.036C98.4689 74.2298 99.0324 73.2023 99.2729 72.08C99.7997 69.401 99.3144 66.6218 97.9109 64.28C97.3042 63.3068 96.4262 62.5324 95.3849 62.052C94.3316 61.6218 93.1782 61.498 92.0576 61.6947C90.9369 61.8915 89.8947 62.4008 89.0508 63.164C88.2341 63.9705 87.6704 64.9978 87.4288 66.12C86.9028 68.791 87.3868 71.5622 88.7869 73.897C89.3956 74.8721 90.2736 75.6501 91.3149 76.137ZM90.6589 66.001C90.7999 65.5939 91.0472 65.232 91.3752 64.9526C91.7031 64.6733 92.0998 64.4868 92.5241 64.4123C92.9484 64.3378 93.3849 64.3782 93.7884 64.5292C94.1919 64.6801 94.5476 64.9363 94.8188 65.271C95.4848 66.2782 95.9358 67.412 96.1437 68.6015C96.3515 69.791 96.3118 71.0106 96.0269 72.184C95.886 72.5906 95.6392 72.9524 95.3119 73.2318C94.9846 73.5113 94.5887 73.6984 94.165 73.7738C93.7413 73.8492 93.305 73.8102 92.9014 73.6608C92.4978 73.5114 92.1414 73.2571 91.8688 72.924C91.2078 71.9126 90.7596 70.7772 90.5516 69.587C90.3436 68.3967 90.3801 67.1766 90.6589 66.001Z" fill="#E0004D"/>
<path d="M80.2051 84.0519C79.4724 83.2229 78.5128 82.6267 77.4451 82.3369C76.3284 82.038 75.1588 81.9946 74.0231 82.2099L69.748 82.9589L71.9691 95.6719L76.2441 94.9219C77.3854 94.7374 78.4708 94.2989 79.42 93.6389C80.3234 93.0012 81.0218 92.1146 81.4301 91.0869C81.831 89.9051 81.9286 88.6414 81.7139 87.412C81.4991 86.1826 80.9789 85.0269 80.201 84.0509L80.2051 84.0519ZM78.2841 91.1129C77.5796 91.9056 76.6162 92.4221 75.566 92.5699L74.2801 92.7959L72.8971 84.8799L74.183 84.6539C75.2195 84.4354 76.3 84.5906 77.2331 85.0919C78.1246 85.7857 78.726 86.7863 78.9203 87.8991C79.1146 89.0119 78.8878 90.1582 78.2841 91.1129Z" fill="#E0004D"/>
<path d="M84.6181 80.352L82.0361 93.907L84.9041 93.407L85.3881 90.577L90.0321 89.762L91.4451 92.252L94.4171 91.73L87.3781 79.864L84.6181 80.352ZM85.8271 88.099L86.5791 83.699L88.7791 87.583L85.8271 88.099Z" fill="#E0004D"/>
<path d="M98.1982 77.9679L96.2673 83.3049L92.6923 78.9339L89.7383 79.4519L95.3672 86.1519L96.2853 91.4059L99.0132 90.9269L98.0953 85.6729L101.136 77.4509L98.1982 77.9679Z" fill="#E0004D"/>
</g>
<path d="M140.197 76.7999L135.654 75.2799L135.305 82.5309L132.068 81.3869L134.862 89.2869L135.52 84.5269L138.964 85.6079L140.197 76.7999Z" fill="#E0004D"/>
</svg>
