<svg width="108" height="108" viewBox="0 0 108 108" fill="none" xmlns="http://www.w3.org/2000/svg">
<path d="M0 0H107.481V53.7402C107.481 67.9931 101.819 81.6619 91.7408 91.7402C81.6625 101.819 67.9933 107.48 53.7405 107.48C39.4876 107.48 25.8185 101.819 15.7402 91.7402C5.66194 81.6619 0 67.9931 0 53.7402V0Z" fill="white"/>
<path d="M0 0H107.481V53.7402C107.481 67.9931 101.819 81.6619 91.7408 91.7402C81.6625 101.819 67.9933 107.48 53.7405 107.48C39.4876 107.48 25.8185 101.819 15.7402 91.7402C5.66194 81.6619 0 67.9931 0 53.7402V0Z" fill="url(#paint0_linear_456_6539)"/>
<path d="M31.2141 17H76.7841C78.9717 17.009 81.0661 17.8866 82.6067 19.4397C84.1473 20.9929 85.0078 23.0944 84.9991 25.282C85.0078 27.4696 84.1473 29.5711 82.6067 31.1243C81.0661 32.6774 78.9717 33.555 76.7841 33.564H31.2141C29.0265 33.5547 26.9321 32.6769 25.3917 31.1236C23.8513 29.5702 22.991 27.4686 23.0001 25.281C22.9916 23.0937 23.8521 20.9926 25.3924 19.4397C26.9328 17.8868 29.0268 17.0093 31.2141 17Z" fill="#B2FCE4"/>
<path d="M32.0787 25.2708C32.0689 24.9765 31.9727 24.6915 31.802 24.4515C31.6313 24.2115 31.3938 24.0271 31.119 23.9211C30.8442 23.8152 30.5443 23.7926 30.2567 23.856C29.9691 23.9194 29.7065 24.066 29.5017 24.2777C29.2969 24.4893 29.1589 24.7566 29.105 25.0461C29.051 25.3356 29.0835 25.6346 29.1984 25.9058C29.3132 26.177 29.5053 26.4084 29.7508 26.5711C29.9963 26.7338 30.2842 26.8206 30.5787 26.8208C30.7803 26.8219 30.98 26.7822 31.1657 26.704C31.3515 26.6259 31.5196 26.5109 31.6597 26.3661C31.7999 26.2213 31.9093 26.0496 31.9813 25.8613C32.0533 25.6731 32.0864 25.4722 32.0787 25.2708ZM32.0907 27.9828V27.2828C31.8779 27.5361 31.6111 27.7386 31.3098 27.8755C31.0086 28.0123 30.6806 28.0801 30.3497 28.0738C29.989 28.0728 29.6321 27.9985 29.3009 27.8556C28.9696 27.7127 28.6708 27.504 28.4225 27.2423C28.1742 26.9805 27.9816 26.6711 27.8563 26.3327C27.7311 25.9944 27.6758 25.6342 27.6937 25.2738C27.681 24.9115 27.7411 24.5502 27.8702 24.2114C27.9994 23.8726 28.1951 23.5632 28.4459 23.3012C28.6966 23.0393 28.9972 22.8303 29.3301 22.6865C29.6629 22.5426 30.0212 22.4669 30.3837 22.4638C30.7084 22.4606 31.0297 22.5289 31.325 22.6637C31.6204 22.7984 31.8825 22.9965 32.0927 23.2438V22.5608H33.4487V27.9858L32.0907 27.9828ZM40.0337 26.7778C39.5597 26.7778 39.4277 26.6048 39.4277 26.1498V23.7398H40.2997V22.5568H39.4277V21.2328H38.0377V22.5568H36.2477V22.2268C36.2477 21.7708 36.4237 21.5968 36.9097 21.5968H37.2097V20.5448H36.5487C35.4017 20.5448 34.8627 20.9148 34.8627 22.0448V22.5588H34.0907V23.7418H34.8627V27.9818H36.2527V23.7418H38.0427V26.3998C38.0427 27.5068 38.4727 27.9838 39.5957 27.9838H40.3127V26.7838L40.0337 26.7778ZM45.0177 24.7778C44.9711 24.4532 44.805 24.1577 44.552 23.9491C44.299 23.7405 43.9773 23.6338 43.6497 23.6498C43.321 23.6376 42.9989 23.7453 42.7436 23.9528C42.4883 24.1603 42.317 24.4535 42.2617 24.7778H45.0177ZM42.2497 25.6248C42.2767 25.9798 42.4411 26.3102 42.708 26.5457C42.9749 26.7812 43.3232 26.9032 43.6787 26.8858C43.9386 26.8939 44.1958 26.8327 44.4243 26.7087C44.6527 26.5846 44.844 26.4021 44.9788 26.1798H46.3988C46.2184 26.7589 45.8483 27.2603 45.3481 27.6033C44.848 27.9464 44.2469 28.1111 43.6417 28.0708C43.2684 28.0905 42.895 28.0322 42.5453 27.8997C42.1957 27.7671 41.8775 27.5632 41.611 27.301C41.3445 27.0387 41.1355 26.7238 40.9974 26.3763C40.8593 26.0289 40.795 25.6565 40.8087 25.2828C40.801 24.9064 40.8702 24.5323 41.0122 24.1835C41.1541 23.8348 41.3658 23.5187 41.6342 23.2547C41.9027 22.9906 42.2222 22.7842 42.5733 22.648C42.9243 22.5119 43.2995 22.4488 43.6757 22.4628C44.0503 22.4495 44.4235 22.5132 44.7724 22.65C45.1213 22.7869 45.4384 22.9939 45.704 23.2583C45.9696 23.5227 46.178 23.8388 46.3165 24.187C46.4549 24.5353 46.5204 24.9082 46.5087 25.2828C46.5094 25.3992 46.4987 25.5155 46.4767 25.6298L42.2497 25.6248ZM55.3438 25.2708C55.3339 24.9765 55.2377 24.6915 55.067 24.4515C54.8963 24.2115 54.6588 24.0271 54.384 23.9211C54.1092 23.8152 53.8093 23.7926 53.5217 23.856C53.2341 23.9194 52.9715 24.066 52.7667 24.2777C52.5619 24.4893 52.4239 24.7566 52.37 25.0461C52.316 25.3356 52.3485 25.6346 52.4634 25.9058C52.5782 26.177 52.7703 26.4084 53.0158 26.5711C53.2613 26.7338 53.5492 26.8206 53.8438 26.8208C54.0445 26.8191 54.2429 26.7775 54.4274 26.6984C54.6119 26.6193 54.7788 26.5043 54.9184 26.36C55.0581 26.2158 55.1676 26.0452 55.2406 25.8582C55.3136 25.6712 55.3487 25.4715 55.3438 25.2708ZM50.9787 22.5568H52.3338V23.2568C52.5449 23.0007 52.8114 22.7957 53.113 22.6571C53.4147 22.5186 53.7438 22.4501 54.0757 22.4568C54.4357 22.4606 54.7912 22.5368 55.1212 22.6807C55.4512 22.8246 55.7489 23.0333 55.9966 23.2945C56.2443 23.5556 56.4371 23.8639 56.5634 24.201C56.6896 24.5381 56.7469 24.8972 56.7318 25.2568C56.7443 25.6192 56.6842 25.9804 56.555 26.3192C56.4258 26.658 56.2301 26.9675 55.9794 27.2294C55.7287 27.4914 55.4281 27.7005 55.0953 27.8445C54.7626 27.9885 54.4043 28.0644 54.0417 28.0678C53.7281 28.0756 53.4166 28.0145 53.1291 27.8889C52.8416 27.7633 52.5852 27.5762 52.3778 27.3408V30.2118H50.9787V22.5568ZM61.6198 25.2708C61.6099 24.9765 61.5137 24.6915 61.343 24.4515C61.1723 24.2115 60.9348 24.0271 60.66 23.9211C60.3852 23.8152 60.0853 23.7926 59.7977 23.856C59.5101 23.9194 59.2475 24.066 59.0427 24.2777C58.8379 24.4893 58.6999 24.7566 58.646 25.0461C58.592 25.3356 58.6245 25.6346 58.7394 25.9058C58.8542 26.177 59.0463 26.4084 59.2918 26.5711C59.5373 26.7338 59.8252 26.8206 60.1198 26.8208C60.3213 26.8219 60.521 26.7822 60.7067 26.704C60.8925 26.6259 61.0606 26.5109 61.2007 26.3661C61.3409 26.2213 61.4503 26.0496 61.5223 25.8613C61.5943 25.6731 61.6274 25.4722 61.6198 25.2708ZM61.6317 27.9828V27.2828C61.4188 27.536 61.152 27.7384 60.8507 27.8753C60.5495 28.0121 60.2215 28.08 59.8908 28.0738C59.5298 28.0729 59.1729 27.9988 58.8414 27.8559C58.51 27.7131 58.211 27.5044 57.9625 27.2427C57.714 26.9809 57.5212 26.6715 57.3958 26.3331C57.2704 25.9946 57.2149 25.6343 57.2327 25.2738C57.2202 24.9114 57.2803 24.5502 57.4096 24.2114C57.5389 23.8726 57.7347 23.5631 57.9855 23.3012C58.2363 23.0393 58.5371 22.8303 58.8699 22.6865C59.2028 22.5426 59.5611 22.4669 59.9237 22.4638C60.2482 22.4609 60.5693 22.5293 60.8644 22.6641C61.1595 22.7988 61.4215 22.9967 61.6317 23.2438V22.5608H62.9868V27.9858L61.6317 27.9828ZM48.5317 23.0908C48.6591 22.8923 48.8355 22.73 49.044 22.6198C49.2525 22.5096 49.486 22.4552 49.7217 22.4618C49.9283 22.4574 50.1333 22.4991 50.3218 22.5838V23.9668C50.0262 23.7915 49.686 23.706 49.3428 23.7208C49.1065 23.7673 48.8965 23.9013 48.7548 24.096C48.6132 24.2907 48.5503 24.5317 48.5788 24.7708V27.9828H47.1787V22.5578H48.5347L48.5317 23.0908ZM69.3167 22.5588L65.8927 30.1978H64.4518L65.7957 27.2448L63.5238 22.5588H65.1587L66.4888 25.6908L67.8527 22.5588H69.3167ZM80.2447 22.4368L76.8507 20.5098C76.6252 20.3795 76.3694 20.3105 76.1089 20.3096C75.8484 20.3087 75.5922 20.3759 75.3657 20.5045C75.1392 20.6332 74.9502 20.8189 74.8176 21.0431C74.685 21.2673 74.6134 21.5223 74.6097 21.7828V21.9828C74.6102 22.071 74.6339 22.1575 74.6785 22.2335C74.7231 22.3095 74.787 22.3724 74.8638 22.4158L75.5037 22.7788C75.5463 22.8037 75.5946 22.817 75.6438 22.8173C75.6931 22.8177 75.7416 22.805 75.7844 22.7807C75.8273 22.7564 75.863 22.7213 75.888 22.6788C75.9129 22.6364 75.9263 22.5881 75.9268 22.5388V22.0478C75.9274 21.9912 75.9428 21.9358 75.9715 21.8871C76.0002 21.8383 76.0411 21.7979 76.0903 21.7699C76.1394 21.7419 76.1951 21.7272 76.2516 21.7274C76.3082 21.7276 76.3638 21.7425 76.4128 21.7708L79.3527 23.4398C79.4019 23.4674 79.4428 23.5075 79.4712 23.5561C79.4997 23.6047 79.5147 23.66 79.5147 23.7163C79.5147 23.7726 79.4997 23.8279 79.4712 23.8765C79.4428 23.9251 79.4019 23.9653 79.3527 23.9928L76.4128 25.6618C76.3638 25.6901 76.3084 25.705 76.2519 25.7052C76.1954 25.7054 76.1398 25.6909 76.0907 25.663C76.0416 25.6351 76.0006 25.5948 75.9719 25.5462C75.9431 25.4976 75.9275 25.4423 75.9268 25.3858V25.1238C75.9232 24.8632 75.8516 24.608 75.7189 24.3836C75.5863 24.1593 75.3972 23.9735 75.1706 23.8448C74.9439 23.7161 74.6875 23.649 74.4269 23.65C74.1662 23.6511 73.9104 23.7203 73.6847 23.8508L70.2928 25.7708C70.0658 25.8965 69.8769 26.081 69.7458 26.3048C69.6143 26.5293 69.545 26.7847 69.545 27.0448C69.545 27.3049 69.6143 27.5604 69.7458 27.7848C69.8769 28.0087 70.0658 28.1931 70.2928 28.3188L73.6867 30.2458C73.9128 30.3748 74.1686 30.4427 74.4289 30.4429C74.6891 30.4431 74.945 30.3756 75.1713 30.2469C75.3976 30.1183 75.5865 29.933 75.7194 29.7093C75.8524 29.4855 75.9249 29.231 75.9297 28.9708V28.7708C75.9293 28.6827 75.9056 28.5962 75.861 28.5201C75.8164 28.4441 75.7525 28.3812 75.6758 28.3378L75.0358 27.9728C74.9932 27.9482 74.9449 27.9352 74.8958 27.935C74.8466 27.9348 74.7983 27.9475 74.7556 27.9717C74.7128 27.996 74.6771 28.031 74.6521 28.0733C74.627 28.1156 74.6135 28.1637 74.6128 28.2128V28.7048C74.6123 28.7614 74.5969 28.8169 74.5682 28.8657C74.5395 28.9145 74.4985 28.9549 74.4493 28.9828C74.4 29.0108 74.3443 29.0253 74.2877 29.025C74.2311 29.0246 74.1756 29.0094 74.1268 28.9808L71.1867 27.3118C71.1374 27.2845 71.0962 27.2444 71.0675 27.1958C71.0389 27.1472 71.0237 27.0918 71.0237 27.0353C71.0237 26.9789 71.0389 26.9234 71.0675 26.8748C71.0962 26.8262 71.1374 26.7861 71.1867 26.7588L74.1268 25.0888C74.1757 25.0605 74.2313 25.0456 74.2879 25.0454C74.3444 25.0452 74.4001 25.0599 74.4492 25.0879C74.4984 25.1159 74.5393 25.1563 74.568 25.2051C74.5967 25.2538 74.6121 25.3092 74.6128 25.3658V25.6278C74.6164 25.8883 74.688 26.1433 74.8206 26.3675C74.9532 26.5918 75.1422 26.7774 75.3687 26.9061C75.5952 27.0348 75.8514 27.102 76.1119 27.101C76.3724 27.1001 76.6282 27.0311 76.8537 26.9008L80.2478 24.9738C80.4741 24.8472 80.6625 24.6626 80.7937 24.4389C80.9249 24.2152 80.9941 23.9606 80.9941 23.7013C80.9941 23.442 80.9249 23.1874 80.7937 22.9637C80.6625 22.74 80.4741 22.5554 80.2478 22.4288L80.2447 22.4368Z" fill="black"/>
<path d="M31.2141 59.4346H76.7841C78.9717 59.4436 81.0661 60.3212 82.6067 61.8743C84.1473 63.4275 85.0079 65.529 84.9991 67.7166C85.0079 69.9042 84.1473 72.0057 82.6067 73.5588C81.0661 75.112 78.9717 75.9896 76.7841 75.9986H31.2141C29.0265 75.9896 26.932 75.112 25.3915 73.5588C23.8509 72.0057 22.9903 69.9042 22.9991 67.7166C22.9903 65.529 23.8509 63.4275 25.3915 61.8743C26.932 60.3212 29.0265 59.4436 31.2141 59.4346Z" fill="black"/>
<path d="M44.5905 63.1621C44.4171 63.3826 44.1952 63.5601 43.9419 63.6807C43.6886 63.8012 43.4109 63.8616 43.1305 63.8571C43.1121 63.581 43.1488 63.304 43.2384 63.0422C43.328 62.7804 43.4687 62.539 43.6525 62.3321C44.0187 61.9021 44.5381 61.6316 45.1005 61.5781C45.1407 62.1521 44.958 62.7195 44.5905 63.1621ZM45.0905 63.9681C44.2855 63.9221 43.5965 64.4291 43.2135 64.4291C42.8305 64.4291 42.2395 63.9911 41.6025 64.0021C41.1865 64.0136 40.7808 64.134 40.4259 64.3515C40.0711 64.5689 39.7795 64.8757 39.5805 65.2411C38.7115 66.7481 39.3555 68.9791 40.1955 70.2061C40.6055 70.8131 41.0955 71.4791 41.7475 71.4561C42.3625 71.4331 42.6055 71.0561 43.3475 71.0561C44.0895 71.0561 44.3085 71.4561 44.9585 71.4481C45.6295 71.4361 46.0525 70.8401 46.4645 70.2331C46.7552 69.8015 46.9815 69.3299 47.1365 68.8331C46.7487 68.6614 46.4189 68.3812 46.1867 68.0264C45.9544 67.6716 45.8297 67.2572 45.8275 66.8331C45.8319 66.4557 45.9314 66.0854 46.1166 65.7565C46.3019 65.4276 46.567 65.1506 46.8875 64.9511C46.6842 64.6591 46.4157 64.4183 46.1033 64.2481C45.7909 64.0778 45.4431 63.9826 45.0875 63.9701M49.7465 62.2711V71.3771H51.1465V68.2711H53.0895C53.4896 68.2911 53.8894 68.2274 54.2634 68.084C54.6375 67.9405 54.9774 67.7205 55.2615 67.4381C55.5456 67.1557 55.7676 66.8171 55.9133 66.4439C56.059 66.0708 56.1251 65.6713 56.1075 65.2711C56.1283 64.8745 56.0658 64.478 55.9241 64.107C55.7823 63.736 55.5644 63.3988 55.2845 63.1171C55.0045 62.8355 54.6686 62.6156 54.2985 62.4716C53.9284 62.3276 53.5322 62.2627 53.1355 62.2811L49.7465 62.2711ZM51.1465 63.4621H52.7625C53.0093 63.4471 53.2566 63.4828 53.4891 63.567C53.7217 63.6512 53.9345 63.7821 54.1145 63.9517C54.2944 64.1213 54.4378 64.326 54.5356 64.5531C54.6335 64.7802 54.6838 65.025 54.6835 65.2723C54.6831 65.5196 54.6321 65.7642 54.5337 65.991C54.4352 66.2179 54.2913 66.4221 54.1108 66.5912C53.9304 66.7603 53.7172 66.8907 53.4844 66.9743C53.2517 67.0578 53.0043 67.0928 52.7575 67.0771H51.1485L51.1465 63.4621ZM58.6655 71.4461C59.083 71.4568 59.4956 71.3543 59.8597 71.1495C60.2238 70.9448 60.5257 70.6454 60.7335 70.2831H60.7625V71.3761H62.0625V66.8471C62.0625 65.5321 61.0195 64.6861 59.4145 64.6861C57.9255 64.6861 56.8245 65.5461 56.7835 66.7251H58.0465C58.1182 66.4362 58.2921 66.1829 58.536 66.0121C58.7799 65.8414 59.0774 65.7647 59.3735 65.7961C60.2315 65.7961 60.7115 66.1961 60.7115 66.9421V67.4421L58.9615 67.5481C57.3345 67.6481 56.4535 68.3191 56.4535 69.4861C56.4558 69.7652 56.5167 70.0406 56.6322 70.2947C56.7478 70.5487 56.9154 70.7756 57.1242 70.9608C57.333 71.1459 57.5783 71.2851 57.8443 71.3694C58.1104 71.4537 58.3911 71.4812 58.6685 71.4501L58.6655 71.4461ZM59.0425 70.3661C58.2945 70.3661 57.8195 70.0041 57.8195 69.4481C57.8195 68.8761 58.2775 68.5481 59.1525 68.4901L60.7105 68.3901V68.9041C60.7029 69.1116 60.6531 69.3154 60.5642 69.503C60.4753 69.6907 60.3491 69.8582 60.1933 69.9955C60.0375 70.1328 59.8554 70.2369 59.658 70.3014C59.4607 70.366 59.2523 70.3897 59.0455 70.3711L59.0425 70.3661ZM63.7925 73.8521C65.1595 73.8521 65.8025 73.3261 66.3645 71.7321L68.8305 64.7711H67.4045L65.7525 70.1511H65.7245L64.0735 64.7711H62.6085L64.9835 71.4011L64.8555 71.8011C64.8132 72.0784 64.6682 72.3297 64.4492 72.5049C64.2302 72.6802 63.9533 72.7666 63.6735 72.7471C63.5635 72.7471 63.3505 72.7351 63.2635 72.7241V73.8211C63.4401 73.8451 63.6182 73.8568 63.7965 73.8561L63.7925 73.8521Z" fill="white"/>
<path d="M31.2141 38.2061H76.7841C78.9717 38.2151 81.0661 39.0926 82.6067 40.6458C84.1473 42.1989 85.0079 44.3005 84.9991 46.4881C85.0081 48.6757 84.1478 50.7773 82.6074 52.3306C81.067 53.8839 78.9727 54.7618 76.7851 54.7711H31.2141C29.0265 54.7621 26.932 53.8845 25.3915 52.3313C23.8509 50.7782 22.9903 48.6767 22.9991 46.4891C22.9946 45.4058 23.2036 44.3322 23.614 43.3297C24.0244 42.3272 24.6283 41.4153 25.3911 40.6462C26.1539 39.877 27.0608 39.2656 28.0599 38.847C29.059 38.4283 30.1308 38.2105 31.2141 38.2061Z" fill="#FFD15F"/>
<path d="M45.535 43.1416C45.4933 43.1415 45.4529 43.1564 45.4212 43.1836C45.3894 43.2107 45.3685 43.2483 45.362 43.2896L44.367 49.6446C44.3607 49.6873 44.3714 49.7309 44.3968 49.7659C44.4222 49.8008 44.4604 49.8244 44.503 49.8316H45.703C45.7451 49.8321 45.786 49.8176 45.8183 49.7907C45.8505 49.7637 45.8721 49.7261 45.879 49.6846L46.17 47.8186C46.1767 47.7774 46.1977 47.7399 46.2294 47.7128C46.2611 47.6857 46.3013 47.6707 46.343 47.6706H47.414C48.0223 47.668 48.6096 47.448 49.0697 47.0502C49.5299 46.6524 49.8326 46.1031 49.923 45.5016C49.9658 45.1986 49.941 44.89 49.8504 44.5977C49.7598 44.3055 49.6056 44.037 49.3989 43.8114C49.1923 43.5858 48.9382 43.4087 48.655 43.2929C48.3719 43.1771 48.0666 43.1254 47.761 43.1416H45.535ZM46.679 44.5606H47.537C48.243 44.5606 48.473 44.9806 48.4 45.4446C48.3563 45.6975 48.2157 45.9234 48.008 46.0743C47.8004 46.2251 47.5421 46.2891 47.288 46.2526H46.415L46.679 44.5606ZM52.32 44.9926C51.7514 45.0021 51.2007 45.1936 50.7488 45.5389C50.2969 45.8843 49.9675 46.3653 49.809 46.9116C49.6508 47.3732 49.635 47.8717 49.7636 48.3424C49.8921 48.8132 50.1592 49.2344 50.53 49.5516C50.9077 49.8094 51.3566 49.9428 51.8138 49.9329C52.2711 49.923 52.7138 49.7705 53.08 49.4966L53.057 49.6466C53.0501 49.6891 53.0603 49.7327 53.0854 49.7677C53.1105 49.8028 53.1485 49.8264 53.191 49.8336H54.335C54.3765 49.8333 54.4165 49.8183 54.4479 49.7911C54.4792 49.764 54.4998 49.7266 54.506 49.6856L55.187 45.3336C55.1905 45.3125 55.1897 45.2911 55.1848 45.2703C55.1799 45.2496 55.171 45.2301 55.1586 45.2128C55.1461 45.1955 55.1304 45.1809 55.1123 45.1697C55.0942 45.1585 55.074 45.151 55.053 45.1476H55.027H53.912C53.8703 45.1477 53.8301 45.1627 53.7984 45.1898C53.7667 45.2169 53.7457 45.2544 53.739 45.2956L53.703 45.5306C53.3312 45.1766 52.8343 44.9842 52.321 44.9956L52.32 44.9926ZM52.356 46.3676C52.4753 46.3666 52.5941 46.3841 52.708 46.4196C52.9388 46.4937 53.1348 46.6492 53.2595 46.8571C53.3842 47.0649 53.4292 47.311 53.386 47.5496C53.3444 47.8523 53.1938 48.1295 52.9623 48.329C52.7309 48.5286 52.4346 48.6369 52.129 48.6336C52.0097 48.635 51.8909 48.6175 51.777 48.5816C51.5461 48.5076 51.3499 48.3522 51.225 48.1443C51.1 47.9364 51.0549 47.6902 51.098 47.4516C51.141 47.1491 51.2925 46.8726 51.5244 46.6737C51.7562 46.4748 52.0526 46.367 52.358 46.3706L52.356 46.3676Z" fill="#003087"/>
<path d="M61.6497 43.1424C61.608 43.1426 61.5677 43.1575 61.536 43.1846C61.5043 43.2117 61.4833 43.2492 61.4767 43.2904L60.4797 49.6454C60.4727 49.6879 60.4829 49.7315 60.508 49.7666C60.5332 49.8016 60.5711 49.8253 60.6137 49.8324H61.8137C61.8551 49.8321 61.8951 49.8171 61.9265 49.7899C61.9578 49.7628 61.9785 49.7254 61.9847 49.6844L62.2777 47.8184C62.2839 47.7774 62.3045 47.7399 62.3358 47.7128C62.3672 47.6857 62.4072 47.6706 62.4487 47.6704H63.5297C64.1378 47.6678 64.725 47.4477 65.185 47.0499C65.6449 46.6521 65.9474 46.1028 66.0377 45.5014C66.0804 45.1988 66.0557 44.8906 65.9653 44.5987C65.8749 44.3068 65.7211 44.0386 65.5148 43.8131C65.3086 43.5877 65.055 43.4106 64.7724 43.2947C64.4897 43.1787 64.1848 43.1267 63.8797 43.1424H61.6497ZM62.7947 44.5614H63.6527C64.3587 44.5614 64.5887 44.9814 64.5157 45.4454C64.4719 45.6983 64.3313 45.9242 64.1237 46.0751C63.916 46.226 63.6577 46.2899 63.4037 46.2534H62.5307L62.7947 44.5614ZM68.4357 44.9934C67.8673 45.003 67.3169 45.1946 66.8653 45.5399C66.4138 45.8853 66.0848 46.3663 65.9267 46.9124C65.7685 47.374 65.7526 47.8725 65.8812 48.3433C66.0098 48.814 66.2768 49.2352 66.6477 49.5524C67.0252 49.8103 67.4739 49.9437 67.931 49.9338C68.3881 49.924 68.8306 49.7714 69.1967 49.4974L69.1737 49.6474C69.1667 49.6899 69.1769 49.7335 69.202 49.7686C69.2272 49.8036 69.2651 49.8273 69.3077 49.8344H70.4517C70.4934 49.8342 70.5336 49.8192 70.5653 49.7921C70.597 49.765 70.618 49.7275 70.6247 49.6864L71.3047 45.3344C71.3081 45.3134 71.3073 45.2919 71.3025 45.2712C71.2976 45.2504 71.2887 45.2309 71.2762 45.2136C71.2638 45.1963 71.248 45.1817 71.2299 45.1705C71.2118 45.1593 71.1917 45.1518 71.1707 45.1484H71.1467H70.0267C69.9852 45.1486 69.9452 45.1637 69.9138 45.1908C69.8825 45.2179 69.8619 45.2554 69.8557 45.2964L69.8187 45.5314C69.447 45.1771 68.95 44.9847 68.4367 44.9964L68.4357 44.9934ZM68.4727 46.3684C68.592 46.3676 68.7107 46.3851 68.8247 46.4204C69.0551 46.4949 69.2506 46.6506 69.3749 46.8584C69.4992 47.0662 69.5439 47.3121 69.5007 47.5504C69.4591 47.8528 69.3087 48.1297 69.0777 48.3292C68.8467 48.5287 68.5509 48.6372 68.2457 48.6344C68.1263 48.636 68.0075 48.6185 67.8937 48.5824C67.6625 48.5086 67.4661 48.3533 67.341 48.1454C67.2159 47.9375 67.1706 47.6912 67.2137 47.4524C67.2568 47.15 67.4084 46.8737 67.6402 46.6748C67.8721 46.4759 68.1683 46.3681 68.4737 46.3714L68.4727 46.3684Z" fill="#0070E0"/>
<path d="M55.7214 45.1446C55.7006 45.1448 55.6802 45.1499 55.6619 45.1595C55.6435 45.1691 55.6276 45.1828 55.6155 45.1997C55.6035 45.2165 55.5955 45.236 55.5924 45.2565C55.5892 45.2769 55.5909 45.2979 55.5974 45.3176L56.8234 49.1556L55.7134 50.9636C55.7014 50.9835 55.6949 51.0061 55.6945 51.0293C55.6941 51.0525 55.6998 51.0754 55.7111 51.0956C55.7223 51.1159 55.7387 51.1329 55.7586 51.1448C55.7785 51.1567 55.8012 51.1632 55.8244 51.1636H57.1364C57.174 51.1637 57.2111 51.1539 57.2439 51.1354C57.2767 51.1168 57.3041 51.09 57.3234 51.0576L60.7494 45.3426C60.7613 45.3226 60.7678 45.2999 60.7682 45.2766C60.7686 45.2533 60.7628 45.2304 60.7514 45.2101C60.74 45.1898 60.7235 45.1728 60.7035 45.161C60.6834 45.1491 60.6606 45.1428 60.6374 45.1426H59.3274C59.2893 45.1427 59.252 45.1527 59.2191 45.1717C59.1861 45.1906 59.1586 45.2178 59.1394 45.2506L57.7904 47.5506L57.1064 45.2706C57.0953 45.2347 57.0732 45.2033 57.0432 45.1809C57.0132 45.1584 56.9768 45.146 56.9394 45.1456L55.7214 45.1446Z" fill="#003087"/>
<path d="M72.5791 43.1416C72.5375 43.1418 72.4972 43.1568 72.4655 43.1839C72.4338 43.211 72.4128 43.2484 72.4061 43.2896L71.4111 49.6446C71.4045 49.687 71.4148 49.7303 71.4399 49.7651C71.465 49.8 71.5028 49.8235 71.5451 49.8306C71.5538 49.8318 71.5625 49.8318 71.5711 49.8306H72.7501C72.7918 49.8304 72.8321 49.8154 72.8638 49.7883C72.8955 49.7612 72.9165 49.7238 72.9231 49.6826L73.9181 43.3276C73.9245 43.2849 73.9138 43.2415 73.8883 43.2067C73.8629 43.1719 73.8247 43.1485 73.7821 43.1416H73.7581H72.5791Z" fill="#0070E0"/>
<path d="M37.5997 43.1417C37.5233 43.142 37.4495 43.1696 37.3916 43.2194C37.3336 43.2693 37.2954 43.3382 37.2837 43.4137L36.7607 46.7597C36.772 46.6843 36.8098 46.6155 36.8674 46.5656C36.925 46.5157 36.9985 46.4881 37.0747 46.4877H38.6097C39.3593 46.4848 40.083 46.2136 40.65 45.7233C41.2169 45.233 41.5897 44.556 41.7007 43.8147C41.7187 43.6999 41.7291 43.5839 41.7317 43.4677C41.3125 43.2497 40.8463 43.1377 40.3737 43.1417H37.5997Z" fill="#001C64"/>
<path d="M41.7304 43.4707C41.7277 43.5869 41.7174 43.7029 41.6994 43.8177C41.5883 44.559 41.2156 45.236 40.6486 45.7263C40.0817 46.2166 39.3579 46.4878 38.6084 46.4907H37.0794C37.0032 46.4911 36.9296 46.5187 36.872 46.5686C36.8144 46.6185 36.7766 46.6873 36.7654 46.7627L36.2794 49.8337L35.9794 51.7627C35.9735 51.7965 35.9745 51.8312 35.9821 51.8647C35.9898 51.8982 36.0041 51.9298 36.0241 51.9577C36.0441 51.9856 36.0694 52.0093 36.0987 52.0273C36.1279 52.0453 36.1604 52.0574 36.1944 52.0627C36.208 52.064 36.2217 52.064 36.2354 52.0627H37.8994C37.9755 52.0619 38.0488 52.0342 38.1063 51.9843C38.1638 51.9345 38.2018 51.8659 38.2134 51.7907L38.6514 48.9907C38.6628 48.9155 38.7007 48.8469 38.7583 48.7972C38.8159 48.7475 38.8893 48.72 38.9654 48.7197H39.9464C40.6959 48.7165 41.4195 48.4453 41.9864 47.9551C42.5533 47.4648 42.9261 46.7879 43.0374 46.0467C43.1196 45.5343 43.0374 45.009 42.8026 44.5462C42.5678 44.0835 42.1924 43.7069 41.7304 43.4707Z" fill="#0070E0"/>
<path d="M35.7083 40.9115C35.6319 40.9116 35.5581 40.9389 35.5002 40.9886C35.4422 41.0383 35.4039 41.1071 35.3923 41.1825L34.0873 49.5315C34.0813 49.5685 34.0835 49.6064 34.0936 49.6425C34.1038 49.6786 34.1216 49.7121 34.146 49.7406C34.1703 49.7691 34.2006 49.792 34.2346 49.8077C34.2687 49.8234 34.3057 49.8315 34.3433 49.8315H36.2792L36.7603 46.7575L37.2832 43.4115C37.2949 43.336 37.3332 43.2671 37.3911 43.2172C37.449 43.1673 37.5228 43.1398 37.5992 43.1395H40.3732C40.8458 43.1355 41.312 43.2474 41.7312 43.4655C41.7303 43.1182 41.6589 42.7748 41.5214 42.4559C41.3839 42.137 41.183 41.8494 40.931 41.6104C40.6791 41.3715 40.3812 41.1861 40.0555 41.0656C39.7298 40.9452 39.3831 40.892 39.0362 40.9095L35.7083 40.9115Z" fill="#003087"/>
<defs>
<linearGradient id="paint0_linear_456_6539" x1="53.7405" y1="0" x2="53.7405" y2="107.48" gradientUnits="userSpaceOnUse">
<stop stop-color="#E7E7EF" stop-opacity="0.996"/>
<stop offset="1" stop-color="#FDFBFB"/>
</linearGradient>
</defs>
</svg>
