<svg width="108" height="108" viewBox="0 0 108 108" fill="none" xmlns="http://www.w3.org/2000/svg">
<path d="M0 0H107.481V53.7402C107.481 67.9931 101.819 81.6619 91.7408 91.7402C81.6625 101.819 67.9933 107.48 53.7405 107.48C39.4876 107.48 25.8185 101.819 15.7402 91.7402C5.66194 81.6619 0 67.9931 0 53.7402V0Z" fill="white"/>
<path d="M0 0H107.481V53.7402C107.481 67.9931 101.819 81.6619 91.7408 91.7402C81.6625 101.819 67.9933 107.48 53.7405 107.48C39.4876 107.48 25.8185 101.819 15.7402 91.7402C5.66194 81.6619 0 67.9931 0 53.7402V0Z" fill="url(#paint0_linear_456_6568)"/>
<mask id="mask0_456_6568" style="mask-type:luminance" maskUnits="userSpaceOnUse" x="30" y="29" width="48" height="42">
<path d="M78 29H30V71H78V29Z" fill="white"/>
</mask>
<g mask="url(#mask0_456_6568)">
<path d="M60.0194 53.0383H45.4664L47.7964 50.6763L46.2544 49.1123L42.0544 53.3743C41.8487 53.5829 41.734 53.8644 41.7354 54.1573C41.7354 54.4499 41.8499 54.7309 42.0544 54.9403L46.2544 59.2023L47.8004 57.6383L45.4484 55.2543H60.0484C61.0885 55.257 62.085 55.6723 62.8191 56.4092C63.5531 57.1461 63.9647 58.1442 63.9634 59.1843C63.9519 60.1906 63.5462 61.1523 62.8334 61.8628C62.1207 62.5733 61.1577 62.976 60.1514 62.9843H51.9114C51.3293 62.9893 50.7729 63.2248 50.3641 63.6393C49.9553 64.0537 49.7274 64.6132 49.7304 65.1953H60.1504C60.9582 65.1889 61.7564 65.0206 62.4981 64.7003C63.2397 64.38 63.9096 63.9143 64.4681 63.3307C65.0266 62.7471 65.4625 62.0574 65.7499 61.3025C66.0373 60.5475 66.1704 59.7426 66.1414 58.9353C66.0836 57.3514 65.4133 55.8518 64.2717 54.7523C63.1301 53.6529 61.6063 53.0395 60.0214 53.0413L60.0194 53.0383Z" fill="#E0004D"/>
<path d="M66.707 29H41.293L30 42.994V71H78V42.994L66.707 29ZM42.327 31.212H52.848V43.26H32.605L42.327 31.212ZM75.818 68.788H32.182V45.47H73.636C73.6392 44.8876 73.4113 44.3276 73.0023 43.9129C72.5932 43.4983 72.0364 43.2628 71.454 43.258H55.032V31.212H65.672L75.818 43.784V68.788Z" fill="#E0004D"/>
</g>
<defs>
<linearGradient id="paint0_linear_456_6568" x1="53.7405" y1="0" x2="53.7405" y2="107.48" gradientUnits="userSpaceOnUse">
<stop stop-color="#E7E7EF" stop-opacity="0.996"/>
<stop offset="1" stop-color="#FDFBFB"/>
</linearGradient>
</defs>
</svg>
