<svg width="108" height="108" viewBox="0 0 108 108" fill="none" xmlns="http://www.w3.org/2000/svg">
<path d="M0 0H107.481V53.7402C107.481 67.9931 101.819 81.6619 91.7407 91.7402C81.6624 101.819 67.9933 107.48 53.7405 107.48C39.4876 107.48 25.8185 101.819 15.7402 91.7402C5.66194 81.6619 0 67.9931 0 53.7402V0Z" fill="white"/>
<path d="M0 0H107.481V53.7402C107.481 67.9931 101.819 81.6619 91.7407 91.7402C81.6624 101.819 67.9933 107.48 53.7405 107.48C39.4876 107.48 25.8185 101.819 15.7402 91.7402C5.66194 81.6619 0 67.9931 0 53.7402V0Z" fill="url(#paint0_linear_456_6584)"/>
<mask id="mask0_456_6584" style="mask-type:luminance" maskUnits="userSpaceOnUse" x="31" y="26" width="45" height="51">
<path d="M76 26H31V77H76V26Z" fill="white"/>
</mask>
<g mask="url(#mask0_456_6584)">
<path d="M53.5 77L53.115 76.871C46.6757 74.7293 41.074 70.6146 37.1046 65.1105C33.1351 59.6063 30.9993 52.9922 31 46.206V32.566L53.511 26L72.776 31.8C72.5948 32.419 72.1752 32.9407 71.6094 33.2503C71.0436 33.5599 70.378 33.6321 69.759 33.451L53.509 28.534L33.434 34.39V46.208C33.4286 52.4149 35.3585 58.4691 38.955 63.5278C42.5516 68.5865 47.6358 72.3981 53.5 74.432C59.3635 72.3991 64.4473 68.5888 68.0439 63.5313C71.6404 58.4738 73.5707 52.4209 73.566 46.215V35.593C73.5668 34.948 73.8236 34.3297 74.28 33.8738C74.7363 33.418 75.355 33.162 76 33.162V46.215C76.0054 53.0008 73.8716 59.6156 69.902 65.1191C65.9323 70.6227 60.3288 74.7348 53.888 76.871L53.5 77Z" fill="#E0004D"/>
<path d="M57.842 65.6871H49.509V53.8931C47.8666 53.1898 46.4795 51.9996 45.5349 50.4831C44.5903 48.9666 44.1337 47.1968 44.2267 45.4126C44.3197 43.6284 44.9578 41.9156 46.0549 40.5055C47.1521 39.0954 48.6554 38.0559 50.362 37.5271L51.942 37.0361V44.2051H55.41V37.0411L56.984 37.5241C58.4217 37.9673 59.7204 38.7746 60.7541 39.8676C61.7877 40.9607 62.5213 42.3024 62.8836 43.7626C63.2458 45.2227 63.2244 46.7518 62.8215 48.2012C62.4186 49.6507 61.6478 50.9714 60.584 52.0351C59.7991 52.8236 58.869 53.4525 57.845 53.8871V65.6871H57.842ZM51.942 63.2561H55.41V52.1561L56.264 51.8911C57.2434 51.5902 58.1339 51.0531 58.857 50.3271C59.5198 49.6641 60.0262 48.8614 60.3394 47.9777C60.6526 47.094 60.7646 46.1516 60.6672 45.2191C60.5699 44.2866 60.2657 43.3876 59.7767 42.5877C59.2878 41.7877 58.6264 41.107 57.841 40.5951V46.6451H49.506V40.5951C48.5024 41.2479 47.7057 42.1732 47.209 43.2625C46.7124 44.3518 46.5364 45.56 46.7016 46.7458C46.8669 47.9315 47.3666 49.0456 48.1422 49.9575C48.9178 50.8695 49.9372 51.5416 51.081 51.8951L51.94 52.1601V63.2611L51.942 63.2561Z" fill="#E0004D"/>
</g>
<defs>
<linearGradient id="paint0_linear_456_6584" x1="53.7405" y1="0" x2="53.7405" y2="107.48" gradientUnits="userSpaceOnUse">
<stop stop-color="#E7E7EF" stop-opacity="0.996"/>
<stop offset="1" stop-color="#FDFBFB"/>
</linearGradient>
</defs>
</svg>
