<svg width="108" height="108" viewBox="0 0 108 108" fill="none" xmlns="http://www.w3.org/2000/svg">
<path d="M0 0H107.481V53.7402C107.481 67.9931 101.819 81.6619 91.7407 91.7402C81.6624 101.819 67.9933 107.48 53.7405 107.48C39.4876 107.48 25.8185 101.819 15.7402 91.7402C5.66194 81.6619 0 67.9931 0 53.7402V0Z" fill="white"/>
<path d="M0 0H107.481V53.7402C107.481 67.9931 101.819 81.6619 91.7407 91.7402C81.6624 101.819 67.9933 107.48 53.7405 107.48C39.4876 107.48 25.8185 101.819 15.7402 91.7402C5.66194 81.6619 0 67.9931 0 53.7402V0Z" fill="url(#paint0_linear_456_6598)"/>
<mask id="mask0_456_6598" style="mask-type:luminance" maskUnits="userSpaceOnUse" x="31" y="29" width="46" height="43">
<path d="M77 29H31V72H77V29Z" fill="white"/>
</mask>
<g mask="url(#mask0_456_6598)">
<path d="M31 29V58.882H40.2V56.582H33.3V31.3H74.7V47.773C74.6996 48.9303 74.4713 50.0763 74.028 51.1454C73.5847 52.2145 72.9353 53.1858 72.1166 54.0039C71.298 54.8219 70.3262 55.4708 69.2568 55.9133C68.1874 56.3558 67.0413 56.5834 65.884 56.583H54.674L44.8 66.451V58.882C44.8 58.272 44.5577 57.687 44.1263 57.2557C43.695 56.8243 43.11 56.582 42.5 56.582V72L55.626 58.882H65.882C67.3416 58.8824 68.7871 58.5953 70.1358 58.0371C71.4844 57.4789 72.71 56.6605 73.7424 55.6286C74.7748 54.5968 75.5938 53.3717 76.1528 52.0233C76.7117 50.6749 76.9996 49.2296 77 47.77V29H31Z" fill="#E0004D"/>
</g>
<defs>
<linearGradient id="paint0_linear_456_6598" x1="53.7405" y1="0" x2="53.7405" y2="107.48" gradientUnits="userSpaceOnUse">
<stop stop-color="#E7E7EF" stop-opacity="0.996"/>
<stop offset="1" stop-color="#FDFBFB"/>
</linearGradient>
</defs>
</svg>
