<svg width="108" height="108" viewBox="0 0 108 108" fill="none" xmlns="http://www.w3.org/2000/svg">
<path d="M0 0H107.481V53.7402C107.481 67.9931 101.819 81.6619 91.7408 91.7402C81.6625 101.819 67.9934 107.48 53.7405 107.48C39.4876 107.48 25.8185 101.819 15.7402 91.7402C5.66194 81.6619 0 67.9931 0 53.7402V0Z" fill="white"/>
<path d="M0 0H107.481V53.7402C107.481 67.9931 101.819 81.6619 91.7408 91.7402C81.6625 101.819 67.9934 107.48 53.7405 107.48C39.4876 107.48 25.8185 101.819 15.7402 91.7402C5.66194 81.6619 0 67.9931 0 53.7402V0Z" fill="url(#paint0_linear_456_6529)"/>
<path d="M82.0001 56.802C82.0061 55.6178 81.6004 54.4683 80.8525 53.55C80.1047 52.6318 79.061 52.0019 77.9001 51.768L74.0291 40.628C73.8264 40.0456 73.4485 39.54 72.9472 39.1807C72.4459 38.8214 71.8458 38.6259 71.2291 38.621H64.8741V36.605C64.8789 35.7422 64.7136 34.887 64.3878 34.088C64.062 33.2891 63.582 32.5622 62.9753 31.9488C62.3686 31.3353 61.6469 30.8474 60.8516 30.5129C60.0563 30.1783 59.2029 30.0037 58.3401 29.999H26.2291C25.9345 29.9998 25.643 30.0587 25.3713 30.1724C25.0995 30.2861 24.8529 30.4524 24.6455 30.6616C24.4382 30.8708 24.2741 31.1189 24.1629 31.3917C24.0516 31.6644 23.9953 31.9565 23.9971 32.251H59.0071C60.7151 32.251 62.6401 34.197 62.6401 36.6V53.982H32.9851V43.435H37.4491V41.178H30.2911C29.0601 41.178 27.3911 42.188 27.3911 43.434H30.7531V66.291H37.6961C37.9413 67.6135 38.6418 68.8084 39.6759 69.6684C40.71 70.5284 42.0126 70.9993 43.3576 70.9993C44.7026 70.9993 46.0052 70.5284 47.0393 69.6684C48.0735 68.8084 48.7739 67.6135 49.0191 66.291H66.6611C66.9063 67.6137 67.6069 68.8089 68.6412 69.6691C69.6755 70.5292 70.9784 71.0002 72.3236 71.0002C73.6689 71.0002 74.9717 70.5292 76.006 69.6691C77.0403 68.8089 77.7409 67.6137 77.9861 66.291H82.0001V56.802ZM75.5001 51.676H69.6291V45.435H73.3291L75.5001 51.676ZM43.3581 68.744C42.6489 68.7516 41.9535 68.5482 41.3601 68.1597C40.7668 67.7711 40.3023 67.2151 40.0256 66.562C39.7489 65.909 39.6726 65.1885 39.8062 64.4919C39.9399 63.7954 40.2775 63.1543 40.7763 62.6501C41.275 62.1459 41.9124 61.8012 42.6074 61.6599C43.3024 61.5187 44.0237 61.5871 44.6797 61.8566C45.3358 62.1261 45.8969 62.5845 46.2919 63.1736C46.6869 63.7626 46.8979 64.4558 46.8981 65.165C46.9026 66.1089 46.5324 67.0159 45.8686 67.687C45.2049 68.358 44.3019 68.7382 43.3581 68.744ZM43.3581 59.331C42.0165 59.3388 40.7192 59.8115 39.6869 60.6685C38.6547 61.5255 37.9515 62.7138 37.6971 64.031H32.9851V56.24H62.6431V64.035H49.0181C48.7651 62.7163 48.0624 61.5262 47.0298 60.6679C45.9973 59.8095 44.6989 59.3359 43.3561 59.328L43.3581 59.331ZM72.3241 68.744C71.6149 68.7518 70.9194 68.5485 70.3259 68.1601C69.7324 67.7718 69.2677 67.2158 68.9909 66.5627C68.7141 65.9097 68.6376 65.1892 68.7711 64.4926C68.9046 63.796 69.2422 63.1548 69.7409 62.6505C70.2396 62.1461 70.877 61.8014 71.572 61.66C72.267 61.5187 72.9884 61.5871 73.6445 61.8565C74.3006 62.126 74.8618 62.5844 75.2568 63.1735C75.6518 63.7626 75.8629 64.4558 75.8631 65.165C75.8674 66.1086 75.4972 67.0154 74.8337 67.6863C74.1702 68.3573 73.2677 68.7377 72.3241 68.744ZM79.7711 64.035H77.9861C77.7398 62.7132 77.0388 61.5192 76.0046 60.66C74.9704 59.8007 73.6682 59.3303 72.3236 59.3303C70.979 59.3303 69.6768 59.8007 68.6427 60.66C67.6085 61.5192 66.9075 62.7132 66.6611 64.035H64.8741V40.871H71.2211C71.3761 40.8714 71.527 40.9205 71.6526 41.0113C71.7782 41.1021 71.8721 41.23 71.9211 41.377L72.5461 43.177H67.3941V53.928H77.0531C77.7874 53.9663 78.4787 54.2855 78.984 54.8197C79.4892 55.3538 79.7697 56.0618 79.7671 56.797V64.028L79.7711 64.035Z" fill="#E0004D"/>
<path d="M35.6407 35.4746H28.0407C27.7459 35.4758 27.4543 35.535 27.1824 35.649C26.9105 35.7629 26.6638 35.9293 26.4562 36.1386C26.2487 36.3479 26.0844 36.5961 25.9728 36.8689C25.8611 37.1417 25.8044 37.4338 25.8057 37.7286H35.6407V35.4746Z" fill="#E0004D"/>
<defs>
<linearGradient id="paint0_linear_456_6529" x1="53.7405" y1="0" x2="53.7405" y2="107.48" gradientUnits="userSpaceOnUse">
<stop stop-color="#E7E7EF" stop-opacity="0.996"/>
<stop offset="1" stop-color="#FDFBFB"/>
</linearGradient>
</defs>
</svg>
