<svg width="228" height="36" viewBox="0 0 228 36" fill="none" xmlns="http://www.w3.org/2000/svg">
<path fill-rule="evenodd" clip-rule="evenodd" d="M16.1839 4.8162C16.8565 3.19929 19.147 3.19928 19.8195 4.8162L22.9425 12.3248L31.0486 12.9746C32.7943 13.1146 33.502 15.293 32.1721 16.4322L25.9962 21.7227L27.883 29.6328C28.2892 31.3364 26.4363 32.6826 24.9417 31.7699L18.0018 27.5309L11.0618 31.7699C9.56727 32.6826 7.71419 31.3364 8.12051 29.6328L10.0074 21.7227L3.83138 16.4322C2.50142 15.293 3.20922 13.1146 4.95482 12.9746L13.061 12.3248L16.1839 4.8162Z" fill="#E0004D"/>
<path fill-rule="evenodd" clip-rule="evenodd" d="M64.1839 4.8162C64.8565 3.19929 67.147 3.19928 67.8195 4.8162L70.9425 12.3248L79.0486 12.9746C80.7943 13.1146 81.502 15.293 80.1721 16.4322L73.9962 21.7227L75.883 29.6328C76.2892 31.3364 74.4363 32.6826 72.9417 31.7699L66.0018 27.5309L59.0618 31.7699C57.5673 32.6826 55.7142 31.3364 56.1205 29.6328L58.0074 21.7227L51.8314 16.4322C50.5014 15.293 51.2092 13.1146 52.9548 12.9746L61.061 12.3248L64.1839 4.8162Z" fill="#E0004D"/>
<path fill-rule="evenodd" clip-rule="evenodd" d="M112.184 4.8162C112.857 3.19929 115.147 3.19928 115.819 4.8162L118.942 12.3248L127.049 12.9746C128.794 13.1146 129.502 15.293 128.172 16.4322L121.996 21.7227L123.883 29.6328C124.289 31.3364 122.436 32.6826 120.942 31.7699L114.002 27.5309L107.062 31.7699C105.567 32.6826 103.714 31.3364 104.121 29.6328L106.007 21.7227L99.8314 16.4322C98.5014 15.293 99.2092 13.1146 100.955 12.9746L109.061 12.3248L112.184 4.8162Z" fill="#E0004D"/>
<path fill-rule="evenodd" clip-rule="evenodd" d="M160.184 4.8162C160.857 3.19929 163.147 3.19928 163.819 4.8162L166.942 12.3248L175.049 12.9746C176.794 13.1146 177.502 15.293 176.172 16.4322L169.996 21.7227L171.883 29.6328C172.289 31.3364 170.436 32.6826 168.942 31.7699L162.002 27.5309L155.062 31.7699C153.567 32.6826 151.714 31.3364 152.121 29.6328L154.007 21.7227L147.831 16.4322C146.501 15.293 147.209 13.1146 148.955 12.9746L157.061 12.3248L160.184 4.8162Z" fill="#E0004D"/>
<path fill-rule="evenodd" clip-rule="evenodd" d="M208.184 4.8162C208.857 3.19929 211.147 3.19928 211.819 4.8162L214.942 12.3248L223.049 12.9746C224.794 13.1146 225.502 15.293 224.172 16.4322L217.996 21.7227L219.883 29.6328C220.289 31.3364 218.436 32.6826 216.942 31.7699L210.002 27.5309L203.062 31.7699C201.567 32.6826 199.714 31.3364 200.121 29.6328L202.007 21.7227L195.831 16.4322C194.501 15.293 195.209 13.1146 196.955 12.9746L205.061 12.3248L208.184 4.8162Z" fill="#E0004D"/>
</svg>
