<svg width="115" height="26" viewBox="0 0 115 26" fill="none" xmlns="http://www.w3.org/2000/svg">
<path d="M56.908 0H50.3112V4.8477H56.908V0Z" fill="#E0004D"/>
<path d="M56.8825 8.06531H50.358V24.6258H56.8825V8.06531Z" fill="#E0004D"/>
<path d="M44.7261 0H38.2016V24.6258H44.7261V0Z" fill="#E0004D"/>
<path d="M62.5952 0V24.6258H68.9794V13.6706L81.6799 24.6258H88.6592V24.4768L74.5858 12.015L88.2171 1.60455V1.47261H80.596L68.9794 10.4402V0H62.5952Z" fill="#E0004D"/>
<path d="M25.8156 3.0346V15.5561C25.7604 19.5738 22.4705 22.0126 18.9638 22.0126C15.4572 22.0126 12.1716 19.5738 12.112 15.5561V0H0.9375L3.07125 3.0346H5.43027V15.339C5.43027 22.5233 12.4648 25.3962 18.9596 25.3749C25.4586 25.3962 32.4889 22.5275 32.4889 15.339V0H21.3186L23.4524 3.0346H25.8156Z" fill="#E0004D"/>
<path d="M111.314 4.37953C108.875 2.0259 105.215 0.702257 101.487 0.783123C97.1134 0.868245 93.424 2.2302 90.8227 4.72002C88.4934 6.95022 87.3713 9.92097 87.3713 13.0875C87.3713 16.7818 88.9227 20.1952 91.9066 22.3871C94.7884 24.5066 97.3812 25.3706 101.636 25.3706C102.873 25.3621 103.897 25.3025 104.951 25.128C110.103 24.2683 113.282 21.455 114.502 18.3736L108.951 18.3481C108.101 19.9781 105.568 21.7615 101.568 21.7615C97.0667 21.7615 94.1976 18.3183 93.9468 14.6112H114.978C115.195 10.2742 113.78 6.75443 111.314 4.37953ZM93.9935 10.9297L94.0191 10.6786C94.5164 7.50777 97.0029 4.188 101.462 4.188C105.92 4.188 108.386 7.90358 108.658 10.6786L108.675 10.9297H93.9935Z" fill="#E0004D"/>
</svg>
