<svg width="361" height="141" viewBox="0 0 361 141" fill="none" xmlns="http://www.w3.org/2000/svg">
<g clip-path="url(#clip0_438_20662)">
<path fill-rule="evenodd" clip-rule="evenodd" d="M290.615 105.746V86.9762H290.009C290.009 92.892 289.047 96.7638 287.491 99.3952C285.585 102.65 281.877 104.573 276.995 104.573H274.923V70.1072C276.941 70.1072 279.555 70.1906 281.287 72.4762C283.061 74.8452 283.345 78.1668 283.345 82.5424H283.791V56.8012H283.345C283.345 61.0248 283.167 64.4628 281.271 66.9988C279.509 69.3722 276.941 69.5138 274.923 69.5138V37.5692H277.643C281.253 37.5692 284.645 38.5292 286.899 42.003C288.827 44.9624 289.417 49.7584 289.417 54.732H290.007V36.381H261.465V36.9728H266.487V105.171H261.465V105.748L290.615 105.746ZM227.145 105.746V86.8286H226.559C226.559 92.3002 225.52 96.892 224.038 99.3966C221.832 103.155 217.977 104.685 214.144 104.685H211.461V36.94H216.533V36.375H197.857V36.94H203.035L203.075 105.169H197.857V105.746H227.145ZM163.438 105.746V86.8286H162.836C162.836 92.3002 161.808 96.892 160.325 99.3966C158.118 103.155 154.268 104.685 150.432 104.685H147.752V36.94H152.82V36.375H134.144V36.94H139.311L139.353 105.169H134.144V105.746H163.438ZM99.8347 105.746V86.9762H99.2367C99.2367 92.892 98.2677 96.7638 96.7217 99.3952C94.8045 102.65 91.1041 104.573 86.2201 104.573H84.1507V70.1072C86.1723 70.1072 88.7783 70.1906 90.5123 72.4762C92.2939 74.8452 92.5771 78.1668 92.5771 82.5424H93.0273V56.8012H92.5771C92.5771 61.0248 92.3981 64.4628 90.5019 66.9988C88.7351 69.3722 86.1739 69.5138 84.1507 69.5138V37.5692H86.8641C90.4795 37.5692 93.8711 38.5292 96.1299 42.003C98.0575 44.9624 98.6405 49.7584 98.6405 54.732H99.2367V36.381H70.6987V36.9728H75.7139V105.171H70.6987V105.748L99.8347 105.746Z" fill="#181818"/>
</g>
<defs>
<clipPath id="clip0_438_20662">
<rect width="360" height="140" fill="white" transform="translate(0.699707 0.375)"/>
</clipPath>
</defs>
</svg>
