<svg width="243" height="175" viewBox="0 0 243 175" fill="none" xmlns="http://www.w3.org/2000/svg">
<path d="M0.650024 4C0.650024 1.79086 2.44089 0 4.65002 0H237.756C239.965 0 241.756 1.79086 241.756 4V157.683C241.756 159.892 239.965 161.683 237.756 161.683H216.585C214.055 161.683 212.161 164.002 212.666 166.481L213.378 169.975C214.003 173.043 211.018 175.608 208.079 174.528L173.779 161.928C173.338 161.766 172.871 161.683 172.4 161.683H4.65003C2.44089 161.683 0.650024 159.892 0.650024 157.683V4Z" fill="#FCE8EC"/>
<path d="M43.4396 37.675C49.8304 37.675 55.2662 39.291 59.747 42.5231C64.3014 45.6818 67.7171 50.0157 69.9943 55.525C72.3449 60.9608 73.5202 67.1679 73.5202 74.1463C73.5202 83.3284 72.1612 91.2985 69.4433 98.0565C66.7989 104.741 63.0526 109.883 58.2045 113.482C53.4298 117.082 47.8838 118.881 41.5665 118.881C36.9387 118.881 32.6415 118.11 28.6748 116.568C24.7816 114.952 21.5128 112.454 18.8683 109.075C16.2974 105.623 14.7548 101.362 14.2406 96.2935H27.2424C27.3893 99.4522 28.7483 102.17 31.3193 104.447C33.8903 106.651 37.306 107.753 41.5665 107.753C45.6066 107.753 49.0591 106.541 51.9239 104.117C54.8622 101.693 57.1393 98.387 58.7554 94.2C60.3714 89.9395 61.2529 85.1648 61.3998 79.8759C59.5634 83.2549 56.8455 85.9728 53.2461 88.0296C49.7202 90.0864 45.7168 91.1148 41.2359 91.1148C36.1674 91.1148 31.5764 89.9762 27.4628 87.6991C23.3492 85.3485 20.0804 82.1531 17.6563 78.113C15.3057 74.0728 14.1304 69.5185 14.1304 64.45C14.1304 59.1611 15.3791 54.4966 17.8767 50.4565C20.3742 46.4164 23.8267 43.2944 28.2341 41.0907C32.7149 38.8136 37.7835 37.675 43.4396 37.675ZM43.2193 48.8037C40.1341 48.8037 37.3795 49.5015 34.9554 50.8972C32.5313 52.2929 30.6214 54.2028 29.2257 56.6268C27.9035 59.0509 27.2424 61.8056 27.2424 64.8907C27.2424 67.9759 27.9035 70.7306 29.2257 73.1546C30.6214 75.5787 32.5313 77.4886 34.9554 78.8843C37.3795 80.2065 40.1341 80.8676 43.2193 80.8676C46.3045 80.8676 49.0591 80.2065 51.4832 78.8843C53.9072 77.4886 55.8171 75.5787 57.2128 73.1546C58.6085 70.7306 59.3063 67.9759 59.3063 64.8907C59.3063 61.8056 58.6085 59.0509 57.2128 56.6268C55.8171 54.2028 53.9072 52.2929 51.4832 50.8972C49.0591 49.5015 46.3045 48.8037 43.2193 48.8037ZM110.22 118.881C104.563 118.881 99.5316 117.927 95.1242 116.017C90.7903 114.107 87.3745 111.352 84.877 107.753C82.3795 104.153 81.1307 99.8929 81.1307 94.9713C81.1307 92.1799 81.7184 89.5355 82.8937 87.038C84.069 84.467 85.685 82.2265 87.7418 80.3167C89.8721 78.4068 92.3329 77.0111 95.1242 76.1296C91.6718 74.587 88.8804 72.2364 86.7502 69.0778C84.6199 65.9191 83.5548 62.6136 83.5548 59.1611C83.5548 55.0475 84.6566 51.3747 86.8603 48.1426C89.1375 44.837 92.2594 42.266 96.2261 40.4296C100.266 38.5932 104.931 37.675 110.22 37.675C115.435 37.675 120.063 38.5932 124.103 40.4296C128.143 42.266 131.265 44.837 133.469 48.1426C135.746 51.3747 136.884 55.0475 136.884 59.1611C136.884 62.6136 135.783 65.9191 133.579 69.0778C131.449 72.2364 128.657 74.587 125.205 76.1296C129.392 77.5253 132.771 79.9494 135.342 83.4019C137.913 86.8543 139.198 90.7108 139.198 94.9713C139.198 99.8929 137.95 104.153 135.452 107.753C132.954 111.352 129.502 114.107 125.095 116.017C120.761 117.927 115.802 118.881 110.22 118.881ZM110.22 108.194C115.141 108.194 119.071 107.055 122.009 104.778C124.948 102.427 126.417 99.2685 126.417 95.3019C126.417 91.3352 124.911 88.1765 121.899 85.8259C118.961 83.4019 115.068 82.1898 110.22 82.1898C106.988 82.1898 104.123 82.7407 101.625 83.8426C99.2011 84.9444 97.2912 86.487 95.8955 88.4704C94.5733 90.3802 93.9122 92.6574 93.9122 95.3019C93.9122 99.2685 95.3813 102.427 98.3196 104.778C101.258 107.055 105.225 108.194 110.22 108.194ZM110.22 71.3917C112.938 71.3917 115.362 70.9142 117.492 69.9593C119.622 69.0043 121.275 67.6454 122.45 65.8824C123.625 64.1194 124.213 62.1361 124.213 59.9324C124.287 56.4799 123.001 53.6886 120.357 51.5583C117.786 49.4281 114.407 48.363 110.22 48.363C107.428 48.363 104.931 48.8404 102.727 49.7954C100.597 50.7503 98.944 52.1093 97.7687 53.8722C96.6668 55.6352 96.1159 57.6552 96.1159 59.9324C96.1894 63.3114 97.5116 66.066 100.083 68.1963C102.654 70.3265 106.033 71.3917 110.22 71.3917ZM208.887 38.5565H219.906L167.127 118H156.108L208.887 38.5565ZM213.294 118.881C209.622 118.881 206.353 118.037 203.488 116.347C200.697 114.584 198.53 112.197 196.987 109.185C195.444 106.173 194.673 102.758 194.673 98.938C194.673 95.1182 195.444 91.7025 196.987 88.6907C198.53 85.679 200.697 83.3284 203.488 81.6389C206.353 79.8759 209.622 78.9944 213.294 78.9944C216.894 78.9944 220.089 79.8392 222.881 81.5287C225.672 83.2182 227.839 85.6056 229.381 88.6907C230.997 91.7025 231.806 95.1182 231.806 98.938C231.806 102.758 230.997 106.21 229.381 109.295C227.839 112.307 225.672 114.658 222.881 116.347C220.089 118.037 216.894 118.881 213.294 118.881ZM213.294 110.397C215.057 110.397 216.6 109.956 217.922 109.075C219.244 108.12 220.273 106.798 221.007 105.108C221.742 103.345 222.109 101.289 222.109 98.938C222.109 95.412 221.301 92.6207 219.685 90.5639C218.143 88.5071 216.012 87.4787 213.294 87.4787C211.458 87.4787 209.879 87.9562 208.556 88.9111C207.234 89.7926 206.169 91.1148 205.361 92.8778C204.627 94.5673 204.259 96.5873 204.259 98.938C204.259 102.464 205.067 105.255 206.683 107.312C208.299 109.369 210.503 110.397 213.294 110.397ZM162.83 77.562C159.23 77.562 155.998 76.7173 153.133 75.0278C150.342 73.2648 148.138 70.8775 146.522 67.8657C144.98 64.854 144.208 61.4383 144.208 57.6185C144.208 53.7988 144.98 50.383 146.522 47.3713C148.138 44.3596 150.342 42.0089 153.133 40.3194C155.998 38.5565 159.23 37.675 162.83 37.675C166.502 37.675 169.735 38.5198 172.526 40.2093C175.317 41.8988 177.484 44.2861 179.027 47.3713C180.569 50.383 181.341 53.7988 181.341 57.6185C181.341 61.4383 180.569 64.8907 179.027 67.9759C177.484 70.9877 175.317 73.3383 172.526 75.0278C169.735 76.7173 166.502 77.562 162.83 77.562ZM162.83 69.0778C164.666 69.0778 166.245 68.637 167.568 67.7556C168.89 66.8006 169.918 65.4784 170.653 63.7889C171.387 62.0259 171.755 59.9691 171.755 57.6185C171.755 54.0926 170.947 51.3012 169.331 49.2444C167.714 47.1877 165.547 46.1593 162.83 46.1593C161.067 46.1593 159.487 46.6367 158.092 47.5917C156.769 48.4731 155.741 49.7954 155.006 51.5583C154.272 53.2478 153.905 55.2679 153.905 57.6185C153.905 61.1444 154.713 63.9358 156.329 65.9926C157.945 68.0494 160.112 69.0778 162.83 69.0778Z" fill="#E0004D"/>
</svg>
