<svg width="243" height="175" viewBox="0 0 243 175" fill="none" xmlns="http://www.w3.org/2000/svg">
<path d="M0.950073 4C0.950073 1.79086 2.74093 0 4.95007 0H238.056C240.265 0 242.056 1.79086 242.056 4V157.683C242.056 159.892 240.265 161.683 238.056 161.683H216.885C214.355 161.683 212.461 164.002 212.966 166.481L213.678 169.975C214.303 173.043 211.319 175.608 208.379 174.528L174.079 161.928C173.638 161.766 173.171 161.683 172.7 161.683H4.95008C2.74094 161.683 0.950073 159.892 0.950073 157.683V4Z" fill="#FCE8EC"/>
<path d="M41.3186 37.675C47.7094 37.675 53.1452 39.291 57.626 42.5231C62.1803 45.6818 65.5961 50.0157 67.8733 55.525C70.2239 60.9608 71.3992 67.1679 71.3992 74.1463C71.3992 83.3284 70.0402 91.2985 67.3223 98.0565C64.6779 104.741 60.9316 109.883 56.0834 113.482C51.3087 117.082 45.7628 118.881 39.4455 118.881C34.8177 118.881 30.5205 118.11 26.5538 116.568C22.6606 114.952 19.3918 112.454 16.7473 109.075C14.1763 105.623 12.6337 101.362 12.1195 96.2935H25.1214C25.2683 99.4522 26.6273 102.17 29.1983 104.447C31.7692 106.651 35.185 107.753 39.4455 107.753C43.4856 107.753 46.9381 106.541 49.8029 104.117C52.7412 101.693 55.0183 98.387 56.6344 94.2C58.2504 89.9395 59.1319 85.1648 59.2788 79.8759C57.4424 83.2549 54.7245 85.9728 51.1251 88.0296C47.5992 90.0864 43.5958 91.1148 39.1149 91.1148C34.0464 91.1148 29.4553 89.9762 25.3418 87.6991C21.2282 85.3485 17.9594 82.1531 15.5353 78.113C13.1847 74.0728 12.0094 69.5185 12.0094 64.45C12.0094 59.1611 13.2581 54.4966 15.7557 50.4565C18.2532 46.4164 21.7057 43.2944 26.1131 41.0907C30.5939 38.8136 35.6624 37.675 41.3186 37.675ZM41.0983 48.8037C38.0131 48.8037 35.2584 49.5015 32.8344 50.8972C30.4103 52.2929 28.5004 54.2028 27.1047 56.6268C25.7825 59.0509 25.1214 61.8056 25.1214 64.8907C25.1214 67.9759 25.7825 70.7306 27.1047 73.1546C28.5004 75.5787 30.4103 77.4886 32.8344 78.8843C35.2584 80.2065 38.0131 80.8676 41.0983 80.8676C44.1834 80.8676 46.9381 80.2065 49.3621 78.8843C51.7862 77.4886 53.6961 75.5787 55.0918 73.1546C56.4874 70.7306 57.1853 67.9759 57.1853 64.8907C57.1853 61.8056 56.4874 59.0509 55.0918 56.6268C53.6961 54.2028 51.7862 52.2929 49.3621 50.8972C46.9381 49.5015 44.1834 48.8037 41.0983 48.8037ZM110.412 118.881C103.875 118.881 98.2554 117.229 93.5541 113.923C88.8529 110.544 85.2903 105.806 82.8662 99.7093C80.4421 93.5389 79.2301 86.3769 79.2301 78.2231C79.2301 70.0694 80.4421 62.9441 82.8662 56.8472C85.2903 50.7503 88.8529 46.0491 93.5541 42.7435C98.3288 39.3645 103.948 37.675 110.412 37.675C117.024 37.675 122.643 39.3645 127.271 42.7435C131.972 46.0491 135.535 50.7503 137.959 56.8472C140.456 62.9441 141.705 70.0694 141.705 78.2231C141.705 86.4503 140.456 93.6123 137.959 99.7093C135.535 105.806 131.972 110.544 127.271 113.923C122.643 117.229 117.024 118.881 110.412 118.881ZM110.412 107.643C114.379 107.643 117.721 106.467 120.439 104.117C123.157 101.693 125.214 98.2769 126.61 93.8694C128.005 89.462 128.703 84.2466 128.703 78.2231C128.703 69.188 127.124 62.0627 123.965 56.8472C120.807 51.5583 116.289 48.9139 110.412 48.9139C106.519 48.9139 103.214 50.1259 100.496 52.55C97.7779 54.9006 95.7211 58.2796 94.3254 62.687C93.0032 67.021 92.3421 72.1997 92.3421 78.2231C92.3421 87.4052 93.8847 94.604 96.9699 99.8194C100.129 105.035 104.609 107.643 110.412 107.643ZM211.608 38.5565H222.627L169.848 118H158.829L211.608 38.5565ZM216.016 118.881C212.343 118.881 209.074 118.037 206.209 116.347C203.418 114.584 201.251 112.197 199.708 109.185C198.166 106.173 197.394 102.758 197.394 98.938C197.394 95.1182 198.166 91.7025 199.708 88.6907C201.251 85.679 203.418 83.3284 206.209 81.6389C209.074 79.8759 212.343 78.9944 216.016 78.9944C219.615 78.9944 222.81 79.8392 225.602 81.5287C228.393 83.2182 230.56 85.6056 232.103 88.6907C233.719 91.7025 234.527 95.1182 234.527 98.938C234.527 102.758 233.719 106.21 232.103 109.295C230.56 112.307 228.393 114.658 225.602 116.347C222.81 118.037 219.615 118.881 216.016 118.881ZM216.016 110.397C217.778 110.397 219.321 109.956 220.643 109.075C221.966 108.12 222.994 106.798 223.728 105.108C224.463 103.345 224.83 101.289 224.83 98.938C224.83 95.412 224.022 92.6207 222.406 90.5639C220.864 88.5071 218.733 87.4787 216.016 87.4787C214.179 87.4787 212.6 87.9562 211.278 88.9111C209.955 89.7926 208.89 91.1148 208.082 92.8778C207.348 94.5673 206.98 96.5873 206.98 98.938C206.98 102.464 207.788 105.255 209.404 107.312C211.02 109.369 213.224 110.397 216.016 110.397ZM165.551 77.562C161.951 77.562 158.719 76.7173 155.854 75.0278C153.063 73.2648 150.859 70.8775 149.243 67.8657C147.701 64.854 146.929 61.4383 146.929 57.6185C146.929 53.7988 147.701 50.383 149.243 47.3713C150.859 44.3596 153.063 42.0089 155.854 40.3194C158.719 38.5565 161.951 37.675 165.551 37.675C169.224 37.675 172.456 38.5198 175.247 40.2093C178.038 41.8988 180.205 44.2861 181.748 47.3713C183.291 50.383 184.062 53.7988 184.062 57.6185C184.062 61.4383 183.291 64.8907 181.748 67.9759C180.205 70.9877 178.038 73.3383 175.247 75.0278C172.456 76.7173 169.224 77.562 165.551 77.562ZM165.551 69.0778C167.387 69.0778 168.966 68.637 170.289 67.7556C171.611 66.8006 172.639 65.4784 173.374 63.7889C174.108 62.0259 174.476 59.9691 174.476 57.6185C174.476 54.0926 173.668 51.3012 172.052 49.2444C170.436 47.1877 168.269 46.1593 165.551 46.1593C163.788 46.1593 162.208 46.6367 160.813 47.5917C159.491 48.4731 158.462 49.7954 157.728 51.5583C156.993 53.2478 156.626 55.2679 156.626 57.6185C156.626 61.1444 157.434 63.9358 159.05 65.9926C160.666 68.0494 162.833 69.0778 165.551 69.0778Z" fill="#E0004D"/>
</svg>
