<svg width="243" height="175" viewBox="0 0 243 175" fill="none" xmlns="http://www.w3.org/2000/svg">
<path d="M0.25 4C0.25 1.79086 2.04086 0 4.25 0H237.356C239.565 0 241.356 1.79086 241.356 4V157.683C241.356 159.892 239.565 161.683 237.356 161.683H216.185C213.655 161.683 211.761 164.002 212.266 166.481L212.978 169.975C213.603 173.043 210.618 175.608 207.679 174.528L173.379 161.928C172.938 161.766 172.471 161.683 172 161.683H4.25C2.04086 161.683 0.25 159.892 0.25 157.683V4Z" fill="#FCE8EC"/>
<path d="M44.4793 118.881C38.8232 118.881 33.7914 117.927 29.384 116.017C25.05 114.107 21.6343 111.352 19.1367 107.753C16.6392 104.153 15.3904 99.8929 15.3904 94.9713C15.3904 92.1799 15.9781 89.5355 17.1534 87.038C18.3287 84.467 19.9448 82.2265 22.0016 80.3167C24.1318 78.4068 26.5926 77.0111 29.384 76.1296C25.9315 74.587 23.1401 72.2364 21.0099 69.0778C18.8796 65.9191 17.8145 62.6136 17.8145 59.1611C17.8145 55.0475 18.9164 51.3747 21.1201 48.1426C23.3972 44.837 26.5192 42.266 30.4858 40.4296C34.5259 38.5932 39.1904 37.675 44.4793 37.675C49.6948 37.675 54.3225 38.5932 58.3627 40.4296C62.4028 42.266 65.5247 44.837 67.7284 48.1426C70.0056 51.3747 71.1441 55.0475 71.1441 59.1611C71.1441 62.6136 70.0423 65.9191 67.8386 69.0778C65.7083 72.2364 62.917 74.587 59.4645 76.1296C63.6516 77.5253 67.0306 79.9494 69.6016 83.4019C72.1725 86.8543 73.458 90.7108 73.458 94.9713C73.458 99.8929 72.2093 104.153 69.7117 107.753C67.2142 111.352 63.7617 114.107 59.3543 116.017C55.0204 117.927 50.062 118.881 44.4793 118.881ZM44.4793 108.194C49.4009 108.194 53.3309 107.055 56.2692 104.778C59.2074 102.427 60.6766 99.2685 60.6766 95.3019C60.6766 91.3352 59.1707 88.1765 56.159 85.8259C53.2207 83.4019 49.3275 82.1898 44.4793 82.1898C41.2472 82.1898 38.3824 82.7407 35.8849 83.8426C33.4608 84.9444 31.5509 86.487 30.1553 88.4704C28.833 90.3802 28.1719 92.6574 28.1719 95.3019C28.1719 99.2685 29.6411 102.427 32.5793 104.778C35.5176 107.055 39.4843 108.194 44.4793 108.194ZM44.4793 71.3917C47.1972 71.3917 49.6213 70.9142 51.7516 69.9593C53.8818 69.0043 55.5346 67.6454 56.7099 65.8824C57.8852 64.1194 58.4729 62.1361 58.4729 59.9324C58.5463 56.4799 57.2608 53.6886 54.6164 51.5583C52.0454 49.4281 48.6664 48.363 44.4793 48.363C41.688 48.363 39.1904 48.8404 36.9867 49.7954C34.8565 50.7503 33.2037 52.1093 32.0284 53.8722C30.9266 55.6352 30.3756 57.6552 30.3756 59.9324C30.4491 63.3114 31.7713 66.066 34.3423 68.1963C36.9133 70.3265 40.2923 71.3917 44.4793 71.3917ZM108.989 118.881C103.774 118.881 99.0359 117.927 94.7754 116.017C90.5149 114.033 87.0625 111.242 84.418 107.643C81.847 103.97 80.3779 99.6725 80.0106 94.7509H92.2412C92.9757 98.7176 94.7754 101.876 97.6402 104.227C100.579 106.504 104.215 107.643 108.549 107.643C111.707 107.643 114.462 106.981 116.812 105.659C119.163 104.264 121 102.354 122.322 99.9296C123.644 97.5056 124.305 94.7142 124.305 91.5556C124.305 86.634 122.799 82.7407 119.787 79.8759C116.849 77.0111 112.883 75.5787 107.887 75.5787C101.276 75.5787 96.4649 78.1864 93.4532 83.4019H82.1041L88.3847 38.5565H133.781V49.7954H92.131L98.9625 44.1759L93.8939 76.9009L92.4615 73.8157C94.2245 71.3182 96.7955 69.2614 100.175 67.6454C103.554 65.9559 106.969 65.1111 110.422 65.1111C115.711 65.1111 120.375 66.213 124.415 68.4167C128.529 70.6204 131.687 73.7423 133.891 77.7824C136.168 81.7491 137.307 86.3401 137.307 91.5556C137.307 96.9914 136.132 101.766 133.781 105.88C131.504 109.993 128.198 113.189 123.864 115.466C119.604 117.743 114.645 118.881 108.989 118.881ZM206.496 38.5565H217.515L164.736 118H153.718L206.496 38.5565ZM210.904 118.881C207.231 118.881 203.962 118.037 201.097 116.347C198.306 114.584 196.139 112.197 194.596 109.185C193.054 106.173 192.282 102.758 192.282 98.938C192.282 95.1182 193.054 91.7025 194.596 88.6907C196.139 85.679 198.306 83.3284 201.097 81.6389C203.962 79.8759 207.231 78.9944 210.904 78.9944C214.503 78.9944 217.698 79.8392 220.49 81.5287C223.281 83.2182 225.448 85.6056 226.991 88.6907C228.607 91.7025 229.415 95.1182 229.415 98.938C229.415 102.758 228.607 106.21 226.991 109.295C225.448 112.307 223.281 114.658 220.49 116.347C217.698 118.037 214.503 118.881 210.904 118.881ZM210.904 110.397C212.667 110.397 214.209 109.956 215.531 109.075C216.854 108.12 217.882 106.798 218.617 105.108C219.351 103.345 219.719 101.289 219.719 98.938C219.719 95.412 218.911 92.6207 217.294 90.5639C215.752 88.5071 213.622 87.4787 210.904 87.4787C209.067 87.4787 207.488 87.9562 206.166 88.9111C204.844 89.7926 203.778 91.1148 202.97 92.8778C202.236 94.5673 201.869 96.5873 201.869 98.938C201.869 102.464 202.677 105.255 204.293 107.312C205.909 109.369 208.112 110.397 210.904 110.397ZM160.439 77.562C156.84 77.562 153.607 76.7173 150.743 75.0278C147.951 73.2648 145.748 70.8775 144.131 67.8657C142.589 64.854 141.818 61.4383 141.818 57.6185C141.818 53.7988 142.589 50.383 144.131 47.3713C145.748 44.3596 147.951 42.0089 150.743 40.3194C153.607 38.5565 156.84 37.675 160.439 37.675C164.112 37.675 167.344 38.5198 170.135 40.2093C172.927 41.8988 175.094 44.2861 176.636 47.3713C178.179 50.383 178.95 53.7988 178.95 57.6185C178.95 61.4383 178.179 64.8907 176.636 67.9759C175.094 70.9877 172.927 73.3383 170.135 75.0278C167.344 76.7173 164.112 77.562 160.439 77.562ZM160.439 69.0778C162.275 69.0778 163.855 68.637 165.177 67.7556C166.499 66.8006 167.527 65.4784 168.262 63.7889C168.997 62.0259 169.364 59.9691 169.364 57.6185C169.364 54.0926 168.556 51.3012 166.94 49.2444C165.324 47.1877 163.157 46.1593 160.439 46.1593C158.676 46.1593 157.097 46.6367 155.701 47.5917C154.379 48.4731 153.35 49.7954 152.616 51.5583C151.881 53.2478 151.514 55.2679 151.514 57.6185C151.514 61.1444 152.322 63.9358 153.938 65.9926C155.554 68.0494 157.721 69.0778 160.439 69.0778Z" fill="#E0004D"/>
</svg>
