<svg width="42" height="41" viewBox="0 0 42 41" fill="none" xmlns="http://www.w3.org/2000/svg">
<path id="&#229;&#156;&#163;&#232;&#175;&#158;-&#231;&#164;&#188;&#231;&#155;&#146; 1" d="M39.4273 7.71838H34.9624C36.3246 6.54805 36.982 4.7949 36.5043 3.13575C36.1638 1.96072 35.3219 1.01129 34.1252 0.466079C32.9712 -0.0556351 31.6185 -0.144937 30.3225 0.226373C29.23 0.536581 27.6029 1.66461 25.3469 3.67157C25.0489 3.93948 24.7557 4.20268 24.4861 4.45179C24.3158 3.92067 23.8144 3.53526 23.2232 3.53526H19.2029C18.5739 3.53526 18.0442 3.97708 17.9117 4.56459C17.6043 4.27788 17.2732 3.97708 16.9279 3.66687C14.6671 1.66461 13.0401 0.536581 11.9523 0.226373C10.6516 -0.144937 9.29889 -0.0556351 8.14484 0.470779C6.94822 1.01599 6.1016 1.96542 5.76578 3.14045C5.28808 4.7996 5.94551 6.54805 7.30768 7.72308H2.56849C1.14957 7.72308 0.000244141 8.86991 0.000244141 10.2753V14.1905C0.000244141 15.5629 1.09281 16.6862 2.4597 16.7426V38.4854C2.4597 39.872 3.59484 41 4.99011 41H36.7266C38.1219 41 39.257 39.872 39.257 38.4854V16.7426H39.432C40.8509 16.7426 42.0002 15.5958 42.0002 14.1905V10.2753C42.0002 8.86521 40.8462 7.71838 39.4273 7.71838ZM40.4867 14.1905C40.4867 14.7686 40.0138 15.2386 39.432 15.2386H26.2029V9.22242H39.432C40.0138 9.22242 40.4867 9.69244 40.4867 10.2706V14.1905ZM1.51376 10.2753C1.51376 9.69713 1.98673 9.22712 2.56849 9.22712H15.7029V15.2433H2.56849C1.98673 15.2433 1.51376 14.7733 1.51376 14.1952V10.2753ZM19.3921 5.03931H23.034V7.71838H19.3921V5.03931ZM24.6894 14.0166V15.2386H17.2165V9.22242H24.6894V14.0166ZM30.7388 1.67401C31.6894 1.40141 32.6685 1.46251 33.4962 1.83852C34.2861 2.20043 34.8394 2.80674 35.0523 3.55406C35.5111 5.13801 34.3192 6.87706 32.3942 7.42227C31.2307 7.75128 28.3881 7.35647 26.0279 6.90996L30.6063 5.67382C31.0084 5.56572 31.2496 5.15211 31.1361 4.7526C31.0273 4.35309 30.6111 4.11338 30.209 4.22618L25.6023 5.47172C27.3712 3.84077 29.5752 2.00302 30.7388 1.67401ZM7.21781 3.55406C7.43538 2.80674 7.98876 2.19573 8.77389 1.83852C9.26105 1.61761 9.79551 1.50481 10.3489 1.50481C10.7415 1.50481 11.1388 1.56121 11.5313 1.67401C12.7138 2.01242 14.9746 3.91127 16.7577 5.55632L11.834 4.22148C11.432 4.11338 11.0158 4.34839 10.907 4.7479C10.7982 5.14741 11.0347 5.56102 11.4367 5.66912L16.1097 6.93346C14.3881 7.25307 12.4394 7.54448 11.0773 7.54448C10.5901 7.54448 10.1786 7.50688 9.87592 7.42227C7.95092 6.87706 6.75903 5.13801 7.21781 3.55406ZM3.97322 38.4854V16.7426H16.6489V39.4913H4.98538C4.42727 39.4913 3.97322 39.04 3.97322 38.4854ZM18.1624 16.7426H23.7435V39.4913H18.1624V16.7426ZM37.7435 38.4854C37.7435 39.04 37.2894 39.496 36.7266 39.496H25.257V16.7473H37.7435V38.4854Z" fill="#E0004D"/>
</svg>
