<svg width="70" height="50" viewBox="0 0 70 50" fill="none" xmlns="http://www.w3.org/2000/svg">
<path d="M25.2569 34.7894C24.2505 34.7894 22.2824 33.7183 20.879 32.7222C19.6403 31.8441 17.4367 30.0358 16.5858 27.7985C15.3286 24.493 16.2026 16.7528 16.2411 16.4248C16.2949 15.962 16.7135 15.631 17.1782 15.6831C17.6429 15.7368 17.9753 16.1536 17.923 16.6164C17.6783 18.7373 17.2459 24.775 18.1692 27.2008C18.6785 28.5402 19.9773 30.0037 21.8254 31.3231C23.5673 32.5659 24.9691 33.093 25.26 33.1038C26.291 33.0716 31.7522 29.924 32.4985 26.7534C33.2309 23.6472 32.7847 20.5041 32.7801 20.472C32.7124 20.0107 33.034 19.5832 33.4956 19.5173C33.9588 19.4498 34.3881 19.7701 34.4543 20.2298C34.4743 20.3708 34.9498 23.7253 34.145 27.138C33.194 31.1714 26.8911 34.7879 25.2554 34.7879L25.2569 34.7894Z" fill="#EEEEEE"/>
<path d="M11.6798 42.0712C11.212 42.0712 10.8335 41.6942 10.8335 41.2284V14.7894C10.8335 12.7789 11.1059 9.89178 12.4015 7.56403C13.6849 5.25773 15.7392 3.95976 18.3567 3.79273C18.3767 3.76055 18.3951 3.72683 18.4136 3.69618C19.0153 2.68938 20.4248 0.329444 25.6136 0.0214262C28.9575 -0.177789 32.3536 1.0175 35.1757 3.3851C38.5549 6.22009 40.4938 10.3776 40.4938 14.7894V34.4918C40.4938 34.9577 40.1153 35.3347 39.6475 35.3347C39.1797 35.3347 38.8011 34.9577 38.8011 34.4918V14.7894C38.8011 10.8756 37.0823 7.18858 34.0847 4.6754C31.5965 2.58671 28.6235 1.5324 25.7137 1.70556C21.4204 1.95995 20.371 3.71611 19.8678 4.56047C19.6308 4.95584 19.3369 5.44928 18.7321 5.4646C13.3325 5.61018 12.5262 11.3706 12.5262 14.7909V41.2314C12.5262 41.6973 12.1476 42.0743 11.6798 42.0743V42.0712Z" fill="#EEEEEE"/>
<path d="M17.2629 42.2062C17.1352 42.2062 17.0059 42.1955 16.8751 42.174C16.4135 42.0989 16.1011 41.6652 16.1765 41.2055C16.2519 40.7458 16.6874 40.4347 17.149 40.5098C17.8338 40.6201 18.8725 39.6562 19.2433 38.7873C19.4742 38.2479 19.668 37.6932 19.8342 37.0909C20.1328 36.0137 20.0897 34.7433 20.0481 33.5143C20.0343 33.0867 20.0189 32.6438 20.0189 32.2178C20.0189 31.752 20.3974 31.375 20.8652 31.375C21.333 31.375 21.7116 31.752 21.7116 32.2178C21.7116 32.6163 21.7254 33.0254 21.7408 33.4576C21.787 34.8138 21.8347 36.2159 21.4669 37.5415C21.2792 38.2173 21.0622 38.841 20.8006 39.4494C20.2974 40.6232 18.8694 42.2047 17.2629 42.2047V42.2062Z" fill="#EEEEEE"/>
<path d="M33.52 41.4508C33.44 41.4508 33.3569 41.4386 33.2753 41.4156C29.9392 40.418 29.7223 35.2981 29.6069 32.549L29.5945 32.2563C29.5745 31.7904 29.9362 31.3981 30.4024 31.3767C30.8671 31.3583 31.2641 31.7169 31.2857 32.1812L31.298 32.4769C31.3903 34.6423 31.5796 39.1476 33.7631 39.8004C34.2109 39.9337 34.4648 40.4042 34.3294 40.8501C34.2186 41.2148 33.8832 41.4508 33.5185 41.4508H33.52Z" fill="#EEEEEE"/>
<path d="M37.9411 21.4248C36.6115 21.4248 34.6096 21.2746 32.3629 20.5942C28.7267 19.4924 23.7457 16.7356 20.6727 9.86109C20.4834 9.43661 20.6742 8.93704 21.102 8.74855C21.5283 8.56006 22.0299 8.75008 22.2192 9.1761C24.4781 14.23 28.0558 17.5278 32.8553 18.9821C36.4346 20.067 39.3506 19.6671 39.3798 19.664C39.8415 19.5966 40.2708 19.9169 40.3385 20.3781C40.4047 20.8394 40.0846 21.2654 39.6214 21.3328C39.5645 21.3405 38.9428 21.4263 37.9426 21.4263L37.9411 21.4248Z" fill="#EEEEEE"/>
<path d="M17.0811 18.615C16.7642 18.615 16.4595 18.4357 16.3148 18.1307C16.1163 17.7093 16.2979 17.2082 16.7195 17.009C16.7534 16.9937 20.2064 15.3233 21.5406 11.8003C21.7052 11.3651 22.1946 11.1444 22.6316 11.3099C23.0686 11.4739 23.2902 11.9612 23.124 12.3964C21.5406 16.5738 17.6059 18.4571 17.4397 18.5353C17.3227 18.5905 17.2012 18.6165 17.0796 18.6165L17.0811 18.615Z" fill="#EEEEEE"/>
<path d="M16.4423 27.4734C14.9896 27.4734 13.7771 26.3302 13.7124 24.8714L13.6047 22.4425C13.5386 20.9438 14.708 19.6688 16.2145 19.6029C16.3007 19.5998 16.3869 19.5998 16.47 19.6029C16.9362 19.6259 17.2963 20.0212 17.2732 20.4856C17.2501 20.9499 16.8547 21.31 16.3869 21.2855C16.3546 21.284 16.3207 21.284 16.2869 21.2855C15.7144 21.3115 15.2697 21.7958 15.2943 22.3658L15.402 24.7947C15.4282 25.3648 15.9145 25.8077 16.4869 25.7847C16.5438 25.7816 16.6023 25.7755 16.6592 25.7632C17.1178 25.6667 17.5656 25.9579 17.6625 26.413C17.7595 26.8681 17.4671 27.3156 17.0101 27.4121C16.8639 27.4428 16.7131 27.4627 16.5638 27.4688C16.5223 27.4704 16.4823 27.4719 16.4407 27.4719L16.4423 27.4734Z" fill="#EEEEEE"/>
<path d="M34.0588 27.4736C34.0188 27.4736 33.9772 27.4736 33.9357 27.4705C33.7849 27.4644 33.6341 27.4445 33.4879 27.4138C33.0309 27.3173 32.7385 26.8698 32.8355 26.4147C32.9324 25.9596 33.3817 25.6684 33.8388 25.7649C33.8957 25.7772 33.9526 25.7849 34.0111 25.7864C34.5835 25.8109 35.0698 25.368 35.096 24.7964L35.2037 22.3676C35.2298 21.7975 34.7836 21.3117 34.2096 21.2872C34.1773 21.2872 34.145 21.2872 34.1111 21.2872C33.6418 21.3086 33.2479 20.9516 33.2248 20.4857C33.2017 20.0214 33.5618 19.626 34.0296 19.6031C34.1127 19.5985 34.1988 19.5985 34.285 19.6031C35.7915 19.6705 36.9625 20.9439 36.8948 22.4426L36.7871 24.8715C36.7225 26.3304 35.5099 27.4736 34.0573 27.4736H34.0588Z" fill="#EEEEEE"/>
<path d="M32.6446 43.4611C32.503 43.4611 32.3599 43.4258 32.2291 43.3523C31.8229 43.1239 31.6782 42.609 31.9091 42.2045C35.0344 36.6969 39.5954 34.0198 40.9833 33.3011C41.3557 31.3151 43.0053 23.043 45.4766 18.6021C42.0297 16.3923 39.3014 14.2929 39.2722 14.2714C38.9029 13.9864 38.8352 13.4577 39.1214 13.0884C39.4076 12.7206 39.9385 12.6532 40.3094 12.9382C40.3401 12.9612 43.3793 15.2997 47.0754 17.6167C47.2663 17.7362 47.4017 17.9278 47.4509 18.1469C47.5002 18.3661 47.4586 18.5959 47.337 18.7859C44.5118 23.1549 42.5945 33.9049 42.576 34.0137C42.5283 34.288 42.3452 34.5209 42.0913 34.6358C42.039 34.6588 36.7486 37.1076 33.3863 43.0335C33.2309 43.3078 32.9431 43.4611 32.6492 43.4611H32.6446Z" fill="#EEEEEE"/>
<path d="M53.3427 33.2214C53.2442 33.2214 53.1442 33.2046 53.0472 33.1678C52.6087 33.0053 52.3871 32.5196 52.5502 32.0843C55.8678 23.2147 54.9276 14.4124 54.7061 12.7421L51.2053 9.55769C50.8606 9.24354 50.836 8.71025 51.1514 8.36699C51.4669 8.02373 52.0024 7.99921 52.3471 8.31336L56.0725 11.7015C56.2125 11.8287 56.3064 12.0004 56.3372 12.1873C56.4049 12.6011 57.9606 22.4531 54.1367 32.6728C54.0105 33.0115 53.6874 33.2214 53.3442 33.2214H53.3427Z" fill="#EEEEEE"/>
<path d="M39.6505 46.0755C39.5551 46.0755 39.4596 46.0602 39.3658 46.0265C38.9257 45.8702 38.6964 45.3875 38.8549 44.9492C38.8918 44.848 39.7689 42.4621 42.0002 41.2177C42.408 40.9909 42.9235 41.135 43.1528 41.5411C43.3805 41.9472 43.2359 42.4605 42.8281 42.6889C41.1431 43.6282 40.4553 45.4993 40.4491 45.5177C40.326 45.8625 39.9998 46.077 39.652 46.077L39.6505 46.0755Z" fill="#EEEEEE"/>
<path d="M51.4117 43.3259C50.8993 43.3259 50.4807 42.9168 50.4731 42.405C50.4731 42.405 50.47 42.3375 50.47 41.6418C50.47 41.1254 50.8901 40.707 51.4086 40.707C51.9272 40.707 52.3473 41.1269 52.3473 41.6433C52.3473 42.3069 52.3488 42.3712 52.3488 42.3789C52.3565 42.8953 51.9411 43.3198 51.424 43.3275C51.4194 43.3275 51.4148 43.3275 51.4102 43.3275L51.4117 43.3259Z" fill="#EEEEEE"/>
<path d="M51.4148 37.555C50.9008 37.555 50.4823 37.1427 50.4761 36.6309L50.4669 35.972C50.4607 35.4556 50.8762 35.0326 51.3948 35.0265C51.9149 35.0188 52.338 35.4356 52.3442 35.9521L52.3534 36.611C52.3596 37.1274 51.9441 37.5504 51.4255 37.5565H51.4148V37.555Z" fill="#EEEEEE"/>
<path d="M54.7417 40.1939H53.7584C53.2398 40.1908 52.8213 39.771 52.8213 39.2545C52.8213 38.7381 53.2429 38.3213 53.76 38.3213H54.7448C55.2634 38.3259 55.6819 38.7458 55.6804 39.2607C55.6788 39.7756 55.2587 40.1924 54.7417 40.1924V40.1939Z" fill="#EEEEEE"/>
<path d="M49.1097 40.1934C48.4172 40.1934 48.1433 40.1934 48.1402 40.1934H48.1372C47.6201 40.1934 47.2 39.7765 47.1985 39.2601C47.1985 38.7437 47.6155 38.3238 48.1341 38.3223C48.1341 38.3223 48.3972 38.3223 49.1112 38.3223C49.6298 38.3223 50.0499 38.7422 50.0483 39.2586C50.0483 39.775 49.6282 40.1918 49.1097 40.1918V40.1934Z" fill="#EEEEEE"/>
<path d="M51.2378 42.3701C50.9932 42.3701 51.0993 42.2751 50.9239 42.1035L48.765 39.8539C48.5819 39.6761 48.3095 39.4325 48.311 39.1796C48.311 38.9253 48.588 38.6831 48.7727 38.5084L50.7608 36.4795C51.1347 36.124 51.7256 36.1362 52.0842 36.5071L54.2493 38.5544C54.6001 38.9161 54.6001 39.4877 54.2508 39.8508L51.9149 42.0836C51.741 42.2629 51.8441 42.3671 51.5948 42.3717C51.5902 42.3717 51.2425 42.3717 51.2378 42.3717V42.3701ZM50.5685 39.221L51.5564 40.1068L52.4258 39.2042L51.4933 38.3567L50.5685 39.221Z" fill="#EEEEEE"/>
<path d="M46.6583 49.8465C46.3121 49.8465 46.0274 49.5692 46.0228 49.2228C46.0228 49.2228 46.0212 49.0727 46.0212 48.6007C46.0212 48.2513 46.3059 47.9678 46.6568 47.9678C47.0076 47.9678 47.2923 48.2513 47.2923 48.6007C47.2923 49.0497 47.2938 49.1983 47.2938 49.2029C47.2984 49.5523 47.0184 49.8404 46.6675 49.845H46.6583V49.8465Z" fill="#EEEEEE"/>
<path d="M46.6584 49.9997C46.229 49.9997 45.8751 49.6518 45.869 49.2243C45.869 49.2243 45.8674 49.0726 45.8674 48.6006C45.8674 48.1669 46.2214 47.8145 46.6568 47.8145C47.0923 47.8145 47.4462 48.1684 47.4462 48.6021C47.4462 49.0097 47.4462 49.1691 47.4478 49.1982C47.4539 49.6365 47.1046 49.9936 46.6691 49.9997H46.6584ZM46.6584 48.1209C46.3922 48.1209 46.1767 48.3355 46.1767 48.6006C46.1767 49.068 46.1783 49.2197 46.1783 49.2197C46.1813 49.4802 46.3983 49.6917 46.6599 49.6917V49.8449L46.663 49.6917C46.9323 49.6871 47.1462 49.4695 47.1416 49.2059C47.1416 49.1707 47.14 49.0097 47.14 48.6006C47.14 48.3355 46.9246 48.1209 46.6584 48.1209Z" fill="#EEEEEE"/>
<path d="M46.6893 46.1813C46.3415 46.1813 46.0569 45.9024 46.0538 45.556L46.0476 45.0044C46.0446 44.655 46.3246 44.3684 46.6755 44.3653C47.0278 44.3592 47.3141 44.6412 47.3171 44.9921L47.3233 45.5438C47.3279 45.8932 47.0463 46.1797 46.6955 46.1828H46.6878L46.6893 46.1813Z" fill="#EEEEEE"/>
<path d="M46.6969 46.3343H46.6892C46.2583 46.3343 45.9044 45.9849 45.8998 45.5574L45.8936 45.0057C45.8906 44.7958 45.9706 44.5981 46.1183 44.4479C46.266 44.2977 46.463 44.2134 46.6738 44.2119C47.1139 44.2119 47.4663 44.5613 47.4709 44.9904L47.4771 45.5421C47.4801 45.752 47.4001 45.9497 47.2524 46.0999C47.1047 46.25 46.9077 46.3343 46.6969 46.3359H46.6954L46.6969 46.3343ZM46.6877 44.5169C46.5507 44.5169 46.4291 44.569 46.3399 44.6609C46.2506 44.7529 46.2014 44.8739 46.2029 45.0011L46.2091 45.5528C46.2122 45.8148 46.4276 46.0278 46.6907 46.0278L46.6984 46.1811V46.0278C46.8262 46.0278 46.9462 45.9757 47.0354 45.8838C47.1247 45.7918 47.1739 45.6708 47.1724 45.5436L47.1662 44.9919C47.1631 44.7299 46.9493 44.5169 46.6877 44.5169Z" fill="#EEEEEE"/>
<path d="M48.8882 47.74H48.2219C47.871 47.7384 47.5864 47.4534 47.5879 47.104C47.5879 46.7546 47.8726 46.4727 48.2234 46.4727H48.8897C49.2406 46.4757 49.5237 46.7592 49.5237 47.1086C49.5237 47.458 49.239 47.74 48.8882 47.74Z" fill="#EEEEEE"/>
<path d="M48.8882 47.8931H48.2219C48.0111 47.8916 47.8126 47.8089 47.6648 47.6602C47.5156 47.5116 47.434 47.3139 47.4356 47.1039C47.4356 46.6718 47.791 46.3193 48.225 46.3193H48.8913C49.3268 46.3224 49.6791 46.6764 49.6791 47.1085C49.6791 47.5407 49.3237 47.8931 48.8897 47.8931H48.8882ZM48.225 46.6258C47.9588 46.6258 47.7433 46.8404 47.7418 47.1039C47.7418 47.2327 47.791 47.3522 47.8818 47.4426C47.9726 47.533 48.0926 47.5836 48.2219 47.5836H48.8867C49.1529 47.5836 49.3683 47.369 49.3698 47.1055C49.3698 46.8404 49.1559 46.6258 48.8897 46.6243H48.225V46.6258Z" fill="#EEEEEE"/>
<path d="M44.9797 47.7336C44.5103 47.7336 44.4411 47.7336 44.438 47.7336C44.0872 47.7336 43.804 47.4516 43.8025 47.1022C43.8025 46.7528 44.0856 46.4693 44.4365 46.4678C44.4365 46.4678 44.498 46.4678 44.9827 46.4678C45.3336 46.4678 45.6183 46.7513 45.6167 47.1022C45.6167 47.4516 45.3321 47.7336 44.9812 47.7336H44.9797Z" fill="#EEEEEE"/>
<path d="M44.9796 47.8867H44.4395C44.0024 47.8867 43.6485 47.5343 43.647 47.1021C43.647 46.6684 43.9994 46.316 44.4348 46.3145H44.9811C45.1919 46.3145 45.3904 46.3972 45.5397 46.5458C45.689 46.6945 45.7705 46.8922 45.7705 47.1021C45.7705 47.5343 45.4166 47.8867 44.9811 47.8867H44.9796ZM44.5333 47.5802H44.9796C45.2458 47.5802 45.4612 47.3657 45.4612 47.1006C45.4612 46.9719 45.412 46.8523 45.3212 46.7604C45.2304 46.67 45.1088 46.6194 44.9811 46.6194H44.4364C44.1702 46.6194 43.9547 46.8355 43.9563 47.1006C43.9563 47.3642 44.1732 47.5787 44.4379 47.5787H44.5349L44.5333 47.5802Z" fill="#EEEEEE"/>
<path d="M46.6985 49.2093C46.5323 49.2093 46.3738 49.145 46.2538 49.0301L44.6858 47.5068C44.5627 47.3873 44.4934 47.2218 44.4934 47.0502C44.4934 46.8785 44.5657 46.7146 44.6904 46.595L46.2569 45.1055C46.5092 44.8649 46.9093 44.8741 47.1525 45.1239L48.6082 46.6257C48.8451 46.8693 48.8467 47.257 48.6082 47.5038L47.1525 49.0147C47.0355 49.1358 46.8739 49.2063 46.7047 49.2093C46.7016 49.2093 46.697 49.2093 46.6939 49.2093H46.6985ZM46.0461 47.0578L46.6831 47.6769L47.2709 47.0655L46.6785 46.4556L46.0445 47.0578H46.0461Z" fill="#EEEEEE"/>
<path d="M46.6985 49.3628C46.4908 49.3628 46.2953 49.2831 46.1476 49.1391L44.5796 47.6158C44.4272 47.4672 44.3411 47.2618 44.3411 47.0488C44.3411 46.8373 44.4319 46.6305 44.5857 46.4849L46.1522 44.9969C46.3 44.8559 46.4938 44.7793 46.697 44.7793C46.9124 44.7793 47.114 44.8651 47.2648 45.0199L48.7205 46.5217C49.0159 46.8266 49.0175 47.3063 48.722 47.6128L47.2663 49.1237C47.1217 49.2739 46.9186 49.3628 46.7093 49.3659H46.697L46.6985 49.3628ZM46.6985 45.0843C46.5739 45.0843 46.4554 45.1318 46.3661 45.2176L44.7996 46.7056C44.7058 46.7944 44.6519 46.9201 44.6504 47.0504C44.6504 47.1791 44.7027 47.3063 44.795 47.3967L46.363 48.9199C46.4538 49.0073 46.5723 49.0563 46.7 49.0563V49.2095L46.7047 49.0563C46.8355 49.0548 46.9601 48.9996 47.0478 48.9092L48.5035 47.3982C48.6836 47.2113 48.6836 46.9186 48.5035 46.7331L47.0478 45.2314C46.9555 45.1364 46.8339 45.0858 46.7016 45.0858L46.6985 45.0843ZM46.6847 47.8304C46.6446 47.8304 46.6062 47.815 46.5769 47.7875L45.9399 47.1683C45.9106 47.1392 45.8937 47.0994 45.8937 47.058C45.8937 47.0166 45.9106 46.9768 45.9414 46.9477L46.5754 46.3454C46.637 46.2872 46.7339 46.2887 46.7924 46.35L47.3848 46.9615C47.4417 47.0212 47.4417 47.1147 47.3848 47.1745L46.797 47.7859C46.7693 47.815 46.7293 47.8319 46.6877 47.8334H46.6847V47.8304ZM46.2692 47.0595L46.6816 47.4595L47.0601 47.0672L46.677 46.6718L46.2692 47.0595Z" fill="#EEEEEE"/>
</svg>
