<svg width="71" height="50" viewBox="0 0 71 50" fill="none" xmlns="http://www.w3.org/2000/svg">
<path d="M31.5251 39.7908H24.7858L20.2468 35.1813V14.8028L24.7858 10.1934H31.5251H38.2644L42.8034 14.8028V35.1813L38.2644 39.7908H31.5251Z" stroke="#EEEEEE" stroke-width="1.5" stroke-miterlimit="10"/>
<path d="M31.5273 46.2255H21.9504L15.5002 39.6753V10.7163L21.9504 4.16602H31.5273H41.1042L47.5543 10.7163V39.6753L41.1042 46.2255H31.5273Z" stroke="#EEEEEE" stroke-width="1.5" stroke-miterlimit="10"/>
<path d="M15.5002 10.507L20.241 14.6479M42.7595 14.6479L47.5002 10.507M38.0188 9.91549L40.9817 4M24.9817 9.91549L22.0188 4M20.241 35.3521L15.5002 39.493M24.9817 40.0845L22.0188 46M38.0188 40.0845L40.9817 46M42.7595 35.3521L46.9077 39.493" stroke="#EEEEEE" stroke-width="1.5" stroke-linecap="round" stroke-linejoin="round"/>
<path d="M54.2449 23.341C54.5318 23.341 54.7518 23.0972 54.7518 22.7602L54.7424 20.6336L55.6224 20.1372L58.0141 18.5914L57.8512 21.3923V22.3857L55.9575 23.4349C55.6514 23.6036 55.5555 23.9126 55.7085 24.1561C55.8714 24.4467 56.1775 24.4838 56.4738 24.3156L57.8512 23.5473V25.2429C57.8512 25.5895 58.081 25.8333 58.4157 25.8333C58.7696 25.8333 58.9802 25.5895 58.9802 25.2429V23.5473L60.3479 24.3156C60.6446 24.4842 60.9507 24.4467 61.1229 24.1657C61.276 23.9126 61.1707 23.6036 60.8646 23.4349L58.9802 22.3857V21.3923L58.8173 18.591L61.209 20.1276L62.089 20.624L62.0698 22.7602C62.0698 23.0976 62.2902 23.341 62.5865 23.341C62.9306 23.341 63.1126 23.088 63.1126 22.7602V21.2144L64.624 22.0671C64.9301 22.2358 65.2455 22.1702 65.4084 21.8704C65.5806 21.5894 65.4847 21.2612 65.188 21.1021L63.6771 20.2495L65.0447 19.472C65.3415 19.3033 65.4659 19.0223 65.2937 18.7413C65.1407 18.4883 64.8346 18.4135 64.5284 18.5914L62.6534 19.6687L61.7735 19.1722L59.2095 17.9167L61.7735 16.6615L62.6534 16.1555L64.5284 17.2327C64.8248 17.4106 65.15 17.3359 65.3031 17.092C65.4655 16.8018 65.3415 16.5204 65.0447 16.3521L63.6864 15.5746L65.1884 14.7312C65.4945 14.5533 65.59 14.2535 65.4084 13.9537C65.2455 13.6727 64.9301 13.5884 64.624 13.7663L63.1126 14.6189L63.1028 13.0639C63.1028 12.7362 62.9306 12.4827 62.5865 12.4923C62.2898 12.4923 62.0698 12.7266 62.0698 13.0639L62.089 15.1993L61.209 15.6958L58.8173 17.2323L58.9802 14.431V13.4381L60.8646 12.3892C61.1707 12.2205 61.276 11.9111 61.1229 11.6677C60.9507 11.3775 60.6446 11.3399 60.3479 11.5086L58.9802 12.2769V10.5808C58.9802 10.2342 58.7696 10 58.4157 10C58.081 10 57.8512 10.2342 57.8512 10.5808V12.2769L56.4738 11.5086C56.1775 11.3491 55.8714 11.3775 55.7085 11.6677C55.5555 11.9115 55.6514 12.2205 55.9575 12.3892L57.8512 13.4385V14.4314L58.0141 17.2423L55.6224 15.6962L54.7424 15.1905L54.7518 13.0639C54.7518 12.7266 54.5318 12.4923 54.2449 12.4923C53.9008 12.4923 53.7188 12.7362 53.7188 13.0639L53.7094 14.6097L52.2075 13.7663C51.9112 13.5976 51.5859 13.6727 51.423 13.9537C51.2414 14.2535 51.3467 14.5625 51.6434 14.7312L53.145 15.5746L51.7867 16.3521C51.49 16.5208 51.3561 16.7926 51.5283 17.0924C51.672 17.3359 52.0067 17.4106 52.3034 17.2327L54.178 16.1646L55.0579 16.6611L57.6219 17.9167L55.0579 19.1718L54.178 19.6687L52.303 18.591C51.9969 18.4131 51.6814 18.4883 51.5377 18.7317C51.3753 19.0315 51.49 19.3033 51.7867 19.472L53.145 20.2495L51.643 21.1021C51.3467 21.2612 51.2512 21.589 51.423 21.8704C51.5953 22.1702 51.9107 22.2262 52.2075 22.0671L53.7094 21.2144L53.7188 22.7602C53.7188 23.088 53.9004 23.341 54.2453 23.341H54.2449Z" fill="#EEEEEE"/>
<path d="M4.8841 41.7589C5.06976 41.7589 5.2121 41.6049 5.2121 41.3921L5.20603 40.049L5.77541 39.7354L7.32299 38.7592L7.21761 40.5282V41.1555L5.99223 41.8182C5.79416 41.9248 5.7321 42.1199 5.83113 42.2737C5.9365 42.4572 6.13457 42.4807 6.3263 42.3744L7.21761 41.8892V42.9601C7.21761 43.179 7.3663 43.333 7.58285 43.333C7.81182 43.333 7.94809 43.179 7.94809 42.9601V41.8892L8.83306 42.3744C9.02506 42.481 9.22312 42.4572 9.33457 42.2797C9.43361 42.1199 9.36547 41.9248 9.1674 41.8182L7.94809 41.1555V40.5282L7.84272 38.7589L9.39029 39.7294L9.95968 40.0429L9.94726 41.3921C9.94726 41.6052 10.0899 41.7589 10.2816 41.7589C10.5042 41.7589 10.622 41.5991 10.622 41.3921V40.4158L11.5999 40.9543C11.798 41.0609 12.0022 41.0195 12.1075 40.8301C12.219 40.6526 12.1569 40.4454 11.9649 40.3449L10.9873 39.8064L11.8722 39.3153C12.0642 39.2088 12.1448 39.0313 12.0333 38.8538C11.9343 38.694 11.7362 38.6468 11.5382 38.7592L10.3249 39.4395L9.75553 39.126L8.09651 38.333L9.75553 37.5403L10.3249 37.2207L11.5382 37.901C11.7299 38.0134 11.9404 37.9662 12.0394 37.8122C12.1445 37.6289 12.0642 37.4512 11.8722 37.3449L10.9933 36.8538L11.9652 36.3211C12.1633 36.2088 12.2251 36.0195 12.1075 35.8301C12.0022 35.6526 11.798 35.5994 11.5999 35.7117L10.622 36.2502L10.6157 35.2681C10.6157 35.0611 10.5042 34.901 10.2816 34.9071C10.0896 34.9071 9.94726 35.055 9.94726 35.2681L9.95968 36.6168L9.39029 36.9303L7.84272 37.9008L7.94809 36.1315V35.5044L9.1674 34.842C9.36547 34.7354 9.43361 34.54 9.33457 34.3863C9.22312 34.203 9.02506 34.1793 8.83306 34.2858L7.94809 34.771V33.6998C7.94809 33.481 7.81182 33.333 7.58285 33.333C7.3663 33.333 7.21761 33.481 7.21761 33.6998V34.771L6.3263 34.2858C6.13457 34.1851 5.9365 34.203 5.83113 34.3863C5.7321 34.5403 5.79416 34.7354 5.99223 34.842L7.21761 35.5047V36.1318L7.32299 37.9071L5.77541 36.9306L5.20603 36.6112L5.2121 35.2681C5.2121 35.055 5.06976 34.9071 4.8841 34.9071C4.66147 34.9071 4.54369 35.0611 4.54369 35.2681L4.53761 36.2444L3.56575 35.7117C3.37402 35.6052 3.16354 35.6526 3.05817 35.8301C2.94065 36.0195 3.00878 36.2146 3.20078 36.3211L4.17237 36.8538L3.29348 37.3449C3.10148 37.4514 3.01486 37.6231 3.12631 37.8124C3.21927 37.9662 3.43582 38.0134 3.62782 37.901L4.84079 37.2265L5.41017 37.54L7.06919 38.333L5.41017 39.1257L4.84079 39.4395L3.62755 38.7589C3.42948 38.6466 3.22534 38.694 3.13238 38.8478C3.02727 39.0371 3.10148 39.2088 3.29348 39.3153L4.17237 39.8064L3.20052 40.3449C3.00878 40.4454 2.94699 40.6524 3.05817 40.8301C3.16962 41.0195 3.37376 41.0548 3.56575 40.9543L4.53761 40.4158L4.54369 41.3921C4.54369 41.5991 4.66121 41.7589 4.88436 41.7589H4.8841Z" fill="#EEEEEE"/>
</svg>
