<svg width="71" height="51" viewBox="0 0 71 51" fill="none" xmlns="http://www.w3.org/2000/svg">
<path d="M21.6541 3.06738L23.8008 9.40751" stroke="#EEEEEE" stroke-width="2" stroke-miterlimit="10" stroke-linecap="round"/>
<path d="M29.2246 1.83301V8.5217" stroke="#EEEEEE" stroke-width="2" stroke-miterlimit="10" stroke-linecap="round"/>
<path d="M14.8784 6.50098L18.945 11.8237" stroke="#EEEEEE" stroke-width="2" stroke-miterlimit="10" stroke-linecap="round"/>
<path d="M36.9756 3.10059L34.6538 9.37476" stroke="#EEEEEE" stroke-width="2" stroke-miterlimit="10" stroke-linecap="round"/>
<path d="M43.4627 6.60938L39.3252 11.8755" stroke="#EEEEEE" stroke-width="2" stroke-miterlimit="10" stroke-linecap="round"/>
<path d="M48.6493 11.96L43.3059 16.0061" stroke="#EEEEEE" stroke-width="2" stroke-miterlimit="10" stroke-linecap="round"/>
<path d="M52.2427 18.7109L45.8779 20.8447" stroke="#EEEEEE" stroke-width="2" stroke-miterlimit="10" stroke-linecap="round"/>
<path d="M53.5109 26.4304L46.801 26.2373" stroke="#EEEEEE" stroke-width="2" stroke-miterlimit="10" stroke-linecap="round"/>
<path d="M52.244 33.6753L45.9124 31.4473" stroke="#EEEEEE" stroke-width="2" stroke-miterlimit="10" stroke-linecap="round"/>
<path d="M22.6191 46.826C23.1524 46.9694 23.701 46.6532 23.8444 46.1199C23.9878 45.5865 23.6716 45.0379 23.1383 44.8946L22.6191 46.826ZM12.3291 14.626C11.5293 14.0258 11.529 14.0261 11.5287 14.0265C11.5286 14.0267 11.5282 14.0272 11.528 14.0275C11.5274 14.0282 11.5268 14.0291 11.5261 14.03C11.5247 14.0319 11.5229 14.0344 11.5207 14.0373C11.5164 14.0431 11.5107 14.0509 11.5036 14.0607C11.4893 14.0802 11.4696 14.1076 11.4449 14.1426C11.3954 14.2126 11.3259 14.3133 11.2402 14.4432C11.0688 14.703 10.8323 15.0801 10.5618 15.563C10.0215 16.5278 9.34234 17.9206 8.77735 19.6478C7.64695 23.1034 6.96606 27.9251 8.80057 33.3183L10.694 32.6743C9.03409 27.7943 9.64411 23.4308 10.6782 20.2696C11.1955 18.6883 11.817 17.4148 12.3068 16.5403C12.5514 16.1036 12.7623 15.7679 12.9095 15.5447C12.9831 15.4331 13.0407 15.3499 13.0786 15.2963C13.0975 15.2695 13.1115 15.2501 13.12 15.2384C13.1243 15.2325 13.1272 15.2285 13.1287 15.2265C13.1295 15.2255 13.1299 15.2249 13.1299 15.2249C13.13 15.2249 13.1299 15.225 13.1297 15.2252C13.1296 15.2253 13.1295 15.2255 13.1294 15.2256C13.1292 15.2259 13.129 15.2262 12.3291 14.626ZM8.80057 33.3183C10.6347 38.7104 14.0846 42.0873 17.0618 44.1082C18.5493 45.1179 19.9235 45.7927 20.9303 46.2166C21.4341 46.4287 21.8475 46.5787 22.139 46.6767C22.2849 46.7258 22.4004 46.7619 22.4816 46.7863C22.5223 46.7985 22.5544 46.8078 22.5774 46.8144C22.589 46.8177 22.5982 46.8203 22.6052 46.8222C22.6087 46.8231 22.6116 46.8239 22.6139 46.8246C22.6151 46.8249 22.6161 46.8252 22.6169 46.8254C22.6174 46.8255 22.6179 46.8257 22.6181 46.8257C22.6186 46.8259 22.6191 46.826 22.8787 45.8603C23.1383 44.8946 23.1387 44.8947 23.139 44.8948C23.1391 44.8948 23.1394 44.8949 23.1396 44.8949C23.1398 44.895 23.14 44.895 23.14 44.895C23.1399 44.895 23.1393 44.8948 23.1382 44.8945C23.1359 44.8939 23.1313 44.8926 23.1245 44.8907C23.1108 44.8868 23.0884 44.8803 23.0576 44.871C22.996 44.8525 22.901 44.8229 22.7765 44.781C22.5274 44.6973 22.1606 44.5646 21.7064 44.3733C20.797 43.9904 19.5435 43.3755 18.185 42.4534C15.4701 40.6106 12.3544 37.5555 10.694 32.6743L8.80057 33.3183Z" fill="#EEEEEE"/>
<path d="M6.33325 17.0552L12.5215 11.6836L14.5423 19.8926L6.33325 17.0552Z" fill="#EEEEEE"/>
<path d="M29.1726 27.3302C29.7573 27.3302 30.2313 26.8602 30.2313 26.2803C30.2313 25.7005 29.7573 25.2305 29.1726 25.2305C28.5878 25.2305 28.1138 25.7005 28.1138 26.2803C28.1138 26.8602 28.5878 27.3302 29.1726 27.3302Z" stroke="#EEEEEE" stroke-width="4" stroke-miterlimit="10"/>
<path d="M29.2246 13.8428L29.3184 23.9982" stroke="#EEEEEE" stroke-width="2" stroke-miterlimit="10" stroke-linecap="round"/>
<path d="M41.377 26.3369H30.9604" stroke="#EEEEEE" stroke-width="2" stroke-miterlimit="10" stroke-linecap="round"/>
<path d="M30.3946 48.132C28.7026 48.132 27.3586 47.22 27.1066 45.492L28.5826 45.216C28.7266 46.26 29.4586 46.86 30.3706 46.86C31.3066 46.86 31.9666 46.356 31.9666 45.468C31.9666 44.592 31.2706 44.208 30.2746 44.208H29.4226V42.912H30.2626C31.1746 42.912 31.7386 42.516 31.7386 41.748C31.7386 40.992 31.2346 40.524 30.3826 40.524C29.4826 40.524 28.8826 41.172 28.7146 42.108L27.3346 41.856C27.5626 40.404 28.7026 39.252 30.4306 39.252C32.1586 39.252 33.1786 40.26 33.1786 41.664C33.1786 42.54 32.6626 43.272 31.9546 43.524C32.7826 43.788 33.4426 44.436 33.4426 45.564C33.4426 46.944 32.2786 48.132 30.3946 48.132ZM40.0216 41.7H41.2096L42.3376 45.876L43.4536 41.7H44.8816L42.9856 48H41.7376L40.5856 43.872L39.4336 48H38.1856L36.2896 41.7H37.7656L38.9056 45.876L40.0216 41.7ZM48.2052 48.132C46.4052 48.132 45.1452 46.8 45.1452 44.856C45.1452 43.008 46.3932 41.58 48.1452 41.58C49.9692 41.58 50.9412 42.96 50.9412 44.688V45.168H46.5252C46.6332 46.248 47.2812 46.908 48.2052 46.908C48.9132 46.908 49.4772 46.548 49.6692 45.9L50.9052 46.368C50.4612 47.472 49.4652 48.132 48.2052 48.132ZM48.1332 42.792C47.3892 42.792 46.8132 43.236 46.5972 44.088H49.4892C49.4772 43.392 49.0452 42.792 48.1332 42.792ZM54.6856 48.132C52.8856 48.132 51.6256 46.8 51.6256 44.856C51.6256 43.008 52.8736 41.58 54.6256 41.58C56.4496 41.58 57.4216 42.96 57.4216 44.688V45.168H53.0056C53.1136 46.248 53.7616 46.908 54.6856 46.908C55.3936 46.908 55.9576 46.548 56.1496 45.9L57.3856 46.368C56.9416 47.472 55.9456 48.132 54.6856 48.132ZM54.6136 42.792C53.8696 42.792 53.2936 43.236 53.0776 44.088H55.9696C55.9576 43.392 55.5256 42.792 54.6136 42.792ZM59.9421 39.384V44.352L62.3661 41.7H64.1301L61.7541 44.148L64.3221 48H62.6541L60.7701 45.156L59.9421 45.996V48H58.5021V39.384H59.9421ZM64.2757 46.8L65.3557 45.936C65.7277 46.548 66.4477 46.956 67.1797 46.956C67.7917 46.956 68.3557 46.74 68.3557 46.176C68.3557 45.636 67.8277 45.576 66.8317 45.372C65.8357 45.168 64.6957 44.916 64.6957 43.572C64.6957 42.42 65.7037 41.58 67.1557 41.58C68.2597 41.58 69.2437 42.072 69.6997 42.768L68.7277 43.644C68.3677 43.08 67.7677 42.756 67.0717 42.756C66.4837 42.756 66.0997 43.02 66.0997 43.44C66.0997 43.896 66.5557 43.98 67.3477 44.148C68.4157 44.376 69.7597 44.604 69.7597 46.044C69.7597 47.316 68.5957 48.132 67.1677 48.132C66.0037 48.132 64.8397 47.664 64.2757 46.8Z" fill="#EEEEEE"/>
</svg>
