<svg width="66" height="50" viewBox="0 0 66 50" fill="none" xmlns="http://www.w3.org/2000/svg">
<path d="M39.0807 4.30371C39.0807 4.30371 37.3037 9.74496 40.8577 17.4697C41.3431 18.5749 45.4813 24.1761 41.1539 34.2952" stroke="#EEEEEE" stroke-width="2" stroke-miterlimit="10" stroke-linecap="round"/>
<path d="M20.1528 4.30371C20.1528 4.30371 20.6999 5.43301 20.7615 7.65583" stroke="#EEEEEE" stroke-width="2" stroke-miterlimit="10" stroke-linecap="round"/>
<path d="M20.6293 10.6436C20.6293 10.6436 20.5744 13.5859 18.1027 19.0008C17.713 20.0527 16.0421 22.9585 19.202 33.6467C19.3333 34.1325 22.0649 41.9543 23.3156 44.4722" stroke="#EEEEEE" stroke-width="2" stroke-miterlimit="10" stroke-linecap="round"/>
<path d="M17.6567 20.2496C17.6567 20.2496 21.7652 24.7405 28.6764 20.7887C29.2361 20.5294 35.8704 17.0531 41.1925 18.1108" stroke="#EEEEEE" stroke-width="2" stroke-miterlimit="10" stroke-linecap="round"/>
<path d="M18.0161 29.0264C18.0161 29.0264 24.1472 25.5494 29.8849 31.9943" stroke="#EEEEEE" stroke-width="2" stroke-miterlimit="10" stroke-linecap="round"/>
<path d="M42.6415 29.7296C42.6415 29.7296 37.1376 24.1715 30.5552 30.043" stroke="#EEEEEE" stroke-width="2" stroke-miterlimit="10" stroke-linecap="round"/>
<path d="M31.6703 25.6797C31.6703 25.6797 28.4117 34.9106 28.313 43.8493" stroke="#EEEEEE" stroke-width="2" stroke-miterlimit="10" stroke-linecap="round"/>
<path d="M26.6489 15.8419C26.6489 15.8419 27.4632 13.996 28.3524 15.2714C28.4638 15.4533 29.4755 17.0567 27.5998 17.7368" stroke="#EEEEEE" stroke-miterlimit="10" stroke-linecap="round"/>
<path d="M34.2202 38.78H35.3502V46H33.8702V41.16H32.1802V40.06L32.8302 40C33.7502 39.93 34.1402 39.61 34.2202 38.78ZM36.3056 44.87L38.1656 43.34C39.1256 42.55 39.9056 41.92 39.9056 41.11C39.9056 40.45 39.4956 39.96 38.8056 39.96C38.1156 39.96 37.6756 40.5 37.6756 41.15C37.6756 41.38 37.7156 41.61 37.7956 41.82H36.4056C36.3156 41.54 36.2856 41.33 36.2856 41.06C36.2856 39.67 37.4456 38.71 38.8356 38.71C40.3756 38.71 41.3656 39.65 41.3656 41.01C41.3656 42.2 40.5056 43.03 39.5456 43.79L38.3756 44.73H41.4256V46H36.3056V44.87ZM45.7088 42.96V46H44.3088V40.74H45.7088V41.28C45.9888 40.94 46.4588 40.64 47.1388 40.64C47.7788 40.64 48.2688 40.91 48.5588 41.36C48.8788 41.03 49.3788 40.64 50.1888 40.64C51.2688 40.64 51.9688 41.39 51.9688 42.53V46H50.5688V42.93C50.5688 42.34 50.3488 41.92 49.7688 41.92C49.3088 41.92 48.8388 42.27 48.8388 42.96V46H47.4388V42.93C47.4388 42.34 47.2188 41.92 46.6388 41.92C46.1788 41.92 45.7088 42.27 45.7088 42.96ZM53.0778 40.12V38.82H54.5078V40.12H53.0778ZM54.4978 40.74V46H53.0978V40.74H54.4978ZM55.6467 46V40.74H57.0467V41.28C57.3367 40.94 57.8167 40.64 58.4867 40.64C59.5867 40.64 60.2567 41.39 60.2567 42.53V46H58.8567V42.93C58.8567 42.34 58.6167 41.92 58.0167 41.92C57.5267 41.92 57.0467 42.27 57.0467 42.96V46H55.6467ZM60.8591 45.11L61.7291 44.22C62.0891 44.71 62.7291 45.02 63.3191 45.02C63.7891 45.02 64.1991 44.86 64.1991 44.48C64.1991 44.08 63.8091 44.03 62.9691 43.87C62.1191 43.7 61.1791 43.48 61.1791 42.35C61.1791 41.34 62.0691 40.64 63.3291 40.64C64.2591 40.64 65.0891 41.02 65.4991 41.55L64.6991 42.43C64.3491 41.98 63.8391 41.73 63.2891 41.73C62.8491 41.73 62.5591 41.92 62.5591 42.21C62.5591 42.55 62.9091 42.61 63.5591 42.74C64.4791 42.93 65.5691 43.14 65.5691 44.33C65.5691 45.43 64.5491 46.11 63.2891 46.11C62.3391 46.11 61.3391 45.76 60.8591 45.11Z" fill="#EEEEEE"/>
</svg>
