<svg width="52" height="24" viewBox="0 0 52 24" fill="none" xmlns="http://www.w3.org/2000/svg">
<rect x="0.000244141" width="51.3" height="24" rx="5" fill="#FFB3C7"/>
<path fill-rule="evenodd" clip-rule="evenodd" d="M10.3086 7.5H12.332C12.332 9.47597 11.5707 11.3143 10.2181 12.6812L13.0741 16.6276H10.5226L7.41835 12.3377L8.21945 11.73C9.54868 10.7205 10.3086 9.17978 10.3086 7.5ZM37.8038 13.4696C37.8038 14.3679 38.5596 15.0938 39.4924 15.0938C40.4252 15.0938 41.181 14.3679 41.181 13.4696C41.181 12.5741 40.4252 11.8469 39.4924 11.8469C38.5596 11.8469 37.8038 12.5741 37.8038 13.4696ZM41.1865 10.7191V10.3131H43.0521V16.6262H41.1865V16.2229C40.6611 16.5859 40.026 16.8 39.3401 16.8C37.5253 16.8 36.0548 15.3093 36.0548 13.4696C36.0548 11.6313 37.5253 10.1393 39.3401 10.1393C40.026 10.1393 40.6611 10.3548 41.1865 10.7191ZM5.10034 16.6277H7.17169V7.50017H5.10034V16.6277ZM15.6273 16.6249H13.6753V7.50017H15.6273V16.6249ZM32.742 10.144C31.9986 10.144 31.2935 10.379 30.823 11.0256V10.315H28.967V16.6253H30.8449V13.3089C30.8449 12.3494 31.48 11.8794 32.2454 11.8794C33.063 11.8794 33.5349 12.3744 33.5349 13.2964V16.6253H35.3964V12.6108C35.3964 11.1438 34.2441 10.144 32.742 10.144ZM18.1396 13.4696C18.1396 14.3679 18.8955 15.0938 19.8283 15.0938C20.7611 15.0938 21.5169 14.3679 21.5169 13.4696C21.5169 12.5741 20.7611 11.8469 19.8283 11.8469C18.8955 11.8469 18.1396 12.5741 18.1396 13.4696ZM21.5224 10.7191V10.3131H23.388V16.6262H21.5224V16.2229C20.997 16.5859 20.3619 16.8 19.676 16.8C17.8612 16.8 16.3907 15.3093 16.3907 13.4696C16.3907 11.6313 17.8612 10.1393 19.676 10.1393C20.3619 10.1393 20.997 10.3548 21.5224 10.7191ZM26.2705 11.1367V10.3149H24.3624V16.6252H26.2747V13.6786C26.2747 12.6844 27.3378 12.1504 28.0744 12.1504H28.0977V10.3149C27.3405 10.3149 26.6437 10.6445 26.2705 11.1367ZM43.8601 15.5738C43.8601 14.9175 44.3842 14.3863 45.0303 14.3863C45.6763 14.3863 46.2003 14.9175 46.2003 15.5738C46.2003 16.2274 45.6763 16.7586 45.0303 16.7586C44.3842 16.7586 43.8601 16.2274 43.8601 15.5738Z" fill="#17120F"/>
</svg>
