<svg width="754" height="122" viewBox="0 0 754 122" fill="none" xmlns="http://www.w3.org/2000/svg">
<path d="M173.988 8.24512H170.438V23.2H173.988V8.24512Z" fill="white"/>
<path d="M173.039 15.3281L179.842 8.24512H184.829L178.088 15.3281L184.742 23.1474H179.754L173.039 15.3281Z" fill="white"/>
<path d="M162.782 8V17.3446C162.782 17.9319 162.755 18.4316 162.703 18.8436V18.8611C162.58 19.7553 161.852 20.4478 160.958 20.588C159.784 20.7634 158.022 20.7897 156.619 20.6143C155.927 20.5267 155.304 20.1059 155.041 19.466C155.024 19.4134 155.006 19.3696 154.989 19.317C154.848 18.8436 154.778 18.1861 154.778 17.3446V8H151V17.4235C151 18.8085 151.123 19.8868 151.377 20.6494C151.622 21.412 152.078 22.1046 152.744 22.7182C154.016 23.9104 156.032 24.5065 158.793 24.5065C161.379 24.5065 163.378 23.9016 164.789 22.6919C165.394 22.1484 165.85 21.4296 166.139 20.5442C166.437 19.6588 166.577 18.528 166.577 17.1605V8H162.773H162.782Z" fill="white"/>
<path d="M167.515 39.4877H158.171C157.583 39.4877 157.084 39.4614 156.672 39.4H156.654C155.76 39.2685 155.067 38.4971 154.927 37.5504C154.752 36.3056 154.726 34.4384 154.901 32.9482C154.989 32.2119 155.409 31.5544 156.049 31.2739C156.102 31.2564 156.146 31.2301 156.198 31.2213C156.663 31.0635 157.32 30.9934 158.162 30.9934H167.506V26.9873H158.083C156.698 26.9873 155.62 27.1188 154.857 27.3818C154.094 27.6448 153.402 28.1269 152.788 28.8282C151.596 30.1694 151 32.3083 151 35.2449C151 37.9887 151.605 40.1101 152.815 41.6091C153.358 42.249 154.077 42.7311 154.962 43.0467C155.848 43.3623 156.978 43.5113 158.346 43.5113H167.506V39.4789L167.515 39.4877Z" fill="white"/>
<path d="M172.583 38.7686H183.164V35.1657H172.583V38.7686Z" fill="white"/>
<path d="M183.169 29.1876H183.16C182.52 28.6529 181.784 28.197 180.986 27.8376C179.829 27.3204 178.532 27.0136 177.156 26.9961C175.779 27.0136 174.482 27.3204 173.325 27.8376C172.518 28.197 171.791 28.6529 171.151 29.1788H171.142C170.09 30.0554 169.477 31.3528 169.477 32.7203V43.5201H173.027V34.4735C173.027 32.6239 174.429 31.0811 176.27 30.8882C176.56 30.8619 176.858 30.8444 177.156 30.8356C177.454 30.8356 177.752 30.8532 178.041 30.8882C179.882 31.0811 181.284 32.6239 181.284 34.4735V43.5201H184.835V32.7203C184.835 31.3528 184.221 30.0554 183.169 29.1876Z" fill="white"/>
<path d="M234.47 39.1303H238.2L233.56 30.3203C234 30.2003 234.41 30.0403 234.8 29.8303C235.7 29.3403 236.4 28.3403 236.9 27.4403C237.4 26.5403 237.65 25.5003 237.65 24.3203C237.65 23.1403 237.4 22.1003 236.91 21.2003C236.42 20.3003 235.72 19.3003 234.82 18.8103C233.92 18.3203 232.88 18.0703 231.69 18.0703H223V39.1303H226.11V30.5603H230.16L234.49 39.1303H234.47ZM226.1 21.1203H231.79C232.35 21.1203 232.83 21.2503 233.25 21.5203C233.67 21.7803 233.99 22.1603 234.23 22.6403C234.46 23.1303 234.58 23.6803 234.58 24.3103C234.58 24.9403 234.46 25.5003 234.23 25.9903C234 26.4803 233.67 26.8503 233.25 27.1103C232.83 27.3703 232.34 27.5103 231.79 27.5103H226.1V21.1203Z" fill="white"/>
<path d="M266.061 18.5801V27.3301H257.881V18.5801H254.391V39.1301H257.881V30.3801H266.061V39.1301H269.561V18.5801H266.061Z" fill="white"/>
<path d="M275.609 38.7496C274.769 38.5596 273.989 38.2796 273.259 37.8996C272.529 37.5196 271.849 37.0496 271.219 36.4896L272.919 34.2896C273.659 34.9696 274.469 35.4796 275.369 35.8196C276.259 36.1596 277.229 36.3296 278.269 36.3296C279.679 36.3296 280.769 36.0496 281.539 35.4996C282.309 34.9496 282.699 34.1696 282.699 33.1596C282.699 32.4296 282.519 31.8596 282.169 31.4396C281.819 31.0196 281.359 30.7096 280.809 30.5096C280.249 30.3096 279.529 30.1196 278.649 29.9496C278.619 29.9496 278.589 29.9396 278.559 29.9396C278.529 29.9396 278.499 29.9396 278.469 29.9296L278.269 29.8896C276.969 29.6496 275.909 29.3896 275.099 29.0896C274.279 28.7896 273.589 28.2496 273.009 27.4596C272.429 26.6696 272.139 25.5496 272.139 24.0996C272.139 22.8096 272.409 21.7296 272.949 20.8296C273.489 19.9296 274.279 19.2396 275.309 18.7696C276.339 18.2996 277.589 18.0596 279.039 18.0596C279.729 18.0596 280.419 18.1396 281.089 18.2996C281.759 18.4596 282.429 18.6996 283.079 19.0096C283.729 19.3296 284.379 19.7196 285.009 20.1996L283.459 22.4896C282.719 21.9196 281.979 21.4796 281.249 21.1996C280.519 20.9096 279.779 20.7696 279.039 20.7696C277.709 20.7696 276.679 21.0496 275.949 21.6096C275.219 22.1696 274.849 22.9596 274.849 23.9896C274.849 24.7096 275.039 25.2696 275.419 25.6696C275.799 26.0796 276.269 26.3696 276.839 26.5696C277.409 26.7596 278.189 26.9596 279.199 27.1696C279.239 27.1696 279.269 27.1896 279.299 27.1896C279.329 27.1896 279.359 27.1996 279.399 27.2096C279.439 27.2096 279.489 27.2296 279.549 27.2396C279.599 27.2396 279.649 27.2596 279.699 27.2696C280.879 27.5196 281.859 27.8296 282.649 28.1696C283.439 28.5196 284.099 29.0796 284.629 29.8596C285.159 30.6396 285.419 31.6996 285.419 33.0496V33.0796C285.419 34.3296 285.139 35.4096 284.579 36.2996C284.019 37.1896 283.209 37.8696 282.139 38.3396C281.079 38.8096 279.789 39.0396 278.279 39.0396C277.339 39.0396 276.459 38.9496 275.619 38.7596L275.609 38.7496Z" fill="white"/>
<path d="M246.041 22.6797C242.301 22.6797 239.281 26.4697 239.281 31.1397C239.281 35.8097 242.311 39.5997 246.041 39.5997C249.771 39.5997 252.801 35.8097 252.801 31.1397C252.801 26.4697 249.771 22.6797 246.041 22.6797ZM246.041 35.8997C243.931 35.8997 242.231 33.7697 242.231 31.1297C242.231 28.4897 243.941 26.3597 246.041 26.3597C248.141 26.3597 249.851 28.4897 249.851 31.1297C249.851 33.7697 248.141 35.8997 246.041 35.8997Z" fill="white"/>
<path d="M242.359 12.84V17.45L246.349 21.76L256.189 11.92V7L246.659 16.53L242.359 12.84Z" fill="white"/>
<path d="M322.45 14.1143H320V37.8873H322.45V14.1143Z" fill="white"/>
<path d="M337.711 24.0732H335.261V37.8864H337.711V24.0732Z" fill="white"/>
<path d="M341.609 24.0732H339.159V33.8007H341.609V24.0732Z" fill="white"/>
<path d="M343.773 16.5721V14.1221H320V16.5721H343.773Z" fill="white"/>
<path d="M343.774 20.2928V17.8428H323.818V20.2928H343.774Z" fill="white"/>
<path d="M343.772 37.8875V35.4375H335.261V37.8875H343.772Z" fill="white"/>
<path d="M377.765 37.8875V35.4375H361.181V37.8875H377.765Z" fill="white"/>
<path d="M364.876 17.3594L352.422 37.8867H355.283L364.876 22.0798L372.082 33.962H374.943L364.876 17.3594Z" fill="white"/>
<path d="M374.939 33.9618L373.348 31.5117H361.17V33.9618H374.939Z" fill="white"/>
<path d="M343.773 33.7928V31.3428H339.159V33.7928H343.773Z" fill="white"/>
<path d="M326.269 17.833H323.818V26.5137H326.269V17.833Z" fill="white"/>
<path d="M326.269 27.792H323.818V37.8859H326.269V27.792Z" fill="white"/>
<path d="M333.784 26.5155V24.0654H323.815V26.5155H333.783H333.784Z" fill="white"/>
<path d="M333.784 30.242V27.792H323.815V30.242H333.783H333.784Z" fill="white"/>
<path d="M343.773 14.1143V16.5643C348.985 16.5643 353.205 20.7841 353.205 25.9965C353.205 31.2089 348.985 35.4287 343.773 35.4287V37.8788C350.336 37.8788 355.655 32.5594 355.655 25.9965C355.655 19.4336 350.336 14.1143 343.773 14.1143Z" fill="white"/>
<path d="M343.773 17.833V20.283C346.831 20.283 349.298 22.7602 349.298 25.8078C349.298 28.8553 346.821 31.3325 343.773 31.3325V33.7825C348.181 33.7825 351.748 30.2059 351.748 25.8078C351.748 21.4097 348.171 17.833 343.773 17.833Z" fill="white"/>
<path d="M367.391 14.1137H362.285L352.719 29.2503L353.9 32.2181L364.844 14.1137L377.771 35.4368L379.39 33.2277L367.392 14.1123L367.391 14.1137Z" fill="white"/>
<path d="M418.265 12.7559H413.39V35.4057H418.265V12.7559Z" fill="white"/>
<path d="M443.781 22.7891H438.906V35.4056H443.781V22.7891Z" fill="white"/>
<path d="M446.354 12.7559L446.928 17.6314H431.163V12.7559H446.354Z" fill="white"/>
<path d="M431.452 21.9331V26.8086H443.778V21.9331H431.452Z" fill="white"/>
<path d="M417.718 24.748L413.656 21.4035L422.277 12.7559H428.008L417.718 24.748Z" fill="white"/>
<path d="M419.295 22.0791L415.976 25.6545L433.75 38.998V33.3955L419.295 22.0791Z" fill="white"/>
<path d="M468.39 35.4138L457.082 11.9941L451.3 23.1651L453.977 28.2801L456.937 21.7452L463.438 35.4052L468.39 35.4138Z" fill="white"/>
<path d="M434.32 39.4173L429.445 35.5425V12.7559H434.32V39.4173Z" fill="white"/>
<path d="M455.046 23.8926C455.046 18.5466 451.402 14.056 446.467 12.7559H446.356L446.638 17.6143C448.999 18.7177 450.633 21.1127 450.633 23.8926C450.633 27.6989 447.57 30.7868 443.773 30.821V35.4057C450.017 35.2688 455.038 30.1709 455.038 23.8926H455.046Z" fill="white"/>
<path d="M457.255 34.5414C458.838 34.5414 460.121 33.2585 460.121 31.676C460.121 30.0934 458.838 28.8105 457.255 28.8105C455.673 28.8105 454.39 30.0934 454.39 31.676C454.39 33.2585 455.673 34.5414 457.255 34.5414Z" fill="white"/>
<path d="M548.02 15H540.05V20.91H548.02V15Z" fill="white"/>
<path d="M537.531 15H523.241V20.91H537.531V15Z" fill="white"/>
<path d="M523.241 23.5498V29.2198V36.3598H527.461V29.2198H537.531V23.2998H523.241V23.5498Z" fill="white"/>
<path d="M544.28 23.2998H540.05V30.4398V36.3598H544.28H548.02V30.4398H544.28V23.2998Z" fill="white"/>
<path d="M567.782 36.36H572.012L565.242 15H564.532H562.342H561.582L554.812 36.36H557.502H559.042H564.932L563.192 31.34H560.332L563.432 19.28L567.782 36.36Z" fill="white"/>
<path d="M548.023 15V20.91C549.563 20.91 550.813 23.04 550.813 25.68C550.813 28.32 549.563 30.45 548.023 30.45V36.36C552.123 36.36 555.433 31.58 555.433 25.68C555.433 19.78 552.113 15 548.023 15Z" fill="white"/>
<path d="M506.39 25.8398C506.39 31.8298 509.1 36.6898 512.44 36.6898H520.95V30.7798H514.23C512.71 30.7798 511.48 28.5698 511.48 25.8498C511.48 23.1298 512.71 20.9198 514.23 20.9198H520.95V15.0098H512.44C509.1 15.0098 506.39 19.8698 506.39 25.8598V25.8398Z" fill="white"/>
<path d="M615.96 39.6402H610.39V13.2402H615.96V39.6402Z" fill="white"/>
<path d="M636.78 30.8C636.56 32.06 635.99 33.16 635.07 34.11C634.02 35.18 632.75 35.72 631.26 35.72C629.4 35.72 627.9 34.92 626.77 33.32C625.64 31.72 625.07 29.36 625.07 26.23C625.07 23.1 625.6 20.8 626.65 19.18C627.71 17.56 629.18 16.75 631.09 16.75C633.91 16.75 635.77 18.51 636.7 22.03H641.54C641.04 19.15 639.88 16.93 638.04 15.37C636.18 13.79 633.85 13 631.05 13C627.48 13 624.67 14.23 622.63 16.7C620.59 19.17 619.57 22.37 619.57 26.31C619.57 28.76 620 31 620.87 33.03C621.74 35.06 622.98 36.67 624.58 37.86C626.19 39.05 628.28 39.64 630.86 39.64C633.92 39.64 636.4 38.8 638.28 37.13C640.15 35.47 641.24 33.36 641.55 30.8H636.77H636.78Z" fill="white"/>
<path d="M697.15 43.52C687.358 43.52 679.39 35.5517 679.39 25.76C679.39 15.9683 687.358 8 697.15 8C706.942 8 714.91 15.9683 714.91 25.76C714.91 35.5517 706.942 43.52 697.15 43.52ZM697.15 8.92044C687.867 8.92044 680.31 16.4768 680.31 25.76C680.31 35.0432 687.867 42.5996 697.15 42.5996C706.433 42.5996 713.989 35.0432 713.989 25.76C713.989 16.4768 706.433 8.92044 697.15 8.92044Z" fill="white"/>
<path d="M693.163 39.2952V27.8643H701.78V29.2142H694.741V32.7119H701.333V34.0531H694.741V37.9452H702.061V39.2952H693.172H693.163Z" fill="white"/>
<path d="M687.577 25.5146V13.6016H692.074C692.863 13.6016 693.468 13.6366 693.888 13.7155C694.476 13.812 694.967 13.996 695.361 14.2766C695.756 14.5483 696.071 14.934 696.317 15.4249C696.553 15.9158 696.676 16.4593 696.676 17.0466C696.676 18.0635 696.352 18.9138 695.712 19.6151C695.063 20.3164 693.906 20.667 692.214 20.667H689.155V25.5146H687.577ZM689.155 19.2644H692.232C693.249 19.2644 693.976 19.0716 694.406 18.6946C694.835 18.3177 695.046 17.783 695.046 17.0904C695.046 16.5908 694.923 16.1613 694.669 15.8106C694.414 15.46 694.081 15.2233 693.669 15.1093C693.406 15.0392 692.915 15.0041 692.197 15.0041H689.146V19.2644H689.155Z" fill="white"/>
<path d="M698.147 21.5786L699.638 21.4559C699.708 22.0257 699.874 22.4991 700.129 22.8672C700.383 23.2354 700.786 23.5335 701.33 23.7614C701.873 23.9893 702.478 24.1032 703.162 24.1032C703.766 24.1032 704.292 24.0156 704.757 23.849C705.222 23.6737 705.564 23.437 705.783 23.139C706.011 22.8409 706.116 22.5078 706.116 22.1572C706.116 21.8065 706.011 21.4822 705.791 21.2105C705.572 20.9387 705.213 20.7196 704.722 20.5355C704.406 20.4128 703.696 20.2287 702.601 19.9745C701.505 19.7202 700.742 19.4835 700.304 19.2556C699.734 18.9663 699.313 18.6157 699.033 18.1862C698.752 17.7654 698.612 17.2833 698.612 16.7573C698.612 16.1788 698.779 15.6353 699.12 15.1356C699.462 14.6359 699.962 14.2502 700.619 13.9872C701.277 13.7243 702.005 13.5928 702.802 13.5928C703.688 13.5928 704.468 13.733 705.143 14.0048C705.818 14.2765 706.335 14.6798 706.703 15.2145C707.063 15.7492 707.264 16.3453 707.29 17.0203L705.783 17.1342C705.704 16.4067 705.423 15.8632 704.959 15.495C704.494 15.1268 703.802 14.9427 702.881 14.9427C701.961 14.9427 701.233 15.1093 700.795 15.4512C700.357 15.793 700.137 16.1963 700.137 16.6696C700.137 17.0817 700.295 17.4235 700.602 17.6865C700.909 17.9495 701.698 18.2212 702.978 18.5017C704.257 18.7823 705.134 19.0277 705.616 19.2293C706.309 19.5361 706.826 19.9306 707.15 20.3952C707.483 20.8686 707.65 21.4121 707.65 22.0257C707.65 22.6393 707.466 23.2091 707.106 23.7526C706.747 24.2961 706.221 24.7169 705.546 25.0149C704.862 25.313 704.1 25.462 703.249 25.462C702.171 25.462 701.268 25.313 700.541 25.0061C699.813 24.7081 699.243 24.2523 698.822 23.6386C698.41 23.0338 698.191 22.3413 698.165 21.5786H698.147Z" fill="white"/>
<path d="M228.355 97.4859C227.924 96.8058 227.378 96.183 226.765 95.637C225.922 94.8897 224.974 94.2862 224.015 93.7114C223.163 93.2036 222.205 92.648 221.515 91.9103C221.323 91.7091 220.902 91.2493 220.672 90.5116C220.231 89.0937 220.576 87.0052 222.176 86.5837C222.808 86.4113 223.517 86.4783 224.092 86.8041C224.83 87.2256 225.261 88.0782 225.175 88.9309V90.3775H229.495C229.562 90.3775 229.409 87.9824 229.38 87.7525C229.265 86.8807 229.045 86.0185 228.566 85.2808C227.493 83.6426 225.385 82.8474 223.517 82.79C221.85 82.7325 220.059 83.1923 218.631 84.0737C217.673 84.6677 217.012 85.6065 216.629 86.6699C216.083 88.2028 215.882 89.9942 216.208 91.5941C216.696 94.0083 218.315 95.704 220.289 97.0165C221.209 97.6296 222.167 98.1853 223.057 98.8367C223.862 99.4211 224.581 100.025 224.897 101.021C225.338 102.439 224.993 104.527 223.393 104.949C222.76 105.121 222.052 105.054 221.477 104.729C220.739 104.307 220.308 103.454 220.394 102.602V101.155H216.074C216.006 101.155 216.16 103.55 216.189 103.78C216.303 104.652 216.524 105.514 217.003 106.252C218.076 107.89 220.183 108.685 222.052 108.743C223.719 108.8 225.51 108.34 226.937 107.459C227.895 106.865 228.556 105.926 228.94 104.863C229.486 103.33 229.687 101.538 229.361 99.9385C229.179 99.0475 228.834 98.2236 228.365 97.4859H228.355Z" fill="white"/>
<path d="M259.914 97.4859C259.483 96.8058 258.937 96.183 258.324 95.637C257.481 94.8897 256.532 94.2862 255.574 93.7114C254.721 93.2036 253.763 92.648 253.074 91.9103C252.882 91.7091 252.461 91.2493 252.231 90.5116C251.79 89.0937 252.135 87.0052 253.735 86.5837C254.367 86.4113 255.076 86.4783 255.651 86.8041C256.388 87.2256 256.819 88.0782 256.733 88.9309V90.3775H261.054C261.121 90.3775 260.968 87.9824 260.939 87.7525C260.824 86.8807 260.604 86.0185 260.125 85.2808C259.052 83.6426 256.944 82.8474 255.076 82.79C253.409 82.7325 251.617 83.1923 250.19 84.0737C249.232 84.6677 248.571 85.6065 248.188 86.6699C247.642 88.2028 247.441 89.9942 247.766 91.5941C248.255 94.0083 249.874 95.704 251.847 97.0165C252.767 97.6296 253.725 98.1853 254.616 98.8367C255.421 99.4211 256.139 100.025 256.455 101.021C256.896 102.439 256.551 104.527 254.951 104.949C254.319 105.121 253.61 105.054 253.035 104.729C252.298 104.307 251.867 103.454 251.953 102.602V101.155H247.632C247.565 101.155 247.718 103.55 247.747 103.78C247.862 104.652 248.082 105.514 248.561 106.252C249.634 107.89 251.742 108.685 253.61 108.743C255.277 108.8 257.069 108.34 258.496 107.459C259.454 106.865 260.115 105.926 260.498 104.863C261.044 103.33 261.246 101.538 260.92 99.9385C260.738 99.0475 260.393 98.2236 259.923 97.4859H259.914Z" fill="white"/>
<path d="M238.988 99.1718H241.326V105.265H238.289V108.953H241.326H245.857V105.265V99.1718V97.3324V95.4834H238.988V99.1718Z" fill="white"/>
<path d="M238.579 83.0584H238.541C234.527 83.0584 231.27 86.3157 231.27 90.3298V101.682C231.27 105.61 234.393 108.81 238.282 108.944V105.246C236.884 105.112 235.791 103.934 235.791 102.497V89.4963C235.791 87.973 237.027 86.7372 238.55 86.7372C240.074 86.7372 241.31 87.973 241.31 89.4963V91.1345H245.841V90.3202C245.841 86.3061 242.584 83.0488 238.57 83.0488L238.579 83.0584Z" fill="white"/>
<path d="M261.166 78H260.965V114.405H261.166V78Z" fill="white"/>
<path d="M270 108.608H202V108.877H270V108.608Z" fill="white"/>
<path d="M319.15 85H323.71L327.22 99.47L330.01 85H334.86L329.86 106.69H325.37L321.52 91.53L317.49 106.69H313L308 85H312.85L315.64 99.47L319.15 85Z" fill="white"/>
<path d="M348.578 88.94V85H340.668H337.098H336.578V106.7H337.098H340.668H348.578V102.76H340.668V97.82H348.578V93.88H340.668V88.94H348.578Z" fill="white"/>
<path d="M362.357 88.94V85H354.457H350.877H350.367V106.7H350.877H354.457H362.357V102.76H354.457V97.82H362.357V93.88H354.457V88.94H362.357Z" fill="white"/>
<path d="M376.15 88.94V85H368.24H364.67H364.16V106.7H364.67H368.24H376.15V102.76H368.24V97.82H376.15V93.88H368.24V88.94H376.15Z" fill="white"/>
<path d="M414 106.69V85H429.29V88.67H418.7V93.48H428.32V97.13H418.7V103.03H429.29V106.68H414V106.69Z" fill="white"/>
<path d="M430.971 106.69V85H437.841L441.781 98.84L445.671 85H452.561V106.69H448.171V89.61L443.861 106.69H439.641L435.351 89.61V106.69H430.961H430.971Z" fill="white"/>
<path d="M467.942 99.4095C467.692 100.51 467.172 101.38 466.392 102.02C465.612 102.66 464.652 102.98 463.522 102.98C461.972 102.98 460.702 102.42 459.742 101.29C458.772 100.16 458.292 98.3395 458.292 95.8295C458.292 93.3095 458.782 91.4895 459.742 90.3695C460.712 89.2395 461.972 88.6795 463.522 88.6795C464.652 88.6795 465.602 88.9995 466.392 89.6395C467.182 90.2795 467.692 91.1495 467.942 92.2495L468.152 92.9995L472.542 92.9795L472.132 91.2295C471.652 89.5295 470.942 88.2295 469.982 87.3195C468.382 85.7895 466.292 85.0195 463.732 85.0195C460.792 85.0195 458.422 85.9995 456.622 87.9495C454.882 89.8395 453.982 92.4695 453.922 95.8395C453.982 99.2095 454.882 101.84 456.622 103.73C458.422 105.68 460.792 106.66 463.732 106.66C466.302 106.66 468.382 105.89 469.982 104.36C470.932 103.45 471.652 102.15 472.132 100.45L472.542 98.6995L468.152 98.6795L467.942 99.4295V99.4095Z" fill="white"/>
<path d="M547.928 105.147C547.148 105.297 546.338 105.297 545.558 105.147C542.058 104.507 540.228 101.467 540.038 96.0273V95.9873C540.038 95.9873 540.038 95.7573 540.038 95.7173V95.6773C540.218 90.2373 542.058 87.2073 545.558 86.5573C546.338 86.4173 547.148 86.4173 547.928 86.5573C550.248 86.9973 552.058 88.5073 553.348 91.1073L554.708 90.5073C553.138 87.1373 550.678 85.3073 547.328 85.0273C546.718 84.9773 546.098 84.9973 545.488 85.0773C540.398 85.7473 537.318 89.5473 536.688 93.1773C536.538 94.0073 536.467 94.8473 536.477 95.6873C536.477 95.7373 536.477 95.9473 536.477 95.9973C536.477 96.8373 536.538 97.6773 536.688 98.5073C537.328 102.147 540.408 105.937 545.488 106.607C546.098 106.687 546.718 106.707 547.328 106.657C550.678 106.377 553.138 104.547 554.708 101.177L553.348 100.577C552.058 103.177 550.248 104.697 547.928 105.127V105.147Z" fill="white"/>
<path d="M515.65 85.3271H511V106.717H515.65V85.3271Z" fill="white"/>
<path d="M525.311 85.3271H526.221V106.717H525.311C523.281 106.717 521.641 105.067 521.641 103.047V88.9971C521.641 86.9671 523.291 85.3271 525.311 85.3271Z" fill="white"/>
<path d="M535.392 85.3271H525.312V87.4671H535.392V85.3271Z" fill="white"/>
<path d="M535.392 104.577H525.312V106.717H535.392V104.577Z" fill="white"/>
<path d="M533.263 94.1875H521.953V96.3275H533.263V94.1875Z" fill="white"/>
<path d="M608.97 99.87C607.78 101.39 605.93 102.36 603.85 102.36C600.25 102.36 597.34 99.44 597.34 95.85C597.34 92.26 600.26 89.34 603.85 89.34C605.93 89.34 607.77 90.32 608.97 91.83L612.05 88.75C610.06 86.46 607.13 85 603.85 85C597.86 85 593 89.86 593 95.85C593 101.84 597.86 106.7 603.85 106.7C607.12 106.7 610.06 105.25 612.05 102.95L608.97 99.87Z" fill="white"/>
<path d="M655.7 99.87C654.51 101.39 652.66 102.36 650.58 102.36C646.98 102.36 644.07 99.44 644.07 95.85C644.07 92.26 646.99 89.34 650.58 89.34C652.66 89.34 654.5 90.32 655.7 91.83L658.78 88.75C656.79 86.46 653.86 85 650.58 85C644.59 85 639.73 89.86 639.73 95.85C639.73 101.84 644.59 106.7 650.58 106.7C653.85 106.7 656.79 105.25 658.78 102.95L655.7 99.87Z" fill="white"/>
<path d="M625.889 85C619.899 85 615.039 89.86 615.039 95.85C615.039 101.84 619.899 106.7 625.889 106.7C631.879 106.7 636.739 101.84 636.739 95.85C636.739 89.86 631.879 85 625.889 85ZM625.889 102.36C622.289 102.36 619.379 99.44 619.379 95.85C619.379 92.26 622.299 89.34 625.889 89.34C629.479 89.34 632.399 92.26 632.399 95.85C632.399 99.44 629.479 102.36 625.889 102.36Z" fill="white"/>
<path d="M638.339 104.55C635.179 104.55 631.739 102.72 629.909 100.83C628.189 99.0603 626.709 97.9103 625.089 98.0303C623.309 98.1603 621.259 99.2903 619.619 101.06L616.379 98.0503C618.799 95.4503 621.859 93.8303 624.769 93.6203C628.759 93.3303 631.669 96.3103 633.069 97.7503C634.249 98.9603 636.709 100.21 638.489 100.13L638.689 104.55C638.569 104.55 638.459 104.55 638.339 104.55Z" fill="white"/>
<path d="M722.87 90.31V83H710.27C702.94 83 697 88.98 697 96.31C697 103.64 702.94 109.62 710.27 109.62H722.87V92.65H710.27V99.96H715.61V102.32H710.27C706.95 102.32 704.26 99.63 704.26 96.31C704.26 92.99 706.95 90.3 710.27 90.3H722.87V90.31Z" fill="white"/>
<path d="M749.46 91.5098C749.46 86.8398 745.67 83.0098 741 83.0098H723.73V109.64L741 109.6C745.67 109.6 749.46 105.81 749.46 101.14C749.46 99.3498 748.9 97.6998 747.96 96.3298C748.91 94.9598 749.46 93.3098 749.46 91.5198V91.5098ZM741 90.3098C741.65 90.3098 742.18 90.8398 742.18 91.4898C742.18 92.1398 741.65 92.6698 741 92.6698H731.03V90.3098H741ZM741 102.29H731.03V99.9798H741C741.06 99.9798 741.11 99.9798 741.17 99.9798C741.74 100.07 742.18 100.53 742.18 101.12C742.18 101.77 741.65 102.3 741 102.3V102.29Z" fill="white"/>
<path d="M185.626 90.2111C185.512 90.3338 175.361 101.23 170.504 104.982C169.005 106.139 166.858 106.025 165.517 104.684L165.473 104.64C164.544 103.693 163.947 102.466 163.667 101.169C163.097 98.5301 162.79 95.5935 163.343 92.6218C163.448 92.0783 163.588 91.5348 163.825 91.0351C164.316 89.9656 165.052 89.1592 166.095 88.7735C166.691 88.5455 167.349 88.5105 167.962 88.6858C171.013 89.5712 169.488 94.0769 170.68 96.3999C170.899 96.8207 171.46 96.9083 171.811 96.584L183.329 85.6089C183.443 85.7755 183.557 85.9508 183.671 86.1173C180.506 81.2347 175.01 78 168.76 78C158.951 78 151 85.9508 151 95.76C151 105.569 158.951 113.52 168.76 113.52C178.569 113.52 186.52 105.569 186.52 95.76C186.52 93.8227 186.204 91.9643 185.635 90.2199L185.626 90.2111Z" fill="white"/>
<path d="M183.695 86.1699C184.037 86.6959 184.353 87.2481 184.633 87.8092C184.353 87.2394 184.037 86.6959 183.695 86.1699Z" fill="white"/>
<path d="M184.934 88.4316C185.197 89.0102 185.424 89.6063 185.626 90.2112C185.424 89.5975 185.197 89.0102 184.934 88.4316Z" fill="white"/>
<path d="M184.633 87.8096C184.729 87.9937 184.817 88.1777 184.905 88.3706C184.817 88.1865 184.729 87.9937 184.633 87.8096Z" fill="white"/>
<circle cx="61.1588" cy="60.9338" r="42.5812" stroke="white"/>
<circle cx="61" cy="61" r="60" stroke="white" stroke-width="2"/>
<path d="M53.971 44.8535C44.8222 44.9288 37.4177 52.3709 37.4177 61.5323C37.4177 70.6937 44.8096 78.1358 53.971 78.2111L56.1422 78.186V72.8523H53.971C47.7714 72.777 42.7765 67.732 42.7765 61.5198C42.7765 55.3076 47.7839 50.2625 53.971 50.1872H56.1422V44.8535" fill="white"/>
<path d="M81.9043 44.8532C72.7554 44.9285 65.351 52.3706 65.351 61.532C65.351 70.6935 72.7428 78.1355 81.9043 78.2108L84.0754 78.1857V72.852H81.9043C75.7046 72.7767 70.7098 67.7317 70.7098 61.5195C70.7098 55.3073 75.7172 50.2622 81.9043 50.1869H84.0754V44.8532L81.9043 44.8281V44.8532Z" fill="white"/>
<path d="M80.8106 58.8213H69.9298V64.0797H80.8106V58.8213Z" fill="white"/>
<path d="M61.0829 7.56877C61.1908 7.23667 61.6606 7.23667 61.7685 7.56877L62.3719 9.42584C62.4202 9.57436 62.5586 9.67492 62.7148 9.67492L64.6674 9.67492C65.0166 9.67492 65.1618 10.1218 64.8793 10.327L63.2996 11.4747C63.1732 11.5665 63.1203 11.7292 63.1686 11.8778L63.772 13.7348C63.8799 14.0669 63.4998 14.3431 63.2173 14.1378L61.6376 12.9901C61.5112 12.8983 61.3402 12.8983 61.2138 12.9901L59.6341 14.1378C59.3516 14.3431 58.9715 14.0669 59.0794 13.7348L59.6828 11.8778C59.7311 11.7292 59.6782 11.5665 59.5519 11.4747L57.9721 10.327C57.6896 10.1218 57.8348 9.67492 58.184 9.67492L60.1367 9.67492C60.2928 9.67492 60.4312 9.57436 60.4795 9.42584L61.0829 7.56877Z" fill="white"/>
<path d="M92.1089 17.8949C92.2168 17.5628 92.6866 17.5628 92.7945 17.8949L93.3979 19.752C93.4462 19.9005 93.5846 20.0011 93.7408 20.0011L95.6934 20.0011C96.0426 20.0011 96.1878 20.4479 95.9053 20.6532L94.3256 21.8009C94.1992 21.8927 94.1463 22.0554 94.1946 22.2039L94.798 24.061C94.9059 24.3931 94.5258 24.6693 94.2433 24.464L92.6636 23.3163C92.5372 23.2245 92.3662 23.2245 92.2398 23.3163L90.6601 24.464C90.3776 24.6693 89.9975 24.3931 90.1054 24.061L90.7088 22.2039C90.7571 22.0554 90.7042 21.8927 90.5779 21.8009L88.9981 20.6532C88.7156 20.4479 88.8608 20.0011 89.21 20.0011L91.1627 20.0011C91.3188 20.0011 91.4572 19.9005 91.5055 19.752L92.1089 17.8949Z" fill="white"/>
<path d="M109.132 41.5385C109.24 41.2064 109.71 41.2064 109.818 41.5385L110.421 43.3956C110.469 43.5441 110.608 43.6446 110.764 43.6446L112.716 43.6446C113.066 43.6446 113.211 44.0915 112.928 44.2967L111.349 45.4445C111.222 45.5363 111.169 45.699 111.218 45.8475L111.821 47.7046C111.929 48.0367 111.549 48.3128 111.266 48.1076L109.687 46.9598C109.56 46.868 109.389 46.868 109.263 46.9598L107.683 48.1076C107.401 48.3128 107.021 48.0367 107.128 47.7046L107.732 45.8475C107.78 45.699 107.727 45.5363 107.601 45.4445L106.021 44.2967C105.739 44.0915 105.884 43.6446 106.233 43.6446L108.186 43.6446C108.342 43.6446 108.48 43.5441 108.529 43.3956L109.132 41.5385Z" fill="white"/>
<path d="M12.0878 43.9028C12.1957 43.5707 12.6655 43.5707 12.7734 43.9028L13.3768 45.7598C13.4251 45.9083 13.5635 46.0089 13.7196 46.0089L15.6723 46.0089C16.0215 46.0089 16.1667 46.4557 15.8842 46.661L14.3044 47.8087C14.1781 47.9005 14.1252 48.0632 14.1735 48.2117L14.7769 50.0688C14.8848 50.4009 14.5047 50.6771 14.2222 50.4718L12.6425 49.3241C12.5161 49.2323 12.3451 49.2323 12.2187 49.3241L10.639 50.4718C10.3565 50.6771 9.97639 50.4009 10.0843 50.0688L10.6877 48.2117C10.736 48.0632 10.6831 47.9005 10.5567 47.8087L8.97703 46.661C8.69453 46.4557 8.83971 46.0089 9.1889 46.0089L11.1415 46.0089C11.2977 46.0089 11.4361 45.9083 11.4844 45.7598L12.0878 43.9028Z" fill="white"/>
<path d="M109.605 74.7455C109.713 74.4134 110.183 74.4134 110.291 74.7455L110.894 76.6026C110.942 76.7511 111.081 76.8517 111.237 76.8517L113.19 76.8517C113.539 76.8517 113.684 77.2985 113.401 77.5038L111.822 78.6515C111.695 78.7433 111.643 78.906 111.691 79.0545L112.294 80.9116C112.402 81.2437 112.022 81.5198 111.74 81.3146L110.16 80.1669C110.033 80.0751 109.862 80.0751 109.736 80.1669L108.156 81.3146C107.874 81.5198 107.494 81.2437 107.602 80.9116L108.205 79.0545C108.253 78.906 108.2 78.7433 108.074 78.6515L106.494 77.5038C106.212 77.2985 106.357 76.8517 106.706 76.8517L108.659 76.8517C108.815 76.8517 108.953 76.7511 109.002 76.6026L109.605 74.7455Z" fill="white"/>
<path d="M14.0854 77.1098C14.1934 76.7777 14.6632 76.7777 14.7711 77.1098L15.3745 78.9669C15.4228 79.1154 15.5612 79.2159 15.7173 79.2159L17.67 79.2159C18.0191 79.2159 18.1643 79.6628 17.8818 79.868L16.3021 81.0158C16.1758 81.1075 16.1229 81.2702 16.1712 81.4188L16.7746 83.2758C16.8825 83.6079 16.5024 83.8841 16.2199 83.6789L14.6401 82.5311C14.5138 82.4393 14.3427 82.4393 14.2164 82.5311L12.6367 83.6789C12.3542 83.8841 11.9741 83.6079 12.082 83.2758L12.6854 81.4188C12.7336 81.2702 12.6808 81.1075 12.5544 81.0158L10.9747 79.868C10.6922 79.6628 10.8374 79.2159 11.1866 79.2159L13.1392 79.2159C13.2954 79.2159 13.4338 79.1154 13.482 78.9669L14.0854 77.1098Z" fill="white"/>
<path d="M92.1089 98.8617C92.2168 98.5296 92.6866 98.5296 92.7945 98.8617L93.3979 100.719C93.4462 100.867 93.5846 100.968 93.7408 100.968L95.6934 100.968C96.0426 100.968 96.1878 101.415 95.9053 101.62L94.3256 102.768C94.1992 102.859 94.1463 103.022 94.1946 103.171L94.798 105.028C94.9059 105.36 94.5258 105.636 94.2433 105.431L92.6636 104.283C92.5372 104.191 92.3662 104.191 92.2398 104.283L90.6601 105.431C90.3776 105.636 89.9975 105.36 90.1054 105.028L90.7088 103.171C90.7571 103.022 90.7042 102.859 90.5779 102.768L88.9981 101.62C88.7156 101.415 88.8608 100.968 89.21 100.968L91.1627 100.968C91.3188 100.968 91.4572 100.867 91.5055 100.719L92.1089 98.8617Z" fill="white"/>
<path d="M29.5835 17.8949C29.6914 17.5628 30.1612 17.5628 30.2691 17.8949L30.8725 19.752C30.9208 19.9005 31.0592 20.0011 31.2154 20.0011L33.168 20.0011C33.5172 20.0011 33.6624 20.4479 33.3799 20.6532L31.8002 21.8009C31.6738 21.8927 31.621 22.0554 31.6692 22.2039L32.2726 24.061C32.3805 24.3931 32.0004 24.6693 31.7179 24.464L30.1382 23.3163C30.0119 23.2245 29.8408 23.2245 29.7144 23.3163L28.1347 24.464C27.8522 24.6693 27.4721 24.3931 27.58 24.061L28.1834 22.2039C28.2317 22.0554 28.1788 21.8927 28.0525 21.8009L26.4728 20.6532C26.1903 20.4479 26.3354 20.0011 26.6846 20.0011L28.6373 20.0011C28.7934 20.0011 28.9318 19.9005 28.9801 19.752L29.5835 17.8949Z" fill="white"/>
<path d="M31.1085 98.8617C31.2164 98.5296 31.6863 98.5296 31.7942 98.8617L32.3976 100.719C32.4458 100.867 32.5842 100.968 32.7404 100.968L34.693 100.968C35.0422 100.968 35.1874 101.415 34.9049 101.62L33.3252 102.768C33.1988 102.859 33.146 103.022 33.1942 103.171L33.7976 105.028C33.9055 105.36 33.5254 105.636 33.2429 105.431L31.6632 104.283C31.5369 104.191 31.3658 104.191 31.2395 104.283L29.6597 105.431C29.3772 105.636 28.9971 105.36 29.105 105.028L29.7084 103.171C29.7567 103.022 29.7038 102.859 29.5775 102.768L27.9978 101.62C27.7153 101.415 27.8605 100.968 28.2097 100.968L30.1623 100.968C30.3185 100.968 30.4569 100.867 30.5051 100.719L31.1085 98.8617Z" fill="white"/>
<path d="M62.6079 108.792C62.7158 108.46 63.1856 108.46 63.2936 108.792L63.897 110.649C63.9452 110.798 64.0836 110.899 64.2398 110.899L66.1924 110.899C66.5416 110.899 66.6868 111.345 66.4043 111.551L64.8246 112.698C64.6982 112.79 64.6454 112.953 64.6936 113.101L65.297 114.958C65.4049 115.291 65.0248 115.567 64.7423 115.361L63.1626 114.214C63.0363 114.122 62.8652 114.122 62.7389 114.214L61.1591 115.361C60.8766 115.567 60.4965 115.291 60.6044 114.958L61.2078 113.101C61.2561 112.953 61.2032 112.79 61.0769 112.698L59.4972 111.551C59.2147 111.345 59.3599 110.899 59.709 110.899L61.6617 110.899C61.8179 110.899 61.9563 110.798 62.0045 110.649L62.6079 108.792Z" fill="white"/>
</svg>
