<svg width="335" height="66" viewBox="0 0 335 66" fill="none" xmlns="http://www.w3.org/2000/svg">
<path d="M107.472 47.519C107.394 47.6034 100.413 55.0971 97.073 57.6773C96.0421 58.4731 94.565 58.3948 93.6427 57.4724L93.6125 57.4422C92.9735 56.7911 92.5635 55.9471 92.3706 55.0549C91.9787 53.2402 91.7677 51.2206 92.1476 49.1769C92.2199 48.8031 92.3163 48.4294 92.4791 48.0857C92.8167 47.3502 93.3231 46.7956 94.0406 46.5303C94.4505 46.3736 94.9026 46.3495 95.3247 46.47C97.4226 47.0789 96.3736 50.1777 97.1935 51.7753C97.3443 52.0647 97.7301 52.1249 97.9712 51.9019L105.893 44.354C105.971 44.4685 106.05 44.5891 106.128 44.7036C103.952 41.3457 100.172 39.1211 95.8733 39.1211C89.1272 39.1211 83.6592 44.5891 83.6592 51.3352C83.6592 58.0813 89.1272 63.5493 95.8733 63.5493C102.619 63.5493 108.087 58.0813 108.087 51.3352C108.087 50.0028 107.87 48.7248 107.478 47.5251L107.472 47.519Z" fill="#EEEEEE"/>
<path d="M106.145 44.7402C106.38 45.102 106.597 45.4818 106.79 45.8676C106.597 45.4757 106.38 45.102 106.145 44.7402Z" fill="#EEEEEE"/>
<path d="M106.996 46.2949C107.177 46.6928 107.334 47.1028 107.472 47.5188C107.334 47.0967 107.177 46.6928 106.996 46.2949Z" fill="#EEEEEE"/>
<path d="M106.789 45.8672C106.855 45.9938 106.916 46.1204 106.976 46.253C106.916 46.1264 106.855 45.9938 106.789 45.8672Z" fill="#EEEEEE"/>
<path d="M140.544 52.5223C140.248 52.0545 139.872 51.6262 139.451 51.2507C138.871 50.7368 138.218 50.3217 137.56 49.9264C136.973 49.5772 136.314 49.1951 135.84 48.6877C135.708 48.5494 135.418 48.2331 135.26 47.7258C134.957 46.7507 135.194 45.3144 136.295 45.0245C136.729 44.9059 137.217 44.952 137.612 45.176C138.12 45.4659 138.416 46.0523 138.357 46.6387V47.6336H141.328C141.374 47.6336 141.269 45.9864 141.249 45.8283C141.17 45.2287 141.019 44.6358 140.689 44.1284C139.951 43.0018 138.502 42.4549 137.217 42.4154C136.071 42.3759 134.839 42.6921 133.857 43.2983C133.198 43.7068 132.743 44.3525 132.48 45.0838C132.104 46.138 131.966 47.37 132.19 48.4703C132.526 50.1306 133.639 51.2968 134.997 52.1994C135.629 52.6211 136.288 53.0032 136.901 53.4513C137.454 53.8532 137.948 54.2682 138.166 54.9535C138.469 55.9286 138.232 57.3649 137.131 57.6548C136.697 57.7734 136.209 57.7273 135.814 57.5032C135.306 57.2133 135.01 56.627 135.069 56.0406V55.0457H132.098C132.052 55.0457 132.157 56.6928 132.177 56.851C132.256 57.4505 132.407 58.0435 132.737 58.5508C133.475 59.6775 134.924 60.2243 136.209 60.2639C137.355 60.3034 138.587 59.9871 139.569 59.381C140.228 58.9725 140.683 58.3268 140.946 57.5955C141.322 56.5413 141.46 55.3093 141.236 54.209C141.111 53.5962 140.874 53.0296 140.551 52.5223H140.544Z" fill="#EEEEEE"/>
<path d="M162.247 52.5223C161.951 52.0545 161.575 51.6262 161.154 51.2507C160.574 50.7368 159.922 50.3217 159.263 49.9264C158.676 49.5772 158.017 49.1951 157.543 48.6877C157.411 48.5494 157.121 48.2331 156.963 47.7258C156.66 46.7507 156.897 45.3144 157.998 45.0245C158.433 44.9059 158.92 44.952 159.315 45.176C159.823 45.4659 160.119 46.0523 160.06 46.6387V47.6336H163.031C163.078 47.6336 162.972 45.9864 162.952 45.8283C162.873 45.2287 162.722 44.6358 162.392 44.1284C161.654 43.0018 160.205 42.4549 158.92 42.4154C157.774 42.3759 156.542 42.6921 155.56 43.2983C154.901 43.7068 154.446 44.3525 154.183 45.0838C153.807 46.138 153.669 47.37 153.893 48.4703C154.229 50.1306 155.343 51.2968 156.7 52.1994C157.332 52.6211 157.991 53.0032 158.604 53.4513C159.157 53.8532 159.651 54.2682 159.869 54.9535C160.172 55.9286 159.935 57.3649 158.834 57.6548C158.4 57.7734 157.912 57.7273 157.517 57.5032C157.009 57.2133 156.713 56.627 156.772 56.0406V55.0457H153.801C153.755 55.0457 153.86 56.6928 153.88 56.851C153.959 57.4505 154.11 58.0435 154.44 58.5508C155.178 59.6775 156.627 60.2243 157.912 60.2639C159.058 60.3034 160.291 59.9871 161.272 59.381C161.931 58.9725 162.386 58.3268 162.649 57.5955C163.025 56.5413 163.163 55.3093 162.939 54.209C162.814 53.5962 162.577 53.0296 162.254 52.5223H162.247Z" fill="#EEEEEE"/>
<path d="M147.857 53.6821H149.465V57.8724H147.376V60.409H149.465H152.581V57.8724V53.6821V52.4171V51.1455H147.857V53.6821Z" fill="#EEEEEE"/>
<path d="M147.575 42.6003H147.549C144.788 42.6003 142.548 44.8405 142.548 47.6011V55.4085C142.548 58.1098 144.696 60.3104 147.371 60.4027V57.8595C146.409 57.7672 145.658 56.9568 145.658 55.9685V47.0279C145.658 45.9803 146.508 45.1304 147.555 45.1304C148.603 45.1304 149.453 45.9803 149.453 47.0279V48.1545H152.569V47.5945C152.569 44.8339 150.329 42.5938 147.568 42.5938L147.575 42.6003Z" fill="#EEEEEE"/>
<path d="M163.109 39.1211H162.971V64.1577H163.109V39.1211Z" fill="#EEEEEE"/>
<path d="M169.185 60.1719H122.419V60.3564H169.185V60.1719Z" fill="#EEEEEE"/>
<path d="M190.855 43.9346H193.991L196.405 53.886L198.323 43.9346H201.659L198.22 58.8514H195.132L192.485 48.4254L189.713 58.8514H186.625L183.187 43.9346H186.522L188.441 53.886L190.855 43.9346Z" fill="#EEEEEE"/>
<path d="M211.094 46.6442V43.9346H205.654H203.198H202.841V58.8583H203.198H205.654H211.094V56.1487H205.654V52.7513H211.094V50.0416H205.654V46.6442H211.094Z" fill="#EEEEEE"/>
<path d="M220.569 46.6442V43.9346H215.136H212.674H212.323V58.8583H212.674H215.136H220.569V56.1487H215.136V52.7513H220.569V50.0416H215.136V46.6442H220.569Z" fill="#EEEEEE"/>
<path d="M230.055 46.6442V43.9346H224.616H222.16H221.81V58.8583H222.16H224.616H230.055V56.1487H224.616V52.7513H230.055V50.0416H224.616V46.6442H230.055Z" fill="#EEEEEE"/>
<path d="M243.954 58.8514V43.9346H254.469V46.4585H247.186V49.7665H253.802V52.2767H247.186V56.3343H254.469V58.8446H243.954V58.8514Z" fill="#EEEEEE"/>
<path d="M255.625 58.8514V43.9346H260.35L263.059 53.4528L265.735 43.9346H270.473V58.8514H267.454V47.105L264.49 58.8514H261.588L258.637 47.105V58.8514H255.618H255.625Z" fill="#EEEEEE"/>
<path d="M281.052 53.8447C280.88 54.6012 280.523 55.1995 279.986 55.6397C279.45 56.0798 278.79 56.2999 278.012 56.2999C276.946 56.2999 276.073 55.9147 275.413 55.1376C274.746 54.3605 274.416 53.1088 274.416 51.3826C274.416 49.6495 274.753 48.3979 275.413 47.6276C276.08 46.8505 276.946 46.4653 278.012 46.4653C278.79 46.4653 279.443 46.6854 279.986 47.1256C280.529 47.5657 280.88 48.164 281.052 48.9205L281.197 49.4363L284.216 49.4226L283.934 48.219C283.604 47.0499 283.115 46.1558 282.455 45.53C281.355 44.4778 279.917 43.9482 278.157 43.9482C276.135 43.9482 274.505 44.6222 273.267 45.9633C272.07 47.2631 271.451 49.0718 271.41 51.3895C271.451 53.7071 272.07 55.5159 273.267 56.8157C274.505 58.1567 276.135 58.8307 278.157 58.8307C279.924 58.8307 281.355 58.3012 282.455 57.2489C283.108 56.6231 283.604 55.7291 283.934 54.5599L284.216 53.3564L281.197 53.3426L281.052 53.8584V53.8447Z" fill="#EEEEEE"/>
<path d="M323.929 57.7905C323.392 57.8936 322.835 57.8936 322.299 57.7905C319.892 57.3503 318.633 55.2596 318.503 51.5183V51.4909C318.503 51.4909 318.503 51.3327 318.503 51.3052V51.2777C318.626 47.5364 319.892 45.4526 322.299 45.0055C322.835 44.9093 323.392 44.9093 323.929 45.0055C325.524 45.3081 326.769 46.3466 327.656 48.1347L328.592 47.7221C327.512 45.4044 325.82 44.1459 323.516 43.9533C323.097 43.9189 322.67 43.9327 322.251 43.9877C318.75 44.4485 316.632 47.0619 316.199 49.5583C316.096 50.1291 316.047 50.7068 316.054 51.2845C316.054 51.3189 316.054 51.4633 316.054 51.4977C316.054 52.0754 316.096 52.6531 316.199 53.2239C316.639 55.7273 318.757 58.3338 322.251 58.7945C322.67 58.8496 323.097 58.8633 323.516 58.8289C325.82 58.6364 327.512 57.3778 328.592 55.0602L327.656 54.6475C326.769 56.4356 325.524 57.481 323.929 57.7767V57.7905Z" fill="#EEEEEE"/>
<path d="M301.73 44.1592H298.532V58.8697H301.73V44.1592Z" fill="#EEEEEE"/>
<path d="M308.374 44.1592H308.999V58.8697H308.374C306.977 58.8697 305.85 57.735 305.85 56.3458V46.6831C305.85 45.287 306.984 44.1592 308.374 44.1592Z" fill="#EEEEEE"/>
<path d="M315.307 44.1592H308.375V45.6309H315.307V44.1592Z" fill="#EEEEEE"/>
<path d="M315.307 57.3984H308.375V58.8702H315.307V57.3984Z" fill="#EEEEEE"/>
<path d="M313.843 50.252H306.064V51.7237H313.843V50.252Z" fill="#EEEEEE"/>
<path d="M99.2943 4.4541H96.9951V14.1392H99.2943V4.4541Z" fill="#EEEEEE"/>
<path d="M98.6797 9.04116L103.085 4.4541H106.315L101.95 9.04116L106.259 14.1051H103.028L98.6797 9.04116Z" fill="#EEEEEE"/>
<path d="M92.0372 4.29492V10.3467C92.0372 10.727 92.0202 11.0506 91.9861 11.3174V11.3288C91.9066 11.9079 91.4354 12.3563 90.8564 12.4472C90.0956 12.5607 88.9546 12.5777 88.0462 12.4642C87.5977 12.4074 87.1947 12.1349 87.0243 11.7205C87.013 11.6864 87.0016 11.6581 86.9903 11.624C86.8994 11.3174 86.854 10.8917 86.854 10.3467V4.29492H84.4072V10.3978C84.4072 11.2947 84.4867 11.993 84.6513 12.4869C84.8103 12.9808 85.1055 13.4293 85.537 13.8267C86.3601 14.5988 87.6658 14.9848 89.4541 14.9848C91.1289 14.9848 92.4232 14.5931 93.3372 13.8097C93.729 13.4577 94.0242 12.9922 94.2115 12.4188C94.4045 11.8454 94.4953 11.1131 94.4953 10.2274V4.29492H92.0315H92.0372Z" fill="#EEEEEE"/>
<path d="M95.1028 24.6863H89.0511C88.6707 24.6863 88.3471 24.6693 88.0803 24.6295H88.0689C87.4899 24.5444 87.0414 24.0448 86.9506 23.4317C86.837 22.6255 86.82 21.4163 86.9335 20.4512C86.9903 19.9743 87.2628 19.5486 87.6772 19.3669C87.7113 19.3555 87.7397 19.3385 87.7737 19.3328C88.0746 19.2307 88.5004 19.1852 89.0454 19.1852H95.0971V16.5908H88.9943C88.0973 16.5908 87.399 16.676 86.9051 16.8463C86.4112 17.0166 85.9627 17.3288 85.5654 17.783C84.7933 18.6516 84.4072 20.0368 84.4072 21.9386C84.4072 23.7155 84.7989 25.0894 85.5824 26.0601C85.9344 26.4746 86.3999 26.7868 86.9732 26.9912C87.5466 27.1956 88.279 27.2921 89.1646 27.2921H95.0971V24.6806L95.1028 24.6863Z" fill="#EEEEEE"/>
<path d="M98.3851 24.2207H105.237V21.8874H98.3851V24.2207Z" fill="#EEEEEE"/>
<path d="M105.241 18.0159H105.235C104.821 17.6696 104.344 17.3744 103.827 17.1417C103.078 16.8067 102.237 16.608 101.346 16.5967C100.455 16.608 99.6147 16.8067 98.8653 17.1417C98.343 17.3744 97.8718 17.6696 97.4574 18.0103H97.4517C96.7705 18.578 96.373 19.4182 96.373 20.3038V27.2979H98.6723V21.4392C98.6723 20.2413 99.5806 19.2422 100.773 19.1173C100.96 19.1003 101.153 19.0889 101.346 19.0832C101.539 19.0832 101.732 19.0946 101.92 19.1173C103.112 19.2422 104.02 20.2413 104.02 21.4392V27.2979H106.319V20.3038C106.319 19.4182 105.922 18.578 105.241 18.0159Z" fill="#EEEEEE"/>
<path d="M132.036 24.4553H134.451L131.446 18.7497C131.731 18.672 131.997 18.5684 132.249 18.4324C132.832 18.1151 133.286 17.4675 133.609 16.8846C133.933 16.3017 134.095 15.6282 134.095 14.864C134.095 14.0998 133.933 13.4263 133.616 12.8435C133.298 12.2606 132.845 11.613 132.262 11.2956C131.679 10.9783 131.006 10.8164 130.235 10.8164H124.607V24.4553H126.622V18.9052H129.244L132.049 24.4553H132.036ZM126.615 12.7916H130.3C130.663 12.7916 130.974 12.8758 131.246 13.0507C131.518 13.2191 131.725 13.4652 131.88 13.776C132.029 14.0934 132.107 14.4495 132.107 14.8575C132.107 15.2655 132.029 15.6282 131.88 15.9456C131.731 16.2629 131.518 16.5025 131.246 16.6709C130.974 16.8393 130.656 16.9299 130.3 16.9299H126.615V12.7916Z" fill="#EEEEEE"/>
<path d="M152.494 11.1475V16.8141H147.197V11.1475H144.937V24.456H147.197V18.7894H152.494V24.456H154.761V11.1475H152.494Z" fill="#EEEEEE"/>
<path d="M158.678 24.2098C158.134 24.0867 157.629 23.9054 157.156 23.6593C156.683 23.4132 156.243 23.1088 155.835 22.7462L156.936 21.3214C157.415 21.7618 157.94 22.0921 158.523 22.3123C159.099 22.5325 159.727 22.6426 160.401 22.6426C161.314 22.6426 162.02 22.4612 162.518 22.105C163.017 21.7488 163.27 21.2437 163.27 20.5896C163.27 20.1168 163.153 19.7477 162.926 19.4757C162.7 19.2037 162.402 19.0029 162.046 18.8734C161.683 18.7439 161.217 18.6208 160.647 18.5107C160.627 18.5107 160.608 18.5043 160.588 18.5043C160.569 18.5043 160.55 18.5043 160.53 18.4978L160.401 18.4719C159.559 18.3165 158.872 18.1481 158.348 17.9538C157.817 17.7595 157.37 17.4098 156.994 16.8982C156.619 16.3865 156.431 15.6612 156.431 14.7222C156.431 13.8867 156.606 13.1873 156.955 12.6045C157.305 12.0216 157.817 11.5748 158.484 11.2704C159.151 10.966 159.96 10.8105 160.899 10.8105C161.346 10.8105 161.793 10.8624 162.227 10.966C162.661 11.0696 163.095 11.225 163.516 11.4258C163.937 11.633 164.358 11.8856 164.766 12.1965L163.762 13.6795C163.283 13.3104 162.803 13.0254 162.331 12.8441C161.858 12.6563 161.379 12.5656 160.899 12.5656C160.038 12.5656 159.371 12.7469 158.898 13.1096C158.425 13.4723 158.186 13.9839 158.186 14.6509C158.186 15.1172 158.309 15.4799 158.555 15.7389C158.801 16.0045 159.105 16.1923 159.475 16.3218C159.844 16.4448 160.349 16.5744 161.003 16.7104C161.029 16.7104 161.048 16.7233 161.068 16.7233C161.087 16.7233 161.107 16.7298 161.132 16.7363C161.158 16.7363 161.191 16.7492 161.23 16.7557C161.262 16.7557 161.294 16.7687 161.327 16.7751C162.091 16.937 162.726 17.1378 163.237 17.358C163.749 17.5847 164.176 17.9473 164.52 18.4525C164.863 18.9576 165.031 19.6441 165.031 20.5184V20.5378C165.031 21.3473 164.85 22.0468 164.487 22.6231C164.124 23.1995 163.6 23.6399 162.907 23.9443C162.22 24.2486 161.385 24.3976 160.407 24.3976C159.798 24.3976 159.228 24.3393 158.684 24.2163L158.678 24.2098Z" fill="#EEEEEE"/>
<path d="M139.529 13.8027C137.107 13.8027 135.151 16.2572 135.151 19.2816C135.151 22.306 137.114 24.7605 139.529 24.7605C141.945 24.7605 143.907 22.306 143.907 19.2816C143.907 16.2572 141.945 13.8027 139.529 13.8027ZM139.529 22.3643C138.163 22.3643 137.062 20.9848 137.062 19.2751C137.062 17.5654 138.169 16.186 139.529 16.186C140.889 16.186 141.997 17.5654 141.997 19.2751C141.997 20.9848 140.889 22.3643 139.529 22.3643Z" fill="#EEEEEE"/>
<path d="M137.145 7.42955V10.4151L139.729 13.2063L146.101 6.83376V3.64746L139.929 9.81927L137.145 7.42955Z" fill="#EEEEEE"/>
<path d="M182.584 8.25488H180.997V23.6508H182.584V8.25488Z" fill="#EEEEEE"/>
<path d="M192.468 14.7051H190.881V23.6508H192.468V14.7051Z" fill="#EEEEEE"/>
<path d="M194.992 14.7051H193.405V21.0047H194.992V14.7051Z" fill="#EEEEEE"/>
<path d="M196.393 9.84744V8.26074H180.997V9.84744H196.393Z" fill="#EEEEEE"/>
<path d="M196.393 12.2566V10.6699H183.47V12.2566H196.393Z" fill="#EEEEEE"/>
<path d="M196.393 23.6511V22.0645H190.881V23.6511H196.393Z" fill="#EEEEEE"/>
<path d="M218.406 23.6511V22.0645H207.666V23.6511H218.406Z" fill="#EEEEEE"/>
<path d="M210.06 10.3574L201.994 23.6513H203.847L210.06 13.4144L214.726 21.1096H216.579L210.06 10.3574Z" fill="#EEEEEE"/>
<path d="M216.577 21.1092L215.547 19.5225H207.66V21.1092H216.577Z" fill="#EEEEEE"/>
<path d="M196.393 20.9998V19.4131H193.405V20.9998H196.393Z" fill="#EEEEEE"/>
<path d="M185.056 10.6641H183.47V16.2858H185.056V10.6641Z" fill="#EEEEEE"/>
<path d="M185.056 17.1133H183.47V23.6503H185.056V17.1133Z" fill="#EEEEEE"/>
<path d="M189.924 16.2859V14.6992H183.468V16.2859H189.924H189.924Z" fill="#EEEEEE"/>
<path d="M189.924 18.7V17.1133H183.468V18.7H189.924H189.924Z" fill="#EEEEEE"/>
<path d="M196.393 8.25586V9.84255C199.768 9.84255 202.501 12.5754 202.501 15.951C202.501 19.3267 199.768 22.0595 196.393 22.0595V23.6462C200.643 23.6462 204.088 20.2013 204.088 15.951C204.088 11.7008 200.643 8.25586 196.393 8.25586Z" fill="#EEEEEE"/>
<path d="M196.393 10.6641V12.2508C198.373 12.2508 199.97 13.855 199.97 15.8287C199.97 17.8023 198.366 19.4066 196.393 19.4066V20.9933C199.247 20.9933 201.557 18.677 201.557 15.8287C201.557 12.9804 199.241 10.6641 196.393 10.6641Z" fill="#EEEEEE"/>
<path d="M211.688 8.25483H208.382L202.187 18.0576L202.951 19.9795L210.039 8.25483L218.411 22.064L219.459 20.6334L211.689 8.25391L211.688 8.25483Z" fill="#EEEEEE"/>
<path d="M238.207 7.375H235.05V22.0435H238.207V7.375Z" fill="#EEEEEE"/>
<path d="M254.732 13.8721H251.574V22.0428H254.732V13.8721Z" fill="#EEEEEE"/>
<path d="M256.399 7.375L256.77 10.5325H246.561V7.375H256.399Z" fill="#EEEEEE"/>
<path d="M246.747 13.3191V16.4766H254.729V13.3191H246.747Z" fill="#EEEEEE"/>
<path d="M237.853 15.1413L235.222 12.9754L240.805 7.375H244.517L237.853 15.1413Z" fill="#EEEEEE"/>
<path d="M238.874 13.4131L236.725 15.7286L248.236 24.3701V20.7418L238.874 13.4131Z" fill="#EEEEEE"/>
<path d="M270.669 22.0488L263.346 6.88184L259.602 14.1164L261.335 17.4289L263.252 13.1968L267.462 22.0433L270.669 22.0488Z" fill="#EEEEEE"/>
<path d="M248.605 24.6415L245.447 22.1321V7.375H248.605V24.6415Z" fill="#EEEEEE"/>
<path d="M262.028 14.5874C262.028 11.1252 259.668 8.217 256.471 7.375H256.399L256.582 10.5214C258.111 11.236 259.169 12.787 259.169 14.5874C259.169 17.0524 257.186 19.0522 254.727 19.0743V22.0435C258.77 21.9548 262.022 18.6533 262.022 14.5874H262.028Z" fill="#EEEEEE"/>
<path d="M263.458 21.4839C264.483 21.4839 265.314 20.6531 265.314 19.6282C265.314 18.6033 264.483 17.7725 263.458 17.7725C262.433 17.7725 261.603 18.6033 261.603 19.6282C261.603 20.6531 262.433 21.4839 263.458 21.4839Z" fill="#EEEEEE"/>
<path d="M315.811 8.82812H310.649V12.6556H315.811V8.82812Z" fill="#EEEEEE"/>
<path d="M309.018 8.82812H299.764V12.6556H309.018V8.82812Z" fill="#EEEEEE"/>
<path d="M299.764 14.365V18.037V22.661H302.497V18.037H309.018V14.2031H299.764V14.365Z" fill="#EEEEEE"/>
<path d="M313.389 14.2031H310.649V18.8271V22.661H313.389H315.811V18.8271H313.389V14.2031Z" fill="#EEEEEE"/>
<path d="M328.609 22.6613H331.348L326.964 8.82812H326.504H325.086H324.593L320.209 22.6613H321.951H322.948H326.763L325.636 19.4102H323.784L325.791 11.5999L328.609 22.6613Z" fill="#EEEEEE"/>
<path d="M315.812 8.82812V12.6556C316.81 12.6556 317.619 14.035 317.619 15.7447C317.619 17.4544 316.81 18.8338 315.812 18.8338V22.6613C318.468 22.6613 320.611 19.5656 320.611 15.7447C320.611 11.9237 318.461 8.82812 315.812 8.82812Z" fill="#EEEEEE"/>
<path d="M288.851 15.8477C288.851 19.7269 290.606 22.8744 292.769 22.8744H298.28V19.0469H293.928C292.944 19.0469 292.147 17.6157 292.147 15.8542C292.147 14.0927 292.944 12.6614 293.928 12.6614H298.28V8.83398H292.769C290.606 8.83398 288.851 11.9814 288.851 15.8607V15.8477Z" fill="#EEEEEE"/>
<circle cx="33.5959" cy="32.7795" r="20.828" stroke="#EEEEEE" stroke-width="1.03388"/>
<circle cx="33.5962" cy="32.7798" r="32.2628" stroke="#EEEEEE" stroke-width="1.03388"/>
<path d="M29.8191 24.1035C24.9028 24.144 20.9238 28.1432 20.9238 33.0663C20.9238 37.9894 24.896 41.9885 29.8191 42.029L30.9859 42.0155V39.1493H29.8191C26.4876 39.1089 23.8035 36.3978 23.8035 33.0595C23.8035 29.7212 26.4944 27.0102 29.8191 26.9697H30.9859V24.1035" fill="#EEEEEE"/>
<path d="M44.8299 24.1033C39.9135 24.1438 35.9346 28.143 35.9346 33.0661C35.9346 37.9892 39.9068 41.9884 44.8299 42.0288L45.9966 42.0153V39.1491H44.8299C41.4984 39.1087 38.8143 36.3976 38.8143 33.0593C38.8143 29.7211 41.5051 27.01 44.8299 26.9695H45.9966V24.1033L44.8299 24.0898V24.1033Z" fill="#EEEEEE"/>
<path d="M44.2425 31.6094H38.3955V34.4351H44.2425V31.6094Z" fill="#EEEEEE"/>
<path d="M33.1782 4.82468C33.2298 4.66593 33.4543 4.66593 33.5059 4.82468L33.9309 6.13267C33.954 6.20366 34.0201 6.25173 34.0948 6.25173H35.4701C35.637 6.25173 35.7064 6.46533 35.5714 6.56345L34.4587 7.37183C34.3983 7.41571 34.3731 7.49348 34.3961 7.56448L34.8211 8.87246C34.8727 9.03122 34.691 9.16323 34.556 9.06511L33.4433 8.25674C33.3829 8.21286 33.3012 8.21286 33.2408 8.25674L32.1281 9.06511C31.9931 9.16323 31.8114 9.03122 31.863 8.87246L32.288 7.56448C32.311 7.49348 32.2858 7.41571 32.2254 7.37183L31.1127 6.56345C30.9777 6.46533 31.0471 6.25173 31.214 6.25173H32.5893C32.664 6.25173 32.7301 6.20366 32.7532 6.13267L33.1782 4.82468Z" fill="#EEEEEE"/>
<path d="M49.4409 9.14402C49.4924 8.98527 49.717 8.98527 49.7686 9.14402L50.1936 10.452C50.2167 10.523 50.2828 10.5711 50.3575 10.5711H51.7328C51.8997 10.5711 51.9691 10.7847 51.8341 10.8828L50.7214 11.6912C50.661 11.735 50.6358 11.8128 50.6588 11.8838L51.0838 13.1918C51.1354 13.3506 50.9537 13.4826 50.8187 13.3844L49.706 12.5761C49.6456 12.5322 49.5639 12.5322 49.5035 12.5761L48.3908 13.3844C48.2558 13.4826 48.0741 13.3506 48.1257 13.1918L48.5507 11.8838C48.5737 11.8128 48.5484 11.735 48.4881 11.6912L47.3754 10.8828C47.2404 10.7847 47.3098 10.5711 47.4767 10.5711H48.852C48.9266 10.5711 48.9928 10.523 49.0159 10.452L49.4409 9.14402Z" fill="#EEEEEE"/>
<path d="M58.5893 21.8491C58.6409 21.6903 58.8655 21.6903 58.9171 21.8491L59.3421 23.1571C59.3651 23.2281 59.4313 23.2761 59.5059 23.2761H60.8812C61.0482 23.2761 61.1176 23.4897 60.9825 23.5879L59.8699 24.3962C59.8095 24.4401 59.7842 24.5179 59.8073 24.5889L60.2323 25.8969C60.2838 26.0556 60.1021 26.1876 59.9671 26.0895L58.8545 25.2812C58.7941 25.2373 58.7123 25.2373 58.6519 25.2812L57.5393 26.0895C57.4042 26.1876 57.2225 26.0556 57.2741 25.8969L57.6991 24.5889C57.7222 24.5179 57.6969 24.4401 57.6365 24.3962L56.5239 23.5879C56.3888 23.4897 56.4582 23.2761 56.6251 23.2761H58.0004C58.0751 23.2761 58.1412 23.2281 58.1643 23.1571L58.5893 21.8491Z" fill="#EEEEEE"/>
<path d="M7.25922 23.1196C7.31081 22.9609 7.5354 22.9609 7.58699 23.1196L8.01197 24.4276C8.03504 24.4986 8.1012 24.5467 8.17585 24.5467H9.55115C9.71807 24.5467 9.78748 24.7603 9.65243 24.8584L8.5398 25.6667C8.4794 25.7106 8.45413 25.7884 8.4772 25.8594L8.90219 27.1674C8.95377 27.3261 8.77207 27.4582 8.63702 27.36L7.52439 26.5517C7.46399 26.5078 7.38222 26.5078 7.32182 26.5517L6.20919 27.36C6.07414 27.4582 5.89244 27.3261 5.94402 27.1674L6.36901 25.8594C6.39208 25.7884 6.36681 25.7106 6.30641 25.6667L5.19378 24.8584C5.05873 24.7603 5.12814 24.5467 5.29506 24.5467H6.67036C6.74501 24.5467 6.81117 24.4986 6.83424 24.4276L7.25922 23.1196Z" fill="#EEEEEE"/>
<path d="M58.8432 38.8745C58.8948 38.7157 59.1194 38.7157 59.171 38.8745L59.596 40.1825C59.619 40.2535 59.6852 40.3015 59.7598 40.3015H61.1351C61.3021 40.3015 61.3715 40.5151 61.2364 40.6133L60.1238 41.4216C60.0634 41.4655 60.0381 41.5433 60.0612 41.6143L60.4862 42.9223C60.5378 43.081 60.3561 43.213 60.221 43.1149L59.1084 42.3065C59.048 42.2627 58.9662 42.2627 58.9058 42.3065L57.7932 43.1149C57.6581 43.213 57.4764 43.081 57.528 42.9223L57.953 41.6143C57.9761 41.5433 57.9508 41.4655 57.8904 41.4216L56.7778 40.6133C56.6427 40.5151 56.7121 40.3015 56.879 40.3015H58.2543C58.329 40.3015 58.3952 40.2535 58.4182 40.1825L58.8432 38.8745Z" fill="#EEEEEE"/>
<path d="M7.51313 40.145C7.56471 39.9862 7.78931 39.9862 7.84089 40.145L8.26588 41.453C8.28895 41.524 8.35511 41.572 8.42976 41.572H9.80505C9.97198 41.572 10.0414 41.7856 9.90634 41.8838L8.7937 42.6921C8.73331 42.736 8.70804 42.8138 8.73111 42.8848L9.15609 44.1928C9.20768 44.3515 9.02597 44.4835 8.89093 44.3854L7.7783 43.577C7.7179 43.5332 7.63612 43.5332 7.57573 43.577L6.46309 44.3854C6.32805 44.4835 6.14635 44.3515 6.19793 44.1928L6.62292 42.8848C6.64599 42.8138 6.62071 42.736 6.56032 42.6921L5.44769 41.8838C5.31264 41.7856 5.38204 41.572 5.54897 41.572H6.92426C6.99891 41.572 7.06507 41.524 7.08814 41.453L7.51313 40.145Z" fill="#EEEEEE"/>
<path d="M49.4409 51.8335C49.4924 51.6747 49.717 51.6747 49.7686 51.8335L50.1936 53.1415C50.2167 53.2125 50.2828 53.2605 50.3575 53.2605H51.7328C51.8997 53.2605 51.9691 53.4741 51.8341 53.5722L50.7214 54.3806C50.661 54.4245 50.6358 54.5023 50.6588 54.5733L51.0838 55.8812C51.1354 56.04 50.9537 56.172 50.8187 56.0739L49.706 55.2655C49.6456 55.2216 49.5639 55.2216 49.5035 55.2655L48.3908 56.0739C48.2558 56.172 48.0741 56.04 48.1257 55.8812L48.5507 54.5733C48.5737 54.5023 48.5484 54.4245 48.4881 54.3806L47.3754 53.5722C47.2404 53.4741 47.3098 53.2605 47.4767 53.2605H48.852C48.9266 53.2605 48.9928 53.2125 49.0159 53.1415L49.4409 51.8335Z" fill="#EEEEEE"/>
<path d="M16.6616 9.14402C16.7132 8.98527 16.9377 8.98527 16.9893 9.14402L17.4143 10.452C17.4374 10.523 17.5035 10.5711 17.5782 10.5711H18.9535C19.1204 10.5711 19.1898 10.7847 19.0548 10.8828L17.9421 11.6912C17.8817 11.735 17.8565 11.8128 17.8795 11.8838L18.3045 13.1918C18.3561 13.3506 18.1744 13.4826 18.0394 13.3844L16.9267 12.5761C16.8663 12.5322 16.7846 12.5322 16.7242 12.5761L15.6115 13.3844C15.4765 13.4826 15.2948 13.3506 15.3464 13.1918L15.7714 11.8838C15.7944 11.8128 15.7692 11.735 15.7088 11.6912L14.5961 10.8828C14.4611 10.7847 14.5305 10.5711 14.6974 10.5711H16.0727C16.1474 10.5711 16.2135 10.523 16.2366 10.452L16.6616 9.14402Z" fill="#EEEEEE"/>
<path d="M16.6616 51.8335C16.7132 51.6747 16.9377 51.6747 16.9893 51.8335L17.4143 53.1415C17.4374 53.2125 17.5035 53.2605 17.5782 53.2605H18.9535C19.1204 53.2605 19.1898 53.4741 19.0548 53.5722L17.9421 54.3806C17.8817 54.4245 17.8565 54.5023 17.8795 54.5733L18.3045 55.8812C18.3561 56.04 18.1744 56.172 18.0394 56.0739L16.9267 55.2655C16.8663 55.2216 16.7846 55.2216 16.7242 55.2655L15.6115 56.0739C15.4765 56.172 15.2948 56.04 15.3464 55.8812L15.7714 54.5733C15.7944 54.5023 15.7692 54.4245 15.7088 54.3806L14.5961 53.5722C14.4611 53.4741 14.5305 53.2605 14.6974 53.2605H16.0727C16.1474 53.2605 16.2135 53.2125 16.2366 53.1415L16.6616 51.8335Z" fill="#EEEEEE"/>
<path d="M33.1782 57.1704C33.2298 57.0116 33.4543 57.0116 33.5059 57.1704L33.9309 58.4784C33.954 58.5494 34.0201 58.5974 34.0948 58.5974H35.4701C35.637 58.5974 35.7064 58.811 35.5714 58.9092L34.4587 59.7175C34.3983 59.7614 34.3731 59.8392 34.3961 59.9102L34.8211 61.2182C34.8727 61.3769 34.691 61.5089 34.556 61.4108L33.4433 60.6024C33.3829 60.5586 33.3012 60.5586 33.2408 60.6024L32.1281 61.4108C31.9931 61.5089 31.8114 61.3769 31.863 61.2182L32.288 59.9102C32.311 59.8392 32.2858 59.7614 32.2254 59.7175L31.1127 58.9092C30.9777 58.811 31.0471 58.5974 31.214 58.5974H32.5893C32.664 58.5974 32.7301 58.5494 32.7532 58.4784L33.1782 57.1704Z" fill="#EEEEEE"/>
</svg>
