<svg width="79" height="23" viewBox="0 0 79 23" fill="none" xmlns="http://www.w3.org/2000/svg">
<rect width="78" height="23" transform="translate(0.5)" fill="#DEB581"/>
<path d="M11.184 12.58V11.44H12.06C11.808 11.02 11.604 10.564 11.604 10.024C11.604 8.452 12.792 7.252 14.532 7.252C16.176 7.252 17.316 8.38 17.316 10C17.316 10.336 17.268 10.6 17.172 10.936H15.768C15.888 10.66 15.936 10.348 15.936 10.084C15.936 9.208 15.444 8.524 14.532 8.524C13.608 8.524 13.032 9.196 13.032 10.108C13.032 10.624 13.26 11.008 13.512 11.44H15.288V12.58H14.028C14.088 12.808 14.124 13.06 14.124 13.348C14.124 13.612 14.088 13.888 14.016 14.176C14.436 14.512 14.868 14.8 15.42 14.8C16.104 14.8 16.368 14.392 16.416 13.552H17.664C17.664 15.1 16.896 16.132 15.636 16.132C14.712 16.132 14.052 15.7 13.536 15.244C13.188 15.76 12.66 16.132 11.988 16.132C11.112 16.132 10.44 15.556 10.452 14.668C10.464 13.816 11.124 13.192 12.072 13.192C12.384 13.192 12.66 13.264 12.912 13.384C12.9 13.096 12.828 12.832 12.72 12.58H11.184ZM11.604 14.644C11.604 14.884 11.784 15.052 12.024 15.052C12.348 15.052 12.576 14.812 12.72 14.476C12.504 14.308 12.3 14.188 12.096 14.188C11.808 14.188 11.604 14.344 11.604 14.644ZM21.7122 7.324H22.8762V16H21.3402V10.024H19.2642V8.884L20.1042 8.812C21.1842 8.716 21.6282 8.344 21.7122 7.324ZM27.5294 7.324H28.6934V16H27.1574V10.024H25.0814V8.884L25.9214 8.812C27.0014 8.716 27.4454 8.344 27.5294 7.324ZM31.1838 11.692C31.1838 9.064 32.4318 7.252 34.5678 7.252C36.7038 7.252 37.9518 9.064 37.9518 11.692C37.9518 14.32 36.7038 16.132 34.5678 16.132C32.4318 16.132 31.1838 14.32 31.1838 11.692ZM32.7198 11.692C32.7198 13.504 33.2958 14.8 34.5678 14.8C35.8398 14.8 36.4158 13.504 36.4158 11.692C36.4158 9.88 35.8398 8.584 34.5678 8.584C33.2958 8.584 32.7198 9.88 32.7198 11.692ZM43.6025 11.692C43.6025 9.076 45.2825 7.252 47.6105 7.252C49.9385 7.252 51.6185 9.076 51.6185 11.692C51.6185 14.308 49.9385 16.132 47.6105 16.132C45.2825 16.132 43.6025 14.308 43.6025 11.692ZM50.0825 11.692C50.0825 9.82 49.0625 8.608 47.6105 8.608C46.1585 8.608 45.1385 9.82 45.1385 11.692C45.1385 13.564 46.1585 14.776 47.6105 14.776C49.0625 14.776 50.0825 13.564 50.0825 11.692ZM55.5241 16H54.0121V7.384H59.7601V8.728H55.5241V11.068H59.0761V12.412H55.5241V16ZM63.6499 16H62.1379V7.384H67.8859V8.728H63.6499V11.068H67.2019V12.412H63.6499V16Z" fill="white"/>
</svg>
